M48
;DRILL file {KiCad 4.0.1-stable} date 03/04/2016 13:33:37
;FORMAT={-:-/ absolute / metric / decimal}
FMAT,2
METRIC,TZ
T1C0.400
T2C0.813
T3C1.200
T4C3.200
%
G90
G05
M71
T1
X127.75Y-105.5
X129.Y-104.5
X129.75Y-122.
X130.25Y-114.
X131.Y-99.5
X131.Y-100.75
X131.Y-106.
X131.Y-107.25
X131.75Y-113.75
X132.25Y-99.5
X132.25Y-100.75
X132.25Y-106.
X132.25Y-107.25
X132.25Y-120.5
X132.25Y-121.5
X132.25Y-126.5
X132.25Y-127.5
X132.75Y-82.5
X133.Y-113.75
X133.Y-115.
X133.25Y-120.5
X133.5Y-126.5
X133.75Y-89.5
X134.75Y-93.5
X136.Y-93.5
X137.25Y-93.5
X138.5Y-93.5
X139.75Y-93.5
X143.Y-71.
X143.Y-72.5
X143.Y-74.
X143.Y-75.5
X144.5Y-71.
X144.5Y-86.
X144.5Y-87.5
X144.5Y-89.
X144.5Y-90.5
X144.5Y-102.
X144.5Y-103.5
X144.5Y-105.
X145.Y-118.5
X145.Y-120.
X145.Y-121.5
X146.Y-71.
X146.Y-86.
X146.Y-102.
X146.Y-117.
X146.5Y-121.5
X147.Y-153.
X147.5Y-71.
X147.5Y-86.
X147.5Y-102.
X147.5Y-117.
X147.5Y-132.
X147.5Y-133.
X147.5Y-134.
X147.5Y-137.
X147.5Y-147.5
X147.5Y-149.
X148.Y-153.
X153.67Y-157.48
X154.Y-80.
X154.Y-95.
X154.Y-111.
X154.Y-125.
X154.Y-141.
X155.Y-80.
X155.Y-95.
X155.Y-111.
X155.Y-125.
X155.Y-141.
X155.Y-158.
X156.Y-78.
X156.Y-79.
X156.Y-80.
X156.Y-93.
X156.Y-94.
X156.Y-95.
X156.Y-109.
X156.Y-110.
X156.Y-111.
X156.Y-123.
X156.Y-124.
X156.Y-125.
X156.Y-139.
X156.Y-140.
X156.Y-141.
X156.Y-156.
X156.Y-157.
X156.Y-158.
X157.Y-78.
X157.Y-79.
X157.Y-80.
X157.Y-93.
X157.Y-94.
X157.Y-95.
X157.Y-109.
X157.Y-110.
X157.Y-111.
X157.Y-123.
X157.Y-124.
X157.Y-125.
X157.Y-139.
X157.Y-140.
X157.Y-141.
X157.Y-156.
X157.Y-157.
X157.Y-158.
X158.Y-78.
X158.Y-79.
X158.Y-80.
X158.Y-93.
X158.Y-94.
X158.Y-95.
X158.Y-109.
X158.Y-110.
X158.Y-111.
X158.Y-123.
X158.Y-124.
X158.Y-125.
X158.Y-139.
X158.Y-140.
X158.Y-141.
X158.Y-156.
X158.Y-157.
X158.Y-158.
X178.25Y-105.5
X179.5Y-104.5
X180.25Y-122.
X180.75Y-114.
X181.5Y-99.5
X181.5Y-100.75
X181.5Y-106.
X181.5Y-107.25
X182.25Y-113.75
X182.75Y-99.5
X182.75Y-100.75
X182.75Y-106.
X182.75Y-107.25
X182.75Y-120.5
X182.75Y-121.5
X182.75Y-126.5
X182.75Y-127.5
X183.25Y-82.5
X183.5Y-113.75
X183.5Y-115.
X183.75Y-120.5
X184.Y-126.5
X184.25Y-89.5
X185.25Y-93.5
X186.5Y-93.5
X187.75Y-93.5
X189.Y-93.5
X190.25Y-93.5
X193.5Y-71.
X193.5Y-72.5
X193.5Y-74.
X193.5Y-75.5
X195.Y-71.
X195.Y-86.
X195.Y-87.5
X195.Y-89.
X195.Y-90.5
X195.Y-102.
X195.Y-103.5
X195.Y-105.
X195.5Y-118.5
X195.5Y-120.
X195.5Y-121.5
X196.5Y-71.
X196.5Y-86.
X196.5Y-102.
X196.5Y-117.
X197.Y-121.5
X197.5Y-153.
X198.Y-71.
X198.Y-86.
X198.Y-102.
X198.Y-117.
X198.Y-132.
X198.Y-133.
X198.Y-134.
X198.Y-137.
X198.Y-147.5
X198.Y-149.
X198.5Y-153.
X204.17Y-157.48
X204.5Y-80.
X204.5Y-95.
X204.5Y-111.
X204.5Y-125.
X204.5Y-141.
X205.5Y-80.
X205.5Y-95.
X205.5Y-111.
X205.5Y-125.
X205.5Y-141.
X205.5Y-158.
X206.5Y-78.
X206.5Y-79.
X206.5Y-80.
X206.5Y-93.
X206.5Y-94.
X206.5Y-95.
X206.5Y-109.
X206.5Y-110.
X206.5Y-111.
X206.5Y-123.
X206.5Y-124.
X206.5Y-125.
X206.5Y-139.
X206.5Y-140.
X206.5Y-141.
X206.5Y-156.
X206.5Y-157.
X206.5Y-158.
X207.5Y-78.
X207.5Y-79.
X207.5Y-80.
X207.5Y-93.
X207.5Y-94.
X207.5Y-95.
X207.5Y-109.
X207.5Y-110.
X207.5Y-111.
X207.5Y-123.
X207.5Y-124.
X207.5Y-125.
X207.5Y-139.
X207.5Y-140.
X207.5Y-141.
X207.5Y-156.
X207.5Y-157.
X207.5Y-158.
X208.5Y-78.
X208.5Y-79.
X208.5Y-80.
X208.5Y-93.
X208.5Y-94.
X208.5Y-95.
X208.5Y-109.
X208.5Y-110.
X208.5Y-111.
X208.5Y-123.
X208.5Y-124.
X208.5Y-125.
X208.5Y-139.
X208.5Y-140.
X208.5Y-141.
X208.5Y-156.
X208.5Y-157.
X208.5Y-158.
T2
X123.825Y-100.33
X123.825Y-102.87
X123.825Y-105.41
X123.825Y-107.95
X123.825Y-110.49
X123.825Y-113.03
X123.825Y-115.57
X123.825Y-118.11
X123.825Y-120.65
X123.825Y-123.19
X123.825Y-125.73
X123.825Y-128.27
X123.825Y-130.81
X123.825Y-133.35
X123.825Y-135.89
X139.065Y-100.33
X139.065Y-102.87
X139.065Y-105.41
X139.065Y-107.95
X139.065Y-110.49
X139.065Y-113.03
X139.065Y-115.57
X139.065Y-118.11
X139.065Y-120.65
X139.065Y-123.19
X139.065Y-125.73
X139.065Y-128.27
X139.065Y-130.81
X139.065Y-133.35
X139.065Y-135.89
X174.325Y-100.33
X174.325Y-102.87
X174.325Y-105.41
X174.325Y-107.95
X174.325Y-110.49
X174.325Y-113.03
X174.325Y-115.57
X174.325Y-118.11
X174.325Y-120.65
X174.325Y-123.19
X174.325Y-125.73
X174.325Y-128.27
X174.325Y-130.81
X174.325Y-133.35
X174.325Y-135.89
X189.565Y-100.33
X189.565Y-102.87
X189.565Y-105.41
X189.565Y-107.95
X189.565Y-110.49
X189.565Y-113.03
X189.565Y-115.57
X189.565Y-118.11
X189.565Y-120.65
X189.565Y-123.19
X189.565Y-125.73
X189.565Y-128.27
X189.565Y-130.81
X189.565Y-133.35
X189.565Y-135.89
T3
X117.Y-64.
X117.Y-66.54
X117.Y-72.
X117.Y-74.54
X117.Y-80.
X117.Y-82.54
X117.Y-88.
X117.Y-90.54
X117.Y-93.08
X117.Y-98.
X117.Y-100.54
X117.Y-103.08
X117.Y-108.
X117.Y-110.54
X117.Y-113.08
X117.Y-118.
X117.Y-120.54
X117.Y-123.08
X117.Y-128.
X117.Y-130.54
X117.Y-133.08
X117.Y-138.
X117.Y-140.54
X117.Y-143.08
X124.Y-149.38
X124.Y-151.92
X124.Y-154.46
X124.Y-157.
X131.Y-154.
X133.54Y-154.
X135.38Y-66.5
X136.08Y-154.
X137.92Y-66.5
X138.62Y-154.
X140.46Y-66.5
X143.Y-66.5
X158.Y-68.46
X158.Y-71.
X158.Y-84.46
X158.Y-87.
X158.Y-99.46
X158.Y-102.
X158.Y-114.46
X158.Y-117.
X158.Y-129.46
X158.Y-132.
X158.Y-145.46
X158.Y-148.
X167.5Y-64.
X167.5Y-66.54
X167.5Y-72.
X167.5Y-74.54
X167.5Y-80.
X167.5Y-82.54
X167.5Y-88.
X167.5Y-90.54
X167.5Y-93.08
X167.5Y-98.
X167.5Y-100.54
X167.5Y-103.08
X167.5Y-108.
X167.5Y-110.54
X167.5Y-113.08
X167.5Y-118.
X167.5Y-120.54
X167.5Y-123.08
X167.5Y-128.
X167.5Y-130.54
X167.5Y-133.08
X167.5Y-138.
X167.5Y-140.54
X167.5Y-143.08
X174.5Y-149.38
X174.5Y-151.92
X174.5Y-154.46
X174.5Y-157.
X181.5Y-154.
X184.04Y-154.
X185.88Y-66.5
X186.58Y-154.
X188.42Y-66.5
X189.12Y-154.
X190.96Y-66.5
X193.5Y-66.5
X208.5Y-68.46
X208.5Y-71.
X208.5Y-84.46
X208.5Y-87.
X208.5Y-99.46
X208.5Y-102.
X208.5Y-114.46
X208.5Y-117.
X208.5Y-129.46
X208.5Y-132.
X208.5Y-145.46
X208.5Y-148.
T4
X116.Y-156.
X158.Y-64.
X166.5Y-156.
X208.5Y-64.
T0
M30
