G04 #@! TF.FileFunction,Legend,Top*
%FSLAX46Y46*%
G04 Gerber Fmt 4.6, Leading zero omitted, Abs format (unit mm)*
G04 Created by KiCad (PCBNEW 4.0.1-stable) date 03/04/2016 13:28:13*
%MOMM*%
G01*
G04 APERTURE LIST*
%ADD10C,0.100000*%
%ADD11C,0.200000*%
%ADD12C,0.300000*%
%ADD13C,0.150000*%
G04 APERTURE END LIST*
D10*
D11*
X141952381Y-144508930D02*
X140952381Y-144383930D01*
X140952381Y-144145835D01*
X141000000Y-144008929D01*
X141095238Y-143925596D01*
X141190476Y-143889881D01*
X141380952Y-143866072D01*
X141523810Y-143883929D01*
X141714286Y-143955358D01*
X141809524Y-144014881D01*
X141904762Y-144122024D01*
X141952381Y-144270835D01*
X141952381Y-144508930D01*
X141904762Y-143122024D02*
X141952381Y-143223215D01*
X141952381Y-143413692D01*
X141904762Y-143502977D01*
X141809524Y-143538691D01*
X141428571Y-143491072D01*
X141333333Y-143431549D01*
X141285714Y-143330358D01*
X141285714Y-143139881D01*
X141333333Y-143050596D01*
X141428571Y-143014881D01*
X141523810Y-143026786D01*
X141619048Y-143514882D01*
X141904762Y-142693453D02*
X141952381Y-142604168D01*
X141952381Y-142413692D01*
X141904762Y-142312500D01*
X141809524Y-142252976D01*
X141761905Y-142247024D01*
X141666667Y-142282738D01*
X141619048Y-142372025D01*
X141619048Y-142514882D01*
X141571429Y-142604168D01*
X141476190Y-142639882D01*
X141428571Y-142633929D01*
X141333333Y-142574406D01*
X141285714Y-142473215D01*
X141285714Y-142330358D01*
X141333333Y-142241072D01*
X141952381Y-141842263D02*
X141285714Y-141758929D01*
X140952381Y-141717263D02*
X141000000Y-141770834D01*
X141047619Y-141729167D01*
X141000000Y-141675596D01*
X140952381Y-141717263D01*
X141047619Y-141729167D01*
X141285714Y-140854167D02*
X142095238Y-140955358D01*
X142190476Y-141014882D01*
X142238095Y-141068453D01*
X142285714Y-141169644D01*
X142285714Y-141312501D01*
X142238095Y-141401787D01*
X141904762Y-140931548D02*
X141952381Y-141032739D01*
X141952381Y-141223216D01*
X141904762Y-141312501D01*
X141857143Y-141354168D01*
X141761905Y-141389882D01*
X141476190Y-141354168D01*
X141380952Y-141294644D01*
X141333333Y-141241073D01*
X141285714Y-141139882D01*
X141285714Y-140949405D01*
X141333333Y-140860120D01*
X141285714Y-140377977D02*
X141952381Y-140461311D01*
X141380952Y-140389882D02*
X141333333Y-140336311D01*
X141285714Y-140235120D01*
X141285714Y-140092262D01*
X141333333Y-140002977D01*
X141428571Y-139967262D01*
X141952381Y-140032739D01*
X141952381Y-138794644D02*
X140952381Y-138669644D01*
X141333333Y-138717263D02*
X141285714Y-138616072D01*
X141285714Y-138425595D01*
X141333333Y-138336310D01*
X141380952Y-138294643D01*
X141476190Y-138258929D01*
X141761905Y-138294643D01*
X141857143Y-138354167D01*
X141904762Y-138407738D01*
X141952381Y-138508929D01*
X141952381Y-138699406D01*
X141904762Y-138788691D01*
X141285714Y-137901786D02*
X141952381Y-137747025D01*
X141285714Y-137425595D02*
X141952381Y-137747025D01*
X142190476Y-137872025D01*
X142238095Y-137925596D01*
X142285714Y-138026786D01*
X141285714Y-135663690D02*
X141285714Y-135282738D01*
X141952381Y-135604167D02*
X141095238Y-135497024D01*
X141000000Y-135437500D01*
X140952381Y-135336310D01*
X140952381Y-135241072D01*
X140952381Y-134479166D02*
X140952381Y-134669643D01*
X141000000Y-134770833D01*
X141047619Y-134824404D01*
X141190476Y-134937499D01*
X141380952Y-135008928D01*
X141761905Y-135056547D01*
X141857143Y-135020833D01*
X141904762Y-134979166D01*
X141952381Y-134889881D01*
X141952381Y-134699404D01*
X141904762Y-134598213D01*
X141857143Y-134544642D01*
X141761905Y-134485118D01*
X141523810Y-134455356D01*
X141428571Y-134491070D01*
X141380952Y-134532737D01*
X141333333Y-134622023D01*
X141333333Y-134812500D01*
X141380952Y-134913690D01*
X141428571Y-134967261D01*
X141523810Y-135026785D01*
X141952381Y-134080357D02*
X141285714Y-133997023D01*
X140952381Y-133955357D02*
X141000000Y-134008928D01*
X141047619Y-133967261D01*
X141000000Y-133913690D01*
X140952381Y-133955357D01*
X141047619Y-133967261D01*
X141285714Y-133663690D02*
X141285714Y-133282738D01*
X140952381Y-133479167D02*
X141809524Y-133586309D01*
X141904762Y-133550595D01*
X141952381Y-133461310D01*
X141952381Y-133366072D01*
X141285714Y-132520832D02*
X141952381Y-132604166D01*
X141285714Y-132949404D02*
X141809524Y-133014880D01*
X141904762Y-132979166D01*
X141952381Y-132889881D01*
X141952381Y-132747023D01*
X141904762Y-132645832D01*
X141857143Y-132592261D01*
D12*
X134692857Y-88308035D02*
X134692857Y-87808035D01*
X135478571Y-87691963D02*
X135478571Y-88406249D01*
X133978571Y-88218749D01*
X133978571Y-87504463D01*
X135478571Y-86834820D02*
X135407143Y-86968750D01*
X135264286Y-87022321D01*
X133978571Y-86861606D01*
X135407143Y-85683036D02*
X135478571Y-85834821D01*
X135478571Y-86120535D01*
X135407143Y-86254464D01*
X135264286Y-86308036D01*
X134692857Y-86236607D01*
X134550000Y-86147321D01*
X134478571Y-85995535D01*
X134478571Y-85709821D01*
X134550000Y-85575893D01*
X134692857Y-85522321D01*
X134835714Y-85540178D01*
X134978571Y-86272321D01*
X135407143Y-84325893D02*
X135478571Y-84477678D01*
X135478571Y-84763392D01*
X135407143Y-84897322D01*
X135335714Y-84959821D01*
X135192857Y-85013393D01*
X134764286Y-84959822D01*
X134621429Y-84870536D01*
X134550000Y-84790179D01*
X134478571Y-84638392D01*
X134478571Y-84352678D01*
X134550000Y-84218750D01*
X134478571Y-83781250D02*
X134478571Y-83209821D01*
X133978571Y-83504464D02*
X135264286Y-83665179D01*
X135407143Y-83611608D01*
X135478571Y-83477678D01*
X135478571Y-83334821D01*
X135478571Y-82834821D02*
X134478571Y-82709821D01*
X134764286Y-82745536D02*
X134621429Y-82656251D01*
X134550000Y-82575893D01*
X134478571Y-82424107D01*
X134478571Y-82281250D01*
X135478571Y-81691964D02*
X135407143Y-81825894D01*
X135335714Y-81888393D01*
X135192857Y-81941965D01*
X134764286Y-81888394D01*
X134621429Y-81799108D01*
X134550000Y-81718751D01*
X134478571Y-81566964D01*
X134478571Y-81352679D01*
X134550000Y-81218751D01*
X134621429Y-81156251D01*
X134764286Y-81102679D01*
X135192857Y-81156250D01*
X135335714Y-81245536D01*
X135407143Y-81325894D01*
X135478571Y-81477679D01*
X135478571Y-81691964D01*
X135478571Y-80334821D02*
X135407143Y-80468751D01*
X135264286Y-80522322D01*
X133978571Y-80361607D01*
X135478571Y-79120536D02*
X134692857Y-79022322D01*
X134550000Y-79075894D01*
X134478571Y-79209822D01*
X134478571Y-79495536D01*
X134550000Y-79647322D01*
X135407143Y-79111608D02*
X135478571Y-79263393D01*
X135478571Y-79620536D01*
X135407143Y-79754465D01*
X135264286Y-79808037D01*
X135121429Y-79790180D01*
X134978571Y-79700893D01*
X134907143Y-79549108D01*
X134907143Y-79191965D01*
X134835714Y-79040179D01*
X135478571Y-78406250D02*
X133978571Y-78218750D01*
X134550000Y-78290179D02*
X134478571Y-78138393D01*
X134478571Y-77852679D01*
X134550000Y-77718751D01*
X134621429Y-77656251D01*
X134764286Y-77602679D01*
X135192857Y-77656250D01*
X135335714Y-77745536D01*
X135407143Y-77825894D01*
X135478571Y-77977679D01*
X135478571Y-78263393D01*
X135407143Y-78397322D01*
X137878571Y-89156249D02*
X136378571Y-88968749D01*
X136378571Y-88397321D01*
X136450000Y-88263392D01*
X136521429Y-88200893D01*
X136664286Y-88147321D01*
X136878571Y-88174106D01*
X137021429Y-88263393D01*
X137092857Y-88343749D01*
X137164286Y-88495536D01*
X137164286Y-89066964D01*
X136378571Y-87183035D02*
X136378571Y-87040178D01*
X136450000Y-86906250D01*
X136521429Y-86843750D01*
X136664286Y-86790178D01*
X136950000Y-86754464D01*
X137307143Y-86799107D01*
X137592857Y-86906249D01*
X137735714Y-86995535D01*
X137807143Y-87075893D01*
X137878571Y-87227678D01*
X137878571Y-87370535D01*
X137807143Y-87504464D01*
X137735714Y-87566964D01*
X137592857Y-87620535D01*
X137307143Y-87656250D01*
X136950000Y-87611607D01*
X136664286Y-87504464D01*
X136521429Y-87415179D01*
X136450000Y-87334821D01*
X136378571Y-87183035D01*
X136878571Y-86245535D02*
X137878571Y-86084821D01*
X137164286Y-85709822D01*
X137878571Y-85513392D01*
X136878571Y-85102678D01*
X137450000Y-84674107D02*
X137450000Y-83959821D01*
X137878571Y-84870535D02*
X136378571Y-84183035D01*
X137878571Y-83870535D01*
X137878571Y-83370535D02*
X136878571Y-83245535D01*
X137164286Y-83281250D02*
X137021429Y-83191965D01*
X136950000Y-83111607D01*
X136878571Y-82959821D01*
X136878571Y-82816964D01*
X137878571Y-81799107D02*
X136378571Y-81611607D01*
X137807143Y-81790179D02*
X137878571Y-81941964D01*
X137878571Y-82227678D01*
X137807143Y-82361608D01*
X137735714Y-82424107D01*
X137592857Y-82477679D01*
X137164286Y-82424108D01*
X137021429Y-82334822D01*
X136950000Y-82254465D01*
X136878571Y-82102678D01*
X136878571Y-81816964D01*
X136950000Y-81683036D01*
X136878571Y-80316964D02*
X137878571Y-80441964D01*
X136878571Y-80959821D02*
X137664286Y-81058036D01*
X137807143Y-81004465D01*
X137878571Y-80870535D01*
X137878571Y-80656250D01*
X137807143Y-80504465D01*
X137735714Y-80424107D01*
X137878571Y-79727678D02*
X136878571Y-79602678D01*
X136378571Y-79540178D02*
X136450000Y-79620536D01*
X136521429Y-79558036D01*
X136450000Y-79477679D01*
X136378571Y-79540178D01*
X136521429Y-79558036D01*
X136878571Y-78888392D02*
X137878571Y-79013392D01*
X137021429Y-78906250D02*
X136950000Y-78825893D01*
X136878571Y-78674106D01*
X136878571Y-78459821D01*
X136950000Y-78325893D01*
X137092857Y-78272321D01*
X137878571Y-78370535D01*
X137878571Y-77441963D02*
X137807143Y-77575893D01*
X137735714Y-77638392D01*
X137592857Y-77691964D01*
X137164286Y-77638393D01*
X137021429Y-77549107D01*
X136950000Y-77468750D01*
X136878571Y-77316963D01*
X136878571Y-77102678D01*
X136950000Y-76968750D01*
X137021429Y-76906250D01*
X137164286Y-76852678D01*
X137592857Y-76906249D01*
X137735714Y-76995535D01*
X137807143Y-77075893D01*
X137878571Y-77227678D01*
X137878571Y-77441963D01*
D13*
X126000000Y-75025000D02*
X128000000Y-75025000D01*
X128000000Y-72975000D02*
X126000000Y-72975000D01*
X121975000Y-83250000D02*
X121975000Y-85250000D01*
X124025000Y-85250000D02*
X124025000Y-83250000D01*
X117850000Y-147000000D02*
X117850000Y-146000000D01*
X116150000Y-146000000D02*
X116150000Y-147000000D01*
X148158200Y-153694180D02*
X148859240Y-153694180D01*
X148859240Y-153694180D02*
X148859240Y-153943100D01*
X148859240Y-156493160D02*
X148859240Y-156693820D01*
X148859240Y-156693820D02*
X148158200Y-156693820D01*
X153670000Y-151130000D02*
X153670000Y-154305000D01*
X153670000Y-154305000D02*
X155448000Y-154305000D01*
X155448000Y-154305000D02*
X155448000Y-151130000D01*
X149098000Y-151130000D02*
X149098000Y-154305000D01*
X149098000Y-154305000D02*
X150876000Y-154305000D01*
X150876000Y-154305000D02*
X150876000Y-151130000D01*
X155702000Y-145034000D02*
X155702000Y-151130000D01*
X155702000Y-151130000D02*
X148844000Y-151130000D01*
X148844000Y-151130000D02*
X148844000Y-143256000D01*
X148844000Y-143129000D02*
X155702000Y-143129000D01*
X155702000Y-143256000D02*
X155702000Y-145034000D01*
X148539200Y-138200180D02*
X149240240Y-138200180D01*
X149240240Y-138200180D02*
X149240240Y-138449100D01*
X149240240Y-140999160D02*
X149240240Y-141199820D01*
X149240240Y-141199820D02*
X148539200Y-141199820D01*
X153797000Y-135636000D02*
X153797000Y-138811000D01*
X153797000Y-138811000D02*
X155575000Y-138811000D01*
X155575000Y-138811000D02*
X155575000Y-135636000D01*
X149225000Y-135636000D02*
X149225000Y-138811000D01*
X149225000Y-138811000D02*
X151003000Y-138811000D01*
X151003000Y-138811000D02*
X151003000Y-135636000D01*
X155829000Y-129540000D02*
X155829000Y-135636000D01*
X155829000Y-135636000D02*
X148971000Y-135636000D01*
X148971000Y-135636000D02*
X148971000Y-127762000D01*
X148971000Y-127635000D02*
X155829000Y-127635000D01*
X155829000Y-127762000D02*
X155829000Y-129540000D01*
X148539200Y-122960180D02*
X149240240Y-122960180D01*
X149240240Y-122960180D02*
X149240240Y-123209100D01*
X149240240Y-125759160D02*
X149240240Y-125959820D01*
X149240240Y-125959820D02*
X148539200Y-125959820D01*
X153797000Y-120396000D02*
X153797000Y-123571000D01*
X153797000Y-123571000D02*
X155575000Y-123571000D01*
X155575000Y-123571000D02*
X155575000Y-120396000D01*
X149225000Y-120396000D02*
X149225000Y-123571000D01*
X149225000Y-123571000D02*
X151003000Y-123571000D01*
X151003000Y-123571000D02*
X151003000Y-120396000D01*
X155829000Y-114300000D02*
X155829000Y-120396000D01*
X155829000Y-120396000D02*
X148971000Y-120396000D01*
X148971000Y-120396000D02*
X148971000Y-112522000D01*
X148971000Y-112395000D02*
X155829000Y-112395000D01*
X155829000Y-112522000D02*
X155829000Y-114300000D01*
X148539200Y-107720180D02*
X149240240Y-107720180D01*
X149240240Y-107720180D02*
X149240240Y-107969100D01*
X149240240Y-110519160D02*
X149240240Y-110719820D01*
X149240240Y-110719820D02*
X148539200Y-110719820D01*
X153797000Y-105156000D02*
X153797000Y-108331000D01*
X153797000Y-108331000D02*
X155575000Y-108331000D01*
X155575000Y-108331000D02*
X155575000Y-105156000D01*
X149225000Y-105156000D02*
X149225000Y-108331000D01*
X149225000Y-108331000D02*
X151003000Y-108331000D01*
X151003000Y-108331000D02*
X151003000Y-105156000D01*
X155829000Y-99060000D02*
X155829000Y-105156000D01*
X155829000Y-105156000D02*
X148971000Y-105156000D01*
X148971000Y-105156000D02*
X148971000Y-97282000D01*
X148971000Y-97155000D02*
X155829000Y-97155000D01*
X155829000Y-97282000D02*
X155829000Y-99060000D01*
X148539200Y-92480180D02*
X149240240Y-92480180D01*
X149240240Y-92480180D02*
X149240240Y-92729100D01*
X149240240Y-95279160D02*
X149240240Y-95479820D01*
X149240240Y-95479820D02*
X148539200Y-95479820D01*
X153797000Y-89916000D02*
X153797000Y-93091000D01*
X153797000Y-93091000D02*
X155575000Y-93091000D01*
X155575000Y-93091000D02*
X155575000Y-89916000D01*
X149225000Y-89916000D02*
X149225000Y-93091000D01*
X149225000Y-93091000D02*
X151003000Y-93091000D01*
X151003000Y-93091000D02*
X151003000Y-89916000D01*
X155829000Y-83820000D02*
X155829000Y-89916000D01*
X155829000Y-89916000D02*
X148971000Y-89916000D01*
X148971000Y-89916000D02*
X148971000Y-82042000D01*
X148971000Y-81915000D02*
X155829000Y-81915000D01*
X155829000Y-82042000D02*
X155829000Y-83820000D01*
X148539200Y-77240180D02*
X149240240Y-77240180D01*
X149240240Y-77240180D02*
X149240240Y-77489100D01*
X149240240Y-80039160D02*
X149240240Y-80239820D01*
X149240240Y-80239820D02*
X148539200Y-80239820D01*
X153797000Y-74676000D02*
X153797000Y-77851000D01*
X153797000Y-77851000D02*
X155575000Y-77851000D01*
X155575000Y-77851000D02*
X155575000Y-74676000D01*
X149225000Y-74676000D02*
X149225000Y-77851000D01*
X149225000Y-77851000D02*
X151003000Y-77851000D01*
X151003000Y-77851000D02*
X151003000Y-74676000D01*
X155829000Y-68580000D02*
X155829000Y-74676000D01*
X155829000Y-74676000D02*
X148971000Y-74676000D01*
X148971000Y-74676000D02*
X148971000Y-66802000D01*
X148971000Y-66675000D02*
X155829000Y-66675000D01*
X155829000Y-66802000D02*
X155829000Y-68580000D01*
X126603000Y-87274000D02*
X126603000Y-84099000D01*
X126603000Y-84099000D02*
X124825000Y-84099000D01*
X124825000Y-84099000D02*
X124825000Y-87274000D01*
X131175000Y-87274000D02*
X131175000Y-84099000D01*
X131175000Y-84099000D02*
X129397000Y-84099000D01*
X129397000Y-84099000D02*
X129397000Y-87274000D01*
X124571000Y-93370000D02*
X124571000Y-87274000D01*
X124571000Y-87274000D02*
X131429000Y-87274000D01*
X131429000Y-87274000D02*
X131429000Y-95148000D01*
X131429000Y-95275000D02*
X124571000Y-95275000D01*
X124571000Y-95148000D02*
X124571000Y-93370000D01*
X127250000Y-78000000D02*
X126700000Y-78450000D01*
X126700000Y-78450000D02*
X126700000Y-77550000D01*
X126700000Y-77550000D02*
X127250000Y-78000000D01*
X127250000Y-78550000D02*
X127250000Y-77450000D01*
X128799140Y-76249940D02*
X128799140Y-76600460D01*
X128799140Y-79750060D02*
X128799140Y-79399540D01*
X124749560Y-76249940D02*
X124749560Y-76600460D01*
X129250440Y-76249940D02*
X129250440Y-76600460D01*
X129250440Y-79750060D02*
X129250440Y-79399540D01*
X124749560Y-79750060D02*
X124749560Y-79399540D01*
X129250440Y-76249940D02*
X124749560Y-76249940D01*
X129250440Y-79750060D02*
X124749560Y-79750060D01*
X146290000Y-134655000D02*
X146290000Y-135855000D01*
X144540000Y-135855000D02*
X144540000Y-134655000D01*
X144740000Y-140200000D02*
X144740000Y-139200000D01*
X146090000Y-139200000D02*
X146090000Y-140200000D01*
X151900000Y-136485000D02*
X152900000Y-136485000D01*
X152900000Y-137835000D02*
X151900000Y-137835000D01*
X141365000Y-125695000D02*
X141365000Y-124495000D01*
X143115000Y-124495000D02*
X143115000Y-125695000D01*
X144740000Y-124960000D02*
X144740000Y-123960000D01*
X146090000Y-123960000D02*
X146090000Y-124960000D01*
X151900000Y-121245000D02*
X152900000Y-121245000D01*
X152900000Y-122595000D02*
X151900000Y-122595000D01*
X143270000Y-115535000D02*
X143270000Y-114335000D01*
X145020000Y-114335000D02*
X145020000Y-115535000D01*
X144740000Y-109720000D02*
X144740000Y-108720000D01*
X146090000Y-108720000D02*
X146090000Y-109720000D01*
X151900000Y-106005000D02*
X152900000Y-106005000D01*
X152900000Y-107355000D02*
X151900000Y-107355000D01*
X142000000Y-95215000D02*
X142000000Y-94015000D01*
X143750000Y-94015000D02*
X143750000Y-95215000D01*
X144740000Y-94480000D02*
X144740000Y-93480000D01*
X146090000Y-93480000D02*
X146090000Y-94480000D01*
X151900000Y-90765000D02*
X152900000Y-90765000D01*
X152900000Y-92115000D02*
X151900000Y-92115000D01*
X142000000Y-79975000D02*
X142000000Y-78775000D01*
X143750000Y-78775000D02*
X143750000Y-79975000D01*
X144740000Y-79240000D02*
X144740000Y-78240000D01*
X146090000Y-78240000D02*
X146090000Y-79240000D01*
X151900000Y-75525000D02*
X152900000Y-75525000D01*
X152900000Y-76875000D02*
X151900000Y-76875000D01*
X120375000Y-145900000D02*
X120375000Y-147100000D01*
X118625000Y-147100000D02*
X118625000Y-145900000D01*
X122900000Y-144125000D02*
X124100000Y-144125000D01*
X124100000Y-145875000D02*
X122900000Y-145875000D01*
X145782000Y-150276000D02*
X145782000Y-151476000D01*
X144032000Y-151476000D02*
X144032000Y-150276000D01*
X144232000Y-155948000D02*
X144232000Y-154948000D01*
X145582000Y-154948000D02*
X145582000Y-155948000D01*
X151773000Y-152233000D02*
X152773000Y-152233000D01*
X152773000Y-153583000D02*
X151773000Y-153583000D01*
X130800800Y-131249820D02*
X130099760Y-131249820D01*
X130099760Y-131249820D02*
X130099760Y-131000900D01*
X130099760Y-128450840D02*
X130099760Y-128250180D01*
X130099760Y-128250180D02*
X130800800Y-128250180D01*
X130800800Y-124999820D02*
X130099760Y-124999820D01*
X130099760Y-124999820D02*
X130099760Y-124750900D01*
X130099760Y-122200840D02*
X130099760Y-122000180D01*
X130099760Y-122000180D02*
X130800800Y-122000180D01*
X130800800Y-118999820D02*
X130099760Y-118999820D01*
X130099760Y-118999820D02*
X130099760Y-118750900D01*
X130099760Y-116200840D02*
X130099760Y-116000180D01*
X130099760Y-116000180D02*
X130800800Y-116000180D01*
X130800800Y-110999820D02*
X130099760Y-110999820D01*
X130099760Y-110999820D02*
X130099760Y-110750900D01*
X130099760Y-108200840D02*
X130099760Y-108000180D01*
X130099760Y-108000180D02*
X130800800Y-108000180D01*
X130800800Y-104499820D02*
X130099760Y-104499820D01*
X130099760Y-104499820D02*
X130099760Y-104250900D01*
X130099760Y-101700840D02*
X130099760Y-101500180D01*
X130099760Y-101500180D02*
X130800800Y-101500180D01*
X133050800Y-99499820D02*
X132349760Y-99499820D01*
X132349760Y-99499820D02*
X132349760Y-99250900D01*
X132349760Y-96700840D02*
X132349760Y-96500180D01*
X132349760Y-96500180D02*
X133050800Y-96500180D01*
X135175000Y-129250000D02*
X135175000Y-130250000D01*
X133825000Y-130250000D02*
X133825000Y-129250000D01*
X134925000Y-123000000D02*
X134925000Y-124000000D01*
X133575000Y-124000000D02*
X133575000Y-123000000D01*
X134925000Y-117250000D02*
X134925000Y-118250000D01*
X133575000Y-118250000D02*
X133575000Y-117250000D01*
X134925000Y-109000000D02*
X134925000Y-110000000D01*
X133575000Y-110000000D02*
X133575000Y-109000000D01*
X134925000Y-102500000D02*
X134925000Y-103500000D01*
X133575000Y-103500000D02*
X133575000Y-102500000D01*
X135000000Y-94325000D02*
X136000000Y-94325000D01*
X136000000Y-95675000D02*
X135000000Y-95675000D01*
X137375000Y-129400000D02*
X137375000Y-130600000D01*
X135625000Y-130600000D02*
X135625000Y-129400000D01*
X137375000Y-122900000D02*
X137375000Y-124100000D01*
X135625000Y-124100000D02*
X135625000Y-122900000D01*
X137375000Y-116400000D02*
X137375000Y-117600000D01*
X135625000Y-117600000D02*
X135625000Y-116400000D01*
X137125000Y-108650000D02*
X137125000Y-109850000D01*
X135375000Y-109850000D02*
X135375000Y-108650000D01*
X137375000Y-102650000D02*
X137375000Y-103850000D01*
X135625000Y-103850000D02*
X135625000Y-102650000D01*
X138125000Y-97100000D02*
X138125000Y-95900000D01*
X139875000Y-95900000D02*
X139875000Y-97100000D01*
X129250000Y-133425000D02*
X128250000Y-133425000D01*
X128250000Y-132075000D02*
X129250000Y-132075000D01*
X129250000Y-127175000D02*
X128250000Y-127175000D01*
X128250000Y-125825000D02*
X129250000Y-125825000D01*
X129250000Y-120925000D02*
X128250000Y-120925000D01*
X128250000Y-119575000D02*
X129250000Y-119575000D01*
X128500000Y-108175000D02*
X127500000Y-108175000D01*
X127500000Y-106825000D02*
X128500000Y-106825000D01*
X128500000Y-100675000D02*
X127500000Y-100675000D01*
X127500000Y-99325000D02*
X128500000Y-99325000D01*
X128500000Y-98675000D02*
X127500000Y-98675000D01*
X127500000Y-97325000D02*
X128500000Y-97325000D01*
X160286000Y-64000000D02*
G75*
G03X160286000Y-64000000I-2286000J0D01*
G01*
X118286000Y-156000000D02*
G75*
G03X118286000Y-156000000I-2286000J0D01*
G01*
X159025000Y-77000000D02*
X159025000Y-75000000D01*
X156975000Y-75000000D02*
X156975000Y-77000000D01*
X159025000Y-138000000D02*
X159025000Y-136000000D01*
X156975000Y-136000000D02*
X156975000Y-138000000D01*
X159025000Y-123000000D02*
X159025000Y-121000000D01*
X156975000Y-121000000D02*
X156975000Y-123000000D01*
X159025000Y-93000000D02*
X159025000Y-91000000D01*
X156975000Y-91000000D02*
X156975000Y-93000000D01*
X159025000Y-108000000D02*
X159025000Y-106000000D01*
X156975000Y-106000000D02*
X156975000Y-108000000D01*
X159025000Y-155000000D02*
X159025000Y-153000000D01*
X156975000Y-153000000D02*
X156975000Y-155000000D01*
X121833334Y-74857143D02*
X121785715Y-74904762D01*
X121642858Y-74952381D01*
X121547620Y-74952381D01*
X121404762Y-74904762D01*
X121309524Y-74809524D01*
X121261905Y-74714286D01*
X121214286Y-74523810D01*
X121214286Y-74380952D01*
X121261905Y-74190476D01*
X121309524Y-74095238D01*
X121404762Y-74000000D01*
X121547620Y-73952381D01*
X121642858Y-73952381D01*
X121785715Y-74000000D01*
X121833334Y-74047619D01*
X122785715Y-74952381D02*
X122214286Y-74952381D01*
X122500000Y-74952381D02*
X122500000Y-73952381D01*
X122404762Y-74095238D01*
X122309524Y-74190476D01*
X122214286Y-74238095D01*
X121057143Y-84416666D02*
X121104762Y-84464285D01*
X121152381Y-84607142D01*
X121152381Y-84702380D01*
X121104762Y-84845238D01*
X121009524Y-84940476D01*
X120914286Y-84988095D01*
X120723810Y-85035714D01*
X120580952Y-85035714D01*
X120390476Y-84988095D01*
X120295238Y-84940476D01*
X120200000Y-84845238D01*
X120152381Y-84702380D01*
X120152381Y-84607142D01*
X120200000Y-84464285D01*
X120247619Y-84416666D01*
X120152381Y-84083333D02*
X120152381Y-83464285D01*
X120533333Y-83797619D01*
X120533333Y-83654761D01*
X120580952Y-83559523D01*
X120628571Y-83511904D01*
X120723810Y-83464285D01*
X120961905Y-83464285D01*
X121057143Y-83511904D01*
X121104762Y-83559523D01*
X121152381Y-83654761D01*
X121152381Y-83940476D01*
X121104762Y-84035714D01*
X121057143Y-84083333D01*
X117357143Y-150166666D02*
X117404762Y-150214285D01*
X117452381Y-150357142D01*
X117452381Y-150452380D01*
X117404762Y-150595238D01*
X117309524Y-150690476D01*
X117214286Y-150738095D01*
X117023810Y-150785714D01*
X116880952Y-150785714D01*
X116690476Y-150738095D01*
X116595238Y-150690476D01*
X116500000Y-150595238D01*
X116452381Y-150452380D01*
X116452381Y-150357142D01*
X116500000Y-150214285D01*
X116547619Y-150166666D01*
X116785714Y-149309523D02*
X117452381Y-149309523D01*
X116404762Y-149547619D02*
X117119048Y-149785714D01*
X117119048Y-149166666D01*
X147904762Y-158047619D02*
X147809524Y-158000000D01*
X147714286Y-157904762D01*
X147571429Y-157761905D01*
X147476190Y-157714286D01*
X147380952Y-157714286D01*
X147428571Y-157952381D02*
X147333333Y-157904762D01*
X147238095Y-157809524D01*
X147190476Y-157619048D01*
X147190476Y-157285714D01*
X147238095Y-157095238D01*
X147333333Y-157000000D01*
X147428571Y-156952381D01*
X147619048Y-156952381D01*
X147714286Y-157000000D01*
X147809524Y-157095238D01*
X147857143Y-157285714D01*
X147857143Y-157619048D01*
X147809524Y-157809524D01*
X147714286Y-157904762D01*
X147619048Y-157952381D01*
X147428571Y-157952381D01*
X148809524Y-157952381D02*
X148238095Y-157952381D01*
X148523809Y-157952381D02*
X148523809Y-156952381D01*
X148428571Y-157095238D01*
X148333333Y-157190476D01*
X148238095Y-157238095D01*
X147404762Y-148047619D02*
X147309524Y-148000000D01*
X147214286Y-147904762D01*
X147071429Y-147761905D01*
X146976190Y-147714286D01*
X146880952Y-147714286D01*
X146928571Y-147952381D02*
X146833333Y-147904762D01*
X146738095Y-147809524D01*
X146690476Y-147619048D01*
X146690476Y-147285714D01*
X146738095Y-147095238D01*
X146833333Y-147000000D01*
X146928571Y-146952381D01*
X147119048Y-146952381D01*
X147214286Y-147000000D01*
X147309524Y-147095238D01*
X147357143Y-147285714D01*
X147357143Y-147619048D01*
X147309524Y-147809524D01*
X147214286Y-147904762D01*
X147119048Y-147952381D01*
X146928571Y-147952381D01*
X147738095Y-147047619D02*
X147785714Y-147000000D01*
X147880952Y-146952381D01*
X148119048Y-146952381D01*
X148214286Y-147000000D01*
X148261905Y-147047619D01*
X148309524Y-147142857D01*
X148309524Y-147238095D01*
X148261905Y-147380952D01*
X147690476Y-147952381D01*
X148309524Y-147952381D01*
X148904762Y-141547619D02*
X148809524Y-141500000D01*
X148714286Y-141404762D01*
X148571429Y-141261905D01*
X148476190Y-141214286D01*
X148380952Y-141214286D01*
X148428571Y-141452381D02*
X148333333Y-141404762D01*
X148238095Y-141309524D01*
X148190476Y-141119048D01*
X148190476Y-140785714D01*
X148238095Y-140595238D01*
X148333333Y-140500000D01*
X148428571Y-140452381D01*
X148619048Y-140452381D01*
X148714286Y-140500000D01*
X148809524Y-140595238D01*
X148857143Y-140785714D01*
X148857143Y-141119048D01*
X148809524Y-141309524D01*
X148714286Y-141404762D01*
X148619048Y-141452381D01*
X148428571Y-141452381D01*
X149190476Y-140452381D02*
X149809524Y-140452381D01*
X149476190Y-140833333D01*
X149619048Y-140833333D01*
X149714286Y-140880952D01*
X149761905Y-140928571D01*
X149809524Y-141023810D01*
X149809524Y-141261905D01*
X149761905Y-141357143D01*
X149714286Y-141404762D01*
X149619048Y-141452381D01*
X149333333Y-141452381D01*
X149238095Y-141404762D01*
X149190476Y-141357143D01*
X147904762Y-132047619D02*
X147809524Y-132000000D01*
X147714286Y-131904762D01*
X147571429Y-131761905D01*
X147476190Y-131714286D01*
X147380952Y-131714286D01*
X147428571Y-131952381D02*
X147333333Y-131904762D01*
X147238095Y-131809524D01*
X147190476Y-131619048D01*
X147190476Y-131285714D01*
X147238095Y-131095238D01*
X147333333Y-131000000D01*
X147428571Y-130952381D01*
X147619048Y-130952381D01*
X147714286Y-131000000D01*
X147809524Y-131095238D01*
X147857143Y-131285714D01*
X147857143Y-131619048D01*
X147809524Y-131809524D01*
X147714286Y-131904762D01*
X147619048Y-131952381D01*
X147428571Y-131952381D01*
X148714286Y-131285714D02*
X148714286Y-131952381D01*
X148476190Y-130904762D02*
X148238095Y-131619048D01*
X148857143Y-131619048D01*
X147404762Y-127547619D02*
X147309524Y-127500000D01*
X147214286Y-127404762D01*
X147071429Y-127261905D01*
X146976190Y-127214286D01*
X146880952Y-127214286D01*
X146928571Y-127452381D02*
X146833333Y-127404762D01*
X146738095Y-127309524D01*
X146690476Y-127119048D01*
X146690476Y-126785714D01*
X146738095Y-126595238D01*
X146833333Y-126500000D01*
X146928571Y-126452381D01*
X147119048Y-126452381D01*
X147214286Y-126500000D01*
X147309524Y-126595238D01*
X147357143Y-126785714D01*
X147357143Y-127119048D01*
X147309524Y-127309524D01*
X147214286Y-127404762D01*
X147119048Y-127452381D01*
X146928571Y-127452381D01*
X148261905Y-126452381D02*
X147785714Y-126452381D01*
X147738095Y-126928571D01*
X147785714Y-126880952D01*
X147880952Y-126833333D01*
X148119048Y-126833333D01*
X148214286Y-126880952D01*
X148261905Y-126928571D01*
X148309524Y-127023810D01*
X148309524Y-127261905D01*
X148261905Y-127357143D01*
X148214286Y-127404762D01*
X148119048Y-127452381D01*
X147880952Y-127452381D01*
X147785714Y-127404762D01*
X147738095Y-127357143D01*
X147904762Y-116547619D02*
X147809524Y-116500000D01*
X147714286Y-116404762D01*
X147571429Y-116261905D01*
X147476190Y-116214286D01*
X147380952Y-116214286D01*
X147428571Y-116452381D02*
X147333333Y-116404762D01*
X147238095Y-116309524D01*
X147190476Y-116119048D01*
X147190476Y-115785714D01*
X147238095Y-115595238D01*
X147333333Y-115500000D01*
X147428571Y-115452381D01*
X147619048Y-115452381D01*
X147714286Y-115500000D01*
X147809524Y-115595238D01*
X147857143Y-115785714D01*
X147857143Y-116119048D01*
X147809524Y-116309524D01*
X147714286Y-116404762D01*
X147619048Y-116452381D01*
X147428571Y-116452381D01*
X148714286Y-115452381D02*
X148523809Y-115452381D01*
X148428571Y-115500000D01*
X148380952Y-115547619D01*
X148285714Y-115690476D01*
X148238095Y-115880952D01*
X148238095Y-116261905D01*
X148285714Y-116357143D01*
X148333333Y-116404762D01*
X148428571Y-116452381D01*
X148619048Y-116452381D01*
X148714286Y-116404762D01*
X148761905Y-116357143D01*
X148809524Y-116261905D01*
X148809524Y-116023810D01*
X148761905Y-115928571D01*
X148714286Y-115880952D01*
X148619048Y-115833333D01*
X148428571Y-115833333D01*
X148333333Y-115880952D01*
X148285714Y-115928571D01*
X148238095Y-116023810D01*
X148404762Y-112047619D02*
X148309524Y-112000000D01*
X148214286Y-111904762D01*
X148071429Y-111761905D01*
X147976190Y-111714286D01*
X147880952Y-111714286D01*
X147928571Y-111952381D02*
X147833333Y-111904762D01*
X147738095Y-111809524D01*
X147690476Y-111619048D01*
X147690476Y-111285714D01*
X147738095Y-111095238D01*
X147833333Y-111000000D01*
X147928571Y-110952381D01*
X148119048Y-110952381D01*
X148214286Y-111000000D01*
X148309524Y-111095238D01*
X148357143Y-111285714D01*
X148357143Y-111619048D01*
X148309524Y-111809524D01*
X148214286Y-111904762D01*
X148119048Y-111952381D01*
X147928571Y-111952381D01*
X148690476Y-110952381D02*
X149357143Y-110952381D01*
X148928571Y-111952381D01*
X147904762Y-102547619D02*
X147809524Y-102500000D01*
X147714286Y-102404762D01*
X147571429Y-102261905D01*
X147476190Y-102214286D01*
X147380952Y-102214286D01*
X147428571Y-102452381D02*
X147333333Y-102404762D01*
X147238095Y-102309524D01*
X147190476Y-102119048D01*
X147190476Y-101785714D01*
X147238095Y-101595238D01*
X147333333Y-101500000D01*
X147428571Y-101452381D01*
X147619048Y-101452381D01*
X147714286Y-101500000D01*
X147809524Y-101595238D01*
X147857143Y-101785714D01*
X147857143Y-102119048D01*
X147809524Y-102309524D01*
X147714286Y-102404762D01*
X147619048Y-102452381D01*
X147428571Y-102452381D01*
X148428571Y-101880952D02*
X148333333Y-101833333D01*
X148285714Y-101785714D01*
X148238095Y-101690476D01*
X148238095Y-101642857D01*
X148285714Y-101547619D01*
X148333333Y-101500000D01*
X148428571Y-101452381D01*
X148619048Y-101452381D01*
X148714286Y-101500000D01*
X148761905Y-101547619D01*
X148809524Y-101642857D01*
X148809524Y-101690476D01*
X148761905Y-101785714D01*
X148714286Y-101833333D01*
X148619048Y-101880952D01*
X148428571Y-101880952D01*
X148333333Y-101928571D01*
X148285714Y-101976190D01*
X148238095Y-102071429D01*
X148238095Y-102261905D01*
X148285714Y-102357143D01*
X148333333Y-102404762D01*
X148428571Y-102452381D01*
X148619048Y-102452381D01*
X148714286Y-102404762D01*
X148761905Y-102357143D01*
X148809524Y-102261905D01*
X148809524Y-102071429D01*
X148761905Y-101976190D01*
X148714286Y-101928571D01*
X148619048Y-101880952D01*
X148404762Y-97047619D02*
X148309524Y-97000000D01*
X148214286Y-96904762D01*
X148071429Y-96761905D01*
X147976190Y-96714286D01*
X147880952Y-96714286D01*
X147928571Y-96952381D02*
X147833333Y-96904762D01*
X147738095Y-96809524D01*
X147690476Y-96619048D01*
X147690476Y-96285714D01*
X147738095Y-96095238D01*
X147833333Y-96000000D01*
X147928571Y-95952381D01*
X148119048Y-95952381D01*
X148214286Y-96000000D01*
X148309524Y-96095238D01*
X148357143Y-96285714D01*
X148357143Y-96619048D01*
X148309524Y-96809524D01*
X148214286Y-96904762D01*
X148119048Y-96952381D01*
X147928571Y-96952381D01*
X148833333Y-96952381D02*
X149023809Y-96952381D01*
X149119048Y-96904762D01*
X149166667Y-96857143D01*
X149261905Y-96714286D01*
X149309524Y-96523810D01*
X149309524Y-96142857D01*
X149261905Y-96047619D01*
X149214286Y-96000000D01*
X149119048Y-95952381D01*
X148928571Y-95952381D01*
X148833333Y-96000000D01*
X148785714Y-96047619D01*
X148738095Y-96142857D01*
X148738095Y-96380952D01*
X148785714Y-96476190D01*
X148833333Y-96523810D01*
X148928571Y-96571429D01*
X149119048Y-96571429D01*
X149214286Y-96523810D01*
X149261905Y-96476190D01*
X149309524Y-96380952D01*
X146928572Y-87547619D02*
X146833334Y-87500000D01*
X146738096Y-87404762D01*
X146595239Y-87261905D01*
X146500000Y-87214286D01*
X146404762Y-87214286D01*
X146452381Y-87452381D02*
X146357143Y-87404762D01*
X146261905Y-87309524D01*
X146214286Y-87119048D01*
X146214286Y-86785714D01*
X146261905Y-86595238D01*
X146357143Y-86500000D01*
X146452381Y-86452381D01*
X146642858Y-86452381D01*
X146738096Y-86500000D01*
X146833334Y-86595238D01*
X146880953Y-86785714D01*
X146880953Y-87119048D01*
X146833334Y-87309524D01*
X146738096Y-87404762D01*
X146642858Y-87452381D01*
X146452381Y-87452381D01*
X147833334Y-87452381D02*
X147261905Y-87452381D01*
X147547619Y-87452381D02*
X147547619Y-86452381D01*
X147452381Y-86595238D01*
X147357143Y-86690476D01*
X147261905Y-86738095D01*
X148452381Y-86452381D02*
X148547620Y-86452381D01*
X148642858Y-86500000D01*
X148690477Y-86547619D01*
X148738096Y-86642857D01*
X148785715Y-86833333D01*
X148785715Y-87071429D01*
X148738096Y-87261905D01*
X148690477Y-87357143D01*
X148642858Y-87404762D01*
X148547620Y-87452381D01*
X148452381Y-87452381D01*
X148357143Y-87404762D01*
X148309524Y-87357143D01*
X148261905Y-87261905D01*
X148214286Y-87071429D01*
X148214286Y-86833333D01*
X148261905Y-86642857D01*
X148309524Y-86547619D01*
X148357143Y-86500000D01*
X148452381Y-86452381D01*
X147428572Y-81547619D02*
X147333334Y-81500000D01*
X147238096Y-81404762D01*
X147095239Y-81261905D01*
X147000000Y-81214286D01*
X146904762Y-81214286D01*
X146952381Y-81452381D02*
X146857143Y-81404762D01*
X146761905Y-81309524D01*
X146714286Y-81119048D01*
X146714286Y-80785714D01*
X146761905Y-80595238D01*
X146857143Y-80500000D01*
X146952381Y-80452381D01*
X147142858Y-80452381D01*
X147238096Y-80500000D01*
X147333334Y-80595238D01*
X147380953Y-80785714D01*
X147380953Y-81119048D01*
X147333334Y-81309524D01*
X147238096Y-81404762D01*
X147142858Y-81452381D01*
X146952381Y-81452381D01*
X148333334Y-81452381D02*
X147761905Y-81452381D01*
X148047619Y-81452381D02*
X148047619Y-80452381D01*
X147952381Y-80595238D01*
X147857143Y-80690476D01*
X147761905Y-80738095D01*
X149285715Y-81452381D02*
X148714286Y-81452381D01*
X149000000Y-81452381D02*
X149000000Y-80452381D01*
X148904762Y-80595238D01*
X148809524Y-80690476D01*
X148714286Y-80738095D01*
X146428572Y-72047619D02*
X146333334Y-72000000D01*
X146238096Y-71904762D01*
X146095239Y-71761905D01*
X146000000Y-71714286D01*
X145904762Y-71714286D01*
X145952381Y-71952381D02*
X145857143Y-71904762D01*
X145761905Y-71809524D01*
X145714286Y-71619048D01*
X145714286Y-71285714D01*
X145761905Y-71095238D01*
X145857143Y-71000000D01*
X145952381Y-70952381D01*
X146142858Y-70952381D01*
X146238096Y-71000000D01*
X146333334Y-71095238D01*
X146380953Y-71285714D01*
X146380953Y-71619048D01*
X146333334Y-71809524D01*
X146238096Y-71904762D01*
X146142858Y-71952381D01*
X145952381Y-71952381D01*
X147333334Y-71952381D02*
X146761905Y-71952381D01*
X147047619Y-71952381D02*
X147047619Y-70952381D01*
X146952381Y-71095238D01*
X146857143Y-71190476D01*
X146761905Y-71238095D01*
X147714286Y-71047619D02*
X147761905Y-71000000D01*
X147857143Y-70952381D01*
X148095239Y-70952381D01*
X148190477Y-71000000D01*
X148238096Y-71047619D01*
X148285715Y-71142857D01*
X148285715Y-71238095D01*
X148238096Y-71380952D01*
X147666667Y-71952381D01*
X148285715Y-71952381D01*
X122738095Y-89452381D02*
X122738095Y-90261905D01*
X122785714Y-90357143D01*
X122833333Y-90404762D01*
X122928571Y-90452381D01*
X123119048Y-90452381D01*
X123214286Y-90404762D01*
X123261905Y-90357143D01*
X123309524Y-90261905D01*
X123309524Y-89452381D01*
X124309524Y-90452381D02*
X123738095Y-90452381D01*
X124023809Y-90452381D02*
X124023809Y-89452381D01*
X123928571Y-89595238D01*
X123833333Y-89690476D01*
X123738095Y-89738095D01*
X126261905Y-81302381D02*
X126261905Y-80302381D01*
X126500000Y-80302381D01*
X126642858Y-80350000D01*
X126738096Y-80445238D01*
X126785715Y-80540476D01*
X126833334Y-80730952D01*
X126833334Y-80873810D01*
X126785715Y-81064286D01*
X126738096Y-81159524D01*
X126642858Y-81254762D01*
X126500000Y-81302381D01*
X126261905Y-81302381D01*
X127785715Y-81302381D02*
X127214286Y-81302381D01*
X127500000Y-81302381D02*
X127500000Y-80302381D01*
X127404762Y-80445238D01*
X127309524Y-80540476D01*
X127214286Y-80588095D01*
X129988095Y-75552381D02*
X129988095Y-74552381D01*
X130559524Y-75552381D02*
X130130952Y-74980952D01*
X130559524Y-74552381D02*
X129988095Y-75123810D01*
X123711905Y-75316667D02*
X124188096Y-75316667D01*
X123616667Y-75602381D02*
X123950000Y-74602381D01*
X124283334Y-75602381D01*
X143767381Y-135897857D02*
X143291190Y-136231191D01*
X143767381Y-136469286D02*
X142767381Y-136469286D01*
X142767381Y-136088333D01*
X142815000Y-135993095D01*
X142862619Y-135945476D01*
X142957857Y-135897857D01*
X143100714Y-135897857D01*
X143195952Y-135945476D01*
X143243571Y-135993095D01*
X143291190Y-136088333D01*
X143291190Y-136469286D01*
X143767381Y-134945476D02*
X143767381Y-135516905D01*
X143767381Y-135231191D02*
X142767381Y-135231191D01*
X142910238Y-135326429D01*
X143005476Y-135421667D01*
X143053095Y-135516905D01*
X143767381Y-133993095D02*
X143767381Y-134564524D01*
X143767381Y-134278810D02*
X142767381Y-134278810D01*
X142910238Y-134374048D01*
X143005476Y-134469286D01*
X143053095Y-134564524D01*
X144452381Y-139642857D02*
X143976190Y-139976191D01*
X144452381Y-140214286D02*
X143452381Y-140214286D01*
X143452381Y-139833333D01*
X143500000Y-139738095D01*
X143547619Y-139690476D01*
X143642857Y-139642857D01*
X143785714Y-139642857D01*
X143880952Y-139690476D01*
X143928571Y-139738095D01*
X143976190Y-139833333D01*
X143976190Y-140214286D01*
X144452381Y-138690476D02*
X144452381Y-139261905D01*
X144452381Y-138976191D02*
X143452381Y-138976191D01*
X143595238Y-139071429D01*
X143690476Y-139166667D01*
X143738095Y-139261905D01*
X143547619Y-138309524D02*
X143500000Y-138261905D01*
X143452381Y-138166667D01*
X143452381Y-137928571D01*
X143500000Y-137833333D01*
X143547619Y-137785714D01*
X143642857Y-137738095D01*
X143738095Y-137738095D01*
X143880952Y-137785714D01*
X144452381Y-138357143D01*
X144452381Y-137738095D01*
X151757143Y-139512381D02*
X151423809Y-139036190D01*
X151185714Y-139512381D02*
X151185714Y-138512381D01*
X151566667Y-138512381D01*
X151661905Y-138560000D01*
X151709524Y-138607619D01*
X151757143Y-138702857D01*
X151757143Y-138845714D01*
X151709524Y-138940952D01*
X151661905Y-138988571D01*
X151566667Y-139036190D01*
X151185714Y-139036190D01*
X152709524Y-139512381D02*
X152138095Y-139512381D01*
X152423809Y-139512381D02*
X152423809Y-138512381D01*
X152328571Y-138655238D01*
X152233333Y-138750476D01*
X152138095Y-138798095D01*
X153042857Y-138512381D02*
X153661905Y-138512381D01*
X153328571Y-138893333D01*
X153471429Y-138893333D01*
X153566667Y-138940952D01*
X153614286Y-138988571D01*
X153661905Y-139083810D01*
X153661905Y-139321905D01*
X153614286Y-139417143D01*
X153566667Y-139464762D01*
X153471429Y-139512381D01*
X153185714Y-139512381D01*
X153090476Y-139464762D01*
X153042857Y-139417143D01*
X142452381Y-129642857D02*
X141976190Y-129976191D01*
X142452381Y-130214286D02*
X141452381Y-130214286D01*
X141452381Y-129833333D01*
X141500000Y-129738095D01*
X141547619Y-129690476D01*
X141642857Y-129642857D01*
X141785714Y-129642857D01*
X141880952Y-129690476D01*
X141928571Y-129738095D01*
X141976190Y-129833333D01*
X141976190Y-130214286D01*
X142452381Y-128690476D02*
X142452381Y-129261905D01*
X142452381Y-128976191D02*
X141452381Y-128976191D01*
X141595238Y-129071429D01*
X141690476Y-129166667D01*
X141738095Y-129261905D01*
X141785714Y-127833333D02*
X142452381Y-127833333D01*
X141404762Y-128071429D02*
X142119048Y-128309524D01*
X142119048Y-127690476D01*
X145952381Y-128642857D02*
X145476190Y-128976191D01*
X145952381Y-129214286D02*
X144952381Y-129214286D01*
X144952381Y-128833333D01*
X145000000Y-128738095D01*
X145047619Y-128690476D01*
X145142857Y-128642857D01*
X145285714Y-128642857D01*
X145380952Y-128690476D01*
X145428571Y-128738095D01*
X145476190Y-128833333D01*
X145476190Y-129214286D01*
X145952381Y-127690476D02*
X145952381Y-128261905D01*
X145952381Y-127976191D02*
X144952381Y-127976191D01*
X145095238Y-128071429D01*
X145190476Y-128166667D01*
X145238095Y-128261905D01*
X144952381Y-126785714D02*
X144952381Y-127261905D01*
X145428571Y-127309524D01*
X145380952Y-127261905D01*
X145333333Y-127166667D01*
X145333333Y-126928571D01*
X145380952Y-126833333D01*
X145428571Y-126785714D01*
X145523810Y-126738095D01*
X145761905Y-126738095D01*
X145857143Y-126785714D01*
X145904762Y-126833333D01*
X145952381Y-126928571D01*
X145952381Y-127166667D01*
X145904762Y-127261905D01*
X145857143Y-127309524D01*
X151757143Y-124272381D02*
X151423809Y-123796190D01*
X151185714Y-124272381D02*
X151185714Y-123272381D01*
X151566667Y-123272381D01*
X151661905Y-123320000D01*
X151709524Y-123367619D01*
X151757143Y-123462857D01*
X151757143Y-123605714D01*
X151709524Y-123700952D01*
X151661905Y-123748571D01*
X151566667Y-123796190D01*
X151185714Y-123796190D01*
X152709524Y-124272381D02*
X152138095Y-124272381D01*
X152423809Y-124272381D02*
X152423809Y-123272381D01*
X152328571Y-123415238D01*
X152233333Y-123510476D01*
X152138095Y-123558095D01*
X153566667Y-123272381D02*
X153376190Y-123272381D01*
X153280952Y-123320000D01*
X153233333Y-123367619D01*
X153138095Y-123510476D01*
X153090476Y-123700952D01*
X153090476Y-124081905D01*
X153138095Y-124177143D01*
X153185714Y-124224762D01*
X153280952Y-124272381D01*
X153471429Y-124272381D01*
X153566667Y-124224762D01*
X153614286Y-124177143D01*
X153661905Y-124081905D01*
X153661905Y-123843810D01*
X153614286Y-123748571D01*
X153566667Y-123700952D01*
X153471429Y-123653333D01*
X153280952Y-123653333D01*
X153185714Y-123700952D01*
X153138095Y-123748571D01*
X153090476Y-123843810D01*
X142952381Y-115642857D02*
X142476190Y-115976191D01*
X142952381Y-116214286D02*
X141952381Y-116214286D01*
X141952381Y-115833333D01*
X142000000Y-115738095D01*
X142047619Y-115690476D01*
X142142857Y-115642857D01*
X142285714Y-115642857D01*
X142380952Y-115690476D01*
X142428571Y-115738095D01*
X142476190Y-115833333D01*
X142476190Y-116214286D01*
X142952381Y-114690476D02*
X142952381Y-115261905D01*
X142952381Y-114976191D02*
X141952381Y-114976191D01*
X142095238Y-115071429D01*
X142190476Y-115166667D01*
X142238095Y-115261905D01*
X141952381Y-114357143D02*
X141952381Y-113690476D01*
X142952381Y-114119048D01*
X143952381Y-109642857D02*
X143476190Y-109976191D01*
X143952381Y-110214286D02*
X142952381Y-110214286D01*
X142952381Y-109833333D01*
X143000000Y-109738095D01*
X143047619Y-109690476D01*
X143142857Y-109642857D01*
X143285714Y-109642857D01*
X143380952Y-109690476D01*
X143428571Y-109738095D01*
X143476190Y-109833333D01*
X143476190Y-110214286D01*
X143952381Y-108690476D02*
X143952381Y-109261905D01*
X143952381Y-108976191D02*
X142952381Y-108976191D01*
X143095238Y-109071429D01*
X143190476Y-109166667D01*
X143238095Y-109261905D01*
X143380952Y-108119048D02*
X143333333Y-108214286D01*
X143285714Y-108261905D01*
X143190476Y-108309524D01*
X143142857Y-108309524D01*
X143047619Y-108261905D01*
X143000000Y-108214286D01*
X142952381Y-108119048D01*
X142952381Y-107928571D01*
X143000000Y-107833333D01*
X143047619Y-107785714D01*
X143142857Y-107738095D01*
X143190476Y-107738095D01*
X143285714Y-107785714D01*
X143333333Y-107833333D01*
X143380952Y-107928571D01*
X143380952Y-108119048D01*
X143428571Y-108214286D01*
X143476190Y-108261905D01*
X143571429Y-108309524D01*
X143761905Y-108309524D01*
X143857143Y-108261905D01*
X143904762Y-108214286D01*
X143952381Y-108119048D01*
X143952381Y-107928571D01*
X143904762Y-107833333D01*
X143857143Y-107785714D01*
X143761905Y-107738095D01*
X143571429Y-107738095D01*
X143476190Y-107785714D01*
X143428571Y-107833333D01*
X143380952Y-107928571D01*
X151757143Y-109032381D02*
X151423809Y-108556190D01*
X151185714Y-109032381D02*
X151185714Y-108032381D01*
X151566667Y-108032381D01*
X151661905Y-108080000D01*
X151709524Y-108127619D01*
X151757143Y-108222857D01*
X151757143Y-108365714D01*
X151709524Y-108460952D01*
X151661905Y-108508571D01*
X151566667Y-108556190D01*
X151185714Y-108556190D01*
X152709524Y-109032381D02*
X152138095Y-109032381D01*
X152423809Y-109032381D02*
X152423809Y-108032381D01*
X152328571Y-108175238D01*
X152233333Y-108270476D01*
X152138095Y-108318095D01*
X153185714Y-109032381D02*
X153376190Y-109032381D01*
X153471429Y-108984762D01*
X153519048Y-108937143D01*
X153614286Y-108794286D01*
X153661905Y-108603810D01*
X153661905Y-108222857D01*
X153614286Y-108127619D01*
X153566667Y-108080000D01*
X153471429Y-108032381D01*
X153280952Y-108032381D01*
X153185714Y-108080000D01*
X153138095Y-108127619D01*
X153090476Y-108222857D01*
X153090476Y-108460952D01*
X153138095Y-108556190D01*
X153185714Y-108603810D01*
X153280952Y-108651429D01*
X153471429Y-108651429D01*
X153566667Y-108603810D01*
X153614286Y-108556190D01*
X153661905Y-108460952D01*
X143452381Y-99142857D02*
X142976190Y-99476191D01*
X143452381Y-99714286D02*
X142452381Y-99714286D01*
X142452381Y-99333333D01*
X142500000Y-99238095D01*
X142547619Y-99190476D01*
X142642857Y-99142857D01*
X142785714Y-99142857D01*
X142880952Y-99190476D01*
X142928571Y-99238095D01*
X142976190Y-99333333D01*
X142976190Y-99714286D01*
X142547619Y-98761905D02*
X142500000Y-98714286D01*
X142452381Y-98619048D01*
X142452381Y-98380952D01*
X142500000Y-98285714D01*
X142547619Y-98238095D01*
X142642857Y-98190476D01*
X142738095Y-98190476D01*
X142880952Y-98238095D01*
X143452381Y-98809524D01*
X143452381Y-98190476D01*
X142452381Y-97571429D02*
X142452381Y-97476190D01*
X142500000Y-97380952D01*
X142547619Y-97333333D01*
X142642857Y-97285714D01*
X142833333Y-97238095D01*
X143071429Y-97238095D01*
X143261905Y-97285714D01*
X143357143Y-97333333D01*
X143404762Y-97380952D01*
X143452381Y-97476190D01*
X143452381Y-97571429D01*
X143404762Y-97666667D01*
X143357143Y-97714286D01*
X143261905Y-97761905D01*
X143071429Y-97809524D01*
X142833333Y-97809524D01*
X142642857Y-97761905D01*
X142547619Y-97714286D01*
X142500000Y-97666667D01*
X142452381Y-97571429D01*
X145452381Y-98142857D02*
X144976190Y-98476191D01*
X145452381Y-98714286D02*
X144452381Y-98714286D01*
X144452381Y-98333333D01*
X144500000Y-98238095D01*
X144547619Y-98190476D01*
X144642857Y-98142857D01*
X144785714Y-98142857D01*
X144880952Y-98190476D01*
X144928571Y-98238095D01*
X144976190Y-98333333D01*
X144976190Y-98714286D01*
X144547619Y-97761905D02*
X144500000Y-97714286D01*
X144452381Y-97619048D01*
X144452381Y-97380952D01*
X144500000Y-97285714D01*
X144547619Y-97238095D01*
X144642857Y-97190476D01*
X144738095Y-97190476D01*
X144880952Y-97238095D01*
X145452381Y-97809524D01*
X145452381Y-97190476D01*
X145452381Y-96238095D02*
X145452381Y-96809524D01*
X145452381Y-96523810D02*
X144452381Y-96523810D01*
X144595238Y-96619048D01*
X144690476Y-96714286D01*
X144738095Y-96809524D01*
X151757143Y-93792381D02*
X151423809Y-93316190D01*
X151185714Y-93792381D02*
X151185714Y-92792381D01*
X151566667Y-92792381D01*
X151661905Y-92840000D01*
X151709524Y-92887619D01*
X151757143Y-92982857D01*
X151757143Y-93125714D01*
X151709524Y-93220952D01*
X151661905Y-93268571D01*
X151566667Y-93316190D01*
X151185714Y-93316190D01*
X152138095Y-92887619D02*
X152185714Y-92840000D01*
X152280952Y-92792381D01*
X152519048Y-92792381D01*
X152614286Y-92840000D01*
X152661905Y-92887619D01*
X152709524Y-92982857D01*
X152709524Y-93078095D01*
X152661905Y-93220952D01*
X152090476Y-93792381D01*
X152709524Y-93792381D01*
X153090476Y-92887619D02*
X153138095Y-92840000D01*
X153233333Y-92792381D01*
X153471429Y-92792381D01*
X153566667Y-92840000D01*
X153614286Y-92887619D01*
X153661905Y-92982857D01*
X153661905Y-93078095D01*
X153614286Y-93220952D01*
X153042857Y-93792381D01*
X153661905Y-93792381D01*
X141452381Y-79642857D02*
X140976190Y-79976191D01*
X141452381Y-80214286D02*
X140452381Y-80214286D01*
X140452381Y-79833333D01*
X140500000Y-79738095D01*
X140547619Y-79690476D01*
X140642857Y-79642857D01*
X140785714Y-79642857D01*
X140880952Y-79690476D01*
X140928571Y-79738095D01*
X140976190Y-79833333D01*
X140976190Y-80214286D01*
X140547619Y-79261905D02*
X140500000Y-79214286D01*
X140452381Y-79119048D01*
X140452381Y-78880952D01*
X140500000Y-78785714D01*
X140547619Y-78738095D01*
X140642857Y-78690476D01*
X140738095Y-78690476D01*
X140880952Y-78738095D01*
X141452381Y-79309524D01*
X141452381Y-78690476D01*
X140452381Y-78357143D02*
X140452381Y-77738095D01*
X140833333Y-78071429D01*
X140833333Y-77928571D01*
X140880952Y-77833333D01*
X140928571Y-77785714D01*
X141023810Y-77738095D01*
X141261905Y-77738095D01*
X141357143Y-77785714D01*
X141404762Y-77833333D01*
X141452381Y-77928571D01*
X141452381Y-78214286D01*
X141404762Y-78309524D01*
X141357143Y-78357143D01*
X145452381Y-83642857D02*
X144976190Y-83976191D01*
X145452381Y-84214286D02*
X144452381Y-84214286D01*
X144452381Y-83833333D01*
X144500000Y-83738095D01*
X144547619Y-83690476D01*
X144642857Y-83642857D01*
X144785714Y-83642857D01*
X144880952Y-83690476D01*
X144928571Y-83738095D01*
X144976190Y-83833333D01*
X144976190Y-84214286D01*
X144547619Y-83261905D02*
X144500000Y-83214286D01*
X144452381Y-83119048D01*
X144452381Y-82880952D01*
X144500000Y-82785714D01*
X144547619Y-82738095D01*
X144642857Y-82690476D01*
X144738095Y-82690476D01*
X144880952Y-82738095D01*
X145452381Y-83309524D01*
X145452381Y-82690476D01*
X144785714Y-81833333D02*
X145452381Y-81833333D01*
X144404762Y-82071429D02*
X145119048Y-82309524D01*
X145119048Y-81690476D01*
X151757143Y-78552381D02*
X151423809Y-78076190D01*
X151185714Y-78552381D02*
X151185714Y-77552381D01*
X151566667Y-77552381D01*
X151661905Y-77600000D01*
X151709524Y-77647619D01*
X151757143Y-77742857D01*
X151757143Y-77885714D01*
X151709524Y-77980952D01*
X151661905Y-78028571D01*
X151566667Y-78076190D01*
X151185714Y-78076190D01*
X152138095Y-77647619D02*
X152185714Y-77600000D01*
X152280952Y-77552381D01*
X152519048Y-77552381D01*
X152614286Y-77600000D01*
X152661905Y-77647619D01*
X152709524Y-77742857D01*
X152709524Y-77838095D01*
X152661905Y-77980952D01*
X152090476Y-78552381D01*
X152709524Y-78552381D01*
X153614286Y-77552381D02*
X153138095Y-77552381D01*
X153090476Y-78028571D01*
X153138095Y-77980952D01*
X153233333Y-77933333D01*
X153471429Y-77933333D01*
X153566667Y-77980952D01*
X153614286Y-78028571D01*
X153661905Y-78123810D01*
X153661905Y-78361905D01*
X153614286Y-78457143D01*
X153566667Y-78504762D01*
X153471429Y-78552381D01*
X153233333Y-78552381D01*
X153138095Y-78504762D01*
X153090476Y-78457143D01*
X119952381Y-151142857D02*
X119476190Y-151476191D01*
X119952381Y-151714286D02*
X118952381Y-151714286D01*
X118952381Y-151333333D01*
X119000000Y-151238095D01*
X119047619Y-151190476D01*
X119142857Y-151142857D01*
X119285714Y-151142857D01*
X119380952Y-151190476D01*
X119428571Y-151238095D01*
X119476190Y-151333333D01*
X119476190Y-151714286D01*
X118952381Y-150809524D02*
X118952381Y-150190476D01*
X119333333Y-150523810D01*
X119333333Y-150380952D01*
X119380952Y-150285714D01*
X119428571Y-150238095D01*
X119523810Y-150190476D01*
X119761905Y-150190476D01*
X119857143Y-150238095D01*
X119904762Y-150285714D01*
X119952381Y-150380952D01*
X119952381Y-150666667D01*
X119904762Y-150761905D01*
X119857143Y-150809524D01*
X119952381Y-149238095D02*
X119952381Y-149809524D01*
X119952381Y-149523810D02*
X118952381Y-149523810D01*
X119095238Y-149619048D01*
X119190476Y-149714286D01*
X119238095Y-149809524D01*
X127833334Y-145452381D02*
X127500000Y-144976190D01*
X127261905Y-145452381D02*
X127261905Y-144452381D01*
X127642858Y-144452381D01*
X127738096Y-144500000D01*
X127785715Y-144547619D01*
X127833334Y-144642857D01*
X127833334Y-144785714D01*
X127785715Y-144880952D01*
X127738096Y-144928571D01*
X127642858Y-144976190D01*
X127261905Y-144976190D01*
X128785715Y-145452381D02*
X128214286Y-145452381D01*
X128500000Y-145452381D02*
X128500000Y-144452381D01*
X128404762Y-144595238D01*
X128309524Y-144690476D01*
X128214286Y-144738095D01*
X143259381Y-151042666D02*
X142783190Y-151376000D01*
X143259381Y-151614095D02*
X142259381Y-151614095D01*
X142259381Y-151233142D01*
X142307000Y-151137904D01*
X142354619Y-151090285D01*
X142449857Y-151042666D01*
X142592714Y-151042666D01*
X142687952Y-151090285D01*
X142735571Y-151137904D01*
X142783190Y-151233142D01*
X142783190Y-151614095D01*
X142687952Y-150471238D02*
X142640333Y-150566476D01*
X142592714Y-150614095D01*
X142497476Y-150661714D01*
X142449857Y-150661714D01*
X142354619Y-150614095D01*
X142307000Y-150566476D01*
X142259381Y-150471238D01*
X142259381Y-150280761D01*
X142307000Y-150185523D01*
X142354619Y-150137904D01*
X142449857Y-150090285D01*
X142497476Y-150090285D01*
X142592714Y-150137904D01*
X142640333Y-150185523D01*
X142687952Y-150280761D01*
X142687952Y-150471238D01*
X142735571Y-150566476D01*
X142783190Y-150614095D01*
X142878429Y-150661714D01*
X143068905Y-150661714D01*
X143164143Y-150614095D01*
X143211762Y-150566476D01*
X143259381Y-150471238D01*
X143259381Y-150280761D01*
X143211762Y-150185523D01*
X143164143Y-150137904D01*
X143068905Y-150090285D01*
X142878429Y-150090285D01*
X142783190Y-150137904D01*
X142735571Y-150185523D01*
X142687952Y-150280761D01*
X143952381Y-155666666D02*
X143476190Y-156000000D01*
X143952381Y-156238095D02*
X142952381Y-156238095D01*
X142952381Y-155857142D01*
X143000000Y-155761904D01*
X143047619Y-155714285D01*
X143142857Y-155666666D01*
X143285714Y-155666666D01*
X143380952Y-155714285D01*
X143428571Y-155761904D01*
X143476190Y-155857142D01*
X143476190Y-156238095D01*
X143952381Y-155190476D02*
X143952381Y-155000000D01*
X143904762Y-154904761D01*
X143857143Y-154857142D01*
X143714286Y-154761904D01*
X143523810Y-154714285D01*
X143142857Y-154714285D01*
X143047619Y-154761904D01*
X143000000Y-154809523D01*
X142952381Y-154904761D01*
X142952381Y-155095238D01*
X143000000Y-155190476D01*
X143047619Y-155238095D01*
X143142857Y-155285714D01*
X143380952Y-155285714D01*
X143476190Y-155238095D01*
X143523810Y-155190476D01*
X143571429Y-155095238D01*
X143571429Y-154904761D01*
X143523810Y-154809523D01*
X143476190Y-154761904D01*
X143380952Y-154714285D01*
X151857143Y-155452381D02*
X151523809Y-154976190D01*
X151285714Y-155452381D02*
X151285714Y-154452381D01*
X151666667Y-154452381D01*
X151761905Y-154500000D01*
X151809524Y-154547619D01*
X151857143Y-154642857D01*
X151857143Y-154785714D01*
X151809524Y-154880952D01*
X151761905Y-154928571D01*
X151666667Y-154976190D01*
X151285714Y-154976190D01*
X152809524Y-155452381D02*
X152238095Y-155452381D01*
X152523809Y-155452381D02*
X152523809Y-154452381D01*
X152428571Y-154595238D01*
X152333333Y-154690476D01*
X152238095Y-154738095D01*
X153428571Y-154452381D02*
X153523810Y-154452381D01*
X153619048Y-154500000D01*
X153666667Y-154547619D01*
X153714286Y-154642857D01*
X153761905Y-154833333D01*
X153761905Y-155071429D01*
X153714286Y-155261905D01*
X153666667Y-155357143D01*
X153619048Y-155404762D01*
X153523810Y-155452381D01*
X153428571Y-155452381D01*
X153333333Y-155404762D01*
X153285714Y-155357143D01*
X153238095Y-155261905D01*
X153190476Y-155071429D01*
X153190476Y-154833333D01*
X153238095Y-154642857D01*
X153285714Y-154547619D01*
X153333333Y-154500000D01*
X153428571Y-154452381D01*
X131428572Y-132547619D02*
X131333334Y-132500000D01*
X131238096Y-132404762D01*
X131095239Y-132261905D01*
X131000000Y-132214286D01*
X130904762Y-132214286D01*
X130952381Y-132452381D02*
X130857143Y-132404762D01*
X130761905Y-132309524D01*
X130714286Y-132119048D01*
X130714286Y-131785714D01*
X130761905Y-131595238D01*
X130857143Y-131500000D01*
X130952381Y-131452381D01*
X131142858Y-131452381D01*
X131238096Y-131500000D01*
X131333334Y-131595238D01*
X131380953Y-131785714D01*
X131380953Y-132119048D01*
X131333334Y-132309524D01*
X131238096Y-132404762D01*
X131142858Y-132452381D01*
X130952381Y-132452381D01*
X132333334Y-132452381D02*
X131761905Y-132452381D01*
X132047619Y-132452381D02*
X132047619Y-131452381D01*
X131952381Y-131595238D01*
X131857143Y-131690476D01*
X131761905Y-131738095D01*
X132666667Y-131452381D02*
X133285715Y-131452381D01*
X132952381Y-131833333D01*
X133095239Y-131833333D01*
X133190477Y-131880952D01*
X133238096Y-131928571D01*
X133285715Y-132023810D01*
X133285715Y-132261905D01*
X133238096Y-132357143D01*
X133190477Y-132404762D01*
X133095239Y-132452381D01*
X132809524Y-132452381D01*
X132714286Y-132404762D01*
X132666667Y-132357143D01*
X131428572Y-126047619D02*
X131333334Y-126000000D01*
X131238096Y-125904762D01*
X131095239Y-125761905D01*
X131000000Y-125714286D01*
X130904762Y-125714286D01*
X130952381Y-125952381D02*
X130857143Y-125904762D01*
X130761905Y-125809524D01*
X130714286Y-125619048D01*
X130714286Y-125285714D01*
X130761905Y-125095238D01*
X130857143Y-125000000D01*
X130952381Y-124952381D01*
X131142858Y-124952381D01*
X131238096Y-125000000D01*
X131333334Y-125095238D01*
X131380953Y-125285714D01*
X131380953Y-125619048D01*
X131333334Y-125809524D01*
X131238096Y-125904762D01*
X131142858Y-125952381D01*
X130952381Y-125952381D01*
X132333334Y-125952381D02*
X131761905Y-125952381D01*
X132047619Y-125952381D02*
X132047619Y-124952381D01*
X131952381Y-125095238D01*
X131857143Y-125190476D01*
X131761905Y-125238095D01*
X133190477Y-125285714D02*
X133190477Y-125952381D01*
X132952381Y-124904762D02*
X132714286Y-125619048D01*
X133333334Y-125619048D01*
X131428572Y-120047619D02*
X131333334Y-120000000D01*
X131238096Y-119904762D01*
X131095239Y-119761905D01*
X131000000Y-119714286D01*
X130904762Y-119714286D01*
X130952381Y-119952381D02*
X130857143Y-119904762D01*
X130761905Y-119809524D01*
X130714286Y-119619048D01*
X130714286Y-119285714D01*
X130761905Y-119095238D01*
X130857143Y-119000000D01*
X130952381Y-118952381D01*
X131142858Y-118952381D01*
X131238096Y-119000000D01*
X131333334Y-119095238D01*
X131380953Y-119285714D01*
X131380953Y-119619048D01*
X131333334Y-119809524D01*
X131238096Y-119904762D01*
X131142858Y-119952381D01*
X130952381Y-119952381D01*
X132333334Y-119952381D02*
X131761905Y-119952381D01*
X132047619Y-119952381D02*
X132047619Y-118952381D01*
X131952381Y-119095238D01*
X131857143Y-119190476D01*
X131761905Y-119238095D01*
X133238096Y-118952381D02*
X132761905Y-118952381D01*
X132714286Y-119428571D01*
X132761905Y-119380952D01*
X132857143Y-119333333D01*
X133095239Y-119333333D01*
X133190477Y-119380952D01*
X133238096Y-119428571D01*
X133285715Y-119523810D01*
X133285715Y-119761905D01*
X133238096Y-119857143D01*
X133190477Y-119904762D01*
X133095239Y-119952381D01*
X132857143Y-119952381D01*
X132761905Y-119904762D01*
X132714286Y-119857143D01*
X130928572Y-112547619D02*
X130833334Y-112500000D01*
X130738096Y-112404762D01*
X130595239Y-112261905D01*
X130500000Y-112214286D01*
X130404762Y-112214286D01*
X130452381Y-112452381D02*
X130357143Y-112404762D01*
X130261905Y-112309524D01*
X130214286Y-112119048D01*
X130214286Y-111785714D01*
X130261905Y-111595238D01*
X130357143Y-111500000D01*
X130452381Y-111452381D01*
X130642858Y-111452381D01*
X130738096Y-111500000D01*
X130833334Y-111595238D01*
X130880953Y-111785714D01*
X130880953Y-112119048D01*
X130833334Y-112309524D01*
X130738096Y-112404762D01*
X130642858Y-112452381D01*
X130452381Y-112452381D01*
X131833334Y-112452381D02*
X131261905Y-112452381D01*
X131547619Y-112452381D02*
X131547619Y-111452381D01*
X131452381Y-111595238D01*
X131357143Y-111690476D01*
X131261905Y-111738095D01*
X132690477Y-111452381D02*
X132500000Y-111452381D01*
X132404762Y-111500000D01*
X132357143Y-111547619D01*
X132261905Y-111690476D01*
X132214286Y-111880952D01*
X132214286Y-112261905D01*
X132261905Y-112357143D01*
X132309524Y-112404762D01*
X132404762Y-112452381D01*
X132595239Y-112452381D01*
X132690477Y-112404762D01*
X132738096Y-112357143D01*
X132785715Y-112261905D01*
X132785715Y-112023810D01*
X132738096Y-111928571D01*
X132690477Y-111880952D01*
X132595239Y-111833333D01*
X132404762Y-111833333D01*
X132309524Y-111880952D01*
X132261905Y-111928571D01*
X132214286Y-112023810D01*
X130928572Y-105547619D02*
X130833334Y-105500000D01*
X130738096Y-105404762D01*
X130595239Y-105261905D01*
X130500000Y-105214286D01*
X130404762Y-105214286D01*
X130452381Y-105452381D02*
X130357143Y-105404762D01*
X130261905Y-105309524D01*
X130214286Y-105119048D01*
X130214286Y-104785714D01*
X130261905Y-104595238D01*
X130357143Y-104500000D01*
X130452381Y-104452381D01*
X130642858Y-104452381D01*
X130738096Y-104500000D01*
X130833334Y-104595238D01*
X130880953Y-104785714D01*
X130880953Y-105119048D01*
X130833334Y-105309524D01*
X130738096Y-105404762D01*
X130642858Y-105452381D01*
X130452381Y-105452381D01*
X131833334Y-105452381D02*
X131261905Y-105452381D01*
X131547619Y-105452381D02*
X131547619Y-104452381D01*
X131452381Y-104595238D01*
X131357143Y-104690476D01*
X131261905Y-104738095D01*
X132166667Y-104452381D02*
X132833334Y-104452381D01*
X132404762Y-105452381D01*
X133047619Y-95571428D02*
X133000000Y-95666666D01*
X132904762Y-95761904D01*
X132761905Y-95904761D01*
X132714286Y-96000000D01*
X132714286Y-96095238D01*
X132952381Y-96047619D02*
X132904762Y-96142857D01*
X132809524Y-96238095D01*
X132619048Y-96285714D01*
X132285714Y-96285714D01*
X132095238Y-96238095D01*
X132000000Y-96142857D01*
X131952381Y-96047619D01*
X131952381Y-95857142D01*
X132000000Y-95761904D01*
X132095238Y-95666666D01*
X132285714Y-95619047D01*
X132619048Y-95619047D01*
X132809524Y-95666666D01*
X132904762Y-95761904D01*
X132952381Y-95857142D01*
X132952381Y-96047619D01*
X132952381Y-94666666D02*
X132952381Y-95238095D01*
X132952381Y-94952381D02*
X131952381Y-94952381D01*
X132095238Y-95047619D01*
X132190476Y-95142857D01*
X132238095Y-95238095D01*
X132380952Y-94095238D02*
X132333333Y-94190476D01*
X132285714Y-94238095D01*
X132190476Y-94285714D01*
X132142857Y-94285714D01*
X132047619Y-94238095D01*
X132000000Y-94190476D01*
X131952381Y-94095238D01*
X131952381Y-93904761D01*
X132000000Y-93809523D01*
X132047619Y-93761904D01*
X132142857Y-93714285D01*
X132190476Y-93714285D01*
X132285714Y-93761904D01*
X132333333Y-93809523D01*
X132380952Y-93904761D01*
X132380952Y-94095238D01*
X132428571Y-94190476D01*
X132476190Y-94238095D01*
X132571429Y-94285714D01*
X132761905Y-94285714D01*
X132857143Y-94238095D01*
X132904762Y-94190476D01*
X132952381Y-94095238D01*
X132952381Y-93904761D01*
X132904762Y-93809523D01*
X132857143Y-93761904D01*
X132761905Y-93714285D01*
X132571429Y-93714285D01*
X132476190Y-93761904D01*
X132428571Y-93809523D01*
X132380952Y-93904761D01*
X134952381Y-133666666D02*
X134476190Y-134000000D01*
X134952381Y-134238095D02*
X133952381Y-134238095D01*
X133952381Y-133857142D01*
X134000000Y-133761904D01*
X134047619Y-133714285D01*
X134142857Y-133666666D01*
X134285714Y-133666666D01*
X134380952Y-133714285D01*
X134428571Y-133761904D01*
X134476190Y-133857142D01*
X134476190Y-134238095D01*
X134047619Y-133285714D02*
X134000000Y-133238095D01*
X133952381Y-133142857D01*
X133952381Y-132904761D01*
X134000000Y-132809523D01*
X134047619Y-132761904D01*
X134142857Y-132714285D01*
X134238095Y-132714285D01*
X134380952Y-132761904D01*
X134952381Y-133333333D01*
X134952381Y-132714285D01*
X134952381Y-126666666D02*
X134476190Y-127000000D01*
X134952381Y-127238095D02*
X133952381Y-127238095D01*
X133952381Y-126857142D01*
X134000000Y-126761904D01*
X134047619Y-126714285D01*
X134142857Y-126666666D01*
X134285714Y-126666666D01*
X134380952Y-126714285D01*
X134428571Y-126761904D01*
X134476190Y-126857142D01*
X134476190Y-127238095D01*
X133952381Y-126333333D02*
X133952381Y-125714285D01*
X134333333Y-126047619D01*
X134333333Y-125904761D01*
X134380952Y-125809523D01*
X134428571Y-125761904D01*
X134523810Y-125714285D01*
X134761905Y-125714285D01*
X134857143Y-125761904D01*
X134904762Y-125809523D01*
X134952381Y-125904761D01*
X134952381Y-126190476D01*
X134904762Y-126285714D01*
X134857143Y-126333333D01*
X134333334Y-115452381D02*
X134000000Y-114976190D01*
X133761905Y-115452381D02*
X133761905Y-114452381D01*
X134142858Y-114452381D01*
X134238096Y-114500000D01*
X134285715Y-114547619D01*
X134333334Y-114642857D01*
X134333334Y-114785714D01*
X134285715Y-114880952D01*
X134238096Y-114928571D01*
X134142858Y-114976190D01*
X133761905Y-114976190D01*
X135190477Y-114785714D02*
X135190477Y-115452381D01*
X134952381Y-114404762D02*
X134714286Y-115119048D01*
X135333334Y-115119048D01*
X134952381Y-112666666D02*
X134476190Y-113000000D01*
X134952381Y-113238095D02*
X133952381Y-113238095D01*
X133952381Y-112857142D01*
X134000000Y-112761904D01*
X134047619Y-112714285D01*
X134142857Y-112666666D01*
X134285714Y-112666666D01*
X134380952Y-112714285D01*
X134428571Y-112761904D01*
X134476190Y-112857142D01*
X134476190Y-113238095D01*
X133952381Y-111761904D02*
X133952381Y-112238095D01*
X134428571Y-112285714D01*
X134380952Y-112238095D01*
X134333333Y-112142857D01*
X134333333Y-111904761D01*
X134380952Y-111809523D01*
X134428571Y-111761904D01*
X134523810Y-111714285D01*
X134761905Y-111714285D01*
X134857143Y-111761904D01*
X134904762Y-111809523D01*
X134952381Y-111904761D01*
X134952381Y-112142857D01*
X134904762Y-112238095D01*
X134857143Y-112285714D01*
X134452381Y-106166666D02*
X133976190Y-106500000D01*
X134452381Y-106738095D02*
X133452381Y-106738095D01*
X133452381Y-106357142D01*
X133500000Y-106261904D01*
X133547619Y-106214285D01*
X133642857Y-106166666D01*
X133785714Y-106166666D01*
X133880952Y-106214285D01*
X133928571Y-106261904D01*
X133976190Y-106357142D01*
X133976190Y-106738095D01*
X133452381Y-105309523D02*
X133452381Y-105500000D01*
X133500000Y-105595238D01*
X133547619Y-105642857D01*
X133690476Y-105738095D01*
X133880952Y-105785714D01*
X134261905Y-105785714D01*
X134357143Y-105738095D01*
X134404762Y-105690476D01*
X134452381Y-105595238D01*
X134452381Y-105404761D01*
X134404762Y-105309523D01*
X134357143Y-105261904D01*
X134261905Y-105214285D01*
X134023810Y-105214285D01*
X133928571Y-105261904D01*
X133880952Y-105309523D01*
X133833333Y-105404761D01*
X133833333Y-105595238D01*
X133880952Y-105690476D01*
X133928571Y-105738095D01*
X134023810Y-105785714D01*
X135333334Y-92952381D02*
X135000000Y-92476190D01*
X134761905Y-92952381D02*
X134761905Y-91952381D01*
X135142858Y-91952381D01*
X135238096Y-92000000D01*
X135285715Y-92047619D01*
X135333334Y-92142857D01*
X135333334Y-92285714D01*
X135285715Y-92380952D01*
X135238096Y-92428571D01*
X135142858Y-92476190D01*
X134761905Y-92476190D01*
X135666667Y-91952381D02*
X136333334Y-91952381D01*
X135904762Y-92952381D01*
X135857143Y-133452381D02*
X135523809Y-132976190D01*
X135285714Y-133452381D02*
X135285714Y-132452381D01*
X135666667Y-132452381D01*
X135761905Y-132500000D01*
X135809524Y-132547619D01*
X135857143Y-132642857D01*
X135857143Y-132785714D01*
X135809524Y-132880952D01*
X135761905Y-132928571D01*
X135666667Y-132976190D01*
X135285714Y-132976190D01*
X136238095Y-132547619D02*
X136285714Y-132500000D01*
X136380952Y-132452381D01*
X136619048Y-132452381D01*
X136714286Y-132500000D01*
X136761905Y-132547619D01*
X136809524Y-132642857D01*
X136809524Y-132738095D01*
X136761905Y-132880952D01*
X136190476Y-133452381D01*
X136809524Y-133452381D01*
X137666667Y-132452381D02*
X137476190Y-132452381D01*
X137380952Y-132500000D01*
X137333333Y-132547619D01*
X137238095Y-132690476D01*
X137190476Y-132880952D01*
X137190476Y-133261905D01*
X137238095Y-133357143D01*
X137285714Y-133404762D01*
X137380952Y-133452381D01*
X137571429Y-133452381D01*
X137666667Y-133404762D01*
X137714286Y-133357143D01*
X137761905Y-133261905D01*
X137761905Y-133023810D01*
X137714286Y-132928571D01*
X137666667Y-132880952D01*
X137571429Y-132833333D01*
X137380952Y-132833333D01*
X137285714Y-132880952D01*
X137238095Y-132928571D01*
X137190476Y-133023810D01*
X135857143Y-126952381D02*
X135523809Y-126476190D01*
X135285714Y-126952381D02*
X135285714Y-125952381D01*
X135666667Y-125952381D01*
X135761905Y-126000000D01*
X135809524Y-126047619D01*
X135857143Y-126142857D01*
X135857143Y-126285714D01*
X135809524Y-126380952D01*
X135761905Y-126428571D01*
X135666667Y-126476190D01*
X135285714Y-126476190D01*
X136238095Y-126047619D02*
X136285714Y-126000000D01*
X136380952Y-125952381D01*
X136619048Y-125952381D01*
X136714286Y-126000000D01*
X136761905Y-126047619D01*
X136809524Y-126142857D01*
X136809524Y-126238095D01*
X136761905Y-126380952D01*
X136190476Y-126952381D01*
X136809524Y-126952381D01*
X137142857Y-125952381D02*
X137809524Y-125952381D01*
X137380952Y-126952381D01*
X135857143Y-120452381D02*
X135523809Y-119976190D01*
X135285714Y-120452381D02*
X135285714Y-119452381D01*
X135666667Y-119452381D01*
X135761905Y-119500000D01*
X135809524Y-119547619D01*
X135857143Y-119642857D01*
X135857143Y-119785714D01*
X135809524Y-119880952D01*
X135761905Y-119928571D01*
X135666667Y-119976190D01*
X135285714Y-119976190D01*
X136238095Y-119547619D02*
X136285714Y-119500000D01*
X136380952Y-119452381D01*
X136619048Y-119452381D01*
X136714286Y-119500000D01*
X136761905Y-119547619D01*
X136809524Y-119642857D01*
X136809524Y-119738095D01*
X136761905Y-119880952D01*
X136190476Y-120452381D01*
X136809524Y-120452381D01*
X137380952Y-119880952D02*
X137285714Y-119833333D01*
X137238095Y-119785714D01*
X137190476Y-119690476D01*
X137190476Y-119642857D01*
X137238095Y-119547619D01*
X137285714Y-119500000D01*
X137380952Y-119452381D01*
X137571429Y-119452381D01*
X137666667Y-119500000D01*
X137714286Y-119547619D01*
X137761905Y-119642857D01*
X137761905Y-119690476D01*
X137714286Y-119785714D01*
X137666667Y-119833333D01*
X137571429Y-119880952D01*
X137380952Y-119880952D01*
X137285714Y-119928571D01*
X137238095Y-119976190D01*
X137190476Y-120071429D01*
X137190476Y-120261905D01*
X137238095Y-120357143D01*
X137285714Y-120404762D01*
X137380952Y-120452381D01*
X137571429Y-120452381D01*
X137666667Y-120404762D01*
X137714286Y-120357143D01*
X137761905Y-120261905D01*
X137761905Y-120071429D01*
X137714286Y-119976190D01*
X137666667Y-119928571D01*
X137571429Y-119880952D01*
X136952381Y-113642857D02*
X136476190Y-113976191D01*
X136952381Y-114214286D02*
X135952381Y-114214286D01*
X135952381Y-113833333D01*
X136000000Y-113738095D01*
X136047619Y-113690476D01*
X136142857Y-113642857D01*
X136285714Y-113642857D01*
X136380952Y-113690476D01*
X136428571Y-113738095D01*
X136476190Y-113833333D01*
X136476190Y-114214286D01*
X136047619Y-113261905D02*
X136000000Y-113214286D01*
X135952381Y-113119048D01*
X135952381Y-112880952D01*
X136000000Y-112785714D01*
X136047619Y-112738095D01*
X136142857Y-112690476D01*
X136238095Y-112690476D01*
X136380952Y-112738095D01*
X136952381Y-113309524D01*
X136952381Y-112690476D01*
X136952381Y-112214286D02*
X136952381Y-112023810D01*
X136904762Y-111928571D01*
X136857143Y-111880952D01*
X136714286Y-111785714D01*
X136523810Y-111738095D01*
X136142857Y-111738095D01*
X136047619Y-111785714D01*
X136000000Y-111833333D01*
X135952381Y-111928571D01*
X135952381Y-112119048D01*
X136000000Y-112214286D01*
X136047619Y-112261905D01*
X136142857Y-112309524D01*
X136380952Y-112309524D01*
X136476190Y-112261905D01*
X136523810Y-112214286D01*
X136571429Y-112119048D01*
X136571429Y-111928571D01*
X136523810Y-111833333D01*
X136476190Y-111785714D01*
X136380952Y-111738095D01*
X136952381Y-100142857D02*
X136476190Y-100476191D01*
X136952381Y-100714286D02*
X135952381Y-100714286D01*
X135952381Y-100333333D01*
X136000000Y-100238095D01*
X136047619Y-100190476D01*
X136142857Y-100142857D01*
X136285714Y-100142857D01*
X136380952Y-100190476D01*
X136428571Y-100238095D01*
X136476190Y-100333333D01*
X136476190Y-100714286D01*
X135952381Y-99809524D02*
X135952381Y-99190476D01*
X136333333Y-99523810D01*
X136333333Y-99380952D01*
X136380952Y-99285714D01*
X136428571Y-99238095D01*
X136523810Y-99190476D01*
X136761905Y-99190476D01*
X136857143Y-99238095D01*
X136904762Y-99285714D01*
X136952381Y-99380952D01*
X136952381Y-99666667D01*
X136904762Y-99761905D01*
X136857143Y-99809524D01*
X135952381Y-98571429D02*
X135952381Y-98476190D01*
X136000000Y-98380952D01*
X136047619Y-98333333D01*
X136142857Y-98285714D01*
X136333333Y-98238095D01*
X136571429Y-98238095D01*
X136761905Y-98285714D01*
X136857143Y-98333333D01*
X136904762Y-98380952D01*
X136952381Y-98476190D01*
X136952381Y-98571429D01*
X136904762Y-98666667D01*
X136857143Y-98714286D01*
X136761905Y-98761905D01*
X136571429Y-98809524D01*
X136333333Y-98809524D01*
X136142857Y-98761905D01*
X136047619Y-98714286D01*
X136000000Y-98666667D01*
X135952381Y-98571429D01*
X141552381Y-97142857D02*
X141076190Y-97476191D01*
X141552381Y-97714286D02*
X140552381Y-97714286D01*
X140552381Y-97333333D01*
X140600000Y-97238095D01*
X140647619Y-97190476D01*
X140742857Y-97142857D01*
X140885714Y-97142857D01*
X140980952Y-97190476D01*
X141028571Y-97238095D01*
X141076190Y-97333333D01*
X141076190Y-97714286D01*
X140552381Y-96809524D02*
X140552381Y-96190476D01*
X140933333Y-96523810D01*
X140933333Y-96380952D01*
X140980952Y-96285714D01*
X141028571Y-96238095D01*
X141123810Y-96190476D01*
X141361905Y-96190476D01*
X141457143Y-96238095D01*
X141504762Y-96285714D01*
X141552381Y-96380952D01*
X141552381Y-96666667D01*
X141504762Y-96761905D01*
X141457143Y-96809524D01*
X140647619Y-95809524D02*
X140600000Y-95761905D01*
X140552381Y-95666667D01*
X140552381Y-95428571D01*
X140600000Y-95333333D01*
X140647619Y-95285714D01*
X140742857Y-95238095D01*
X140838095Y-95238095D01*
X140980952Y-95285714D01*
X141552381Y-95857143D01*
X141552381Y-95238095D01*
X128357143Y-134952381D02*
X128023809Y-134476190D01*
X127785714Y-134952381D02*
X127785714Y-133952381D01*
X128166667Y-133952381D01*
X128261905Y-134000000D01*
X128309524Y-134047619D01*
X128357143Y-134142857D01*
X128357143Y-134285714D01*
X128309524Y-134380952D01*
X128261905Y-134428571D01*
X128166667Y-134476190D01*
X127785714Y-134476190D01*
X128690476Y-133952381D02*
X129309524Y-133952381D01*
X128976190Y-134333333D01*
X129119048Y-134333333D01*
X129214286Y-134380952D01*
X129261905Y-134428571D01*
X129309524Y-134523810D01*
X129309524Y-134761905D01*
X129261905Y-134857143D01*
X129214286Y-134904762D01*
X129119048Y-134952381D01*
X128833333Y-134952381D01*
X128738095Y-134904762D01*
X128690476Y-134857143D01*
X129642857Y-133952381D02*
X130261905Y-133952381D01*
X129928571Y-134333333D01*
X130071429Y-134333333D01*
X130166667Y-134380952D01*
X130214286Y-134428571D01*
X130261905Y-134523810D01*
X130261905Y-134761905D01*
X130214286Y-134857143D01*
X130166667Y-134904762D01*
X130071429Y-134952381D01*
X129785714Y-134952381D01*
X129690476Y-134904762D01*
X129642857Y-134857143D01*
X128857143Y-128452381D02*
X128523809Y-127976190D01*
X128285714Y-128452381D02*
X128285714Y-127452381D01*
X128666667Y-127452381D01*
X128761905Y-127500000D01*
X128809524Y-127547619D01*
X128857143Y-127642857D01*
X128857143Y-127785714D01*
X128809524Y-127880952D01*
X128761905Y-127928571D01*
X128666667Y-127976190D01*
X128285714Y-127976190D01*
X129190476Y-127452381D02*
X129809524Y-127452381D01*
X129476190Y-127833333D01*
X129619048Y-127833333D01*
X129714286Y-127880952D01*
X129761905Y-127928571D01*
X129809524Y-128023810D01*
X129809524Y-128261905D01*
X129761905Y-128357143D01*
X129714286Y-128404762D01*
X129619048Y-128452381D01*
X129333333Y-128452381D01*
X129238095Y-128404762D01*
X129190476Y-128357143D01*
X130666667Y-127785714D02*
X130666667Y-128452381D01*
X130428571Y-127404762D02*
X130190476Y-128119048D01*
X130809524Y-128119048D01*
X128357143Y-122452381D02*
X128023809Y-121976190D01*
X127785714Y-122452381D02*
X127785714Y-121452381D01*
X128166667Y-121452381D01*
X128261905Y-121500000D01*
X128309524Y-121547619D01*
X128357143Y-121642857D01*
X128357143Y-121785714D01*
X128309524Y-121880952D01*
X128261905Y-121928571D01*
X128166667Y-121976190D01*
X127785714Y-121976190D01*
X128690476Y-121452381D02*
X129309524Y-121452381D01*
X128976190Y-121833333D01*
X129119048Y-121833333D01*
X129214286Y-121880952D01*
X129261905Y-121928571D01*
X129309524Y-122023810D01*
X129309524Y-122261905D01*
X129261905Y-122357143D01*
X129214286Y-122404762D01*
X129119048Y-122452381D01*
X128833333Y-122452381D01*
X128738095Y-122404762D01*
X128690476Y-122357143D01*
X130214286Y-121452381D02*
X129738095Y-121452381D01*
X129690476Y-121928571D01*
X129738095Y-121880952D01*
X129833333Y-121833333D01*
X130071429Y-121833333D01*
X130166667Y-121880952D01*
X130214286Y-121928571D01*
X130261905Y-122023810D01*
X130261905Y-122261905D01*
X130214286Y-122357143D01*
X130166667Y-122404762D01*
X130071429Y-122452381D01*
X129833333Y-122452381D01*
X129738095Y-122404762D01*
X129690476Y-122357143D01*
X127357143Y-109452381D02*
X127023809Y-108976190D01*
X126785714Y-109452381D02*
X126785714Y-108452381D01*
X127166667Y-108452381D01*
X127261905Y-108500000D01*
X127309524Y-108547619D01*
X127357143Y-108642857D01*
X127357143Y-108785714D01*
X127309524Y-108880952D01*
X127261905Y-108928571D01*
X127166667Y-108976190D01*
X126785714Y-108976190D01*
X127690476Y-108452381D02*
X128309524Y-108452381D01*
X127976190Y-108833333D01*
X128119048Y-108833333D01*
X128214286Y-108880952D01*
X128261905Y-108928571D01*
X128309524Y-109023810D01*
X128309524Y-109261905D01*
X128261905Y-109357143D01*
X128214286Y-109404762D01*
X128119048Y-109452381D01*
X127833333Y-109452381D01*
X127738095Y-109404762D01*
X127690476Y-109357143D01*
X129166667Y-108452381D02*
X128976190Y-108452381D01*
X128880952Y-108500000D01*
X128833333Y-108547619D01*
X128738095Y-108690476D01*
X128690476Y-108880952D01*
X128690476Y-109261905D01*
X128738095Y-109357143D01*
X128785714Y-109404762D01*
X128880952Y-109452381D01*
X129071429Y-109452381D01*
X129166667Y-109404762D01*
X129214286Y-109357143D01*
X129261905Y-109261905D01*
X129261905Y-109023810D01*
X129214286Y-108928571D01*
X129166667Y-108880952D01*
X129071429Y-108833333D01*
X128880952Y-108833333D01*
X128785714Y-108880952D01*
X128738095Y-108928571D01*
X128690476Y-109023810D01*
X126857143Y-101952381D02*
X126523809Y-101476190D01*
X126285714Y-101952381D02*
X126285714Y-100952381D01*
X126666667Y-100952381D01*
X126761905Y-101000000D01*
X126809524Y-101047619D01*
X126857143Y-101142857D01*
X126857143Y-101285714D01*
X126809524Y-101380952D01*
X126761905Y-101428571D01*
X126666667Y-101476190D01*
X126285714Y-101476190D01*
X127190476Y-100952381D02*
X127809524Y-100952381D01*
X127476190Y-101333333D01*
X127619048Y-101333333D01*
X127714286Y-101380952D01*
X127761905Y-101428571D01*
X127809524Y-101523810D01*
X127809524Y-101761905D01*
X127761905Y-101857143D01*
X127714286Y-101904762D01*
X127619048Y-101952381D01*
X127333333Y-101952381D01*
X127238095Y-101904762D01*
X127190476Y-101857143D01*
X128142857Y-100952381D02*
X128809524Y-100952381D01*
X128380952Y-101952381D01*
X123357143Y-98452381D02*
X123023809Y-97976190D01*
X122785714Y-98452381D02*
X122785714Y-97452381D01*
X123166667Y-97452381D01*
X123261905Y-97500000D01*
X123309524Y-97547619D01*
X123357143Y-97642857D01*
X123357143Y-97785714D01*
X123309524Y-97880952D01*
X123261905Y-97928571D01*
X123166667Y-97976190D01*
X122785714Y-97976190D01*
X123690476Y-97452381D02*
X124309524Y-97452381D01*
X123976190Y-97833333D01*
X124119048Y-97833333D01*
X124214286Y-97880952D01*
X124261905Y-97928571D01*
X124309524Y-98023810D01*
X124309524Y-98261905D01*
X124261905Y-98357143D01*
X124214286Y-98404762D01*
X124119048Y-98452381D01*
X123833333Y-98452381D01*
X123738095Y-98404762D01*
X123690476Y-98357143D01*
X124880952Y-97880952D02*
X124785714Y-97833333D01*
X124738095Y-97785714D01*
X124690476Y-97690476D01*
X124690476Y-97642857D01*
X124738095Y-97547619D01*
X124785714Y-97500000D01*
X124880952Y-97452381D01*
X125071429Y-97452381D01*
X125166667Y-97500000D01*
X125214286Y-97547619D01*
X125261905Y-97642857D01*
X125261905Y-97690476D01*
X125214286Y-97785714D01*
X125166667Y-97833333D01*
X125071429Y-97880952D01*
X124880952Y-97880952D01*
X124785714Y-97928571D01*
X124738095Y-97976190D01*
X124690476Y-98071429D01*
X124690476Y-98261905D01*
X124738095Y-98357143D01*
X124785714Y-98404762D01*
X124880952Y-98452381D01*
X125071429Y-98452381D01*
X125166667Y-98404762D01*
X125214286Y-98357143D01*
X125261905Y-98261905D01*
X125261905Y-98071429D01*
X125214286Y-97976190D01*
X125166667Y-97928571D01*
X125071429Y-97880952D01*
X157357143Y-81857143D02*
X157309524Y-81904762D01*
X157166667Y-81952381D01*
X157071429Y-81952381D01*
X156928571Y-81904762D01*
X156833333Y-81809524D01*
X156785714Y-81714286D01*
X156738095Y-81523810D01*
X156738095Y-81380952D01*
X156785714Y-81190476D01*
X156833333Y-81095238D01*
X156928571Y-81000000D01*
X157071429Y-80952381D01*
X157166667Y-80952381D01*
X157309524Y-81000000D01*
X157357143Y-81047619D01*
X158309524Y-81952381D02*
X157738095Y-81952381D01*
X158023809Y-81952381D02*
X158023809Y-80952381D01*
X157928571Y-81095238D01*
X157833333Y-81190476D01*
X157738095Y-81238095D01*
X159261905Y-81952381D02*
X158690476Y-81952381D01*
X158976190Y-81952381D02*
X158976190Y-80952381D01*
X158880952Y-81095238D01*
X158785714Y-81190476D01*
X158690476Y-81238095D01*
X156857143Y-142857143D02*
X156809524Y-142904762D01*
X156666667Y-142952381D01*
X156571429Y-142952381D01*
X156428571Y-142904762D01*
X156333333Y-142809524D01*
X156285714Y-142714286D01*
X156238095Y-142523810D01*
X156238095Y-142380952D01*
X156285714Y-142190476D01*
X156333333Y-142095238D01*
X156428571Y-142000000D01*
X156571429Y-141952381D01*
X156666667Y-141952381D01*
X156809524Y-142000000D01*
X156857143Y-142047619D01*
X157809524Y-142952381D02*
X157238095Y-142952381D01*
X157523809Y-142952381D02*
X157523809Y-141952381D01*
X157428571Y-142095238D01*
X157333333Y-142190476D01*
X157238095Y-142238095D01*
X158190476Y-142047619D02*
X158238095Y-142000000D01*
X158333333Y-141952381D01*
X158571429Y-141952381D01*
X158666667Y-142000000D01*
X158714286Y-142047619D01*
X158761905Y-142142857D01*
X158761905Y-142238095D01*
X158714286Y-142380952D01*
X158142857Y-142952381D01*
X158761905Y-142952381D01*
X156857143Y-126857143D02*
X156809524Y-126904762D01*
X156666667Y-126952381D01*
X156571429Y-126952381D01*
X156428571Y-126904762D01*
X156333333Y-126809524D01*
X156285714Y-126714286D01*
X156238095Y-126523810D01*
X156238095Y-126380952D01*
X156285714Y-126190476D01*
X156333333Y-126095238D01*
X156428571Y-126000000D01*
X156571429Y-125952381D01*
X156666667Y-125952381D01*
X156809524Y-126000000D01*
X156857143Y-126047619D01*
X157809524Y-126952381D02*
X157238095Y-126952381D01*
X157523809Y-126952381D02*
X157523809Y-125952381D01*
X157428571Y-126095238D01*
X157333333Y-126190476D01*
X157238095Y-126238095D01*
X158142857Y-125952381D02*
X158761905Y-125952381D01*
X158428571Y-126333333D01*
X158571429Y-126333333D01*
X158666667Y-126380952D01*
X158714286Y-126428571D01*
X158761905Y-126523810D01*
X158761905Y-126761905D01*
X158714286Y-126857143D01*
X158666667Y-126904762D01*
X158571429Y-126952381D01*
X158285714Y-126952381D01*
X158190476Y-126904762D01*
X158142857Y-126857143D01*
X157357143Y-96857143D02*
X157309524Y-96904762D01*
X157166667Y-96952381D01*
X157071429Y-96952381D01*
X156928571Y-96904762D01*
X156833333Y-96809524D01*
X156785714Y-96714286D01*
X156738095Y-96523810D01*
X156738095Y-96380952D01*
X156785714Y-96190476D01*
X156833333Y-96095238D01*
X156928571Y-96000000D01*
X157071429Y-95952381D01*
X157166667Y-95952381D01*
X157309524Y-96000000D01*
X157357143Y-96047619D01*
X158309524Y-96952381D02*
X157738095Y-96952381D01*
X158023809Y-96952381D02*
X158023809Y-95952381D01*
X157928571Y-96095238D01*
X157833333Y-96190476D01*
X157738095Y-96238095D01*
X159166667Y-96285714D02*
X159166667Y-96952381D01*
X158928571Y-95904762D02*
X158690476Y-96619048D01*
X159309524Y-96619048D01*
X157357143Y-112857143D02*
X157309524Y-112904762D01*
X157166667Y-112952381D01*
X157071429Y-112952381D01*
X156928571Y-112904762D01*
X156833333Y-112809524D01*
X156785714Y-112714286D01*
X156738095Y-112523810D01*
X156738095Y-112380952D01*
X156785714Y-112190476D01*
X156833333Y-112095238D01*
X156928571Y-112000000D01*
X157071429Y-111952381D01*
X157166667Y-111952381D01*
X157309524Y-112000000D01*
X157357143Y-112047619D01*
X158309524Y-112952381D02*
X157738095Y-112952381D01*
X158023809Y-112952381D02*
X158023809Y-111952381D01*
X157928571Y-112095238D01*
X157833333Y-112190476D01*
X157738095Y-112238095D01*
X159214286Y-111952381D02*
X158738095Y-111952381D01*
X158690476Y-112428571D01*
X158738095Y-112380952D01*
X158833333Y-112333333D01*
X159071429Y-112333333D01*
X159166667Y-112380952D01*
X159214286Y-112428571D01*
X159261905Y-112523810D01*
X159261905Y-112761905D01*
X159214286Y-112857143D01*
X159166667Y-112904762D01*
X159071429Y-112952381D01*
X158833333Y-112952381D01*
X158738095Y-112904762D01*
X158690476Y-112857143D01*
X157357143Y-150357143D02*
X157309524Y-150404762D01*
X157166667Y-150452381D01*
X157071429Y-150452381D01*
X156928571Y-150404762D01*
X156833333Y-150309524D01*
X156785714Y-150214286D01*
X156738095Y-150023810D01*
X156738095Y-149880952D01*
X156785714Y-149690476D01*
X156833333Y-149595238D01*
X156928571Y-149500000D01*
X157071429Y-149452381D01*
X157166667Y-149452381D01*
X157309524Y-149500000D01*
X157357143Y-149547619D01*
X158309524Y-150452381D02*
X157738095Y-150452381D01*
X158023809Y-150452381D02*
X158023809Y-149452381D01*
X157928571Y-149595238D01*
X157833333Y-149690476D01*
X157738095Y-149738095D01*
X159166667Y-149452381D02*
X158976190Y-149452381D01*
X158880952Y-149500000D01*
X158833333Y-149547619D01*
X158738095Y-149690476D01*
X158690476Y-149880952D01*
X158690476Y-150261905D01*
X158738095Y-150357143D01*
X158785714Y-150404762D01*
X158880952Y-150452381D01*
X159071429Y-150452381D01*
X159166667Y-150404762D01*
X159214286Y-150357143D01*
X159261905Y-150261905D01*
X159261905Y-150023810D01*
X159214286Y-149928571D01*
X159166667Y-149880952D01*
X159071429Y-149833333D01*
X158880952Y-149833333D01*
X158785714Y-149880952D01*
X158738095Y-149928571D01*
X158690476Y-150023810D01*
M02*
