%TF.GenerationSoftware,KiCad,Pcbnew,4.0.1-stable*%
%TF.CreationDate,2016-04-03T13:48:16+02:00*%
%TF.ProjectId,ventirad,76656E74697261642E6B696361645F70,rev?*%
%TF.FileFunction,Soldermask,Top*%
%FSLAX46Y46*%
G04 Gerber Fmt 4.6, Leading zero omitted, Abs format (unit mm)*
G04 Created by KiCad (PCBNEW 4.0.1-stable) date 03/04/2016 13:48:16*
%MOMM*%
G01*
G04 APERTURE LIST*
%ADD10C,0.100000*%
%ADD11R,2.000000X2.400000*%
%ADD12C,4.464000*%
%ADD13R,1.600000X1.300000*%
%ADD14R,1.700000X1.900000*%
%ADD15R,1.300000X1.600000*%
%ADD16R,2.200860X1.200100*%
%ADD17R,2.400000X3.000000*%
%ADD18O,2.400000X3.000000*%
%ADD19R,1.900000X1.700000*%
%ADD20R,3.000000X2.400000*%
%ADD21O,3.000000X2.400000*%
%ADD22R,3.900120X2.200860*%
%ADD23R,2.051000X3.448000*%
%ADD24R,6.496000X6.496000*%
%ADD25R,1.650000X1.900000*%
%ADD26R,2.400000X2.000000*%
%ADD27R,2.686000X1.974800*%
%ADD28O,2.686000X1.974800*%
G04 APERTURE END LIST*
D10*
D11*
X208500000Y-152000000D03*
X208500000Y-156000000D03*
X208500000Y-105000000D03*
X208500000Y-109000000D03*
X208500000Y-90000000D03*
X208500000Y-94000000D03*
X208500000Y-120000000D03*
X208500000Y-124000000D03*
X208500000Y-135000000D03*
X208500000Y-139000000D03*
X208500000Y-74000000D03*
X208500000Y-78000000D03*
D12*
X166500000Y-156000000D03*
X208500000Y-64000000D03*
D13*
X177400000Y-98000000D03*
X179600000Y-98000000D03*
X177400000Y-100000000D03*
X179600000Y-100000000D03*
X177400000Y-107500000D03*
X179600000Y-107500000D03*
X178150000Y-120250000D03*
X180350000Y-120250000D03*
X178150000Y-126500000D03*
X180350000Y-126500000D03*
X178150000Y-132750000D03*
X180350000Y-132750000D03*
D14*
X189500000Y-95150000D03*
X189500000Y-97850000D03*
X187000000Y-104600000D03*
X187000000Y-101900000D03*
X186750000Y-110600000D03*
X186750000Y-107900000D03*
X187000000Y-118350000D03*
X187000000Y-115650000D03*
X187000000Y-124850000D03*
X187000000Y-122150000D03*
X187000000Y-131350000D03*
X187000000Y-128650000D03*
D13*
X187100000Y-95000000D03*
X184900000Y-95000000D03*
D15*
X184750000Y-104100000D03*
X184750000Y-101900000D03*
X184750000Y-110600000D03*
X184750000Y-108400000D03*
X184750000Y-118850000D03*
X184750000Y-116650000D03*
X184750000Y-124600000D03*
X184750000Y-122400000D03*
X185000000Y-130850000D03*
X185000000Y-128650000D03*
D16*
X185001140Y-98950000D03*
X185001140Y-97050000D03*
X181998860Y-98000000D03*
X182751140Y-103950000D03*
X182751140Y-102050000D03*
X179748860Y-103000000D03*
X182751140Y-110450000D03*
X182751140Y-108550000D03*
X179748860Y-109500000D03*
X182751140Y-118450000D03*
X182751140Y-116550000D03*
X179748860Y-117500000D03*
X182751140Y-124450000D03*
X182751140Y-122550000D03*
X179748860Y-123500000D03*
X182751140Y-130700000D03*
X182751140Y-128800000D03*
X179748860Y-129750000D03*
D17*
X193500000Y-66500000D03*
D18*
X190960000Y-66500000D03*
X188420000Y-66500000D03*
X185880000Y-66500000D03*
D17*
X181500000Y-154000000D03*
D18*
X184040000Y-154000000D03*
X186580000Y-154000000D03*
X189120000Y-154000000D03*
D13*
X203873000Y-152908000D03*
X201673000Y-152908000D03*
D15*
X195407000Y-154348000D03*
X195407000Y-156548000D03*
D14*
X195407000Y-152226000D03*
X195407000Y-149526000D03*
D19*
X175350000Y-145000000D03*
X172650000Y-145000000D03*
D14*
X170000000Y-147850000D03*
X170000000Y-145150000D03*
D13*
X204000000Y-76200000D03*
X201800000Y-76200000D03*
D15*
X195915000Y-77640000D03*
X195915000Y-79840000D03*
D14*
X193375000Y-78025000D03*
X193375000Y-80725000D03*
D13*
X204000000Y-91440000D03*
X201800000Y-91440000D03*
D15*
X195915000Y-92880000D03*
X195915000Y-95080000D03*
D14*
X193375000Y-93265000D03*
X193375000Y-95965000D03*
D13*
X204000000Y-106680000D03*
X201800000Y-106680000D03*
D15*
X195915000Y-108120000D03*
X195915000Y-110320000D03*
D14*
X194645000Y-113585000D03*
X194645000Y-116285000D03*
D13*
X204000000Y-121920000D03*
X201800000Y-121920000D03*
D15*
X195915000Y-123360000D03*
X195915000Y-125560000D03*
D14*
X192740000Y-123745000D03*
X192740000Y-126445000D03*
D13*
X204000000Y-137160000D03*
X201800000Y-137160000D03*
D15*
X195915000Y-138600000D03*
X195915000Y-140800000D03*
D14*
X195915000Y-136605000D03*
X195915000Y-133905000D03*
D20*
X208500000Y-71000000D03*
D21*
X208500000Y-68460000D03*
D20*
X208500000Y-87000000D03*
D21*
X208500000Y-84460000D03*
D20*
X208500000Y-102000000D03*
D21*
X208500000Y-99460000D03*
D20*
X208500000Y-117000000D03*
D21*
X208500000Y-114460000D03*
D20*
X208500000Y-132000000D03*
D21*
X208500000Y-129460000D03*
D20*
X208500000Y-148000000D03*
D21*
X208500000Y-145460000D03*
D20*
X167500000Y-72000000D03*
D21*
X167500000Y-74540000D03*
D20*
X174500000Y-157000000D03*
D21*
X174500000Y-154460000D03*
X174500000Y-151920000D03*
X174500000Y-149380000D03*
D20*
X167500000Y-88000000D03*
D21*
X167500000Y-90540000D03*
X167500000Y-93080000D03*
D20*
X167500000Y-98000000D03*
D21*
X167500000Y-100540000D03*
X167500000Y-103080000D03*
D20*
X167500000Y-108000000D03*
D21*
X167500000Y-110540000D03*
X167500000Y-113080000D03*
D20*
X167500000Y-118000000D03*
D21*
X167500000Y-120540000D03*
X167500000Y-123080000D03*
D20*
X167500000Y-128000000D03*
D21*
X167500000Y-130540000D03*
X167500000Y-133080000D03*
D20*
X167500000Y-138000000D03*
D21*
X167500000Y-140540000D03*
X167500000Y-143080000D03*
D20*
X167500000Y-80000000D03*
D21*
X167500000Y-82540000D03*
D22*
X179999360Y-78000000D03*
X175000640Y-78000000D03*
D23*
X180786000Y-85750000D03*
D24*
X178500000Y-92100000D03*
D23*
X176214000Y-85750000D03*
X200614000Y-76200000D03*
D24*
X202900000Y-69850000D03*
D23*
X205186000Y-76200000D03*
D16*
X197588860Y-77790000D03*
X197588860Y-79690000D03*
X200591140Y-78740000D03*
D23*
X200614000Y-91440000D03*
D24*
X202900000Y-85090000D03*
D23*
X205186000Y-91440000D03*
D16*
X197588860Y-93030000D03*
X197588860Y-94930000D03*
X200591140Y-93980000D03*
D23*
X200614000Y-106680000D03*
D24*
X202900000Y-100330000D03*
D23*
X205186000Y-106680000D03*
D16*
X197588860Y-108270000D03*
X197588860Y-110170000D03*
X200591140Y-109220000D03*
D23*
X200614000Y-121920000D03*
D24*
X202900000Y-115570000D03*
D23*
X205186000Y-121920000D03*
D16*
X197588860Y-123510000D03*
X197588860Y-125410000D03*
X200591140Y-124460000D03*
D23*
X200614000Y-137160000D03*
D24*
X202900000Y-130810000D03*
D23*
X205186000Y-137160000D03*
D16*
X197588860Y-138750000D03*
X197588860Y-140650000D03*
X200591140Y-139700000D03*
D23*
X200487000Y-152654000D03*
D24*
X202773000Y-146304000D03*
D23*
X205059000Y-152654000D03*
D16*
X197207860Y-154244000D03*
X197207860Y-156144000D03*
X200210140Y-155194000D03*
D25*
X167500000Y-145250000D03*
X167500000Y-147750000D03*
D11*
X173500000Y-86250000D03*
X173500000Y-82250000D03*
D26*
X179500000Y-74000000D03*
X175500000Y-74000000D03*
D20*
X167500000Y-64000000D03*
D21*
X167500000Y-66540000D03*
D27*
X174325000Y-135890000D03*
D28*
X174325000Y-133350000D03*
X174325000Y-130810000D03*
X174325000Y-128270000D03*
X174325000Y-125730000D03*
X174325000Y-123190000D03*
X174325000Y-120650000D03*
X174325000Y-118110000D03*
X174325000Y-115570000D03*
X174325000Y-113030000D03*
X174325000Y-110490000D03*
X174325000Y-107950000D03*
X174325000Y-105410000D03*
X174325000Y-102870000D03*
X174325000Y-100330000D03*
X189565000Y-100330000D03*
X189565000Y-102870000D03*
X189565000Y-105410000D03*
X189565000Y-107950000D03*
X189565000Y-110490000D03*
X189565000Y-113030000D03*
X189565000Y-115570000D03*
X189565000Y-118110000D03*
X189565000Y-120650000D03*
X189565000Y-123190000D03*
X189565000Y-125730000D03*
X189565000Y-128270000D03*
X189565000Y-130810000D03*
X189565000Y-133350000D03*
X189565000Y-135890000D03*
D27*
X123825000Y-135890000D03*
D28*
X123825000Y-133350000D03*
X123825000Y-130810000D03*
X123825000Y-128270000D03*
X123825000Y-125730000D03*
X123825000Y-123190000D03*
X123825000Y-120650000D03*
X123825000Y-118110000D03*
X123825000Y-115570000D03*
X123825000Y-113030000D03*
X123825000Y-110490000D03*
X123825000Y-107950000D03*
X123825000Y-105410000D03*
X123825000Y-102870000D03*
X123825000Y-100330000D03*
X139065000Y-100330000D03*
X139065000Y-102870000D03*
X139065000Y-105410000D03*
X139065000Y-107950000D03*
X139065000Y-110490000D03*
X139065000Y-113030000D03*
X139065000Y-115570000D03*
X139065000Y-118110000D03*
X139065000Y-120650000D03*
X139065000Y-123190000D03*
X139065000Y-125730000D03*
X139065000Y-128270000D03*
X139065000Y-130810000D03*
X139065000Y-133350000D03*
X139065000Y-135890000D03*
D20*
X117000000Y-64000000D03*
D21*
X117000000Y-66540000D03*
D26*
X129000000Y-74000000D03*
X125000000Y-74000000D03*
D11*
X123000000Y-86250000D03*
X123000000Y-82250000D03*
D25*
X117000000Y-145250000D03*
X117000000Y-147750000D03*
D16*
X146707860Y-154244000D03*
X146707860Y-156144000D03*
X149710140Y-155194000D03*
D23*
X149987000Y-152654000D03*
D24*
X152273000Y-146304000D03*
D23*
X154559000Y-152654000D03*
D16*
X147088860Y-138750000D03*
X147088860Y-140650000D03*
X150091140Y-139700000D03*
D23*
X150114000Y-137160000D03*
D24*
X152400000Y-130810000D03*
D23*
X154686000Y-137160000D03*
D16*
X147088860Y-123510000D03*
X147088860Y-125410000D03*
X150091140Y-124460000D03*
D23*
X150114000Y-121920000D03*
D24*
X152400000Y-115570000D03*
D23*
X154686000Y-121920000D03*
D16*
X147088860Y-108270000D03*
X147088860Y-110170000D03*
X150091140Y-109220000D03*
D23*
X150114000Y-106680000D03*
D24*
X152400000Y-100330000D03*
D23*
X154686000Y-106680000D03*
D16*
X147088860Y-93030000D03*
X147088860Y-94930000D03*
X150091140Y-93980000D03*
D23*
X150114000Y-91440000D03*
D24*
X152400000Y-85090000D03*
D23*
X154686000Y-91440000D03*
D16*
X147088860Y-77790000D03*
X147088860Y-79690000D03*
X150091140Y-78740000D03*
D23*
X150114000Y-76200000D03*
D24*
X152400000Y-69850000D03*
D23*
X154686000Y-76200000D03*
X130286000Y-85750000D03*
D24*
X128000000Y-92100000D03*
D23*
X125714000Y-85750000D03*
D22*
X129499360Y-78000000D03*
X124500640Y-78000000D03*
D20*
X117000000Y-80000000D03*
D21*
X117000000Y-82540000D03*
D20*
X117000000Y-138000000D03*
D21*
X117000000Y-140540000D03*
X117000000Y-143080000D03*
D20*
X117000000Y-128000000D03*
D21*
X117000000Y-130540000D03*
X117000000Y-133080000D03*
D20*
X117000000Y-118000000D03*
D21*
X117000000Y-120540000D03*
X117000000Y-123080000D03*
D20*
X117000000Y-108000000D03*
D21*
X117000000Y-110540000D03*
X117000000Y-113080000D03*
D20*
X117000000Y-98000000D03*
D21*
X117000000Y-100540000D03*
X117000000Y-103080000D03*
D20*
X117000000Y-88000000D03*
D21*
X117000000Y-90540000D03*
X117000000Y-93080000D03*
D20*
X124000000Y-157000000D03*
D21*
X124000000Y-154460000D03*
X124000000Y-151920000D03*
X124000000Y-149380000D03*
D20*
X117000000Y-72000000D03*
D21*
X117000000Y-74540000D03*
D20*
X158000000Y-148000000D03*
D21*
X158000000Y-145460000D03*
D20*
X158000000Y-132000000D03*
D21*
X158000000Y-129460000D03*
D20*
X158000000Y-117000000D03*
D21*
X158000000Y-114460000D03*
D20*
X158000000Y-102000000D03*
D21*
X158000000Y-99460000D03*
D20*
X158000000Y-87000000D03*
D21*
X158000000Y-84460000D03*
D20*
X158000000Y-71000000D03*
D21*
X158000000Y-68460000D03*
D14*
X145415000Y-136605000D03*
X145415000Y-133905000D03*
D15*
X145415000Y-138600000D03*
X145415000Y-140800000D03*
D13*
X153500000Y-137160000D03*
X151300000Y-137160000D03*
D14*
X142240000Y-123745000D03*
X142240000Y-126445000D03*
D15*
X145415000Y-123360000D03*
X145415000Y-125560000D03*
D13*
X153500000Y-121920000D03*
X151300000Y-121920000D03*
D14*
X144145000Y-113585000D03*
X144145000Y-116285000D03*
D15*
X145415000Y-108120000D03*
X145415000Y-110320000D03*
D13*
X153500000Y-106680000D03*
X151300000Y-106680000D03*
D14*
X142875000Y-93265000D03*
X142875000Y-95965000D03*
D15*
X145415000Y-92880000D03*
X145415000Y-95080000D03*
D13*
X153500000Y-91440000D03*
X151300000Y-91440000D03*
D14*
X142875000Y-78025000D03*
X142875000Y-80725000D03*
D15*
X145415000Y-77640000D03*
X145415000Y-79840000D03*
D13*
X153500000Y-76200000D03*
X151300000Y-76200000D03*
D14*
X119500000Y-147850000D03*
X119500000Y-145150000D03*
D19*
X124850000Y-145000000D03*
X122150000Y-145000000D03*
D14*
X144907000Y-152226000D03*
X144907000Y-149526000D03*
D15*
X144907000Y-154348000D03*
X144907000Y-156548000D03*
D13*
X153373000Y-152908000D03*
X151173000Y-152908000D03*
D17*
X131000000Y-154000000D03*
D18*
X133540000Y-154000000D03*
X136080000Y-154000000D03*
X138620000Y-154000000D03*
D17*
X143000000Y-66500000D03*
D18*
X140460000Y-66500000D03*
X137920000Y-66500000D03*
X135380000Y-66500000D03*
D16*
X132251140Y-130700000D03*
X132251140Y-128800000D03*
X129248860Y-129750000D03*
X132251140Y-124450000D03*
X132251140Y-122550000D03*
X129248860Y-123500000D03*
X132251140Y-118450000D03*
X132251140Y-116550000D03*
X129248860Y-117500000D03*
X132251140Y-110450000D03*
X132251140Y-108550000D03*
X129248860Y-109500000D03*
X132251140Y-103950000D03*
X132251140Y-102050000D03*
X129248860Y-103000000D03*
X134501140Y-98950000D03*
X134501140Y-97050000D03*
X131498860Y-98000000D03*
D15*
X134500000Y-130850000D03*
X134500000Y-128650000D03*
X134250000Y-124600000D03*
X134250000Y-122400000D03*
X134250000Y-118850000D03*
X134250000Y-116650000D03*
X134250000Y-110600000D03*
X134250000Y-108400000D03*
X134250000Y-104100000D03*
X134250000Y-101900000D03*
D13*
X136600000Y-95000000D03*
X134400000Y-95000000D03*
D14*
X136500000Y-131350000D03*
X136500000Y-128650000D03*
X136500000Y-124850000D03*
X136500000Y-122150000D03*
X136500000Y-118350000D03*
X136500000Y-115650000D03*
X136250000Y-110600000D03*
X136250000Y-107900000D03*
X136500000Y-104600000D03*
X136500000Y-101900000D03*
X139000000Y-95150000D03*
X139000000Y-97850000D03*
D13*
X127650000Y-132750000D03*
X129850000Y-132750000D03*
X127650000Y-126500000D03*
X129850000Y-126500000D03*
X127650000Y-120250000D03*
X129850000Y-120250000D03*
X126900000Y-107500000D03*
X129100000Y-107500000D03*
X126900000Y-100000000D03*
X129100000Y-100000000D03*
X126900000Y-98000000D03*
X129100000Y-98000000D03*
D12*
X158000000Y-64000000D03*
X116000000Y-156000000D03*
D11*
X158000000Y-74000000D03*
X158000000Y-78000000D03*
X158000000Y-135000000D03*
X158000000Y-139000000D03*
X158000000Y-120000000D03*
X158000000Y-124000000D03*
X158000000Y-90000000D03*
X158000000Y-94000000D03*
X158000000Y-105000000D03*
X158000000Y-109000000D03*
X158000000Y-152000000D03*
X158000000Y-156000000D03*
M02*
