M48
;DRILL file {KiCad (5.0.2)-1} date 14/03/2019 17:17:01
;FORMAT={-:-/ absolute / inch / decimal}
FMAT,2
INCH,TZ
T1C0.0157
T2C0.0320
T3C0.0472
T4C0.1260
%
G90
G05
T1
X4.8327Y-4.1535
X4.8819Y-4.1142
X4.9114Y-4.8031
X4.9311Y-4.4882
X4.9606Y-3.9173
X4.9606Y-3.9665
X4.9606Y-4.1732
X4.9606Y-4.2224
X4.9902Y-4.4783
X5.0098Y-3.9173
X5.0098Y-3.9665
X5.0098Y-4.1732
X5.0098Y-4.2224
X5.0098Y-4.7441
X5.0098Y-4.7835
X5.0098Y-4.9803
X5.0098Y-5.0197
X5.0295Y-3.248
X5.0394Y-4.4783
X5.0394Y-4.5276
X5.0492Y-4.7441
X5.0591Y-4.9803
X5.0689Y-3.5236
X5.1083Y-3.6811
X5.1575Y-3.6811
X5.2067Y-3.6811
X5.2559Y-3.6811
X5.3051Y-3.6811
X5.4921Y-3.3858
X5.4921Y-3.4449
X5.4921Y-3.5039
X5.4921Y-3.563
X5.4921Y-3.8386
X5.4921Y-3.8976
X5.4921Y-3.9567
X5.4921Y-4.0157
X5.5118Y-4.6654
X5.5118Y-4.7244
X5.5118Y-4.7835
X5.5512Y-3.3858
X5.5512Y-3.8386
X5.5512Y-4.6063
X5.5512Y-5.7874
X5.5512Y-5.8268
X5.5512Y-5.8661
X5.5709Y-4.7835
X5.5906Y-5.7874
X5.6102Y-3.3858
X5.6102Y-3.8386
X5.6102Y-4.6063
X5.6102Y-5.1969
X5.6102Y-5.2362
X5.6102Y-5.2756
X5.6102Y-5.3937
X5.6299Y-5.7874
X5.6299Y-5.8268
X5.6299Y-5.8661
X5.748Y-6.122
X5.748Y-6.1713
X5.8268Y-6.122
X5.8268Y-6.1713
X5.8661Y-3.7402
X5.8661Y-4.3701
X5.8661Y-4.9213
X5.8661Y-5.5512
X5.8858Y-6.0413
X5.8858Y-6.122
X5.8858Y-6.1713
X5.9055Y-3.1496
X5.9055Y-3.7402
X5.9055Y-4.3701
X5.9055Y-4.9213
X5.9055Y-5.5512
X5.9449Y-3.0709
X5.9449Y-3.1102
X5.9449Y-3.1496
X5.9449Y-3.6614
X5.9449Y-3.7008
X5.9449Y-3.7402
X5.9449Y-4.2913
X5.9449Y-4.3307
X5.9449Y-4.3701
X5.9449Y-4.8425
X5.9449Y-4.8819
X5.9449Y-4.9213
X5.9449Y-5.4724
X5.9449Y-5.5118
X5.9449Y-5.5512
X5.9843Y-3.0709
X5.9843Y-3.1102
X5.9843Y-3.1496
X5.9843Y-3.6614
X5.9843Y-3.7008
X5.9843Y-3.7402
X5.9843Y-4.2913
X5.9843Y-4.3307
X5.9843Y-4.3701
X5.9843Y-4.8425
X5.9843Y-4.8819
X5.9843Y-4.9213
X5.9843Y-5.4724
X5.9843Y-5.5118
X5.9843Y-5.5512
X5.9843Y-5.9843
X5.9843Y-6.0433
X6.0236Y-3.0709
X6.0236Y-3.1102
X6.0236Y-3.1496
X6.0236Y-3.6614
X6.0236Y-3.7008
X6.0236Y-3.7402
X6.0236Y-4.2913
X6.0236Y-4.3307
X6.0236Y-4.3701
X6.0236Y-4.8425
X6.0236Y-4.8819
X6.0236Y-4.9213
X6.0236Y-5.4724
X6.0236Y-5.5118
X6.0236Y-5.5512
T2
X4.6781Y-3.95
X4.6781Y-4.05
X4.6781Y-4.15
X4.6781Y-4.25
X4.6781Y-4.35
X4.6781Y-4.45
X4.6781Y-4.55
X4.6781Y-4.65
X4.6781Y-4.75
X4.6781Y-4.85
X4.6781Y-4.95
X4.6781Y-5.05
X4.6781Y-5.15
X4.6781Y-5.25
X4.6781Y-5.35
X5.2781Y-3.95
X5.2781Y-4.05
X5.2781Y-4.15
X5.2781Y-4.25
X5.2781Y-4.35
X5.2781Y-4.45
X5.2781Y-4.55
X5.2781Y-4.65
X5.2781Y-4.75
X5.2781Y-4.85
X5.2781Y-4.95
X5.2781Y-5.05
X5.2781Y-5.15
X5.2781Y-5.25
X5.2781Y-5.35
T3
X5.1331Y-2.6181
X5.2331Y-2.6181
X5.3331Y-2.6181
X5.4331Y-2.6181
X6.0236Y-3.3252
X6.0236Y-3.4252
X4.4094Y-3.1496
X4.4094Y-3.2496
X6.0236Y-5.0969
X6.0236Y-5.1969
X5.9449Y-2.8134
X5.9449Y-2.9134
X4.685Y-5.8811
X4.685Y-5.9811
X4.685Y-6.0811
X4.685Y-6.1811
X4.9606Y-6.063
X5.0606Y-6.063
X5.1606Y-6.063
X5.2606Y-6.063
X6.0236Y-3.9157
X6.0236Y-4.0157
X4.4094Y-3.8583
X4.4094Y-3.9583
X4.4094Y-4.0583
X4.4094Y-3.4646
X4.4094Y-3.5646
X4.4094Y-3.6646
X4.4094Y-4.6457
X4.4094Y-4.7457
X4.4094Y-4.8457
X4.4094Y-2.5197
X4.4094Y-2.6197
X4.4094Y-5.4331
X4.4094Y-5.5331
X4.4094Y-5.6331
X4.4094Y-4.252
X4.4094Y-4.352
X4.4094Y-4.452
X4.4094Y-5.0394
X4.4094Y-5.1394
X4.4094Y-5.2394
X4.4094Y-2.8346
X4.4094Y-2.9346
X6.0236Y-4.5063
X6.0236Y-4.6063
X6.0236Y-5.7268
X6.0236Y-5.8268
T4
X4.4094Y-6.1024
X5.9843Y-2.5591
T0
M30
