G04 #@! TF.GenerationSoftware,KiCad,Pcbnew,(5.0.2)-1*
G04 #@! TF.CreationDate,2019-03-14T17:16:41+01:00*
G04 #@! TF.ProjectId,ventirad,76656e74-6972-4616-942e-6b696361645f,rev?*
G04 #@! TF.SameCoordinates,Original*
G04 #@! TF.FileFunction,Legend,Bot*
G04 #@! TF.FilePolarity,Positive*
%FSLAX46Y46*%
G04 Gerber Fmt 4.6, Leading zero omitted, Abs format (unit mm)*
G04 Created by KiCad (PCBNEW (5.0.2)-1) date 14/03/2019 17:16:41*
%MOMM*%
%LPD*%
G01*
G04 APERTURE LIST*
%ADD10C,0.150000*%
%ADD11C,0.300000*%
%ADD12C,0.400000*%
%ADD13C,0.381000*%
%ADD14C,0.100000*%
%ADD15C,0.304800*%
G04 APERTURE END LIST*
D10*
X107000000Y-60000000D02*
X157000000Y-60000000D01*
X154214285Y-137452380D02*
X154214285Y-136452380D01*
X153976190Y-136452380D01*
X153833333Y-136500000D01*
X153738095Y-136595238D01*
X153690476Y-136690476D01*
X153642857Y-136880952D01*
X153642857Y-137023809D01*
X153690476Y-137214285D01*
X153738095Y-137309523D01*
X153833333Y-137404761D01*
X153976190Y-137452380D01*
X154214285Y-137452380D01*
X152690476Y-137452380D02*
X153261904Y-137452380D01*
X152976190Y-137452380D02*
X152976190Y-136452380D01*
X153071428Y-136595238D01*
X153166666Y-136690476D01*
X153261904Y-136738095D01*
X152071428Y-136452380D02*
X151976190Y-136452380D01*
X151880952Y-136500000D01*
X151833333Y-136547619D01*
X151785714Y-136642857D01*
X151738095Y-136833333D01*
X151738095Y-137071428D01*
X151785714Y-137261904D01*
X151833333Y-137357142D01*
X151880952Y-137404761D01*
X151976190Y-137452380D01*
X152071428Y-137452380D01*
X152166666Y-137404761D01*
X152214285Y-137357142D01*
X152261904Y-137261904D01*
X152309523Y-137071428D01*
X152309523Y-136833333D01*
X152261904Y-136642857D01*
X152214285Y-136547619D01*
X152166666Y-136500000D01*
X152071428Y-136452380D01*
X153738095Y-122452380D02*
X153738095Y-121452380D01*
X153500000Y-121452380D01*
X153357142Y-121500000D01*
X153261904Y-121595238D01*
X153214285Y-121690476D01*
X153166666Y-121880952D01*
X153166666Y-122023809D01*
X153214285Y-122214285D01*
X153261904Y-122309523D01*
X153357142Y-122404761D01*
X153500000Y-122452380D01*
X153738095Y-122452380D01*
X152690476Y-122452380D02*
X152500000Y-122452380D01*
X152404761Y-122404761D01*
X152357142Y-122357142D01*
X152261904Y-122214285D01*
X152214285Y-122023809D01*
X152214285Y-121642857D01*
X152261904Y-121547619D01*
X152309523Y-121500000D01*
X152404761Y-121452380D01*
X152595238Y-121452380D01*
X152690476Y-121500000D01*
X152738095Y-121547619D01*
X152785714Y-121642857D01*
X152785714Y-121880952D01*
X152738095Y-121976190D01*
X152690476Y-122023809D01*
X152595238Y-122071428D01*
X152404761Y-122071428D01*
X152309523Y-122023809D01*
X152261904Y-121976190D01*
X152214285Y-121880952D01*
X153738095Y-107452380D02*
X153738095Y-106452380D01*
X153500000Y-106452380D01*
X153357142Y-106500000D01*
X153261904Y-106595238D01*
X153214285Y-106690476D01*
X153166666Y-106880952D01*
X153166666Y-107023809D01*
X153214285Y-107214285D01*
X153261904Y-107309523D01*
X153357142Y-107404761D01*
X153500000Y-107452380D01*
X153738095Y-107452380D01*
X152309523Y-106452380D02*
X152500000Y-106452380D01*
X152595238Y-106500000D01*
X152642857Y-106547619D01*
X152738095Y-106690476D01*
X152785714Y-106880952D01*
X152785714Y-107261904D01*
X152738095Y-107357142D01*
X152690476Y-107404761D01*
X152595238Y-107452380D01*
X152404761Y-107452380D01*
X152309523Y-107404761D01*
X152261904Y-107357142D01*
X152214285Y-107261904D01*
X152214285Y-107023809D01*
X152261904Y-106928571D01*
X152309523Y-106880952D01*
X152404761Y-106833333D01*
X152595238Y-106833333D01*
X152690476Y-106880952D01*
X152738095Y-106928571D01*
X152785714Y-107023809D01*
X153738095Y-91952380D02*
X153738095Y-90952380D01*
X153500000Y-90952380D01*
X153357142Y-91000000D01*
X153261904Y-91095238D01*
X153214285Y-91190476D01*
X153166666Y-91380952D01*
X153166666Y-91523809D01*
X153214285Y-91714285D01*
X153261904Y-91809523D01*
X153357142Y-91904761D01*
X153500000Y-91952380D01*
X153738095Y-91952380D01*
X152261904Y-90952380D02*
X152738095Y-90952380D01*
X152785714Y-91428571D01*
X152738095Y-91380952D01*
X152642857Y-91333333D01*
X152404761Y-91333333D01*
X152309523Y-91380952D01*
X152261904Y-91428571D01*
X152214285Y-91523809D01*
X152214285Y-91761904D01*
X152261904Y-91857142D01*
X152309523Y-91904761D01*
X152404761Y-91952380D01*
X152642857Y-91952380D01*
X152738095Y-91904761D01*
X152785714Y-91857142D01*
X153738095Y-76452380D02*
X153738095Y-75452380D01*
X153500000Y-75452380D01*
X153357142Y-75500000D01*
X153261904Y-75595238D01*
X153214285Y-75690476D01*
X153166666Y-75880952D01*
X153166666Y-76023809D01*
X153214285Y-76214285D01*
X153261904Y-76309523D01*
X153357142Y-76404761D01*
X153500000Y-76452380D01*
X153738095Y-76452380D01*
X152833333Y-75452380D02*
X152214285Y-75452380D01*
X152547619Y-75833333D01*
X152404761Y-75833333D01*
X152309523Y-75880952D01*
X152261904Y-75928571D01*
X152214285Y-76023809D01*
X152214285Y-76261904D01*
X152261904Y-76357142D01*
X152309523Y-76404761D01*
X152404761Y-76452380D01*
X152690476Y-76452380D01*
X152785714Y-76404761D01*
X152833333Y-76357142D01*
X154214285Y-152952380D02*
X154214285Y-151952380D01*
X153976190Y-151952380D01*
X153833333Y-152000000D01*
X153738095Y-152095238D01*
X153690476Y-152190476D01*
X153642857Y-152380952D01*
X153642857Y-152523809D01*
X153690476Y-152714285D01*
X153738095Y-152809523D01*
X153833333Y-152904761D01*
X153976190Y-152952380D01*
X154214285Y-152952380D01*
X152690476Y-152952380D02*
X153261904Y-152952380D01*
X152976190Y-152952380D02*
X152976190Y-151952380D01*
X153071428Y-152095238D01*
X153166666Y-152190476D01*
X153261904Y-152238095D01*
X151738095Y-152952380D02*
X152309523Y-152952380D01*
X152023809Y-152952380D02*
X152023809Y-151952380D01*
X152119047Y-152095238D01*
X152214285Y-152190476D01*
X152309523Y-152238095D01*
X133627380Y-70285714D02*
X132627380Y-70285714D01*
X132627380Y-70523809D01*
X132675000Y-70666666D01*
X132770238Y-70761904D01*
X132865476Y-70809523D01*
X133055952Y-70857142D01*
X133198809Y-70857142D01*
X133389285Y-70809523D01*
X133484523Y-70761904D01*
X133579761Y-70666666D01*
X133627380Y-70523809D01*
X133627380Y-70285714D01*
X133627380Y-71809523D02*
X133627380Y-71238095D01*
X133627380Y-71523809D02*
X132627380Y-71523809D01*
X132770238Y-71428571D01*
X132865476Y-71333333D01*
X132913095Y-71238095D01*
X132627380Y-72142857D02*
X132627380Y-72809523D01*
X133627380Y-72380952D01*
X136452380Y-70285714D02*
X135452380Y-70285714D01*
X135452380Y-70523809D01*
X135500000Y-70666666D01*
X135595238Y-70761904D01*
X135690476Y-70809523D01*
X135880952Y-70857142D01*
X136023809Y-70857142D01*
X136214285Y-70809523D01*
X136309523Y-70761904D01*
X136404761Y-70666666D01*
X136452380Y-70523809D01*
X136452380Y-70285714D01*
X136452380Y-71809523D02*
X136452380Y-71238095D01*
X136452380Y-71523809D02*
X135452380Y-71523809D01*
X135595238Y-71428571D01*
X135690476Y-71333333D01*
X135738095Y-71238095D01*
X135452380Y-72666666D02*
X135452380Y-72476190D01*
X135500000Y-72380952D01*
X135547619Y-72333333D01*
X135690476Y-72238095D01*
X135880952Y-72190476D01*
X136261904Y-72190476D01*
X136357142Y-72238095D01*
X136404761Y-72285714D01*
X136452380Y-72380952D01*
X136452380Y-72571428D01*
X136404761Y-72666666D01*
X136357142Y-72714285D01*
X136261904Y-72761904D01*
X136023809Y-72761904D01*
X135928571Y-72714285D01*
X135880952Y-72666666D01*
X135833333Y-72571428D01*
X135833333Y-72380952D01*
X135880952Y-72285714D01*
X135928571Y-72238095D01*
X136023809Y-72190476D01*
X128952380Y-148761904D02*
X127952380Y-148761904D01*
X127952380Y-149000000D01*
X128000000Y-149142857D01*
X128095238Y-149238095D01*
X128190476Y-149285714D01*
X128380952Y-149333333D01*
X128523809Y-149333333D01*
X128714285Y-149285714D01*
X128809523Y-149238095D01*
X128904761Y-149142857D01*
X128952380Y-149000000D01*
X128952380Y-148761904D01*
X128285714Y-150190476D02*
X128952380Y-150190476D01*
X127904761Y-149952380D02*
X128619047Y-149714285D01*
X128619047Y-150333333D01*
X131452380Y-148761904D02*
X130452380Y-148761904D01*
X130452380Y-149000000D01*
X130500000Y-149142857D01*
X130595238Y-149238095D01*
X130690476Y-149285714D01*
X130880952Y-149333333D01*
X131023809Y-149333333D01*
X131214285Y-149285714D01*
X131309523Y-149238095D01*
X131404761Y-149142857D01*
X131452380Y-149000000D01*
X131452380Y-148761904D01*
X130452380Y-149666666D02*
X130452380Y-150333333D01*
X131452380Y-149904761D01*
X134452380Y-148761904D02*
X133452380Y-148761904D01*
X133452380Y-149000000D01*
X133500000Y-149142857D01*
X133595238Y-149238095D01*
X133690476Y-149285714D01*
X133880952Y-149333333D01*
X134023809Y-149333333D01*
X134214285Y-149285714D01*
X134309523Y-149238095D01*
X134404761Y-149142857D01*
X134452380Y-149000000D01*
X134452380Y-148761904D01*
X133880952Y-149904761D02*
X133833333Y-149809523D01*
X133785714Y-149761904D01*
X133690476Y-149714285D01*
X133642857Y-149714285D01*
X133547619Y-149761904D01*
X133500000Y-149809523D01*
X133452380Y-149904761D01*
X133452380Y-150095238D01*
X133500000Y-150190476D01*
X133547619Y-150238095D01*
X133642857Y-150285714D01*
X133690476Y-150285714D01*
X133785714Y-150238095D01*
X133833333Y-150190476D01*
X133880952Y-150095238D01*
X133880952Y-149904761D01*
X133928571Y-149809523D01*
X133976190Y-149761904D01*
X134071428Y-149714285D01*
X134261904Y-149714285D01*
X134357142Y-149761904D01*
X134404761Y-149809523D01*
X134452380Y-149904761D01*
X134452380Y-150095238D01*
X134404761Y-150190476D01*
X134357142Y-150238095D01*
X134261904Y-150285714D01*
X134071428Y-150285714D01*
X133976190Y-150238095D01*
X133928571Y-150190476D01*
X133880952Y-150095238D01*
X130802380Y-70285714D02*
X129802380Y-70285714D01*
X129802380Y-70523809D01*
X129850000Y-70666666D01*
X129945238Y-70761904D01*
X130040476Y-70809523D01*
X130230952Y-70857142D01*
X130373809Y-70857142D01*
X130564285Y-70809523D01*
X130659523Y-70761904D01*
X130754761Y-70666666D01*
X130802380Y-70523809D01*
X130802380Y-70285714D01*
X129897619Y-71238095D02*
X129850000Y-71285714D01*
X129802380Y-71380952D01*
X129802380Y-71619047D01*
X129850000Y-71714285D01*
X129897619Y-71761904D01*
X129992857Y-71809523D01*
X130088095Y-71809523D01*
X130230952Y-71761904D01*
X130802380Y-71190476D01*
X130802380Y-71809523D01*
X129802380Y-72428571D02*
X129802380Y-72523809D01*
X129850000Y-72619047D01*
X129897619Y-72666666D01*
X129992857Y-72714285D01*
X130183333Y-72761904D01*
X130421428Y-72761904D01*
X130611904Y-72714285D01*
X130707142Y-72666666D01*
X130754761Y-72619047D01*
X130802380Y-72523809D01*
X130802380Y-72428571D01*
X130754761Y-72333333D01*
X130707142Y-72285714D01*
X130611904Y-72238095D01*
X130421428Y-72190476D01*
X130183333Y-72190476D01*
X129992857Y-72238095D01*
X129897619Y-72285714D01*
X129850000Y-72333333D01*
X129802380Y-72428571D01*
D11*
X141250000Y-64857142D02*
X141178571Y-64714285D01*
X141178571Y-64500000D01*
X141250000Y-64285714D01*
X141392857Y-64142857D01*
X141535714Y-64071428D01*
X141821428Y-64000000D01*
X142035714Y-64000000D01*
X142321428Y-64071428D01*
X142464285Y-64142857D01*
X142607142Y-64285714D01*
X142678571Y-64500000D01*
X142678571Y-64642857D01*
X142607142Y-64857142D01*
X142535714Y-64928571D01*
X142035714Y-64928571D01*
X142035714Y-64642857D01*
X142678571Y-65571428D02*
X141178571Y-65571428D01*
X142678571Y-66428571D01*
X141178571Y-66428571D01*
X142678571Y-67142857D02*
X141178571Y-67142857D01*
X141178571Y-67500000D01*
X141250000Y-67714285D01*
X141392857Y-67857142D01*
X141535714Y-67928571D01*
X141821428Y-68000000D01*
X142035714Y-68000000D01*
X142321428Y-67928571D01*
X142464285Y-67857142D01*
X142607142Y-67714285D01*
X142678571Y-67500000D01*
X142678571Y-67142857D01*
X125250000Y-146857142D02*
X125178571Y-146714285D01*
X125178571Y-146500000D01*
X125250000Y-146285714D01*
X125392857Y-146142857D01*
X125535714Y-146071428D01*
X125821428Y-146000000D01*
X126035714Y-146000000D01*
X126321428Y-146071428D01*
X126464285Y-146142857D01*
X126607142Y-146285714D01*
X126678571Y-146500000D01*
X126678571Y-146642857D01*
X126607142Y-146857142D01*
X126535714Y-146928571D01*
X126035714Y-146928571D01*
X126035714Y-146642857D01*
X126678571Y-147571428D02*
X125178571Y-147571428D01*
X126678571Y-148428571D01*
X125178571Y-148428571D01*
X126678571Y-149142857D02*
X125178571Y-149142857D01*
X125178571Y-149500000D01*
X125250000Y-149714285D01*
X125392857Y-149857142D01*
X125535714Y-149928571D01*
X125821428Y-150000000D01*
X126035714Y-150000000D01*
X126321428Y-149928571D01*
X126464285Y-149857142D01*
X126607142Y-149714285D01*
X126678571Y-149500000D01*
X126678571Y-149142857D01*
X115428571Y-127607142D02*
X116571428Y-127607142D01*
X115428571Y-103607142D02*
X116571428Y-103607142D01*
X116000000Y-104178571D02*
X116000000Y-103035714D01*
X115928571Y-98107142D02*
X117071428Y-98107142D01*
X115428571Y-107607142D02*
X116571428Y-107607142D01*
X115428571Y-137607142D02*
X116571428Y-137607142D01*
X115428571Y-117607142D02*
X116571428Y-117607142D01*
X114428571Y-157107142D02*
X115571428Y-157107142D01*
X113928571Y-148607142D02*
X115071428Y-148607142D01*
X114500000Y-149178571D02*
X114500000Y-148035714D01*
X115428571Y-143107142D02*
X116571428Y-143107142D01*
X116000000Y-143678571D02*
X116000000Y-142535714D01*
X115428571Y-133107142D02*
X116571428Y-133107142D01*
X116000000Y-133678571D02*
X116000000Y-132535714D01*
X115428571Y-113607142D02*
X116571428Y-113607142D01*
X116000000Y-114178571D02*
X116000000Y-113035714D01*
X115428571Y-123607142D02*
X116571428Y-123607142D01*
X116000000Y-124178571D02*
X116000000Y-123035714D01*
X115928571Y-93607142D02*
X117071428Y-93607142D01*
X116500000Y-94178571D02*
X116500000Y-93035714D01*
X115928571Y-88107142D02*
X117071428Y-88107142D01*
X118642857Y-74250000D02*
X118785714Y-74178571D01*
X119000000Y-74178571D01*
X119214285Y-74250000D01*
X119357142Y-74392857D01*
X119428571Y-74535714D01*
X119500000Y-74821428D01*
X119500000Y-75035714D01*
X119428571Y-75321428D01*
X119357142Y-75464285D01*
X119214285Y-75607142D01*
X119000000Y-75678571D01*
X118857142Y-75678571D01*
X118642857Y-75607142D01*
X118571428Y-75535714D01*
X118571428Y-75035714D01*
X118857142Y-75035714D01*
X117928571Y-75678571D02*
X117928571Y-74178571D01*
X117071428Y-75678571D01*
X117071428Y-74178571D01*
X116357142Y-75678571D02*
X116357142Y-74178571D01*
X116000000Y-74178571D01*
X115785714Y-74250000D01*
X115642857Y-74392857D01*
X115571428Y-74535714D01*
X115500000Y-74821428D01*
X115500000Y-75035714D01*
X115571428Y-75321428D01*
X115642857Y-75464285D01*
X115785714Y-75607142D01*
X116000000Y-75678571D01*
X116357142Y-75678571D01*
X121142857Y-71107142D02*
X120000000Y-71107142D01*
X120571428Y-71678571D02*
X120571428Y-70535714D01*
X119357142Y-70321428D02*
X119285714Y-70250000D01*
X119142857Y-70178571D01*
X118785714Y-70178571D01*
X118642857Y-70250000D01*
X118571428Y-70321428D01*
X118500000Y-70464285D01*
X118500000Y-70607142D01*
X118571428Y-70821428D01*
X119428571Y-71678571D01*
X118500000Y-71678571D01*
X117214285Y-70678571D02*
X117214285Y-71678571D01*
X117571428Y-70107142D02*
X117928571Y-71178571D01*
X117000000Y-71178571D01*
X116642857Y-70178571D02*
X116142857Y-71678571D01*
X115642857Y-70178571D01*
X118642857Y-82250000D02*
X118785714Y-82178571D01*
X119000000Y-82178571D01*
X119214285Y-82250000D01*
X119357142Y-82392857D01*
X119428571Y-82535714D01*
X119500000Y-82821428D01*
X119500000Y-83035714D01*
X119428571Y-83321428D01*
X119357142Y-83464285D01*
X119214285Y-83607142D01*
X119000000Y-83678571D01*
X118857142Y-83678571D01*
X118642857Y-83607142D01*
X118571428Y-83535714D01*
X118571428Y-83035714D01*
X118857142Y-83035714D01*
X117928571Y-83678571D02*
X117928571Y-82178571D01*
X117071428Y-83678571D01*
X117071428Y-82178571D01*
X116357142Y-83678571D02*
X116357142Y-82178571D01*
X116000000Y-82178571D01*
X115785714Y-82250000D01*
X115642857Y-82392857D01*
X115571428Y-82535714D01*
X115500000Y-82821428D01*
X115500000Y-83035714D01*
X115571428Y-83321428D01*
X115642857Y-83464285D01*
X115785714Y-83607142D01*
X116000000Y-83678571D01*
X116357142Y-83678571D01*
X121142857Y-79607142D02*
X120000000Y-79607142D01*
X120571428Y-80178571D02*
X120571428Y-79035714D01*
X118500000Y-80178571D02*
X119357142Y-80178571D01*
X118928571Y-80178571D02*
X118928571Y-78678571D01*
X119071428Y-78892857D01*
X119214285Y-79035714D01*
X119357142Y-79107142D01*
X117928571Y-78821428D02*
X117857142Y-78750000D01*
X117714285Y-78678571D01*
X117357142Y-78678571D01*
X117214285Y-78750000D01*
X117142857Y-78821428D01*
X117071428Y-78964285D01*
X117071428Y-79107142D01*
X117142857Y-79321428D01*
X118000000Y-80178571D01*
X117071428Y-80178571D01*
X116642857Y-78678571D02*
X116142857Y-80178571D01*
X115642857Y-78678571D01*
D12*
X148261904Y-82142857D02*
X149785714Y-82142857D01*
X149023809Y-82904761D02*
X149023809Y-81380952D01*
X150738095Y-82142857D02*
X152261904Y-82142857D01*
X151500000Y-82904761D02*
X151500000Y-81380952D01*
X153214285Y-82142857D02*
X154738095Y-82142857D01*
X153976190Y-82904761D02*
X153976190Y-81380952D01*
X148261904Y-97142857D02*
X149785714Y-97142857D01*
X149023809Y-97904761D02*
X149023809Y-96380952D01*
X150738095Y-97142857D02*
X152261904Y-97142857D01*
X151500000Y-97904761D02*
X151500000Y-96380952D01*
X153214285Y-97142857D02*
X154738095Y-97142857D01*
X153976190Y-97904761D02*
X153976190Y-96380952D01*
X148261904Y-112142857D02*
X149785714Y-112142857D01*
X149023809Y-112904761D02*
X149023809Y-111380952D01*
X150738095Y-112142857D02*
X152261904Y-112142857D01*
X151500000Y-112904761D02*
X151500000Y-111380952D01*
X153214285Y-112142857D02*
X154738095Y-112142857D01*
X153976190Y-112904761D02*
X153976190Y-111380952D01*
X148261904Y-127142857D02*
X149785714Y-127142857D01*
X149023809Y-127904761D02*
X149023809Y-126380952D01*
X150738095Y-127142857D02*
X152261904Y-127142857D01*
X151500000Y-127904761D02*
X151500000Y-126380952D01*
X153214285Y-127142857D02*
X154738095Y-127142857D01*
X153976190Y-127904761D02*
X153976190Y-126380952D01*
X148261904Y-143142857D02*
X149785714Y-143142857D01*
X149023809Y-143904761D02*
X149023809Y-142380952D01*
X150738095Y-143142857D02*
X152261904Y-143142857D01*
X151500000Y-143904761D02*
X151500000Y-142380952D01*
X153214285Y-143142857D02*
X154738095Y-143142857D01*
X153976190Y-143904761D02*
X153976190Y-142380952D01*
X146761904Y-69142857D02*
X148285714Y-69142857D01*
X147523809Y-69904761D02*
X147523809Y-68380952D01*
X149238095Y-69142857D02*
X150761904Y-69142857D01*
X150000000Y-69904761D02*
X150000000Y-68380952D01*
X151714285Y-69142857D02*
X153238095Y-69142857D01*
X152476190Y-69904761D02*
X152476190Y-68380952D01*
D10*
X107000000Y-160000000D02*
X107000000Y-60000000D01*
X157000000Y-160000000D02*
X107000000Y-160000000D01*
X157000000Y-60000000D02*
X157000000Y-160000000D01*
D13*
G04 #@! TO.C,U2*
X132795000Y-139700000D02*
X132795000Y-96520000D01*
X132795000Y-96520000D02*
X120095000Y-96520000D01*
X120095000Y-96520000D02*
X120095000Y-139700000D01*
X120095000Y-139700000D02*
X132795000Y-139700000D01*
X125175000Y-139700000D02*
X125175000Y-138430000D01*
X125175000Y-138430000D02*
X127715000Y-138430000D01*
X127715000Y-138430000D02*
X127715000Y-139700000D01*
D10*
G04 #@! TO.C,*
X108980000Y-62630000D02*
X114980000Y-62630000D01*
X114980000Y-62630000D02*
X114980000Y-67910000D01*
X114980000Y-67910000D02*
X108980000Y-67910000D01*
X108980000Y-67910000D02*
X108980000Y-62630000D01*
X114980000Y-64000000D02*
X113980000Y-64000000D01*
X113980000Y-64000000D02*
X113980000Y-66540000D01*
X113980000Y-66540000D02*
X114980000Y-66540000D01*
X113980000Y-64000000D02*
X113550000Y-64250000D01*
X113550000Y-64250000D02*
X113550000Y-66290000D01*
X113550000Y-66290000D02*
X113980000Y-66540000D01*
X114980000Y-64250000D02*
X113980000Y-64250000D01*
X114980000Y-66290000D02*
X113980000Y-66290000D01*
X108980000Y-63200000D02*
X109600000Y-63200000D01*
X109600000Y-63200000D02*
X109600000Y-64800000D01*
X109600000Y-64800000D02*
X108980000Y-64800000D01*
X108980000Y-65740000D02*
X109600000Y-65740000D01*
X109600000Y-65740000D02*
X109600000Y-67340000D01*
X109600000Y-67340000D02*
X108980000Y-67340000D01*
G04 #@! TO.C,D2*
X145110000Y-145415000D02*
X144560000Y-144965000D01*
X144560000Y-144965000D02*
X144560000Y-145865000D01*
X144560000Y-145865000D02*
X145110000Y-145415000D01*
X145110000Y-144865000D02*
X145110000Y-145965000D01*
X146659140Y-147165060D02*
X146659140Y-146814540D01*
X146659140Y-143664940D02*
X146659140Y-144015460D01*
X142609560Y-147165060D02*
X142609560Y-146814540D01*
X147110440Y-147165060D02*
X147110440Y-146814540D01*
X147110440Y-143664940D02*
X147110440Y-144015460D01*
X142609560Y-143664940D02*
X142609560Y-144015460D01*
X147110440Y-147165060D02*
X142609560Y-147165060D01*
X147110440Y-143664940D02*
X142609560Y-143664940D01*
G04 #@! TO.C,D3*
X145110000Y-129540000D02*
X144560000Y-129090000D01*
X144560000Y-129090000D02*
X144560000Y-129990000D01*
X144560000Y-129990000D02*
X145110000Y-129540000D01*
X145110000Y-128990000D02*
X145110000Y-130090000D01*
X146659140Y-131290060D02*
X146659140Y-130939540D01*
X146659140Y-127789940D02*
X146659140Y-128140460D01*
X142609560Y-131290060D02*
X142609560Y-130939540D01*
X147110440Y-131290060D02*
X147110440Y-130939540D01*
X147110440Y-127789940D02*
X147110440Y-128140460D01*
X142609560Y-127789940D02*
X142609560Y-128140460D01*
X147110440Y-131290060D02*
X142609560Y-131290060D01*
X147110440Y-127789940D02*
X142609560Y-127789940D01*
G04 #@! TO.C,D4*
X145110000Y-114300000D02*
X144560000Y-113850000D01*
X144560000Y-113850000D02*
X144560000Y-114750000D01*
X144560000Y-114750000D02*
X145110000Y-114300000D01*
X145110000Y-113750000D02*
X145110000Y-114850000D01*
X146659140Y-116050060D02*
X146659140Y-115699540D01*
X146659140Y-112549940D02*
X146659140Y-112900460D01*
X142609560Y-116050060D02*
X142609560Y-115699540D01*
X147110440Y-116050060D02*
X147110440Y-115699540D01*
X147110440Y-112549940D02*
X147110440Y-112900460D01*
X142609560Y-112549940D02*
X142609560Y-112900460D01*
X147110440Y-116050060D02*
X142609560Y-116050060D01*
X147110440Y-112549940D02*
X142609560Y-112549940D01*
G04 #@! TO.C,D5*
X145110000Y-99060000D02*
X144560000Y-98610000D01*
X144560000Y-98610000D02*
X144560000Y-99510000D01*
X144560000Y-99510000D02*
X145110000Y-99060000D01*
X145110000Y-98510000D02*
X145110000Y-99610000D01*
X146659140Y-100810060D02*
X146659140Y-100459540D01*
X146659140Y-97309940D02*
X146659140Y-97660460D01*
X142609560Y-100810060D02*
X142609560Y-100459540D01*
X147110440Y-100810060D02*
X147110440Y-100459540D01*
X147110440Y-97309940D02*
X147110440Y-97660460D01*
X142609560Y-97309940D02*
X142609560Y-97660460D01*
X147110440Y-100810060D02*
X142609560Y-100810060D01*
X147110440Y-97309940D02*
X142609560Y-97309940D01*
G04 #@! TO.C,D6*
X145250000Y-84000000D02*
X144700000Y-83550000D01*
X144700000Y-83550000D02*
X144700000Y-84450000D01*
X144700000Y-84450000D02*
X145250000Y-84000000D01*
X145250000Y-83450000D02*
X145250000Y-84550000D01*
X146799140Y-85750060D02*
X146799140Y-85399540D01*
X146799140Y-82249940D02*
X146799140Y-82600460D01*
X142749560Y-85750060D02*
X142749560Y-85399540D01*
X147250440Y-85750060D02*
X147250440Y-85399540D01*
X147250440Y-82249940D02*
X147250440Y-82600460D01*
X142749560Y-82249940D02*
X142749560Y-82600460D01*
X147250440Y-85750060D02*
X142749560Y-85750060D01*
X147250440Y-82249940D02*
X142749560Y-82249940D01*
G04 #@! TO.C,D7*
X141250000Y-77000000D02*
X140700000Y-76550000D01*
X140700000Y-76550000D02*
X140700000Y-77450000D01*
X140700000Y-77450000D02*
X141250000Y-77000000D01*
X141250000Y-76450000D02*
X141250000Y-77550000D01*
X142799140Y-78750060D02*
X142799140Y-78399540D01*
X142799140Y-75249940D02*
X142799140Y-75600460D01*
X138749560Y-78750060D02*
X138749560Y-78399540D01*
X143250440Y-78750060D02*
X143250440Y-78399540D01*
X143250440Y-75249940D02*
X143250440Y-75600460D01*
X138749560Y-75249940D02*
X138749560Y-75600460D01*
X143250440Y-78750060D02*
X138749560Y-78750060D01*
X143250440Y-75249940D02*
X138749560Y-75249940D01*
D14*
G04 #@! TO.C,C2*
X123000000Y-66000000D02*
X123000000Y-66000000D01*
X123000000Y-67000000D02*
X123000000Y-65000000D01*
X123000000Y-65000000D02*
X123000000Y-67000000D01*
X123000000Y-67000000D02*
X123000000Y-65000000D01*
X123000000Y-65000000D02*
X123000000Y-67000000D01*
X124000000Y-63000000D02*
X124000000Y-69000000D01*
X124000000Y-69000000D02*
X119000000Y-69000000D01*
X119000000Y-69000000D02*
X118000000Y-68000000D01*
X118000000Y-68000000D02*
X118000000Y-64000000D01*
X118000000Y-64000000D02*
X119000000Y-63000000D01*
X119000000Y-63000000D02*
X124000000Y-63000000D01*
X119000000Y-66000000D02*
X120000000Y-66000000D01*
X120000000Y-66000000D02*
X120000000Y-66000000D01*
X124000000Y-66000000D02*
G75*
G03X124000000Y-66000000I-3000000J0D01*
G01*
G04 #@! TO.C,C5*
X142860000Y-151130000D02*
X142860000Y-151130000D01*
X142860000Y-150130000D02*
X142860000Y-152130000D01*
X142860000Y-152130000D02*
X142860000Y-150130000D01*
X142860000Y-150130000D02*
X142860000Y-152130000D01*
X142860000Y-152130000D02*
X142860000Y-150130000D01*
X141860000Y-154130000D02*
X141860000Y-148130000D01*
X141860000Y-148130000D02*
X146860000Y-148130000D01*
X146860000Y-148130000D02*
X147860000Y-149130000D01*
X147860000Y-149130000D02*
X147860000Y-153130000D01*
X147860000Y-153130000D02*
X146860000Y-154130000D01*
X146860000Y-154130000D02*
X141860000Y-154130000D01*
X146860000Y-151130000D02*
X145860000Y-151130000D01*
X145860000Y-151130000D02*
X145860000Y-151130000D01*
X147860000Y-151130000D02*
G75*
G03X147860000Y-151130000I-3000000J0D01*
G01*
G04 #@! TO.C,C6*
X142860000Y-135255000D02*
X142860000Y-135255000D01*
X142860000Y-134255000D02*
X142860000Y-136255000D01*
X142860000Y-136255000D02*
X142860000Y-134255000D01*
X142860000Y-134255000D02*
X142860000Y-136255000D01*
X142860000Y-136255000D02*
X142860000Y-134255000D01*
X141860000Y-138255000D02*
X141860000Y-132255000D01*
X141860000Y-132255000D02*
X146860000Y-132255000D01*
X146860000Y-132255000D02*
X147860000Y-133255000D01*
X147860000Y-133255000D02*
X147860000Y-137255000D01*
X147860000Y-137255000D02*
X146860000Y-138255000D01*
X146860000Y-138255000D02*
X141860000Y-138255000D01*
X146860000Y-135255000D02*
X145860000Y-135255000D01*
X145860000Y-135255000D02*
X145860000Y-135255000D01*
X147860000Y-135255000D02*
G75*
G03X147860000Y-135255000I-3000000J0D01*
G01*
G04 #@! TO.C,C7*
X142860000Y-120015000D02*
X142860000Y-120015000D01*
X142860000Y-119015000D02*
X142860000Y-121015000D01*
X142860000Y-121015000D02*
X142860000Y-119015000D01*
X142860000Y-119015000D02*
X142860000Y-121015000D01*
X142860000Y-121015000D02*
X142860000Y-119015000D01*
X141860000Y-123015000D02*
X141860000Y-117015000D01*
X141860000Y-117015000D02*
X146860000Y-117015000D01*
X146860000Y-117015000D02*
X147860000Y-118015000D01*
X147860000Y-118015000D02*
X147860000Y-122015000D01*
X147860000Y-122015000D02*
X146860000Y-123015000D01*
X146860000Y-123015000D02*
X141860000Y-123015000D01*
X146860000Y-120015000D02*
X145860000Y-120015000D01*
X145860000Y-120015000D02*
X145860000Y-120015000D01*
X147860000Y-120015000D02*
G75*
G03X147860000Y-120015000I-3000000J0D01*
G01*
G04 #@! TO.C,C8*
X142860000Y-104775000D02*
X142860000Y-104775000D01*
X142860000Y-103775000D02*
X142860000Y-105775000D01*
X142860000Y-105775000D02*
X142860000Y-103775000D01*
X142860000Y-103775000D02*
X142860000Y-105775000D01*
X142860000Y-105775000D02*
X142860000Y-103775000D01*
X141860000Y-107775000D02*
X141860000Y-101775000D01*
X141860000Y-101775000D02*
X146860000Y-101775000D01*
X146860000Y-101775000D02*
X147860000Y-102775000D01*
X147860000Y-102775000D02*
X147860000Y-106775000D01*
X147860000Y-106775000D02*
X146860000Y-107775000D01*
X146860000Y-107775000D02*
X141860000Y-107775000D01*
X146860000Y-104775000D02*
X145860000Y-104775000D01*
X145860000Y-104775000D02*
X145860000Y-104775000D01*
X147860000Y-104775000D02*
G75*
G03X147860000Y-104775000I-3000000J0D01*
G01*
G04 #@! TO.C,C9*
X143000000Y-89000000D02*
X143000000Y-89000000D01*
X143000000Y-88000000D02*
X143000000Y-90000000D01*
X143000000Y-90000000D02*
X143000000Y-88000000D01*
X143000000Y-88000000D02*
X143000000Y-90000000D01*
X143000000Y-90000000D02*
X143000000Y-88000000D01*
X142000000Y-92000000D02*
X142000000Y-86000000D01*
X142000000Y-86000000D02*
X147000000Y-86000000D01*
X147000000Y-86000000D02*
X148000000Y-87000000D01*
X148000000Y-87000000D02*
X148000000Y-91000000D01*
X148000000Y-91000000D02*
X147000000Y-92000000D01*
X147000000Y-92000000D02*
X142000000Y-92000000D01*
X147000000Y-89000000D02*
X146000000Y-89000000D01*
X146000000Y-89000000D02*
X146000000Y-89000000D01*
X148000000Y-89000000D02*
G75*
G03X148000000Y-89000000I-3000000J0D01*
G01*
G04 #@! TO.C,C10*
X139000000Y-72000000D02*
X139000000Y-72000000D01*
X139000000Y-71000000D02*
X139000000Y-73000000D01*
X139000000Y-73000000D02*
X139000000Y-71000000D01*
X139000000Y-71000000D02*
X139000000Y-73000000D01*
X139000000Y-73000000D02*
X139000000Y-71000000D01*
X138000000Y-75000000D02*
X138000000Y-69000000D01*
X138000000Y-69000000D02*
X143000000Y-69000000D01*
X143000000Y-69000000D02*
X144000000Y-70000000D01*
X144000000Y-70000000D02*
X144000000Y-74000000D01*
X144000000Y-74000000D02*
X143000000Y-75000000D01*
X143000000Y-75000000D02*
X138000000Y-75000000D01*
X143000000Y-72000000D02*
X142000000Y-72000000D01*
X142000000Y-72000000D02*
X142000000Y-72000000D01*
X144000000Y-72000000D02*
G75*
G03X144000000Y-72000000I-3000000J0D01*
G01*
D10*
G04 #@! TO.C,*
X108980000Y-78630000D02*
X114980000Y-78630000D01*
X114980000Y-78630000D02*
X114980000Y-83910000D01*
X114980000Y-83910000D02*
X108980000Y-83910000D01*
X108980000Y-83910000D02*
X108980000Y-78630000D01*
X114980000Y-80000000D02*
X113980000Y-80000000D01*
X113980000Y-80000000D02*
X113980000Y-82540000D01*
X113980000Y-82540000D02*
X114980000Y-82540000D01*
X113980000Y-80000000D02*
X113550000Y-80250000D01*
X113550000Y-80250000D02*
X113550000Y-82290000D01*
X113550000Y-82290000D02*
X113980000Y-82540000D01*
X114980000Y-80250000D02*
X113980000Y-80250000D01*
X114980000Y-82290000D02*
X113980000Y-82290000D01*
X108980000Y-79200000D02*
X109600000Y-79200000D01*
X109600000Y-79200000D02*
X109600000Y-80800000D01*
X109600000Y-80800000D02*
X108980000Y-80800000D01*
X108980000Y-81740000D02*
X109600000Y-81740000D01*
X109600000Y-81740000D02*
X109600000Y-83340000D01*
X109600000Y-83340000D02*
X108980000Y-83340000D01*
X108980000Y-136630000D02*
X114980000Y-136630000D01*
X114980000Y-136630000D02*
X114980000Y-144450000D01*
X114980000Y-144450000D02*
X108980000Y-144450000D01*
X108980000Y-144450000D02*
X108980000Y-136630000D01*
X114980000Y-138000000D02*
X113980000Y-138000000D01*
X113980000Y-138000000D02*
X113980000Y-143080000D01*
X113980000Y-143080000D02*
X114980000Y-143080000D01*
X113980000Y-138000000D02*
X113550000Y-138250000D01*
X113550000Y-138250000D02*
X113550000Y-142830000D01*
X113550000Y-142830000D02*
X113980000Y-143080000D01*
X114980000Y-138250000D02*
X113980000Y-138250000D01*
X114980000Y-142830000D02*
X113980000Y-142830000D01*
X108980000Y-137200000D02*
X109600000Y-137200000D01*
X109600000Y-137200000D02*
X109600000Y-138800000D01*
X109600000Y-138800000D02*
X108980000Y-138800000D01*
X108980000Y-139740000D02*
X109600000Y-139740000D01*
X109600000Y-139740000D02*
X109600000Y-141340000D01*
X109600000Y-141340000D02*
X108980000Y-141340000D01*
X108980000Y-142280000D02*
X109600000Y-142280000D01*
X109600000Y-142280000D02*
X109600000Y-143880000D01*
X109600000Y-143880000D02*
X108980000Y-143880000D01*
X108980000Y-126630000D02*
X114980000Y-126630000D01*
X114980000Y-126630000D02*
X114980000Y-134450000D01*
X114980000Y-134450000D02*
X108980000Y-134450000D01*
X108980000Y-134450000D02*
X108980000Y-126630000D01*
X114980000Y-128000000D02*
X113980000Y-128000000D01*
X113980000Y-128000000D02*
X113980000Y-133080000D01*
X113980000Y-133080000D02*
X114980000Y-133080000D01*
X113980000Y-128000000D02*
X113550000Y-128250000D01*
X113550000Y-128250000D02*
X113550000Y-132830000D01*
X113550000Y-132830000D02*
X113980000Y-133080000D01*
X114980000Y-128250000D02*
X113980000Y-128250000D01*
X114980000Y-132830000D02*
X113980000Y-132830000D01*
X108980000Y-127200000D02*
X109600000Y-127200000D01*
X109600000Y-127200000D02*
X109600000Y-128800000D01*
X109600000Y-128800000D02*
X108980000Y-128800000D01*
X108980000Y-129740000D02*
X109600000Y-129740000D01*
X109600000Y-129740000D02*
X109600000Y-131340000D01*
X109600000Y-131340000D02*
X108980000Y-131340000D01*
X108980000Y-132280000D02*
X109600000Y-132280000D01*
X109600000Y-132280000D02*
X109600000Y-133880000D01*
X109600000Y-133880000D02*
X108980000Y-133880000D01*
X108980000Y-116630000D02*
X114980000Y-116630000D01*
X114980000Y-116630000D02*
X114980000Y-124450000D01*
X114980000Y-124450000D02*
X108980000Y-124450000D01*
X108980000Y-124450000D02*
X108980000Y-116630000D01*
X114980000Y-118000000D02*
X113980000Y-118000000D01*
X113980000Y-118000000D02*
X113980000Y-123080000D01*
X113980000Y-123080000D02*
X114980000Y-123080000D01*
X113980000Y-118000000D02*
X113550000Y-118250000D01*
X113550000Y-118250000D02*
X113550000Y-122830000D01*
X113550000Y-122830000D02*
X113980000Y-123080000D01*
X114980000Y-118250000D02*
X113980000Y-118250000D01*
X114980000Y-122830000D02*
X113980000Y-122830000D01*
X108980000Y-117200000D02*
X109600000Y-117200000D01*
X109600000Y-117200000D02*
X109600000Y-118800000D01*
X109600000Y-118800000D02*
X108980000Y-118800000D01*
X108980000Y-119740000D02*
X109600000Y-119740000D01*
X109600000Y-119740000D02*
X109600000Y-121340000D01*
X109600000Y-121340000D02*
X108980000Y-121340000D01*
X108980000Y-122280000D02*
X109600000Y-122280000D01*
X109600000Y-122280000D02*
X109600000Y-123880000D01*
X109600000Y-123880000D02*
X108980000Y-123880000D01*
X108980000Y-106630000D02*
X114980000Y-106630000D01*
X114980000Y-106630000D02*
X114980000Y-114450000D01*
X114980000Y-114450000D02*
X108980000Y-114450000D01*
X108980000Y-114450000D02*
X108980000Y-106630000D01*
X114980000Y-108000000D02*
X113980000Y-108000000D01*
X113980000Y-108000000D02*
X113980000Y-113080000D01*
X113980000Y-113080000D02*
X114980000Y-113080000D01*
X113980000Y-108000000D02*
X113550000Y-108250000D01*
X113550000Y-108250000D02*
X113550000Y-112830000D01*
X113550000Y-112830000D02*
X113980000Y-113080000D01*
X114980000Y-108250000D02*
X113980000Y-108250000D01*
X114980000Y-112830000D02*
X113980000Y-112830000D01*
X108980000Y-107200000D02*
X109600000Y-107200000D01*
X109600000Y-107200000D02*
X109600000Y-108800000D01*
X109600000Y-108800000D02*
X108980000Y-108800000D01*
X108980000Y-109740000D02*
X109600000Y-109740000D01*
X109600000Y-109740000D02*
X109600000Y-111340000D01*
X109600000Y-111340000D02*
X108980000Y-111340000D01*
X108980000Y-112280000D02*
X109600000Y-112280000D01*
X109600000Y-112280000D02*
X109600000Y-113880000D01*
X109600000Y-113880000D02*
X108980000Y-113880000D01*
X108980000Y-96630000D02*
X114980000Y-96630000D01*
X114980000Y-96630000D02*
X114980000Y-104450000D01*
X114980000Y-104450000D02*
X108980000Y-104450000D01*
X108980000Y-104450000D02*
X108980000Y-96630000D01*
X114980000Y-98000000D02*
X113980000Y-98000000D01*
X113980000Y-98000000D02*
X113980000Y-103080000D01*
X113980000Y-103080000D02*
X114980000Y-103080000D01*
X113980000Y-98000000D02*
X113550000Y-98250000D01*
X113550000Y-98250000D02*
X113550000Y-102830000D01*
X113550000Y-102830000D02*
X113980000Y-103080000D01*
X114980000Y-98250000D02*
X113980000Y-98250000D01*
X114980000Y-102830000D02*
X113980000Y-102830000D01*
X108980000Y-97200000D02*
X109600000Y-97200000D01*
X109600000Y-97200000D02*
X109600000Y-98800000D01*
X109600000Y-98800000D02*
X108980000Y-98800000D01*
X108980000Y-99740000D02*
X109600000Y-99740000D01*
X109600000Y-99740000D02*
X109600000Y-101340000D01*
X109600000Y-101340000D02*
X108980000Y-101340000D01*
X108980000Y-102280000D02*
X109600000Y-102280000D01*
X109600000Y-102280000D02*
X109600000Y-103880000D01*
X109600000Y-103880000D02*
X108980000Y-103880000D01*
X108980000Y-86630000D02*
X114980000Y-86630000D01*
X114980000Y-86630000D02*
X114980000Y-94450000D01*
X114980000Y-94450000D02*
X108980000Y-94450000D01*
X108980000Y-94450000D02*
X108980000Y-86630000D01*
X114980000Y-88000000D02*
X113980000Y-88000000D01*
X113980000Y-88000000D02*
X113980000Y-93080000D01*
X113980000Y-93080000D02*
X114980000Y-93080000D01*
X113980000Y-88000000D02*
X113550000Y-88250000D01*
X113550000Y-88250000D02*
X113550000Y-92830000D01*
X113550000Y-92830000D02*
X113980000Y-93080000D01*
X114980000Y-88250000D02*
X113980000Y-88250000D01*
X114980000Y-92830000D02*
X113980000Y-92830000D01*
X108980000Y-87200000D02*
X109600000Y-87200000D01*
X109600000Y-87200000D02*
X109600000Y-88800000D01*
X109600000Y-88800000D02*
X108980000Y-88800000D01*
X108980000Y-89740000D02*
X109600000Y-89740000D01*
X109600000Y-89740000D02*
X109600000Y-91340000D01*
X109600000Y-91340000D02*
X108980000Y-91340000D01*
X108980000Y-92280000D02*
X109600000Y-92280000D01*
X109600000Y-92280000D02*
X109600000Y-93880000D01*
X109600000Y-93880000D02*
X108980000Y-93880000D01*
X122020000Y-158370000D02*
X116020000Y-158370000D01*
X116020000Y-158370000D02*
X116020000Y-148010000D01*
X116020000Y-148010000D02*
X122020000Y-148010000D01*
X122020000Y-148010000D02*
X122020000Y-158370000D01*
X116020000Y-157000000D02*
X117020000Y-157000000D01*
X117020000Y-157000000D02*
X117020000Y-149380000D01*
X117020000Y-149380000D02*
X116020000Y-149380000D01*
X117020000Y-157000000D02*
X117450000Y-156750000D01*
X117450000Y-156750000D02*
X117450000Y-149630000D01*
X117450000Y-149630000D02*
X117020000Y-149380000D01*
X116020000Y-156750000D02*
X117020000Y-156750000D01*
X116020000Y-149630000D02*
X117020000Y-149630000D01*
X122020000Y-157800000D02*
X121400000Y-157800000D01*
X121400000Y-157800000D02*
X121400000Y-156200000D01*
X121400000Y-156200000D02*
X122020000Y-156200000D01*
X122020000Y-155260000D02*
X121400000Y-155260000D01*
X121400000Y-155260000D02*
X121400000Y-153660000D01*
X121400000Y-153660000D02*
X122020000Y-153660000D01*
X122020000Y-152720000D02*
X121400000Y-152720000D01*
X121400000Y-152720000D02*
X121400000Y-151120000D01*
X121400000Y-151120000D02*
X122020000Y-151120000D01*
X122020000Y-150180000D02*
X121400000Y-150180000D01*
X121400000Y-150180000D02*
X121400000Y-148580000D01*
X121400000Y-148580000D02*
X122020000Y-148580000D01*
X108980000Y-70630000D02*
X114980000Y-70630000D01*
X114980000Y-70630000D02*
X114980000Y-75910000D01*
X114980000Y-75910000D02*
X108980000Y-75910000D01*
X108980000Y-75910000D02*
X108980000Y-70630000D01*
X114980000Y-72000000D02*
X113980000Y-72000000D01*
X113980000Y-72000000D02*
X113980000Y-74540000D01*
X113980000Y-74540000D02*
X114980000Y-74540000D01*
X113980000Y-72000000D02*
X113550000Y-72250000D01*
X113550000Y-72250000D02*
X113550000Y-74290000D01*
X113550000Y-74290000D02*
X113980000Y-74540000D01*
X114980000Y-72250000D02*
X113980000Y-72250000D01*
X114980000Y-74290000D02*
X113980000Y-74290000D01*
X108980000Y-71200000D02*
X109600000Y-71200000D01*
X109600000Y-71200000D02*
X109600000Y-72800000D01*
X109600000Y-72800000D02*
X108980000Y-72800000D01*
X108980000Y-73740000D02*
X109600000Y-73740000D01*
X109600000Y-73740000D02*
X109600000Y-75340000D01*
X109600000Y-75340000D02*
X108980000Y-75340000D01*
X156020000Y-149370000D02*
X150020000Y-149370000D01*
X150020000Y-149370000D02*
X150020000Y-144090000D01*
X150020000Y-144090000D02*
X156020000Y-144090000D01*
X156020000Y-144090000D02*
X156020000Y-149370000D01*
X150020000Y-148000000D02*
X151020000Y-148000000D01*
X151020000Y-148000000D02*
X151020000Y-145460000D01*
X151020000Y-145460000D02*
X150020000Y-145460000D01*
X151020000Y-148000000D02*
X151450000Y-147750000D01*
X151450000Y-147750000D02*
X151450000Y-145710000D01*
X151450000Y-145710000D02*
X151020000Y-145460000D01*
X150020000Y-147750000D02*
X151020000Y-147750000D01*
X150020000Y-145710000D02*
X151020000Y-145710000D01*
X156020000Y-148800000D02*
X155400000Y-148800000D01*
X155400000Y-148800000D02*
X155400000Y-147200000D01*
X155400000Y-147200000D02*
X156020000Y-147200000D01*
X156020000Y-146260000D02*
X155400000Y-146260000D01*
X155400000Y-146260000D02*
X155400000Y-144660000D01*
X155400000Y-144660000D02*
X156020000Y-144660000D01*
X156020000Y-133370000D02*
X150020000Y-133370000D01*
X150020000Y-133370000D02*
X150020000Y-128090000D01*
X150020000Y-128090000D02*
X156020000Y-128090000D01*
X156020000Y-128090000D02*
X156020000Y-133370000D01*
X150020000Y-132000000D02*
X151020000Y-132000000D01*
X151020000Y-132000000D02*
X151020000Y-129460000D01*
X151020000Y-129460000D02*
X150020000Y-129460000D01*
X151020000Y-132000000D02*
X151450000Y-131750000D01*
X151450000Y-131750000D02*
X151450000Y-129710000D01*
X151450000Y-129710000D02*
X151020000Y-129460000D01*
X150020000Y-131750000D02*
X151020000Y-131750000D01*
X150020000Y-129710000D02*
X151020000Y-129710000D01*
X156020000Y-132800000D02*
X155400000Y-132800000D01*
X155400000Y-132800000D02*
X155400000Y-131200000D01*
X155400000Y-131200000D02*
X156020000Y-131200000D01*
X156020000Y-130260000D02*
X155400000Y-130260000D01*
X155400000Y-130260000D02*
X155400000Y-128660000D01*
X155400000Y-128660000D02*
X156020000Y-128660000D01*
X156020000Y-118370000D02*
X150020000Y-118370000D01*
X150020000Y-118370000D02*
X150020000Y-113090000D01*
X150020000Y-113090000D02*
X156020000Y-113090000D01*
X156020000Y-113090000D02*
X156020000Y-118370000D01*
X150020000Y-117000000D02*
X151020000Y-117000000D01*
X151020000Y-117000000D02*
X151020000Y-114460000D01*
X151020000Y-114460000D02*
X150020000Y-114460000D01*
X151020000Y-117000000D02*
X151450000Y-116750000D01*
X151450000Y-116750000D02*
X151450000Y-114710000D01*
X151450000Y-114710000D02*
X151020000Y-114460000D01*
X150020000Y-116750000D02*
X151020000Y-116750000D01*
X150020000Y-114710000D02*
X151020000Y-114710000D01*
X156020000Y-117800000D02*
X155400000Y-117800000D01*
X155400000Y-117800000D02*
X155400000Y-116200000D01*
X155400000Y-116200000D02*
X156020000Y-116200000D01*
X156020000Y-115260000D02*
X155400000Y-115260000D01*
X155400000Y-115260000D02*
X155400000Y-113660000D01*
X155400000Y-113660000D02*
X156020000Y-113660000D01*
X156020000Y-103370000D02*
X150020000Y-103370000D01*
X150020000Y-103370000D02*
X150020000Y-98090000D01*
X150020000Y-98090000D02*
X156020000Y-98090000D01*
X156020000Y-98090000D02*
X156020000Y-103370000D01*
X150020000Y-102000000D02*
X151020000Y-102000000D01*
X151020000Y-102000000D02*
X151020000Y-99460000D01*
X151020000Y-99460000D02*
X150020000Y-99460000D01*
X151020000Y-102000000D02*
X151450000Y-101750000D01*
X151450000Y-101750000D02*
X151450000Y-99710000D01*
X151450000Y-99710000D02*
X151020000Y-99460000D01*
X150020000Y-101750000D02*
X151020000Y-101750000D01*
X150020000Y-99710000D02*
X151020000Y-99710000D01*
X156020000Y-102800000D02*
X155400000Y-102800000D01*
X155400000Y-102800000D02*
X155400000Y-101200000D01*
X155400000Y-101200000D02*
X156020000Y-101200000D01*
X156020000Y-100260000D02*
X155400000Y-100260000D01*
X155400000Y-100260000D02*
X155400000Y-98660000D01*
X155400000Y-98660000D02*
X156020000Y-98660000D01*
X156020000Y-88370000D02*
X150020000Y-88370000D01*
X150020000Y-88370000D02*
X150020000Y-83090000D01*
X150020000Y-83090000D02*
X156020000Y-83090000D01*
X156020000Y-83090000D02*
X156020000Y-88370000D01*
X150020000Y-87000000D02*
X151020000Y-87000000D01*
X151020000Y-87000000D02*
X151020000Y-84460000D01*
X151020000Y-84460000D02*
X150020000Y-84460000D01*
X151020000Y-87000000D02*
X151450000Y-86750000D01*
X151450000Y-86750000D02*
X151450000Y-84710000D01*
X151450000Y-84710000D02*
X151020000Y-84460000D01*
X150020000Y-86750000D02*
X151020000Y-86750000D01*
X150020000Y-84710000D02*
X151020000Y-84710000D01*
X156020000Y-87800000D02*
X155400000Y-87800000D01*
X155400000Y-87800000D02*
X155400000Y-86200000D01*
X155400000Y-86200000D02*
X156020000Y-86200000D01*
X156020000Y-85260000D02*
X155400000Y-85260000D01*
X155400000Y-85260000D02*
X155400000Y-83660000D01*
X155400000Y-83660000D02*
X156020000Y-83660000D01*
X154020000Y-75370000D02*
X148020000Y-75370000D01*
X148020000Y-75370000D02*
X148020000Y-70090000D01*
X148020000Y-70090000D02*
X154020000Y-70090000D01*
X154020000Y-70090000D02*
X154020000Y-75370000D01*
X148020000Y-74000000D02*
X149020000Y-74000000D01*
X149020000Y-74000000D02*
X149020000Y-71460000D01*
X149020000Y-71460000D02*
X148020000Y-71460000D01*
X149020000Y-74000000D02*
X149450000Y-73750000D01*
X149450000Y-73750000D02*
X149450000Y-71710000D01*
X149450000Y-71710000D02*
X149020000Y-71460000D01*
X148020000Y-73750000D02*
X149020000Y-73750000D01*
X148020000Y-71710000D02*
X149020000Y-71710000D01*
X154020000Y-74800000D02*
X153400000Y-74800000D01*
X153400000Y-74800000D02*
X153400000Y-73200000D01*
X153400000Y-73200000D02*
X154020000Y-73200000D01*
X154020000Y-72260000D02*
X153400000Y-72260000D01*
X153400000Y-72260000D02*
X153400000Y-70660000D01*
X153400000Y-70660000D02*
X154020000Y-70660000D01*
X124630000Y-157020000D02*
X124630000Y-151020000D01*
X124630000Y-151020000D02*
X134990000Y-151020000D01*
X134990000Y-151020000D02*
X134990000Y-157020000D01*
X134990000Y-157020000D02*
X124630000Y-157020000D01*
X126000000Y-151020000D02*
X126000000Y-152020000D01*
X126000000Y-152020000D02*
X133620000Y-152020000D01*
X133620000Y-152020000D02*
X133620000Y-151020000D01*
X126000000Y-152020000D02*
X126250000Y-152450000D01*
X126250000Y-152450000D02*
X133370000Y-152450000D01*
X133370000Y-152450000D02*
X133620000Y-152020000D01*
X126250000Y-151020000D02*
X126250000Y-152020000D01*
X133370000Y-151020000D02*
X133370000Y-152020000D01*
X125200000Y-157020000D02*
X125200000Y-156400000D01*
X125200000Y-156400000D02*
X126800000Y-156400000D01*
X126800000Y-156400000D02*
X126800000Y-157020000D01*
X127740000Y-157020000D02*
X127740000Y-156400000D01*
X127740000Y-156400000D02*
X129340000Y-156400000D01*
X129340000Y-156400000D02*
X129340000Y-157020000D01*
X130280000Y-157020000D02*
X130280000Y-156400000D01*
X130280000Y-156400000D02*
X131880000Y-156400000D01*
X131880000Y-156400000D02*
X131880000Y-157020000D01*
X132820000Y-157020000D02*
X132820000Y-156400000D01*
X132820000Y-156400000D02*
X134420000Y-156400000D01*
X134420000Y-156400000D02*
X134420000Y-157020000D01*
X139370000Y-63480000D02*
X139370000Y-69480000D01*
X139370000Y-69480000D02*
X129010000Y-69480000D01*
X129010000Y-69480000D02*
X129010000Y-63480000D01*
X129010000Y-63480000D02*
X139370000Y-63480000D01*
X138000000Y-69480000D02*
X138000000Y-68480000D01*
X138000000Y-68480000D02*
X130380000Y-68480000D01*
X130380000Y-68480000D02*
X130380000Y-69480000D01*
X138000000Y-68480000D02*
X137750000Y-68050000D01*
X137750000Y-68050000D02*
X130630000Y-68050000D01*
X130630000Y-68050000D02*
X130380000Y-68480000D01*
X137750000Y-69480000D02*
X137750000Y-68480000D01*
X130630000Y-69480000D02*
X130630000Y-68480000D01*
X138800000Y-63480000D02*
X138800000Y-64100000D01*
X138800000Y-64100000D02*
X137200000Y-64100000D01*
X137200000Y-64100000D02*
X137200000Y-63480000D01*
X136260000Y-63480000D02*
X136260000Y-64100000D01*
X136260000Y-64100000D02*
X134660000Y-64100000D01*
X134660000Y-64100000D02*
X134660000Y-63480000D01*
X133720000Y-63480000D02*
X133720000Y-64100000D01*
X133720000Y-64100000D02*
X132120000Y-64100000D01*
X132120000Y-64100000D02*
X132120000Y-63480000D01*
X131180000Y-63480000D02*
X131180000Y-64100000D01*
X131180000Y-64100000D02*
X129580000Y-64100000D01*
X129580000Y-64100000D02*
X129580000Y-63480000D01*
G04 #@! TD*
G04 #@! TO.C,U2*
D15*
X129281333Y-129455333D02*
X130720666Y-129455333D01*
X130890000Y-129540000D01*
X130974666Y-129624666D01*
X131059333Y-129794000D01*
X131059333Y-130132666D01*
X130974666Y-130302000D01*
X130890000Y-130386666D01*
X130720666Y-130471333D01*
X129281333Y-130471333D01*
X129450666Y-131233333D02*
X129366000Y-131318000D01*
X129281333Y-131487333D01*
X129281333Y-131910666D01*
X129366000Y-132080000D01*
X129450666Y-132164666D01*
X129620000Y-132249333D01*
X129789333Y-132249333D01*
X130043333Y-132164666D01*
X131059333Y-131148666D01*
X131059333Y-132249333D01*
G04 #@! TO.C,*
D10*
G04 #@! TO.C,D2*
X145598095Y-143017380D02*
X145598095Y-142017380D01*
X145360000Y-142017380D01*
X145217142Y-142065000D01*
X145121904Y-142160238D01*
X145074285Y-142255476D01*
X145026666Y-142445952D01*
X145026666Y-142588809D01*
X145074285Y-142779285D01*
X145121904Y-142874523D01*
X145217142Y-142969761D01*
X145360000Y-143017380D01*
X145598095Y-143017380D01*
X144645714Y-142112619D02*
X144598095Y-142065000D01*
X144502857Y-142017380D01*
X144264761Y-142017380D01*
X144169523Y-142065000D01*
X144121904Y-142112619D01*
X144074285Y-142207857D01*
X144074285Y-142303095D01*
X144121904Y-142445952D01*
X144693333Y-143017380D01*
X144074285Y-143017380D01*
X148371904Y-148767380D02*
X148371904Y-147767380D01*
X147800476Y-148767380D02*
X148229047Y-148195952D01*
X147800476Y-147767380D02*
X148371904Y-148338809D01*
X142048095Y-148431666D02*
X141571904Y-148431666D01*
X142143333Y-148717380D02*
X141810000Y-147717380D01*
X141476666Y-148717380D01*
G04 #@! TO.C,D3*
X145598095Y-127142380D02*
X145598095Y-126142380D01*
X145360000Y-126142380D01*
X145217142Y-126190000D01*
X145121904Y-126285238D01*
X145074285Y-126380476D01*
X145026666Y-126570952D01*
X145026666Y-126713809D01*
X145074285Y-126904285D01*
X145121904Y-126999523D01*
X145217142Y-127094761D01*
X145360000Y-127142380D01*
X145598095Y-127142380D01*
X144693333Y-126142380D02*
X144074285Y-126142380D01*
X144407619Y-126523333D01*
X144264761Y-126523333D01*
X144169523Y-126570952D01*
X144121904Y-126618571D01*
X144074285Y-126713809D01*
X144074285Y-126951904D01*
X144121904Y-127047142D01*
X144169523Y-127094761D01*
X144264761Y-127142380D01*
X144550476Y-127142380D01*
X144645714Y-127094761D01*
X144693333Y-127047142D01*
X148371904Y-132892380D02*
X148371904Y-131892380D01*
X147800476Y-132892380D02*
X148229047Y-132320952D01*
X147800476Y-131892380D02*
X148371904Y-132463809D01*
X142048095Y-132556666D02*
X141571904Y-132556666D01*
X142143333Y-132842380D02*
X141810000Y-131842380D01*
X141476666Y-132842380D01*
G04 #@! TO.C,D4*
X145598095Y-111902380D02*
X145598095Y-110902380D01*
X145360000Y-110902380D01*
X145217142Y-110950000D01*
X145121904Y-111045238D01*
X145074285Y-111140476D01*
X145026666Y-111330952D01*
X145026666Y-111473809D01*
X145074285Y-111664285D01*
X145121904Y-111759523D01*
X145217142Y-111854761D01*
X145360000Y-111902380D01*
X145598095Y-111902380D01*
X144169523Y-111235714D02*
X144169523Y-111902380D01*
X144407619Y-110854761D02*
X144645714Y-111569047D01*
X144026666Y-111569047D01*
X148371904Y-117652380D02*
X148371904Y-116652380D01*
X147800476Y-117652380D02*
X148229047Y-117080952D01*
X147800476Y-116652380D02*
X148371904Y-117223809D01*
X142048095Y-117316666D02*
X141571904Y-117316666D01*
X142143333Y-117602380D02*
X141810000Y-116602380D01*
X141476666Y-117602380D01*
G04 #@! TO.C,D5*
X145598095Y-96662380D02*
X145598095Y-95662380D01*
X145360000Y-95662380D01*
X145217142Y-95710000D01*
X145121904Y-95805238D01*
X145074285Y-95900476D01*
X145026666Y-96090952D01*
X145026666Y-96233809D01*
X145074285Y-96424285D01*
X145121904Y-96519523D01*
X145217142Y-96614761D01*
X145360000Y-96662380D01*
X145598095Y-96662380D01*
X144121904Y-95662380D02*
X144598095Y-95662380D01*
X144645714Y-96138571D01*
X144598095Y-96090952D01*
X144502857Y-96043333D01*
X144264761Y-96043333D01*
X144169523Y-96090952D01*
X144121904Y-96138571D01*
X144074285Y-96233809D01*
X144074285Y-96471904D01*
X144121904Y-96567142D01*
X144169523Y-96614761D01*
X144264761Y-96662380D01*
X144502857Y-96662380D01*
X144598095Y-96614761D01*
X144645714Y-96567142D01*
X148371904Y-102412380D02*
X148371904Y-101412380D01*
X147800476Y-102412380D02*
X148229047Y-101840952D01*
X147800476Y-101412380D02*
X148371904Y-101983809D01*
X142048095Y-102076666D02*
X141571904Y-102076666D01*
X142143333Y-102362380D02*
X141810000Y-101362380D01*
X141476666Y-102362380D01*
G04 #@! TO.C,D6*
X145738095Y-81602380D02*
X145738095Y-80602380D01*
X145500000Y-80602380D01*
X145357142Y-80650000D01*
X145261904Y-80745238D01*
X145214285Y-80840476D01*
X145166666Y-81030952D01*
X145166666Y-81173809D01*
X145214285Y-81364285D01*
X145261904Y-81459523D01*
X145357142Y-81554761D01*
X145500000Y-81602380D01*
X145738095Y-81602380D01*
X144309523Y-80602380D02*
X144500000Y-80602380D01*
X144595238Y-80650000D01*
X144642857Y-80697619D01*
X144738095Y-80840476D01*
X144785714Y-81030952D01*
X144785714Y-81411904D01*
X144738095Y-81507142D01*
X144690476Y-81554761D01*
X144595238Y-81602380D01*
X144404761Y-81602380D01*
X144309523Y-81554761D01*
X144261904Y-81507142D01*
X144214285Y-81411904D01*
X144214285Y-81173809D01*
X144261904Y-81078571D01*
X144309523Y-81030952D01*
X144404761Y-80983333D01*
X144595238Y-80983333D01*
X144690476Y-81030952D01*
X144738095Y-81078571D01*
X144785714Y-81173809D01*
X148511904Y-87352380D02*
X148511904Y-86352380D01*
X147940476Y-87352380D02*
X148369047Y-86780952D01*
X147940476Y-86352380D02*
X148511904Y-86923809D01*
X142188095Y-87016666D02*
X141711904Y-87016666D01*
X142283333Y-87302380D02*
X141950000Y-86302380D01*
X141616666Y-87302380D01*
G04 #@! TO.C,D7*
X141738095Y-74602380D02*
X141738095Y-73602380D01*
X141500000Y-73602380D01*
X141357142Y-73650000D01*
X141261904Y-73745238D01*
X141214285Y-73840476D01*
X141166666Y-74030952D01*
X141166666Y-74173809D01*
X141214285Y-74364285D01*
X141261904Y-74459523D01*
X141357142Y-74554761D01*
X141500000Y-74602380D01*
X141738095Y-74602380D01*
X140833333Y-73602380D02*
X140166666Y-73602380D01*
X140595238Y-74602380D01*
X144511904Y-80352380D02*
X144511904Y-79352380D01*
X143940476Y-80352380D02*
X144369047Y-79780952D01*
X143940476Y-79352380D02*
X144511904Y-79923809D01*
X138188095Y-80016666D02*
X137711904Y-80016666D01*
X138283333Y-80302380D02*
X137950000Y-79302380D01*
X137616666Y-80302380D01*
G04 #@! TO.C,C2*
X121166666Y-62357142D02*
X121214285Y-62404761D01*
X121357142Y-62452380D01*
X121452380Y-62452380D01*
X121595238Y-62404761D01*
X121690476Y-62309523D01*
X121738095Y-62214285D01*
X121785714Y-62023809D01*
X121785714Y-61880952D01*
X121738095Y-61690476D01*
X121690476Y-61595238D01*
X121595238Y-61500000D01*
X121452380Y-61452380D01*
X121357142Y-61452380D01*
X121214285Y-61500000D01*
X121166666Y-61547619D01*
X120785714Y-61547619D02*
X120738095Y-61500000D01*
X120642857Y-61452380D01*
X120404761Y-61452380D01*
X120309523Y-61500000D01*
X120261904Y-61547619D01*
X120214285Y-61642857D01*
X120214285Y-61738095D01*
X120261904Y-61880952D01*
X120833333Y-62452380D01*
X120214285Y-62452380D01*
G04 #@! TO.C,C5*
X145026666Y-155487142D02*
X145074285Y-155534761D01*
X145217142Y-155582380D01*
X145312380Y-155582380D01*
X145455238Y-155534761D01*
X145550476Y-155439523D01*
X145598095Y-155344285D01*
X145645714Y-155153809D01*
X145645714Y-155010952D01*
X145598095Y-154820476D01*
X145550476Y-154725238D01*
X145455238Y-154630000D01*
X145312380Y-154582380D01*
X145217142Y-154582380D01*
X145074285Y-154630000D01*
X145026666Y-154677619D01*
X144121904Y-154582380D02*
X144598095Y-154582380D01*
X144645714Y-155058571D01*
X144598095Y-155010952D01*
X144502857Y-154963333D01*
X144264761Y-154963333D01*
X144169523Y-155010952D01*
X144121904Y-155058571D01*
X144074285Y-155153809D01*
X144074285Y-155391904D01*
X144121904Y-155487142D01*
X144169523Y-155534761D01*
X144264761Y-155582380D01*
X144502857Y-155582380D01*
X144598095Y-155534761D01*
X144645714Y-155487142D01*
G04 #@! TO.C,C6*
X145026666Y-139612142D02*
X145074285Y-139659761D01*
X145217142Y-139707380D01*
X145312380Y-139707380D01*
X145455238Y-139659761D01*
X145550476Y-139564523D01*
X145598095Y-139469285D01*
X145645714Y-139278809D01*
X145645714Y-139135952D01*
X145598095Y-138945476D01*
X145550476Y-138850238D01*
X145455238Y-138755000D01*
X145312380Y-138707380D01*
X145217142Y-138707380D01*
X145074285Y-138755000D01*
X145026666Y-138802619D01*
X144169523Y-138707380D02*
X144360000Y-138707380D01*
X144455238Y-138755000D01*
X144502857Y-138802619D01*
X144598095Y-138945476D01*
X144645714Y-139135952D01*
X144645714Y-139516904D01*
X144598095Y-139612142D01*
X144550476Y-139659761D01*
X144455238Y-139707380D01*
X144264761Y-139707380D01*
X144169523Y-139659761D01*
X144121904Y-139612142D01*
X144074285Y-139516904D01*
X144074285Y-139278809D01*
X144121904Y-139183571D01*
X144169523Y-139135952D01*
X144264761Y-139088333D01*
X144455238Y-139088333D01*
X144550476Y-139135952D01*
X144598095Y-139183571D01*
X144645714Y-139278809D01*
G04 #@! TO.C,C7*
X145026666Y-124372142D02*
X145074285Y-124419761D01*
X145217142Y-124467380D01*
X145312380Y-124467380D01*
X145455238Y-124419761D01*
X145550476Y-124324523D01*
X145598095Y-124229285D01*
X145645714Y-124038809D01*
X145645714Y-123895952D01*
X145598095Y-123705476D01*
X145550476Y-123610238D01*
X145455238Y-123515000D01*
X145312380Y-123467380D01*
X145217142Y-123467380D01*
X145074285Y-123515000D01*
X145026666Y-123562619D01*
X144693333Y-123467380D02*
X144026666Y-123467380D01*
X144455238Y-124467380D01*
G04 #@! TO.C,C8*
X145026666Y-109132142D02*
X145074285Y-109179761D01*
X145217142Y-109227380D01*
X145312380Y-109227380D01*
X145455238Y-109179761D01*
X145550476Y-109084523D01*
X145598095Y-108989285D01*
X145645714Y-108798809D01*
X145645714Y-108655952D01*
X145598095Y-108465476D01*
X145550476Y-108370238D01*
X145455238Y-108275000D01*
X145312380Y-108227380D01*
X145217142Y-108227380D01*
X145074285Y-108275000D01*
X145026666Y-108322619D01*
X144455238Y-108655952D02*
X144550476Y-108608333D01*
X144598095Y-108560714D01*
X144645714Y-108465476D01*
X144645714Y-108417857D01*
X144598095Y-108322619D01*
X144550476Y-108275000D01*
X144455238Y-108227380D01*
X144264761Y-108227380D01*
X144169523Y-108275000D01*
X144121904Y-108322619D01*
X144074285Y-108417857D01*
X144074285Y-108465476D01*
X144121904Y-108560714D01*
X144169523Y-108608333D01*
X144264761Y-108655952D01*
X144455238Y-108655952D01*
X144550476Y-108703571D01*
X144598095Y-108751190D01*
X144645714Y-108846428D01*
X144645714Y-109036904D01*
X144598095Y-109132142D01*
X144550476Y-109179761D01*
X144455238Y-109227380D01*
X144264761Y-109227380D01*
X144169523Y-109179761D01*
X144121904Y-109132142D01*
X144074285Y-109036904D01*
X144074285Y-108846428D01*
X144121904Y-108751190D01*
X144169523Y-108703571D01*
X144264761Y-108655952D01*
G04 #@! TO.C,C9*
X145166666Y-93357142D02*
X145214285Y-93404761D01*
X145357142Y-93452380D01*
X145452380Y-93452380D01*
X145595238Y-93404761D01*
X145690476Y-93309523D01*
X145738095Y-93214285D01*
X145785714Y-93023809D01*
X145785714Y-92880952D01*
X145738095Y-92690476D01*
X145690476Y-92595238D01*
X145595238Y-92500000D01*
X145452380Y-92452380D01*
X145357142Y-92452380D01*
X145214285Y-92500000D01*
X145166666Y-92547619D01*
X144690476Y-93452380D02*
X144500000Y-93452380D01*
X144404761Y-93404761D01*
X144357142Y-93357142D01*
X144261904Y-93214285D01*
X144214285Y-93023809D01*
X144214285Y-92642857D01*
X144261904Y-92547619D01*
X144309523Y-92500000D01*
X144404761Y-92452380D01*
X144595238Y-92452380D01*
X144690476Y-92500000D01*
X144738095Y-92547619D01*
X144785714Y-92642857D01*
X144785714Y-92880952D01*
X144738095Y-92976190D01*
X144690476Y-93023809D01*
X144595238Y-93071428D01*
X144404761Y-93071428D01*
X144309523Y-93023809D01*
X144261904Y-92976190D01*
X144214285Y-92880952D01*
G04 #@! TO.C,C10*
X141642857Y-76357142D02*
X141690476Y-76404761D01*
X141833333Y-76452380D01*
X141928571Y-76452380D01*
X142071428Y-76404761D01*
X142166666Y-76309523D01*
X142214285Y-76214285D01*
X142261904Y-76023809D01*
X142261904Y-75880952D01*
X142214285Y-75690476D01*
X142166666Y-75595238D01*
X142071428Y-75500000D01*
X141928571Y-75452380D01*
X141833333Y-75452380D01*
X141690476Y-75500000D01*
X141642857Y-75547619D01*
X140690476Y-76452380D02*
X141261904Y-76452380D01*
X140976190Y-76452380D02*
X140976190Y-75452380D01*
X141071428Y-75595238D01*
X141166666Y-75690476D01*
X141261904Y-75738095D01*
X140071428Y-75452380D02*
X139976190Y-75452380D01*
X139880952Y-75500000D01*
X139833333Y-75547619D01*
X139785714Y-75642857D01*
X139738095Y-75833333D01*
X139738095Y-76071428D01*
X139785714Y-76261904D01*
X139833333Y-76357142D01*
X139880952Y-76404761D01*
X139976190Y-76452380D01*
X140071428Y-76452380D01*
X140166666Y-76404761D01*
X140214285Y-76357142D01*
X140261904Y-76261904D01*
X140309523Y-76071428D01*
X140309523Y-75833333D01*
X140261904Y-75642857D01*
X140214285Y-75547619D01*
X140166666Y-75500000D01*
X140071428Y-75452380D01*
G04 #@! TO.C,*
G04 #@! TD*
M02*
