M48
; DRILL file {KiCad 7.0.7} date Tue Jan  2 20:56:36 2024
; FORMAT={-:-/ absolute / metric / decimal}
; #@! TF.CreationDate,2024-01-02T20:56:36+01:00
; #@! TF.GenerationSoftware,Kicad,Pcbnew,7.0.7
; #@! TF.FileFunction,Plated,1,2,PTH
FMAT,2
METRIC
; #@! TA.AperFunction,Plated,PTH,ViaDrill
T1C0.400
; #@! TA.AperFunction,Plated,PTH,ComponentDrill
T2C0.813
; #@! TA.AperFunction,Plated,PTH,ComponentDrill
T3C1.200
; #@! TA.AperFunction,Plated,PTH,ComponentDrill
T4C3.200
%
G90
G05
T1
X122.75Y-105.5
X124.0Y-104.5
X124.75Y-122.0
X125.25Y-114.0
X126.0Y-99.5
X126.0Y-100.75
X126.0Y-106.0
X126.0Y-107.25
X126.75Y-113.75
X127.25Y-99.5
X127.25Y-100.75
X127.25Y-106.0
X127.25Y-107.25
X127.25Y-120.5
X127.25Y-121.5
X127.25Y-126.5
X127.25Y-127.5
X127.75Y-82.5
X128.0Y-113.75
X128.0Y-115.0
X128.25Y-120.5
X128.5Y-126.5
X128.75Y-89.5
X129.75Y-93.5
X131.0Y-93.5
X132.25Y-93.5
X133.5Y-93.5
X134.75Y-93.5
X139.5Y-86.0
X139.5Y-87.5
X139.5Y-89.0
X139.5Y-90.5
X139.5Y-97.5
X139.5Y-99.0
X139.5Y-100.5
X139.5Y-102.0
X140.0Y-118.5
X140.0Y-120.0
X140.0Y-121.5
X141.0Y-86.0
X141.0Y-97.5
X141.0Y-117.0
X141.0Y-147.0
X141.0Y-148.0
X141.0Y-149.0
X141.5Y-121.5
X142.0Y-147.0
X142.5Y-86.0
X142.5Y-97.5
X142.5Y-117.0
X142.5Y-132.0
X142.5Y-133.0
X142.5Y-134.0
X142.5Y-137.0
X143.0Y-147.0
X143.0Y-148.0
X143.0Y-149.0
X146.0Y-155.5
X146.0Y-156.75
X148.0Y-155.5
X148.0Y-156.75
X149.0Y-95.0
X149.0Y-111.0
X149.0Y-125.0
X149.0Y-141.0
X149.5Y-153.45
X149.5Y-155.5
X149.5Y-156.75
X150.0Y-80.0
X150.0Y-95.0
X150.0Y-111.0
X150.0Y-125.0
X150.0Y-141.0
X151.0Y-78.0
X151.0Y-79.0
X151.0Y-80.0
X151.0Y-93.0
X151.0Y-94.0
X151.0Y-95.0
X151.0Y-109.0
X151.0Y-110.0
X151.0Y-111.0
X151.0Y-123.0
X151.0Y-124.0
X151.0Y-125.0
X151.0Y-139.0
X151.0Y-140.0
X151.0Y-141.0
X152.0Y-78.0
X152.0Y-79.0
X152.0Y-80.0
X152.0Y-93.0
X152.0Y-94.0
X152.0Y-95.0
X152.0Y-109.0
X152.0Y-110.0
X152.0Y-111.0
X152.0Y-123.0
X152.0Y-124.0
X152.0Y-125.0
X152.0Y-139.0
X152.0Y-140.0
X152.0Y-141.0
X152.0Y-152.0
X152.0Y-153.5
X153.0Y-78.0
X153.0Y-79.0
X153.0Y-80.0
X153.0Y-93.0
X153.0Y-94.0
X153.0Y-95.0
X153.0Y-109.0
X153.0Y-110.0
X153.0Y-111.0
X153.0Y-123.0
X153.0Y-124.0
X153.0Y-125.0
X153.0Y-139.0
X153.0Y-140.0
X153.0Y-141.0
T2
X118.825Y-100.33
X118.825Y-102.87
X118.825Y-105.41
X118.825Y-107.95
X118.825Y-110.49
X118.825Y-113.03
X118.825Y-115.57
X118.825Y-118.11
X118.825Y-120.65
X118.825Y-123.19
X118.825Y-125.73
X118.825Y-128.27
X118.825Y-130.81
X118.825Y-133.35
X118.825Y-135.89
X134.065Y-100.33
X134.065Y-102.87
X134.065Y-105.41
X134.065Y-107.95
X134.065Y-110.49
X134.065Y-113.03
X134.065Y-115.57
X134.065Y-118.11
X134.065Y-120.65
X134.065Y-123.19
X134.065Y-125.73
X134.065Y-128.27
X134.065Y-130.81
X134.065Y-133.35
X134.065Y-135.89
T3
X112.0Y-64.0
X112.0Y-66.54
X112.0Y-72.0
X112.0Y-74.54
X112.0Y-80.0
X112.0Y-82.54
X112.0Y-88.0
X112.0Y-90.54
X112.0Y-93.08
X112.0Y-98.0
X112.0Y-100.54
X112.0Y-103.08
X112.0Y-108.0
X112.0Y-110.54
X112.0Y-113.08
X112.0Y-118.0
X112.0Y-120.54
X112.0Y-123.08
X112.0Y-128.0
X112.0Y-130.54
X112.0Y-133.08
X112.0Y-138.0
X112.0Y-140.54
X112.0Y-143.08
X119.0Y-149.38
X119.0Y-151.92
X119.0Y-154.46
X119.0Y-157.0
X126.0Y-154.0
X128.54Y-154.0
X130.38Y-66.5
X131.08Y-154.0
X132.92Y-66.5
X133.62Y-154.0
X135.46Y-66.5
X138.0Y-66.5
X151.0Y-71.46
X151.0Y-74.0
X153.0Y-84.46
X153.0Y-87.0
X153.0Y-99.46
X153.0Y-102.0
X153.0Y-114.46
X153.0Y-117.0
X153.0Y-129.46
X153.0Y-132.0
X153.0Y-145.46
X153.0Y-148.0
T4
X112.0Y-155.0
X152.0Y-65.0
T0
M30
