G04 #@! TF.GenerationSoftware,KiCad,Pcbnew,(5.0.2)-1*
G04 #@! TF.CreationDate,2019-03-14T17:16:41+01:00*
G04 #@! TF.ProjectId,ventirad,76656e74-6972-4616-942e-6b696361645f,rev?*
G04 #@! TF.SameCoordinates,Original*
G04 #@! TF.FileFunction,Legend,Top*
G04 #@! TF.FilePolarity,Positive*
%FSLAX46Y46*%
G04 Gerber Fmt 4.6, Leading zero omitted, Abs format (unit mm)*
G04 Created by KiCad (PCBNEW (5.0.2)-1) date 14/03/2019 17:16:41*
%MOMM*%
%LPD*%
G01*
G04 APERTURE LIST*
%ADD10C,0.150000*%
%ADD11C,0.200000*%
%ADD12C,0.300000*%
G04 APERTURE END LIST*
D10*
X107000000Y-60000000D02*
X157000000Y-60000000D01*
X115238095Y-155500000D02*
X115142857Y-155452380D01*
X115000000Y-155452380D01*
X114857142Y-155500000D01*
X114761904Y-155595238D01*
X114714285Y-155690476D01*
X114666666Y-155880952D01*
X114666666Y-156023809D01*
X114714285Y-156214285D01*
X114761904Y-156309523D01*
X114857142Y-156404761D01*
X115000000Y-156452380D01*
X115095238Y-156452380D01*
X115238095Y-156404761D01*
X115285714Y-156357142D01*
X115285714Y-156023809D01*
X115095238Y-156023809D01*
X115714285Y-156452380D02*
X115714285Y-155452380D01*
X116285714Y-156452380D01*
X116285714Y-155452380D01*
X116761904Y-156452380D02*
X116761904Y-155452380D01*
X117000000Y-155452380D01*
X117142857Y-155500000D01*
X117238095Y-155595238D01*
X117285714Y-155690476D01*
X117333333Y-155880952D01*
X117333333Y-156023809D01*
X117285714Y-156214285D01*
X117238095Y-156309523D01*
X117142857Y-156404761D01*
X117000000Y-156452380D01*
X116761904Y-156452380D01*
X120714285Y-149071428D02*
X121476190Y-149071428D01*
X121095238Y-149452380D02*
X121095238Y-148690476D01*
X122428571Y-148452380D02*
X121952380Y-148452380D01*
X121904761Y-148928571D01*
X121952380Y-148880952D01*
X122047619Y-148833333D01*
X122285714Y-148833333D01*
X122380952Y-148880952D01*
X122428571Y-148928571D01*
X122476190Y-149023809D01*
X122476190Y-149261904D01*
X122428571Y-149357142D01*
X122380952Y-149404761D01*
X122285714Y-149452380D01*
X122047619Y-149452380D01*
X121952380Y-149404761D01*
X121904761Y-149357142D01*
X122761904Y-148452380D02*
X123095238Y-149452380D01*
X123428571Y-148452380D01*
X121785714Y-155404761D02*
X121928571Y-155452380D01*
X122166666Y-155452380D01*
X122261904Y-155404761D01*
X122309523Y-155357142D01*
X122357142Y-155261904D01*
X122357142Y-155166666D01*
X122309523Y-155071428D01*
X122261904Y-155023809D01*
X122166666Y-154976190D01*
X121976190Y-154928571D01*
X121880952Y-154880952D01*
X121833333Y-154833333D01*
X121785714Y-154738095D01*
X121785714Y-154642857D01*
X121833333Y-154547619D01*
X121880952Y-154500000D01*
X121976190Y-154452380D01*
X122214285Y-154452380D01*
X122357142Y-154500000D01*
X122785714Y-155452380D02*
X122785714Y-154452380D01*
X123023809Y-154452380D01*
X123166666Y-154500000D01*
X123261904Y-154595238D01*
X123309523Y-154690476D01*
X123357142Y-154880952D01*
X123357142Y-155023809D01*
X123309523Y-155214285D01*
X123261904Y-155309523D01*
X123166666Y-155404761D01*
X123023809Y-155452380D01*
X122785714Y-155452380D01*
X123738095Y-155166666D02*
X124214285Y-155166666D01*
X123642857Y-155452380D02*
X123976190Y-154452380D01*
X124309523Y-155452380D01*
D11*
X128452380Y-147056428D02*
X127452380Y-146931428D01*
X127452380Y-146693333D01*
X127500000Y-146556428D01*
X127595238Y-146473095D01*
X127690476Y-146437380D01*
X127880952Y-146413571D01*
X128023809Y-146431428D01*
X128214285Y-146502857D01*
X128309523Y-146562380D01*
X128404761Y-146669523D01*
X128452380Y-146818333D01*
X128452380Y-147056428D01*
X128404761Y-145669523D02*
X128452380Y-145770714D01*
X128452380Y-145961190D01*
X128404761Y-146050476D01*
X128309523Y-146086190D01*
X127928571Y-146038571D01*
X127833333Y-145979047D01*
X127785714Y-145877857D01*
X127785714Y-145687380D01*
X127833333Y-145598095D01*
X127928571Y-145562380D01*
X128023809Y-145574285D01*
X128119047Y-146062380D01*
X128404761Y-145240952D02*
X128452380Y-145151666D01*
X128452380Y-144961190D01*
X128404761Y-144860000D01*
X128309523Y-144800476D01*
X128261904Y-144794523D01*
X128166666Y-144830238D01*
X128119047Y-144919523D01*
X128119047Y-145062380D01*
X128071428Y-145151666D01*
X127976190Y-145187380D01*
X127928571Y-145181428D01*
X127833333Y-145121904D01*
X127785714Y-145020714D01*
X127785714Y-144877857D01*
X127833333Y-144788571D01*
X128452380Y-144389761D02*
X127785714Y-144306428D01*
X127452380Y-144264761D02*
X127500000Y-144318333D01*
X127547619Y-144276666D01*
X127500000Y-144223095D01*
X127452380Y-144264761D01*
X127547619Y-144276666D01*
X127785714Y-143401666D02*
X128595238Y-143502857D01*
X128690476Y-143562380D01*
X128738095Y-143615952D01*
X128785714Y-143717142D01*
X128785714Y-143860000D01*
X128738095Y-143949285D01*
X128404761Y-143479047D02*
X128452380Y-143580238D01*
X128452380Y-143770714D01*
X128404761Y-143860000D01*
X128357142Y-143901666D01*
X128261904Y-143937380D01*
X127976190Y-143901666D01*
X127880952Y-143842142D01*
X127833333Y-143788571D01*
X127785714Y-143687380D01*
X127785714Y-143496904D01*
X127833333Y-143407619D01*
X127785714Y-142925476D02*
X128452380Y-143008809D01*
X127880952Y-142937380D02*
X127833333Y-142883809D01*
X127785714Y-142782619D01*
X127785714Y-142639761D01*
X127833333Y-142550476D01*
X127928571Y-142514761D01*
X128452380Y-142580238D01*
X128452380Y-141342142D02*
X127452380Y-141217142D01*
X127833333Y-141264761D02*
X127785714Y-141163571D01*
X127785714Y-140973095D01*
X127833333Y-140883809D01*
X127880952Y-140842142D01*
X127976190Y-140806428D01*
X128261904Y-140842142D01*
X128357142Y-140901666D01*
X128404761Y-140955238D01*
X128452380Y-141056428D01*
X128452380Y-141246904D01*
X128404761Y-141336190D01*
X127785714Y-140449285D02*
X128452380Y-140294523D01*
X127785714Y-139973095D02*
X128452380Y-140294523D01*
X128690476Y-140419523D01*
X128738095Y-140473095D01*
X128785714Y-140574285D01*
X127785714Y-138211190D02*
X127785714Y-137830238D01*
X128452380Y-138151666D02*
X127595238Y-138044523D01*
X127500000Y-137985000D01*
X127452380Y-137883809D01*
X127452380Y-137788571D01*
X127452380Y-137026666D02*
X127452380Y-137217142D01*
X127500000Y-137318333D01*
X127547619Y-137371904D01*
X127690476Y-137485000D01*
X127880952Y-137556428D01*
X128261904Y-137604047D01*
X128357142Y-137568333D01*
X128404761Y-137526666D01*
X128452380Y-137437380D01*
X128452380Y-137246904D01*
X128404761Y-137145714D01*
X128357142Y-137092142D01*
X128261904Y-137032619D01*
X128023809Y-137002857D01*
X127928571Y-137038571D01*
X127880952Y-137080238D01*
X127833333Y-137169523D01*
X127833333Y-137360000D01*
X127880952Y-137461190D01*
X127928571Y-137514761D01*
X128023809Y-137574285D01*
X128452380Y-136627857D02*
X127785714Y-136544523D01*
X127452380Y-136502857D02*
X127500000Y-136556428D01*
X127547619Y-136514761D01*
X127500000Y-136461190D01*
X127452380Y-136502857D01*
X127547619Y-136514761D01*
X127785714Y-136211190D02*
X127785714Y-135830238D01*
X127452380Y-136026666D02*
X128309523Y-136133809D01*
X128404761Y-136098095D01*
X128452380Y-136008809D01*
X128452380Y-135913571D01*
X127785714Y-135068333D02*
X128452380Y-135151666D01*
X127785714Y-135496904D02*
X128309523Y-135562380D01*
X128404761Y-135526666D01*
X128452380Y-135437380D01*
X128452380Y-135294523D01*
X128404761Y-135193333D01*
X128357142Y-135139761D01*
D10*
X107000000Y-160000000D02*
X107000000Y-60000000D01*
X157000000Y-160000000D02*
X107000000Y-160000000D01*
X157000000Y-60000000D02*
X157000000Y-160000000D01*
D12*
X127617857Y-84879285D02*
X127617857Y-84379285D01*
X128403571Y-84263214D02*
X128403571Y-84977500D01*
X126903571Y-84790000D01*
X126903571Y-84075714D01*
X128403571Y-83406071D02*
X128332142Y-83540000D01*
X128189285Y-83593571D01*
X126903571Y-83432857D01*
X128332142Y-82254285D02*
X128403571Y-82406071D01*
X128403571Y-82691785D01*
X128332142Y-82825714D01*
X128189285Y-82879285D01*
X127617857Y-82807857D01*
X127475000Y-82718571D01*
X127403571Y-82566785D01*
X127403571Y-82281071D01*
X127475000Y-82147142D01*
X127617857Y-82093571D01*
X127760714Y-82111428D01*
X127903571Y-82843571D01*
X128332142Y-80897142D02*
X128403571Y-81048928D01*
X128403571Y-81334642D01*
X128332142Y-81468571D01*
X128260714Y-81531071D01*
X128117857Y-81584642D01*
X127689285Y-81531071D01*
X127546428Y-81441785D01*
X127475000Y-81361428D01*
X127403571Y-81209642D01*
X127403571Y-80923928D01*
X127475000Y-80790000D01*
X127403571Y-80352500D02*
X127403571Y-79781071D01*
X126903571Y-80075714D02*
X128189285Y-80236428D01*
X128332142Y-80182857D01*
X128403571Y-80048928D01*
X128403571Y-79906071D01*
X128403571Y-79406071D02*
X127403571Y-79281071D01*
X127689285Y-79316785D02*
X127546428Y-79227500D01*
X127475000Y-79147142D01*
X127403571Y-78995357D01*
X127403571Y-78852500D01*
X128403571Y-78263214D02*
X128332142Y-78397142D01*
X128260714Y-78459642D01*
X128117857Y-78513214D01*
X127689285Y-78459642D01*
X127546428Y-78370357D01*
X127475000Y-78290000D01*
X127403571Y-78138214D01*
X127403571Y-77923928D01*
X127475000Y-77790000D01*
X127546428Y-77727500D01*
X127689285Y-77673928D01*
X128117857Y-77727500D01*
X128260714Y-77816785D01*
X128332142Y-77897142D01*
X128403571Y-78048928D01*
X128403571Y-78263214D01*
X128403571Y-76906071D02*
X128332142Y-77040000D01*
X128189285Y-77093571D01*
X126903571Y-76932857D01*
X128403571Y-75691785D02*
X127617857Y-75593571D01*
X127475000Y-75647142D01*
X127403571Y-75781071D01*
X127403571Y-76066785D01*
X127475000Y-76218571D01*
X128332142Y-75682857D02*
X128403571Y-75834642D01*
X128403571Y-76191785D01*
X128332142Y-76325714D01*
X128189285Y-76379285D01*
X128046428Y-76361428D01*
X127903571Y-76272142D01*
X127832142Y-76120357D01*
X127832142Y-75763214D01*
X127760714Y-75611428D01*
X128403571Y-74977500D02*
X126903571Y-74790000D01*
X127475000Y-74861428D02*
X127403571Y-74709642D01*
X127403571Y-74423928D01*
X127475000Y-74290000D01*
X127546428Y-74227500D01*
X127689285Y-74173928D01*
X128117857Y-74227500D01*
X128260714Y-74316785D01*
X128332142Y-74397142D01*
X128403571Y-74548928D01*
X128403571Y-74834642D01*
X128332142Y-74968571D01*
X130953571Y-88727500D02*
X129453571Y-88540000D01*
X129453571Y-87968571D01*
X129525000Y-87834642D01*
X129596428Y-87772142D01*
X129739285Y-87718571D01*
X129953571Y-87745357D01*
X130096428Y-87834642D01*
X130167857Y-87915000D01*
X130239285Y-88066785D01*
X130239285Y-88638214D01*
X129453571Y-86754285D02*
X129453571Y-86611428D01*
X129525000Y-86477500D01*
X129596428Y-86415000D01*
X129739285Y-86361428D01*
X130025000Y-86325714D01*
X130382142Y-86370357D01*
X130667857Y-86477500D01*
X130810714Y-86566785D01*
X130882142Y-86647142D01*
X130953571Y-86798928D01*
X130953571Y-86941785D01*
X130882142Y-87075714D01*
X130810714Y-87138214D01*
X130667857Y-87191785D01*
X130382142Y-87227500D01*
X130025000Y-87182857D01*
X129739285Y-87075714D01*
X129596428Y-86986428D01*
X129525000Y-86906071D01*
X129453571Y-86754285D01*
X129953571Y-85816785D02*
X130953571Y-85656071D01*
X130239285Y-85281071D01*
X130953571Y-85084642D01*
X129953571Y-84673928D01*
X130525000Y-84245357D02*
X130525000Y-83531071D01*
X130953571Y-84441785D02*
X129453571Y-83754285D01*
X130953571Y-83441785D01*
X130953571Y-82941785D02*
X129953571Y-82816785D01*
X130239285Y-82852500D02*
X130096428Y-82763214D01*
X130025000Y-82682857D01*
X129953571Y-82531071D01*
X129953571Y-82388214D01*
X130953571Y-81370357D02*
X129453571Y-81182857D01*
X130882142Y-81361428D02*
X130953571Y-81513214D01*
X130953571Y-81798928D01*
X130882142Y-81932857D01*
X130810714Y-81995357D01*
X130667857Y-82048928D01*
X130239285Y-81995357D01*
X130096428Y-81906071D01*
X130025000Y-81825714D01*
X129953571Y-81673928D01*
X129953571Y-81388214D01*
X130025000Y-81254285D01*
X129953571Y-79888214D02*
X130953571Y-80013214D01*
X129953571Y-80531071D02*
X130739285Y-80629285D01*
X130882142Y-80575714D01*
X130953571Y-80441785D01*
X130953571Y-80227500D01*
X130882142Y-80075714D01*
X130810714Y-79995357D01*
X130953571Y-79298928D02*
X129953571Y-79173928D01*
X129453571Y-79111428D02*
X129525000Y-79191785D01*
X129596428Y-79129285D01*
X129525000Y-79048928D01*
X129453571Y-79111428D01*
X129596428Y-79129285D01*
X129953571Y-78459642D02*
X130953571Y-78584642D01*
X130096428Y-78477500D02*
X130025000Y-78397142D01*
X129953571Y-78245357D01*
X129953571Y-78031071D01*
X130025000Y-77897142D01*
X130167857Y-77843571D01*
X130953571Y-77941785D01*
X130953571Y-77013214D02*
X130882142Y-77147142D01*
X130810714Y-77209642D01*
X130667857Y-77263214D01*
X130239285Y-77209642D01*
X130096428Y-77120357D01*
X130025000Y-77040000D01*
X129953571Y-76888214D01*
X129953571Y-76673928D01*
X130025000Y-76540000D01*
X130096428Y-76477500D01*
X130239285Y-76423928D01*
X130667857Y-76477500D01*
X130810714Y-76566785D01*
X130882142Y-76647142D01*
X130953571Y-76798928D01*
X130953571Y-77013214D01*
X129453571Y-74754285D02*
X130953571Y-74441785D01*
X129453571Y-73754285D01*
X129453571Y-73397142D02*
X129453571Y-72468571D01*
X130025000Y-73040000D01*
X130025000Y-72825714D01*
X130096428Y-72691785D01*
X130167857Y-72629285D01*
X130310714Y-72575714D01*
X130667857Y-72620357D01*
X130810714Y-72709642D01*
X130882142Y-72790000D01*
X130953571Y-72941785D01*
X130953571Y-73370357D01*
X130882142Y-73504285D01*
X130810714Y-73566785D01*
X130810714Y-71995357D02*
X130882142Y-71932857D01*
X130953571Y-72013214D01*
X130882142Y-72075714D01*
X130810714Y-71995357D01*
X130953571Y-72013214D01*
X129453571Y-70825714D02*
X129453571Y-70682857D01*
X129525000Y-70548928D01*
X129596428Y-70486428D01*
X129739285Y-70432857D01*
X130025000Y-70397142D01*
X130382142Y-70441785D01*
X130667857Y-70548928D01*
X130810714Y-70638214D01*
X130882142Y-70718571D01*
X130953571Y-70870357D01*
X130953571Y-71013214D01*
X130882142Y-71147142D01*
X130810714Y-71209642D01*
X130667857Y-71263214D01*
X130382142Y-71298928D01*
X130025000Y-71254285D01*
X129739285Y-71147142D01*
X129596428Y-71057857D01*
X129525000Y-70977500D01*
X129453571Y-70825714D01*
D10*
G04 #@! TO.C,C1*
X121000000Y-75025000D02*
X123000000Y-75025000D01*
X123000000Y-72975000D02*
X121000000Y-72975000D01*
G04 #@! TO.C,C3*
X116975000Y-83250000D02*
X116975000Y-85250000D01*
X119025000Y-85250000D02*
X119025000Y-83250000D01*
G04 #@! TO.C,C4*
X112850000Y-147000000D02*
X112850000Y-146000000D01*
X111150000Y-146000000D02*
X111150000Y-147000000D01*
G04 #@! TO.C,Q1*
X139499820Y-151949200D02*
X139499820Y-152650240D01*
X139499820Y-152650240D02*
X139250900Y-152650240D01*
X136700840Y-152650240D02*
X136500180Y-152650240D01*
X136500180Y-152650240D02*
X136500180Y-151949200D01*
G04 #@! TO.C,Q2*
X148670000Y-151130000D02*
X148670000Y-154305000D01*
X148670000Y-154305000D02*
X150448000Y-154305000D01*
X150448000Y-154305000D02*
X150448000Y-151130000D01*
X144098000Y-151130000D02*
X144098000Y-154305000D01*
X144098000Y-154305000D02*
X145876000Y-154305000D01*
X145876000Y-154305000D02*
X145876000Y-151130000D01*
X150702000Y-145034000D02*
X150702000Y-151130000D01*
X150702000Y-151130000D02*
X143844000Y-151130000D01*
X143844000Y-151130000D02*
X143844000Y-143256000D01*
X143844000Y-143129000D02*
X150702000Y-143129000D01*
X150702000Y-143256000D02*
X150702000Y-145034000D01*
G04 #@! TO.C,Q3*
X143539200Y-138200180D02*
X144240240Y-138200180D01*
X144240240Y-138200180D02*
X144240240Y-138449100D01*
X144240240Y-140999160D02*
X144240240Y-141199820D01*
X144240240Y-141199820D02*
X143539200Y-141199820D01*
G04 #@! TO.C,Q4*
X148797000Y-135636000D02*
X148797000Y-138811000D01*
X148797000Y-138811000D02*
X150575000Y-138811000D01*
X150575000Y-138811000D02*
X150575000Y-135636000D01*
X144225000Y-135636000D02*
X144225000Y-138811000D01*
X144225000Y-138811000D02*
X146003000Y-138811000D01*
X146003000Y-138811000D02*
X146003000Y-135636000D01*
X150829000Y-129540000D02*
X150829000Y-135636000D01*
X150829000Y-135636000D02*
X143971000Y-135636000D01*
X143971000Y-135636000D02*
X143971000Y-127762000D01*
X143971000Y-127635000D02*
X150829000Y-127635000D01*
X150829000Y-127762000D02*
X150829000Y-129540000D01*
G04 #@! TO.C,Q5*
X143539200Y-122960180D02*
X144240240Y-122960180D01*
X144240240Y-122960180D02*
X144240240Y-123209100D01*
X144240240Y-125759160D02*
X144240240Y-125959820D01*
X144240240Y-125959820D02*
X143539200Y-125959820D01*
G04 #@! TO.C,Q6*
X148797000Y-120396000D02*
X148797000Y-123571000D01*
X148797000Y-123571000D02*
X150575000Y-123571000D01*
X150575000Y-123571000D02*
X150575000Y-120396000D01*
X144225000Y-120396000D02*
X144225000Y-123571000D01*
X144225000Y-123571000D02*
X146003000Y-123571000D01*
X146003000Y-123571000D02*
X146003000Y-120396000D01*
X150829000Y-114300000D02*
X150829000Y-120396000D01*
X150829000Y-120396000D02*
X143971000Y-120396000D01*
X143971000Y-120396000D02*
X143971000Y-112522000D01*
X143971000Y-112395000D02*
X150829000Y-112395000D01*
X150829000Y-112522000D02*
X150829000Y-114300000D01*
G04 #@! TO.C,Q7*
X143539200Y-107720180D02*
X144240240Y-107720180D01*
X144240240Y-107720180D02*
X144240240Y-107969100D01*
X144240240Y-110519160D02*
X144240240Y-110719820D01*
X144240240Y-110719820D02*
X143539200Y-110719820D01*
G04 #@! TO.C,Q8*
X148797000Y-105156000D02*
X148797000Y-108331000D01*
X148797000Y-108331000D02*
X150575000Y-108331000D01*
X150575000Y-108331000D02*
X150575000Y-105156000D01*
X144225000Y-105156000D02*
X144225000Y-108331000D01*
X144225000Y-108331000D02*
X146003000Y-108331000D01*
X146003000Y-108331000D02*
X146003000Y-105156000D01*
X150829000Y-99060000D02*
X150829000Y-105156000D01*
X150829000Y-105156000D02*
X143971000Y-105156000D01*
X143971000Y-105156000D02*
X143971000Y-97282000D01*
X143971000Y-97155000D02*
X150829000Y-97155000D01*
X150829000Y-97282000D02*
X150829000Y-99060000D01*
G04 #@! TO.C,Q9*
X143539200Y-92480180D02*
X144240240Y-92480180D01*
X144240240Y-92480180D02*
X144240240Y-92729100D01*
X144240240Y-95279160D02*
X144240240Y-95479820D01*
X144240240Y-95479820D02*
X143539200Y-95479820D01*
G04 #@! TO.C,Q10*
X148797000Y-89916000D02*
X148797000Y-93091000D01*
X148797000Y-93091000D02*
X150575000Y-93091000D01*
X150575000Y-93091000D02*
X150575000Y-89916000D01*
X144225000Y-89916000D02*
X144225000Y-93091000D01*
X144225000Y-93091000D02*
X146003000Y-93091000D01*
X146003000Y-93091000D02*
X146003000Y-89916000D01*
X150829000Y-83820000D02*
X150829000Y-89916000D01*
X150829000Y-89916000D02*
X143971000Y-89916000D01*
X143971000Y-89916000D02*
X143971000Y-82042000D01*
X143971000Y-81915000D02*
X150829000Y-81915000D01*
X150829000Y-82042000D02*
X150829000Y-83820000D01*
G04 #@! TO.C,Q11*
X132500180Y-84050800D02*
X132500180Y-83349760D01*
X132500180Y-83349760D02*
X132749100Y-83349760D01*
X135299160Y-83349760D02*
X135499820Y-83349760D01*
X135499820Y-83349760D02*
X135499820Y-84050800D01*
G04 #@! TO.C,Q12*
X140397000Y-79826000D02*
X140397000Y-83001000D01*
X140397000Y-83001000D02*
X142175000Y-83001000D01*
X142175000Y-83001000D02*
X142175000Y-79826000D01*
X135825000Y-79826000D02*
X135825000Y-83001000D01*
X135825000Y-83001000D02*
X137603000Y-83001000D01*
X137603000Y-83001000D02*
X137603000Y-79826000D01*
X142429000Y-73730000D02*
X142429000Y-79826000D01*
X142429000Y-79826000D02*
X135571000Y-79826000D01*
X135571000Y-79826000D02*
X135571000Y-71952000D01*
X135571000Y-71825000D02*
X142429000Y-71825000D01*
X142429000Y-71952000D02*
X142429000Y-73730000D01*
G04 #@! TO.C,U1*
X121603000Y-87274000D02*
X121603000Y-84099000D01*
X121603000Y-84099000D02*
X119825000Y-84099000D01*
X119825000Y-84099000D02*
X119825000Y-87274000D01*
X126175000Y-87274000D02*
X126175000Y-84099000D01*
X126175000Y-84099000D02*
X124397000Y-84099000D01*
X124397000Y-84099000D02*
X124397000Y-87274000D01*
X119571000Y-93370000D02*
X119571000Y-87274000D01*
X119571000Y-87274000D02*
X126429000Y-87274000D01*
X126429000Y-87274000D02*
X126429000Y-95148000D01*
X126429000Y-95275000D02*
X119571000Y-95275000D01*
X119571000Y-95148000D02*
X119571000Y-93370000D01*
G04 #@! TO.C,D1*
X122250000Y-78000000D02*
X121700000Y-78450000D01*
X121700000Y-78450000D02*
X121700000Y-77550000D01*
X121700000Y-77550000D02*
X122250000Y-78000000D01*
X122250000Y-78550000D02*
X122250000Y-77450000D01*
X123799140Y-76249940D02*
X123799140Y-76600460D01*
X123799140Y-79750060D02*
X123799140Y-79399540D01*
X119749560Y-76249940D02*
X119749560Y-76600460D01*
X124250440Y-76249940D02*
X124250440Y-76600460D01*
X124250440Y-79750060D02*
X124250440Y-79399540D01*
X119749560Y-79750060D02*
X119749560Y-79399540D01*
X124250440Y-76249940D02*
X119749560Y-76249940D01*
X124250440Y-79750060D02*
X119749560Y-79750060D01*
G04 #@! TO.C,R11*
X141290000Y-134655000D02*
X141290000Y-135855000D01*
X139540000Y-135855000D02*
X139540000Y-134655000D01*
G04 #@! TO.C,R12*
X139740000Y-140200000D02*
X139740000Y-139200000D01*
X141090000Y-139200000D02*
X141090000Y-140200000D01*
G04 #@! TO.C,R13*
X146900000Y-136485000D02*
X147900000Y-136485000D01*
X147900000Y-137835000D02*
X146900000Y-137835000D01*
G04 #@! TO.C,R14*
X136365000Y-125695000D02*
X136365000Y-124495000D01*
X138115000Y-124495000D02*
X138115000Y-125695000D01*
G04 #@! TO.C,R15*
X139740000Y-124960000D02*
X139740000Y-123960000D01*
X141090000Y-123960000D02*
X141090000Y-124960000D01*
G04 #@! TO.C,R16*
X146900000Y-121245000D02*
X147900000Y-121245000D01*
X147900000Y-122595000D02*
X146900000Y-122595000D01*
G04 #@! TO.C,R17*
X138270000Y-115535000D02*
X138270000Y-114335000D01*
X140020000Y-114335000D02*
X140020000Y-115535000D01*
G04 #@! TO.C,R18*
X139740000Y-109720000D02*
X139740000Y-108720000D01*
X141090000Y-108720000D02*
X141090000Y-109720000D01*
G04 #@! TO.C,R19*
X146900000Y-106005000D02*
X147900000Y-106005000D01*
X147900000Y-107355000D02*
X146900000Y-107355000D01*
G04 #@! TO.C,R20*
X137000000Y-95215000D02*
X137000000Y-94015000D01*
X138750000Y-94015000D02*
X138750000Y-95215000D01*
G04 #@! TO.C,R21*
X139740000Y-94480000D02*
X139740000Y-93480000D01*
X141090000Y-93480000D02*
X141090000Y-94480000D01*
G04 #@! TO.C,R22*
X146900000Y-90765000D02*
X147900000Y-90765000D01*
X147900000Y-92115000D02*
X146900000Y-92115000D01*
G04 #@! TO.C,R23*
X132125000Y-90600000D02*
X132125000Y-89400000D01*
X133875000Y-89400000D02*
X133875000Y-90600000D01*
G04 #@! TO.C,R24*
X137500000Y-88675000D02*
X136500000Y-88675000D01*
X136500000Y-87325000D02*
X137500000Y-87325000D01*
G04 #@! TO.C,R25*
X138500000Y-81325000D02*
X139500000Y-81325000D01*
X139500000Y-82675000D02*
X138500000Y-82675000D01*
G04 #@! TO.C,R31*
X115375000Y-145900000D02*
X115375000Y-147100000D01*
X113625000Y-147100000D02*
X113625000Y-145900000D01*
G04 #@! TO.C,R1*
X117900000Y-144125000D02*
X119100000Y-144125000D01*
X119100000Y-145875000D02*
X117900000Y-145875000D01*
G04 #@! TO.C,R8*
X137400000Y-143125000D02*
X138600000Y-143125000D01*
X138600000Y-144875000D02*
X137400000Y-144875000D01*
G04 #@! TO.C,R9*
X137500000Y-146325000D02*
X138500000Y-146325000D01*
X138500000Y-147675000D02*
X137500000Y-147675000D01*
G04 #@! TO.C,R10*
X146773000Y-152233000D02*
X147773000Y-152233000D01*
X147773000Y-153583000D02*
X146773000Y-153583000D01*
G04 #@! TO.C,Q13*
X125800800Y-131249820D02*
X125099760Y-131249820D01*
X125099760Y-131249820D02*
X125099760Y-131000900D01*
X125099760Y-128450840D02*
X125099760Y-128250180D01*
X125099760Y-128250180D02*
X125800800Y-128250180D01*
G04 #@! TO.C,Q14*
X125800800Y-124999820D02*
X125099760Y-124999820D01*
X125099760Y-124999820D02*
X125099760Y-124750900D01*
X125099760Y-122200840D02*
X125099760Y-122000180D01*
X125099760Y-122000180D02*
X125800800Y-122000180D01*
G04 #@! TO.C,Q15*
X125800800Y-118999820D02*
X125099760Y-118999820D01*
X125099760Y-118999820D02*
X125099760Y-118750900D01*
X125099760Y-116200840D02*
X125099760Y-116000180D01*
X125099760Y-116000180D02*
X125800800Y-116000180D01*
G04 #@! TO.C,Q16*
X125800800Y-110999820D02*
X125099760Y-110999820D01*
X125099760Y-110999820D02*
X125099760Y-110750900D01*
X125099760Y-108200840D02*
X125099760Y-108000180D01*
X125099760Y-108000180D02*
X125800800Y-108000180D01*
G04 #@! TO.C,Q17*
X125800800Y-104499820D02*
X125099760Y-104499820D01*
X125099760Y-104499820D02*
X125099760Y-104250900D01*
X125099760Y-101700840D02*
X125099760Y-101500180D01*
X125099760Y-101500180D02*
X125800800Y-101500180D01*
G04 #@! TO.C,Q18*
X128050800Y-99499820D02*
X127349760Y-99499820D01*
X127349760Y-99499820D02*
X127349760Y-99250900D01*
X127349760Y-96700840D02*
X127349760Y-96500180D01*
X127349760Y-96500180D02*
X128050800Y-96500180D01*
G04 #@! TO.C,R2*
X130175000Y-129250000D02*
X130175000Y-130250000D01*
X128825000Y-130250000D02*
X128825000Y-129250000D01*
G04 #@! TO.C,R3*
X129925000Y-123000000D02*
X129925000Y-124000000D01*
X128575000Y-124000000D02*
X128575000Y-123000000D01*
G04 #@! TO.C,R4*
X129925000Y-117250000D02*
X129925000Y-118250000D01*
X128575000Y-118250000D02*
X128575000Y-117250000D01*
G04 #@! TO.C,R5*
X129925000Y-109000000D02*
X129925000Y-110000000D01*
X128575000Y-110000000D02*
X128575000Y-109000000D01*
G04 #@! TO.C,R6*
X129925000Y-102500000D02*
X129925000Y-103500000D01*
X128575000Y-103500000D02*
X128575000Y-102500000D01*
G04 #@! TO.C,R7*
X130000000Y-94325000D02*
X131000000Y-94325000D01*
X131000000Y-95675000D02*
X130000000Y-95675000D01*
G04 #@! TO.C,R26*
X132375000Y-129400000D02*
X132375000Y-130600000D01*
X130625000Y-130600000D02*
X130625000Y-129400000D01*
G04 #@! TO.C,R27*
X132375000Y-122900000D02*
X132375000Y-124100000D01*
X130625000Y-124100000D02*
X130625000Y-122900000D01*
G04 #@! TO.C,R28*
X132375000Y-116400000D02*
X132375000Y-117600000D01*
X130625000Y-117600000D02*
X130625000Y-116400000D01*
G04 #@! TO.C,R29*
X132125000Y-108650000D02*
X132125000Y-109850000D01*
X130375000Y-109850000D02*
X130375000Y-108650000D01*
G04 #@! TO.C,R30*
X132375000Y-102650000D02*
X132375000Y-103850000D01*
X130625000Y-103850000D02*
X130625000Y-102650000D01*
G04 #@! TO.C,R32*
X133125000Y-97100000D02*
X133125000Y-95900000D01*
X134875000Y-95900000D02*
X134875000Y-97100000D01*
G04 #@! TO.C,R33*
X124250000Y-133425000D02*
X123250000Y-133425000D01*
X123250000Y-132075000D02*
X124250000Y-132075000D01*
G04 #@! TO.C,R34*
X124250000Y-127175000D02*
X123250000Y-127175000D01*
X123250000Y-125825000D02*
X124250000Y-125825000D01*
G04 #@! TO.C,R35*
X124250000Y-120925000D02*
X123250000Y-120925000D01*
X123250000Y-119575000D02*
X124250000Y-119575000D01*
G04 #@! TO.C,R36*
X123500000Y-108175000D02*
X122500000Y-108175000D01*
X122500000Y-106825000D02*
X123500000Y-106825000D01*
G04 #@! TO.C,R37*
X123500000Y-100675000D02*
X122500000Y-100675000D01*
X122500000Y-99325000D02*
X123500000Y-99325000D01*
G04 #@! TO.C,R38*
X123500000Y-98675000D02*
X122500000Y-98675000D01*
X122500000Y-97325000D02*
X123500000Y-97325000D01*
G04 #@! TO.C,*
X154286000Y-65000000D02*
G75*
G03X154286000Y-65000000I-2286000J0D01*
G01*
X114286000Y-155000000D02*
G75*
G03X114286000Y-155000000I-2286000J0D01*
G01*
G04 #@! TO.C,C11*
X145025000Y-77000000D02*
X145025000Y-75000000D01*
X142975000Y-75000000D02*
X142975000Y-77000000D01*
G04 #@! TO.C,C12*
X154025000Y-138000000D02*
X154025000Y-136000000D01*
X151975000Y-136000000D02*
X151975000Y-138000000D01*
G04 #@! TO.C,C13*
X154025000Y-123000000D02*
X154025000Y-121000000D01*
X151975000Y-121000000D02*
X151975000Y-123000000D01*
G04 #@! TO.C,C14*
X154025000Y-93000000D02*
X154025000Y-91000000D01*
X151975000Y-91000000D02*
X151975000Y-93000000D01*
G04 #@! TO.C,C15*
X154025000Y-108000000D02*
X154025000Y-106000000D01*
X151975000Y-106000000D02*
X151975000Y-108000000D01*
G04 #@! TO.C,C16*
X150975000Y-153000000D02*
X150975000Y-155000000D01*
X153025000Y-155000000D02*
X153025000Y-153000000D01*
G04 #@! TD*
G04 #@! TO.C,C1*
X116833333Y-74857142D02*
X116785714Y-74904761D01*
X116642857Y-74952380D01*
X116547619Y-74952380D01*
X116404761Y-74904761D01*
X116309523Y-74809523D01*
X116261904Y-74714285D01*
X116214285Y-74523809D01*
X116214285Y-74380952D01*
X116261904Y-74190476D01*
X116309523Y-74095238D01*
X116404761Y-74000000D01*
X116547619Y-73952380D01*
X116642857Y-73952380D01*
X116785714Y-74000000D01*
X116833333Y-74047619D01*
X117785714Y-74952380D02*
X117214285Y-74952380D01*
X117500000Y-74952380D02*
X117500000Y-73952380D01*
X117404761Y-74095238D01*
X117309523Y-74190476D01*
X117214285Y-74238095D01*
G04 #@! TO.C,C3*
X116057142Y-84416666D02*
X116104761Y-84464285D01*
X116152380Y-84607142D01*
X116152380Y-84702380D01*
X116104761Y-84845238D01*
X116009523Y-84940476D01*
X115914285Y-84988095D01*
X115723809Y-85035714D01*
X115580952Y-85035714D01*
X115390476Y-84988095D01*
X115295238Y-84940476D01*
X115200000Y-84845238D01*
X115152380Y-84702380D01*
X115152380Y-84607142D01*
X115200000Y-84464285D01*
X115247619Y-84416666D01*
X115152380Y-84083333D02*
X115152380Y-83464285D01*
X115533333Y-83797619D01*
X115533333Y-83654761D01*
X115580952Y-83559523D01*
X115628571Y-83511904D01*
X115723809Y-83464285D01*
X115961904Y-83464285D01*
X116057142Y-83511904D01*
X116104761Y-83559523D01*
X116152380Y-83654761D01*
X116152380Y-83940476D01*
X116104761Y-84035714D01*
X116057142Y-84083333D01*
G04 #@! TO.C,C4*
X112357142Y-150166666D02*
X112404761Y-150214285D01*
X112452380Y-150357142D01*
X112452380Y-150452380D01*
X112404761Y-150595238D01*
X112309523Y-150690476D01*
X112214285Y-150738095D01*
X112023809Y-150785714D01*
X111880952Y-150785714D01*
X111690476Y-150738095D01*
X111595238Y-150690476D01*
X111500000Y-150595238D01*
X111452380Y-150452380D01*
X111452380Y-150357142D01*
X111500000Y-150214285D01*
X111547619Y-150166666D01*
X111785714Y-149309523D02*
X112452380Y-149309523D01*
X111404761Y-149547619D02*
X112119047Y-149785714D01*
X112119047Y-149166666D01*
G04 #@! TO.C,Q1*
X136241619Y-151886238D02*
X136194000Y-151981476D01*
X136098761Y-152076714D01*
X135955904Y-152219571D01*
X135908285Y-152314809D01*
X135908285Y-152410047D01*
X136146380Y-152362428D02*
X136098761Y-152457666D01*
X136003523Y-152552904D01*
X135813047Y-152600523D01*
X135479714Y-152600523D01*
X135289238Y-152552904D01*
X135194000Y-152457666D01*
X135146380Y-152362428D01*
X135146380Y-152171952D01*
X135194000Y-152076714D01*
X135289238Y-151981476D01*
X135479714Y-151933857D01*
X135813047Y-151933857D01*
X136003523Y-151981476D01*
X136098761Y-152076714D01*
X136146380Y-152171952D01*
X136146380Y-152362428D01*
X136146380Y-150981476D02*
X136146380Y-151552904D01*
X136146380Y-151267190D02*
X135146380Y-151267190D01*
X135289238Y-151362428D01*
X135384476Y-151457666D01*
X135432095Y-151552904D01*
G04 #@! TO.C,Q2*
X142404761Y-148047619D02*
X142309523Y-148000000D01*
X142214285Y-147904761D01*
X142071428Y-147761904D01*
X141976190Y-147714285D01*
X141880952Y-147714285D01*
X141928571Y-147952380D02*
X141833333Y-147904761D01*
X141738095Y-147809523D01*
X141690476Y-147619047D01*
X141690476Y-147285714D01*
X141738095Y-147095238D01*
X141833333Y-147000000D01*
X141928571Y-146952380D01*
X142119047Y-146952380D01*
X142214285Y-147000000D01*
X142309523Y-147095238D01*
X142357142Y-147285714D01*
X142357142Y-147619047D01*
X142309523Y-147809523D01*
X142214285Y-147904761D01*
X142119047Y-147952380D01*
X141928571Y-147952380D01*
X142738095Y-147047619D02*
X142785714Y-147000000D01*
X142880952Y-146952380D01*
X143119047Y-146952380D01*
X143214285Y-147000000D01*
X143261904Y-147047619D01*
X143309523Y-147142857D01*
X143309523Y-147238095D01*
X143261904Y-147380952D01*
X142690476Y-147952380D01*
X143309523Y-147952380D01*
G04 #@! TO.C,Q3*
X144904761Y-141547619D02*
X144809523Y-141500000D01*
X144714285Y-141404761D01*
X144571428Y-141261904D01*
X144476190Y-141214285D01*
X144380952Y-141214285D01*
X144428571Y-141452380D02*
X144333333Y-141404761D01*
X144238095Y-141309523D01*
X144190476Y-141119047D01*
X144190476Y-140785714D01*
X144238095Y-140595238D01*
X144333333Y-140500000D01*
X144428571Y-140452380D01*
X144619047Y-140452380D01*
X144714285Y-140500000D01*
X144809523Y-140595238D01*
X144857142Y-140785714D01*
X144857142Y-141119047D01*
X144809523Y-141309523D01*
X144714285Y-141404761D01*
X144619047Y-141452380D01*
X144428571Y-141452380D01*
X145190476Y-140452380D02*
X145809523Y-140452380D01*
X145476190Y-140833333D01*
X145619047Y-140833333D01*
X145714285Y-140880952D01*
X145761904Y-140928571D01*
X145809523Y-141023809D01*
X145809523Y-141261904D01*
X145761904Y-141357142D01*
X145714285Y-141404761D01*
X145619047Y-141452380D01*
X145333333Y-141452380D01*
X145238095Y-141404761D01*
X145190476Y-141357142D01*
G04 #@! TO.C,Q4*
X142904761Y-132047619D02*
X142809523Y-132000000D01*
X142714285Y-131904761D01*
X142571428Y-131761904D01*
X142476190Y-131714285D01*
X142380952Y-131714285D01*
X142428571Y-131952380D02*
X142333333Y-131904761D01*
X142238095Y-131809523D01*
X142190476Y-131619047D01*
X142190476Y-131285714D01*
X142238095Y-131095238D01*
X142333333Y-131000000D01*
X142428571Y-130952380D01*
X142619047Y-130952380D01*
X142714285Y-131000000D01*
X142809523Y-131095238D01*
X142857142Y-131285714D01*
X142857142Y-131619047D01*
X142809523Y-131809523D01*
X142714285Y-131904761D01*
X142619047Y-131952380D01*
X142428571Y-131952380D01*
X143714285Y-131285714D02*
X143714285Y-131952380D01*
X143476190Y-130904761D02*
X143238095Y-131619047D01*
X143857142Y-131619047D01*
G04 #@! TO.C,Q5*
X142404761Y-127547619D02*
X142309523Y-127500000D01*
X142214285Y-127404761D01*
X142071428Y-127261904D01*
X141976190Y-127214285D01*
X141880952Y-127214285D01*
X141928571Y-127452380D02*
X141833333Y-127404761D01*
X141738095Y-127309523D01*
X141690476Y-127119047D01*
X141690476Y-126785714D01*
X141738095Y-126595238D01*
X141833333Y-126500000D01*
X141928571Y-126452380D01*
X142119047Y-126452380D01*
X142214285Y-126500000D01*
X142309523Y-126595238D01*
X142357142Y-126785714D01*
X142357142Y-127119047D01*
X142309523Y-127309523D01*
X142214285Y-127404761D01*
X142119047Y-127452380D01*
X141928571Y-127452380D01*
X143261904Y-126452380D02*
X142785714Y-126452380D01*
X142738095Y-126928571D01*
X142785714Y-126880952D01*
X142880952Y-126833333D01*
X143119047Y-126833333D01*
X143214285Y-126880952D01*
X143261904Y-126928571D01*
X143309523Y-127023809D01*
X143309523Y-127261904D01*
X143261904Y-127357142D01*
X143214285Y-127404761D01*
X143119047Y-127452380D01*
X142880952Y-127452380D01*
X142785714Y-127404761D01*
X142738095Y-127357142D01*
G04 #@! TO.C,Q6*
X142904761Y-116547619D02*
X142809523Y-116500000D01*
X142714285Y-116404761D01*
X142571428Y-116261904D01*
X142476190Y-116214285D01*
X142380952Y-116214285D01*
X142428571Y-116452380D02*
X142333333Y-116404761D01*
X142238095Y-116309523D01*
X142190476Y-116119047D01*
X142190476Y-115785714D01*
X142238095Y-115595238D01*
X142333333Y-115500000D01*
X142428571Y-115452380D01*
X142619047Y-115452380D01*
X142714285Y-115500000D01*
X142809523Y-115595238D01*
X142857142Y-115785714D01*
X142857142Y-116119047D01*
X142809523Y-116309523D01*
X142714285Y-116404761D01*
X142619047Y-116452380D01*
X142428571Y-116452380D01*
X143714285Y-115452380D02*
X143523809Y-115452380D01*
X143428571Y-115500000D01*
X143380952Y-115547619D01*
X143285714Y-115690476D01*
X143238095Y-115880952D01*
X143238095Y-116261904D01*
X143285714Y-116357142D01*
X143333333Y-116404761D01*
X143428571Y-116452380D01*
X143619047Y-116452380D01*
X143714285Y-116404761D01*
X143761904Y-116357142D01*
X143809523Y-116261904D01*
X143809523Y-116023809D01*
X143761904Y-115928571D01*
X143714285Y-115880952D01*
X143619047Y-115833333D01*
X143428571Y-115833333D01*
X143333333Y-115880952D01*
X143285714Y-115928571D01*
X143238095Y-116023809D01*
G04 #@! TO.C,Q7*
X143404761Y-112047619D02*
X143309523Y-112000000D01*
X143214285Y-111904761D01*
X143071428Y-111761904D01*
X142976190Y-111714285D01*
X142880952Y-111714285D01*
X142928571Y-111952380D02*
X142833333Y-111904761D01*
X142738095Y-111809523D01*
X142690476Y-111619047D01*
X142690476Y-111285714D01*
X142738095Y-111095238D01*
X142833333Y-111000000D01*
X142928571Y-110952380D01*
X143119047Y-110952380D01*
X143214285Y-111000000D01*
X143309523Y-111095238D01*
X143357142Y-111285714D01*
X143357142Y-111619047D01*
X143309523Y-111809523D01*
X143214285Y-111904761D01*
X143119047Y-111952380D01*
X142928571Y-111952380D01*
X143690476Y-110952380D02*
X144357142Y-110952380D01*
X143928571Y-111952380D01*
G04 #@! TO.C,Q8*
X142904761Y-102547619D02*
X142809523Y-102500000D01*
X142714285Y-102404761D01*
X142571428Y-102261904D01*
X142476190Y-102214285D01*
X142380952Y-102214285D01*
X142428571Y-102452380D02*
X142333333Y-102404761D01*
X142238095Y-102309523D01*
X142190476Y-102119047D01*
X142190476Y-101785714D01*
X142238095Y-101595238D01*
X142333333Y-101500000D01*
X142428571Y-101452380D01*
X142619047Y-101452380D01*
X142714285Y-101500000D01*
X142809523Y-101595238D01*
X142857142Y-101785714D01*
X142857142Y-102119047D01*
X142809523Y-102309523D01*
X142714285Y-102404761D01*
X142619047Y-102452380D01*
X142428571Y-102452380D01*
X143428571Y-101880952D02*
X143333333Y-101833333D01*
X143285714Y-101785714D01*
X143238095Y-101690476D01*
X143238095Y-101642857D01*
X143285714Y-101547619D01*
X143333333Y-101500000D01*
X143428571Y-101452380D01*
X143619047Y-101452380D01*
X143714285Y-101500000D01*
X143761904Y-101547619D01*
X143809523Y-101642857D01*
X143809523Y-101690476D01*
X143761904Y-101785714D01*
X143714285Y-101833333D01*
X143619047Y-101880952D01*
X143428571Y-101880952D01*
X143333333Y-101928571D01*
X143285714Y-101976190D01*
X143238095Y-102071428D01*
X143238095Y-102261904D01*
X143285714Y-102357142D01*
X143333333Y-102404761D01*
X143428571Y-102452380D01*
X143619047Y-102452380D01*
X143714285Y-102404761D01*
X143761904Y-102357142D01*
X143809523Y-102261904D01*
X143809523Y-102071428D01*
X143761904Y-101976190D01*
X143714285Y-101928571D01*
X143619047Y-101880952D01*
G04 #@! TO.C,Q9*
X143404761Y-97047619D02*
X143309523Y-97000000D01*
X143214285Y-96904761D01*
X143071428Y-96761904D01*
X142976190Y-96714285D01*
X142880952Y-96714285D01*
X142928571Y-96952380D02*
X142833333Y-96904761D01*
X142738095Y-96809523D01*
X142690476Y-96619047D01*
X142690476Y-96285714D01*
X142738095Y-96095238D01*
X142833333Y-96000000D01*
X142928571Y-95952380D01*
X143119047Y-95952380D01*
X143214285Y-96000000D01*
X143309523Y-96095238D01*
X143357142Y-96285714D01*
X143357142Y-96619047D01*
X143309523Y-96809523D01*
X143214285Y-96904761D01*
X143119047Y-96952380D01*
X142928571Y-96952380D01*
X143833333Y-96952380D02*
X144023809Y-96952380D01*
X144119047Y-96904761D01*
X144166666Y-96857142D01*
X144261904Y-96714285D01*
X144309523Y-96523809D01*
X144309523Y-96142857D01*
X144261904Y-96047619D01*
X144214285Y-96000000D01*
X144119047Y-95952380D01*
X143928571Y-95952380D01*
X143833333Y-96000000D01*
X143785714Y-96047619D01*
X143738095Y-96142857D01*
X143738095Y-96380952D01*
X143785714Y-96476190D01*
X143833333Y-96523809D01*
X143928571Y-96571428D01*
X144119047Y-96571428D01*
X144214285Y-96523809D01*
X144261904Y-96476190D01*
X144309523Y-96380952D01*
G04 #@! TO.C,Q10*
X141928571Y-87547619D02*
X141833333Y-87500000D01*
X141738095Y-87404761D01*
X141595238Y-87261904D01*
X141500000Y-87214285D01*
X141404761Y-87214285D01*
X141452380Y-87452380D02*
X141357142Y-87404761D01*
X141261904Y-87309523D01*
X141214285Y-87119047D01*
X141214285Y-86785714D01*
X141261904Y-86595238D01*
X141357142Y-86500000D01*
X141452380Y-86452380D01*
X141642857Y-86452380D01*
X141738095Y-86500000D01*
X141833333Y-86595238D01*
X141880952Y-86785714D01*
X141880952Y-87119047D01*
X141833333Y-87309523D01*
X141738095Y-87404761D01*
X141642857Y-87452380D01*
X141452380Y-87452380D01*
X142833333Y-87452380D02*
X142261904Y-87452380D01*
X142547619Y-87452380D02*
X142547619Y-86452380D01*
X142452380Y-86595238D01*
X142357142Y-86690476D01*
X142261904Y-86738095D01*
X143452380Y-86452380D02*
X143547619Y-86452380D01*
X143642857Y-86500000D01*
X143690476Y-86547619D01*
X143738095Y-86642857D01*
X143785714Y-86833333D01*
X143785714Y-87071428D01*
X143738095Y-87261904D01*
X143690476Y-87357142D01*
X143642857Y-87404761D01*
X143547619Y-87452380D01*
X143452380Y-87452380D01*
X143357142Y-87404761D01*
X143309523Y-87357142D01*
X143261904Y-87261904D01*
X143214285Y-87071428D01*
X143214285Y-86833333D01*
X143261904Y-86642857D01*
X143309523Y-86547619D01*
X143357142Y-86500000D01*
X143452380Y-86452380D01*
G04 #@! TO.C,Q11*
X136807619Y-85161428D02*
X136760000Y-85256666D01*
X136664761Y-85351904D01*
X136521904Y-85494761D01*
X136474285Y-85590000D01*
X136474285Y-85685238D01*
X136712380Y-85637619D02*
X136664761Y-85732857D01*
X136569523Y-85828095D01*
X136379047Y-85875714D01*
X136045714Y-85875714D01*
X135855238Y-85828095D01*
X135760000Y-85732857D01*
X135712380Y-85637619D01*
X135712380Y-85447142D01*
X135760000Y-85351904D01*
X135855238Y-85256666D01*
X136045714Y-85209047D01*
X136379047Y-85209047D01*
X136569523Y-85256666D01*
X136664761Y-85351904D01*
X136712380Y-85447142D01*
X136712380Y-85637619D01*
X136712380Y-84256666D02*
X136712380Y-84828095D01*
X136712380Y-84542380D02*
X135712380Y-84542380D01*
X135855238Y-84637619D01*
X135950476Y-84732857D01*
X135998095Y-84828095D01*
X136712380Y-83304285D02*
X136712380Y-83875714D01*
X136712380Y-83590000D02*
X135712380Y-83590000D01*
X135855238Y-83685238D01*
X135950476Y-83780476D01*
X135998095Y-83875714D01*
G04 #@! TO.C,Q12*
X133028571Y-77197619D02*
X132933333Y-77150000D01*
X132838095Y-77054761D01*
X132695238Y-76911904D01*
X132600000Y-76864285D01*
X132504761Y-76864285D01*
X132552380Y-77102380D02*
X132457142Y-77054761D01*
X132361904Y-76959523D01*
X132314285Y-76769047D01*
X132314285Y-76435714D01*
X132361904Y-76245238D01*
X132457142Y-76150000D01*
X132552380Y-76102380D01*
X132742857Y-76102380D01*
X132838095Y-76150000D01*
X132933333Y-76245238D01*
X132980952Y-76435714D01*
X132980952Y-76769047D01*
X132933333Y-76959523D01*
X132838095Y-77054761D01*
X132742857Y-77102380D01*
X132552380Y-77102380D01*
X133933333Y-77102380D02*
X133361904Y-77102380D01*
X133647619Y-77102380D02*
X133647619Y-76102380D01*
X133552380Y-76245238D01*
X133457142Y-76340476D01*
X133361904Y-76388095D01*
X134314285Y-76197619D02*
X134361904Y-76150000D01*
X134457142Y-76102380D01*
X134695238Y-76102380D01*
X134790476Y-76150000D01*
X134838095Y-76197619D01*
X134885714Y-76292857D01*
X134885714Y-76388095D01*
X134838095Y-76530952D01*
X134266666Y-77102380D01*
X134885714Y-77102380D01*
G04 #@! TO.C,U1*
X117738095Y-89452380D02*
X117738095Y-90261904D01*
X117785714Y-90357142D01*
X117833333Y-90404761D01*
X117928571Y-90452380D01*
X118119047Y-90452380D01*
X118214285Y-90404761D01*
X118261904Y-90357142D01*
X118309523Y-90261904D01*
X118309523Y-89452380D01*
X119309523Y-90452380D02*
X118738095Y-90452380D01*
X119023809Y-90452380D02*
X119023809Y-89452380D01*
X118928571Y-89595238D01*
X118833333Y-89690476D01*
X118738095Y-89738095D01*
G04 #@! TO.C,D1*
X121261904Y-81302380D02*
X121261904Y-80302380D01*
X121500000Y-80302380D01*
X121642857Y-80350000D01*
X121738095Y-80445238D01*
X121785714Y-80540476D01*
X121833333Y-80730952D01*
X121833333Y-80873809D01*
X121785714Y-81064285D01*
X121738095Y-81159523D01*
X121642857Y-81254761D01*
X121500000Y-81302380D01*
X121261904Y-81302380D01*
X122785714Y-81302380D02*
X122214285Y-81302380D01*
X122500000Y-81302380D02*
X122500000Y-80302380D01*
X122404761Y-80445238D01*
X122309523Y-80540476D01*
X122214285Y-80588095D01*
X124988095Y-75552380D02*
X124988095Y-74552380D01*
X125559523Y-75552380D02*
X125130952Y-74980952D01*
X125559523Y-74552380D02*
X124988095Y-75123809D01*
X118711904Y-75316666D02*
X119188095Y-75316666D01*
X118616666Y-75602380D02*
X118950000Y-74602380D01*
X119283333Y-75602380D01*
G04 #@! TO.C,R11*
X138767380Y-135897857D02*
X138291190Y-136231190D01*
X138767380Y-136469285D02*
X137767380Y-136469285D01*
X137767380Y-136088333D01*
X137815000Y-135993095D01*
X137862619Y-135945476D01*
X137957857Y-135897857D01*
X138100714Y-135897857D01*
X138195952Y-135945476D01*
X138243571Y-135993095D01*
X138291190Y-136088333D01*
X138291190Y-136469285D01*
X138767380Y-134945476D02*
X138767380Y-135516904D01*
X138767380Y-135231190D02*
X137767380Y-135231190D01*
X137910238Y-135326428D01*
X138005476Y-135421666D01*
X138053095Y-135516904D01*
X138767380Y-133993095D02*
X138767380Y-134564523D01*
X138767380Y-134278809D02*
X137767380Y-134278809D01*
X137910238Y-134374047D01*
X138005476Y-134469285D01*
X138053095Y-134564523D01*
G04 #@! TO.C,R12*
X139452380Y-139642857D02*
X138976190Y-139976190D01*
X139452380Y-140214285D02*
X138452380Y-140214285D01*
X138452380Y-139833333D01*
X138500000Y-139738095D01*
X138547619Y-139690476D01*
X138642857Y-139642857D01*
X138785714Y-139642857D01*
X138880952Y-139690476D01*
X138928571Y-139738095D01*
X138976190Y-139833333D01*
X138976190Y-140214285D01*
X139452380Y-138690476D02*
X139452380Y-139261904D01*
X139452380Y-138976190D02*
X138452380Y-138976190D01*
X138595238Y-139071428D01*
X138690476Y-139166666D01*
X138738095Y-139261904D01*
X138547619Y-138309523D02*
X138500000Y-138261904D01*
X138452380Y-138166666D01*
X138452380Y-137928571D01*
X138500000Y-137833333D01*
X138547619Y-137785714D01*
X138642857Y-137738095D01*
X138738095Y-137738095D01*
X138880952Y-137785714D01*
X139452380Y-138357142D01*
X139452380Y-137738095D01*
G04 #@! TO.C,R13*
X146757142Y-139512380D02*
X146423809Y-139036190D01*
X146185714Y-139512380D02*
X146185714Y-138512380D01*
X146566666Y-138512380D01*
X146661904Y-138560000D01*
X146709523Y-138607619D01*
X146757142Y-138702857D01*
X146757142Y-138845714D01*
X146709523Y-138940952D01*
X146661904Y-138988571D01*
X146566666Y-139036190D01*
X146185714Y-139036190D01*
X147709523Y-139512380D02*
X147138095Y-139512380D01*
X147423809Y-139512380D02*
X147423809Y-138512380D01*
X147328571Y-138655238D01*
X147233333Y-138750476D01*
X147138095Y-138798095D01*
X148042857Y-138512380D02*
X148661904Y-138512380D01*
X148328571Y-138893333D01*
X148471428Y-138893333D01*
X148566666Y-138940952D01*
X148614285Y-138988571D01*
X148661904Y-139083809D01*
X148661904Y-139321904D01*
X148614285Y-139417142D01*
X148566666Y-139464761D01*
X148471428Y-139512380D01*
X148185714Y-139512380D01*
X148090476Y-139464761D01*
X148042857Y-139417142D01*
G04 #@! TO.C,R14*
X137452380Y-129642857D02*
X136976190Y-129976190D01*
X137452380Y-130214285D02*
X136452380Y-130214285D01*
X136452380Y-129833333D01*
X136500000Y-129738095D01*
X136547619Y-129690476D01*
X136642857Y-129642857D01*
X136785714Y-129642857D01*
X136880952Y-129690476D01*
X136928571Y-129738095D01*
X136976190Y-129833333D01*
X136976190Y-130214285D01*
X137452380Y-128690476D02*
X137452380Y-129261904D01*
X137452380Y-128976190D02*
X136452380Y-128976190D01*
X136595238Y-129071428D01*
X136690476Y-129166666D01*
X136738095Y-129261904D01*
X136785714Y-127833333D02*
X137452380Y-127833333D01*
X136404761Y-128071428D02*
X137119047Y-128309523D01*
X137119047Y-127690476D01*
G04 #@! TO.C,R15*
X140952380Y-128642857D02*
X140476190Y-128976190D01*
X140952380Y-129214285D02*
X139952380Y-129214285D01*
X139952380Y-128833333D01*
X140000000Y-128738095D01*
X140047619Y-128690476D01*
X140142857Y-128642857D01*
X140285714Y-128642857D01*
X140380952Y-128690476D01*
X140428571Y-128738095D01*
X140476190Y-128833333D01*
X140476190Y-129214285D01*
X140952380Y-127690476D02*
X140952380Y-128261904D01*
X140952380Y-127976190D02*
X139952380Y-127976190D01*
X140095238Y-128071428D01*
X140190476Y-128166666D01*
X140238095Y-128261904D01*
X139952380Y-126785714D02*
X139952380Y-127261904D01*
X140428571Y-127309523D01*
X140380952Y-127261904D01*
X140333333Y-127166666D01*
X140333333Y-126928571D01*
X140380952Y-126833333D01*
X140428571Y-126785714D01*
X140523809Y-126738095D01*
X140761904Y-126738095D01*
X140857142Y-126785714D01*
X140904761Y-126833333D01*
X140952380Y-126928571D01*
X140952380Y-127166666D01*
X140904761Y-127261904D01*
X140857142Y-127309523D01*
G04 #@! TO.C,R16*
X146757142Y-124272380D02*
X146423809Y-123796190D01*
X146185714Y-124272380D02*
X146185714Y-123272380D01*
X146566666Y-123272380D01*
X146661904Y-123320000D01*
X146709523Y-123367619D01*
X146757142Y-123462857D01*
X146757142Y-123605714D01*
X146709523Y-123700952D01*
X146661904Y-123748571D01*
X146566666Y-123796190D01*
X146185714Y-123796190D01*
X147709523Y-124272380D02*
X147138095Y-124272380D01*
X147423809Y-124272380D02*
X147423809Y-123272380D01*
X147328571Y-123415238D01*
X147233333Y-123510476D01*
X147138095Y-123558095D01*
X148566666Y-123272380D02*
X148376190Y-123272380D01*
X148280952Y-123320000D01*
X148233333Y-123367619D01*
X148138095Y-123510476D01*
X148090476Y-123700952D01*
X148090476Y-124081904D01*
X148138095Y-124177142D01*
X148185714Y-124224761D01*
X148280952Y-124272380D01*
X148471428Y-124272380D01*
X148566666Y-124224761D01*
X148614285Y-124177142D01*
X148661904Y-124081904D01*
X148661904Y-123843809D01*
X148614285Y-123748571D01*
X148566666Y-123700952D01*
X148471428Y-123653333D01*
X148280952Y-123653333D01*
X148185714Y-123700952D01*
X148138095Y-123748571D01*
X148090476Y-123843809D01*
G04 #@! TO.C,R17*
X137952380Y-115642857D02*
X137476190Y-115976190D01*
X137952380Y-116214285D02*
X136952380Y-116214285D01*
X136952380Y-115833333D01*
X137000000Y-115738095D01*
X137047619Y-115690476D01*
X137142857Y-115642857D01*
X137285714Y-115642857D01*
X137380952Y-115690476D01*
X137428571Y-115738095D01*
X137476190Y-115833333D01*
X137476190Y-116214285D01*
X137952380Y-114690476D02*
X137952380Y-115261904D01*
X137952380Y-114976190D02*
X136952380Y-114976190D01*
X137095238Y-115071428D01*
X137190476Y-115166666D01*
X137238095Y-115261904D01*
X136952380Y-114357142D02*
X136952380Y-113690476D01*
X137952380Y-114119047D01*
G04 #@! TO.C,R18*
X138952380Y-109642857D02*
X138476190Y-109976190D01*
X138952380Y-110214285D02*
X137952380Y-110214285D01*
X137952380Y-109833333D01*
X138000000Y-109738095D01*
X138047619Y-109690476D01*
X138142857Y-109642857D01*
X138285714Y-109642857D01*
X138380952Y-109690476D01*
X138428571Y-109738095D01*
X138476190Y-109833333D01*
X138476190Y-110214285D01*
X138952380Y-108690476D02*
X138952380Y-109261904D01*
X138952380Y-108976190D02*
X137952380Y-108976190D01*
X138095238Y-109071428D01*
X138190476Y-109166666D01*
X138238095Y-109261904D01*
X138380952Y-108119047D02*
X138333333Y-108214285D01*
X138285714Y-108261904D01*
X138190476Y-108309523D01*
X138142857Y-108309523D01*
X138047619Y-108261904D01*
X138000000Y-108214285D01*
X137952380Y-108119047D01*
X137952380Y-107928571D01*
X138000000Y-107833333D01*
X138047619Y-107785714D01*
X138142857Y-107738095D01*
X138190476Y-107738095D01*
X138285714Y-107785714D01*
X138333333Y-107833333D01*
X138380952Y-107928571D01*
X138380952Y-108119047D01*
X138428571Y-108214285D01*
X138476190Y-108261904D01*
X138571428Y-108309523D01*
X138761904Y-108309523D01*
X138857142Y-108261904D01*
X138904761Y-108214285D01*
X138952380Y-108119047D01*
X138952380Y-107928571D01*
X138904761Y-107833333D01*
X138857142Y-107785714D01*
X138761904Y-107738095D01*
X138571428Y-107738095D01*
X138476190Y-107785714D01*
X138428571Y-107833333D01*
X138380952Y-107928571D01*
G04 #@! TO.C,R19*
X146757142Y-109032380D02*
X146423809Y-108556190D01*
X146185714Y-109032380D02*
X146185714Y-108032380D01*
X146566666Y-108032380D01*
X146661904Y-108080000D01*
X146709523Y-108127619D01*
X146757142Y-108222857D01*
X146757142Y-108365714D01*
X146709523Y-108460952D01*
X146661904Y-108508571D01*
X146566666Y-108556190D01*
X146185714Y-108556190D01*
X147709523Y-109032380D02*
X147138095Y-109032380D01*
X147423809Y-109032380D02*
X147423809Y-108032380D01*
X147328571Y-108175238D01*
X147233333Y-108270476D01*
X147138095Y-108318095D01*
X148185714Y-109032380D02*
X148376190Y-109032380D01*
X148471428Y-108984761D01*
X148519047Y-108937142D01*
X148614285Y-108794285D01*
X148661904Y-108603809D01*
X148661904Y-108222857D01*
X148614285Y-108127619D01*
X148566666Y-108080000D01*
X148471428Y-108032380D01*
X148280952Y-108032380D01*
X148185714Y-108080000D01*
X148138095Y-108127619D01*
X148090476Y-108222857D01*
X148090476Y-108460952D01*
X148138095Y-108556190D01*
X148185714Y-108603809D01*
X148280952Y-108651428D01*
X148471428Y-108651428D01*
X148566666Y-108603809D01*
X148614285Y-108556190D01*
X148661904Y-108460952D01*
G04 #@! TO.C,R20*
X138452380Y-99142857D02*
X137976190Y-99476190D01*
X138452380Y-99714285D02*
X137452380Y-99714285D01*
X137452380Y-99333333D01*
X137500000Y-99238095D01*
X137547619Y-99190476D01*
X137642857Y-99142857D01*
X137785714Y-99142857D01*
X137880952Y-99190476D01*
X137928571Y-99238095D01*
X137976190Y-99333333D01*
X137976190Y-99714285D01*
X137547619Y-98761904D02*
X137500000Y-98714285D01*
X137452380Y-98619047D01*
X137452380Y-98380952D01*
X137500000Y-98285714D01*
X137547619Y-98238095D01*
X137642857Y-98190476D01*
X137738095Y-98190476D01*
X137880952Y-98238095D01*
X138452380Y-98809523D01*
X138452380Y-98190476D01*
X137452380Y-97571428D02*
X137452380Y-97476190D01*
X137500000Y-97380952D01*
X137547619Y-97333333D01*
X137642857Y-97285714D01*
X137833333Y-97238095D01*
X138071428Y-97238095D01*
X138261904Y-97285714D01*
X138357142Y-97333333D01*
X138404761Y-97380952D01*
X138452380Y-97476190D01*
X138452380Y-97571428D01*
X138404761Y-97666666D01*
X138357142Y-97714285D01*
X138261904Y-97761904D01*
X138071428Y-97809523D01*
X137833333Y-97809523D01*
X137642857Y-97761904D01*
X137547619Y-97714285D01*
X137500000Y-97666666D01*
X137452380Y-97571428D01*
G04 #@! TO.C,R21*
X140452380Y-98142857D02*
X139976190Y-98476190D01*
X140452380Y-98714285D02*
X139452380Y-98714285D01*
X139452380Y-98333333D01*
X139500000Y-98238095D01*
X139547619Y-98190476D01*
X139642857Y-98142857D01*
X139785714Y-98142857D01*
X139880952Y-98190476D01*
X139928571Y-98238095D01*
X139976190Y-98333333D01*
X139976190Y-98714285D01*
X139547619Y-97761904D02*
X139500000Y-97714285D01*
X139452380Y-97619047D01*
X139452380Y-97380952D01*
X139500000Y-97285714D01*
X139547619Y-97238095D01*
X139642857Y-97190476D01*
X139738095Y-97190476D01*
X139880952Y-97238095D01*
X140452380Y-97809523D01*
X140452380Y-97190476D01*
X140452380Y-96238095D02*
X140452380Y-96809523D01*
X140452380Y-96523809D02*
X139452380Y-96523809D01*
X139595238Y-96619047D01*
X139690476Y-96714285D01*
X139738095Y-96809523D01*
G04 #@! TO.C,R22*
X146757142Y-93792380D02*
X146423809Y-93316190D01*
X146185714Y-93792380D02*
X146185714Y-92792380D01*
X146566666Y-92792380D01*
X146661904Y-92840000D01*
X146709523Y-92887619D01*
X146757142Y-92982857D01*
X146757142Y-93125714D01*
X146709523Y-93220952D01*
X146661904Y-93268571D01*
X146566666Y-93316190D01*
X146185714Y-93316190D01*
X147138095Y-92887619D02*
X147185714Y-92840000D01*
X147280952Y-92792380D01*
X147519047Y-92792380D01*
X147614285Y-92840000D01*
X147661904Y-92887619D01*
X147709523Y-92982857D01*
X147709523Y-93078095D01*
X147661904Y-93220952D01*
X147090476Y-93792380D01*
X147709523Y-93792380D01*
X148090476Y-92887619D02*
X148138095Y-92840000D01*
X148233333Y-92792380D01*
X148471428Y-92792380D01*
X148566666Y-92840000D01*
X148614285Y-92887619D01*
X148661904Y-92982857D01*
X148661904Y-93078095D01*
X148614285Y-93220952D01*
X148042857Y-93792380D01*
X148661904Y-93792380D01*
G04 #@! TO.C,R23*
X135357142Y-90452380D02*
X135023809Y-89976190D01*
X134785714Y-90452380D02*
X134785714Y-89452380D01*
X135166666Y-89452380D01*
X135261904Y-89500000D01*
X135309523Y-89547619D01*
X135357142Y-89642857D01*
X135357142Y-89785714D01*
X135309523Y-89880952D01*
X135261904Y-89928571D01*
X135166666Y-89976190D01*
X134785714Y-89976190D01*
X135738095Y-89547619D02*
X135785714Y-89500000D01*
X135880952Y-89452380D01*
X136119047Y-89452380D01*
X136214285Y-89500000D01*
X136261904Y-89547619D01*
X136309523Y-89642857D01*
X136309523Y-89738095D01*
X136261904Y-89880952D01*
X135690476Y-90452380D01*
X136309523Y-90452380D01*
X136642857Y-89452380D02*
X137261904Y-89452380D01*
X136928571Y-89833333D01*
X137071428Y-89833333D01*
X137166666Y-89880952D01*
X137214285Y-89928571D01*
X137261904Y-90023809D01*
X137261904Y-90261904D01*
X137214285Y-90357142D01*
X137166666Y-90404761D01*
X137071428Y-90452380D01*
X136785714Y-90452380D01*
X136690476Y-90404761D01*
X136642857Y-90357142D01*
G04 #@! TO.C,R24*
X140617142Y-88867380D02*
X140283809Y-88391190D01*
X140045714Y-88867380D02*
X140045714Y-87867380D01*
X140426666Y-87867380D01*
X140521904Y-87915000D01*
X140569523Y-87962619D01*
X140617142Y-88057857D01*
X140617142Y-88200714D01*
X140569523Y-88295952D01*
X140521904Y-88343571D01*
X140426666Y-88391190D01*
X140045714Y-88391190D01*
X140998095Y-87962619D02*
X141045714Y-87915000D01*
X141140952Y-87867380D01*
X141379047Y-87867380D01*
X141474285Y-87915000D01*
X141521904Y-87962619D01*
X141569523Y-88057857D01*
X141569523Y-88153095D01*
X141521904Y-88295952D01*
X140950476Y-88867380D01*
X141569523Y-88867380D01*
X142426666Y-88200714D02*
X142426666Y-88867380D01*
X142188571Y-87819761D02*
X141950476Y-88534047D01*
X142569523Y-88534047D01*
G04 #@! TO.C,R25*
X138357142Y-84352380D02*
X138023809Y-83876190D01*
X137785714Y-84352380D02*
X137785714Y-83352380D01*
X138166666Y-83352380D01*
X138261904Y-83400000D01*
X138309523Y-83447619D01*
X138357142Y-83542857D01*
X138357142Y-83685714D01*
X138309523Y-83780952D01*
X138261904Y-83828571D01*
X138166666Y-83876190D01*
X137785714Y-83876190D01*
X138738095Y-83447619D02*
X138785714Y-83400000D01*
X138880952Y-83352380D01*
X139119047Y-83352380D01*
X139214285Y-83400000D01*
X139261904Y-83447619D01*
X139309523Y-83542857D01*
X139309523Y-83638095D01*
X139261904Y-83780952D01*
X138690476Y-84352380D01*
X139309523Y-84352380D01*
X140214285Y-83352380D02*
X139738095Y-83352380D01*
X139690476Y-83828571D01*
X139738095Y-83780952D01*
X139833333Y-83733333D01*
X140071428Y-83733333D01*
X140166666Y-83780952D01*
X140214285Y-83828571D01*
X140261904Y-83923809D01*
X140261904Y-84161904D01*
X140214285Y-84257142D01*
X140166666Y-84304761D01*
X140071428Y-84352380D01*
X139833333Y-84352380D01*
X139738095Y-84304761D01*
X139690476Y-84257142D01*
G04 #@! TO.C,R31*
X117452380Y-147642857D02*
X116976190Y-147976190D01*
X117452380Y-148214285D02*
X116452380Y-148214285D01*
X116452380Y-147833333D01*
X116500000Y-147738095D01*
X116547619Y-147690476D01*
X116642857Y-147642857D01*
X116785714Y-147642857D01*
X116880952Y-147690476D01*
X116928571Y-147738095D01*
X116976190Y-147833333D01*
X116976190Y-148214285D01*
X116452380Y-147309523D02*
X116452380Y-146690476D01*
X116833333Y-147023809D01*
X116833333Y-146880952D01*
X116880952Y-146785714D01*
X116928571Y-146738095D01*
X117023809Y-146690476D01*
X117261904Y-146690476D01*
X117357142Y-146738095D01*
X117404761Y-146785714D01*
X117452380Y-146880952D01*
X117452380Y-147166666D01*
X117404761Y-147261904D01*
X117357142Y-147309523D01*
X117452380Y-145738095D02*
X117452380Y-146309523D01*
X117452380Y-146023809D02*
X116452380Y-146023809D01*
X116595238Y-146119047D01*
X116690476Y-146214285D01*
X116738095Y-146309523D01*
G04 #@! TO.C,R1*
X122833333Y-145452380D02*
X122500000Y-144976190D01*
X122261904Y-145452380D02*
X122261904Y-144452380D01*
X122642857Y-144452380D01*
X122738095Y-144500000D01*
X122785714Y-144547619D01*
X122833333Y-144642857D01*
X122833333Y-144785714D01*
X122785714Y-144880952D01*
X122738095Y-144928571D01*
X122642857Y-144976190D01*
X122261904Y-144976190D01*
X123785714Y-145452380D02*
X123214285Y-145452380D01*
X123500000Y-145452380D02*
X123500000Y-144452380D01*
X123404761Y-144595238D01*
X123309523Y-144690476D01*
X123214285Y-144738095D01*
G04 #@! TO.C,R8*
X133833333Y-144452380D02*
X133500000Y-143976190D01*
X133261904Y-144452380D02*
X133261904Y-143452380D01*
X133642857Y-143452380D01*
X133738095Y-143500000D01*
X133785714Y-143547619D01*
X133833333Y-143642857D01*
X133833333Y-143785714D01*
X133785714Y-143880952D01*
X133738095Y-143928571D01*
X133642857Y-143976190D01*
X133261904Y-143976190D01*
X134404761Y-143880952D02*
X134309523Y-143833333D01*
X134261904Y-143785714D01*
X134214285Y-143690476D01*
X134214285Y-143642857D01*
X134261904Y-143547619D01*
X134309523Y-143500000D01*
X134404761Y-143452380D01*
X134595238Y-143452380D01*
X134690476Y-143500000D01*
X134738095Y-143547619D01*
X134785714Y-143642857D01*
X134785714Y-143690476D01*
X134738095Y-143785714D01*
X134690476Y-143833333D01*
X134595238Y-143880952D01*
X134404761Y-143880952D01*
X134309523Y-143928571D01*
X134261904Y-143976190D01*
X134214285Y-144071428D01*
X134214285Y-144261904D01*
X134261904Y-144357142D01*
X134309523Y-144404761D01*
X134404761Y-144452380D01*
X134595238Y-144452380D01*
X134690476Y-144404761D01*
X134738095Y-144357142D01*
X134785714Y-144261904D01*
X134785714Y-144071428D01*
X134738095Y-143976190D01*
X134690476Y-143928571D01*
X134595238Y-143880952D01*
G04 #@! TO.C,R9*
X133833333Y-147452380D02*
X133500000Y-146976190D01*
X133261904Y-147452380D02*
X133261904Y-146452380D01*
X133642857Y-146452380D01*
X133738095Y-146500000D01*
X133785714Y-146547619D01*
X133833333Y-146642857D01*
X133833333Y-146785714D01*
X133785714Y-146880952D01*
X133738095Y-146928571D01*
X133642857Y-146976190D01*
X133261904Y-146976190D01*
X134309523Y-147452380D02*
X134500000Y-147452380D01*
X134595238Y-147404761D01*
X134642857Y-147357142D01*
X134738095Y-147214285D01*
X134785714Y-147023809D01*
X134785714Y-146642857D01*
X134738095Y-146547619D01*
X134690476Y-146500000D01*
X134595238Y-146452380D01*
X134404761Y-146452380D01*
X134309523Y-146500000D01*
X134261904Y-146547619D01*
X134214285Y-146642857D01*
X134214285Y-146880952D01*
X134261904Y-146976190D01*
X134309523Y-147023809D01*
X134404761Y-147071428D01*
X134595238Y-147071428D01*
X134690476Y-147023809D01*
X134738095Y-146976190D01*
X134785714Y-146880952D01*
G04 #@! TO.C,R10*
X146357142Y-155452380D02*
X146023809Y-154976190D01*
X145785714Y-155452380D02*
X145785714Y-154452380D01*
X146166666Y-154452380D01*
X146261904Y-154500000D01*
X146309523Y-154547619D01*
X146357142Y-154642857D01*
X146357142Y-154785714D01*
X146309523Y-154880952D01*
X146261904Y-154928571D01*
X146166666Y-154976190D01*
X145785714Y-154976190D01*
X147309523Y-155452380D02*
X146738095Y-155452380D01*
X147023809Y-155452380D02*
X147023809Y-154452380D01*
X146928571Y-154595238D01*
X146833333Y-154690476D01*
X146738095Y-154738095D01*
X147928571Y-154452380D02*
X148023809Y-154452380D01*
X148119047Y-154500000D01*
X148166666Y-154547619D01*
X148214285Y-154642857D01*
X148261904Y-154833333D01*
X148261904Y-155071428D01*
X148214285Y-155261904D01*
X148166666Y-155357142D01*
X148119047Y-155404761D01*
X148023809Y-155452380D01*
X147928571Y-155452380D01*
X147833333Y-155404761D01*
X147785714Y-155357142D01*
X147738095Y-155261904D01*
X147690476Y-155071428D01*
X147690476Y-154833333D01*
X147738095Y-154642857D01*
X147785714Y-154547619D01*
X147833333Y-154500000D01*
X147928571Y-154452380D01*
G04 #@! TO.C,Q13*
X126428571Y-132547619D02*
X126333333Y-132500000D01*
X126238095Y-132404761D01*
X126095238Y-132261904D01*
X126000000Y-132214285D01*
X125904761Y-132214285D01*
X125952380Y-132452380D02*
X125857142Y-132404761D01*
X125761904Y-132309523D01*
X125714285Y-132119047D01*
X125714285Y-131785714D01*
X125761904Y-131595238D01*
X125857142Y-131500000D01*
X125952380Y-131452380D01*
X126142857Y-131452380D01*
X126238095Y-131500000D01*
X126333333Y-131595238D01*
X126380952Y-131785714D01*
X126380952Y-132119047D01*
X126333333Y-132309523D01*
X126238095Y-132404761D01*
X126142857Y-132452380D01*
X125952380Y-132452380D01*
X127333333Y-132452380D02*
X126761904Y-132452380D01*
X127047619Y-132452380D02*
X127047619Y-131452380D01*
X126952380Y-131595238D01*
X126857142Y-131690476D01*
X126761904Y-131738095D01*
X127666666Y-131452380D02*
X128285714Y-131452380D01*
X127952380Y-131833333D01*
X128095238Y-131833333D01*
X128190476Y-131880952D01*
X128238095Y-131928571D01*
X128285714Y-132023809D01*
X128285714Y-132261904D01*
X128238095Y-132357142D01*
X128190476Y-132404761D01*
X128095238Y-132452380D01*
X127809523Y-132452380D01*
X127714285Y-132404761D01*
X127666666Y-132357142D01*
G04 #@! TO.C,Q14*
X126428571Y-126047619D02*
X126333333Y-126000000D01*
X126238095Y-125904761D01*
X126095238Y-125761904D01*
X126000000Y-125714285D01*
X125904761Y-125714285D01*
X125952380Y-125952380D02*
X125857142Y-125904761D01*
X125761904Y-125809523D01*
X125714285Y-125619047D01*
X125714285Y-125285714D01*
X125761904Y-125095238D01*
X125857142Y-125000000D01*
X125952380Y-124952380D01*
X126142857Y-124952380D01*
X126238095Y-125000000D01*
X126333333Y-125095238D01*
X126380952Y-125285714D01*
X126380952Y-125619047D01*
X126333333Y-125809523D01*
X126238095Y-125904761D01*
X126142857Y-125952380D01*
X125952380Y-125952380D01*
X127333333Y-125952380D02*
X126761904Y-125952380D01*
X127047619Y-125952380D02*
X127047619Y-124952380D01*
X126952380Y-125095238D01*
X126857142Y-125190476D01*
X126761904Y-125238095D01*
X128190476Y-125285714D02*
X128190476Y-125952380D01*
X127952380Y-124904761D02*
X127714285Y-125619047D01*
X128333333Y-125619047D01*
G04 #@! TO.C,Q15*
X126428571Y-120047619D02*
X126333333Y-120000000D01*
X126238095Y-119904761D01*
X126095238Y-119761904D01*
X126000000Y-119714285D01*
X125904761Y-119714285D01*
X125952380Y-119952380D02*
X125857142Y-119904761D01*
X125761904Y-119809523D01*
X125714285Y-119619047D01*
X125714285Y-119285714D01*
X125761904Y-119095238D01*
X125857142Y-119000000D01*
X125952380Y-118952380D01*
X126142857Y-118952380D01*
X126238095Y-119000000D01*
X126333333Y-119095238D01*
X126380952Y-119285714D01*
X126380952Y-119619047D01*
X126333333Y-119809523D01*
X126238095Y-119904761D01*
X126142857Y-119952380D01*
X125952380Y-119952380D01*
X127333333Y-119952380D02*
X126761904Y-119952380D01*
X127047619Y-119952380D02*
X127047619Y-118952380D01*
X126952380Y-119095238D01*
X126857142Y-119190476D01*
X126761904Y-119238095D01*
X128238095Y-118952380D02*
X127761904Y-118952380D01*
X127714285Y-119428571D01*
X127761904Y-119380952D01*
X127857142Y-119333333D01*
X128095238Y-119333333D01*
X128190476Y-119380952D01*
X128238095Y-119428571D01*
X128285714Y-119523809D01*
X128285714Y-119761904D01*
X128238095Y-119857142D01*
X128190476Y-119904761D01*
X128095238Y-119952380D01*
X127857142Y-119952380D01*
X127761904Y-119904761D01*
X127714285Y-119857142D01*
G04 #@! TO.C,Q16*
X125928571Y-112547619D02*
X125833333Y-112500000D01*
X125738095Y-112404761D01*
X125595238Y-112261904D01*
X125500000Y-112214285D01*
X125404761Y-112214285D01*
X125452380Y-112452380D02*
X125357142Y-112404761D01*
X125261904Y-112309523D01*
X125214285Y-112119047D01*
X125214285Y-111785714D01*
X125261904Y-111595238D01*
X125357142Y-111500000D01*
X125452380Y-111452380D01*
X125642857Y-111452380D01*
X125738095Y-111500000D01*
X125833333Y-111595238D01*
X125880952Y-111785714D01*
X125880952Y-112119047D01*
X125833333Y-112309523D01*
X125738095Y-112404761D01*
X125642857Y-112452380D01*
X125452380Y-112452380D01*
X126833333Y-112452380D02*
X126261904Y-112452380D01*
X126547619Y-112452380D02*
X126547619Y-111452380D01*
X126452380Y-111595238D01*
X126357142Y-111690476D01*
X126261904Y-111738095D01*
X127690476Y-111452380D02*
X127500000Y-111452380D01*
X127404761Y-111500000D01*
X127357142Y-111547619D01*
X127261904Y-111690476D01*
X127214285Y-111880952D01*
X127214285Y-112261904D01*
X127261904Y-112357142D01*
X127309523Y-112404761D01*
X127404761Y-112452380D01*
X127595238Y-112452380D01*
X127690476Y-112404761D01*
X127738095Y-112357142D01*
X127785714Y-112261904D01*
X127785714Y-112023809D01*
X127738095Y-111928571D01*
X127690476Y-111880952D01*
X127595238Y-111833333D01*
X127404761Y-111833333D01*
X127309523Y-111880952D01*
X127261904Y-111928571D01*
X127214285Y-112023809D01*
G04 #@! TO.C,Q17*
X125928571Y-105547619D02*
X125833333Y-105500000D01*
X125738095Y-105404761D01*
X125595238Y-105261904D01*
X125500000Y-105214285D01*
X125404761Y-105214285D01*
X125452380Y-105452380D02*
X125357142Y-105404761D01*
X125261904Y-105309523D01*
X125214285Y-105119047D01*
X125214285Y-104785714D01*
X125261904Y-104595238D01*
X125357142Y-104500000D01*
X125452380Y-104452380D01*
X125642857Y-104452380D01*
X125738095Y-104500000D01*
X125833333Y-104595238D01*
X125880952Y-104785714D01*
X125880952Y-105119047D01*
X125833333Y-105309523D01*
X125738095Y-105404761D01*
X125642857Y-105452380D01*
X125452380Y-105452380D01*
X126833333Y-105452380D02*
X126261904Y-105452380D01*
X126547619Y-105452380D02*
X126547619Y-104452380D01*
X126452380Y-104595238D01*
X126357142Y-104690476D01*
X126261904Y-104738095D01*
X127166666Y-104452380D02*
X127833333Y-104452380D01*
X127404761Y-105452380D01*
G04 #@! TO.C,Q18*
X128047619Y-95571428D02*
X128000000Y-95666666D01*
X127904761Y-95761904D01*
X127761904Y-95904761D01*
X127714285Y-96000000D01*
X127714285Y-96095238D01*
X127952380Y-96047619D02*
X127904761Y-96142857D01*
X127809523Y-96238095D01*
X127619047Y-96285714D01*
X127285714Y-96285714D01*
X127095238Y-96238095D01*
X127000000Y-96142857D01*
X126952380Y-96047619D01*
X126952380Y-95857142D01*
X127000000Y-95761904D01*
X127095238Y-95666666D01*
X127285714Y-95619047D01*
X127619047Y-95619047D01*
X127809523Y-95666666D01*
X127904761Y-95761904D01*
X127952380Y-95857142D01*
X127952380Y-96047619D01*
X127952380Y-94666666D02*
X127952380Y-95238095D01*
X127952380Y-94952380D02*
X126952380Y-94952380D01*
X127095238Y-95047619D01*
X127190476Y-95142857D01*
X127238095Y-95238095D01*
X127380952Y-94095238D02*
X127333333Y-94190476D01*
X127285714Y-94238095D01*
X127190476Y-94285714D01*
X127142857Y-94285714D01*
X127047619Y-94238095D01*
X127000000Y-94190476D01*
X126952380Y-94095238D01*
X126952380Y-93904761D01*
X127000000Y-93809523D01*
X127047619Y-93761904D01*
X127142857Y-93714285D01*
X127190476Y-93714285D01*
X127285714Y-93761904D01*
X127333333Y-93809523D01*
X127380952Y-93904761D01*
X127380952Y-94095238D01*
X127428571Y-94190476D01*
X127476190Y-94238095D01*
X127571428Y-94285714D01*
X127761904Y-94285714D01*
X127857142Y-94238095D01*
X127904761Y-94190476D01*
X127952380Y-94095238D01*
X127952380Y-93904761D01*
X127904761Y-93809523D01*
X127857142Y-93761904D01*
X127761904Y-93714285D01*
X127571428Y-93714285D01*
X127476190Y-93761904D01*
X127428571Y-93809523D01*
X127380952Y-93904761D01*
G04 #@! TO.C,R2*
X129952380Y-133666666D02*
X129476190Y-134000000D01*
X129952380Y-134238095D02*
X128952380Y-134238095D01*
X128952380Y-133857142D01*
X129000000Y-133761904D01*
X129047619Y-133714285D01*
X129142857Y-133666666D01*
X129285714Y-133666666D01*
X129380952Y-133714285D01*
X129428571Y-133761904D01*
X129476190Y-133857142D01*
X129476190Y-134238095D01*
X129047619Y-133285714D02*
X129000000Y-133238095D01*
X128952380Y-133142857D01*
X128952380Y-132904761D01*
X129000000Y-132809523D01*
X129047619Y-132761904D01*
X129142857Y-132714285D01*
X129238095Y-132714285D01*
X129380952Y-132761904D01*
X129952380Y-133333333D01*
X129952380Y-132714285D01*
G04 #@! TO.C,R3*
X129952380Y-126666666D02*
X129476190Y-127000000D01*
X129952380Y-127238095D02*
X128952380Y-127238095D01*
X128952380Y-126857142D01*
X129000000Y-126761904D01*
X129047619Y-126714285D01*
X129142857Y-126666666D01*
X129285714Y-126666666D01*
X129380952Y-126714285D01*
X129428571Y-126761904D01*
X129476190Y-126857142D01*
X129476190Y-127238095D01*
X128952380Y-126333333D02*
X128952380Y-125714285D01*
X129333333Y-126047619D01*
X129333333Y-125904761D01*
X129380952Y-125809523D01*
X129428571Y-125761904D01*
X129523809Y-125714285D01*
X129761904Y-125714285D01*
X129857142Y-125761904D01*
X129904761Y-125809523D01*
X129952380Y-125904761D01*
X129952380Y-126190476D01*
X129904761Y-126285714D01*
X129857142Y-126333333D01*
G04 #@! TO.C,R4*
X129333333Y-115452380D02*
X129000000Y-114976190D01*
X128761904Y-115452380D02*
X128761904Y-114452380D01*
X129142857Y-114452380D01*
X129238095Y-114500000D01*
X129285714Y-114547619D01*
X129333333Y-114642857D01*
X129333333Y-114785714D01*
X129285714Y-114880952D01*
X129238095Y-114928571D01*
X129142857Y-114976190D01*
X128761904Y-114976190D01*
X130190476Y-114785714D02*
X130190476Y-115452380D01*
X129952380Y-114404761D02*
X129714285Y-115119047D01*
X130333333Y-115119047D01*
G04 #@! TO.C,R5*
X129952380Y-112666666D02*
X129476190Y-113000000D01*
X129952380Y-113238095D02*
X128952380Y-113238095D01*
X128952380Y-112857142D01*
X129000000Y-112761904D01*
X129047619Y-112714285D01*
X129142857Y-112666666D01*
X129285714Y-112666666D01*
X129380952Y-112714285D01*
X129428571Y-112761904D01*
X129476190Y-112857142D01*
X129476190Y-113238095D01*
X128952380Y-111761904D02*
X128952380Y-112238095D01*
X129428571Y-112285714D01*
X129380952Y-112238095D01*
X129333333Y-112142857D01*
X129333333Y-111904761D01*
X129380952Y-111809523D01*
X129428571Y-111761904D01*
X129523809Y-111714285D01*
X129761904Y-111714285D01*
X129857142Y-111761904D01*
X129904761Y-111809523D01*
X129952380Y-111904761D01*
X129952380Y-112142857D01*
X129904761Y-112238095D01*
X129857142Y-112285714D01*
G04 #@! TO.C,R6*
X129452380Y-106166666D02*
X128976190Y-106500000D01*
X129452380Y-106738095D02*
X128452380Y-106738095D01*
X128452380Y-106357142D01*
X128500000Y-106261904D01*
X128547619Y-106214285D01*
X128642857Y-106166666D01*
X128785714Y-106166666D01*
X128880952Y-106214285D01*
X128928571Y-106261904D01*
X128976190Y-106357142D01*
X128976190Y-106738095D01*
X128452380Y-105309523D02*
X128452380Y-105500000D01*
X128500000Y-105595238D01*
X128547619Y-105642857D01*
X128690476Y-105738095D01*
X128880952Y-105785714D01*
X129261904Y-105785714D01*
X129357142Y-105738095D01*
X129404761Y-105690476D01*
X129452380Y-105595238D01*
X129452380Y-105404761D01*
X129404761Y-105309523D01*
X129357142Y-105261904D01*
X129261904Y-105214285D01*
X129023809Y-105214285D01*
X128928571Y-105261904D01*
X128880952Y-105309523D01*
X128833333Y-105404761D01*
X128833333Y-105595238D01*
X128880952Y-105690476D01*
X128928571Y-105738095D01*
X129023809Y-105785714D01*
G04 #@! TO.C,R7*
X130333333Y-92952380D02*
X130000000Y-92476190D01*
X129761904Y-92952380D02*
X129761904Y-91952380D01*
X130142857Y-91952380D01*
X130238095Y-92000000D01*
X130285714Y-92047619D01*
X130333333Y-92142857D01*
X130333333Y-92285714D01*
X130285714Y-92380952D01*
X130238095Y-92428571D01*
X130142857Y-92476190D01*
X129761904Y-92476190D01*
X130666666Y-91952380D02*
X131333333Y-91952380D01*
X130904761Y-92952380D01*
G04 #@! TO.C,R26*
X130857142Y-133452380D02*
X130523809Y-132976190D01*
X130285714Y-133452380D02*
X130285714Y-132452380D01*
X130666666Y-132452380D01*
X130761904Y-132500000D01*
X130809523Y-132547619D01*
X130857142Y-132642857D01*
X130857142Y-132785714D01*
X130809523Y-132880952D01*
X130761904Y-132928571D01*
X130666666Y-132976190D01*
X130285714Y-132976190D01*
X131238095Y-132547619D02*
X131285714Y-132500000D01*
X131380952Y-132452380D01*
X131619047Y-132452380D01*
X131714285Y-132500000D01*
X131761904Y-132547619D01*
X131809523Y-132642857D01*
X131809523Y-132738095D01*
X131761904Y-132880952D01*
X131190476Y-133452380D01*
X131809523Y-133452380D01*
X132666666Y-132452380D02*
X132476190Y-132452380D01*
X132380952Y-132500000D01*
X132333333Y-132547619D01*
X132238095Y-132690476D01*
X132190476Y-132880952D01*
X132190476Y-133261904D01*
X132238095Y-133357142D01*
X132285714Y-133404761D01*
X132380952Y-133452380D01*
X132571428Y-133452380D01*
X132666666Y-133404761D01*
X132714285Y-133357142D01*
X132761904Y-133261904D01*
X132761904Y-133023809D01*
X132714285Y-132928571D01*
X132666666Y-132880952D01*
X132571428Y-132833333D01*
X132380952Y-132833333D01*
X132285714Y-132880952D01*
X132238095Y-132928571D01*
X132190476Y-133023809D01*
G04 #@! TO.C,R27*
X130857142Y-126952380D02*
X130523809Y-126476190D01*
X130285714Y-126952380D02*
X130285714Y-125952380D01*
X130666666Y-125952380D01*
X130761904Y-126000000D01*
X130809523Y-126047619D01*
X130857142Y-126142857D01*
X130857142Y-126285714D01*
X130809523Y-126380952D01*
X130761904Y-126428571D01*
X130666666Y-126476190D01*
X130285714Y-126476190D01*
X131238095Y-126047619D02*
X131285714Y-126000000D01*
X131380952Y-125952380D01*
X131619047Y-125952380D01*
X131714285Y-126000000D01*
X131761904Y-126047619D01*
X131809523Y-126142857D01*
X131809523Y-126238095D01*
X131761904Y-126380952D01*
X131190476Y-126952380D01*
X131809523Y-126952380D01*
X132142857Y-125952380D02*
X132809523Y-125952380D01*
X132380952Y-126952380D01*
G04 #@! TO.C,R28*
X130857142Y-120452380D02*
X130523809Y-119976190D01*
X130285714Y-120452380D02*
X130285714Y-119452380D01*
X130666666Y-119452380D01*
X130761904Y-119500000D01*
X130809523Y-119547619D01*
X130857142Y-119642857D01*
X130857142Y-119785714D01*
X130809523Y-119880952D01*
X130761904Y-119928571D01*
X130666666Y-119976190D01*
X130285714Y-119976190D01*
X131238095Y-119547619D02*
X131285714Y-119500000D01*
X131380952Y-119452380D01*
X131619047Y-119452380D01*
X131714285Y-119500000D01*
X131761904Y-119547619D01*
X131809523Y-119642857D01*
X131809523Y-119738095D01*
X131761904Y-119880952D01*
X131190476Y-120452380D01*
X131809523Y-120452380D01*
X132380952Y-119880952D02*
X132285714Y-119833333D01*
X132238095Y-119785714D01*
X132190476Y-119690476D01*
X132190476Y-119642857D01*
X132238095Y-119547619D01*
X132285714Y-119500000D01*
X132380952Y-119452380D01*
X132571428Y-119452380D01*
X132666666Y-119500000D01*
X132714285Y-119547619D01*
X132761904Y-119642857D01*
X132761904Y-119690476D01*
X132714285Y-119785714D01*
X132666666Y-119833333D01*
X132571428Y-119880952D01*
X132380952Y-119880952D01*
X132285714Y-119928571D01*
X132238095Y-119976190D01*
X132190476Y-120071428D01*
X132190476Y-120261904D01*
X132238095Y-120357142D01*
X132285714Y-120404761D01*
X132380952Y-120452380D01*
X132571428Y-120452380D01*
X132666666Y-120404761D01*
X132714285Y-120357142D01*
X132761904Y-120261904D01*
X132761904Y-120071428D01*
X132714285Y-119976190D01*
X132666666Y-119928571D01*
X132571428Y-119880952D01*
G04 #@! TO.C,R29*
X131952380Y-113642857D02*
X131476190Y-113976190D01*
X131952380Y-114214285D02*
X130952380Y-114214285D01*
X130952380Y-113833333D01*
X131000000Y-113738095D01*
X131047619Y-113690476D01*
X131142857Y-113642857D01*
X131285714Y-113642857D01*
X131380952Y-113690476D01*
X131428571Y-113738095D01*
X131476190Y-113833333D01*
X131476190Y-114214285D01*
X131047619Y-113261904D02*
X131000000Y-113214285D01*
X130952380Y-113119047D01*
X130952380Y-112880952D01*
X131000000Y-112785714D01*
X131047619Y-112738095D01*
X131142857Y-112690476D01*
X131238095Y-112690476D01*
X131380952Y-112738095D01*
X131952380Y-113309523D01*
X131952380Y-112690476D01*
X131952380Y-112214285D02*
X131952380Y-112023809D01*
X131904761Y-111928571D01*
X131857142Y-111880952D01*
X131714285Y-111785714D01*
X131523809Y-111738095D01*
X131142857Y-111738095D01*
X131047619Y-111785714D01*
X131000000Y-111833333D01*
X130952380Y-111928571D01*
X130952380Y-112119047D01*
X131000000Y-112214285D01*
X131047619Y-112261904D01*
X131142857Y-112309523D01*
X131380952Y-112309523D01*
X131476190Y-112261904D01*
X131523809Y-112214285D01*
X131571428Y-112119047D01*
X131571428Y-111928571D01*
X131523809Y-111833333D01*
X131476190Y-111785714D01*
X131380952Y-111738095D01*
G04 #@! TO.C,R30*
X131952380Y-100142857D02*
X131476190Y-100476190D01*
X131952380Y-100714285D02*
X130952380Y-100714285D01*
X130952380Y-100333333D01*
X131000000Y-100238095D01*
X131047619Y-100190476D01*
X131142857Y-100142857D01*
X131285714Y-100142857D01*
X131380952Y-100190476D01*
X131428571Y-100238095D01*
X131476190Y-100333333D01*
X131476190Y-100714285D01*
X130952380Y-99809523D02*
X130952380Y-99190476D01*
X131333333Y-99523809D01*
X131333333Y-99380952D01*
X131380952Y-99285714D01*
X131428571Y-99238095D01*
X131523809Y-99190476D01*
X131761904Y-99190476D01*
X131857142Y-99238095D01*
X131904761Y-99285714D01*
X131952380Y-99380952D01*
X131952380Y-99666666D01*
X131904761Y-99761904D01*
X131857142Y-99809523D01*
X130952380Y-98571428D02*
X130952380Y-98476190D01*
X131000000Y-98380952D01*
X131047619Y-98333333D01*
X131142857Y-98285714D01*
X131333333Y-98238095D01*
X131571428Y-98238095D01*
X131761904Y-98285714D01*
X131857142Y-98333333D01*
X131904761Y-98380952D01*
X131952380Y-98476190D01*
X131952380Y-98571428D01*
X131904761Y-98666666D01*
X131857142Y-98714285D01*
X131761904Y-98761904D01*
X131571428Y-98809523D01*
X131333333Y-98809523D01*
X131142857Y-98761904D01*
X131047619Y-98714285D01*
X131000000Y-98666666D01*
X130952380Y-98571428D01*
G04 #@! TO.C,R32*
X136552380Y-97142857D02*
X136076190Y-97476190D01*
X136552380Y-97714285D02*
X135552380Y-97714285D01*
X135552380Y-97333333D01*
X135600000Y-97238095D01*
X135647619Y-97190476D01*
X135742857Y-97142857D01*
X135885714Y-97142857D01*
X135980952Y-97190476D01*
X136028571Y-97238095D01*
X136076190Y-97333333D01*
X136076190Y-97714285D01*
X135552380Y-96809523D02*
X135552380Y-96190476D01*
X135933333Y-96523809D01*
X135933333Y-96380952D01*
X135980952Y-96285714D01*
X136028571Y-96238095D01*
X136123809Y-96190476D01*
X136361904Y-96190476D01*
X136457142Y-96238095D01*
X136504761Y-96285714D01*
X136552380Y-96380952D01*
X136552380Y-96666666D01*
X136504761Y-96761904D01*
X136457142Y-96809523D01*
X135647619Y-95809523D02*
X135600000Y-95761904D01*
X135552380Y-95666666D01*
X135552380Y-95428571D01*
X135600000Y-95333333D01*
X135647619Y-95285714D01*
X135742857Y-95238095D01*
X135838095Y-95238095D01*
X135980952Y-95285714D01*
X136552380Y-95857142D01*
X136552380Y-95238095D01*
G04 #@! TO.C,R33*
X123357142Y-134952380D02*
X123023809Y-134476190D01*
X122785714Y-134952380D02*
X122785714Y-133952380D01*
X123166666Y-133952380D01*
X123261904Y-134000000D01*
X123309523Y-134047619D01*
X123357142Y-134142857D01*
X123357142Y-134285714D01*
X123309523Y-134380952D01*
X123261904Y-134428571D01*
X123166666Y-134476190D01*
X122785714Y-134476190D01*
X123690476Y-133952380D02*
X124309523Y-133952380D01*
X123976190Y-134333333D01*
X124119047Y-134333333D01*
X124214285Y-134380952D01*
X124261904Y-134428571D01*
X124309523Y-134523809D01*
X124309523Y-134761904D01*
X124261904Y-134857142D01*
X124214285Y-134904761D01*
X124119047Y-134952380D01*
X123833333Y-134952380D01*
X123738095Y-134904761D01*
X123690476Y-134857142D01*
X124642857Y-133952380D02*
X125261904Y-133952380D01*
X124928571Y-134333333D01*
X125071428Y-134333333D01*
X125166666Y-134380952D01*
X125214285Y-134428571D01*
X125261904Y-134523809D01*
X125261904Y-134761904D01*
X125214285Y-134857142D01*
X125166666Y-134904761D01*
X125071428Y-134952380D01*
X124785714Y-134952380D01*
X124690476Y-134904761D01*
X124642857Y-134857142D01*
G04 #@! TO.C,R34*
X123857142Y-128452380D02*
X123523809Y-127976190D01*
X123285714Y-128452380D02*
X123285714Y-127452380D01*
X123666666Y-127452380D01*
X123761904Y-127500000D01*
X123809523Y-127547619D01*
X123857142Y-127642857D01*
X123857142Y-127785714D01*
X123809523Y-127880952D01*
X123761904Y-127928571D01*
X123666666Y-127976190D01*
X123285714Y-127976190D01*
X124190476Y-127452380D02*
X124809523Y-127452380D01*
X124476190Y-127833333D01*
X124619047Y-127833333D01*
X124714285Y-127880952D01*
X124761904Y-127928571D01*
X124809523Y-128023809D01*
X124809523Y-128261904D01*
X124761904Y-128357142D01*
X124714285Y-128404761D01*
X124619047Y-128452380D01*
X124333333Y-128452380D01*
X124238095Y-128404761D01*
X124190476Y-128357142D01*
X125666666Y-127785714D02*
X125666666Y-128452380D01*
X125428571Y-127404761D02*
X125190476Y-128119047D01*
X125809523Y-128119047D01*
G04 #@! TO.C,R35*
X123357142Y-122452380D02*
X123023809Y-121976190D01*
X122785714Y-122452380D02*
X122785714Y-121452380D01*
X123166666Y-121452380D01*
X123261904Y-121500000D01*
X123309523Y-121547619D01*
X123357142Y-121642857D01*
X123357142Y-121785714D01*
X123309523Y-121880952D01*
X123261904Y-121928571D01*
X123166666Y-121976190D01*
X122785714Y-121976190D01*
X123690476Y-121452380D02*
X124309523Y-121452380D01*
X123976190Y-121833333D01*
X124119047Y-121833333D01*
X124214285Y-121880952D01*
X124261904Y-121928571D01*
X124309523Y-122023809D01*
X124309523Y-122261904D01*
X124261904Y-122357142D01*
X124214285Y-122404761D01*
X124119047Y-122452380D01*
X123833333Y-122452380D01*
X123738095Y-122404761D01*
X123690476Y-122357142D01*
X125214285Y-121452380D02*
X124738095Y-121452380D01*
X124690476Y-121928571D01*
X124738095Y-121880952D01*
X124833333Y-121833333D01*
X125071428Y-121833333D01*
X125166666Y-121880952D01*
X125214285Y-121928571D01*
X125261904Y-122023809D01*
X125261904Y-122261904D01*
X125214285Y-122357142D01*
X125166666Y-122404761D01*
X125071428Y-122452380D01*
X124833333Y-122452380D01*
X124738095Y-122404761D01*
X124690476Y-122357142D01*
G04 #@! TO.C,R36*
X120357142Y-109452380D02*
X120023809Y-108976190D01*
X119785714Y-109452380D02*
X119785714Y-108452380D01*
X120166666Y-108452380D01*
X120261904Y-108500000D01*
X120309523Y-108547619D01*
X120357142Y-108642857D01*
X120357142Y-108785714D01*
X120309523Y-108880952D01*
X120261904Y-108928571D01*
X120166666Y-108976190D01*
X119785714Y-108976190D01*
X120690476Y-108452380D02*
X121309523Y-108452380D01*
X120976190Y-108833333D01*
X121119047Y-108833333D01*
X121214285Y-108880952D01*
X121261904Y-108928571D01*
X121309523Y-109023809D01*
X121309523Y-109261904D01*
X121261904Y-109357142D01*
X121214285Y-109404761D01*
X121119047Y-109452380D01*
X120833333Y-109452380D01*
X120738095Y-109404761D01*
X120690476Y-109357142D01*
X122166666Y-108452380D02*
X121976190Y-108452380D01*
X121880952Y-108500000D01*
X121833333Y-108547619D01*
X121738095Y-108690476D01*
X121690476Y-108880952D01*
X121690476Y-109261904D01*
X121738095Y-109357142D01*
X121785714Y-109404761D01*
X121880952Y-109452380D01*
X122071428Y-109452380D01*
X122166666Y-109404761D01*
X122214285Y-109357142D01*
X122261904Y-109261904D01*
X122261904Y-109023809D01*
X122214285Y-108928571D01*
X122166666Y-108880952D01*
X122071428Y-108833333D01*
X121880952Y-108833333D01*
X121785714Y-108880952D01*
X121738095Y-108928571D01*
X121690476Y-109023809D01*
G04 #@! TO.C,R37*
X121857142Y-101952380D02*
X121523809Y-101476190D01*
X121285714Y-101952380D02*
X121285714Y-100952380D01*
X121666666Y-100952380D01*
X121761904Y-101000000D01*
X121809523Y-101047619D01*
X121857142Y-101142857D01*
X121857142Y-101285714D01*
X121809523Y-101380952D01*
X121761904Y-101428571D01*
X121666666Y-101476190D01*
X121285714Y-101476190D01*
X122190476Y-100952380D02*
X122809523Y-100952380D01*
X122476190Y-101333333D01*
X122619047Y-101333333D01*
X122714285Y-101380952D01*
X122761904Y-101428571D01*
X122809523Y-101523809D01*
X122809523Y-101761904D01*
X122761904Y-101857142D01*
X122714285Y-101904761D01*
X122619047Y-101952380D01*
X122333333Y-101952380D01*
X122238095Y-101904761D01*
X122190476Y-101857142D01*
X123142857Y-100952380D02*
X123809523Y-100952380D01*
X123380952Y-101952380D01*
G04 #@! TO.C,R38*
X118357142Y-98452380D02*
X118023809Y-97976190D01*
X117785714Y-98452380D02*
X117785714Y-97452380D01*
X118166666Y-97452380D01*
X118261904Y-97500000D01*
X118309523Y-97547619D01*
X118357142Y-97642857D01*
X118357142Y-97785714D01*
X118309523Y-97880952D01*
X118261904Y-97928571D01*
X118166666Y-97976190D01*
X117785714Y-97976190D01*
X118690476Y-97452380D02*
X119309523Y-97452380D01*
X118976190Y-97833333D01*
X119119047Y-97833333D01*
X119214285Y-97880952D01*
X119261904Y-97928571D01*
X119309523Y-98023809D01*
X119309523Y-98261904D01*
X119261904Y-98357142D01*
X119214285Y-98404761D01*
X119119047Y-98452380D01*
X118833333Y-98452380D01*
X118738095Y-98404761D01*
X118690476Y-98357142D01*
X119880952Y-97880952D02*
X119785714Y-97833333D01*
X119738095Y-97785714D01*
X119690476Y-97690476D01*
X119690476Y-97642857D01*
X119738095Y-97547619D01*
X119785714Y-97500000D01*
X119880952Y-97452380D01*
X120071428Y-97452380D01*
X120166666Y-97500000D01*
X120214285Y-97547619D01*
X120261904Y-97642857D01*
X120261904Y-97690476D01*
X120214285Y-97785714D01*
X120166666Y-97833333D01*
X120071428Y-97880952D01*
X119880952Y-97880952D01*
X119785714Y-97928571D01*
X119738095Y-97976190D01*
X119690476Y-98071428D01*
X119690476Y-98261904D01*
X119738095Y-98357142D01*
X119785714Y-98404761D01*
X119880952Y-98452380D01*
X120071428Y-98452380D01*
X120166666Y-98404761D01*
X120214285Y-98357142D01*
X120261904Y-98261904D01*
X120261904Y-98071428D01*
X120214285Y-97976190D01*
X120166666Y-97928571D01*
X120071428Y-97880952D01*
G04 #@! TO.C,*
G04 #@! TO.C,C11*
X147357142Y-77357142D02*
X147309523Y-77404761D01*
X147166666Y-77452380D01*
X147071428Y-77452380D01*
X146928571Y-77404761D01*
X146833333Y-77309523D01*
X146785714Y-77214285D01*
X146738095Y-77023809D01*
X146738095Y-76880952D01*
X146785714Y-76690476D01*
X146833333Y-76595238D01*
X146928571Y-76500000D01*
X147071428Y-76452380D01*
X147166666Y-76452380D01*
X147309523Y-76500000D01*
X147357142Y-76547619D01*
X148309523Y-77452380D02*
X147738095Y-77452380D01*
X148023809Y-77452380D02*
X148023809Y-76452380D01*
X147928571Y-76595238D01*
X147833333Y-76690476D01*
X147738095Y-76738095D01*
X149261904Y-77452380D02*
X148690476Y-77452380D01*
X148976190Y-77452380D02*
X148976190Y-76452380D01*
X148880952Y-76595238D01*
X148785714Y-76690476D01*
X148690476Y-76738095D01*
G04 #@! TO.C,C12*
X151857142Y-142857142D02*
X151809523Y-142904761D01*
X151666666Y-142952380D01*
X151571428Y-142952380D01*
X151428571Y-142904761D01*
X151333333Y-142809523D01*
X151285714Y-142714285D01*
X151238095Y-142523809D01*
X151238095Y-142380952D01*
X151285714Y-142190476D01*
X151333333Y-142095238D01*
X151428571Y-142000000D01*
X151571428Y-141952380D01*
X151666666Y-141952380D01*
X151809523Y-142000000D01*
X151857142Y-142047619D01*
X152809523Y-142952380D02*
X152238095Y-142952380D01*
X152523809Y-142952380D02*
X152523809Y-141952380D01*
X152428571Y-142095238D01*
X152333333Y-142190476D01*
X152238095Y-142238095D01*
X153190476Y-142047619D02*
X153238095Y-142000000D01*
X153333333Y-141952380D01*
X153571428Y-141952380D01*
X153666666Y-142000000D01*
X153714285Y-142047619D01*
X153761904Y-142142857D01*
X153761904Y-142238095D01*
X153714285Y-142380952D01*
X153142857Y-142952380D01*
X153761904Y-142952380D01*
G04 #@! TO.C,C13*
X151857142Y-126857142D02*
X151809523Y-126904761D01*
X151666666Y-126952380D01*
X151571428Y-126952380D01*
X151428571Y-126904761D01*
X151333333Y-126809523D01*
X151285714Y-126714285D01*
X151238095Y-126523809D01*
X151238095Y-126380952D01*
X151285714Y-126190476D01*
X151333333Y-126095238D01*
X151428571Y-126000000D01*
X151571428Y-125952380D01*
X151666666Y-125952380D01*
X151809523Y-126000000D01*
X151857142Y-126047619D01*
X152809523Y-126952380D02*
X152238095Y-126952380D01*
X152523809Y-126952380D02*
X152523809Y-125952380D01*
X152428571Y-126095238D01*
X152333333Y-126190476D01*
X152238095Y-126238095D01*
X153142857Y-125952380D02*
X153761904Y-125952380D01*
X153428571Y-126333333D01*
X153571428Y-126333333D01*
X153666666Y-126380952D01*
X153714285Y-126428571D01*
X153761904Y-126523809D01*
X153761904Y-126761904D01*
X153714285Y-126857142D01*
X153666666Y-126904761D01*
X153571428Y-126952380D01*
X153285714Y-126952380D01*
X153190476Y-126904761D01*
X153142857Y-126857142D01*
G04 #@! TO.C,C14*
X152357142Y-96857142D02*
X152309523Y-96904761D01*
X152166666Y-96952380D01*
X152071428Y-96952380D01*
X151928571Y-96904761D01*
X151833333Y-96809523D01*
X151785714Y-96714285D01*
X151738095Y-96523809D01*
X151738095Y-96380952D01*
X151785714Y-96190476D01*
X151833333Y-96095238D01*
X151928571Y-96000000D01*
X152071428Y-95952380D01*
X152166666Y-95952380D01*
X152309523Y-96000000D01*
X152357142Y-96047619D01*
X153309523Y-96952380D02*
X152738095Y-96952380D01*
X153023809Y-96952380D02*
X153023809Y-95952380D01*
X152928571Y-96095238D01*
X152833333Y-96190476D01*
X152738095Y-96238095D01*
X154166666Y-96285714D02*
X154166666Y-96952380D01*
X153928571Y-95904761D02*
X153690476Y-96619047D01*
X154309523Y-96619047D01*
G04 #@! TO.C,C15*
X152357142Y-112857142D02*
X152309523Y-112904761D01*
X152166666Y-112952380D01*
X152071428Y-112952380D01*
X151928571Y-112904761D01*
X151833333Y-112809523D01*
X151785714Y-112714285D01*
X151738095Y-112523809D01*
X151738095Y-112380952D01*
X151785714Y-112190476D01*
X151833333Y-112095238D01*
X151928571Y-112000000D01*
X152071428Y-111952380D01*
X152166666Y-111952380D01*
X152309523Y-112000000D01*
X152357142Y-112047619D01*
X153309523Y-112952380D02*
X152738095Y-112952380D01*
X153023809Y-112952380D02*
X153023809Y-111952380D01*
X152928571Y-112095238D01*
X152833333Y-112190476D01*
X152738095Y-112238095D01*
X154214285Y-111952380D02*
X153738095Y-111952380D01*
X153690476Y-112428571D01*
X153738095Y-112380952D01*
X153833333Y-112333333D01*
X154071428Y-112333333D01*
X154166666Y-112380952D01*
X154214285Y-112428571D01*
X154261904Y-112523809D01*
X154261904Y-112761904D01*
X154214285Y-112857142D01*
X154166666Y-112904761D01*
X154071428Y-112952380D01*
X153833333Y-112952380D01*
X153738095Y-112904761D01*
X153690476Y-112857142D01*
G04 #@! TO.C,C16*
X148357142Y-156357142D02*
X148309523Y-156404761D01*
X148166666Y-156452380D01*
X148071428Y-156452380D01*
X147928571Y-156404761D01*
X147833333Y-156309523D01*
X147785714Y-156214285D01*
X147738095Y-156023809D01*
X147738095Y-155880952D01*
X147785714Y-155690476D01*
X147833333Y-155595238D01*
X147928571Y-155500000D01*
X148071428Y-155452380D01*
X148166666Y-155452380D01*
X148309523Y-155500000D01*
X148357142Y-155547619D01*
X149309523Y-156452380D02*
X148738095Y-156452380D01*
X149023809Y-156452380D02*
X149023809Y-155452380D01*
X148928571Y-155595238D01*
X148833333Y-155690476D01*
X148738095Y-155738095D01*
X150166666Y-155452380D02*
X149976190Y-155452380D01*
X149880952Y-155500000D01*
X149833333Y-155547619D01*
X149738095Y-155690476D01*
X149690476Y-155880952D01*
X149690476Y-156261904D01*
X149738095Y-156357142D01*
X149785714Y-156404761D01*
X149880952Y-156452380D01*
X150071428Y-156452380D01*
X150166666Y-156404761D01*
X150214285Y-156357142D01*
X150261904Y-156261904D01*
X150261904Y-156023809D01*
X150214285Y-155928571D01*
X150166666Y-155880952D01*
X150071428Y-155833333D01*
X149880952Y-155833333D01*
X149785714Y-155880952D01*
X149738095Y-155928571D01*
X149690476Y-156023809D01*
G04 #@! TD*
M02*
