%TF.GenerationSoftware,KiCad,Pcbnew,7.0.7*%
%TF.CreationDate,2024-01-02T20:56:35+01:00*%
%TF.ProjectId,ventirad,76656e74-6972-4616-942e-6b696361645f,rev?*%
%TF.SameCoordinates,Original*%
%TF.FileFunction,Drillmap*%
%TF.FilePolarity,Positive*%
%FSLAX45Y45*%
G04 Gerber Fmt 4.5, Leading zero omitted, Abs format (unit mm)*
G04 Created by KiCad (PCBNEW 7.0.7) date 2024-01-02 20:56:35*
%MOMM*%
%LPD*%
G01*
G04 APERTURE LIST*
%ADD10C,0.150000*%
%ADD11C,0.200000*%
%ADD12C,0.040000*%
%ADD13C,0.081280*%
%ADD14C,0.120000*%
%ADD15C,0.320000*%
G04 APERTURE END LIST*
D10*
X10700000Y-6000000D02*
X15700000Y-6000000D01*
X10700000Y-16000000D02*
X10700000Y-6000000D01*
X15700000Y-16000000D02*
X10700000Y-16000000D01*
X15700000Y-6000000D02*
X15700000Y-16000000D01*
D11*
D12*
X12255000Y-10530000D02*
X12295000Y-10570000D01*
X12295000Y-10530000D02*
X12255000Y-10570000D01*
X12380000Y-10430000D02*
X12420000Y-10470000D01*
X12420000Y-10430000D02*
X12380000Y-10470000D01*
X12455000Y-12180000D02*
X12495000Y-12220000D01*
X12495000Y-12180000D02*
X12455000Y-12220000D01*
X12505000Y-11380000D02*
X12545000Y-11420000D01*
X12545000Y-11380000D02*
X12505000Y-11420000D01*
X12580000Y-9930000D02*
X12620000Y-9970000D01*
X12620000Y-9930000D02*
X12580000Y-9970000D01*
X12580000Y-10055000D02*
X12620000Y-10095000D01*
X12620000Y-10055000D02*
X12580000Y-10095000D01*
X12580000Y-10580000D02*
X12620000Y-10620000D01*
X12620000Y-10580000D02*
X12580000Y-10620000D01*
X12580000Y-10705000D02*
X12620000Y-10745000D01*
X12620000Y-10705000D02*
X12580000Y-10745000D01*
X12655000Y-11355000D02*
X12695000Y-11395000D01*
X12695000Y-11355000D02*
X12655000Y-11395000D01*
X12705000Y-9930000D02*
X12745000Y-9970000D01*
X12745000Y-9930000D02*
X12705000Y-9970000D01*
X12705000Y-10055000D02*
X12745000Y-10095000D01*
X12745000Y-10055000D02*
X12705000Y-10095000D01*
X12705000Y-10580000D02*
X12745000Y-10620000D01*
X12745000Y-10580000D02*
X12705000Y-10620000D01*
X12705000Y-10705000D02*
X12745000Y-10745000D01*
X12745000Y-10705000D02*
X12705000Y-10745000D01*
X12705000Y-12030000D02*
X12745000Y-12070000D01*
X12745000Y-12030000D02*
X12705000Y-12070000D01*
X12705000Y-12130000D02*
X12745000Y-12170000D01*
X12745000Y-12130000D02*
X12705000Y-12170000D01*
X12705000Y-12630000D02*
X12745000Y-12670000D01*
X12745000Y-12630000D02*
X12705000Y-12670000D01*
X12705000Y-12730000D02*
X12745000Y-12770000D01*
X12745000Y-12730000D02*
X12705000Y-12770000D01*
X12755000Y-8230000D02*
X12795000Y-8270000D01*
X12795000Y-8230000D02*
X12755000Y-8270000D01*
X12780000Y-11355000D02*
X12820000Y-11395000D01*
X12820000Y-11355000D02*
X12780000Y-11395000D01*
X12780000Y-11480000D02*
X12820000Y-11520000D01*
X12820000Y-11480000D02*
X12780000Y-11520000D01*
X12805000Y-12030000D02*
X12845000Y-12070000D01*
X12845000Y-12030000D02*
X12805000Y-12070000D01*
X12830000Y-12630000D02*
X12870000Y-12670000D01*
X12870000Y-12630000D02*
X12830000Y-12670000D01*
X12855000Y-8930000D02*
X12895000Y-8970000D01*
X12895000Y-8930000D02*
X12855000Y-8970000D01*
X12955000Y-9330000D02*
X12995000Y-9370000D01*
X12995000Y-9330000D02*
X12955000Y-9370000D01*
X13080000Y-9330000D02*
X13120000Y-9370000D01*
X13120000Y-9330000D02*
X13080000Y-9370000D01*
X13205000Y-9330000D02*
X13245000Y-9370000D01*
X13245000Y-9330000D02*
X13205000Y-9370000D01*
X13330000Y-9330000D02*
X13370000Y-9370000D01*
X13370000Y-9330000D02*
X13330000Y-9370000D01*
X13455000Y-9330000D02*
X13495000Y-9370000D01*
X13495000Y-9330000D02*
X13455000Y-9370000D01*
X13930000Y-8580000D02*
X13970000Y-8620000D01*
X13970000Y-8580000D02*
X13930000Y-8620000D01*
X13930000Y-8730000D02*
X13970000Y-8770000D01*
X13970000Y-8730000D02*
X13930000Y-8770000D01*
X13930000Y-8880000D02*
X13970000Y-8920000D01*
X13970000Y-8880000D02*
X13930000Y-8920000D01*
X13930000Y-9030000D02*
X13970000Y-9070000D01*
X13970000Y-9030000D02*
X13930000Y-9070000D01*
X13930000Y-9730000D02*
X13970000Y-9770000D01*
X13970000Y-9730000D02*
X13930000Y-9770000D01*
X13930000Y-9880000D02*
X13970000Y-9920000D01*
X13970000Y-9880000D02*
X13930000Y-9920000D01*
X13930000Y-10030000D02*
X13970000Y-10070000D01*
X13970000Y-10030000D02*
X13930000Y-10070000D01*
X13930000Y-10180000D02*
X13970000Y-10220000D01*
X13970000Y-10180000D02*
X13930000Y-10220000D01*
X13980000Y-11830000D02*
X14020000Y-11870000D01*
X14020000Y-11830000D02*
X13980000Y-11870000D01*
X13980000Y-11980000D02*
X14020000Y-12020000D01*
X14020000Y-11980000D02*
X13980000Y-12020000D01*
X13980000Y-12130000D02*
X14020000Y-12170000D01*
X14020000Y-12130000D02*
X13980000Y-12170000D01*
X14080000Y-8580000D02*
X14120000Y-8620000D01*
X14120000Y-8580000D02*
X14080000Y-8620000D01*
X14080000Y-9730000D02*
X14120000Y-9770000D01*
X14120000Y-9730000D02*
X14080000Y-9770000D01*
X14080000Y-11680000D02*
X14120000Y-11720000D01*
X14120000Y-11680000D02*
X14080000Y-11720000D01*
X14080000Y-14680000D02*
X14120000Y-14720000D01*
X14120000Y-14680000D02*
X14080000Y-14720000D01*
X14080000Y-14780000D02*
X14120000Y-14820000D01*
X14120000Y-14780000D02*
X14080000Y-14820000D01*
X14080000Y-14880000D02*
X14120000Y-14920000D01*
X14120000Y-14880000D02*
X14080000Y-14920000D01*
X14130000Y-12130000D02*
X14170000Y-12170000D01*
X14170000Y-12130000D02*
X14130000Y-12170000D01*
X14180000Y-14680000D02*
X14220000Y-14720000D01*
X14220000Y-14680000D02*
X14180000Y-14720000D01*
X14230000Y-8580000D02*
X14270000Y-8620000D01*
X14270000Y-8580000D02*
X14230000Y-8620000D01*
X14230000Y-9730000D02*
X14270000Y-9770000D01*
X14270000Y-9730000D02*
X14230000Y-9770000D01*
X14230000Y-11680000D02*
X14270000Y-11720000D01*
X14270000Y-11680000D02*
X14230000Y-11720000D01*
X14230000Y-13180000D02*
X14270000Y-13220000D01*
X14270000Y-13180000D02*
X14230000Y-13220000D01*
X14230000Y-13280000D02*
X14270000Y-13320000D01*
X14270000Y-13280000D02*
X14230000Y-13320000D01*
X14230000Y-13380000D02*
X14270000Y-13420000D01*
X14270000Y-13380000D02*
X14230000Y-13420000D01*
X14230000Y-13680000D02*
X14270000Y-13720000D01*
X14270000Y-13680000D02*
X14230000Y-13720000D01*
X14280000Y-14680000D02*
X14320000Y-14720000D01*
X14320000Y-14680000D02*
X14280000Y-14720000D01*
X14280000Y-14780000D02*
X14320000Y-14820000D01*
X14320000Y-14780000D02*
X14280000Y-14820000D01*
X14280000Y-14880000D02*
X14320000Y-14920000D01*
X14320000Y-14880000D02*
X14280000Y-14920000D01*
X14580000Y-15530000D02*
X14620000Y-15570000D01*
X14620000Y-15530000D02*
X14580000Y-15570000D01*
X14580000Y-15655000D02*
X14620000Y-15695000D01*
X14620000Y-15655000D02*
X14580000Y-15695000D01*
X14780000Y-15530000D02*
X14820000Y-15570000D01*
X14820000Y-15530000D02*
X14780000Y-15570000D01*
X14780000Y-15655000D02*
X14820000Y-15695000D01*
X14820000Y-15655000D02*
X14780000Y-15695000D01*
X14880000Y-9480000D02*
X14920000Y-9520000D01*
X14920000Y-9480000D02*
X14880000Y-9520000D01*
X14880000Y-11080000D02*
X14920000Y-11120000D01*
X14920000Y-11080000D02*
X14880000Y-11120000D01*
X14880000Y-12480000D02*
X14920000Y-12520000D01*
X14920000Y-12480000D02*
X14880000Y-12520000D01*
X14880000Y-14080000D02*
X14920000Y-14120000D01*
X14920000Y-14080000D02*
X14880000Y-14120000D01*
X14930000Y-15325000D02*
X14970000Y-15365000D01*
X14970000Y-15325000D02*
X14930000Y-15365000D01*
X14930000Y-15530000D02*
X14970000Y-15570000D01*
X14970000Y-15530000D02*
X14930000Y-15570000D01*
X14930000Y-15655000D02*
X14970000Y-15695000D01*
X14970000Y-15655000D02*
X14930000Y-15695000D01*
X14980000Y-7980000D02*
X15020000Y-8020000D01*
X15020000Y-7980000D02*
X14980000Y-8020000D01*
X14980000Y-9480000D02*
X15020000Y-9520000D01*
X15020000Y-9480000D02*
X14980000Y-9520000D01*
X14980000Y-11080000D02*
X15020000Y-11120000D01*
X15020000Y-11080000D02*
X14980000Y-11120000D01*
X14980000Y-12480000D02*
X15020000Y-12520000D01*
X15020000Y-12480000D02*
X14980000Y-12520000D01*
X14980000Y-14080000D02*
X15020000Y-14120000D01*
X15020000Y-14080000D02*
X14980000Y-14120000D01*
X15080000Y-7780000D02*
X15120000Y-7820000D01*
X15120000Y-7780000D02*
X15080000Y-7820000D01*
X15080000Y-7880000D02*
X15120000Y-7920000D01*
X15120000Y-7880000D02*
X15080000Y-7920000D01*
X15080000Y-7980000D02*
X15120000Y-8020000D01*
X15120000Y-7980000D02*
X15080000Y-8020000D01*
X15080000Y-9280000D02*
X15120000Y-9320000D01*
X15120000Y-9280000D02*
X15080000Y-9320000D01*
X15080000Y-9380000D02*
X15120000Y-9420000D01*
X15120000Y-9380000D02*
X15080000Y-9420000D01*
X15080000Y-9480000D02*
X15120000Y-9520000D01*
X15120000Y-9480000D02*
X15080000Y-9520000D01*
X15080000Y-10880000D02*
X15120000Y-10920000D01*
X15120000Y-10880000D02*
X15080000Y-10920000D01*
X15080000Y-10980000D02*
X15120000Y-11020000D01*
X15120000Y-10980000D02*
X15080000Y-11020000D01*
X15080000Y-11080000D02*
X15120000Y-11120000D01*
X15120000Y-11080000D02*
X15080000Y-11120000D01*
X15080000Y-12280000D02*
X15120000Y-12320000D01*
X15120000Y-12280000D02*
X15080000Y-12320000D01*
X15080000Y-12380000D02*
X15120000Y-12420000D01*
X15120000Y-12380000D02*
X15080000Y-12420000D01*
X15080000Y-12480000D02*
X15120000Y-12520000D01*
X15120000Y-12480000D02*
X15080000Y-12520000D01*
X15080000Y-13880000D02*
X15120000Y-13920000D01*
X15120000Y-13880000D02*
X15080000Y-13920000D01*
X15080000Y-13980000D02*
X15120000Y-14020000D01*
X15120000Y-13980000D02*
X15080000Y-14020000D01*
X15080000Y-14080000D02*
X15120000Y-14120000D01*
X15120000Y-14080000D02*
X15080000Y-14120000D01*
X15180000Y-7780000D02*
X15220000Y-7820000D01*
X15220000Y-7780000D02*
X15180000Y-7820000D01*
X15180000Y-7880000D02*
X15220000Y-7920000D01*
X15220000Y-7880000D02*
X15180000Y-7920000D01*
X15180000Y-7980000D02*
X15220000Y-8020000D01*
X15220000Y-7980000D02*
X15180000Y-8020000D01*
X15180000Y-9280000D02*
X15220000Y-9320000D01*
X15220000Y-9280000D02*
X15180000Y-9320000D01*
X15180000Y-9380000D02*
X15220000Y-9420000D01*
X15220000Y-9380000D02*
X15180000Y-9420000D01*
X15180000Y-9480000D02*
X15220000Y-9520000D01*
X15220000Y-9480000D02*
X15180000Y-9520000D01*
X15180000Y-10880000D02*
X15220000Y-10920000D01*
X15220000Y-10880000D02*
X15180000Y-10920000D01*
X15180000Y-10980000D02*
X15220000Y-11020000D01*
X15220000Y-10980000D02*
X15180000Y-11020000D01*
X15180000Y-11080000D02*
X15220000Y-11120000D01*
X15220000Y-11080000D02*
X15180000Y-11120000D01*
X15180000Y-12280000D02*
X15220000Y-12320000D01*
X15220000Y-12280000D02*
X15180000Y-12320000D01*
X15180000Y-12380000D02*
X15220000Y-12420000D01*
X15220000Y-12380000D02*
X15180000Y-12420000D01*
X15180000Y-12480000D02*
X15220000Y-12520000D01*
X15220000Y-12480000D02*
X15180000Y-12520000D01*
X15180000Y-13880000D02*
X15220000Y-13920000D01*
X15220000Y-13880000D02*
X15180000Y-13920000D01*
X15180000Y-13980000D02*
X15220000Y-14020000D01*
X15220000Y-13980000D02*
X15180000Y-14020000D01*
X15180000Y-14080000D02*
X15220000Y-14120000D01*
X15220000Y-14080000D02*
X15180000Y-14120000D01*
X15180000Y-15180000D02*
X15220000Y-15220000D01*
X15220000Y-15180000D02*
X15180000Y-15220000D01*
X15180000Y-15330000D02*
X15220000Y-15370000D01*
X15220000Y-15330000D02*
X15180000Y-15370000D01*
X15280000Y-7780000D02*
X15320000Y-7820000D01*
X15320000Y-7780000D02*
X15280000Y-7820000D01*
X15280000Y-7880000D02*
X15320000Y-7920000D01*
X15320000Y-7880000D02*
X15280000Y-7920000D01*
X15280000Y-7980000D02*
X15320000Y-8020000D01*
X15320000Y-7980000D02*
X15280000Y-8020000D01*
X15280000Y-9280000D02*
X15320000Y-9320000D01*
X15320000Y-9280000D02*
X15280000Y-9320000D01*
X15280000Y-9380000D02*
X15320000Y-9420000D01*
X15320000Y-9380000D02*
X15280000Y-9420000D01*
X15280000Y-9480000D02*
X15320000Y-9520000D01*
X15320000Y-9480000D02*
X15280000Y-9520000D01*
X15280000Y-10880000D02*
X15320000Y-10920000D01*
X15320000Y-10880000D02*
X15280000Y-10920000D01*
X15280000Y-10980000D02*
X15320000Y-11020000D01*
X15320000Y-10980000D02*
X15280000Y-11020000D01*
X15280000Y-11080000D02*
X15320000Y-11120000D01*
X15320000Y-11080000D02*
X15280000Y-11120000D01*
X15280000Y-12280000D02*
X15320000Y-12320000D01*
X15320000Y-12280000D02*
X15280000Y-12320000D01*
X15280000Y-12380000D02*
X15320000Y-12420000D01*
X15320000Y-12380000D02*
X15280000Y-12420000D01*
X15280000Y-12480000D02*
X15320000Y-12520000D01*
X15320000Y-12480000D02*
X15280000Y-12520000D01*
X15280000Y-13880000D02*
X15320000Y-13920000D01*
X15320000Y-13880000D02*
X15280000Y-13920000D01*
X15280000Y-13980000D02*
X15320000Y-14020000D01*
X15320000Y-13980000D02*
X15280000Y-14020000D01*
X15280000Y-14080000D02*
X15320000Y-14120000D01*
X15320000Y-14080000D02*
X15280000Y-14120000D01*
D13*
X11923140Y-10033000D02*
G75*
G03*
X11923140Y-10033000I-40640J0D01*
G01*
X11923140Y-10287000D02*
G75*
G03*
X11923140Y-10287000I-40640J0D01*
G01*
X11923140Y-10541000D02*
G75*
G03*
X11923140Y-10541000I-40640J0D01*
G01*
X11923140Y-10795000D02*
G75*
G03*
X11923140Y-10795000I-40640J0D01*
G01*
X11923140Y-11049000D02*
G75*
G03*
X11923140Y-11049000I-40640J0D01*
G01*
X11923140Y-11303000D02*
G75*
G03*
X11923140Y-11303000I-40640J0D01*
G01*
X11923140Y-11557000D02*
G75*
G03*
X11923140Y-11557000I-40640J0D01*
G01*
X11923140Y-11811000D02*
G75*
G03*
X11923140Y-11811000I-40640J0D01*
G01*
X11923140Y-12065000D02*
G75*
G03*
X11923140Y-12065000I-40640J0D01*
G01*
X11923140Y-12319000D02*
G75*
G03*
X11923140Y-12319000I-40640J0D01*
G01*
X11923140Y-12573000D02*
G75*
G03*
X11923140Y-12573000I-40640J0D01*
G01*
X11923140Y-12827000D02*
G75*
G03*
X11923140Y-12827000I-40640J0D01*
G01*
X11923140Y-13081000D02*
G75*
G03*
X11923140Y-13081000I-40640J0D01*
G01*
X11923140Y-13335000D02*
G75*
G03*
X11923140Y-13335000I-40640J0D01*
G01*
X11923140Y-13589000D02*
G75*
G03*
X11923140Y-13589000I-40640J0D01*
G01*
X13447140Y-10033000D02*
G75*
G03*
X13447140Y-10033000I-40640J0D01*
G01*
X13447140Y-10287000D02*
G75*
G03*
X13447140Y-10287000I-40640J0D01*
G01*
X13447140Y-10541000D02*
G75*
G03*
X13447140Y-10541000I-40640J0D01*
G01*
X13447140Y-10795000D02*
G75*
G03*
X13447140Y-10795000I-40640J0D01*
G01*
X13447140Y-11049000D02*
G75*
G03*
X13447140Y-11049000I-40640J0D01*
G01*
X13447140Y-11303000D02*
G75*
G03*
X13447140Y-11303000I-40640J0D01*
G01*
X13447140Y-11557000D02*
G75*
G03*
X13447140Y-11557000I-40640J0D01*
G01*
X13447140Y-11811000D02*
G75*
G03*
X13447140Y-11811000I-40640J0D01*
G01*
X13447140Y-12065000D02*
G75*
G03*
X13447140Y-12065000I-40640J0D01*
G01*
X13447140Y-12319000D02*
G75*
G03*
X13447140Y-12319000I-40640J0D01*
G01*
X13447140Y-12573000D02*
G75*
G03*
X13447140Y-12573000I-40640J0D01*
G01*
X13447140Y-12827000D02*
G75*
G03*
X13447140Y-12827000I-40640J0D01*
G01*
X13447140Y-13081000D02*
G75*
G03*
X13447140Y-13081000I-40640J0D01*
G01*
X13447140Y-13335000D02*
G75*
G03*
X13447140Y-13335000I-40640J0D01*
G01*
X13447140Y-13589000D02*
G75*
G03*
X13447140Y-13589000I-40640J0D01*
G01*
D14*
X11200000Y-6340000D02*
X11200000Y-6460000D01*
X11140000Y-6400000D02*
X11260000Y-6400000D01*
X11200000Y-6594000D02*
X11200000Y-6714000D01*
X11140000Y-6654000D02*
X11260000Y-6654000D01*
X11200000Y-7140000D02*
X11200000Y-7260000D01*
X11140000Y-7200000D02*
X11260000Y-7200000D01*
X11200000Y-7394000D02*
X11200000Y-7514000D01*
X11140000Y-7454000D02*
X11260000Y-7454000D01*
X11200000Y-7940000D02*
X11200000Y-8060000D01*
X11140000Y-8000000D02*
X11260000Y-8000000D01*
X11200000Y-8194000D02*
X11200000Y-8314000D01*
X11140000Y-8254000D02*
X11260000Y-8254000D01*
X11200000Y-8740000D02*
X11200000Y-8860000D01*
X11140000Y-8800000D02*
X11260000Y-8800000D01*
X11200000Y-8994000D02*
X11200000Y-9114000D01*
X11140000Y-9054000D02*
X11260000Y-9054000D01*
X11200000Y-9248000D02*
X11200000Y-9368000D01*
X11140000Y-9308000D02*
X11260000Y-9308000D01*
X11200000Y-9740000D02*
X11200000Y-9860000D01*
X11140000Y-9800000D02*
X11260000Y-9800000D01*
X11200000Y-9994000D02*
X11200000Y-10114000D01*
X11140000Y-10054000D02*
X11260000Y-10054000D01*
X11200000Y-10248000D02*
X11200000Y-10368000D01*
X11140000Y-10308000D02*
X11260000Y-10308000D01*
X11200000Y-10740000D02*
X11200000Y-10860000D01*
X11140000Y-10800000D02*
X11260000Y-10800000D01*
X11200000Y-10994000D02*
X11200000Y-11114000D01*
X11140000Y-11054000D02*
X11260000Y-11054000D01*
X11200000Y-11248000D02*
X11200000Y-11368000D01*
X11140000Y-11308000D02*
X11260000Y-11308000D01*
X11200000Y-11740000D02*
X11200000Y-11860000D01*
X11140000Y-11800000D02*
X11260000Y-11800000D01*
X11200000Y-11994000D02*
X11200000Y-12114000D01*
X11140000Y-12054000D02*
X11260000Y-12054000D01*
X11200000Y-12248000D02*
X11200000Y-12368000D01*
X11140000Y-12308000D02*
X11260000Y-12308000D01*
X11200000Y-12740000D02*
X11200000Y-12860000D01*
X11140000Y-12800000D02*
X11260000Y-12800000D01*
X11200000Y-12994000D02*
X11200000Y-13114000D01*
X11140000Y-13054000D02*
X11260000Y-13054000D01*
X11200000Y-13248000D02*
X11200000Y-13368000D01*
X11140000Y-13308000D02*
X11260000Y-13308000D01*
X11200000Y-13740000D02*
X11200000Y-13860000D01*
X11140000Y-13800000D02*
X11260000Y-13800000D01*
X11200000Y-13994000D02*
X11200000Y-14114000D01*
X11140000Y-14054000D02*
X11260000Y-14054000D01*
X11200000Y-14248000D02*
X11200000Y-14368000D01*
X11140000Y-14308000D02*
X11260000Y-14308000D01*
X11900000Y-14878000D02*
X11900000Y-14998000D01*
X11840000Y-14938000D02*
X11960000Y-14938000D01*
X11900000Y-15132000D02*
X11900000Y-15252000D01*
X11840000Y-15192000D02*
X11960000Y-15192000D01*
X11900000Y-15386000D02*
X11900000Y-15506000D01*
X11840000Y-15446000D02*
X11960000Y-15446000D01*
X11900000Y-15640000D02*
X11900000Y-15760000D01*
X11840000Y-15700000D02*
X11960000Y-15700000D01*
X12600000Y-15340000D02*
X12600000Y-15460000D01*
X12540000Y-15400000D02*
X12660000Y-15400000D01*
X12854000Y-15340000D02*
X12854000Y-15460000D01*
X12794000Y-15400000D02*
X12914000Y-15400000D01*
X13038000Y-6590000D02*
X13038000Y-6710000D01*
X12978000Y-6650000D02*
X13098000Y-6650000D01*
X13108000Y-15340000D02*
X13108000Y-15460000D01*
X13048000Y-15400000D02*
X13168000Y-15400000D01*
X13292000Y-6590000D02*
X13292000Y-6710000D01*
X13232000Y-6650000D02*
X13352000Y-6650000D01*
X13362000Y-15340000D02*
X13362000Y-15460000D01*
X13302000Y-15400000D02*
X13422000Y-15400000D01*
X13546000Y-6590000D02*
X13546000Y-6710000D01*
X13486000Y-6650000D02*
X13606000Y-6650000D01*
X13800000Y-6590000D02*
X13800000Y-6710000D01*
X13740000Y-6650000D02*
X13860000Y-6650000D01*
X15100000Y-7086000D02*
X15100000Y-7206000D01*
X15040000Y-7146000D02*
X15160000Y-7146000D01*
X15100000Y-7340000D02*
X15100000Y-7460000D01*
X15040000Y-7400000D02*
X15160000Y-7400000D01*
X15300000Y-8386000D02*
X15300000Y-8506000D01*
X15240000Y-8446000D02*
X15360000Y-8446000D01*
X15300000Y-8640000D02*
X15300000Y-8760000D01*
X15240000Y-8700000D02*
X15360000Y-8700000D01*
X15300000Y-9886000D02*
X15300000Y-10006000D01*
X15240000Y-9946000D02*
X15360000Y-9946000D01*
X15300000Y-10140000D02*
X15300000Y-10260000D01*
X15240000Y-10200000D02*
X15360000Y-10200000D01*
X15300000Y-11386000D02*
X15300000Y-11506000D01*
X15240000Y-11446000D02*
X15360000Y-11446000D01*
X15300000Y-11640000D02*
X15300000Y-11760000D01*
X15240000Y-11700000D02*
X15360000Y-11700000D01*
X15300000Y-12886000D02*
X15300000Y-13006000D01*
X15240000Y-12946000D02*
X15360000Y-12946000D01*
X15300000Y-13140000D02*
X15300000Y-13260000D01*
X15240000Y-13200000D02*
X15360000Y-13200000D01*
X15300000Y-14486000D02*
X15300000Y-14606000D01*
X15240000Y-14546000D02*
X15360000Y-14546000D01*
X15300000Y-14740000D02*
X15300000Y-14860000D01*
X15240000Y-14800000D02*
X15360000Y-14800000D01*
D15*
X11313138Y-15613138D02*
X11313138Y-15386862D01*
X11086862Y-15386862D01*
X11086862Y-15613138D01*
X11313138Y-15613138D01*
X15313138Y-6613138D02*
X15313138Y-6386862D01*
X15086862Y-6386862D01*
X15086862Y-6613138D01*
X15313138Y-6613138D01*
D11*
X10953277Y-16318984D02*
X10953277Y-16118984D01*
X10953277Y-16118984D02*
X11000896Y-16118984D01*
X11000896Y-16118984D02*
X11029467Y-16128508D01*
X11029467Y-16128508D02*
X11048515Y-16147555D01*
X11048515Y-16147555D02*
X11058039Y-16166603D01*
X11058039Y-16166603D02*
X11067563Y-16204698D01*
X11067563Y-16204698D02*
X11067563Y-16233269D01*
X11067563Y-16233269D02*
X11058039Y-16271365D01*
X11058039Y-16271365D02*
X11048515Y-16290412D01*
X11048515Y-16290412D02*
X11029467Y-16309460D01*
X11029467Y-16309460D02*
X11000896Y-16318984D01*
X11000896Y-16318984D02*
X10953277Y-16318984D01*
X11153277Y-16318984D02*
X11153277Y-16185650D01*
X11153277Y-16223746D02*
X11162801Y-16204698D01*
X11162801Y-16204698D02*
X11172324Y-16195174D01*
X11172324Y-16195174D02*
X11191372Y-16185650D01*
X11191372Y-16185650D02*
X11210420Y-16185650D01*
X11277086Y-16318984D02*
X11277086Y-16185650D01*
X11277086Y-16118984D02*
X11267562Y-16128508D01*
X11267562Y-16128508D02*
X11277086Y-16138031D01*
X11277086Y-16138031D02*
X11286610Y-16128508D01*
X11286610Y-16128508D02*
X11277086Y-16118984D01*
X11277086Y-16118984D02*
X11277086Y-16138031D01*
X11400896Y-16318984D02*
X11381848Y-16309460D01*
X11381848Y-16309460D02*
X11372324Y-16290412D01*
X11372324Y-16290412D02*
X11372324Y-16118984D01*
X11505658Y-16318984D02*
X11486610Y-16309460D01*
X11486610Y-16309460D02*
X11477086Y-16290412D01*
X11477086Y-16290412D02*
X11477086Y-16118984D01*
X11734229Y-16318984D02*
X11734229Y-16118984D01*
X11734229Y-16118984D02*
X11800896Y-16261841D01*
X11800896Y-16261841D02*
X11867562Y-16118984D01*
X11867562Y-16118984D02*
X11867562Y-16318984D01*
X12048515Y-16318984D02*
X12048515Y-16214222D01*
X12048515Y-16214222D02*
X12038991Y-16195174D01*
X12038991Y-16195174D02*
X12019943Y-16185650D01*
X12019943Y-16185650D02*
X11981848Y-16185650D01*
X11981848Y-16185650D02*
X11962801Y-16195174D01*
X12048515Y-16309460D02*
X12029467Y-16318984D01*
X12029467Y-16318984D02*
X11981848Y-16318984D01*
X11981848Y-16318984D02*
X11962801Y-16309460D01*
X11962801Y-16309460D02*
X11953277Y-16290412D01*
X11953277Y-16290412D02*
X11953277Y-16271365D01*
X11953277Y-16271365D02*
X11962801Y-16252317D01*
X11962801Y-16252317D02*
X11981848Y-16242793D01*
X11981848Y-16242793D02*
X12029467Y-16242793D01*
X12029467Y-16242793D02*
X12048515Y-16233269D01*
X12143753Y-16185650D02*
X12143753Y-16385650D01*
X12143753Y-16195174D02*
X12162801Y-16185650D01*
X12162801Y-16185650D02*
X12200896Y-16185650D01*
X12200896Y-16185650D02*
X12219943Y-16195174D01*
X12219943Y-16195174D02*
X12229467Y-16204698D01*
X12229467Y-16204698D02*
X12238991Y-16223746D01*
X12238991Y-16223746D02*
X12238991Y-16280888D01*
X12238991Y-16280888D02*
X12229467Y-16299936D01*
X12229467Y-16299936D02*
X12219943Y-16309460D01*
X12219943Y-16309460D02*
X12200896Y-16318984D01*
X12200896Y-16318984D02*
X12162801Y-16318984D01*
X12162801Y-16318984D02*
X12143753Y-16309460D01*
X12324705Y-16299936D02*
X12334229Y-16309460D01*
X12334229Y-16309460D02*
X12324705Y-16318984D01*
X12324705Y-16318984D02*
X12315182Y-16309460D01*
X12315182Y-16309460D02*
X12324705Y-16299936D01*
X12324705Y-16299936D02*
X12324705Y-16318984D01*
X12324705Y-16195174D02*
X12334229Y-16204698D01*
X12334229Y-16204698D02*
X12324705Y-16214222D01*
X12324705Y-16214222D02*
X12315182Y-16204698D01*
X12315182Y-16204698D02*
X12324705Y-16195174D01*
X12324705Y-16195174D02*
X12324705Y-16214222D01*
D12*
X10652500Y-16627500D02*
X10692500Y-16667500D01*
X10692500Y-16627500D02*
X10652500Y-16667500D01*
D11*
X10991372Y-16538984D02*
X11010420Y-16538984D01*
X11010420Y-16538984D02*
X11029467Y-16548508D01*
X11029467Y-16548508D02*
X11038991Y-16558031D01*
X11038991Y-16558031D02*
X11048515Y-16577079D01*
X11048515Y-16577079D02*
X11058039Y-16615174D01*
X11058039Y-16615174D02*
X11058039Y-16662793D01*
X11058039Y-16662793D02*
X11048515Y-16700888D01*
X11048515Y-16700888D02*
X11038991Y-16719936D01*
X11038991Y-16719936D02*
X11029467Y-16729460D01*
X11029467Y-16729460D02*
X11010420Y-16738984D01*
X11010420Y-16738984D02*
X10991372Y-16738984D01*
X10991372Y-16738984D02*
X10972324Y-16729460D01*
X10972324Y-16729460D02*
X10962801Y-16719936D01*
X10962801Y-16719936D02*
X10953277Y-16700888D01*
X10953277Y-16700888D02*
X10943753Y-16662793D01*
X10943753Y-16662793D02*
X10943753Y-16615174D01*
X10943753Y-16615174D02*
X10953277Y-16577079D01*
X10953277Y-16577079D02*
X10962801Y-16558031D01*
X10962801Y-16558031D02*
X10972324Y-16548508D01*
X10972324Y-16548508D02*
X10991372Y-16538984D01*
X11143753Y-16719936D02*
X11153277Y-16729460D01*
X11153277Y-16729460D02*
X11143753Y-16738984D01*
X11143753Y-16738984D02*
X11134229Y-16729460D01*
X11134229Y-16729460D02*
X11143753Y-16719936D01*
X11143753Y-16719936D02*
X11143753Y-16738984D01*
X11324705Y-16605650D02*
X11324705Y-16738984D01*
X11277086Y-16529460D02*
X11229467Y-16672317D01*
X11229467Y-16672317D02*
X11353277Y-16672317D01*
X11467562Y-16538984D02*
X11486610Y-16538984D01*
X11486610Y-16538984D02*
X11505658Y-16548508D01*
X11505658Y-16548508D02*
X11515182Y-16558031D01*
X11515182Y-16558031D02*
X11524705Y-16577079D01*
X11524705Y-16577079D02*
X11534229Y-16615174D01*
X11534229Y-16615174D02*
X11534229Y-16662793D01*
X11534229Y-16662793D02*
X11524705Y-16700888D01*
X11524705Y-16700888D02*
X11515182Y-16719936D01*
X11515182Y-16719936D02*
X11505658Y-16729460D01*
X11505658Y-16729460D02*
X11486610Y-16738984D01*
X11486610Y-16738984D02*
X11467562Y-16738984D01*
X11467562Y-16738984D02*
X11448515Y-16729460D01*
X11448515Y-16729460D02*
X11438991Y-16719936D01*
X11438991Y-16719936D02*
X11429467Y-16700888D01*
X11429467Y-16700888D02*
X11419943Y-16662793D01*
X11419943Y-16662793D02*
X11419943Y-16615174D01*
X11419943Y-16615174D02*
X11429467Y-16577079D01*
X11429467Y-16577079D02*
X11438991Y-16558031D01*
X11438991Y-16558031D02*
X11448515Y-16548508D01*
X11448515Y-16548508D02*
X11467562Y-16538984D01*
X11658039Y-16538984D02*
X11677086Y-16538984D01*
X11677086Y-16538984D02*
X11696134Y-16548508D01*
X11696134Y-16548508D02*
X11705658Y-16558031D01*
X11705658Y-16558031D02*
X11715182Y-16577079D01*
X11715182Y-16577079D02*
X11724705Y-16615174D01*
X11724705Y-16615174D02*
X11724705Y-16662793D01*
X11724705Y-16662793D02*
X11715182Y-16700888D01*
X11715182Y-16700888D02*
X11705658Y-16719936D01*
X11705658Y-16719936D02*
X11696134Y-16729460D01*
X11696134Y-16729460D02*
X11677086Y-16738984D01*
X11677086Y-16738984D02*
X11658039Y-16738984D01*
X11658039Y-16738984D02*
X11638991Y-16729460D01*
X11638991Y-16729460D02*
X11629467Y-16719936D01*
X11629467Y-16719936D02*
X11619943Y-16700888D01*
X11619943Y-16700888D02*
X11610420Y-16662793D01*
X11610420Y-16662793D02*
X11610420Y-16615174D01*
X11610420Y-16615174D02*
X11619943Y-16577079D01*
X11619943Y-16577079D02*
X11629467Y-16558031D01*
X11629467Y-16558031D02*
X11638991Y-16548508D01*
X11638991Y-16548508D02*
X11658039Y-16538984D01*
X11810420Y-16738984D02*
X11810420Y-16605650D01*
X11810420Y-16624698D02*
X11819943Y-16615174D01*
X11819943Y-16615174D02*
X11838991Y-16605650D01*
X11838991Y-16605650D02*
X11867563Y-16605650D01*
X11867563Y-16605650D02*
X11886610Y-16615174D01*
X11886610Y-16615174D02*
X11896134Y-16634222D01*
X11896134Y-16634222D02*
X11896134Y-16738984D01*
X11896134Y-16634222D02*
X11905658Y-16615174D01*
X11905658Y-16615174D02*
X11924705Y-16605650D01*
X11924705Y-16605650D02*
X11953277Y-16605650D01*
X11953277Y-16605650D02*
X11972324Y-16615174D01*
X11972324Y-16615174D02*
X11981848Y-16634222D01*
X11981848Y-16634222D02*
X11981848Y-16738984D01*
X12077086Y-16738984D02*
X12077086Y-16605650D01*
X12077086Y-16624698D02*
X12086610Y-16615174D01*
X12086610Y-16615174D02*
X12105658Y-16605650D01*
X12105658Y-16605650D02*
X12134229Y-16605650D01*
X12134229Y-16605650D02*
X12153277Y-16615174D01*
X12153277Y-16615174D02*
X12162801Y-16634222D01*
X12162801Y-16634222D02*
X12162801Y-16738984D01*
X12162801Y-16634222D02*
X12172324Y-16615174D01*
X12172324Y-16615174D02*
X12191372Y-16605650D01*
X12191372Y-16605650D02*
X12219943Y-16605650D01*
X12219943Y-16605650D02*
X12238991Y-16615174D01*
X12238991Y-16615174D02*
X12248515Y-16634222D01*
X12248515Y-16634222D02*
X12248515Y-16738984D01*
X12638991Y-16529460D02*
X12467563Y-16786603D01*
X12896134Y-16538984D02*
X12915182Y-16538984D01*
X12915182Y-16538984D02*
X12934229Y-16548508D01*
X12934229Y-16548508D02*
X12943753Y-16558031D01*
X12943753Y-16558031D02*
X12953277Y-16577079D01*
X12953277Y-16577079D02*
X12962801Y-16615174D01*
X12962801Y-16615174D02*
X12962801Y-16662793D01*
X12962801Y-16662793D02*
X12953277Y-16700888D01*
X12953277Y-16700888D02*
X12943753Y-16719936D01*
X12943753Y-16719936D02*
X12934229Y-16729460D01*
X12934229Y-16729460D02*
X12915182Y-16738984D01*
X12915182Y-16738984D02*
X12896134Y-16738984D01*
X12896134Y-16738984D02*
X12877086Y-16729460D01*
X12877086Y-16729460D02*
X12867563Y-16719936D01*
X12867563Y-16719936D02*
X12858039Y-16700888D01*
X12858039Y-16700888D02*
X12848515Y-16662793D01*
X12848515Y-16662793D02*
X12848515Y-16615174D01*
X12848515Y-16615174D02*
X12858039Y-16577079D01*
X12858039Y-16577079D02*
X12867563Y-16558031D01*
X12867563Y-16558031D02*
X12877086Y-16548508D01*
X12877086Y-16548508D02*
X12896134Y-16538984D01*
X13048515Y-16719936D02*
X13058039Y-16729460D01*
X13058039Y-16729460D02*
X13048515Y-16738984D01*
X13048515Y-16738984D02*
X13038991Y-16729460D01*
X13038991Y-16729460D02*
X13048515Y-16719936D01*
X13048515Y-16719936D02*
X13048515Y-16738984D01*
X13181848Y-16538984D02*
X13200896Y-16538984D01*
X13200896Y-16538984D02*
X13219944Y-16548508D01*
X13219944Y-16548508D02*
X13229467Y-16558031D01*
X13229467Y-16558031D02*
X13238991Y-16577079D01*
X13238991Y-16577079D02*
X13248515Y-16615174D01*
X13248515Y-16615174D02*
X13248515Y-16662793D01*
X13248515Y-16662793D02*
X13238991Y-16700888D01*
X13238991Y-16700888D02*
X13229467Y-16719936D01*
X13229467Y-16719936D02*
X13219944Y-16729460D01*
X13219944Y-16729460D02*
X13200896Y-16738984D01*
X13200896Y-16738984D02*
X13181848Y-16738984D01*
X13181848Y-16738984D02*
X13162801Y-16729460D01*
X13162801Y-16729460D02*
X13153277Y-16719936D01*
X13153277Y-16719936D02*
X13143753Y-16700888D01*
X13143753Y-16700888D02*
X13134229Y-16662793D01*
X13134229Y-16662793D02*
X13134229Y-16615174D01*
X13134229Y-16615174D02*
X13143753Y-16577079D01*
X13143753Y-16577079D02*
X13153277Y-16558031D01*
X13153277Y-16558031D02*
X13162801Y-16548508D01*
X13162801Y-16548508D02*
X13181848Y-16538984D01*
X13438991Y-16738984D02*
X13324706Y-16738984D01*
X13381848Y-16738984D02*
X13381848Y-16538984D01*
X13381848Y-16538984D02*
X13362801Y-16567555D01*
X13362801Y-16567555D02*
X13343753Y-16586603D01*
X13343753Y-16586603D02*
X13324706Y-16596127D01*
X13619944Y-16538984D02*
X13524706Y-16538984D01*
X13524706Y-16538984D02*
X13515182Y-16634222D01*
X13515182Y-16634222D02*
X13524706Y-16624698D01*
X13524706Y-16624698D02*
X13543753Y-16615174D01*
X13543753Y-16615174D02*
X13591372Y-16615174D01*
X13591372Y-16615174D02*
X13610420Y-16624698D01*
X13610420Y-16624698D02*
X13619944Y-16634222D01*
X13619944Y-16634222D02*
X13629467Y-16653269D01*
X13629467Y-16653269D02*
X13629467Y-16700888D01*
X13629467Y-16700888D02*
X13619944Y-16719936D01*
X13619944Y-16719936D02*
X13610420Y-16729460D01*
X13610420Y-16729460D02*
X13591372Y-16738984D01*
X13591372Y-16738984D02*
X13543753Y-16738984D01*
X13543753Y-16738984D02*
X13524706Y-16729460D01*
X13524706Y-16729460D02*
X13515182Y-16719936D01*
X13696134Y-16538984D02*
X13829467Y-16538984D01*
X13829467Y-16538984D02*
X13743753Y-16738984D01*
X13896134Y-16538984D02*
X13896134Y-16577079D01*
X13972325Y-16538984D02*
X13972325Y-16577079D01*
X14267563Y-16815174D02*
X14258039Y-16805650D01*
X14258039Y-16805650D02*
X14238991Y-16777079D01*
X14238991Y-16777079D02*
X14229468Y-16758031D01*
X14229468Y-16758031D02*
X14219944Y-16729460D01*
X14219944Y-16729460D02*
X14210420Y-16681841D01*
X14210420Y-16681841D02*
X14210420Y-16643746D01*
X14210420Y-16643746D02*
X14219944Y-16596127D01*
X14219944Y-16596127D02*
X14229468Y-16567555D01*
X14229468Y-16567555D02*
X14238991Y-16548508D01*
X14238991Y-16548508D02*
X14258039Y-16519936D01*
X14258039Y-16519936D02*
X14267563Y-16510412D01*
X14448515Y-16738984D02*
X14334229Y-16738984D01*
X14391372Y-16738984D02*
X14391372Y-16538984D01*
X14391372Y-16538984D02*
X14372325Y-16567555D01*
X14372325Y-16567555D02*
X14353277Y-16586603D01*
X14353277Y-16586603D02*
X14334229Y-16596127D01*
X14524706Y-16558031D02*
X14534229Y-16548508D01*
X14534229Y-16548508D02*
X14553277Y-16538984D01*
X14553277Y-16538984D02*
X14600896Y-16538984D01*
X14600896Y-16538984D02*
X14619944Y-16548508D01*
X14619944Y-16548508D02*
X14629468Y-16558031D01*
X14629468Y-16558031D02*
X14638991Y-16577079D01*
X14638991Y-16577079D02*
X14638991Y-16596127D01*
X14638991Y-16596127D02*
X14629468Y-16624698D01*
X14629468Y-16624698D02*
X14515182Y-16738984D01*
X14515182Y-16738984D02*
X14638991Y-16738984D01*
X14762801Y-16538984D02*
X14781849Y-16538984D01*
X14781849Y-16538984D02*
X14800896Y-16548508D01*
X14800896Y-16548508D02*
X14810420Y-16558031D01*
X14810420Y-16558031D02*
X14819944Y-16577079D01*
X14819944Y-16577079D02*
X14829468Y-16615174D01*
X14829468Y-16615174D02*
X14829468Y-16662793D01*
X14829468Y-16662793D02*
X14819944Y-16700888D01*
X14819944Y-16700888D02*
X14810420Y-16719936D01*
X14810420Y-16719936D02*
X14800896Y-16729460D01*
X14800896Y-16729460D02*
X14781849Y-16738984D01*
X14781849Y-16738984D02*
X14762801Y-16738984D01*
X14762801Y-16738984D02*
X14743753Y-16729460D01*
X14743753Y-16729460D02*
X14734229Y-16719936D01*
X14734229Y-16719936D02*
X14724706Y-16700888D01*
X14724706Y-16700888D02*
X14715182Y-16662793D01*
X14715182Y-16662793D02*
X14715182Y-16615174D01*
X14715182Y-16615174D02*
X14724706Y-16577079D01*
X14724706Y-16577079D02*
X14734229Y-16558031D01*
X14734229Y-16558031D02*
X14743753Y-16548508D01*
X14743753Y-16548508D02*
X14762801Y-16538984D01*
X15067563Y-16738984D02*
X15067563Y-16538984D01*
X15153277Y-16738984D02*
X15153277Y-16634222D01*
X15153277Y-16634222D02*
X15143753Y-16615174D01*
X15143753Y-16615174D02*
X15124706Y-16605650D01*
X15124706Y-16605650D02*
X15096134Y-16605650D01*
X15096134Y-16605650D02*
X15077087Y-16615174D01*
X15077087Y-16615174D02*
X15067563Y-16624698D01*
X15277087Y-16738984D02*
X15258039Y-16729460D01*
X15258039Y-16729460D02*
X15248515Y-16719936D01*
X15248515Y-16719936D02*
X15238991Y-16700888D01*
X15238991Y-16700888D02*
X15238991Y-16643746D01*
X15238991Y-16643746D02*
X15248515Y-16624698D01*
X15248515Y-16624698D02*
X15258039Y-16615174D01*
X15258039Y-16615174D02*
X15277087Y-16605650D01*
X15277087Y-16605650D02*
X15305658Y-16605650D01*
X15305658Y-16605650D02*
X15324706Y-16615174D01*
X15324706Y-16615174D02*
X15334230Y-16624698D01*
X15334230Y-16624698D02*
X15343753Y-16643746D01*
X15343753Y-16643746D02*
X15343753Y-16700888D01*
X15343753Y-16700888D02*
X15334230Y-16719936D01*
X15334230Y-16719936D02*
X15324706Y-16729460D01*
X15324706Y-16729460D02*
X15305658Y-16738984D01*
X15305658Y-16738984D02*
X15277087Y-16738984D01*
X15458039Y-16738984D02*
X15438991Y-16729460D01*
X15438991Y-16729460D02*
X15429468Y-16710412D01*
X15429468Y-16710412D02*
X15429468Y-16538984D01*
X15610420Y-16729460D02*
X15591372Y-16738984D01*
X15591372Y-16738984D02*
X15553277Y-16738984D01*
X15553277Y-16738984D02*
X15534230Y-16729460D01*
X15534230Y-16729460D02*
X15524706Y-16710412D01*
X15524706Y-16710412D02*
X15524706Y-16634222D01*
X15524706Y-16634222D02*
X15534230Y-16615174D01*
X15534230Y-16615174D02*
X15553277Y-16605650D01*
X15553277Y-16605650D02*
X15591372Y-16605650D01*
X15591372Y-16605650D02*
X15610420Y-16615174D01*
X15610420Y-16615174D02*
X15619944Y-16634222D01*
X15619944Y-16634222D02*
X15619944Y-16653269D01*
X15619944Y-16653269D02*
X15524706Y-16672317D01*
X15696134Y-16729460D02*
X15715182Y-16738984D01*
X15715182Y-16738984D02*
X15753277Y-16738984D01*
X15753277Y-16738984D02*
X15772325Y-16729460D01*
X15772325Y-16729460D02*
X15781849Y-16710412D01*
X15781849Y-16710412D02*
X15781849Y-16700888D01*
X15781849Y-16700888D02*
X15772325Y-16681841D01*
X15772325Y-16681841D02*
X15753277Y-16672317D01*
X15753277Y-16672317D02*
X15724706Y-16672317D01*
X15724706Y-16672317D02*
X15705658Y-16662793D01*
X15705658Y-16662793D02*
X15696134Y-16643746D01*
X15696134Y-16643746D02*
X15696134Y-16634222D01*
X15696134Y-16634222D02*
X15705658Y-16615174D01*
X15705658Y-16615174D02*
X15724706Y-16605650D01*
X15724706Y-16605650D02*
X15753277Y-16605650D01*
X15753277Y-16605650D02*
X15772325Y-16615174D01*
X15848515Y-16815174D02*
X15858039Y-16805650D01*
X15858039Y-16805650D02*
X15877087Y-16777079D01*
X15877087Y-16777079D02*
X15886611Y-16758031D01*
X15886611Y-16758031D02*
X15896134Y-16729460D01*
X15896134Y-16729460D02*
X15905658Y-16681841D01*
X15905658Y-16681841D02*
X15905658Y-16643746D01*
X15905658Y-16643746D02*
X15896134Y-16596127D01*
X15896134Y-16596127D02*
X15886611Y-16567555D01*
X15886611Y-16567555D02*
X15877087Y-16548508D01*
X15877087Y-16548508D02*
X15858039Y-16519936D01*
X15858039Y-16519936D02*
X15848515Y-16510412D01*
D13*
X10692500Y-16911500D02*
G75*
G03*
X10692500Y-16911500I-40640J0D01*
G01*
D11*
X10991372Y-16802984D02*
X11010420Y-16802984D01*
X11010420Y-16802984D02*
X11029467Y-16812508D01*
X11029467Y-16812508D02*
X11038991Y-16822031D01*
X11038991Y-16822031D02*
X11048515Y-16841079D01*
X11048515Y-16841079D02*
X11058039Y-16879174D01*
X11058039Y-16879174D02*
X11058039Y-16926793D01*
X11058039Y-16926793D02*
X11048515Y-16964889D01*
X11048515Y-16964889D02*
X11038991Y-16983936D01*
X11038991Y-16983936D02*
X11029467Y-16993460D01*
X11029467Y-16993460D02*
X11010420Y-17002984D01*
X11010420Y-17002984D02*
X10991372Y-17002984D01*
X10991372Y-17002984D02*
X10972324Y-16993460D01*
X10972324Y-16993460D02*
X10962801Y-16983936D01*
X10962801Y-16983936D02*
X10953277Y-16964889D01*
X10953277Y-16964889D02*
X10943753Y-16926793D01*
X10943753Y-16926793D02*
X10943753Y-16879174D01*
X10943753Y-16879174D02*
X10953277Y-16841079D01*
X10953277Y-16841079D02*
X10962801Y-16822031D01*
X10962801Y-16822031D02*
X10972324Y-16812508D01*
X10972324Y-16812508D02*
X10991372Y-16802984D01*
X11143753Y-16983936D02*
X11153277Y-16993460D01*
X11153277Y-16993460D02*
X11143753Y-17002984D01*
X11143753Y-17002984D02*
X11134229Y-16993460D01*
X11134229Y-16993460D02*
X11143753Y-16983936D01*
X11143753Y-16983936D02*
X11143753Y-17002984D01*
X11267562Y-16888698D02*
X11248515Y-16879174D01*
X11248515Y-16879174D02*
X11238991Y-16869650D01*
X11238991Y-16869650D02*
X11229467Y-16850603D01*
X11229467Y-16850603D02*
X11229467Y-16841079D01*
X11229467Y-16841079D02*
X11238991Y-16822031D01*
X11238991Y-16822031D02*
X11248515Y-16812508D01*
X11248515Y-16812508D02*
X11267562Y-16802984D01*
X11267562Y-16802984D02*
X11305658Y-16802984D01*
X11305658Y-16802984D02*
X11324705Y-16812508D01*
X11324705Y-16812508D02*
X11334229Y-16822031D01*
X11334229Y-16822031D02*
X11343753Y-16841079D01*
X11343753Y-16841079D02*
X11343753Y-16850603D01*
X11343753Y-16850603D02*
X11334229Y-16869650D01*
X11334229Y-16869650D02*
X11324705Y-16879174D01*
X11324705Y-16879174D02*
X11305658Y-16888698D01*
X11305658Y-16888698D02*
X11267562Y-16888698D01*
X11267562Y-16888698D02*
X11248515Y-16898222D01*
X11248515Y-16898222D02*
X11238991Y-16907746D01*
X11238991Y-16907746D02*
X11229467Y-16926793D01*
X11229467Y-16926793D02*
X11229467Y-16964889D01*
X11229467Y-16964889D02*
X11238991Y-16983936D01*
X11238991Y-16983936D02*
X11248515Y-16993460D01*
X11248515Y-16993460D02*
X11267562Y-17002984D01*
X11267562Y-17002984D02*
X11305658Y-17002984D01*
X11305658Y-17002984D02*
X11324705Y-16993460D01*
X11324705Y-16993460D02*
X11334229Y-16983936D01*
X11334229Y-16983936D02*
X11343753Y-16964889D01*
X11343753Y-16964889D02*
X11343753Y-16926793D01*
X11343753Y-16926793D02*
X11334229Y-16907746D01*
X11334229Y-16907746D02*
X11324705Y-16898222D01*
X11324705Y-16898222D02*
X11305658Y-16888698D01*
X11534229Y-17002984D02*
X11419943Y-17002984D01*
X11477086Y-17002984D02*
X11477086Y-16802984D01*
X11477086Y-16802984D02*
X11458039Y-16831555D01*
X11458039Y-16831555D02*
X11438991Y-16850603D01*
X11438991Y-16850603D02*
X11419943Y-16860127D01*
X11600896Y-16802984D02*
X11724705Y-16802984D01*
X11724705Y-16802984D02*
X11658039Y-16879174D01*
X11658039Y-16879174D02*
X11686610Y-16879174D01*
X11686610Y-16879174D02*
X11705658Y-16888698D01*
X11705658Y-16888698D02*
X11715182Y-16898222D01*
X11715182Y-16898222D02*
X11724705Y-16917270D01*
X11724705Y-16917270D02*
X11724705Y-16964889D01*
X11724705Y-16964889D02*
X11715182Y-16983936D01*
X11715182Y-16983936D02*
X11705658Y-16993460D01*
X11705658Y-16993460D02*
X11686610Y-17002984D01*
X11686610Y-17002984D02*
X11629467Y-17002984D01*
X11629467Y-17002984D02*
X11610420Y-16993460D01*
X11610420Y-16993460D02*
X11600896Y-16983936D01*
X11810420Y-17002984D02*
X11810420Y-16869650D01*
X11810420Y-16888698D02*
X11819943Y-16879174D01*
X11819943Y-16879174D02*
X11838991Y-16869650D01*
X11838991Y-16869650D02*
X11867563Y-16869650D01*
X11867563Y-16869650D02*
X11886610Y-16879174D01*
X11886610Y-16879174D02*
X11896134Y-16898222D01*
X11896134Y-16898222D02*
X11896134Y-17002984D01*
X11896134Y-16898222D02*
X11905658Y-16879174D01*
X11905658Y-16879174D02*
X11924705Y-16869650D01*
X11924705Y-16869650D02*
X11953277Y-16869650D01*
X11953277Y-16869650D02*
X11972324Y-16879174D01*
X11972324Y-16879174D02*
X11981848Y-16898222D01*
X11981848Y-16898222D02*
X11981848Y-17002984D01*
X12077086Y-17002984D02*
X12077086Y-16869650D01*
X12077086Y-16888698D02*
X12086610Y-16879174D01*
X12086610Y-16879174D02*
X12105658Y-16869650D01*
X12105658Y-16869650D02*
X12134229Y-16869650D01*
X12134229Y-16869650D02*
X12153277Y-16879174D01*
X12153277Y-16879174D02*
X12162801Y-16898222D01*
X12162801Y-16898222D02*
X12162801Y-17002984D01*
X12162801Y-16898222D02*
X12172324Y-16879174D01*
X12172324Y-16879174D02*
X12191372Y-16869650D01*
X12191372Y-16869650D02*
X12219943Y-16869650D01*
X12219943Y-16869650D02*
X12238991Y-16879174D01*
X12238991Y-16879174D02*
X12248515Y-16898222D01*
X12248515Y-16898222D02*
X12248515Y-17002984D01*
X12638991Y-16793460D02*
X12467563Y-17050603D01*
X12896134Y-16802984D02*
X12915182Y-16802984D01*
X12915182Y-16802984D02*
X12934229Y-16812508D01*
X12934229Y-16812508D02*
X12943753Y-16822031D01*
X12943753Y-16822031D02*
X12953277Y-16841079D01*
X12953277Y-16841079D02*
X12962801Y-16879174D01*
X12962801Y-16879174D02*
X12962801Y-16926793D01*
X12962801Y-16926793D02*
X12953277Y-16964889D01*
X12953277Y-16964889D02*
X12943753Y-16983936D01*
X12943753Y-16983936D02*
X12934229Y-16993460D01*
X12934229Y-16993460D02*
X12915182Y-17002984D01*
X12915182Y-17002984D02*
X12896134Y-17002984D01*
X12896134Y-17002984D02*
X12877086Y-16993460D01*
X12877086Y-16993460D02*
X12867563Y-16983936D01*
X12867563Y-16983936D02*
X12858039Y-16964889D01*
X12858039Y-16964889D02*
X12848515Y-16926793D01*
X12848515Y-16926793D02*
X12848515Y-16879174D01*
X12848515Y-16879174D02*
X12858039Y-16841079D01*
X12858039Y-16841079D02*
X12867563Y-16822031D01*
X12867563Y-16822031D02*
X12877086Y-16812508D01*
X12877086Y-16812508D02*
X12896134Y-16802984D01*
X13048515Y-16983936D02*
X13058039Y-16993460D01*
X13058039Y-16993460D02*
X13048515Y-17002984D01*
X13048515Y-17002984D02*
X13038991Y-16993460D01*
X13038991Y-16993460D02*
X13048515Y-16983936D01*
X13048515Y-16983936D02*
X13048515Y-17002984D01*
X13181848Y-16802984D02*
X13200896Y-16802984D01*
X13200896Y-16802984D02*
X13219944Y-16812508D01*
X13219944Y-16812508D02*
X13229467Y-16822031D01*
X13229467Y-16822031D02*
X13238991Y-16841079D01*
X13238991Y-16841079D02*
X13248515Y-16879174D01*
X13248515Y-16879174D02*
X13248515Y-16926793D01*
X13248515Y-16926793D02*
X13238991Y-16964889D01*
X13238991Y-16964889D02*
X13229467Y-16983936D01*
X13229467Y-16983936D02*
X13219944Y-16993460D01*
X13219944Y-16993460D02*
X13200896Y-17002984D01*
X13200896Y-17002984D02*
X13181848Y-17002984D01*
X13181848Y-17002984D02*
X13162801Y-16993460D01*
X13162801Y-16993460D02*
X13153277Y-16983936D01*
X13153277Y-16983936D02*
X13143753Y-16964889D01*
X13143753Y-16964889D02*
X13134229Y-16926793D01*
X13134229Y-16926793D02*
X13134229Y-16879174D01*
X13134229Y-16879174D02*
X13143753Y-16841079D01*
X13143753Y-16841079D02*
X13153277Y-16822031D01*
X13153277Y-16822031D02*
X13162801Y-16812508D01*
X13162801Y-16812508D02*
X13181848Y-16802984D01*
X13315182Y-16802984D02*
X13438991Y-16802984D01*
X13438991Y-16802984D02*
X13372325Y-16879174D01*
X13372325Y-16879174D02*
X13400896Y-16879174D01*
X13400896Y-16879174D02*
X13419944Y-16888698D01*
X13419944Y-16888698D02*
X13429467Y-16898222D01*
X13429467Y-16898222D02*
X13438991Y-16917270D01*
X13438991Y-16917270D02*
X13438991Y-16964889D01*
X13438991Y-16964889D02*
X13429467Y-16983936D01*
X13429467Y-16983936D02*
X13419944Y-16993460D01*
X13419944Y-16993460D02*
X13400896Y-17002984D01*
X13400896Y-17002984D02*
X13343753Y-17002984D01*
X13343753Y-17002984D02*
X13324706Y-16993460D01*
X13324706Y-16993460D02*
X13315182Y-16983936D01*
X13515182Y-16822031D02*
X13524706Y-16812508D01*
X13524706Y-16812508D02*
X13543753Y-16802984D01*
X13543753Y-16802984D02*
X13591372Y-16802984D01*
X13591372Y-16802984D02*
X13610420Y-16812508D01*
X13610420Y-16812508D02*
X13619944Y-16822031D01*
X13619944Y-16822031D02*
X13629467Y-16841079D01*
X13629467Y-16841079D02*
X13629467Y-16860127D01*
X13629467Y-16860127D02*
X13619944Y-16888698D01*
X13619944Y-16888698D02*
X13505658Y-17002984D01*
X13505658Y-17002984D02*
X13629467Y-17002984D01*
X13753277Y-16802984D02*
X13772325Y-16802984D01*
X13772325Y-16802984D02*
X13791372Y-16812508D01*
X13791372Y-16812508D02*
X13800896Y-16822031D01*
X13800896Y-16822031D02*
X13810420Y-16841079D01*
X13810420Y-16841079D02*
X13819944Y-16879174D01*
X13819944Y-16879174D02*
X13819944Y-16926793D01*
X13819944Y-16926793D02*
X13810420Y-16964889D01*
X13810420Y-16964889D02*
X13800896Y-16983936D01*
X13800896Y-16983936D02*
X13791372Y-16993460D01*
X13791372Y-16993460D02*
X13772325Y-17002984D01*
X13772325Y-17002984D02*
X13753277Y-17002984D01*
X13753277Y-17002984D02*
X13734229Y-16993460D01*
X13734229Y-16993460D02*
X13724706Y-16983936D01*
X13724706Y-16983936D02*
X13715182Y-16964889D01*
X13715182Y-16964889D02*
X13705658Y-16926793D01*
X13705658Y-16926793D02*
X13705658Y-16879174D01*
X13705658Y-16879174D02*
X13715182Y-16841079D01*
X13715182Y-16841079D02*
X13724706Y-16822031D01*
X13724706Y-16822031D02*
X13734229Y-16812508D01*
X13734229Y-16812508D02*
X13753277Y-16802984D01*
X13896134Y-16802984D02*
X13896134Y-16841079D01*
X13972325Y-16802984D02*
X13972325Y-16841079D01*
X14267563Y-17079174D02*
X14258039Y-17069650D01*
X14258039Y-17069650D02*
X14238991Y-17041079D01*
X14238991Y-17041079D02*
X14229468Y-17022031D01*
X14229468Y-17022031D02*
X14219944Y-16993460D01*
X14219944Y-16993460D02*
X14210420Y-16945841D01*
X14210420Y-16945841D02*
X14210420Y-16907746D01*
X14210420Y-16907746D02*
X14219944Y-16860127D01*
X14219944Y-16860127D02*
X14229468Y-16831555D01*
X14229468Y-16831555D02*
X14238991Y-16812508D01*
X14238991Y-16812508D02*
X14258039Y-16783936D01*
X14258039Y-16783936D02*
X14267563Y-16774412D01*
X14324706Y-16802984D02*
X14448515Y-16802984D01*
X14448515Y-16802984D02*
X14381848Y-16879174D01*
X14381848Y-16879174D02*
X14410420Y-16879174D01*
X14410420Y-16879174D02*
X14429468Y-16888698D01*
X14429468Y-16888698D02*
X14438991Y-16898222D01*
X14438991Y-16898222D02*
X14448515Y-16917270D01*
X14448515Y-16917270D02*
X14448515Y-16964889D01*
X14448515Y-16964889D02*
X14438991Y-16983936D01*
X14438991Y-16983936D02*
X14429468Y-16993460D01*
X14429468Y-16993460D02*
X14410420Y-17002984D01*
X14410420Y-17002984D02*
X14353277Y-17002984D01*
X14353277Y-17002984D02*
X14334229Y-16993460D01*
X14334229Y-16993460D02*
X14324706Y-16983936D01*
X14572325Y-16802984D02*
X14591372Y-16802984D01*
X14591372Y-16802984D02*
X14610420Y-16812508D01*
X14610420Y-16812508D02*
X14619944Y-16822031D01*
X14619944Y-16822031D02*
X14629468Y-16841079D01*
X14629468Y-16841079D02*
X14638991Y-16879174D01*
X14638991Y-16879174D02*
X14638991Y-16926793D01*
X14638991Y-16926793D02*
X14629468Y-16964889D01*
X14629468Y-16964889D02*
X14619944Y-16983936D01*
X14619944Y-16983936D02*
X14610420Y-16993460D01*
X14610420Y-16993460D02*
X14591372Y-17002984D01*
X14591372Y-17002984D02*
X14572325Y-17002984D01*
X14572325Y-17002984D02*
X14553277Y-16993460D01*
X14553277Y-16993460D02*
X14543753Y-16983936D01*
X14543753Y-16983936D02*
X14534229Y-16964889D01*
X14534229Y-16964889D02*
X14524706Y-16926793D01*
X14524706Y-16926793D02*
X14524706Y-16879174D01*
X14524706Y-16879174D02*
X14534229Y-16841079D01*
X14534229Y-16841079D02*
X14543753Y-16822031D01*
X14543753Y-16822031D02*
X14553277Y-16812508D01*
X14553277Y-16812508D02*
X14572325Y-16802984D01*
X14877087Y-17002984D02*
X14877087Y-16802984D01*
X14962801Y-17002984D02*
X14962801Y-16898222D01*
X14962801Y-16898222D02*
X14953277Y-16879174D01*
X14953277Y-16879174D02*
X14934230Y-16869650D01*
X14934230Y-16869650D02*
X14905658Y-16869650D01*
X14905658Y-16869650D02*
X14886610Y-16879174D01*
X14886610Y-16879174D02*
X14877087Y-16888698D01*
X15086610Y-17002984D02*
X15067563Y-16993460D01*
X15067563Y-16993460D02*
X15058039Y-16983936D01*
X15058039Y-16983936D02*
X15048515Y-16964889D01*
X15048515Y-16964889D02*
X15048515Y-16907746D01*
X15048515Y-16907746D02*
X15058039Y-16888698D01*
X15058039Y-16888698D02*
X15067563Y-16879174D01*
X15067563Y-16879174D02*
X15086610Y-16869650D01*
X15086610Y-16869650D02*
X15115182Y-16869650D01*
X15115182Y-16869650D02*
X15134230Y-16879174D01*
X15134230Y-16879174D02*
X15143753Y-16888698D01*
X15143753Y-16888698D02*
X15153277Y-16907746D01*
X15153277Y-16907746D02*
X15153277Y-16964889D01*
X15153277Y-16964889D02*
X15143753Y-16983936D01*
X15143753Y-16983936D02*
X15134230Y-16993460D01*
X15134230Y-16993460D02*
X15115182Y-17002984D01*
X15115182Y-17002984D02*
X15086610Y-17002984D01*
X15267563Y-17002984D02*
X15248515Y-16993460D01*
X15248515Y-16993460D02*
X15238991Y-16974412D01*
X15238991Y-16974412D02*
X15238991Y-16802984D01*
X15419944Y-16993460D02*
X15400896Y-17002984D01*
X15400896Y-17002984D02*
X15362801Y-17002984D01*
X15362801Y-17002984D02*
X15343753Y-16993460D01*
X15343753Y-16993460D02*
X15334230Y-16974412D01*
X15334230Y-16974412D02*
X15334230Y-16898222D01*
X15334230Y-16898222D02*
X15343753Y-16879174D01*
X15343753Y-16879174D02*
X15362801Y-16869650D01*
X15362801Y-16869650D02*
X15400896Y-16869650D01*
X15400896Y-16869650D02*
X15419944Y-16879174D01*
X15419944Y-16879174D02*
X15429468Y-16898222D01*
X15429468Y-16898222D02*
X15429468Y-16917270D01*
X15429468Y-16917270D02*
X15334230Y-16936317D01*
X15505658Y-16993460D02*
X15524706Y-17002984D01*
X15524706Y-17002984D02*
X15562801Y-17002984D01*
X15562801Y-17002984D02*
X15581849Y-16993460D01*
X15581849Y-16993460D02*
X15591372Y-16974412D01*
X15591372Y-16974412D02*
X15591372Y-16964889D01*
X15591372Y-16964889D02*
X15581849Y-16945841D01*
X15581849Y-16945841D02*
X15562801Y-16936317D01*
X15562801Y-16936317D02*
X15534230Y-16936317D01*
X15534230Y-16936317D02*
X15515182Y-16926793D01*
X15515182Y-16926793D02*
X15505658Y-16907746D01*
X15505658Y-16907746D02*
X15505658Y-16898222D01*
X15505658Y-16898222D02*
X15515182Y-16879174D01*
X15515182Y-16879174D02*
X15534230Y-16869650D01*
X15534230Y-16869650D02*
X15562801Y-16869650D01*
X15562801Y-16869650D02*
X15581849Y-16879174D01*
X15658039Y-17079174D02*
X15667563Y-17069650D01*
X15667563Y-17069650D02*
X15686611Y-17041079D01*
X15686611Y-17041079D02*
X15696134Y-17022031D01*
X15696134Y-17022031D02*
X15705658Y-16993460D01*
X15705658Y-16993460D02*
X15715182Y-16945841D01*
X15715182Y-16945841D02*
X15715182Y-16907746D01*
X15715182Y-16907746D02*
X15705658Y-16860127D01*
X15705658Y-16860127D02*
X15696134Y-16831555D01*
X15696134Y-16831555D02*
X15686611Y-16812508D01*
X15686611Y-16812508D02*
X15667563Y-16783936D01*
X15667563Y-16783936D02*
X15658039Y-16774412D01*
D14*
X10632500Y-17115500D02*
X10632500Y-17235500D01*
X10572500Y-17175500D02*
X10692500Y-17175500D01*
D11*
X11058039Y-17266984D02*
X10943753Y-17266984D01*
X11000896Y-17266984D02*
X11000896Y-17066984D01*
X11000896Y-17066984D02*
X10981848Y-17095555D01*
X10981848Y-17095555D02*
X10962801Y-17114603D01*
X10962801Y-17114603D02*
X10943753Y-17124127D01*
X11143753Y-17247936D02*
X11153277Y-17257460D01*
X11153277Y-17257460D02*
X11143753Y-17266984D01*
X11143753Y-17266984D02*
X11134229Y-17257460D01*
X11134229Y-17257460D02*
X11143753Y-17247936D01*
X11143753Y-17247936D02*
X11143753Y-17266984D01*
X11229467Y-17086031D02*
X11238991Y-17076508D01*
X11238991Y-17076508D02*
X11258039Y-17066984D01*
X11258039Y-17066984D02*
X11305658Y-17066984D01*
X11305658Y-17066984D02*
X11324705Y-17076508D01*
X11324705Y-17076508D02*
X11334229Y-17086031D01*
X11334229Y-17086031D02*
X11343753Y-17105079D01*
X11343753Y-17105079D02*
X11343753Y-17124127D01*
X11343753Y-17124127D02*
X11334229Y-17152698D01*
X11334229Y-17152698D02*
X11219943Y-17266984D01*
X11219943Y-17266984D02*
X11343753Y-17266984D01*
X11467562Y-17066984D02*
X11486610Y-17066984D01*
X11486610Y-17066984D02*
X11505658Y-17076508D01*
X11505658Y-17076508D02*
X11515182Y-17086031D01*
X11515182Y-17086031D02*
X11524705Y-17105079D01*
X11524705Y-17105079D02*
X11534229Y-17143174D01*
X11534229Y-17143174D02*
X11534229Y-17190793D01*
X11534229Y-17190793D02*
X11524705Y-17228889D01*
X11524705Y-17228889D02*
X11515182Y-17247936D01*
X11515182Y-17247936D02*
X11505658Y-17257460D01*
X11505658Y-17257460D02*
X11486610Y-17266984D01*
X11486610Y-17266984D02*
X11467562Y-17266984D01*
X11467562Y-17266984D02*
X11448515Y-17257460D01*
X11448515Y-17257460D02*
X11438991Y-17247936D01*
X11438991Y-17247936D02*
X11429467Y-17228889D01*
X11429467Y-17228889D02*
X11419943Y-17190793D01*
X11419943Y-17190793D02*
X11419943Y-17143174D01*
X11419943Y-17143174D02*
X11429467Y-17105079D01*
X11429467Y-17105079D02*
X11438991Y-17086031D01*
X11438991Y-17086031D02*
X11448515Y-17076508D01*
X11448515Y-17076508D02*
X11467562Y-17066984D01*
X11658039Y-17066984D02*
X11677086Y-17066984D01*
X11677086Y-17066984D02*
X11696134Y-17076508D01*
X11696134Y-17076508D02*
X11705658Y-17086031D01*
X11705658Y-17086031D02*
X11715182Y-17105079D01*
X11715182Y-17105079D02*
X11724705Y-17143174D01*
X11724705Y-17143174D02*
X11724705Y-17190793D01*
X11724705Y-17190793D02*
X11715182Y-17228889D01*
X11715182Y-17228889D02*
X11705658Y-17247936D01*
X11705658Y-17247936D02*
X11696134Y-17257460D01*
X11696134Y-17257460D02*
X11677086Y-17266984D01*
X11677086Y-17266984D02*
X11658039Y-17266984D01*
X11658039Y-17266984D02*
X11638991Y-17257460D01*
X11638991Y-17257460D02*
X11629467Y-17247936D01*
X11629467Y-17247936D02*
X11619943Y-17228889D01*
X11619943Y-17228889D02*
X11610420Y-17190793D01*
X11610420Y-17190793D02*
X11610420Y-17143174D01*
X11610420Y-17143174D02*
X11619943Y-17105079D01*
X11619943Y-17105079D02*
X11629467Y-17086031D01*
X11629467Y-17086031D02*
X11638991Y-17076508D01*
X11638991Y-17076508D02*
X11658039Y-17066984D01*
X11810420Y-17266984D02*
X11810420Y-17133650D01*
X11810420Y-17152698D02*
X11819943Y-17143174D01*
X11819943Y-17143174D02*
X11838991Y-17133650D01*
X11838991Y-17133650D02*
X11867563Y-17133650D01*
X11867563Y-17133650D02*
X11886610Y-17143174D01*
X11886610Y-17143174D02*
X11896134Y-17162222D01*
X11896134Y-17162222D02*
X11896134Y-17266984D01*
X11896134Y-17162222D02*
X11905658Y-17143174D01*
X11905658Y-17143174D02*
X11924705Y-17133650D01*
X11924705Y-17133650D02*
X11953277Y-17133650D01*
X11953277Y-17133650D02*
X11972324Y-17143174D01*
X11972324Y-17143174D02*
X11981848Y-17162222D01*
X11981848Y-17162222D02*
X11981848Y-17266984D01*
X12077086Y-17266984D02*
X12077086Y-17133650D01*
X12077086Y-17152698D02*
X12086610Y-17143174D01*
X12086610Y-17143174D02*
X12105658Y-17133650D01*
X12105658Y-17133650D02*
X12134229Y-17133650D01*
X12134229Y-17133650D02*
X12153277Y-17143174D01*
X12153277Y-17143174D02*
X12162801Y-17162222D01*
X12162801Y-17162222D02*
X12162801Y-17266984D01*
X12162801Y-17162222D02*
X12172324Y-17143174D01*
X12172324Y-17143174D02*
X12191372Y-17133650D01*
X12191372Y-17133650D02*
X12219943Y-17133650D01*
X12219943Y-17133650D02*
X12238991Y-17143174D01*
X12238991Y-17143174D02*
X12248515Y-17162222D01*
X12248515Y-17162222D02*
X12248515Y-17266984D01*
X12638991Y-17057460D02*
X12467563Y-17314603D01*
X12896134Y-17066984D02*
X12915182Y-17066984D01*
X12915182Y-17066984D02*
X12934229Y-17076508D01*
X12934229Y-17076508D02*
X12943753Y-17086031D01*
X12943753Y-17086031D02*
X12953277Y-17105079D01*
X12953277Y-17105079D02*
X12962801Y-17143174D01*
X12962801Y-17143174D02*
X12962801Y-17190793D01*
X12962801Y-17190793D02*
X12953277Y-17228889D01*
X12953277Y-17228889D02*
X12943753Y-17247936D01*
X12943753Y-17247936D02*
X12934229Y-17257460D01*
X12934229Y-17257460D02*
X12915182Y-17266984D01*
X12915182Y-17266984D02*
X12896134Y-17266984D01*
X12896134Y-17266984D02*
X12877086Y-17257460D01*
X12877086Y-17257460D02*
X12867563Y-17247936D01*
X12867563Y-17247936D02*
X12858039Y-17228889D01*
X12858039Y-17228889D02*
X12848515Y-17190793D01*
X12848515Y-17190793D02*
X12848515Y-17143174D01*
X12848515Y-17143174D02*
X12858039Y-17105079D01*
X12858039Y-17105079D02*
X12867563Y-17086031D01*
X12867563Y-17086031D02*
X12877086Y-17076508D01*
X12877086Y-17076508D02*
X12896134Y-17066984D01*
X13048515Y-17247936D02*
X13058039Y-17257460D01*
X13058039Y-17257460D02*
X13048515Y-17266984D01*
X13048515Y-17266984D02*
X13038991Y-17257460D01*
X13038991Y-17257460D02*
X13048515Y-17247936D01*
X13048515Y-17247936D02*
X13048515Y-17266984D01*
X13181848Y-17066984D02*
X13200896Y-17066984D01*
X13200896Y-17066984D02*
X13219944Y-17076508D01*
X13219944Y-17076508D02*
X13229467Y-17086031D01*
X13229467Y-17086031D02*
X13238991Y-17105079D01*
X13238991Y-17105079D02*
X13248515Y-17143174D01*
X13248515Y-17143174D02*
X13248515Y-17190793D01*
X13248515Y-17190793D02*
X13238991Y-17228889D01*
X13238991Y-17228889D02*
X13229467Y-17247936D01*
X13229467Y-17247936D02*
X13219944Y-17257460D01*
X13219944Y-17257460D02*
X13200896Y-17266984D01*
X13200896Y-17266984D02*
X13181848Y-17266984D01*
X13181848Y-17266984D02*
X13162801Y-17257460D01*
X13162801Y-17257460D02*
X13153277Y-17247936D01*
X13153277Y-17247936D02*
X13143753Y-17228889D01*
X13143753Y-17228889D02*
X13134229Y-17190793D01*
X13134229Y-17190793D02*
X13134229Y-17143174D01*
X13134229Y-17143174D02*
X13143753Y-17105079D01*
X13143753Y-17105079D02*
X13153277Y-17086031D01*
X13153277Y-17086031D02*
X13162801Y-17076508D01*
X13162801Y-17076508D02*
X13181848Y-17066984D01*
X13419944Y-17133650D02*
X13419944Y-17266984D01*
X13372325Y-17057460D02*
X13324706Y-17200317D01*
X13324706Y-17200317D02*
X13448515Y-17200317D01*
X13505658Y-17066984D02*
X13638991Y-17066984D01*
X13638991Y-17066984D02*
X13553277Y-17266984D01*
X13705658Y-17086031D02*
X13715182Y-17076508D01*
X13715182Y-17076508D02*
X13734229Y-17066984D01*
X13734229Y-17066984D02*
X13781848Y-17066984D01*
X13781848Y-17066984D02*
X13800896Y-17076508D01*
X13800896Y-17076508D02*
X13810420Y-17086031D01*
X13810420Y-17086031D02*
X13819944Y-17105079D01*
X13819944Y-17105079D02*
X13819944Y-17124127D01*
X13819944Y-17124127D02*
X13810420Y-17152698D01*
X13810420Y-17152698D02*
X13696134Y-17266984D01*
X13696134Y-17266984D02*
X13819944Y-17266984D01*
X13896134Y-17066984D02*
X13896134Y-17105079D01*
X13972325Y-17066984D02*
X13972325Y-17105079D01*
X14267563Y-17343174D02*
X14258039Y-17333650D01*
X14258039Y-17333650D02*
X14238991Y-17305079D01*
X14238991Y-17305079D02*
X14229468Y-17286031D01*
X14229468Y-17286031D02*
X14219944Y-17257460D01*
X14219944Y-17257460D02*
X14210420Y-17209841D01*
X14210420Y-17209841D02*
X14210420Y-17171746D01*
X14210420Y-17171746D02*
X14219944Y-17124127D01*
X14219944Y-17124127D02*
X14229468Y-17095555D01*
X14229468Y-17095555D02*
X14238991Y-17076508D01*
X14238991Y-17076508D02*
X14258039Y-17047936D01*
X14258039Y-17047936D02*
X14267563Y-17038412D01*
X14429468Y-17133650D02*
X14429468Y-17266984D01*
X14381848Y-17057460D02*
X14334229Y-17200317D01*
X14334229Y-17200317D02*
X14458039Y-17200317D01*
X14562801Y-17152698D02*
X14543753Y-17143174D01*
X14543753Y-17143174D02*
X14534229Y-17133650D01*
X14534229Y-17133650D02*
X14524706Y-17114603D01*
X14524706Y-17114603D02*
X14524706Y-17105079D01*
X14524706Y-17105079D02*
X14534229Y-17086031D01*
X14534229Y-17086031D02*
X14543753Y-17076508D01*
X14543753Y-17076508D02*
X14562801Y-17066984D01*
X14562801Y-17066984D02*
X14600896Y-17066984D01*
X14600896Y-17066984D02*
X14619944Y-17076508D01*
X14619944Y-17076508D02*
X14629468Y-17086031D01*
X14629468Y-17086031D02*
X14638991Y-17105079D01*
X14638991Y-17105079D02*
X14638991Y-17114603D01*
X14638991Y-17114603D02*
X14629468Y-17133650D01*
X14629468Y-17133650D02*
X14619944Y-17143174D01*
X14619944Y-17143174D02*
X14600896Y-17152698D01*
X14600896Y-17152698D02*
X14562801Y-17152698D01*
X14562801Y-17152698D02*
X14543753Y-17162222D01*
X14543753Y-17162222D02*
X14534229Y-17171746D01*
X14534229Y-17171746D02*
X14524706Y-17190793D01*
X14524706Y-17190793D02*
X14524706Y-17228889D01*
X14524706Y-17228889D02*
X14534229Y-17247936D01*
X14534229Y-17247936D02*
X14543753Y-17257460D01*
X14543753Y-17257460D02*
X14562801Y-17266984D01*
X14562801Y-17266984D02*
X14600896Y-17266984D01*
X14600896Y-17266984D02*
X14619944Y-17257460D01*
X14619944Y-17257460D02*
X14629468Y-17247936D01*
X14629468Y-17247936D02*
X14638991Y-17228889D01*
X14638991Y-17228889D02*
X14638991Y-17190793D01*
X14638991Y-17190793D02*
X14629468Y-17171746D01*
X14629468Y-17171746D02*
X14619944Y-17162222D01*
X14619944Y-17162222D02*
X14600896Y-17152698D01*
X14877087Y-17266984D02*
X14877087Y-17066984D01*
X14962801Y-17266984D02*
X14962801Y-17162222D01*
X14962801Y-17162222D02*
X14953277Y-17143174D01*
X14953277Y-17143174D02*
X14934230Y-17133650D01*
X14934230Y-17133650D02*
X14905658Y-17133650D01*
X14905658Y-17133650D02*
X14886610Y-17143174D01*
X14886610Y-17143174D02*
X14877087Y-17152698D01*
X15086610Y-17266984D02*
X15067563Y-17257460D01*
X15067563Y-17257460D02*
X15058039Y-17247936D01*
X15058039Y-17247936D02*
X15048515Y-17228889D01*
X15048515Y-17228889D02*
X15048515Y-17171746D01*
X15048515Y-17171746D02*
X15058039Y-17152698D01*
X15058039Y-17152698D02*
X15067563Y-17143174D01*
X15067563Y-17143174D02*
X15086610Y-17133650D01*
X15086610Y-17133650D02*
X15115182Y-17133650D01*
X15115182Y-17133650D02*
X15134230Y-17143174D01*
X15134230Y-17143174D02*
X15143753Y-17152698D01*
X15143753Y-17152698D02*
X15153277Y-17171746D01*
X15153277Y-17171746D02*
X15153277Y-17228889D01*
X15153277Y-17228889D02*
X15143753Y-17247936D01*
X15143753Y-17247936D02*
X15134230Y-17257460D01*
X15134230Y-17257460D02*
X15115182Y-17266984D01*
X15115182Y-17266984D02*
X15086610Y-17266984D01*
X15267563Y-17266984D02*
X15248515Y-17257460D01*
X15248515Y-17257460D02*
X15238991Y-17238412D01*
X15238991Y-17238412D02*
X15238991Y-17066984D01*
X15419944Y-17257460D02*
X15400896Y-17266984D01*
X15400896Y-17266984D02*
X15362801Y-17266984D01*
X15362801Y-17266984D02*
X15343753Y-17257460D01*
X15343753Y-17257460D02*
X15334230Y-17238412D01*
X15334230Y-17238412D02*
X15334230Y-17162222D01*
X15334230Y-17162222D02*
X15343753Y-17143174D01*
X15343753Y-17143174D02*
X15362801Y-17133650D01*
X15362801Y-17133650D02*
X15400896Y-17133650D01*
X15400896Y-17133650D02*
X15419944Y-17143174D01*
X15419944Y-17143174D02*
X15429468Y-17162222D01*
X15429468Y-17162222D02*
X15429468Y-17181270D01*
X15429468Y-17181270D02*
X15334230Y-17200317D01*
X15505658Y-17257460D02*
X15524706Y-17266984D01*
X15524706Y-17266984D02*
X15562801Y-17266984D01*
X15562801Y-17266984D02*
X15581849Y-17257460D01*
X15581849Y-17257460D02*
X15591372Y-17238412D01*
X15591372Y-17238412D02*
X15591372Y-17228889D01*
X15591372Y-17228889D02*
X15581849Y-17209841D01*
X15581849Y-17209841D02*
X15562801Y-17200317D01*
X15562801Y-17200317D02*
X15534230Y-17200317D01*
X15534230Y-17200317D02*
X15515182Y-17190793D01*
X15515182Y-17190793D02*
X15505658Y-17171746D01*
X15505658Y-17171746D02*
X15505658Y-17162222D01*
X15505658Y-17162222D02*
X15515182Y-17143174D01*
X15515182Y-17143174D02*
X15534230Y-17133650D01*
X15534230Y-17133650D02*
X15562801Y-17133650D01*
X15562801Y-17133650D02*
X15581849Y-17143174D01*
X15658039Y-17343174D02*
X15667563Y-17333650D01*
X15667563Y-17333650D02*
X15686611Y-17305079D01*
X15686611Y-17305079D02*
X15696134Y-17286031D01*
X15696134Y-17286031D02*
X15705658Y-17257460D01*
X15705658Y-17257460D02*
X15715182Y-17209841D01*
X15715182Y-17209841D02*
X15715182Y-17171746D01*
X15715182Y-17171746D02*
X15705658Y-17124127D01*
X15705658Y-17124127D02*
X15696134Y-17095555D01*
X15696134Y-17095555D02*
X15686611Y-17076508D01*
X15686611Y-17076508D02*
X15667563Y-17047936D01*
X15667563Y-17047936D02*
X15658039Y-17038412D01*
X10663211Y-17510211D02*
X10663211Y-17368789D01*
X10521789Y-17368789D01*
X10521789Y-17510211D01*
X10663211Y-17510211D01*
X10934229Y-17330984D02*
X11058039Y-17330984D01*
X11058039Y-17330984D02*
X10991372Y-17407174D01*
X10991372Y-17407174D02*
X11019944Y-17407174D01*
X11019944Y-17407174D02*
X11038991Y-17416698D01*
X11038991Y-17416698D02*
X11048515Y-17426222D01*
X11048515Y-17426222D02*
X11058039Y-17445270D01*
X11058039Y-17445270D02*
X11058039Y-17492889D01*
X11058039Y-17492889D02*
X11048515Y-17511936D01*
X11048515Y-17511936D02*
X11038991Y-17521460D01*
X11038991Y-17521460D02*
X11019944Y-17530984D01*
X11019944Y-17530984D02*
X10962801Y-17530984D01*
X10962801Y-17530984D02*
X10943753Y-17521460D01*
X10943753Y-17521460D02*
X10934229Y-17511936D01*
X11143753Y-17511936D02*
X11153277Y-17521460D01*
X11153277Y-17521460D02*
X11143753Y-17530984D01*
X11143753Y-17530984D02*
X11134229Y-17521460D01*
X11134229Y-17521460D02*
X11143753Y-17511936D01*
X11143753Y-17511936D02*
X11143753Y-17530984D01*
X11229467Y-17350031D02*
X11238991Y-17340508D01*
X11238991Y-17340508D02*
X11258039Y-17330984D01*
X11258039Y-17330984D02*
X11305658Y-17330984D01*
X11305658Y-17330984D02*
X11324705Y-17340508D01*
X11324705Y-17340508D02*
X11334229Y-17350031D01*
X11334229Y-17350031D02*
X11343753Y-17369079D01*
X11343753Y-17369079D02*
X11343753Y-17388127D01*
X11343753Y-17388127D02*
X11334229Y-17416698D01*
X11334229Y-17416698D02*
X11219943Y-17530984D01*
X11219943Y-17530984D02*
X11343753Y-17530984D01*
X11467562Y-17330984D02*
X11486610Y-17330984D01*
X11486610Y-17330984D02*
X11505658Y-17340508D01*
X11505658Y-17340508D02*
X11515182Y-17350031D01*
X11515182Y-17350031D02*
X11524705Y-17369079D01*
X11524705Y-17369079D02*
X11534229Y-17407174D01*
X11534229Y-17407174D02*
X11534229Y-17454793D01*
X11534229Y-17454793D02*
X11524705Y-17492889D01*
X11524705Y-17492889D02*
X11515182Y-17511936D01*
X11515182Y-17511936D02*
X11505658Y-17521460D01*
X11505658Y-17521460D02*
X11486610Y-17530984D01*
X11486610Y-17530984D02*
X11467562Y-17530984D01*
X11467562Y-17530984D02*
X11448515Y-17521460D01*
X11448515Y-17521460D02*
X11438991Y-17511936D01*
X11438991Y-17511936D02*
X11429467Y-17492889D01*
X11429467Y-17492889D02*
X11419943Y-17454793D01*
X11419943Y-17454793D02*
X11419943Y-17407174D01*
X11419943Y-17407174D02*
X11429467Y-17369079D01*
X11429467Y-17369079D02*
X11438991Y-17350031D01*
X11438991Y-17350031D02*
X11448515Y-17340508D01*
X11448515Y-17340508D02*
X11467562Y-17330984D01*
X11658039Y-17330984D02*
X11677086Y-17330984D01*
X11677086Y-17330984D02*
X11696134Y-17340508D01*
X11696134Y-17340508D02*
X11705658Y-17350031D01*
X11705658Y-17350031D02*
X11715182Y-17369079D01*
X11715182Y-17369079D02*
X11724705Y-17407174D01*
X11724705Y-17407174D02*
X11724705Y-17454793D01*
X11724705Y-17454793D02*
X11715182Y-17492889D01*
X11715182Y-17492889D02*
X11705658Y-17511936D01*
X11705658Y-17511936D02*
X11696134Y-17521460D01*
X11696134Y-17521460D02*
X11677086Y-17530984D01*
X11677086Y-17530984D02*
X11658039Y-17530984D01*
X11658039Y-17530984D02*
X11638991Y-17521460D01*
X11638991Y-17521460D02*
X11629467Y-17511936D01*
X11629467Y-17511936D02*
X11619943Y-17492889D01*
X11619943Y-17492889D02*
X11610420Y-17454793D01*
X11610420Y-17454793D02*
X11610420Y-17407174D01*
X11610420Y-17407174D02*
X11619943Y-17369079D01*
X11619943Y-17369079D02*
X11629467Y-17350031D01*
X11629467Y-17350031D02*
X11638991Y-17340508D01*
X11638991Y-17340508D02*
X11658039Y-17330984D01*
X11810420Y-17530984D02*
X11810420Y-17397650D01*
X11810420Y-17416698D02*
X11819943Y-17407174D01*
X11819943Y-17407174D02*
X11838991Y-17397650D01*
X11838991Y-17397650D02*
X11867563Y-17397650D01*
X11867563Y-17397650D02*
X11886610Y-17407174D01*
X11886610Y-17407174D02*
X11896134Y-17426222D01*
X11896134Y-17426222D02*
X11896134Y-17530984D01*
X11896134Y-17426222D02*
X11905658Y-17407174D01*
X11905658Y-17407174D02*
X11924705Y-17397650D01*
X11924705Y-17397650D02*
X11953277Y-17397650D01*
X11953277Y-17397650D02*
X11972324Y-17407174D01*
X11972324Y-17407174D02*
X11981848Y-17426222D01*
X11981848Y-17426222D02*
X11981848Y-17530984D01*
X12077086Y-17530984D02*
X12077086Y-17397650D01*
X12077086Y-17416698D02*
X12086610Y-17407174D01*
X12086610Y-17407174D02*
X12105658Y-17397650D01*
X12105658Y-17397650D02*
X12134229Y-17397650D01*
X12134229Y-17397650D02*
X12153277Y-17407174D01*
X12153277Y-17407174D02*
X12162801Y-17426222D01*
X12162801Y-17426222D02*
X12162801Y-17530984D01*
X12162801Y-17426222D02*
X12172324Y-17407174D01*
X12172324Y-17407174D02*
X12191372Y-17397650D01*
X12191372Y-17397650D02*
X12219943Y-17397650D01*
X12219943Y-17397650D02*
X12238991Y-17407174D01*
X12238991Y-17407174D02*
X12248515Y-17426222D01*
X12248515Y-17426222D02*
X12248515Y-17530984D01*
X12638991Y-17321460D02*
X12467563Y-17578603D01*
X12896134Y-17330984D02*
X12915182Y-17330984D01*
X12915182Y-17330984D02*
X12934229Y-17340508D01*
X12934229Y-17340508D02*
X12943753Y-17350031D01*
X12943753Y-17350031D02*
X12953277Y-17369079D01*
X12953277Y-17369079D02*
X12962801Y-17407174D01*
X12962801Y-17407174D02*
X12962801Y-17454793D01*
X12962801Y-17454793D02*
X12953277Y-17492889D01*
X12953277Y-17492889D02*
X12943753Y-17511936D01*
X12943753Y-17511936D02*
X12934229Y-17521460D01*
X12934229Y-17521460D02*
X12915182Y-17530984D01*
X12915182Y-17530984D02*
X12896134Y-17530984D01*
X12896134Y-17530984D02*
X12877086Y-17521460D01*
X12877086Y-17521460D02*
X12867563Y-17511936D01*
X12867563Y-17511936D02*
X12858039Y-17492889D01*
X12858039Y-17492889D02*
X12848515Y-17454793D01*
X12848515Y-17454793D02*
X12848515Y-17407174D01*
X12848515Y-17407174D02*
X12858039Y-17369079D01*
X12858039Y-17369079D02*
X12867563Y-17350031D01*
X12867563Y-17350031D02*
X12877086Y-17340508D01*
X12877086Y-17340508D02*
X12896134Y-17330984D01*
X13048515Y-17511936D02*
X13058039Y-17521460D01*
X13058039Y-17521460D02*
X13048515Y-17530984D01*
X13048515Y-17530984D02*
X13038991Y-17521460D01*
X13038991Y-17521460D02*
X13048515Y-17511936D01*
X13048515Y-17511936D02*
X13048515Y-17530984D01*
X13248515Y-17530984D02*
X13134229Y-17530984D01*
X13191372Y-17530984D02*
X13191372Y-17330984D01*
X13191372Y-17330984D02*
X13172325Y-17359555D01*
X13172325Y-17359555D02*
X13153277Y-17378603D01*
X13153277Y-17378603D02*
X13134229Y-17388127D01*
X13324706Y-17350031D02*
X13334229Y-17340508D01*
X13334229Y-17340508D02*
X13353277Y-17330984D01*
X13353277Y-17330984D02*
X13400896Y-17330984D01*
X13400896Y-17330984D02*
X13419944Y-17340508D01*
X13419944Y-17340508D02*
X13429467Y-17350031D01*
X13429467Y-17350031D02*
X13438991Y-17369079D01*
X13438991Y-17369079D02*
X13438991Y-17388127D01*
X13438991Y-17388127D02*
X13429467Y-17416698D01*
X13429467Y-17416698D02*
X13315182Y-17530984D01*
X13315182Y-17530984D02*
X13438991Y-17530984D01*
X13610420Y-17330984D02*
X13572325Y-17330984D01*
X13572325Y-17330984D02*
X13553277Y-17340508D01*
X13553277Y-17340508D02*
X13543753Y-17350031D01*
X13543753Y-17350031D02*
X13524706Y-17378603D01*
X13524706Y-17378603D02*
X13515182Y-17416698D01*
X13515182Y-17416698D02*
X13515182Y-17492889D01*
X13515182Y-17492889D02*
X13524706Y-17511936D01*
X13524706Y-17511936D02*
X13534229Y-17521460D01*
X13534229Y-17521460D02*
X13553277Y-17530984D01*
X13553277Y-17530984D02*
X13591372Y-17530984D01*
X13591372Y-17530984D02*
X13610420Y-17521460D01*
X13610420Y-17521460D02*
X13619944Y-17511936D01*
X13619944Y-17511936D02*
X13629467Y-17492889D01*
X13629467Y-17492889D02*
X13629467Y-17445270D01*
X13629467Y-17445270D02*
X13619944Y-17426222D01*
X13619944Y-17426222D02*
X13610420Y-17416698D01*
X13610420Y-17416698D02*
X13591372Y-17407174D01*
X13591372Y-17407174D02*
X13553277Y-17407174D01*
X13553277Y-17407174D02*
X13534229Y-17416698D01*
X13534229Y-17416698D02*
X13524706Y-17426222D01*
X13524706Y-17426222D02*
X13515182Y-17445270D01*
X13753277Y-17330984D02*
X13772325Y-17330984D01*
X13772325Y-17330984D02*
X13791372Y-17340508D01*
X13791372Y-17340508D02*
X13800896Y-17350031D01*
X13800896Y-17350031D02*
X13810420Y-17369079D01*
X13810420Y-17369079D02*
X13819944Y-17407174D01*
X13819944Y-17407174D02*
X13819944Y-17454793D01*
X13819944Y-17454793D02*
X13810420Y-17492889D01*
X13810420Y-17492889D02*
X13800896Y-17511936D01*
X13800896Y-17511936D02*
X13791372Y-17521460D01*
X13791372Y-17521460D02*
X13772325Y-17530984D01*
X13772325Y-17530984D02*
X13753277Y-17530984D01*
X13753277Y-17530984D02*
X13734229Y-17521460D01*
X13734229Y-17521460D02*
X13724706Y-17511936D01*
X13724706Y-17511936D02*
X13715182Y-17492889D01*
X13715182Y-17492889D02*
X13705658Y-17454793D01*
X13705658Y-17454793D02*
X13705658Y-17407174D01*
X13705658Y-17407174D02*
X13715182Y-17369079D01*
X13715182Y-17369079D02*
X13724706Y-17350031D01*
X13724706Y-17350031D02*
X13734229Y-17340508D01*
X13734229Y-17340508D02*
X13753277Y-17330984D01*
X13896134Y-17330984D02*
X13896134Y-17369079D01*
X13972325Y-17330984D02*
X13972325Y-17369079D01*
X14267563Y-17607174D02*
X14258039Y-17597650D01*
X14258039Y-17597650D02*
X14238991Y-17569079D01*
X14238991Y-17569079D02*
X14229468Y-17550031D01*
X14229468Y-17550031D02*
X14219944Y-17521460D01*
X14219944Y-17521460D02*
X14210420Y-17473841D01*
X14210420Y-17473841D02*
X14210420Y-17435746D01*
X14210420Y-17435746D02*
X14219944Y-17388127D01*
X14219944Y-17388127D02*
X14229468Y-17359555D01*
X14229468Y-17359555D02*
X14238991Y-17340508D01*
X14238991Y-17340508D02*
X14258039Y-17311936D01*
X14258039Y-17311936D02*
X14267563Y-17302412D01*
X14334229Y-17350031D02*
X14343753Y-17340508D01*
X14343753Y-17340508D02*
X14362801Y-17330984D01*
X14362801Y-17330984D02*
X14410420Y-17330984D01*
X14410420Y-17330984D02*
X14429468Y-17340508D01*
X14429468Y-17340508D02*
X14438991Y-17350031D01*
X14438991Y-17350031D02*
X14448515Y-17369079D01*
X14448515Y-17369079D02*
X14448515Y-17388127D01*
X14448515Y-17388127D02*
X14438991Y-17416698D01*
X14438991Y-17416698D02*
X14324706Y-17530984D01*
X14324706Y-17530984D02*
X14448515Y-17530984D01*
X14686610Y-17530984D02*
X14686610Y-17330984D01*
X14772325Y-17530984D02*
X14772325Y-17426222D01*
X14772325Y-17426222D02*
X14762801Y-17407174D01*
X14762801Y-17407174D02*
X14743753Y-17397650D01*
X14743753Y-17397650D02*
X14715182Y-17397650D01*
X14715182Y-17397650D02*
X14696134Y-17407174D01*
X14696134Y-17407174D02*
X14686610Y-17416698D01*
X14896134Y-17530984D02*
X14877087Y-17521460D01*
X14877087Y-17521460D02*
X14867563Y-17511936D01*
X14867563Y-17511936D02*
X14858039Y-17492889D01*
X14858039Y-17492889D02*
X14858039Y-17435746D01*
X14858039Y-17435746D02*
X14867563Y-17416698D01*
X14867563Y-17416698D02*
X14877087Y-17407174D01*
X14877087Y-17407174D02*
X14896134Y-17397650D01*
X14896134Y-17397650D02*
X14924706Y-17397650D01*
X14924706Y-17397650D02*
X14943753Y-17407174D01*
X14943753Y-17407174D02*
X14953277Y-17416698D01*
X14953277Y-17416698D02*
X14962801Y-17435746D01*
X14962801Y-17435746D02*
X14962801Y-17492889D01*
X14962801Y-17492889D02*
X14953277Y-17511936D01*
X14953277Y-17511936D02*
X14943753Y-17521460D01*
X14943753Y-17521460D02*
X14924706Y-17530984D01*
X14924706Y-17530984D02*
X14896134Y-17530984D01*
X15077087Y-17530984D02*
X15058039Y-17521460D01*
X15058039Y-17521460D02*
X15048515Y-17502412D01*
X15048515Y-17502412D02*
X15048515Y-17330984D01*
X15229468Y-17521460D02*
X15210420Y-17530984D01*
X15210420Y-17530984D02*
X15172325Y-17530984D01*
X15172325Y-17530984D02*
X15153277Y-17521460D01*
X15153277Y-17521460D02*
X15143753Y-17502412D01*
X15143753Y-17502412D02*
X15143753Y-17426222D01*
X15143753Y-17426222D02*
X15153277Y-17407174D01*
X15153277Y-17407174D02*
X15172325Y-17397650D01*
X15172325Y-17397650D02*
X15210420Y-17397650D01*
X15210420Y-17397650D02*
X15229468Y-17407174D01*
X15229468Y-17407174D02*
X15238991Y-17426222D01*
X15238991Y-17426222D02*
X15238991Y-17445270D01*
X15238991Y-17445270D02*
X15143753Y-17464317D01*
X15315182Y-17521460D02*
X15334230Y-17530984D01*
X15334230Y-17530984D02*
X15372325Y-17530984D01*
X15372325Y-17530984D02*
X15391372Y-17521460D01*
X15391372Y-17521460D02*
X15400896Y-17502412D01*
X15400896Y-17502412D02*
X15400896Y-17492889D01*
X15400896Y-17492889D02*
X15391372Y-17473841D01*
X15391372Y-17473841D02*
X15372325Y-17464317D01*
X15372325Y-17464317D02*
X15343753Y-17464317D01*
X15343753Y-17464317D02*
X15324706Y-17454793D01*
X15324706Y-17454793D02*
X15315182Y-17435746D01*
X15315182Y-17435746D02*
X15315182Y-17426222D01*
X15315182Y-17426222D02*
X15324706Y-17407174D01*
X15324706Y-17407174D02*
X15343753Y-17397650D01*
X15343753Y-17397650D02*
X15372325Y-17397650D01*
X15372325Y-17397650D02*
X15391372Y-17407174D01*
X15467563Y-17607174D02*
X15477087Y-17597650D01*
X15477087Y-17597650D02*
X15496134Y-17569079D01*
X15496134Y-17569079D02*
X15505658Y-17550031D01*
X15505658Y-17550031D02*
X15515182Y-17521460D01*
X15515182Y-17521460D02*
X15524706Y-17473841D01*
X15524706Y-17473841D02*
X15524706Y-17435746D01*
X15524706Y-17435746D02*
X15515182Y-17388127D01*
X15515182Y-17388127D02*
X15505658Y-17359555D01*
X15505658Y-17359555D02*
X15496134Y-17340508D01*
X15496134Y-17340508D02*
X15477087Y-17311936D01*
X15477087Y-17311936D02*
X15467563Y-17302412D01*
M02*
