G04 #@! TF.GenerationSoftware,KiCad,Pcbnew,(5.0.2)-1*
G04 #@! TF.CreationDate,2019-03-14T17:16:41+01:00*
G04 #@! TF.ProjectId,ventirad,76656e74-6972-4616-942e-6b696361645f,rev?*
G04 #@! TF.SameCoordinates,Original*
G04 #@! TF.FileFunction,Copper,L2,Bot*
G04 #@! TF.FilePolarity,Positive*
%FSLAX46Y46*%
G04 Gerber Fmt 4.6, Leading zero omitted, Abs format (unit mm)*
G04 Created by KiCad (PCBNEW (5.0.2)-1) date 14/03/2019 17:16:41*
%MOMM*%
%LPD*%
G01*
G04 APERTURE LIST*
G04 #@! TA.AperFunction,NonConductor*
%ADD10C,0.150000*%
G04 #@! TD*
G04 #@! TA.AperFunction,ComponentPad*
%ADD11R,2.286000X1.574800*%
G04 #@! TD*
G04 #@! TA.AperFunction,ComponentPad*
%ADD12O,2.286000X1.574800*%
G04 #@! TD*
G04 #@! TA.AperFunction,ComponentPad*
%ADD13R,2.600000X2.000000*%
G04 #@! TD*
G04 #@! TA.AperFunction,ComponentPad*
%ADD14O,2.600000X2.000000*%
G04 #@! TD*
G04 #@! TA.AperFunction,SMDPad,CuDef*
%ADD15R,3.500120X1.800860*%
G04 #@! TD*
G04 #@! TA.AperFunction,SMDPad,CuDef*
%ADD16R,4.000000X2.500000*%
G04 #@! TD*
G04 #@! TA.AperFunction,ComponentPad*
%ADD17R,2.000000X2.600000*%
G04 #@! TD*
G04 #@! TA.AperFunction,ComponentPad*
%ADD18O,2.000000X2.600000*%
G04 #@! TD*
G04 #@! TA.AperFunction,ComponentPad*
%ADD19C,4.064000*%
G04 #@! TD*
G04 #@! TA.AperFunction,ViaPad*
%ADD20C,0.600000*%
G04 #@! TD*
G04 #@! TA.AperFunction,Conductor*
%ADD21C,1.500000*%
G04 #@! TD*
G04 #@! TA.AperFunction,Conductor*
%ADD22C,0.250000*%
G04 #@! TD*
G04 #@! TA.AperFunction,Conductor*
%ADD23C,0.800000*%
G04 #@! TD*
G04 #@! TA.AperFunction,Conductor*
%ADD24C,2.000000*%
G04 #@! TD*
G04 #@! TA.AperFunction,Conductor*
%ADD25C,0.254000*%
G04 #@! TD*
G04 APERTURE END LIST*
D10*
X107000000Y-60000000D02*
X157000000Y-60000000D01*
X107000000Y-160000000D02*
X107000000Y-60000000D01*
X157000000Y-160000000D02*
X107000000Y-160000000D01*
X157000000Y-60000000D02*
X157000000Y-160000000D01*
D11*
G04 #@! TO.P,U2,1*
G04 #@! TO.N,N/C*
X118825000Y-135890000D03*
D12*
G04 #@! TO.P,U2,2*
X118825000Y-133350000D03*
G04 #@! TO.P,U2,3*
X118825000Y-130810000D03*
G04 #@! TO.P,U2,4*
G04 #@! TO.N,Net-(P2-Pad2)*
X118825000Y-128270000D03*
G04 #@! TO.P,U2,5*
G04 #@! TO.N,Net-(P3-Pad2)*
X118825000Y-125730000D03*
G04 #@! TO.P,U2,6*
G04 #@! TO.N,Net-(P4-Pad2)*
X118825000Y-123190000D03*
G04 #@! TO.P,U2,7*
G04 #@! TO.N,Net-(P5-Pad2)*
X118825000Y-120650000D03*
G04 #@! TO.P,U2,8*
G04 #@! TO.N,Net-(P8-Pad2)*
X118825000Y-118110000D03*
G04 #@! TO.P,U2,9*
G04 #@! TO.N,Net-(P8-Pad3)*
X118825000Y-115570000D03*
G04 #@! TO.P,U2,10*
G04 #@! TO.N,Net-(P6-Pad2)*
X118825000Y-113030000D03*
G04 #@! TO.P,U2,11*
G04 #@! TO.N,Net-(P7-Pad2)*
X118825000Y-110490000D03*
G04 #@! TO.P,U2,12*
G04 #@! TO.N,+5V*
X118825000Y-107950000D03*
G04 #@! TO.P,U2,13*
G04 #@! TO.N,N/C*
X118825000Y-105410000D03*
G04 #@! TO.P,U2,14*
G04 #@! TO.N,GND*
X118825000Y-102870000D03*
G04 #@! TO.P,U2,15*
G04 #@! TO.N,N/C*
X118825000Y-100330000D03*
G04 #@! TO.P,U2,16*
G04 #@! TO.N,Net-(R32-Pad2)*
X134065000Y-100330000D03*
G04 #@! TO.P,U2,17*
G04 #@! TO.N,Net-(R30-Pad2)*
X134065000Y-102870000D03*
G04 #@! TO.P,U2,18*
G04 #@! TO.N,N/C*
X134065000Y-105410000D03*
G04 #@! TO.P,U2,19*
G04 #@! TO.N,GND*
X134065000Y-107950000D03*
G04 #@! TO.P,U2,20*
G04 #@! TO.N,Net-(R29-Pad2)*
X134065000Y-110490000D03*
G04 #@! TO.P,U2,21*
G04 #@! TO.N,Net-(R23-Pad2)*
X134065000Y-113030000D03*
G04 #@! TO.P,U2,22*
G04 #@! TO.N,Net-(R28-Pad2)*
X134065000Y-115570000D03*
G04 #@! TO.P,U2,23*
G04 #@! TO.N,Net-(R20-Pad2)*
X134065000Y-118110000D03*
G04 #@! TO.P,U2,24*
G04 #@! TO.N,Net-(R17-Pad2)*
X134065000Y-120650000D03*
G04 #@! TO.P,U2,25*
G04 #@! TO.N,Net-(R27-Pad2)*
X134065000Y-123190000D03*
G04 #@! TO.P,U2,26*
G04 #@! TO.N,Net-(R26-Pad2)*
X134065000Y-125730000D03*
G04 #@! TO.P,U2,27*
G04 #@! TO.N,Net-(R14-Pad2)*
X134065000Y-128270000D03*
G04 #@! TO.P,U2,28*
G04 #@! TO.N,Net-(R11-Pad2)*
X134065000Y-130810000D03*
G04 #@! TO.P,U2,29*
G04 #@! TO.N,Net-(R8-Pad2)*
X134065000Y-133350000D03*
G04 #@! TO.P,U2,30*
G04 #@! TO.N,N/C*
X134065000Y-135890000D03*
G04 #@! TD*
D13*
G04 #@! TO.P,,1*
G04 #@! TO.N,+12V*
X112000000Y-64000000D03*
D14*
G04 #@! TO.P,,2*
G04 #@! TO.N,Net-(C11-Pad2)*
X112000000Y-66540000D03*
G04 #@! TD*
D15*
G04 #@! TO.P,D2,1*
G04 #@! TO.N,Net-(C5-Pad1)*
X147359360Y-145415000D03*
G04 #@! TO.P,D2,2*
G04 #@! TO.N,GND*
X142360640Y-145415000D03*
G04 #@! TD*
G04 #@! TO.P,D3,1*
G04 #@! TO.N,Net-(C6-Pad1)*
X147359360Y-129540000D03*
G04 #@! TO.P,D3,2*
G04 #@! TO.N,GND*
X142360640Y-129540000D03*
G04 #@! TD*
G04 #@! TO.P,D4,1*
G04 #@! TO.N,Net-(C7-Pad1)*
X147359360Y-114300000D03*
G04 #@! TO.P,D4,2*
G04 #@! TO.N,GND*
X142360640Y-114300000D03*
G04 #@! TD*
G04 #@! TO.P,D5,1*
G04 #@! TO.N,Net-(C8-Pad1)*
X147359360Y-99060000D03*
G04 #@! TO.P,D5,2*
G04 #@! TO.N,GND*
X142360640Y-99060000D03*
G04 #@! TD*
G04 #@! TO.P,D6,1*
G04 #@! TO.N,Net-(C9-Pad1)*
X147499360Y-84000000D03*
G04 #@! TO.P,D6,2*
G04 #@! TO.N,GND*
X142500640Y-84000000D03*
G04 #@! TD*
G04 #@! TO.P,D7,1*
G04 #@! TO.N,Net-(C10-Pad1)*
X143499360Y-77000000D03*
G04 #@! TO.P,D7,2*
G04 #@! TO.N,GND*
X138500640Y-77000000D03*
G04 #@! TD*
D16*
G04 #@! TO.P,C2,1*
G04 #@! TO.N,+12V*
X118000000Y-66500000D03*
G04 #@! TO.P,C2,2*
G04 #@! TO.N,GND*
X123500000Y-66500000D03*
G04 #@! TD*
G04 #@! TO.P,C5,1*
G04 #@! TO.N,Net-(C5-Pad1)*
X148000000Y-151000000D03*
G04 #@! TO.P,C5,2*
G04 #@! TO.N,GND*
X142860000Y-151130000D03*
G04 #@! TD*
G04 #@! TO.P,C6,1*
G04 #@! TO.N,Net-(C6-Pad1)*
X148000000Y-135500000D03*
G04 #@! TO.P,C6,2*
G04 #@! TO.N,GND*
X142500000Y-135500000D03*
G04 #@! TD*
G04 #@! TO.P,C7,1*
G04 #@! TO.N,Net-(C7-Pad1)*
X148000000Y-120000000D03*
G04 #@! TO.P,C7,2*
G04 #@! TO.N,GND*
X142500000Y-120000000D03*
G04 #@! TD*
G04 #@! TO.P,C8,1*
G04 #@! TO.N,Net-(C8-Pad1)*
X148000000Y-105000000D03*
G04 #@! TO.P,C8,2*
G04 #@! TO.N,GND*
X142500000Y-105000000D03*
G04 #@! TD*
G04 #@! TO.P,C9,1*
G04 #@! TO.N,Net-(C9-Pad1)*
X148000000Y-89500000D03*
G04 #@! TO.P,C9,2*
G04 #@! TO.N,GND*
X142500000Y-89500000D03*
G04 #@! TD*
G04 #@! TO.P,C10,1*
G04 #@! TO.N,Net-(C10-Pad1)*
X144140000Y-72205000D03*
G04 #@! TO.P,C10,2*
G04 #@! TO.N,GND*
X138640000Y-72205000D03*
G04 #@! TD*
D13*
G04 #@! TO.P,,1*
G04 #@! TO.N,Net-(D1-Pad2)*
X112000000Y-80000000D03*
D14*
G04 #@! TO.P,,2*
G04 #@! TO.N,GND*
X112000000Y-82540000D03*
G04 #@! TD*
D13*
G04 #@! TO.P,,1*
G04 #@! TO.N,GND*
X112000000Y-138000000D03*
D14*
G04 #@! TO.P,,2*
G04 #@! TO.N,Net-(P2-Pad2)*
X112000000Y-140540000D03*
G04 #@! TO.P,,3*
G04 #@! TO.N,+5V*
X112000000Y-143080000D03*
G04 #@! TD*
D13*
G04 #@! TO.P,,1*
G04 #@! TO.N,GND*
X112000000Y-128000000D03*
D14*
G04 #@! TO.P,,2*
G04 #@! TO.N,Net-(P3-Pad2)*
X112000000Y-130540000D03*
G04 #@! TO.P,,3*
G04 #@! TO.N,+5V*
X112000000Y-133080000D03*
G04 #@! TD*
D13*
G04 #@! TO.P,,1*
G04 #@! TO.N,GND*
X112000000Y-118000000D03*
D14*
G04 #@! TO.P,,2*
G04 #@! TO.N,Net-(P4-Pad2)*
X112000000Y-120540000D03*
G04 #@! TO.P,,3*
G04 #@! TO.N,+5V*
X112000000Y-123080000D03*
G04 #@! TD*
D13*
G04 #@! TO.P,,1*
G04 #@! TO.N,GND*
X112000000Y-108000000D03*
D14*
G04 #@! TO.P,,2*
G04 #@! TO.N,Net-(P5-Pad2)*
X112000000Y-110540000D03*
G04 #@! TO.P,,3*
G04 #@! TO.N,+5V*
X112000000Y-113080000D03*
G04 #@! TD*
D13*
G04 #@! TO.P,,1*
G04 #@! TO.N,GND*
X112000000Y-98000000D03*
D14*
G04 #@! TO.P,,2*
G04 #@! TO.N,Net-(P6-Pad2)*
X112000000Y-100540000D03*
G04 #@! TO.P,,3*
G04 #@! TO.N,+5V*
X112000000Y-103080000D03*
G04 #@! TD*
D13*
G04 #@! TO.P,,1*
G04 #@! TO.N,GND*
X112000000Y-88000000D03*
D14*
G04 #@! TO.P,,2*
G04 #@! TO.N,Net-(P7-Pad2)*
X112000000Y-90540000D03*
G04 #@! TO.P,,3*
G04 #@! TO.N,+5V*
X112000000Y-93080000D03*
G04 #@! TD*
D13*
G04 #@! TO.P,,1*
G04 #@! TO.N,GND*
X119000000Y-157000000D03*
D14*
G04 #@! TO.P,,2*
G04 #@! TO.N,Net-(P8-Pad2)*
X119000000Y-154460000D03*
G04 #@! TO.P,,3*
G04 #@! TO.N,Net-(P8-Pad3)*
X119000000Y-151920000D03*
G04 #@! TO.P,,4*
G04 #@! TO.N,+5V*
X119000000Y-149380000D03*
G04 #@! TD*
D13*
G04 #@! TO.P,,1*
G04 #@! TO.N,Net-(C11-Pad2)*
X112000000Y-72000000D03*
D14*
G04 #@! TO.P,,2*
G04 #@! TO.N,GND*
X112000000Y-74540000D03*
G04 #@! TD*
D13*
G04 #@! TO.P,,1*
G04 #@! TO.N,GND*
X153000000Y-148000000D03*
D14*
G04 #@! TO.P,,2*
G04 #@! TO.N,Net-(C5-Pad1)*
X153000000Y-145460000D03*
G04 #@! TD*
D13*
G04 #@! TO.P,,1*
G04 #@! TO.N,GND*
X153000000Y-132000000D03*
D14*
G04 #@! TO.P,,2*
G04 #@! TO.N,Net-(C6-Pad1)*
X153000000Y-129460000D03*
G04 #@! TD*
D13*
G04 #@! TO.P,,1*
G04 #@! TO.N,GND*
X153000000Y-117000000D03*
D14*
G04 #@! TO.P,,2*
G04 #@! TO.N,Net-(C7-Pad1)*
X153000000Y-114460000D03*
G04 #@! TD*
D13*
G04 #@! TO.P,,1*
G04 #@! TO.N,GND*
X153000000Y-102000000D03*
D14*
G04 #@! TO.P,,2*
G04 #@! TO.N,Net-(C8-Pad1)*
X153000000Y-99460000D03*
G04 #@! TD*
D13*
G04 #@! TO.P,,1*
G04 #@! TO.N,GND*
X153000000Y-87000000D03*
D14*
G04 #@! TO.P,,2*
G04 #@! TO.N,Net-(C9-Pad1)*
X153000000Y-84460000D03*
G04 #@! TD*
D13*
G04 #@! TO.P,,1*
G04 #@! TO.N,GND*
X151000000Y-74000000D03*
D14*
G04 #@! TO.P,,2*
G04 #@! TO.N,Net-(C10-Pad1)*
X151000000Y-71460000D03*
G04 #@! TD*
D17*
G04 #@! TO.P,,1*
G04 #@! TO.N,GND*
X126000000Y-154000000D03*
D18*
G04 #@! TO.P,,2*
G04 #@! TO.N,Net-(P17-Pad2)*
X128540000Y-154000000D03*
G04 #@! TO.P,,3*
G04 #@! TO.N,Net-(P17-Pad3)*
X131080000Y-154000000D03*
G04 #@! TO.P,,4*
G04 #@! TO.N,Net-(P17-Pad4)*
X133620000Y-154000000D03*
G04 #@! TD*
D17*
G04 #@! TO.P,,1*
G04 #@! TO.N,GND*
X138000000Y-66500000D03*
D18*
G04 #@! TO.P,,2*
G04 #@! TO.N,Net-(P18-Pad2)*
X135460000Y-66500000D03*
G04 #@! TO.P,,3*
G04 #@! TO.N,Net-(P18-Pad3)*
X132920000Y-66500000D03*
G04 #@! TO.P,,4*
G04 #@! TO.N,Net-(P18-Pad4)*
X130380000Y-66500000D03*
G04 #@! TD*
D19*
G04 #@! TO.P,,1*
G04 #@! TO.N,GND*
X152000000Y-65000000D03*
G04 #@! TD*
G04 #@! TO.P,,1*
G04 #@! TO.N,GND*
X112000000Y-155000000D03*
G04 #@! TD*
D20*
G04 #@! TO.N,GND*
X141000000Y-149000000D03*
X141000000Y-148000000D03*
X141000000Y-147000000D03*
X142000000Y-147000000D03*
X143000000Y-147000000D03*
X143000000Y-148000000D03*
X143000000Y-149000000D03*
X139500000Y-102000000D03*
X139500000Y-100500000D03*
X139500000Y-99000000D03*
X139500000Y-97500000D03*
X141000000Y-97500000D03*
X142500000Y-97500000D03*
X142500000Y-137000000D03*
X142500000Y-134000000D03*
X142500000Y-133000000D03*
X142500000Y-132000000D03*
X141500000Y-121500000D03*
X140000000Y-121500000D03*
X140000000Y-120000000D03*
X140000000Y-118500000D03*
X141000000Y-117000000D03*
X142500000Y-117000000D03*
X139500000Y-90500000D03*
X139500000Y-89000000D03*
X139500000Y-87500000D03*
X139500000Y-86000000D03*
X141000000Y-86000000D03*
X142500000Y-86000000D03*
X126000000Y-107250000D03*
X126000000Y-106000000D03*
X127250000Y-106000000D03*
X127250000Y-107250000D03*
X126000000Y-100750000D03*
X126000000Y-99500000D03*
X127250000Y-99500000D03*
X127250000Y-100750000D03*
X134750000Y-93500000D03*
X133500000Y-93500000D03*
X132250000Y-93500000D03*
X131000000Y-93500000D03*
X129750000Y-93500000D03*
X128500000Y-126500000D03*
X127250000Y-126500000D03*
X127250000Y-127500000D03*
X128000000Y-115000000D03*
X128000000Y-113750000D03*
X126750000Y-113750000D03*
X128250000Y-120500000D03*
X127250000Y-120500000D03*
X127250000Y-121500000D03*
G04 #@! TO.N,Net-(P17-Pad2)*
X125250000Y-114000000D03*
G04 #@! TO.N,Net-(P17-Pad3)*
X124750000Y-122000000D03*
G04 #@! TO.N,Net-(P18-Pad3)*
X124000000Y-104500000D03*
X128750000Y-89500000D03*
G04 #@! TO.N,Net-(P18-Pad4)*
X127750000Y-82500000D03*
X122750000Y-105500000D03*
G04 #@! TO.N,Net-(C11-Pad2)*
X149500000Y-153450001D03*
X152000000Y-152000000D03*
X152000000Y-153500000D03*
X146000000Y-156750000D03*
X148000000Y-156750000D03*
X149500000Y-156750000D03*
X149500000Y-155500000D03*
X148000000Y-155500000D03*
X146000000Y-155500000D03*
X153000000Y-93000000D03*
X152000000Y-93000000D03*
X151000000Y-93000000D03*
X151000000Y-94000000D03*
X152000000Y-94000000D03*
X153000000Y-94000000D03*
X153000000Y-95000000D03*
X152000000Y-95000000D03*
X151000000Y-95000000D03*
X150000000Y-95000000D03*
X149000000Y-95000000D03*
X153000000Y-78000000D03*
X152000000Y-78000000D03*
X151000000Y-78000000D03*
X151000000Y-79000000D03*
X152000000Y-79000000D03*
X153000000Y-79000000D03*
X153000000Y-80000000D03*
X152000000Y-80000000D03*
X151000000Y-80000000D03*
X150000000Y-80000000D03*
X153000000Y-139000000D03*
X152000000Y-139000000D03*
X151000000Y-139000000D03*
X151000000Y-140000000D03*
X152000000Y-140000000D03*
X153000000Y-140000000D03*
X153000000Y-141000000D03*
X152000000Y-141000000D03*
X151000000Y-141000000D03*
X150000000Y-141000000D03*
X149000000Y-141000000D03*
X153000000Y-123000000D03*
X152000000Y-123000000D03*
X151000000Y-123000000D03*
X151000000Y-124000000D03*
X152000000Y-124000000D03*
X153000000Y-124000000D03*
X153000000Y-125000000D03*
X152000000Y-125000000D03*
X151000000Y-125000000D03*
X150000000Y-125000000D03*
X153000000Y-109000000D03*
X152000000Y-109000000D03*
X151000000Y-109000000D03*
X151000000Y-110000000D03*
X152000000Y-110000000D03*
X153000000Y-110000000D03*
X153000000Y-111000000D03*
X152000000Y-111000000D03*
X151000000Y-111000000D03*
X150000000Y-111000000D03*
X149000000Y-111000000D03*
X149000000Y-125000000D03*
G04 #@! TD*
D21*
G04 #@! TO.N,+12V*
X112000000Y-64000000D02*
X117000000Y-64000000D01*
X117000000Y-64000000D02*
X119000000Y-66000000D01*
D22*
G04 #@! TO.N,GND*
X142000000Y-147000000D02*
X142000000Y-145775640D01*
X142000000Y-145775640D02*
X142360640Y-145415000D01*
X142860000Y-151130000D02*
X142860000Y-149140000D01*
X141000000Y-148000000D02*
X141000000Y-149000000D01*
X142000000Y-147000000D02*
X141000000Y-147000000D01*
X143000000Y-148000000D02*
X143000000Y-147000000D01*
X142860000Y-149140000D02*
X143000000Y-149000000D01*
X142360640Y-99060000D02*
X142360640Y-97639360D01*
X139500000Y-99000000D02*
X139500000Y-100500000D01*
X141000000Y-97500000D02*
X139500000Y-97500000D01*
X142360640Y-97639360D02*
X142500000Y-97500000D01*
X142360640Y-129540000D02*
X142360640Y-131860640D01*
X142500000Y-133000000D02*
X142500000Y-134000000D01*
X142360640Y-131860640D02*
X142500000Y-132000000D01*
X142360640Y-114300000D02*
X142360640Y-116860640D01*
X140000000Y-120000000D02*
X140000000Y-121500000D01*
X140000000Y-118000000D02*
X140000000Y-118500000D01*
X141000000Y-117000000D02*
X140000000Y-118000000D01*
X142360640Y-116860640D02*
X142500000Y-117000000D01*
X142500640Y-84000000D02*
X142500640Y-87500640D01*
X139500000Y-87500000D02*
X139500000Y-89000000D01*
X141000000Y-86000000D02*
X139500000Y-86000000D01*
X142500000Y-87500000D02*
X142500000Y-86000000D01*
X142500640Y-87500640D02*
X142500000Y-87500000D01*
D23*
X126000000Y-106000000D02*
X126000000Y-107250000D01*
X127250000Y-107250000D02*
X127250000Y-106000000D01*
X126000000Y-99500000D02*
X126000000Y-100750000D01*
X127250000Y-100750000D02*
X127250000Y-99500000D01*
X132250000Y-93500000D02*
X133500000Y-93500000D01*
X129750000Y-93500000D02*
X131000000Y-93500000D01*
X127250000Y-125250000D02*
X127250000Y-121500000D01*
X128500000Y-126500000D02*
X127250000Y-125250000D01*
X127250000Y-127500000D02*
X127250000Y-126500000D01*
X128000000Y-113750000D02*
X128000000Y-115000000D01*
X126750000Y-119000000D02*
X126750000Y-113750000D01*
X128250000Y-120500000D02*
X126750000Y-119000000D01*
X127250000Y-121500000D02*
X127250000Y-120500000D01*
D21*
G04 #@! TO.N,Net-(C5-Pad1)*
X146860000Y-151130000D02*
X146860000Y-145914360D01*
X146860000Y-145914360D02*
X147359360Y-145415000D01*
X153000000Y-145460000D02*
X147404360Y-145460000D01*
X147404360Y-145460000D02*
X147359360Y-145415000D01*
G04 #@! TO.N,Net-(C6-Pad1)*
X147359360Y-129540000D02*
X152920000Y-129540000D01*
X152920000Y-129540000D02*
X153000000Y-129460000D01*
X146860000Y-135255000D02*
X146860000Y-130039360D01*
X146860000Y-130039360D02*
X147359360Y-129540000D01*
G04 #@! TO.N,Net-(C7-Pad1)*
X146860000Y-120015000D02*
X146860000Y-114799360D01*
X146860000Y-114799360D02*
X147199360Y-114460000D01*
X147199360Y-114460000D02*
X153000000Y-114460000D01*
G04 #@! TO.N,Net-(C8-Pad1)*
X146860000Y-104775000D02*
X146860000Y-99559360D01*
X146860000Y-99559360D02*
X146959360Y-99460000D01*
X146959360Y-99460000D02*
X153000000Y-99460000D01*
G04 #@! TO.N,Net-(C9-Pad1)*
X147000000Y-89000000D02*
X147000000Y-84499360D01*
X147000000Y-84499360D02*
X147039360Y-84460000D01*
X147039360Y-84460000D02*
X153000000Y-84460000D01*
G04 #@! TO.N,Net-(C10-Pad1)*
X144140000Y-72205000D02*
X144140000Y-76359360D01*
X144140000Y-76359360D02*
X143499360Y-77000000D01*
D24*
X151000000Y-71460000D02*
X144885000Y-71460000D01*
X144885000Y-71460000D02*
X144140000Y-72205000D01*
D23*
G04 #@! TO.N,Net-(P17-Pad2)*
X128250000Y-152000000D02*
X128250000Y-153710000D01*
X122750000Y-146500000D02*
X128250000Y-152000000D01*
X122750000Y-116500000D02*
X122750000Y-146500000D01*
X125250000Y-114000000D02*
X122750000Y-116500000D01*
X128250000Y-153710000D02*
X128540000Y-154000000D01*
G04 #@! TO.N,Net-(P17-Pad3)*
X131080000Y-154000000D02*
X131080000Y-151830000D01*
X124750000Y-145500000D02*
X124750000Y-122000000D01*
X131080000Y-151830000D02*
X124750000Y-145500000D01*
G04 #@! TO.N,Net-(P18-Pad3)*
X124000000Y-94250000D02*
X124000000Y-104500000D01*
X128750000Y-89500000D02*
X124000000Y-94250000D01*
G04 #@! TO.N,Net-(P18-Pad4)*
X121000000Y-89250000D02*
X127750000Y-82500000D01*
X121000000Y-103750000D02*
X121000000Y-89250000D01*
X122750000Y-105500000D02*
X121000000Y-103750000D01*
D24*
G04 #@! TO.N,Net-(C11-Pad2)*
X149500000Y-155500000D02*
X149500000Y-153450001D01*
X152000000Y-153500000D02*
X152000000Y-152000000D01*
X152000000Y-156750000D02*
X152000000Y-153500000D01*
X149500000Y-156750000D02*
X152000000Y-156750000D01*
X148000000Y-156750000D02*
X146000000Y-156750000D01*
X149500000Y-156750000D02*
X148000000Y-156750000D01*
X149500000Y-155500000D02*
X149500000Y-156750000D01*
X148000000Y-155500000D02*
X149500000Y-155500000D01*
X146000000Y-155500000D02*
X148000000Y-155500000D01*
X137500000Y-141000000D02*
X137500000Y-152250000D01*
X137500000Y-152250000D02*
X140750000Y-155500000D01*
X140750000Y-155500000D02*
X146000000Y-155500000D01*
D21*
X149000000Y-95000000D02*
X150000000Y-95000000D01*
X151000000Y-93000000D02*
X152000000Y-93000000D01*
X152000000Y-94000000D02*
X151000000Y-94000000D01*
X153000000Y-95000000D02*
X153000000Y-94000000D01*
X151000000Y-95000000D02*
X152000000Y-95000000D01*
X149000000Y-95000000D02*
X141000000Y-95000000D01*
X149000000Y-80000000D02*
X150000000Y-80000000D01*
X151000000Y-78000000D02*
X152000000Y-78000000D01*
X152000000Y-79000000D02*
X151000000Y-79000000D01*
X153000000Y-80000000D02*
X153000000Y-79000000D01*
X151000000Y-80000000D02*
X152000000Y-80000000D01*
X148990000Y-80010000D02*
X142010000Y-80010000D01*
X142010000Y-80010000D02*
X142510000Y-80010000D01*
X142510000Y-80010000D02*
X135970000Y-80010000D01*
X135970000Y-80010000D02*
X135335000Y-80010000D01*
X149000000Y-80000000D02*
X148990000Y-80010000D01*
X112000000Y-72000000D02*
X127000000Y-72000000D01*
X127000000Y-72000000D02*
X137240000Y-82240000D01*
X149000000Y-141000000D02*
X150000000Y-141000000D01*
X151000000Y-139000000D02*
X152000000Y-139000000D01*
X152000000Y-140000000D02*
X151000000Y-140000000D01*
X153000000Y-141000000D02*
X153000000Y-140000000D01*
X151000000Y-141000000D02*
X152000000Y-141000000D01*
X149000000Y-141000000D02*
X141500000Y-141000000D01*
X141500000Y-141000000D02*
X137500000Y-141000000D01*
X137500000Y-141000000D02*
X137240000Y-141000000D01*
X149000000Y-125000000D02*
X150000000Y-125000000D01*
X151000000Y-123000000D02*
X152000000Y-123000000D01*
X152000000Y-124000000D02*
X151000000Y-124000000D01*
X153000000Y-125000000D02*
X153000000Y-124000000D01*
X151000000Y-125000000D02*
X152000000Y-125000000D01*
X149000000Y-111000000D02*
X150000000Y-111000000D01*
X151000000Y-109000000D02*
X152000000Y-109000000D01*
X152000000Y-110000000D02*
X151000000Y-110000000D01*
X153000000Y-111000000D02*
X153000000Y-110000000D01*
X151000000Y-111000000D02*
X152000000Y-111000000D01*
X149000000Y-111000000D02*
X141000000Y-111000000D01*
X141000000Y-111000000D02*
X137240000Y-111000000D01*
X137240000Y-111000000D02*
X137000000Y-111000000D01*
X137000000Y-111000000D02*
X137240000Y-111000000D01*
X149000000Y-125000000D02*
X141500000Y-125000000D01*
X141500000Y-125000000D02*
X137240000Y-125000000D01*
X137240000Y-125000000D02*
X137000000Y-125000000D01*
X137000000Y-125000000D02*
X137240000Y-125000000D01*
X137240000Y-118110000D02*
X137240000Y-125000000D01*
X137240000Y-111000000D02*
X137240000Y-118110000D01*
X137240000Y-102870000D02*
X137240000Y-111000000D01*
X137240000Y-95000000D02*
X137240000Y-102870000D01*
X137240000Y-125000000D02*
X137240000Y-134620000D01*
X137240000Y-134620000D02*
X137240000Y-141000000D01*
X141000000Y-95000000D02*
X137240000Y-95000000D01*
X137240000Y-95000000D02*
X137000000Y-95000000D01*
X137000000Y-95000000D02*
X137240000Y-95000000D01*
X135335000Y-80010000D02*
X137240000Y-81915000D01*
X137240000Y-81915000D02*
X137240000Y-82240000D01*
X137240000Y-87630000D02*
X137240000Y-95000000D01*
X137240000Y-82240000D02*
X137240000Y-87630000D01*
D23*
G04 #@! TO.N,Net-(P8-Pad2)*
X119000000Y-154460000D02*
X119540000Y-154460000D01*
X119540000Y-154460000D02*
X121000000Y-153000000D01*
X121000000Y-153000000D02*
X121000000Y-118500000D01*
X121000000Y-118500000D02*
X120610000Y-118110000D01*
X120610000Y-118110000D02*
X118825000Y-118110000D01*
G04 #@! TD*
D25*
G04 #@! TO.N,GND*
G36*
X156290001Y-159290000D02*
X107710000Y-159290000D01*
X107710000Y-156898121D01*
X110281484Y-156898121D01*
X110506154Y-157272168D01*
X111489388Y-157670880D01*
X112550357Y-157662975D01*
X113461056Y-157285750D01*
X117065000Y-157285750D01*
X117065000Y-158126309D01*
X117161673Y-158359698D01*
X117340301Y-158538327D01*
X117573690Y-158635000D01*
X118714250Y-158635000D01*
X118873000Y-158476250D01*
X118873000Y-157127000D01*
X119127000Y-157127000D01*
X119127000Y-158476250D01*
X119285750Y-158635000D01*
X120426310Y-158635000D01*
X120659699Y-158538327D01*
X120838327Y-158359698D01*
X120935000Y-158126309D01*
X120935000Y-157285750D01*
X120776250Y-157127000D01*
X119127000Y-157127000D01*
X118873000Y-157127000D01*
X117223750Y-157127000D01*
X117065000Y-157285750D01*
X113461056Y-157285750D01*
X113493846Y-157272168D01*
X113718516Y-156898121D01*
X112000000Y-155179605D01*
X110281484Y-156898121D01*
X107710000Y-156898121D01*
X107710000Y-154489388D01*
X109329120Y-154489388D01*
X109337025Y-155550357D01*
X109727832Y-156493846D01*
X110101879Y-156718516D01*
X111820395Y-155000000D01*
X112179605Y-155000000D01*
X113898121Y-156718516D01*
X114272168Y-156493846D01*
X114670880Y-155510612D01*
X114662975Y-154449643D01*
X114272168Y-153506154D01*
X113898121Y-153281484D01*
X112179605Y-155000000D01*
X111820395Y-155000000D01*
X110101879Y-153281484D01*
X109727832Y-153506154D01*
X109329120Y-154489388D01*
X107710000Y-154489388D01*
X107710000Y-153101879D01*
X110281484Y-153101879D01*
X112000000Y-154820395D01*
X113718516Y-153101879D01*
X113493846Y-152727832D01*
X112510612Y-152329120D01*
X111449643Y-152337025D01*
X110506154Y-152727832D01*
X110281484Y-153101879D01*
X107710000Y-153101879D01*
X107710000Y-140540000D01*
X110032969Y-140540000D01*
X110159864Y-141177945D01*
X110521231Y-141718769D01*
X110657768Y-141810000D01*
X110521231Y-141901231D01*
X110159864Y-142442055D01*
X110032969Y-143080000D01*
X110159864Y-143717945D01*
X110521231Y-144258769D01*
X111062055Y-144620136D01*
X111538969Y-144715000D01*
X112461031Y-144715000D01*
X112937945Y-144620136D01*
X113478769Y-144258769D01*
X113840136Y-143717945D01*
X113967031Y-143080000D01*
X113840136Y-142442055D01*
X113478769Y-141901231D01*
X113342232Y-141810000D01*
X113478769Y-141718769D01*
X113840136Y-141177945D01*
X113967031Y-140540000D01*
X113840136Y-139902055D01*
X113610670Y-139558635D01*
X113659699Y-139538327D01*
X113838327Y-139359698D01*
X113935000Y-139126309D01*
X113935000Y-138285750D01*
X113776250Y-138127000D01*
X112127000Y-138127000D01*
X112127000Y-138147000D01*
X111873000Y-138147000D01*
X111873000Y-138127000D01*
X110223750Y-138127000D01*
X110065000Y-138285750D01*
X110065000Y-139126309D01*
X110161673Y-139359698D01*
X110340301Y-139538327D01*
X110389330Y-139558635D01*
X110159864Y-139902055D01*
X110032969Y-140540000D01*
X107710000Y-140540000D01*
X107710000Y-136873691D01*
X110065000Y-136873691D01*
X110065000Y-137714250D01*
X110223750Y-137873000D01*
X111873000Y-137873000D01*
X111873000Y-136523750D01*
X112127000Y-136523750D01*
X112127000Y-137873000D01*
X113776250Y-137873000D01*
X113935000Y-137714250D01*
X113935000Y-136873691D01*
X113838327Y-136640302D01*
X113659699Y-136461673D01*
X113426310Y-136365000D01*
X112285750Y-136365000D01*
X112127000Y-136523750D01*
X111873000Y-136523750D01*
X111714250Y-136365000D01*
X110573690Y-136365000D01*
X110340301Y-136461673D01*
X110161673Y-136640302D01*
X110065000Y-136873691D01*
X107710000Y-136873691D01*
X107710000Y-130540000D01*
X110032969Y-130540000D01*
X110159864Y-131177945D01*
X110521231Y-131718769D01*
X110657768Y-131810000D01*
X110521231Y-131901231D01*
X110159864Y-132442055D01*
X110032969Y-133080000D01*
X110159864Y-133717945D01*
X110521231Y-134258769D01*
X111062055Y-134620136D01*
X111538969Y-134715000D01*
X112461031Y-134715000D01*
X112937945Y-134620136D01*
X113478769Y-134258769D01*
X113840136Y-133717945D01*
X113967031Y-133080000D01*
X113840136Y-132442055D01*
X113478769Y-131901231D01*
X113342232Y-131810000D01*
X113478769Y-131718769D01*
X113840136Y-131177945D01*
X113967031Y-130540000D01*
X113840136Y-129902055D01*
X113610670Y-129558635D01*
X113659699Y-129538327D01*
X113838327Y-129359698D01*
X113935000Y-129126309D01*
X113935000Y-128285750D01*
X113776250Y-128127000D01*
X112127000Y-128127000D01*
X112127000Y-128147000D01*
X111873000Y-128147000D01*
X111873000Y-128127000D01*
X110223750Y-128127000D01*
X110065000Y-128285750D01*
X110065000Y-129126309D01*
X110161673Y-129359698D01*
X110340301Y-129538327D01*
X110389330Y-129558635D01*
X110159864Y-129902055D01*
X110032969Y-130540000D01*
X107710000Y-130540000D01*
X107710000Y-126873691D01*
X110065000Y-126873691D01*
X110065000Y-127714250D01*
X110223750Y-127873000D01*
X111873000Y-127873000D01*
X111873000Y-126523750D01*
X112127000Y-126523750D01*
X112127000Y-127873000D01*
X113776250Y-127873000D01*
X113935000Y-127714250D01*
X113935000Y-126873691D01*
X113838327Y-126640302D01*
X113659699Y-126461673D01*
X113426310Y-126365000D01*
X112285750Y-126365000D01*
X112127000Y-126523750D01*
X111873000Y-126523750D01*
X111714250Y-126365000D01*
X110573690Y-126365000D01*
X110340301Y-126461673D01*
X110161673Y-126640302D01*
X110065000Y-126873691D01*
X107710000Y-126873691D01*
X107710000Y-120540000D01*
X110032969Y-120540000D01*
X110159864Y-121177945D01*
X110521231Y-121718769D01*
X110657768Y-121810000D01*
X110521231Y-121901231D01*
X110159864Y-122442055D01*
X110032969Y-123080000D01*
X110159864Y-123717945D01*
X110521231Y-124258769D01*
X111062055Y-124620136D01*
X111538969Y-124715000D01*
X112461031Y-124715000D01*
X112937945Y-124620136D01*
X113478769Y-124258769D01*
X113840136Y-123717945D01*
X113967031Y-123080000D01*
X113840136Y-122442055D01*
X113478769Y-121901231D01*
X113342232Y-121810000D01*
X113478769Y-121718769D01*
X113840136Y-121177945D01*
X113967031Y-120540000D01*
X113840136Y-119902055D01*
X113610670Y-119558635D01*
X113659699Y-119538327D01*
X113838327Y-119359698D01*
X113935000Y-119126309D01*
X113935000Y-118285750D01*
X113776250Y-118127000D01*
X112127000Y-118127000D01*
X112127000Y-118147000D01*
X111873000Y-118147000D01*
X111873000Y-118127000D01*
X110223750Y-118127000D01*
X110065000Y-118285750D01*
X110065000Y-119126309D01*
X110161673Y-119359698D01*
X110340301Y-119538327D01*
X110389330Y-119558635D01*
X110159864Y-119902055D01*
X110032969Y-120540000D01*
X107710000Y-120540000D01*
X107710000Y-116873691D01*
X110065000Y-116873691D01*
X110065000Y-117714250D01*
X110223750Y-117873000D01*
X111873000Y-117873000D01*
X111873000Y-116523750D01*
X112127000Y-116523750D01*
X112127000Y-117873000D01*
X113776250Y-117873000D01*
X113935000Y-117714250D01*
X113935000Y-116873691D01*
X113838327Y-116640302D01*
X113659699Y-116461673D01*
X113426310Y-116365000D01*
X112285750Y-116365000D01*
X112127000Y-116523750D01*
X111873000Y-116523750D01*
X111714250Y-116365000D01*
X110573690Y-116365000D01*
X110340301Y-116461673D01*
X110161673Y-116640302D01*
X110065000Y-116873691D01*
X107710000Y-116873691D01*
X107710000Y-110540000D01*
X110032969Y-110540000D01*
X110159864Y-111177945D01*
X110521231Y-111718769D01*
X110657768Y-111810000D01*
X110521231Y-111901231D01*
X110159864Y-112442055D01*
X110032969Y-113080000D01*
X110159864Y-113717945D01*
X110521231Y-114258769D01*
X111062055Y-114620136D01*
X111538969Y-114715000D01*
X112461031Y-114715000D01*
X112937945Y-114620136D01*
X113478769Y-114258769D01*
X113840136Y-113717945D01*
X113967031Y-113080000D01*
X113840136Y-112442055D01*
X113478769Y-111901231D01*
X113342232Y-111810000D01*
X113478769Y-111718769D01*
X113840136Y-111177945D01*
X113967031Y-110540000D01*
X113840136Y-109902055D01*
X113610670Y-109558635D01*
X113659699Y-109538327D01*
X113838327Y-109359698D01*
X113935000Y-109126309D01*
X113935000Y-108285750D01*
X113776250Y-108127000D01*
X112127000Y-108127000D01*
X112127000Y-108147000D01*
X111873000Y-108147000D01*
X111873000Y-108127000D01*
X110223750Y-108127000D01*
X110065000Y-108285750D01*
X110065000Y-109126309D01*
X110161673Y-109359698D01*
X110340301Y-109538327D01*
X110389330Y-109558635D01*
X110159864Y-109902055D01*
X110032969Y-110540000D01*
X107710000Y-110540000D01*
X107710000Y-106873691D01*
X110065000Y-106873691D01*
X110065000Y-107714250D01*
X110223750Y-107873000D01*
X111873000Y-107873000D01*
X111873000Y-106523750D01*
X112127000Y-106523750D01*
X112127000Y-107873000D01*
X113776250Y-107873000D01*
X113935000Y-107714250D01*
X113935000Y-106873691D01*
X113838327Y-106640302D01*
X113659699Y-106461673D01*
X113426310Y-106365000D01*
X112285750Y-106365000D01*
X112127000Y-106523750D01*
X111873000Y-106523750D01*
X111714250Y-106365000D01*
X110573690Y-106365000D01*
X110340301Y-106461673D01*
X110161673Y-106640302D01*
X110065000Y-106873691D01*
X107710000Y-106873691D01*
X107710000Y-100540000D01*
X110032969Y-100540000D01*
X110159864Y-101177945D01*
X110521231Y-101718769D01*
X110657768Y-101810000D01*
X110521231Y-101901231D01*
X110159864Y-102442055D01*
X110032969Y-103080000D01*
X110159864Y-103717945D01*
X110521231Y-104258769D01*
X111062055Y-104620136D01*
X111538969Y-104715000D01*
X112461031Y-104715000D01*
X112937945Y-104620136D01*
X113478769Y-104258769D01*
X113840136Y-103717945D01*
X113967031Y-103080000D01*
X113840136Y-102442055D01*
X113478769Y-101901231D01*
X113342232Y-101810000D01*
X113478769Y-101718769D01*
X113840136Y-101177945D01*
X113967031Y-100540000D01*
X113925260Y-100330000D01*
X117019134Y-100330000D01*
X117129529Y-100884993D01*
X117443907Y-101355493D01*
X117813851Y-101602681D01*
X117807738Y-101604475D01*
X117373809Y-101954014D01*
X117106673Y-102443004D01*
X117089990Y-102522940D01*
X117212148Y-102743000D01*
X118698000Y-102743000D01*
X118698000Y-102723000D01*
X118952000Y-102723000D01*
X118952000Y-102743000D01*
X118972000Y-102743000D01*
X118972000Y-102997000D01*
X118952000Y-102997000D01*
X118952000Y-103017000D01*
X118698000Y-103017000D01*
X118698000Y-102997000D01*
X117212148Y-102997000D01*
X117089990Y-103217060D01*
X117106673Y-103296996D01*
X117373809Y-103785986D01*
X117807738Y-104135525D01*
X117813851Y-104137319D01*
X117443907Y-104384507D01*
X117129529Y-104855007D01*
X117019134Y-105410000D01*
X117129529Y-105964993D01*
X117443907Y-106435493D01*
X117809838Y-106680000D01*
X117443907Y-106924507D01*
X117129529Y-107395007D01*
X117019134Y-107950000D01*
X117129529Y-108504993D01*
X117443907Y-108975493D01*
X117809838Y-109220000D01*
X117443907Y-109464507D01*
X117129529Y-109935007D01*
X117019134Y-110490000D01*
X117129529Y-111044993D01*
X117443907Y-111515493D01*
X117809838Y-111760000D01*
X117443907Y-112004507D01*
X117129529Y-112475007D01*
X117019134Y-113030000D01*
X117129529Y-113584993D01*
X117443907Y-114055493D01*
X117809838Y-114300000D01*
X117443907Y-114544507D01*
X117129529Y-115015007D01*
X117019134Y-115570000D01*
X117129529Y-116124993D01*
X117443907Y-116595493D01*
X117809838Y-116840000D01*
X117443907Y-117084507D01*
X117129529Y-117555007D01*
X117019134Y-118110000D01*
X117129529Y-118664993D01*
X117443907Y-119135493D01*
X117809838Y-119380000D01*
X117443907Y-119624507D01*
X117129529Y-120095007D01*
X117019134Y-120650000D01*
X117129529Y-121204993D01*
X117443907Y-121675493D01*
X117809838Y-121920000D01*
X117443907Y-122164507D01*
X117129529Y-122635007D01*
X117019134Y-123190000D01*
X117129529Y-123744993D01*
X117443907Y-124215493D01*
X117809838Y-124460000D01*
X117443907Y-124704507D01*
X117129529Y-125175007D01*
X117019134Y-125730000D01*
X117129529Y-126284993D01*
X117443907Y-126755493D01*
X117809838Y-127000000D01*
X117443907Y-127244507D01*
X117129529Y-127715007D01*
X117019134Y-128270000D01*
X117129529Y-128824993D01*
X117443907Y-129295493D01*
X117809838Y-129540000D01*
X117443907Y-129784507D01*
X117129529Y-130255007D01*
X117019134Y-130810000D01*
X117129529Y-131364993D01*
X117443907Y-131835493D01*
X117809838Y-132080000D01*
X117443907Y-132324507D01*
X117129529Y-132795007D01*
X117019134Y-133350000D01*
X117129529Y-133904993D01*
X117443907Y-134375493D01*
X117590404Y-134473379D01*
X117434235Y-134504443D01*
X117224191Y-134644791D01*
X117083843Y-134854835D01*
X117034560Y-135102600D01*
X117034560Y-136677400D01*
X117083843Y-136925165D01*
X117224191Y-137135209D01*
X117434235Y-137275557D01*
X117682000Y-137324840D01*
X119965000Y-137324840D01*
X119965000Y-147857942D01*
X119937945Y-147839864D01*
X119461031Y-147745000D01*
X118538969Y-147745000D01*
X118062055Y-147839864D01*
X117521231Y-148201231D01*
X117159864Y-148742055D01*
X117032969Y-149380000D01*
X117159864Y-150017945D01*
X117521231Y-150558769D01*
X117657768Y-150650000D01*
X117521231Y-150741231D01*
X117159864Y-151282055D01*
X117032969Y-151920000D01*
X117159864Y-152557945D01*
X117521231Y-153098769D01*
X117657768Y-153190000D01*
X117521231Y-153281231D01*
X117159864Y-153822055D01*
X117032969Y-154460000D01*
X117159864Y-155097945D01*
X117389330Y-155441365D01*
X117340301Y-155461673D01*
X117161673Y-155640302D01*
X117065000Y-155873691D01*
X117065000Y-156714250D01*
X117223750Y-156873000D01*
X118873000Y-156873000D01*
X118873000Y-156853000D01*
X119127000Y-156853000D01*
X119127000Y-156873000D01*
X120776250Y-156873000D01*
X120935000Y-156714250D01*
X120935000Y-155873691D01*
X120838327Y-155640302D01*
X120659699Y-155461673D01*
X120610670Y-155441365D01*
X120840136Y-155097945D01*
X120957923Y-154505787D01*
X121177960Y-154285750D01*
X124365000Y-154285750D01*
X124365000Y-155426310D01*
X124461673Y-155659699D01*
X124640302Y-155838327D01*
X124873691Y-155935000D01*
X125714250Y-155935000D01*
X125873000Y-155776250D01*
X125873000Y-154127000D01*
X124523750Y-154127000D01*
X124365000Y-154285750D01*
X121177960Y-154285750D01*
X121659776Y-153803935D01*
X121746193Y-153746193D01*
X121974948Y-153403837D01*
X122035000Y-153101935D01*
X122035000Y-153101934D01*
X122055276Y-153000000D01*
X122035000Y-152898066D01*
X122035000Y-152573690D01*
X124365000Y-152573690D01*
X124365000Y-153714250D01*
X124523750Y-153873000D01*
X125873000Y-153873000D01*
X125873000Y-152223750D01*
X125714250Y-152065000D01*
X124873691Y-152065000D01*
X124640302Y-152161673D01*
X124461673Y-152340301D01*
X124365000Y-152573690D01*
X122035000Y-152573690D01*
X122035000Y-147267035D01*
X122090225Y-147303935D01*
X126851289Y-152065000D01*
X126285750Y-152065000D01*
X126127000Y-152223750D01*
X126127000Y-153873000D01*
X126147000Y-153873000D01*
X126147000Y-154127000D01*
X126127000Y-154127000D01*
X126127000Y-155776250D01*
X126285750Y-155935000D01*
X127126309Y-155935000D01*
X127359698Y-155838327D01*
X127538327Y-155659699D01*
X127558635Y-155610670D01*
X127902056Y-155840136D01*
X128540000Y-155967031D01*
X129177945Y-155840136D01*
X129718769Y-155478769D01*
X129810000Y-155342232D01*
X129901231Y-155478769D01*
X130442056Y-155840136D01*
X131080000Y-155967031D01*
X131717945Y-155840136D01*
X132258769Y-155478769D01*
X132350000Y-155342232D01*
X132441231Y-155478769D01*
X132982056Y-155840136D01*
X133620000Y-155967031D01*
X134257945Y-155840136D01*
X134798769Y-155478769D01*
X135160136Y-154937945D01*
X135255000Y-154461030D01*
X135255000Y-153538969D01*
X135160136Y-153062055D01*
X134798769Y-152521231D01*
X134257944Y-152159864D01*
X133620000Y-152032969D01*
X132982055Y-152159864D01*
X132441231Y-152521231D01*
X132350000Y-152657768D01*
X132258769Y-152521231D01*
X132115000Y-152425168D01*
X132115000Y-151931934D01*
X132135276Y-151830000D01*
X132103530Y-151670399D01*
X132054948Y-151426163D01*
X131826193Y-151083807D01*
X131739776Y-151026065D01*
X125785000Y-145071290D01*
X125785000Y-121898065D01*
X125724948Y-121596163D01*
X125496193Y-121253807D01*
X125153837Y-121025052D01*
X124750000Y-120944724D01*
X124346164Y-121025052D01*
X124003808Y-121253807D01*
X123785000Y-121581276D01*
X123785000Y-116928710D01*
X126053934Y-114659777D01*
X126224948Y-114403837D01*
X126305276Y-114000000D01*
X126224948Y-113596164D01*
X125996192Y-113253808D01*
X125653836Y-113025052D01*
X125250000Y-112944724D01*
X124846163Y-113025052D01*
X124590223Y-113196066D01*
X122090227Y-115696063D01*
X122003807Y-115753807D01*
X121922724Y-115875157D01*
X121775052Y-116096164D01*
X121694724Y-116500000D01*
X121715000Y-116601934D01*
X121715000Y-117732965D01*
X121659773Y-117696063D01*
X121413937Y-117450227D01*
X121356193Y-117363807D01*
X121013837Y-117135052D01*
X120711935Y-117075000D01*
X120711934Y-117075000D01*
X120610000Y-117054724D01*
X120508066Y-117075000D01*
X120191865Y-117075000D01*
X119840162Y-116840000D01*
X120206093Y-116595493D01*
X120520471Y-116124993D01*
X120630866Y-115570000D01*
X120520471Y-115015007D01*
X120206093Y-114544507D01*
X119840162Y-114300000D01*
X120206093Y-114055493D01*
X120520471Y-113584993D01*
X120630866Y-113030000D01*
X120520471Y-112475007D01*
X120206093Y-112004507D01*
X119840162Y-111760000D01*
X120206093Y-111515493D01*
X120520471Y-111044993D01*
X120630866Y-110490000D01*
X120520471Y-109935007D01*
X120206093Y-109464507D01*
X119840162Y-109220000D01*
X120206093Y-108975493D01*
X120520471Y-108504993D01*
X120630866Y-107950000D01*
X120520471Y-107395007D01*
X120206093Y-106924507D01*
X119840162Y-106680000D01*
X120206093Y-106435493D01*
X120520471Y-105964993D01*
X120630866Y-105410000D01*
X120520471Y-104855007D01*
X120302426Y-104528679D01*
X120340227Y-104553937D01*
X122090223Y-106303934D01*
X122346163Y-106474948D01*
X122750000Y-106555276D01*
X123153836Y-106474948D01*
X123496193Y-106246193D01*
X123724948Y-105903836D01*
X123802111Y-105515913D01*
X124000000Y-105555276D01*
X124403837Y-105474948D01*
X124746193Y-105246193D01*
X124974948Y-104903837D01*
X125035000Y-104601935D01*
X125035000Y-94678710D01*
X129553934Y-90159777D01*
X129724947Y-89903837D01*
X129805275Y-89500001D01*
X129724947Y-89096164D01*
X129496192Y-88753808D01*
X129153836Y-88525053D01*
X128749999Y-88444725D01*
X128346163Y-88525053D01*
X128090223Y-88696066D01*
X123340227Y-93446063D01*
X123253807Y-93503807D01*
X123046532Y-93814017D01*
X123025052Y-93846164D01*
X122944724Y-94250000D01*
X122965000Y-94351934D01*
X122965001Y-104251290D01*
X122035000Y-103321290D01*
X122035000Y-89678710D01*
X128553934Y-83159777D01*
X128724948Y-82903837D01*
X128805276Y-82500000D01*
X128724948Y-82096164D01*
X128496193Y-81753807D01*
X128153836Y-81525052D01*
X127750000Y-81444724D01*
X127346163Y-81525052D01*
X127090223Y-81696066D01*
X120340225Y-88446065D01*
X120253808Y-88503807D01*
X120196066Y-88590224D01*
X120025052Y-88846164D01*
X119944724Y-89250000D01*
X119965001Y-89351939D01*
X119965000Y-99143414D01*
X119735593Y-98990129D01*
X119320692Y-98907600D01*
X118329308Y-98907600D01*
X117914407Y-98990129D01*
X117443907Y-99304507D01*
X117129529Y-99775007D01*
X117019134Y-100330000D01*
X113925260Y-100330000D01*
X113840136Y-99902055D01*
X113610670Y-99558635D01*
X113659699Y-99538327D01*
X113838327Y-99359698D01*
X113935000Y-99126309D01*
X113935000Y-98285750D01*
X113776250Y-98127000D01*
X112127000Y-98127000D01*
X112127000Y-98147000D01*
X111873000Y-98147000D01*
X111873000Y-98127000D01*
X110223750Y-98127000D01*
X110065000Y-98285750D01*
X110065000Y-99126309D01*
X110161673Y-99359698D01*
X110340301Y-99538327D01*
X110389330Y-99558635D01*
X110159864Y-99902055D01*
X110032969Y-100540000D01*
X107710000Y-100540000D01*
X107710000Y-96873691D01*
X110065000Y-96873691D01*
X110065000Y-97714250D01*
X110223750Y-97873000D01*
X111873000Y-97873000D01*
X111873000Y-96523750D01*
X112127000Y-96523750D01*
X112127000Y-97873000D01*
X113776250Y-97873000D01*
X113935000Y-97714250D01*
X113935000Y-96873691D01*
X113838327Y-96640302D01*
X113659699Y-96461673D01*
X113426310Y-96365000D01*
X112285750Y-96365000D01*
X112127000Y-96523750D01*
X111873000Y-96523750D01*
X111714250Y-96365000D01*
X110573690Y-96365000D01*
X110340301Y-96461673D01*
X110161673Y-96640302D01*
X110065000Y-96873691D01*
X107710000Y-96873691D01*
X107710000Y-90540000D01*
X110032969Y-90540000D01*
X110159864Y-91177945D01*
X110521231Y-91718769D01*
X110657768Y-91810000D01*
X110521231Y-91901231D01*
X110159864Y-92442055D01*
X110032969Y-93080000D01*
X110159864Y-93717945D01*
X110521231Y-94258769D01*
X111062055Y-94620136D01*
X111538969Y-94715000D01*
X112461031Y-94715000D01*
X112937945Y-94620136D01*
X113478769Y-94258769D01*
X113840136Y-93717945D01*
X113967031Y-93080000D01*
X113840136Y-92442055D01*
X113478769Y-91901231D01*
X113342232Y-91810000D01*
X113478769Y-91718769D01*
X113840136Y-91177945D01*
X113967031Y-90540000D01*
X113840136Y-89902055D01*
X113610670Y-89558635D01*
X113659699Y-89538327D01*
X113838327Y-89359698D01*
X113935000Y-89126309D01*
X113935000Y-88285750D01*
X113776250Y-88127000D01*
X112127000Y-88127000D01*
X112127000Y-88147000D01*
X111873000Y-88147000D01*
X111873000Y-88127000D01*
X110223750Y-88127000D01*
X110065000Y-88285750D01*
X110065000Y-89126309D01*
X110161673Y-89359698D01*
X110340301Y-89538327D01*
X110389330Y-89558635D01*
X110159864Y-89902055D01*
X110032969Y-90540000D01*
X107710000Y-90540000D01*
X107710000Y-86873691D01*
X110065000Y-86873691D01*
X110065000Y-87714250D01*
X110223750Y-87873000D01*
X111873000Y-87873000D01*
X111873000Y-86523750D01*
X112127000Y-86523750D01*
X112127000Y-87873000D01*
X113776250Y-87873000D01*
X113935000Y-87714250D01*
X113935000Y-86873691D01*
X113838327Y-86640302D01*
X113659699Y-86461673D01*
X113426310Y-86365000D01*
X112285750Y-86365000D01*
X112127000Y-86523750D01*
X111873000Y-86523750D01*
X111714250Y-86365000D01*
X110573690Y-86365000D01*
X110340301Y-86461673D01*
X110161673Y-86640302D01*
X110065000Y-86873691D01*
X107710000Y-86873691D01*
X107710000Y-82920434D01*
X110109876Y-82920434D01*
X110140856Y-83048355D01*
X110454078Y-83606317D01*
X110956980Y-84001942D01*
X111573000Y-84175000D01*
X111873000Y-84175000D01*
X111873000Y-82667000D01*
X112127000Y-82667000D01*
X112127000Y-84175000D01*
X112427000Y-84175000D01*
X113043020Y-84001942D01*
X113545922Y-83606317D01*
X113859144Y-83048355D01*
X113890124Y-82920434D01*
X113770777Y-82667000D01*
X112127000Y-82667000D01*
X111873000Y-82667000D01*
X110229223Y-82667000D01*
X110109876Y-82920434D01*
X107710000Y-82920434D01*
X107710000Y-79000000D01*
X110052560Y-79000000D01*
X110052560Y-81000000D01*
X110101843Y-81247765D01*
X110242191Y-81457809D01*
X110402760Y-81565099D01*
X110140856Y-82031645D01*
X110109876Y-82159566D01*
X110229223Y-82413000D01*
X111873000Y-82413000D01*
X111873000Y-82393000D01*
X112127000Y-82393000D01*
X112127000Y-82413000D01*
X113770777Y-82413000D01*
X113890124Y-82159566D01*
X113859144Y-82031645D01*
X113597240Y-81565099D01*
X113757809Y-81457809D01*
X113898157Y-81247765D01*
X113947440Y-81000000D01*
X113947440Y-79000000D01*
X113898157Y-78752235D01*
X113757809Y-78542191D01*
X113547765Y-78401843D01*
X113300000Y-78352560D01*
X110700000Y-78352560D01*
X110452235Y-78401843D01*
X110242191Y-78542191D01*
X110101843Y-78752235D01*
X110052560Y-79000000D01*
X107710000Y-79000000D01*
X107710000Y-74920434D01*
X110109876Y-74920434D01*
X110140856Y-75048355D01*
X110454078Y-75606317D01*
X110956980Y-76001942D01*
X111573000Y-76175000D01*
X111873000Y-76175000D01*
X111873000Y-74667000D01*
X112127000Y-74667000D01*
X112127000Y-76175000D01*
X112427000Y-76175000D01*
X113043020Y-76001942D01*
X113545922Y-75606317D01*
X113859144Y-75048355D01*
X113890124Y-74920434D01*
X113770777Y-74667000D01*
X112127000Y-74667000D01*
X111873000Y-74667000D01*
X110229223Y-74667000D01*
X110109876Y-74920434D01*
X107710000Y-74920434D01*
X107710000Y-71000000D01*
X110052560Y-71000000D01*
X110052560Y-73000000D01*
X110101843Y-73247765D01*
X110242191Y-73457809D01*
X110402760Y-73565099D01*
X110140856Y-74031645D01*
X110109876Y-74159566D01*
X110229223Y-74413000D01*
X111873000Y-74413000D01*
X111873000Y-74393000D01*
X112127000Y-74393000D01*
X112127000Y-74413000D01*
X113770777Y-74413000D01*
X113890124Y-74159566D01*
X113859144Y-74031645D01*
X113597240Y-73565099D01*
X113757809Y-73457809D01*
X113806459Y-73385000D01*
X126426315Y-73385000D01*
X135855000Y-82813686D01*
X135855001Y-87493589D01*
X135855000Y-87493594D01*
X135855001Y-94220679D01*
X135695359Y-94459600D01*
X135587867Y-95000000D01*
X135695359Y-95540400D01*
X135855000Y-95779320D01*
X135855001Y-100250240D01*
X135760471Y-99775007D01*
X135446093Y-99304507D01*
X134975593Y-98990129D01*
X134560692Y-98907600D01*
X133569308Y-98907600D01*
X133154407Y-98990129D01*
X132683907Y-99304507D01*
X132369529Y-99775007D01*
X132259134Y-100330000D01*
X132369529Y-100884993D01*
X132683907Y-101355493D01*
X133049838Y-101600000D01*
X132683907Y-101844507D01*
X132369529Y-102315007D01*
X132259134Y-102870000D01*
X132369529Y-103424993D01*
X132683907Y-103895493D01*
X133049838Y-104140000D01*
X132683907Y-104384507D01*
X132369529Y-104855007D01*
X132259134Y-105410000D01*
X132369529Y-105964993D01*
X132683907Y-106435493D01*
X133053851Y-106682681D01*
X133047738Y-106684475D01*
X132613809Y-107034014D01*
X132346673Y-107523004D01*
X132329990Y-107602940D01*
X132452148Y-107823000D01*
X133938000Y-107823000D01*
X133938000Y-107803000D01*
X134192000Y-107803000D01*
X134192000Y-107823000D01*
X135677852Y-107823000D01*
X135800010Y-107602940D01*
X135783327Y-107523004D01*
X135516191Y-107034014D01*
X135082262Y-106684475D01*
X135076149Y-106682681D01*
X135446093Y-106435493D01*
X135760471Y-105964993D01*
X135855000Y-105489762D01*
X135855001Y-110220679D01*
X135825945Y-110264165D01*
X135760471Y-109935007D01*
X135446093Y-109464507D01*
X135076149Y-109217319D01*
X135082262Y-109215525D01*
X135516191Y-108865986D01*
X135783327Y-108376996D01*
X135800010Y-108297060D01*
X135677852Y-108077000D01*
X134192000Y-108077000D01*
X134192000Y-108097000D01*
X133938000Y-108097000D01*
X133938000Y-108077000D01*
X132452148Y-108077000D01*
X132329990Y-108297060D01*
X132346673Y-108376996D01*
X132613809Y-108865986D01*
X133047738Y-109215525D01*
X133053851Y-109217319D01*
X132683907Y-109464507D01*
X132369529Y-109935007D01*
X132259134Y-110490000D01*
X132369529Y-111044993D01*
X132683907Y-111515493D01*
X133049838Y-111760000D01*
X132683907Y-112004507D01*
X132369529Y-112475007D01*
X132259134Y-113030000D01*
X132369529Y-113584993D01*
X132683907Y-114055493D01*
X133049838Y-114300000D01*
X132683907Y-114544507D01*
X132369529Y-115015007D01*
X132259134Y-115570000D01*
X132369529Y-116124993D01*
X132683907Y-116595493D01*
X133049838Y-116840000D01*
X132683907Y-117084507D01*
X132369529Y-117555007D01*
X132259134Y-118110000D01*
X132369529Y-118664993D01*
X132683907Y-119135493D01*
X133049838Y-119380000D01*
X132683907Y-119624507D01*
X132369529Y-120095007D01*
X132259134Y-120650000D01*
X132369529Y-121204993D01*
X132683907Y-121675493D01*
X133049838Y-121920000D01*
X132683907Y-122164507D01*
X132369529Y-122635007D01*
X132259134Y-123190000D01*
X132369529Y-123744993D01*
X132683907Y-124215493D01*
X133049838Y-124460000D01*
X132683907Y-124704507D01*
X132369529Y-125175007D01*
X132259134Y-125730000D01*
X132369529Y-126284993D01*
X132683907Y-126755493D01*
X133049838Y-127000000D01*
X132683907Y-127244507D01*
X132369529Y-127715007D01*
X132259134Y-128270000D01*
X132369529Y-128824993D01*
X132683907Y-129295493D01*
X133049838Y-129540000D01*
X132683907Y-129784507D01*
X132369529Y-130255007D01*
X132259134Y-130810000D01*
X132369529Y-131364993D01*
X132683907Y-131835493D01*
X133049838Y-132080000D01*
X132683907Y-132324507D01*
X132369529Y-132795007D01*
X132259134Y-133350000D01*
X132369529Y-133904993D01*
X132683907Y-134375493D01*
X133049838Y-134620000D01*
X132683907Y-134864507D01*
X132369529Y-135335007D01*
X132259134Y-135890000D01*
X132369529Y-136444993D01*
X132683907Y-136915493D01*
X133154407Y-137229871D01*
X133569308Y-137312400D01*
X134560692Y-137312400D01*
X134975593Y-137229871D01*
X135446093Y-136915493D01*
X135760471Y-136444993D01*
X135855000Y-135969763D01*
X135855001Y-140863588D01*
X135827867Y-141000000D01*
X135865000Y-141186681D01*
X135865001Y-152088965D01*
X135832969Y-152250000D01*
X135930377Y-152739699D01*
X135959865Y-152887945D01*
X136321232Y-153428769D01*
X136457748Y-153519986D01*
X139480014Y-156542253D01*
X139571231Y-156678769D01*
X140112055Y-157040136D01*
X140588969Y-157135000D01*
X140749999Y-157167031D01*
X140911029Y-157135000D01*
X144409550Y-157135000D01*
X144459864Y-157387945D01*
X144821231Y-157928769D01*
X145362055Y-158290136D01*
X145838969Y-158385000D01*
X149338969Y-158385000D01*
X149500000Y-158417031D01*
X149661031Y-158385000D01*
X151838969Y-158385000D01*
X152000000Y-158417031D01*
X152161031Y-158385000D01*
X152637945Y-158290136D01*
X153178769Y-157928769D01*
X153540136Y-157387945D01*
X153667031Y-156750000D01*
X153635000Y-156588969D01*
X153635000Y-151838969D01*
X153540136Y-151362055D01*
X153178769Y-150821231D01*
X152637945Y-150459864D01*
X152000000Y-150332969D01*
X151362056Y-150459864D01*
X150821232Y-150821231D01*
X150647440Y-151081329D01*
X150647440Y-149750000D01*
X150598157Y-149502235D01*
X150457809Y-149292191D01*
X150247765Y-149151843D01*
X150000000Y-149102560D01*
X148245000Y-149102560D01*
X148245000Y-148285750D01*
X151065000Y-148285750D01*
X151065000Y-149126309D01*
X151161673Y-149359698D01*
X151340301Y-149538327D01*
X151573690Y-149635000D01*
X152714250Y-149635000D01*
X152873000Y-149476250D01*
X152873000Y-148127000D01*
X153127000Y-148127000D01*
X153127000Y-149476250D01*
X153285750Y-149635000D01*
X154426310Y-149635000D01*
X154659699Y-149538327D01*
X154838327Y-149359698D01*
X154935000Y-149126309D01*
X154935000Y-148285750D01*
X154776250Y-148127000D01*
X153127000Y-148127000D01*
X152873000Y-148127000D01*
X151223750Y-148127000D01*
X151065000Y-148285750D01*
X148245000Y-148285750D01*
X148245000Y-146962870D01*
X149109420Y-146962870D01*
X149357185Y-146913587D01*
X149459832Y-146845000D01*
X151076884Y-146845000D01*
X151065000Y-146873691D01*
X151065000Y-147714250D01*
X151223750Y-147873000D01*
X152873000Y-147873000D01*
X152873000Y-147853000D01*
X153127000Y-147853000D01*
X153127000Y-147873000D01*
X154776250Y-147873000D01*
X154935000Y-147714250D01*
X154935000Y-146873691D01*
X154838327Y-146640302D01*
X154659699Y-146461673D01*
X154610670Y-146441365D01*
X154840136Y-146097945D01*
X154967031Y-145460000D01*
X154840136Y-144822055D01*
X154478769Y-144281231D01*
X153937945Y-143919864D01*
X153461031Y-143825000D01*
X152538969Y-143825000D01*
X152062055Y-143919864D01*
X151829878Y-144075000D01*
X149579416Y-144075000D01*
X149567229Y-144056761D01*
X149357185Y-143916413D01*
X149109420Y-143867130D01*
X145609300Y-143867130D01*
X145361535Y-143916413D01*
X145151491Y-144056761D01*
X145011143Y-144266805D01*
X144961860Y-144514570D01*
X144961860Y-146315430D01*
X145011143Y-146563195D01*
X145151491Y-146773239D01*
X145361535Y-146913587D01*
X145475001Y-146936157D01*
X145475000Y-149392748D01*
X145401843Y-149502235D01*
X145398262Y-149520236D01*
X145219698Y-149341673D01*
X144986309Y-149245000D01*
X143145750Y-149245000D01*
X142987000Y-149403750D01*
X142987000Y-151003000D01*
X143007000Y-151003000D01*
X143007000Y-151257000D01*
X142987000Y-151257000D01*
X142987000Y-152856250D01*
X143145750Y-153015000D01*
X144986309Y-153015000D01*
X145219698Y-152918327D01*
X145398327Y-152739699D01*
X145461535Y-152587100D01*
X145542191Y-152707809D01*
X145752235Y-152848157D01*
X146000000Y-152897440D01*
X147942881Y-152897440D01*
X147865001Y-153288970D01*
X147865001Y-153865000D01*
X141427239Y-153865000D01*
X139135000Y-151572762D01*
X139135000Y-151415750D01*
X140225000Y-151415750D01*
X140225000Y-152506310D01*
X140321673Y-152739699D01*
X140500302Y-152918327D01*
X140733691Y-153015000D01*
X142574250Y-153015000D01*
X142733000Y-152856250D01*
X142733000Y-151257000D01*
X140383750Y-151257000D01*
X140225000Y-151415750D01*
X139135000Y-151415750D01*
X139135000Y-149753690D01*
X140225000Y-149753690D01*
X140225000Y-150844250D01*
X140383750Y-151003000D01*
X142733000Y-151003000D01*
X142733000Y-149403750D01*
X142574250Y-149245000D01*
X140733691Y-149245000D01*
X140500302Y-149341673D01*
X140321673Y-149520301D01*
X140225000Y-149753690D01*
X139135000Y-149753690D01*
X139135000Y-145700750D01*
X139975580Y-145700750D01*
X139975580Y-146441740D01*
X140072253Y-146675129D01*
X140250882Y-146853757D01*
X140484271Y-146950430D01*
X142074890Y-146950430D01*
X142233640Y-146791680D01*
X142233640Y-145542000D01*
X142487640Y-145542000D01*
X142487640Y-146791680D01*
X142646390Y-146950430D01*
X144237009Y-146950430D01*
X144470398Y-146853757D01*
X144649027Y-146675129D01*
X144745700Y-146441740D01*
X144745700Y-145700750D01*
X144586950Y-145542000D01*
X142487640Y-145542000D01*
X142233640Y-145542000D01*
X140134330Y-145542000D01*
X139975580Y-145700750D01*
X139135000Y-145700750D01*
X139135000Y-144388260D01*
X139975580Y-144388260D01*
X139975580Y-145129250D01*
X140134330Y-145288000D01*
X142233640Y-145288000D01*
X142233640Y-144038320D01*
X142487640Y-144038320D01*
X142487640Y-145288000D01*
X144586950Y-145288000D01*
X144745700Y-145129250D01*
X144745700Y-144388260D01*
X144649027Y-144154871D01*
X144470398Y-143976243D01*
X144237009Y-143879570D01*
X142646390Y-143879570D01*
X142487640Y-144038320D01*
X142233640Y-144038320D01*
X142074890Y-143879570D01*
X140484271Y-143879570D01*
X140250882Y-143976243D01*
X140072253Y-144154871D01*
X139975580Y-144388260D01*
X139135000Y-144388260D01*
X139135000Y-142385000D01*
X150136407Y-142385000D01*
X150500000Y-142312677D01*
X150863593Y-142385000D01*
X152136407Y-142385000D01*
X152500000Y-142312677D01*
X153000000Y-142412133D01*
X153540399Y-142304641D01*
X153998528Y-141998529D01*
X154304641Y-141540400D01*
X154385000Y-141136407D01*
X154385000Y-139863593D01*
X154304641Y-139459600D01*
X153998529Y-139001471D01*
X153935000Y-138959022D01*
X153935000Y-138814017D01*
X153792655Y-138470365D01*
X153529635Y-138207345D01*
X153185983Y-138065000D01*
X153040978Y-138065000D01*
X152998529Y-138001471D01*
X152540400Y-137695359D01*
X152136407Y-137615000D01*
X150863593Y-137615000D01*
X150459600Y-137695359D01*
X150001471Y-138001471D01*
X149695359Y-138459600D01*
X149587867Y-139000000D01*
X149687323Y-139500000D01*
X149664448Y-139615000D01*
X138625000Y-139615000D01*
X138625000Y-135785750D01*
X139865000Y-135785750D01*
X139865000Y-136876310D01*
X139961673Y-137109699D01*
X140140302Y-137288327D01*
X140373691Y-137385000D01*
X142214250Y-137385000D01*
X142373000Y-137226250D01*
X142373000Y-135627000D01*
X142627000Y-135627000D01*
X142627000Y-137226250D01*
X142785750Y-137385000D01*
X144626309Y-137385000D01*
X144859698Y-137288327D01*
X145038327Y-137109699D01*
X145135000Y-136876310D01*
X145135000Y-135785750D01*
X144976250Y-135627000D01*
X142627000Y-135627000D01*
X142373000Y-135627000D01*
X140023750Y-135627000D01*
X139865000Y-135785750D01*
X138625000Y-135785750D01*
X138625000Y-134123690D01*
X139865000Y-134123690D01*
X139865000Y-135214250D01*
X140023750Y-135373000D01*
X142373000Y-135373000D01*
X142373000Y-133773750D01*
X142627000Y-133773750D01*
X142627000Y-135373000D01*
X144976250Y-135373000D01*
X145135000Y-135214250D01*
X145135000Y-134123690D01*
X145038327Y-133890301D01*
X144859698Y-133711673D01*
X144626309Y-133615000D01*
X142785750Y-133615000D01*
X142627000Y-133773750D01*
X142373000Y-133773750D01*
X142214250Y-133615000D01*
X140373691Y-133615000D01*
X140140302Y-133711673D01*
X139961673Y-133890301D01*
X139865000Y-134123690D01*
X138625000Y-134123690D01*
X138625000Y-129825750D01*
X139975580Y-129825750D01*
X139975580Y-130566740D01*
X140072253Y-130800129D01*
X140250882Y-130978757D01*
X140484271Y-131075430D01*
X142074890Y-131075430D01*
X142233640Y-130916680D01*
X142233640Y-129667000D01*
X142487640Y-129667000D01*
X142487640Y-130916680D01*
X142646390Y-131075430D01*
X144237009Y-131075430D01*
X144470398Y-130978757D01*
X144649027Y-130800129D01*
X144745700Y-130566740D01*
X144745700Y-129825750D01*
X144586950Y-129667000D01*
X142487640Y-129667000D01*
X142233640Y-129667000D01*
X140134330Y-129667000D01*
X139975580Y-129825750D01*
X138625000Y-129825750D01*
X138625000Y-128513260D01*
X139975580Y-128513260D01*
X139975580Y-129254250D01*
X140134330Y-129413000D01*
X142233640Y-129413000D01*
X142233640Y-128163320D01*
X142487640Y-128163320D01*
X142487640Y-129413000D01*
X144586950Y-129413000D01*
X144745700Y-129254250D01*
X144745700Y-128639570D01*
X144961860Y-128639570D01*
X144961860Y-130440430D01*
X145011143Y-130688195D01*
X145151491Y-130898239D01*
X145361535Y-131038587D01*
X145475001Y-131061157D01*
X145475000Y-133892748D01*
X145401843Y-134002235D01*
X145352560Y-134250000D01*
X145352560Y-136750000D01*
X145401843Y-136997765D01*
X145542191Y-137207809D01*
X145752235Y-137348157D01*
X146000000Y-137397440D01*
X150000000Y-137397440D01*
X150247765Y-137348157D01*
X150457809Y-137207809D01*
X150598157Y-136997765D01*
X150647440Y-136750000D01*
X150647440Y-134250000D01*
X150598157Y-134002235D01*
X150457809Y-133792191D01*
X150247765Y-133651843D01*
X150000000Y-133602560D01*
X148245000Y-133602560D01*
X148245000Y-132285750D01*
X151065000Y-132285750D01*
X151065000Y-133126309D01*
X151161673Y-133359698D01*
X151340301Y-133538327D01*
X151573690Y-133635000D01*
X152714250Y-133635000D01*
X152873000Y-133476250D01*
X152873000Y-132127000D01*
X153127000Y-132127000D01*
X153127000Y-133476250D01*
X153285750Y-133635000D01*
X154426310Y-133635000D01*
X154659699Y-133538327D01*
X154838327Y-133359698D01*
X154935000Y-133126309D01*
X154935000Y-132285750D01*
X154776250Y-132127000D01*
X153127000Y-132127000D01*
X152873000Y-132127000D01*
X151223750Y-132127000D01*
X151065000Y-132285750D01*
X148245000Y-132285750D01*
X148245000Y-131087870D01*
X149109420Y-131087870D01*
X149357185Y-131038587D01*
X149527179Y-130925000D01*
X151065000Y-130925000D01*
X151065000Y-131714250D01*
X151223750Y-131873000D01*
X152873000Y-131873000D01*
X152873000Y-131853000D01*
X153127000Y-131853000D01*
X153127000Y-131873000D01*
X154776250Y-131873000D01*
X154935000Y-131714250D01*
X154935000Y-130873691D01*
X154838327Y-130640302D01*
X154659699Y-130461673D01*
X154610670Y-130441365D01*
X154840136Y-130097945D01*
X154967031Y-129460000D01*
X154840136Y-128822055D01*
X154478769Y-128281231D01*
X153937945Y-127919864D01*
X153461031Y-127825000D01*
X152538969Y-127825000D01*
X152062055Y-127919864D01*
X151710149Y-128155000D01*
X149527179Y-128155000D01*
X149357185Y-128041413D01*
X149109420Y-127992130D01*
X145609300Y-127992130D01*
X145361535Y-128041413D01*
X145151491Y-128181761D01*
X145011143Y-128391805D01*
X144961860Y-128639570D01*
X144745700Y-128639570D01*
X144745700Y-128513260D01*
X144649027Y-128279871D01*
X144470398Y-128101243D01*
X144237009Y-128004570D01*
X142646390Y-128004570D01*
X142487640Y-128163320D01*
X142233640Y-128163320D01*
X142074890Y-128004570D01*
X140484271Y-128004570D01*
X140250882Y-128101243D01*
X140072253Y-128279871D01*
X139975580Y-128513260D01*
X138625000Y-128513260D01*
X138625000Y-126385000D01*
X150136407Y-126385000D01*
X150500000Y-126312677D01*
X150863593Y-126385000D01*
X152136407Y-126385000D01*
X152500000Y-126312677D01*
X153000000Y-126412133D01*
X153540399Y-126304641D01*
X153998528Y-125998529D01*
X154304641Y-125540400D01*
X154385000Y-125136407D01*
X154385000Y-123863593D01*
X154304641Y-123459600D01*
X153998529Y-123001471D01*
X153935000Y-122959022D01*
X153935000Y-122814017D01*
X153792655Y-122470365D01*
X153529635Y-122207345D01*
X153185983Y-122065000D01*
X153040978Y-122065000D01*
X152998529Y-122001471D01*
X152540400Y-121695359D01*
X152136407Y-121615000D01*
X150863593Y-121615000D01*
X150467128Y-121693861D01*
X150598157Y-121497765D01*
X150647440Y-121250000D01*
X150647440Y-118750000D01*
X150598157Y-118502235D01*
X150457809Y-118292191D01*
X150247765Y-118151843D01*
X150000000Y-118102560D01*
X148245000Y-118102560D01*
X148245000Y-117285750D01*
X151065000Y-117285750D01*
X151065000Y-118126309D01*
X151161673Y-118359698D01*
X151340301Y-118538327D01*
X151573690Y-118635000D01*
X152714250Y-118635000D01*
X152873000Y-118476250D01*
X152873000Y-117127000D01*
X153127000Y-117127000D01*
X153127000Y-118476250D01*
X153285750Y-118635000D01*
X154426310Y-118635000D01*
X154659699Y-118538327D01*
X154838327Y-118359698D01*
X154935000Y-118126309D01*
X154935000Y-117285750D01*
X154776250Y-117127000D01*
X153127000Y-117127000D01*
X152873000Y-117127000D01*
X151223750Y-117127000D01*
X151065000Y-117285750D01*
X148245000Y-117285750D01*
X148245000Y-115847870D01*
X149109420Y-115847870D01*
X149123849Y-115845000D01*
X151076884Y-115845000D01*
X151065000Y-115873691D01*
X151065000Y-116714250D01*
X151223750Y-116873000D01*
X152873000Y-116873000D01*
X152873000Y-116853000D01*
X153127000Y-116853000D01*
X153127000Y-116873000D01*
X154776250Y-116873000D01*
X154935000Y-116714250D01*
X154935000Y-115873691D01*
X154838327Y-115640302D01*
X154659699Y-115461673D01*
X154610670Y-115441365D01*
X154840136Y-115097945D01*
X154967031Y-114460000D01*
X154840136Y-113822055D01*
X154478769Y-113281231D01*
X153937945Y-112919864D01*
X153461031Y-112825000D01*
X152538969Y-112825000D01*
X152062055Y-112919864D01*
X151829878Y-113075000D01*
X149656257Y-113075000D01*
X149567229Y-112941761D01*
X149357185Y-112801413D01*
X149109420Y-112752130D01*
X145609300Y-112752130D01*
X145361535Y-112801413D01*
X145151491Y-112941761D01*
X145011143Y-113151805D01*
X144961860Y-113399570D01*
X144961860Y-115200430D01*
X145011143Y-115448195D01*
X145151491Y-115658239D01*
X145361535Y-115798587D01*
X145475001Y-115821157D01*
X145475000Y-118392748D01*
X145401843Y-118502235D01*
X145352560Y-118750000D01*
X145352560Y-121250000D01*
X145401843Y-121497765D01*
X145542191Y-121707809D01*
X145752235Y-121848157D01*
X146000000Y-121897440D01*
X150000000Y-121897440D01*
X150223782Y-121852927D01*
X150001471Y-122001471D01*
X149695359Y-122459600D01*
X149587867Y-123000000D01*
X149687323Y-123500000D01*
X149664448Y-123615000D01*
X138625000Y-123615000D01*
X138625000Y-120285750D01*
X139865000Y-120285750D01*
X139865000Y-121376310D01*
X139961673Y-121609699D01*
X140140302Y-121788327D01*
X140373691Y-121885000D01*
X142214250Y-121885000D01*
X142373000Y-121726250D01*
X142373000Y-120127000D01*
X142627000Y-120127000D01*
X142627000Y-121726250D01*
X142785750Y-121885000D01*
X144626309Y-121885000D01*
X144859698Y-121788327D01*
X145038327Y-121609699D01*
X145135000Y-121376310D01*
X145135000Y-120285750D01*
X144976250Y-120127000D01*
X142627000Y-120127000D01*
X142373000Y-120127000D01*
X140023750Y-120127000D01*
X139865000Y-120285750D01*
X138625000Y-120285750D01*
X138625000Y-118623690D01*
X139865000Y-118623690D01*
X139865000Y-119714250D01*
X140023750Y-119873000D01*
X142373000Y-119873000D01*
X142373000Y-118273750D01*
X142627000Y-118273750D01*
X142627000Y-119873000D01*
X144976250Y-119873000D01*
X145135000Y-119714250D01*
X145135000Y-118623690D01*
X145038327Y-118390301D01*
X144859698Y-118211673D01*
X144626309Y-118115000D01*
X142785750Y-118115000D01*
X142627000Y-118273750D01*
X142373000Y-118273750D01*
X142214250Y-118115000D01*
X140373691Y-118115000D01*
X140140302Y-118211673D01*
X139961673Y-118390301D01*
X139865000Y-118623690D01*
X138625000Y-118623690D01*
X138625000Y-114585750D01*
X139975580Y-114585750D01*
X139975580Y-115326740D01*
X140072253Y-115560129D01*
X140250882Y-115738757D01*
X140484271Y-115835430D01*
X142074890Y-115835430D01*
X142233640Y-115676680D01*
X142233640Y-114427000D01*
X142487640Y-114427000D01*
X142487640Y-115676680D01*
X142646390Y-115835430D01*
X144237009Y-115835430D01*
X144470398Y-115738757D01*
X144649027Y-115560129D01*
X144745700Y-115326740D01*
X144745700Y-114585750D01*
X144586950Y-114427000D01*
X142487640Y-114427000D01*
X142233640Y-114427000D01*
X140134330Y-114427000D01*
X139975580Y-114585750D01*
X138625000Y-114585750D01*
X138625000Y-113273260D01*
X139975580Y-113273260D01*
X139975580Y-114014250D01*
X140134330Y-114173000D01*
X142233640Y-114173000D01*
X142233640Y-112923320D01*
X142487640Y-112923320D01*
X142487640Y-114173000D01*
X144586950Y-114173000D01*
X144745700Y-114014250D01*
X144745700Y-113273260D01*
X144649027Y-113039871D01*
X144470398Y-112861243D01*
X144237009Y-112764570D01*
X142646390Y-112764570D01*
X142487640Y-112923320D01*
X142233640Y-112923320D01*
X142074890Y-112764570D01*
X140484271Y-112764570D01*
X140250882Y-112861243D01*
X140072253Y-113039871D01*
X139975580Y-113273260D01*
X138625000Y-113273260D01*
X138625000Y-112385000D01*
X150136407Y-112385000D01*
X150500000Y-112312677D01*
X150863593Y-112385000D01*
X152136407Y-112385000D01*
X152500000Y-112312677D01*
X153000000Y-112412133D01*
X153540399Y-112304641D01*
X153998528Y-111998529D01*
X154304641Y-111540400D01*
X154385000Y-111136407D01*
X154385000Y-109863593D01*
X154304641Y-109459600D01*
X153998529Y-109001471D01*
X153935000Y-108959022D01*
X153935000Y-108814017D01*
X153792655Y-108470365D01*
X153529635Y-108207345D01*
X153185983Y-108065000D01*
X153040978Y-108065000D01*
X152998529Y-108001471D01*
X152540400Y-107695359D01*
X152136407Y-107615000D01*
X150863593Y-107615000D01*
X150459600Y-107695359D01*
X150001471Y-108001471D01*
X149695359Y-108459600D01*
X149587867Y-109000000D01*
X149687323Y-109500000D01*
X149664448Y-109615000D01*
X138625000Y-109615000D01*
X138625000Y-105285750D01*
X139865000Y-105285750D01*
X139865000Y-106376310D01*
X139961673Y-106609699D01*
X140140302Y-106788327D01*
X140373691Y-106885000D01*
X142214250Y-106885000D01*
X142373000Y-106726250D01*
X142373000Y-105127000D01*
X142627000Y-105127000D01*
X142627000Y-106726250D01*
X142785750Y-106885000D01*
X144626309Y-106885000D01*
X144859698Y-106788327D01*
X145038327Y-106609699D01*
X145135000Y-106376310D01*
X145135000Y-105285750D01*
X144976250Y-105127000D01*
X142627000Y-105127000D01*
X142373000Y-105127000D01*
X140023750Y-105127000D01*
X139865000Y-105285750D01*
X138625000Y-105285750D01*
X138625000Y-103623690D01*
X139865000Y-103623690D01*
X139865000Y-104714250D01*
X140023750Y-104873000D01*
X142373000Y-104873000D01*
X142373000Y-103273750D01*
X142627000Y-103273750D01*
X142627000Y-104873000D01*
X144976250Y-104873000D01*
X145135000Y-104714250D01*
X145135000Y-103623690D01*
X145038327Y-103390301D01*
X144859698Y-103211673D01*
X144626309Y-103115000D01*
X142785750Y-103115000D01*
X142627000Y-103273750D01*
X142373000Y-103273750D01*
X142214250Y-103115000D01*
X140373691Y-103115000D01*
X140140302Y-103211673D01*
X139961673Y-103390301D01*
X139865000Y-103623690D01*
X138625000Y-103623690D01*
X138625000Y-99345750D01*
X139975580Y-99345750D01*
X139975580Y-100086740D01*
X140072253Y-100320129D01*
X140250882Y-100498757D01*
X140484271Y-100595430D01*
X142074890Y-100595430D01*
X142233640Y-100436680D01*
X142233640Y-99187000D01*
X142487640Y-99187000D01*
X142487640Y-100436680D01*
X142646390Y-100595430D01*
X144237009Y-100595430D01*
X144470398Y-100498757D01*
X144649027Y-100320129D01*
X144745700Y-100086740D01*
X144745700Y-99345750D01*
X144586950Y-99187000D01*
X142487640Y-99187000D01*
X142233640Y-99187000D01*
X140134330Y-99187000D01*
X139975580Y-99345750D01*
X138625000Y-99345750D01*
X138625000Y-98033260D01*
X139975580Y-98033260D01*
X139975580Y-98774250D01*
X140134330Y-98933000D01*
X142233640Y-98933000D01*
X142233640Y-97683320D01*
X142487640Y-97683320D01*
X142487640Y-98933000D01*
X144586950Y-98933000D01*
X144745700Y-98774250D01*
X144745700Y-98159570D01*
X144961860Y-98159570D01*
X144961860Y-99960430D01*
X145011143Y-100208195D01*
X145151491Y-100418239D01*
X145361535Y-100558587D01*
X145475001Y-100581157D01*
X145475000Y-103392748D01*
X145401843Y-103502235D01*
X145352560Y-103750000D01*
X145352560Y-106250000D01*
X145401843Y-106497765D01*
X145542191Y-106707809D01*
X145752235Y-106848157D01*
X146000000Y-106897440D01*
X150000000Y-106897440D01*
X150247765Y-106848157D01*
X150457809Y-106707809D01*
X150598157Y-106497765D01*
X150647440Y-106250000D01*
X150647440Y-103750000D01*
X150598157Y-103502235D01*
X150457809Y-103292191D01*
X150247765Y-103151843D01*
X150000000Y-103102560D01*
X148245000Y-103102560D01*
X148245000Y-102285750D01*
X151065000Y-102285750D01*
X151065000Y-103126309D01*
X151161673Y-103359698D01*
X151340301Y-103538327D01*
X151573690Y-103635000D01*
X152714250Y-103635000D01*
X152873000Y-103476250D01*
X152873000Y-102127000D01*
X153127000Y-102127000D01*
X153127000Y-103476250D01*
X153285750Y-103635000D01*
X154426310Y-103635000D01*
X154659699Y-103538327D01*
X154838327Y-103359698D01*
X154935000Y-103126309D01*
X154935000Y-102285750D01*
X154776250Y-102127000D01*
X153127000Y-102127000D01*
X152873000Y-102127000D01*
X151223750Y-102127000D01*
X151065000Y-102285750D01*
X148245000Y-102285750D01*
X148245000Y-100845000D01*
X151076884Y-100845000D01*
X151065000Y-100873691D01*
X151065000Y-101714250D01*
X151223750Y-101873000D01*
X152873000Y-101873000D01*
X152873000Y-101853000D01*
X153127000Y-101853000D01*
X153127000Y-101873000D01*
X154776250Y-101873000D01*
X154935000Y-101714250D01*
X154935000Y-100873691D01*
X154838327Y-100640302D01*
X154659699Y-100461673D01*
X154610670Y-100441365D01*
X154840136Y-100097945D01*
X154967031Y-99460000D01*
X154840136Y-98822055D01*
X154478769Y-98281231D01*
X153937945Y-97919864D01*
X153461031Y-97825000D01*
X152538969Y-97825000D01*
X152062055Y-97919864D01*
X151829878Y-98075000D01*
X149740038Y-98075000D01*
X149707577Y-97911805D01*
X149567229Y-97701761D01*
X149357185Y-97561413D01*
X149109420Y-97512130D01*
X145609300Y-97512130D01*
X145361535Y-97561413D01*
X145151491Y-97701761D01*
X145011143Y-97911805D01*
X144961860Y-98159570D01*
X144745700Y-98159570D01*
X144745700Y-98033260D01*
X144649027Y-97799871D01*
X144470398Y-97621243D01*
X144237009Y-97524570D01*
X142646390Y-97524570D01*
X142487640Y-97683320D01*
X142233640Y-97683320D01*
X142074890Y-97524570D01*
X140484271Y-97524570D01*
X140250882Y-97621243D01*
X140072253Y-97799871D01*
X139975580Y-98033260D01*
X138625000Y-98033260D01*
X138625000Y-96385000D01*
X150136407Y-96385000D01*
X150500000Y-96312677D01*
X150863593Y-96385000D01*
X152136407Y-96385000D01*
X152500000Y-96312677D01*
X153000000Y-96412133D01*
X153540399Y-96304641D01*
X153998528Y-95998529D01*
X154304641Y-95540400D01*
X154385000Y-95136407D01*
X154385000Y-93863593D01*
X154304641Y-93459600D01*
X153998529Y-93001471D01*
X153935000Y-92959022D01*
X153935000Y-92814017D01*
X153792655Y-92470365D01*
X153529635Y-92207345D01*
X153185983Y-92065000D01*
X153040978Y-92065000D01*
X152998529Y-92001471D01*
X152540400Y-91695359D01*
X152136407Y-91615000D01*
X150863593Y-91615000D01*
X150459600Y-91695359D01*
X150001471Y-92001471D01*
X149695359Y-92459600D01*
X149587867Y-93000000D01*
X149687323Y-93500000D01*
X149664448Y-93615000D01*
X138625000Y-93615000D01*
X138625000Y-89785750D01*
X139865000Y-89785750D01*
X139865000Y-90876310D01*
X139961673Y-91109699D01*
X140140302Y-91288327D01*
X140373691Y-91385000D01*
X142214250Y-91385000D01*
X142373000Y-91226250D01*
X142373000Y-89627000D01*
X142627000Y-89627000D01*
X142627000Y-91226250D01*
X142785750Y-91385000D01*
X144626309Y-91385000D01*
X144859698Y-91288327D01*
X145038327Y-91109699D01*
X145135000Y-90876310D01*
X145135000Y-89785750D01*
X144976250Y-89627000D01*
X142627000Y-89627000D01*
X142373000Y-89627000D01*
X140023750Y-89627000D01*
X139865000Y-89785750D01*
X138625000Y-89785750D01*
X138625000Y-88123690D01*
X139865000Y-88123690D01*
X139865000Y-89214250D01*
X140023750Y-89373000D01*
X142373000Y-89373000D01*
X142373000Y-87773750D01*
X142627000Y-87773750D01*
X142627000Y-89373000D01*
X144976250Y-89373000D01*
X145135000Y-89214250D01*
X145135000Y-88123690D01*
X145038327Y-87890301D01*
X144859698Y-87711673D01*
X144626309Y-87615000D01*
X142785750Y-87615000D01*
X142627000Y-87773750D01*
X142373000Y-87773750D01*
X142214250Y-87615000D01*
X140373691Y-87615000D01*
X140140302Y-87711673D01*
X139961673Y-87890301D01*
X139865000Y-88123690D01*
X138625000Y-88123690D01*
X138625000Y-84285750D01*
X140115580Y-84285750D01*
X140115580Y-85026740D01*
X140212253Y-85260129D01*
X140390882Y-85438757D01*
X140624271Y-85535430D01*
X142214890Y-85535430D01*
X142373640Y-85376680D01*
X142373640Y-84127000D01*
X142627640Y-84127000D01*
X142627640Y-85376680D01*
X142786390Y-85535430D01*
X144377009Y-85535430D01*
X144610398Y-85438757D01*
X144789027Y-85260129D01*
X144885700Y-85026740D01*
X144885700Y-84285750D01*
X144726950Y-84127000D01*
X142627640Y-84127000D01*
X142373640Y-84127000D01*
X140274330Y-84127000D01*
X140115580Y-84285750D01*
X138625000Y-84285750D01*
X138625000Y-82973260D01*
X140115580Y-82973260D01*
X140115580Y-83714250D01*
X140274330Y-83873000D01*
X142373640Y-83873000D01*
X142373640Y-82623320D01*
X142627640Y-82623320D01*
X142627640Y-83873000D01*
X144726950Y-83873000D01*
X144885700Y-83714250D01*
X144885700Y-83099570D01*
X145101860Y-83099570D01*
X145101860Y-84900430D01*
X145151143Y-85148195D01*
X145291491Y-85358239D01*
X145501535Y-85498587D01*
X145615001Y-85521157D01*
X145615000Y-87743541D01*
X145542191Y-87792191D01*
X145401843Y-88002235D01*
X145352560Y-88250000D01*
X145352560Y-90750000D01*
X145401843Y-90997765D01*
X145542191Y-91207809D01*
X145752235Y-91348157D01*
X146000000Y-91397440D01*
X150000000Y-91397440D01*
X150247765Y-91348157D01*
X150457809Y-91207809D01*
X150598157Y-90997765D01*
X150647440Y-90750000D01*
X150647440Y-88250000D01*
X150598157Y-88002235D01*
X150457809Y-87792191D01*
X150247765Y-87651843D01*
X150000000Y-87602560D01*
X148385000Y-87602560D01*
X148385000Y-87285750D01*
X151065000Y-87285750D01*
X151065000Y-88126309D01*
X151161673Y-88359698D01*
X151340301Y-88538327D01*
X151573690Y-88635000D01*
X152714250Y-88635000D01*
X152873000Y-88476250D01*
X152873000Y-87127000D01*
X153127000Y-87127000D01*
X153127000Y-88476250D01*
X153285750Y-88635000D01*
X154426310Y-88635000D01*
X154659699Y-88538327D01*
X154838327Y-88359698D01*
X154935000Y-88126309D01*
X154935000Y-87285750D01*
X154776250Y-87127000D01*
X153127000Y-87127000D01*
X152873000Y-87127000D01*
X151223750Y-87127000D01*
X151065000Y-87285750D01*
X148385000Y-87285750D01*
X148385000Y-85845000D01*
X151076884Y-85845000D01*
X151065000Y-85873691D01*
X151065000Y-86714250D01*
X151223750Y-86873000D01*
X152873000Y-86873000D01*
X152873000Y-86853000D01*
X153127000Y-86853000D01*
X153127000Y-86873000D01*
X154776250Y-86873000D01*
X154935000Y-86714250D01*
X154935000Y-85873691D01*
X154838327Y-85640302D01*
X154659699Y-85461673D01*
X154610670Y-85441365D01*
X154840136Y-85097945D01*
X154967031Y-84460000D01*
X154840136Y-83822055D01*
X154478769Y-83281231D01*
X153937945Y-82919864D01*
X153461031Y-82825000D01*
X152538969Y-82825000D01*
X152062055Y-82919864D01*
X151829878Y-83075000D01*
X149891973Y-83075000D01*
X149847577Y-82851805D01*
X149707229Y-82641761D01*
X149497185Y-82501413D01*
X149249420Y-82452130D01*
X145749300Y-82452130D01*
X145501535Y-82501413D01*
X145291491Y-82641761D01*
X145151143Y-82851805D01*
X145101860Y-83099570D01*
X144885700Y-83099570D01*
X144885700Y-82973260D01*
X144789027Y-82739871D01*
X144610398Y-82561243D01*
X144377009Y-82464570D01*
X142786390Y-82464570D01*
X142627640Y-82623320D01*
X142373640Y-82623320D01*
X142214890Y-82464570D01*
X140624271Y-82464570D01*
X140390882Y-82561243D01*
X140212253Y-82739871D01*
X140115580Y-82973260D01*
X138625000Y-82973260D01*
X138625000Y-82376406D01*
X138652133Y-82240000D01*
X138625000Y-82103593D01*
X138625000Y-82051407D01*
X138652133Y-81915000D01*
X138548699Y-81395000D01*
X148853593Y-81395000D01*
X148990000Y-81422133D01*
X149126407Y-81395000D01*
X149176681Y-81385000D01*
X150136407Y-81385000D01*
X150500000Y-81312677D01*
X150863593Y-81385000D01*
X152136407Y-81385000D01*
X152500000Y-81312677D01*
X153000000Y-81412133D01*
X153540399Y-81304641D01*
X153998528Y-80998529D01*
X154304641Y-80540400D01*
X154385000Y-80136407D01*
X154385000Y-78863593D01*
X154304641Y-78459600D01*
X153998529Y-78001471D01*
X153935000Y-77959022D01*
X153935000Y-77814017D01*
X153792655Y-77470365D01*
X153529635Y-77207345D01*
X153185983Y-77065000D01*
X153040978Y-77065000D01*
X152998529Y-77001471D01*
X152540400Y-76695359D01*
X152136407Y-76615000D01*
X150863593Y-76615000D01*
X150459600Y-76695359D01*
X150001471Y-77001471D01*
X149695359Y-77459600D01*
X149587867Y-78000000D01*
X149687323Y-78500000D01*
X149664448Y-78615000D01*
X149136405Y-78615000D01*
X148999999Y-78587867D01*
X148863593Y-78615000D01*
X148813319Y-78625000D01*
X135583686Y-78625000D01*
X134244436Y-77285750D01*
X136115580Y-77285750D01*
X136115580Y-78026740D01*
X136212253Y-78260129D01*
X136390882Y-78438757D01*
X136624271Y-78535430D01*
X138214890Y-78535430D01*
X138373640Y-78376680D01*
X138373640Y-77127000D01*
X138627640Y-77127000D01*
X138627640Y-78376680D01*
X138786390Y-78535430D01*
X140377009Y-78535430D01*
X140610398Y-78438757D01*
X140789027Y-78260129D01*
X140885700Y-78026740D01*
X140885700Y-77285750D01*
X140726950Y-77127000D01*
X138627640Y-77127000D01*
X138373640Y-77127000D01*
X136274330Y-77127000D01*
X136115580Y-77285750D01*
X134244436Y-77285750D01*
X132931946Y-75973260D01*
X136115580Y-75973260D01*
X136115580Y-76714250D01*
X136274330Y-76873000D01*
X138373640Y-76873000D01*
X138373640Y-75623320D01*
X138627640Y-75623320D01*
X138627640Y-76873000D01*
X140726950Y-76873000D01*
X140885700Y-76714250D01*
X140885700Y-76099570D01*
X141101860Y-76099570D01*
X141101860Y-77900430D01*
X141151143Y-78148195D01*
X141291491Y-78358239D01*
X141501535Y-78498587D01*
X141749300Y-78547870D01*
X145249420Y-78547870D01*
X145497185Y-78498587D01*
X145707229Y-78358239D01*
X145847577Y-78148195D01*
X145896860Y-77900430D01*
X145896860Y-76099570D01*
X145847577Y-75851805D01*
X145707229Y-75641761D01*
X145525000Y-75519999D01*
X145525000Y-74285750D01*
X149065000Y-74285750D01*
X149065000Y-75126309D01*
X149161673Y-75359698D01*
X149340301Y-75538327D01*
X149573690Y-75635000D01*
X150714250Y-75635000D01*
X150873000Y-75476250D01*
X150873000Y-74127000D01*
X151127000Y-74127000D01*
X151127000Y-75476250D01*
X151285750Y-75635000D01*
X152426310Y-75635000D01*
X152659699Y-75538327D01*
X152838327Y-75359698D01*
X152935000Y-75126309D01*
X152935000Y-74285750D01*
X152776250Y-74127000D01*
X151127000Y-74127000D01*
X150873000Y-74127000D01*
X149223750Y-74127000D01*
X149065000Y-74285750D01*
X145525000Y-74285750D01*
X145525000Y-74102440D01*
X146140000Y-74102440D01*
X146387765Y-74053157D01*
X146597809Y-73912809D01*
X146738157Y-73702765D01*
X146787440Y-73455000D01*
X146787440Y-73095000D01*
X149065000Y-73095000D01*
X149065000Y-73714250D01*
X149223750Y-73873000D01*
X150873000Y-73873000D01*
X150873000Y-73853000D01*
X151127000Y-73853000D01*
X151127000Y-73873000D01*
X152776250Y-73873000D01*
X152935000Y-73714250D01*
X152935000Y-72873691D01*
X152838327Y-72640302D01*
X152659699Y-72461673D01*
X152610670Y-72441365D01*
X152840136Y-72097945D01*
X152967031Y-71460000D01*
X152840136Y-70822055D01*
X152478769Y-70281231D01*
X151937945Y-69919864D01*
X151461031Y-69825000D01*
X145046029Y-69825000D01*
X144884999Y-69792969D01*
X144723969Y-69825000D01*
X144247055Y-69919864D01*
X143706231Y-70281231D01*
X143688639Y-70307560D01*
X142140000Y-70307560D01*
X141892235Y-70356843D01*
X141682191Y-70497191D01*
X141541843Y-70707235D01*
X141492560Y-70955000D01*
X141492560Y-73455000D01*
X141541843Y-73702765D01*
X141682191Y-73912809D01*
X141892235Y-74053157D01*
X142140000Y-74102440D01*
X142755000Y-74102440D01*
X142755001Y-75452130D01*
X141749300Y-75452130D01*
X141501535Y-75501413D01*
X141291491Y-75641761D01*
X141151143Y-75851805D01*
X141101860Y-76099570D01*
X140885700Y-76099570D01*
X140885700Y-75973260D01*
X140789027Y-75739871D01*
X140610398Y-75561243D01*
X140377009Y-75464570D01*
X138786390Y-75464570D01*
X138627640Y-75623320D01*
X138373640Y-75623320D01*
X138214890Y-75464570D01*
X136624271Y-75464570D01*
X136390882Y-75561243D01*
X136212253Y-75739871D01*
X136115580Y-75973260D01*
X132931946Y-75973260D01*
X129449436Y-72490750D01*
X136005000Y-72490750D01*
X136005000Y-73581310D01*
X136101673Y-73814699D01*
X136280302Y-73993327D01*
X136513691Y-74090000D01*
X138354250Y-74090000D01*
X138513000Y-73931250D01*
X138513000Y-72332000D01*
X138767000Y-72332000D01*
X138767000Y-73931250D01*
X138925750Y-74090000D01*
X140766309Y-74090000D01*
X140999698Y-73993327D01*
X141178327Y-73814699D01*
X141275000Y-73581310D01*
X141275000Y-72490750D01*
X141116250Y-72332000D01*
X138767000Y-72332000D01*
X138513000Y-72332000D01*
X136163750Y-72332000D01*
X136005000Y-72490750D01*
X129449436Y-72490750D01*
X128075800Y-71117114D01*
X127998529Y-71001471D01*
X127739944Y-70828690D01*
X136005000Y-70828690D01*
X136005000Y-71919250D01*
X136163750Y-72078000D01*
X138513000Y-72078000D01*
X138513000Y-70478750D01*
X138767000Y-70478750D01*
X138767000Y-72078000D01*
X141116250Y-72078000D01*
X141275000Y-71919250D01*
X141275000Y-70828690D01*
X141178327Y-70595301D01*
X140999698Y-70416673D01*
X140766309Y-70320000D01*
X138925750Y-70320000D01*
X138767000Y-70478750D01*
X138513000Y-70478750D01*
X138354250Y-70320000D01*
X136513691Y-70320000D01*
X136280302Y-70416673D01*
X136101673Y-70595301D01*
X136005000Y-70828690D01*
X127739944Y-70828690D01*
X127540400Y-70695359D01*
X127136407Y-70615000D01*
X127000000Y-70587867D01*
X126863593Y-70615000D01*
X113806459Y-70615000D01*
X113757809Y-70542191D01*
X113547765Y-70401843D01*
X113300000Y-70352560D01*
X110700000Y-70352560D01*
X110452235Y-70401843D01*
X110242191Y-70542191D01*
X110101843Y-70752235D01*
X110052560Y-71000000D01*
X107710000Y-71000000D01*
X107710000Y-66540000D01*
X110032969Y-66540000D01*
X110159864Y-67177945D01*
X110521231Y-67718769D01*
X111062055Y-68080136D01*
X111538969Y-68175000D01*
X112461031Y-68175000D01*
X112937945Y-68080136D01*
X113478769Y-67718769D01*
X113840136Y-67177945D01*
X113967031Y-66540000D01*
X113840136Y-65902055D01*
X113609511Y-65556900D01*
X113757809Y-65457809D01*
X113806459Y-65385000D01*
X115352560Y-65385000D01*
X115352560Y-67750000D01*
X115401843Y-67997765D01*
X115542191Y-68207809D01*
X115752235Y-68348157D01*
X116000000Y-68397440D01*
X120000000Y-68397440D01*
X120247765Y-68348157D01*
X120457809Y-68207809D01*
X120598157Y-67997765D01*
X120647440Y-67750000D01*
X120647440Y-66785750D01*
X120865000Y-66785750D01*
X120865000Y-67876310D01*
X120961673Y-68109699D01*
X121140302Y-68288327D01*
X121373691Y-68385000D01*
X123214250Y-68385000D01*
X123373000Y-68226250D01*
X123373000Y-66627000D01*
X123627000Y-66627000D01*
X123627000Y-68226250D01*
X123785750Y-68385000D01*
X125626309Y-68385000D01*
X125859698Y-68288327D01*
X126038327Y-68109699D01*
X126135000Y-67876310D01*
X126135000Y-66785750D01*
X125976250Y-66627000D01*
X123627000Y-66627000D01*
X123373000Y-66627000D01*
X121023750Y-66627000D01*
X120865000Y-66785750D01*
X120647440Y-66785750D01*
X120647440Y-65250000D01*
X120622316Y-65123690D01*
X120865000Y-65123690D01*
X120865000Y-66214250D01*
X121023750Y-66373000D01*
X123373000Y-66373000D01*
X123373000Y-64773750D01*
X123627000Y-64773750D01*
X123627000Y-66373000D01*
X125976250Y-66373000D01*
X126135000Y-66214250D01*
X126135000Y-66038969D01*
X128745000Y-66038969D01*
X128745000Y-66961030D01*
X128839864Y-67437944D01*
X129201231Y-67978769D01*
X129742055Y-68340136D01*
X130380000Y-68467031D01*
X131017944Y-68340136D01*
X131558769Y-67978769D01*
X131650000Y-67842232D01*
X131741231Y-67978769D01*
X132282055Y-68340136D01*
X132920000Y-68467031D01*
X133557944Y-68340136D01*
X134098769Y-67978769D01*
X134190000Y-67842232D01*
X134281231Y-67978769D01*
X134822055Y-68340136D01*
X135460000Y-68467031D01*
X136097944Y-68340136D01*
X136441365Y-68110670D01*
X136461673Y-68159699D01*
X136640302Y-68338327D01*
X136873691Y-68435000D01*
X137714250Y-68435000D01*
X137873000Y-68276250D01*
X137873000Y-66627000D01*
X138127000Y-66627000D01*
X138127000Y-68276250D01*
X138285750Y-68435000D01*
X139126309Y-68435000D01*
X139359698Y-68338327D01*
X139538327Y-68159699D01*
X139635000Y-67926310D01*
X139635000Y-66898121D01*
X150281484Y-66898121D01*
X150506154Y-67272168D01*
X151489388Y-67670880D01*
X152550357Y-67662975D01*
X153493846Y-67272168D01*
X153718516Y-66898121D01*
X152000000Y-65179605D01*
X150281484Y-66898121D01*
X139635000Y-66898121D01*
X139635000Y-66785750D01*
X139476250Y-66627000D01*
X138127000Y-66627000D01*
X137873000Y-66627000D01*
X137853000Y-66627000D01*
X137853000Y-66373000D01*
X137873000Y-66373000D01*
X137873000Y-64723750D01*
X138127000Y-64723750D01*
X138127000Y-66373000D01*
X139476250Y-66373000D01*
X139635000Y-66214250D01*
X139635000Y-65073690D01*
X139538327Y-64840301D01*
X139359698Y-64661673D01*
X139126309Y-64565000D01*
X138285750Y-64565000D01*
X138127000Y-64723750D01*
X137873000Y-64723750D01*
X137714250Y-64565000D01*
X136873691Y-64565000D01*
X136640302Y-64661673D01*
X136461673Y-64840301D01*
X136441365Y-64889330D01*
X136097945Y-64659864D01*
X135460000Y-64532969D01*
X134822056Y-64659864D01*
X134281231Y-65021231D01*
X134190000Y-65157768D01*
X134098769Y-65021231D01*
X133557945Y-64659864D01*
X132920000Y-64532969D01*
X132282056Y-64659864D01*
X131741231Y-65021231D01*
X131650000Y-65157768D01*
X131558769Y-65021231D01*
X131017945Y-64659864D01*
X130380000Y-64532969D01*
X129742056Y-64659864D01*
X129201231Y-65021231D01*
X128839864Y-65562055D01*
X128745000Y-66038969D01*
X126135000Y-66038969D01*
X126135000Y-65123690D01*
X126038327Y-64890301D01*
X125859698Y-64711673D01*
X125626309Y-64615000D01*
X123785750Y-64615000D01*
X123627000Y-64773750D01*
X123373000Y-64773750D01*
X123214250Y-64615000D01*
X121373691Y-64615000D01*
X121140302Y-64711673D01*
X120961673Y-64890301D01*
X120865000Y-65123690D01*
X120622316Y-65123690D01*
X120598157Y-65002235D01*
X120457809Y-64792191D01*
X120247765Y-64651843D01*
X120000000Y-64602560D01*
X119561246Y-64602560D01*
X119448074Y-64489388D01*
X149329120Y-64489388D01*
X149337025Y-65550357D01*
X149727832Y-66493846D01*
X150101879Y-66718516D01*
X151820395Y-65000000D01*
X152179605Y-65000000D01*
X153898121Y-66718516D01*
X154272168Y-66493846D01*
X154670880Y-65510612D01*
X154662975Y-64449643D01*
X154272168Y-63506154D01*
X153898121Y-63281484D01*
X152179605Y-65000000D01*
X151820395Y-65000000D01*
X150101879Y-63281484D01*
X149727832Y-63506154D01*
X149329120Y-64489388D01*
X119448074Y-64489388D01*
X118075799Y-63117114D01*
X118065620Y-63101879D01*
X150281484Y-63101879D01*
X152000000Y-64820395D01*
X153718516Y-63101879D01*
X153493846Y-62727832D01*
X152510612Y-62329120D01*
X151449643Y-62337025D01*
X150506154Y-62727832D01*
X150281484Y-63101879D01*
X118065620Y-63101879D01*
X117998529Y-63001471D01*
X117540400Y-62695359D01*
X117136407Y-62615000D01*
X117000000Y-62587867D01*
X116863593Y-62615000D01*
X113806459Y-62615000D01*
X113757809Y-62542191D01*
X113547765Y-62401843D01*
X113300000Y-62352560D01*
X110700000Y-62352560D01*
X110452235Y-62401843D01*
X110242191Y-62542191D01*
X110101843Y-62752235D01*
X110052560Y-63000000D01*
X110052560Y-65000000D01*
X110101843Y-65247765D01*
X110242191Y-65457809D01*
X110390489Y-65556900D01*
X110159864Y-65902055D01*
X110032969Y-66540000D01*
X107710000Y-66540000D01*
X107710000Y-60710000D01*
X156290000Y-60710000D01*
X156290001Y-159290000D01*
X156290001Y-159290000D01*
G37*
X156290001Y-159290000D02*
X107710000Y-159290000D01*
X107710000Y-156898121D01*
X110281484Y-156898121D01*
X110506154Y-157272168D01*
X111489388Y-157670880D01*
X112550357Y-157662975D01*
X113461056Y-157285750D01*
X117065000Y-157285750D01*
X117065000Y-158126309D01*
X117161673Y-158359698D01*
X117340301Y-158538327D01*
X117573690Y-158635000D01*
X118714250Y-158635000D01*
X118873000Y-158476250D01*
X118873000Y-157127000D01*
X119127000Y-157127000D01*
X119127000Y-158476250D01*
X119285750Y-158635000D01*
X120426310Y-158635000D01*
X120659699Y-158538327D01*
X120838327Y-158359698D01*
X120935000Y-158126309D01*
X120935000Y-157285750D01*
X120776250Y-157127000D01*
X119127000Y-157127000D01*
X118873000Y-157127000D01*
X117223750Y-157127000D01*
X117065000Y-157285750D01*
X113461056Y-157285750D01*
X113493846Y-157272168D01*
X113718516Y-156898121D01*
X112000000Y-155179605D01*
X110281484Y-156898121D01*
X107710000Y-156898121D01*
X107710000Y-154489388D01*
X109329120Y-154489388D01*
X109337025Y-155550357D01*
X109727832Y-156493846D01*
X110101879Y-156718516D01*
X111820395Y-155000000D01*
X112179605Y-155000000D01*
X113898121Y-156718516D01*
X114272168Y-156493846D01*
X114670880Y-155510612D01*
X114662975Y-154449643D01*
X114272168Y-153506154D01*
X113898121Y-153281484D01*
X112179605Y-155000000D01*
X111820395Y-155000000D01*
X110101879Y-153281484D01*
X109727832Y-153506154D01*
X109329120Y-154489388D01*
X107710000Y-154489388D01*
X107710000Y-153101879D01*
X110281484Y-153101879D01*
X112000000Y-154820395D01*
X113718516Y-153101879D01*
X113493846Y-152727832D01*
X112510612Y-152329120D01*
X111449643Y-152337025D01*
X110506154Y-152727832D01*
X110281484Y-153101879D01*
X107710000Y-153101879D01*
X107710000Y-140540000D01*
X110032969Y-140540000D01*
X110159864Y-141177945D01*
X110521231Y-141718769D01*
X110657768Y-141810000D01*
X110521231Y-141901231D01*
X110159864Y-142442055D01*
X110032969Y-143080000D01*
X110159864Y-143717945D01*
X110521231Y-144258769D01*
X111062055Y-144620136D01*
X111538969Y-144715000D01*
X112461031Y-144715000D01*
X112937945Y-144620136D01*
X113478769Y-144258769D01*
X113840136Y-143717945D01*
X113967031Y-143080000D01*
X113840136Y-142442055D01*
X113478769Y-141901231D01*
X113342232Y-141810000D01*
X113478769Y-141718769D01*
X113840136Y-141177945D01*
X113967031Y-140540000D01*
X113840136Y-139902055D01*
X113610670Y-139558635D01*
X113659699Y-139538327D01*
X113838327Y-139359698D01*
X113935000Y-139126309D01*
X113935000Y-138285750D01*
X113776250Y-138127000D01*
X112127000Y-138127000D01*
X112127000Y-138147000D01*
X111873000Y-138147000D01*
X111873000Y-138127000D01*
X110223750Y-138127000D01*
X110065000Y-138285750D01*
X110065000Y-139126309D01*
X110161673Y-139359698D01*
X110340301Y-139538327D01*
X110389330Y-139558635D01*
X110159864Y-139902055D01*
X110032969Y-140540000D01*
X107710000Y-140540000D01*
X107710000Y-136873691D01*
X110065000Y-136873691D01*
X110065000Y-137714250D01*
X110223750Y-137873000D01*
X111873000Y-137873000D01*
X111873000Y-136523750D01*
X112127000Y-136523750D01*
X112127000Y-137873000D01*
X113776250Y-137873000D01*
X113935000Y-137714250D01*
X113935000Y-136873691D01*
X113838327Y-136640302D01*
X113659699Y-136461673D01*
X113426310Y-136365000D01*
X112285750Y-136365000D01*
X112127000Y-136523750D01*
X111873000Y-136523750D01*
X111714250Y-136365000D01*
X110573690Y-136365000D01*
X110340301Y-136461673D01*
X110161673Y-136640302D01*
X110065000Y-136873691D01*
X107710000Y-136873691D01*
X107710000Y-130540000D01*
X110032969Y-130540000D01*
X110159864Y-131177945D01*
X110521231Y-131718769D01*
X110657768Y-131810000D01*
X110521231Y-131901231D01*
X110159864Y-132442055D01*
X110032969Y-133080000D01*
X110159864Y-133717945D01*
X110521231Y-134258769D01*
X111062055Y-134620136D01*
X111538969Y-134715000D01*
X112461031Y-134715000D01*
X112937945Y-134620136D01*
X113478769Y-134258769D01*
X113840136Y-133717945D01*
X113967031Y-133080000D01*
X113840136Y-132442055D01*
X113478769Y-131901231D01*
X113342232Y-131810000D01*
X113478769Y-131718769D01*
X113840136Y-131177945D01*
X113967031Y-130540000D01*
X113840136Y-129902055D01*
X113610670Y-129558635D01*
X113659699Y-129538327D01*
X113838327Y-129359698D01*
X113935000Y-129126309D01*
X113935000Y-128285750D01*
X113776250Y-128127000D01*
X112127000Y-128127000D01*
X112127000Y-128147000D01*
X111873000Y-128147000D01*
X111873000Y-128127000D01*
X110223750Y-128127000D01*
X110065000Y-128285750D01*
X110065000Y-129126309D01*
X110161673Y-129359698D01*
X110340301Y-129538327D01*
X110389330Y-129558635D01*
X110159864Y-129902055D01*
X110032969Y-130540000D01*
X107710000Y-130540000D01*
X107710000Y-126873691D01*
X110065000Y-126873691D01*
X110065000Y-127714250D01*
X110223750Y-127873000D01*
X111873000Y-127873000D01*
X111873000Y-126523750D01*
X112127000Y-126523750D01*
X112127000Y-127873000D01*
X113776250Y-127873000D01*
X113935000Y-127714250D01*
X113935000Y-126873691D01*
X113838327Y-126640302D01*
X113659699Y-126461673D01*
X113426310Y-126365000D01*
X112285750Y-126365000D01*
X112127000Y-126523750D01*
X111873000Y-126523750D01*
X111714250Y-126365000D01*
X110573690Y-126365000D01*
X110340301Y-126461673D01*
X110161673Y-126640302D01*
X110065000Y-126873691D01*
X107710000Y-126873691D01*
X107710000Y-120540000D01*
X110032969Y-120540000D01*
X110159864Y-121177945D01*
X110521231Y-121718769D01*
X110657768Y-121810000D01*
X110521231Y-121901231D01*
X110159864Y-122442055D01*
X110032969Y-123080000D01*
X110159864Y-123717945D01*
X110521231Y-124258769D01*
X111062055Y-124620136D01*
X111538969Y-124715000D01*
X112461031Y-124715000D01*
X112937945Y-124620136D01*
X113478769Y-124258769D01*
X113840136Y-123717945D01*
X113967031Y-123080000D01*
X113840136Y-122442055D01*
X113478769Y-121901231D01*
X113342232Y-121810000D01*
X113478769Y-121718769D01*
X113840136Y-121177945D01*
X113967031Y-120540000D01*
X113840136Y-119902055D01*
X113610670Y-119558635D01*
X113659699Y-119538327D01*
X113838327Y-119359698D01*
X113935000Y-119126309D01*
X113935000Y-118285750D01*
X113776250Y-118127000D01*
X112127000Y-118127000D01*
X112127000Y-118147000D01*
X111873000Y-118147000D01*
X111873000Y-118127000D01*
X110223750Y-118127000D01*
X110065000Y-118285750D01*
X110065000Y-119126309D01*
X110161673Y-119359698D01*
X110340301Y-119538327D01*
X110389330Y-119558635D01*
X110159864Y-119902055D01*
X110032969Y-120540000D01*
X107710000Y-120540000D01*
X107710000Y-116873691D01*
X110065000Y-116873691D01*
X110065000Y-117714250D01*
X110223750Y-117873000D01*
X111873000Y-117873000D01*
X111873000Y-116523750D01*
X112127000Y-116523750D01*
X112127000Y-117873000D01*
X113776250Y-117873000D01*
X113935000Y-117714250D01*
X113935000Y-116873691D01*
X113838327Y-116640302D01*
X113659699Y-116461673D01*
X113426310Y-116365000D01*
X112285750Y-116365000D01*
X112127000Y-116523750D01*
X111873000Y-116523750D01*
X111714250Y-116365000D01*
X110573690Y-116365000D01*
X110340301Y-116461673D01*
X110161673Y-116640302D01*
X110065000Y-116873691D01*
X107710000Y-116873691D01*
X107710000Y-110540000D01*
X110032969Y-110540000D01*
X110159864Y-111177945D01*
X110521231Y-111718769D01*
X110657768Y-111810000D01*
X110521231Y-111901231D01*
X110159864Y-112442055D01*
X110032969Y-113080000D01*
X110159864Y-113717945D01*
X110521231Y-114258769D01*
X111062055Y-114620136D01*
X111538969Y-114715000D01*
X112461031Y-114715000D01*
X112937945Y-114620136D01*
X113478769Y-114258769D01*
X113840136Y-113717945D01*
X113967031Y-113080000D01*
X113840136Y-112442055D01*
X113478769Y-111901231D01*
X113342232Y-111810000D01*
X113478769Y-111718769D01*
X113840136Y-111177945D01*
X113967031Y-110540000D01*
X113840136Y-109902055D01*
X113610670Y-109558635D01*
X113659699Y-109538327D01*
X113838327Y-109359698D01*
X113935000Y-109126309D01*
X113935000Y-108285750D01*
X113776250Y-108127000D01*
X112127000Y-108127000D01*
X112127000Y-108147000D01*
X111873000Y-108147000D01*
X111873000Y-108127000D01*
X110223750Y-108127000D01*
X110065000Y-108285750D01*
X110065000Y-109126309D01*
X110161673Y-109359698D01*
X110340301Y-109538327D01*
X110389330Y-109558635D01*
X110159864Y-109902055D01*
X110032969Y-110540000D01*
X107710000Y-110540000D01*
X107710000Y-106873691D01*
X110065000Y-106873691D01*
X110065000Y-107714250D01*
X110223750Y-107873000D01*
X111873000Y-107873000D01*
X111873000Y-106523750D01*
X112127000Y-106523750D01*
X112127000Y-107873000D01*
X113776250Y-107873000D01*
X113935000Y-107714250D01*
X113935000Y-106873691D01*
X113838327Y-106640302D01*
X113659699Y-106461673D01*
X113426310Y-106365000D01*
X112285750Y-106365000D01*
X112127000Y-106523750D01*
X111873000Y-106523750D01*
X111714250Y-106365000D01*
X110573690Y-106365000D01*
X110340301Y-106461673D01*
X110161673Y-106640302D01*
X110065000Y-106873691D01*
X107710000Y-106873691D01*
X107710000Y-100540000D01*
X110032969Y-100540000D01*
X110159864Y-101177945D01*
X110521231Y-101718769D01*
X110657768Y-101810000D01*
X110521231Y-101901231D01*
X110159864Y-102442055D01*
X110032969Y-103080000D01*
X110159864Y-103717945D01*
X110521231Y-104258769D01*
X111062055Y-104620136D01*
X111538969Y-104715000D01*
X112461031Y-104715000D01*
X112937945Y-104620136D01*
X113478769Y-104258769D01*
X113840136Y-103717945D01*
X113967031Y-103080000D01*
X113840136Y-102442055D01*
X113478769Y-101901231D01*
X113342232Y-101810000D01*
X113478769Y-101718769D01*
X113840136Y-101177945D01*
X113967031Y-100540000D01*
X113925260Y-100330000D01*
X117019134Y-100330000D01*
X117129529Y-100884993D01*
X117443907Y-101355493D01*
X117813851Y-101602681D01*
X117807738Y-101604475D01*
X117373809Y-101954014D01*
X117106673Y-102443004D01*
X117089990Y-102522940D01*
X117212148Y-102743000D01*
X118698000Y-102743000D01*
X118698000Y-102723000D01*
X118952000Y-102723000D01*
X118952000Y-102743000D01*
X118972000Y-102743000D01*
X118972000Y-102997000D01*
X118952000Y-102997000D01*
X118952000Y-103017000D01*
X118698000Y-103017000D01*
X118698000Y-102997000D01*
X117212148Y-102997000D01*
X117089990Y-103217060D01*
X117106673Y-103296996D01*
X117373809Y-103785986D01*
X117807738Y-104135525D01*
X117813851Y-104137319D01*
X117443907Y-104384507D01*
X117129529Y-104855007D01*
X117019134Y-105410000D01*
X117129529Y-105964993D01*
X117443907Y-106435493D01*
X117809838Y-106680000D01*
X117443907Y-106924507D01*
X117129529Y-107395007D01*
X117019134Y-107950000D01*
X117129529Y-108504993D01*
X117443907Y-108975493D01*
X117809838Y-109220000D01*
X117443907Y-109464507D01*
X117129529Y-109935007D01*
X117019134Y-110490000D01*
X117129529Y-111044993D01*
X117443907Y-111515493D01*
X117809838Y-111760000D01*
X117443907Y-112004507D01*
X117129529Y-112475007D01*
X117019134Y-113030000D01*
X117129529Y-113584993D01*
X117443907Y-114055493D01*
X117809838Y-114300000D01*
X117443907Y-114544507D01*
X117129529Y-115015007D01*
X117019134Y-115570000D01*
X117129529Y-116124993D01*
X117443907Y-116595493D01*
X117809838Y-116840000D01*
X117443907Y-117084507D01*
X117129529Y-117555007D01*
X117019134Y-118110000D01*
X117129529Y-118664993D01*
X117443907Y-119135493D01*
X117809838Y-119380000D01*
X117443907Y-119624507D01*
X117129529Y-120095007D01*
X117019134Y-120650000D01*
X117129529Y-121204993D01*
X117443907Y-121675493D01*
X117809838Y-121920000D01*
X117443907Y-122164507D01*
X117129529Y-122635007D01*
X117019134Y-123190000D01*
X117129529Y-123744993D01*
X117443907Y-124215493D01*
X117809838Y-124460000D01*
X117443907Y-124704507D01*
X117129529Y-125175007D01*
X117019134Y-125730000D01*
X117129529Y-126284993D01*
X117443907Y-126755493D01*
X117809838Y-127000000D01*
X117443907Y-127244507D01*
X117129529Y-127715007D01*
X117019134Y-128270000D01*
X117129529Y-128824993D01*
X117443907Y-129295493D01*
X117809838Y-129540000D01*
X117443907Y-129784507D01*
X117129529Y-130255007D01*
X117019134Y-130810000D01*
X117129529Y-131364993D01*
X117443907Y-131835493D01*
X117809838Y-132080000D01*
X117443907Y-132324507D01*
X117129529Y-132795007D01*
X117019134Y-133350000D01*
X117129529Y-133904993D01*
X117443907Y-134375493D01*
X117590404Y-134473379D01*
X117434235Y-134504443D01*
X117224191Y-134644791D01*
X117083843Y-134854835D01*
X117034560Y-135102600D01*
X117034560Y-136677400D01*
X117083843Y-136925165D01*
X117224191Y-137135209D01*
X117434235Y-137275557D01*
X117682000Y-137324840D01*
X119965000Y-137324840D01*
X119965000Y-147857942D01*
X119937945Y-147839864D01*
X119461031Y-147745000D01*
X118538969Y-147745000D01*
X118062055Y-147839864D01*
X117521231Y-148201231D01*
X117159864Y-148742055D01*
X117032969Y-149380000D01*
X117159864Y-150017945D01*
X117521231Y-150558769D01*
X117657768Y-150650000D01*
X117521231Y-150741231D01*
X117159864Y-151282055D01*
X117032969Y-151920000D01*
X117159864Y-152557945D01*
X117521231Y-153098769D01*
X117657768Y-153190000D01*
X117521231Y-153281231D01*
X117159864Y-153822055D01*
X117032969Y-154460000D01*
X117159864Y-155097945D01*
X117389330Y-155441365D01*
X117340301Y-155461673D01*
X117161673Y-155640302D01*
X117065000Y-155873691D01*
X117065000Y-156714250D01*
X117223750Y-156873000D01*
X118873000Y-156873000D01*
X118873000Y-156853000D01*
X119127000Y-156853000D01*
X119127000Y-156873000D01*
X120776250Y-156873000D01*
X120935000Y-156714250D01*
X120935000Y-155873691D01*
X120838327Y-155640302D01*
X120659699Y-155461673D01*
X120610670Y-155441365D01*
X120840136Y-155097945D01*
X120957923Y-154505787D01*
X121177960Y-154285750D01*
X124365000Y-154285750D01*
X124365000Y-155426310D01*
X124461673Y-155659699D01*
X124640302Y-155838327D01*
X124873691Y-155935000D01*
X125714250Y-155935000D01*
X125873000Y-155776250D01*
X125873000Y-154127000D01*
X124523750Y-154127000D01*
X124365000Y-154285750D01*
X121177960Y-154285750D01*
X121659776Y-153803935D01*
X121746193Y-153746193D01*
X121974948Y-153403837D01*
X122035000Y-153101935D01*
X122035000Y-153101934D01*
X122055276Y-153000000D01*
X122035000Y-152898066D01*
X122035000Y-152573690D01*
X124365000Y-152573690D01*
X124365000Y-153714250D01*
X124523750Y-153873000D01*
X125873000Y-153873000D01*
X125873000Y-152223750D01*
X125714250Y-152065000D01*
X124873691Y-152065000D01*
X124640302Y-152161673D01*
X124461673Y-152340301D01*
X124365000Y-152573690D01*
X122035000Y-152573690D01*
X122035000Y-147267035D01*
X122090225Y-147303935D01*
X126851289Y-152065000D01*
X126285750Y-152065000D01*
X126127000Y-152223750D01*
X126127000Y-153873000D01*
X126147000Y-153873000D01*
X126147000Y-154127000D01*
X126127000Y-154127000D01*
X126127000Y-155776250D01*
X126285750Y-155935000D01*
X127126309Y-155935000D01*
X127359698Y-155838327D01*
X127538327Y-155659699D01*
X127558635Y-155610670D01*
X127902056Y-155840136D01*
X128540000Y-155967031D01*
X129177945Y-155840136D01*
X129718769Y-155478769D01*
X129810000Y-155342232D01*
X129901231Y-155478769D01*
X130442056Y-155840136D01*
X131080000Y-155967031D01*
X131717945Y-155840136D01*
X132258769Y-155478769D01*
X132350000Y-155342232D01*
X132441231Y-155478769D01*
X132982056Y-155840136D01*
X133620000Y-155967031D01*
X134257945Y-155840136D01*
X134798769Y-155478769D01*
X135160136Y-154937945D01*
X135255000Y-154461030D01*
X135255000Y-153538969D01*
X135160136Y-153062055D01*
X134798769Y-152521231D01*
X134257944Y-152159864D01*
X133620000Y-152032969D01*
X132982055Y-152159864D01*
X132441231Y-152521231D01*
X132350000Y-152657768D01*
X132258769Y-152521231D01*
X132115000Y-152425168D01*
X132115000Y-151931934D01*
X132135276Y-151830000D01*
X132103530Y-151670399D01*
X132054948Y-151426163D01*
X131826193Y-151083807D01*
X131739776Y-151026065D01*
X125785000Y-145071290D01*
X125785000Y-121898065D01*
X125724948Y-121596163D01*
X125496193Y-121253807D01*
X125153837Y-121025052D01*
X124750000Y-120944724D01*
X124346164Y-121025052D01*
X124003808Y-121253807D01*
X123785000Y-121581276D01*
X123785000Y-116928710D01*
X126053934Y-114659777D01*
X126224948Y-114403837D01*
X126305276Y-114000000D01*
X126224948Y-113596164D01*
X125996192Y-113253808D01*
X125653836Y-113025052D01*
X125250000Y-112944724D01*
X124846163Y-113025052D01*
X124590223Y-113196066D01*
X122090227Y-115696063D01*
X122003807Y-115753807D01*
X121922724Y-115875157D01*
X121775052Y-116096164D01*
X121694724Y-116500000D01*
X121715000Y-116601934D01*
X121715000Y-117732965D01*
X121659773Y-117696063D01*
X121413937Y-117450227D01*
X121356193Y-117363807D01*
X121013837Y-117135052D01*
X120711935Y-117075000D01*
X120711934Y-117075000D01*
X120610000Y-117054724D01*
X120508066Y-117075000D01*
X120191865Y-117075000D01*
X119840162Y-116840000D01*
X120206093Y-116595493D01*
X120520471Y-116124993D01*
X120630866Y-115570000D01*
X120520471Y-115015007D01*
X120206093Y-114544507D01*
X119840162Y-114300000D01*
X120206093Y-114055493D01*
X120520471Y-113584993D01*
X120630866Y-113030000D01*
X120520471Y-112475007D01*
X120206093Y-112004507D01*
X119840162Y-111760000D01*
X120206093Y-111515493D01*
X120520471Y-111044993D01*
X120630866Y-110490000D01*
X120520471Y-109935007D01*
X120206093Y-109464507D01*
X119840162Y-109220000D01*
X120206093Y-108975493D01*
X120520471Y-108504993D01*
X120630866Y-107950000D01*
X120520471Y-107395007D01*
X120206093Y-106924507D01*
X119840162Y-106680000D01*
X120206093Y-106435493D01*
X120520471Y-105964993D01*
X120630866Y-105410000D01*
X120520471Y-104855007D01*
X120302426Y-104528679D01*
X120340227Y-104553937D01*
X122090223Y-106303934D01*
X122346163Y-106474948D01*
X122750000Y-106555276D01*
X123153836Y-106474948D01*
X123496193Y-106246193D01*
X123724948Y-105903836D01*
X123802111Y-105515913D01*
X124000000Y-105555276D01*
X124403837Y-105474948D01*
X124746193Y-105246193D01*
X124974948Y-104903837D01*
X125035000Y-104601935D01*
X125035000Y-94678710D01*
X129553934Y-90159777D01*
X129724947Y-89903837D01*
X129805275Y-89500001D01*
X129724947Y-89096164D01*
X129496192Y-88753808D01*
X129153836Y-88525053D01*
X128749999Y-88444725D01*
X128346163Y-88525053D01*
X128090223Y-88696066D01*
X123340227Y-93446063D01*
X123253807Y-93503807D01*
X123046532Y-93814017D01*
X123025052Y-93846164D01*
X122944724Y-94250000D01*
X122965000Y-94351934D01*
X122965001Y-104251290D01*
X122035000Y-103321290D01*
X122035000Y-89678710D01*
X128553934Y-83159777D01*
X128724948Y-82903837D01*
X128805276Y-82500000D01*
X128724948Y-82096164D01*
X128496193Y-81753807D01*
X128153836Y-81525052D01*
X127750000Y-81444724D01*
X127346163Y-81525052D01*
X127090223Y-81696066D01*
X120340225Y-88446065D01*
X120253808Y-88503807D01*
X120196066Y-88590224D01*
X120025052Y-88846164D01*
X119944724Y-89250000D01*
X119965001Y-89351939D01*
X119965000Y-99143414D01*
X119735593Y-98990129D01*
X119320692Y-98907600D01*
X118329308Y-98907600D01*
X117914407Y-98990129D01*
X117443907Y-99304507D01*
X117129529Y-99775007D01*
X117019134Y-100330000D01*
X113925260Y-100330000D01*
X113840136Y-99902055D01*
X113610670Y-99558635D01*
X113659699Y-99538327D01*
X113838327Y-99359698D01*
X113935000Y-99126309D01*
X113935000Y-98285750D01*
X113776250Y-98127000D01*
X112127000Y-98127000D01*
X112127000Y-98147000D01*
X111873000Y-98147000D01*
X111873000Y-98127000D01*
X110223750Y-98127000D01*
X110065000Y-98285750D01*
X110065000Y-99126309D01*
X110161673Y-99359698D01*
X110340301Y-99538327D01*
X110389330Y-99558635D01*
X110159864Y-99902055D01*
X110032969Y-100540000D01*
X107710000Y-100540000D01*
X107710000Y-96873691D01*
X110065000Y-96873691D01*
X110065000Y-97714250D01*
X110223750Y-97873000D01*
X111873000Y-97873000D01*
X111873000Y-96523750D01*
X112127000Y-96523750D01*
X112127000Y-97873000D01*
X113776250Y-97873000D01*
X113935000Y-97714250D01*
X113935000Y-96873691D01*
X113838327Y-96640302D01*
X113659699Y-96461673D01*
X113426310Y-96365000D01*
X112285750Y-96365000D01*
X112127000Y-96523750D01*
X111873000Y-96523750D01*
X111714250Y-96365000D01*
X110573690Y-96365000D01*
X110340301Y-96461673D01*
X110161673Y-96640302D01*
X110065000Y-96873691D01*
X107710000Y-96873691D01*
X107710000Y-90540000D01*
X110032969Y-90540000D01*
X110159864Y-91177945D01*
X110521231Y-91718769D01*
X110657768Y-91810000D01*
X110521231Y-91901231D01*
X110159864Y-92442055D01*
X110032969Y-93080000D01*
X110159864Y-93717945D01*
X110521231Y-94258769D01*
X111062055Y-94620136D01*
X111538969Y-94715000D01*
X112461031Y-94715000D01*
X112937945Y-94620136D01*
X113478769Y-94258769D01*
X113840136Y-93717945D01*
X113967031Y-93080000D01*
X113840136Y-92442055D01*
X113478769Y-91901231D01*
X113342232Y-91810000D01*
X113478769Y-91718769D01*
X113840136Y-91177945D01*
X113967031Y-90540000D01*
X113840136Y-89902055D01*
X113610670Y-89558635D01*
X113659699Y-89538327D01*
X113838327Y-89359698D01*
X113935000Y-89126309D01*
X113935000Y-88285750D01*
X113776250Y-88127000D01*
X112127000Y-88127000D01*
X112127000Y-88147000D01*
X111873000Y-88147000D01*
X111873000Y-88127000D01*
X110223750Y-88127000D01*
X110065000Y-88285750D01*
X110065000Y-89126309D01*
X110161673Y-89359698D01*
X110340301Y-89538327D01*
X110389330Y-89558635D01*
X110159864Y-89902055D01*
X110032969Y-90540000D01*
X107710000Y-90540000D01*
X107710000Y-86873691D01*
X110065000Y-86873691D01*
X110065000Y-87714250D01*
X110223750Y-87873000D01*
X111873000Y-87873000D01*
X111873000Y-86523750D01*
X112127000Y-86523750D01*
X112127000Y-87873000D01*
X113776250Y-87873000D01*
X113935000Y-87714250D01*
X113935000Y-86873691D01*
X113838327Y-86640302D01*
X113659699Y-86461673D01*
X113426310Y-86365000D01*
X112285750Y-86365000D01*
X112127000Y-86523750D01*
X111873000Y-86523750D01*
X111714250Y-86365000D01*
X110573690Y-86365000D01*
X110340301Y-86461673D01*
X110161673Y-86640302D01*
X110065000Y-86873691D01*
X107710000Y-86873691D01*
X107710000Y-82920434D01*
X110109876Y-82920434D01*
X110140856Y-83048355D01*
X110454078Y-83606317D01*
X110956980Y-84001942D01*
X111573000Y-84175000D01*
X111873000Y-84175000D01*
X111873000Y-82667000D01*
X112127000Y-82667000D01*
X112127000Y-84175000D01*
X112427000Y-84175000D01*
X113043020Y-84001942D01*
X113545922Y-83606317D01*
X113859144Y-83048355D01*
X113890124Y-82920434D01*
X113770777Y-82667000D01*
X112127000Y-82667000D01*
X111873000Y-82667000D01*
X110229223Y-82667000D01*
X110109876Y-82920434D01*
X107710000Y-82920434D01*
X107710000Y-79000000D01*
X110052560Y-79000000D01*
X110052560Y-81000000D01*
X110101843Y-81247765D01*
X110242191Y-81457809D01*
X110402760Y-81565099D01*
X110140856Y-82031645D01*
X110109876Y-82159566D01*
X110229223Y-82413000D01*
X111873000Y-82413000D01*
X111873000Y-82393000D01*
X112127000Y-82393000D01*
X112127000Y-82413000D01*
X113770777Y-82413000D01*
X113890124Y-82159566D01*
X113859144Y-82031645D01*
X113597240Y-81565099D01*
X113757809Y-81457809D01*
X113898157Y-81247765D01*
X113947440Y-81000000D01*
X113947440Y-79000000D01*
X113898157Y-78752235D01*
X113757809Y-78542191D01*
X113547765Y-78401843D01*
X113300000Y-78352560D01*
X110700000Y-78352560D01*
X110452235Y-78401843D01*
X110242191Y-78542191D01*
X110101843Y-78752235D01*
X110052560Y-79000000D01*
X107710000Y-79000000D01*
X107710000Y-74920434D01*
X110109876Y-74920434D01*
X110140856Y-75048355D01*
X110454078Y-75606317D01*
X110956980Y-76001942D01*
X111573000Y-76175000D01*
X111873000Y-76175000D01*
X111873000Y-74667000D01*
X112127000Y-74667000D01*
X112127000Y-76175000D01*
X112427000Y-76175000D01*
X113043020Y-76001942D01*
X113545922Y-75606317D01*
X113859144Y-75048355D01*
X113890124Y-74920434D01*
X113770777Y-74667000D01*
X112127000Y-74667000D01*
X111873000Y-74667000D01*
X110229223Y-74667000D01*
X110109876Y-74920434D01*
X107710000Y-74920434D01*
X107710000Y-71000000D01*
X110052560Y-71000000D01*
X110052560Y-73000000D01*
X110101843Y-73247765D01*
X110242191Y-73457809D01*
X110402760Y-73565099D01*
X110140856Y-74031645D01*
X110109876Y-74159566D01*
X110229223Y-74413000D01*
X111873000Y-74413000D01*
X111873000Y-74393000D01*
X112127000Y-74393000D01*
X112127000Y-74413000D01*
X113770777Y-74413000D01*
X113890124Y-74159566D01*
X113859144Y-74031645D01*
X113597240Y-73565099D01*
X113757809Y-73457809D01*
X113806459Y-73385000D01*
X126426315Y-73385000D01*
X135855000Y-82813686D01*
X135855001Y-87493589D01*
X135855000Y-87493594D01*
X135855001Y-94220679D01*
X135695359Y-94459600D01*
X135587867Y-95000000D01*
X135695359Y-95540400D01*
X135855000Y-95779320D01*
X135855001Y-100250240D01*
X135760471Y-99775007D01*
X135446093Y-99304507D01*
X134975593Y-98990129D01*
X134560692Y-98907600D01*
X133569308Y-98907600D01*
X133154407Y-98990129D01*
X132683907Y-99304507D01*
X132369529Y-99775007D01*
X132259134Y-100330000D01*
X132369529Y-100884993D01*
X132683907Y-101355493D01*
X133049838Y-101600000D01*
X132683907Y-101844507D01*
X132369529Y-102315007D01*
X132259134Y-102870000D01*
X132369529Y-103424993D01*
X132683907Y-103895493D01*
X133049838Y-104140000D01*
X132683907Y-104384507D01*
X132369529Y-104855007D01*
X132259134Y-105410000D01*
X132369529Y-105964993D01*
X132683907Y-106435493D01*
X133053851Y-106682681D01*
X133047738Y-106684475D01*
X132613809Y-107034014D01*
X132346673Y-107523004D01*
X132329990Y-107602940D01*
X132452148Y-107823000D01*
X133938000Y-107823000D01*
X133938000Y-107803000D01*
X134192000Y-107803000D01*
X134192000Y-107823000D01*
X135677852Y-107823000D01*
X135800010Y-107602940D01*
X135783327Y-107523004D01*
X135516191Y-107034014D01*
X135082262Y-106684475D01*
X135076149Y-106682681D01*
X135446093Y-106435493D01*
X135760471Y-105964993D01*
X135855000Y-105489762D01*
X135855001Y-110220679D01*
X135825945Y-110264165D01*
X135760471Y-109935007D01*
X135446093Y-109464507D01*
X135076149Y-109217319D01*
X135082262Y-109215525D01*
X135516191Y-108865986D01*
X135783327Y-108376996D01*
X135800010Y-108297060D01*
X135677852Y-108077000D01*
X134192000Y-108077000D01*
X134192000Y-108097000D01*
X133938000Y-108097000D01*
X133938000Y-108077000D01*
X132452148Y-108077000D01*
X132329990Y-108297060D01*
X132346673Y-108376996D01*
X132613809Y-108865986D01*
X133047738Y-109215525D01*
X133053851Y-109217319D01*
X132683907Y-109464507D01*
X132369529Y-109935007D01*
X132259134Y-110490000D01*
X132369529Y-111044993D01*
X132683907Y-111515493D01*
X133049838Y-111760000D01*
X132683907Y-112004507D01*
X132369529Y-112475007D01*
X132259134Y-113030000D01*
X132369529Y-113584993D01*
X132683907Y-114055493D01*
X133049838Y-114300000D01*
X132683907Y-114544507D01*
X132369529Y-115015007D01*
X132259134Y-115570000D01*
X132369529Y-116124993D01*
X132683907Y-116595493D01*
X133049838Y-116840000D01*
X132683907Y-117084507D01*
X132369529Y-117555007D01*
X132259134Y-118110000D01*
X132369529Y-118664993D01*
X132683907Y-119135493D01*
X133049838Y-119380000D01*
X132683907Y-119624507D01*
X132369529Y-120095007D01*
X132259134Y-120650000D01*
X132369529Y-121204993D01*
X132683907Y-121675493D01*
X133049838Y-121920000D01*
X132683907Y-122164507D01*
X132369529Y-122635007D01*
X132259134Y-123190000D01*
X132369529Y-123744993D01*
X132683907Y-124215493D01*
X133049838Y-124460000D01*
X132683907Y-124704507D01*
X132369529Y-125175007D01*
X132259134Y-125730000D01*
X132369529Y-126284993D01*
X132683907Y-126755493D01*
X133049838Y-127000000D01*
X132683907Y-127244507D01*
X132369529Y-127715007D01*
X132259134Y-128270000D01*
X132369529Y-128824993D01*
X132683907Y-129295493D01*
X133049838Y-129540000D01*
X132683907Y-129784507D01*
X132369529Y-130255007D01*
X132259134Y-130810000D01*
X132369529Y-131364993D01*
X132683907Y-131835493D01*
X133049838Y-132080000D01*
X132683907Y-132324507D01*
X132369529Y-132795007D01*
X132259134Y-133350000D01*
X132369529Y-133904993D01*
X132683907Y-134375493D01*
X133049838Y-134620000D01*
X132683907Y-134864507D01*
X132369529Y-135335007D01*
X132259134Y-135890000D01*
X132369529Y-136444993D01*
X132683907Y-136915493D01*
X133154407Y-137229871D01*
X133569308Y-137312400D01*
X134560692Y-137312400D01*
X134975593Y-137229871D01*
X135446093Y-136915493D01*
X135760471Y-136444993D01*
X135855000Y-135969763D01*
X135855001Y-140863588D01*
X135827867Y-141000000D01*
X135865000Y-141186681D01*
X135865001Y-152088965D01*
X135832969Y-152250000D01*
X135930377Y-152739699D01*
X135959865Y-152887945D01*
X136321232Y-153428769D01*
X136457748Y-153519986D01*
X139480014Y-156542253D01*
X139571231Y-156678769D01*
X140112055Y-157040136D01*
X140588969Y-157135000D01*
X140749999Y-157167031D01*
X140911029Y-157135000D01*
X144409550Y-157135000D01*
X144459864Y-157387945D01*
X144821231Y-157928769D01*
X145362055Y-158290136D01*
X145838969Y-158385000D01*
X149338969Y-158385000D01*
X149500000Y-158417031D01*
X149661031Y-158385000D01*
X151838969Y-158385000D01*
X152000000Y-158417031D01*
X152161031Y-158385000D01*
X152637945Y-158290136D01*
X153178769Y-157928769D01*
X153540136Y-157387945D01*
X153667031Y-156750000D01*
X153635000Y-156588969D01*
X153635000Y-151838969D01*
X153540136Y-151362055D01*
X153178769Y-150821231D01*
X152637945Y-150459864D01*
X152000000Y-150332969D01*
X151362056Y-150459864D01*
X150821232Y-150821231D01*
X150647440Y-151081329D01*
X150647440Y-149750000D01*
X150598157Y-149502235D01*
X150457809Y-149292191D01*
X150247765Y-149151843D01*
X150000000Y-149102560D01*
X148245000Y-149102560D01*
X148245000Y-148285750D01*
X151065000Y-148285750D01*
X151065000Y-149126309D01*
X151161673Y-149359698D01*
X151340301Y-149538327D01*
X151573690Y-149635000D01*
X152714250Y-149635000D01*
X152873000Y-149476250D01*
X152873000Y-148127000D01*
X153127000Y-148127000D01*
X153127000Y-149476250D01*
X153285750Y-149635000D01*
X154426310Y-149635000D01*
X154659699Y-149538327D01*
X154838327Y-149359698D01*
X154935000Y-149126309D01*
X154935000Y-148285750D01*
X154776250Y-148127000D01*
X153127000Y-148127000D01*
X152873000Y-148127000D01*
X151223750Y-148127000D01*
X151065000Y-148285750D01*
X148245000Y-148285750D01*
X148245000Y-146962870D01*
X149109420Y-146962870D01*
X149357185Y-146913587D01*
X149459832Y-146845000D01*
X151076884Y-146845000D01*
X151065000Y-146873691D01*
X151065000Y-147714250D01*
X151223750Y-147873000D01*
X152873000Y-147873000D01*
X152873000Y-147853000D01*
X153127000Y-147853000D01*
X153127000Y-147873000D01*
X154776250Y-147873000D01*
X154935000Y-147714250D01*
X154935000Y-146873691D01*
X154838327Y-146640302D01*
X154659699Y-146461673D01*
X154610670Y-146441365D01*
X154840136Y-146097945D01*
X154967031Y-145460000D01*
X154840136Y-144822055D01*
X154478769Y-144281231D01*
X153937945Y-143919864D01*
X153461031Y-143825000D01*
X152538969Y-143825000D01*
X152062055Y-143919864D01*
X151829878Y-144075000D01*
X149579416Y-144075000D01*
X149567229Y-144056761D01*
X149357185Y-143916413D01*
X149109420Y-143867130D01*
X145609300Y-143867130D01*
X145361535Y-143916413D01*
X145151491Y-144056761D01*
X145011143Y-144266805D01*
X144961860Y-144514570D01*
X144961860Y-146315430D01*
X145011143Y-146563195D01*
X145151491Y-146773239D01*
X145361535Y-146913587D01*
X145475001Y-146936157D01*
X145475000Y-149392748D01*
X145401843Y-149502235D01*
X145398262Y-149520236D01*
X145219698Y-149341673D01*
X144986309Y-149245000D01*
X143145750Y-149245000D01*
X142987000Y-149403750D01*
X142987000Y-151003000D01*
X143007000Y-151003000D01*
X143007000Y-151257000D01*
X142987000Y-151257000D01*
X142987000Y-152856250D01*
X143145750Y-153015000D01*
X144986309Y-153015000D01*
X145219698Y-152918327D01*
X145398327Y-152739699D01*
X145461535Y-152587100D01*
X145542191Y-152707809D01*
X145752235Y-152848157D01*
X146000000Y-152897440D01*
X147942881Y-152897440D01*
X147865001Y-153288970D01*
X147865001Y-153865000D01*
X141427239Y-153865000D01*
X139135000Y-151572762D01*
X139135000Y-151415750D01*
X140225000Y-151415750D01*
X140225000Y-152506310D01*
X140321673Y-152739699D01*
X140500302Y-152918327D01*
X140733691Y-153015000D01*
X142574250Y-153015000D01*
X142733000Y-152856250D01*
X142733000Y-151257000D01*
X140383750Y-151257000D01*
X140225000Y-151415750D01*
X139135000Y-151415750D01*
X139135000Y-149753690D01*
X140225000Y-149753690D01*
X140225000Y-150844250D01*
X140383750Y-151003000D01*
X142733000Y-151003000D01*
X142733000Y-149403750D01*
X142574250Y-149245000D01*
X140733691Y-149245000D01*
X140500302Y-149341673D01*
X140321673Y-149520301D01*
X140225000Y-149753690D01*
X139135000Y-149753690D01*
X139135000Y-145700750D01*
X139975580Y-145700750D01*
X139975580Y-146441740D01*
X140072253Y-146675129D01*
X140250882Y-146853757D01*
X140484271Y-146950430D01*
X142074890Y-146950430D01*
X142233640Y-146791680D01*
X142233640Y-145542000D01*
X142487640Y-145542000D01*
X142487640Y-146791680D01*
X142646390Y-146950430D01*
X144237009Y-146950430D01*
X144470398Y-146853757D01*
X144649027Y-146675129D01*
X144745700Y-146441740D01*
X144745700Y-145700750D01*
X144586950Y-145542000D01*
X142487640Y-145542000D01*
X142233640Y-145542000D01*
X140134330Y-145542000D01*
X139975580Y-145700750D01*
X139135000Y-145700750D01*
X139135000Y-144388260D01*
X139975580Y-144388260D01*
X139975580Y-145129250D01*
X140134330Y-145288000D01*
X142233640Y-145288000D01*
X142233640Y-144038320D01*
X142487640Y-144038320D01*
X142487640Y-145288000D01*
X144586950Y-145288000D01*
X144745700Y-145129250D01*
X144745700Y-144388260D01*
X144649027Y-144154871D01*
X144470398Y-143976243D01*
X144237009Y-143879570D01*
X142646390Y-143879570D01*
X142487640Y-144038320D01*
X142233640Y-144038320D01*
X142074890Y-143879570D01*
X140484271Y-143879570D01*
X140250882Y-143976243D01*
X140072253Y-144154871D01*
X139975580Y-144388260D01*
X139135000Y-144388260D01*
X139135000Y-142385000D01*
X150136407Y-142385000D01*
X150500000Y-142312677D01*
X150863593Y-142385000D01*
X152136407Y-142385000D01*
X152500000Y-142312677D01*
X153000000Y-142412133D01*
X153540399Y-142304641D01*
X153998528Y-141998529D01*
X154304641Y-141540400D01*
X154385000Y-141136407D01*
X154385000Y-139863593D01*
X154304641Y-139459600D01*
X153998529Y-139001471D01*
X153935000Y-138959022D01*
X153935000Y-138814017D01*
X153792655Y-138470365D01*
X153529635Y-138207345D01*
X153185983Y-138065000D01*
X153040978Y-138065000D01*
X152998529Y-138001471D01*
X152540400Y-137695359D01*
X152136407Y-137615000D01*
X150863593Y-137615000D01*
X150459600Y-137695359D01*
X150001471Y-138001471D01*
X149695359Y-138459600D01*
X149587867Y-139000000D01*
X149687323Y-139500000D01*
X149664448Y-139615000D01*
X138625000Y-139615000D01*
X138625000Y-135785750D01*
X139865000Y-135785750D01*
X139865000Y-136876310D01*
X139961673Y-137109699D01*
X140140302Y-137288327D01*
X140373691Y-137385000D01*
X142214250Y-137385000D01*
X142373000Y-137226250D01*
X142373000Y-135627000D01*
X142627000Y-135627000D01*
X142627000Y-137226250D01*
X142785750Y-137385000D01*
X144626309Y-137385000D01*
X144859698Y-137288327D01*
X145038327Y-137109699D01*
X145135000Y-136876310D01*
X145135000Y-135785750D01*
X144976250Y-135627000D01*
X142627000Y-135627000D01*
X142373000Y-135627000D01*
X140023750Y-135627000D01*
X139865000Y-135785750D01*
X138625000Y-135785750D01*
X138625000Y-134123690D01*
X139865000Y-134123690D01*
X139865000Y-135214250D01*
X140023750Y-135373000D01*
X142373000Y-135373000D01*
X142373000Y-133773750D01*
X142627000Y-133773750D01*
X142627000Y-135373000D01*
X144976250Y-135373000D01*
X145135000Y-135214250D01*
X145135000Y-134123690D01*
X145038327Y-133890301D01*
X144859698Y-133711673D01*
X144626309Y-133615000D01*
X142785750Y-133615000D01*
X142627000Y-133773750D01*
X142373000Y-133773750D01*
X142214250Y-133615000D01*
X140373691Y-133615000D01*
X140140302Y-133711673D01*
X139961673Y-133890301D01*
X139865000Y-134123690D01*
X138625000Y-134123690D01*
X138625000Y-129825750D01*
X139975580Y-129825750D01*
X139975580Y-130566740D01*
X140072253Y-130800129D01*
X140250882Y-130978757D01*
X140484271Y-131075430D01*
X142074890Y-131075430D01*
X142233640Y-130916680D01*
X142233640Y-129667000D01*
X142487640Y-129667000D01*
X142487640Y-130916680D01*
X142646390Y-131075430D01*
X144237009Y-131075430D01*
X144470398Y-130978757D01*
X144649027Y-130800129D01*
X144745700Y-130566740D01*
X144745700Y-129825750D01*
X144586950Y-129667000D01*
X142487640Y-129667000D01*
X142233640Y-129667000D01*
X140134330Y-129667000D01*
X139975580Y-129825750D01*
X138625000Y-129825750D01*
X138625000Y-128513260D01*
X139975580Y-128513260D01*
X139975580Y-129254250D01*
X140134330Y-129413000D01*
X142233640Y-129413000D01*
X142233640Y-128163320D01*
X142487640Y-128163320D01*
X142487640Y-129413000D01*
X144586950Y-129413000D01*
X144745700Y-129254250D01*
X144745700Y-128639570D01*
X144961860Y-128639570D01*
X144961860Y-130440430D01*
X145011143Y-130688195D01*
X145151491Y-130898239D01*
X145361535Y-131038587D01*
X145475001Y-131061157D01*
X145475000Y-133892748D01*
X145401843Y-134002235D01*
X145352560Y-134250000D01*
X145352560Y-136750000D01*
X145401843Y-136997765D01*
X145542191Y-137207809D01*
X145752235Y-137348157D01*
X146000000Y-137397440D01*
X150000000Y-137397440D01*
X150247765Y-137348157D01*
X150457809Y-137207809D01*
X150598157Y-136997765D01*
X150647440Y-136750000D01*
X150647440Y-134250000D01*
X150598157Y-134002235D01*
X150457809Y-133792191D01*
X150247765Y-133651843D01*
X150000000Y-133602560D01*
X148245000Y-133602560D01*
X148245000Y-132285750D01*
X151065000Y-132285750D01*
X151065000Y-133126309D01*
X151161673Y-133359698D01*
X151340301Y-133538327D01*
X151573690Y-133635000D01*
X152714250Y-133635000D01*
X152873000Y-133476250D01*
X152873000Y-132127000D01*
X153127000Y-132127000D01*
X153127000Y-133476250D01*
X153285750Y-133635000D01*
X154426310Y-133635000D01*
X154659699Y-133538327D01*
X154838327Y-133359698D01*
X154935000Y-133126309D01*
X154935000Y-132285750D01*
X154776250Y-132127000D01*
X153127000Y-132127000D01*
X152873000Y-132127000D01*
X151223750Y-132127000D01*
X151065000Y-132285750D01*
X148245000Y-132285750D01*
X148245000Y-131087870D01*
X149109420Y-131087870D01*
X149357185Y-131038587D01*
X149527179Y-130925000D01*
X151065000Y-130925000D01*
X151065000Y-131714250D01*
X151223750Y-131873000D01*
X152873000Y-131873000D01*
X152873000Y-131853000D01*
X153127000Y-131853000D01*
X153127000Y-131873000D01*
X154776250Y-131873000D01*
X154935000Y-131714250D01*
X154935000Y-130873691D01*
X154838327Y-130640302D01*
X154659699Y-130461673D01*
X154610670Y-130441365D01*
X154840136Y-130097945D01*
X154967031Y-129460000D01*
X154840136Y-128822055D01*
X154478769Y-128281231D01*
X153937945Y-127919864D01*
X153461031Y-127825000D01*
X152538969Y-127825000D01*
X152062055Y-127919864D01*
X151710149Y-128155000D01*
X149527179Y-128155000D01*
X149357185Y-128041413D01*
X149109420Y-127992130D01*
X145609300Y-127992130D01*
X145361535Y-128041413D01*
X145151491Y-128181761D01*
X145011143Y-128391805D01*
X144961860Y-128639570D01*
X144745700Y-128639570D01*
X144745700Y-128513260D01*
X144649027Y-128279871D01*
X144470398Y-128101243D01*
X144237009Y-128004570D01*
X142646390Y-128004570D01*
X142487640Y-128163320D01*
X142233640Y-128163320D01*
X142074890Y-128004570D01*
X140484271Y-128004570D01*
X140250882Y-128101243D01*
X140072253Y-128279871D01*
X139975580Y-128513260D01*
X138625000Y-128513260D01*
X138625000Y-126385000D01*
X150136407Y-126385000D01*
X150500000Y-126312677D01*
X150863593Y-126385000D01*
X152136407Y-126385000D01*
X152500000Y-126312677D01*
X153000000Y-126412133D01*
X153540399Y-126304641D01*
X153998528Y-125998529D01*
X154304641Y-125540400D01*
X154385000Y-125136407D01*
X154385000Y-123863593D01*
X154304641Y-123459600D01*
X153998529Y-123001471D01*
X153935000Y-122959022D01*
X153935000Y-122814017D01*
X153792655Y-122470365D01*
X153529635Y-122207345D01*
X153185983Y-122065000D01*
X153040978Y-122065000D01*
X152998529Y-122001471D01*
X152540400Y-121695359D01*
X152136407Y-121615000D01*
X150863593Y-121615000D01*
X150467128Y-121693861D01*
X150598157Y-121497765D01*
X150647440Y-121250000D01*
X150647440Y-118750000D01*
X150598157Y-118502235D01*
X150457809Y-118292191D01*
X150247765Y-118151843D01*
X150000000Y-118102560D01*
X148245000Y-118102560D01*
X148245000Y-117285750D01*
X151065000Y-117285750D01*
X151065000Y-118126309D01*
X151161673Y-118359698D01*
X151340301Y-118538327D01*
X151573690Y-118635000D01*
X152714250Y-118635000D01*
X152873000Y-118476250D01*
X152873000Y-117127000D01*
X153127000Y-117127000D01*
X153127000Y-118476250D01*
X153285750Y-118635000D01*
X154426310Y-118635000D01*
X154659699Y-118538327D01*
X154838327Y-118359698D01*
X154935000Y-118126309D01*
X154935000Y-117285750D01*
X154776250Y-117127000D01*
X153127000Y-117127000D01*
X152873000Y-117127000D01*
X151223750Y-117127000D01*
X151065000Y-117285750D01*
X148245000Y-117285750D01*
X148245000Y-115847870D01*
X149109420Y-115847870D01*
X149123849Y-115845000D01*
X151076884Y-115845000D01*
X151065000Y-115873691D01*
X151065000Y-116714250D01*
X151223750Y-116873000D01*
X152873000Y-116873000D01*
X152873000Y-116853000D01*
X153127000Y-116853000D01*
X153127000Y-116873000D01*
X154776250Y-116873000D01*
X154935000Y-116714250D01*
X154935000Y-115873691D01*
X154838327Y-115640302D01*
X154659699Y-115461673D01*
X154610670Y-115441365D01*
X154840136Y-115097945D01*
X154967031Y-114460000D01*
X154840136Y-113822055D01*
X154478769Y-113281231D01*
X153937945Y-112919864D01*
X153461031Y-112825000D01*
X152538969Y-112825000D01*
X152062055Y-112919864D01*
X151829878Y-113075000D01*
X149656257Y-113075000D01*
X149567229Y-112941761D01*
X149357185Y-112801413D01*
X149109420Y-112752130D01*
X145609300Y-112752130D01*
X145361535Y-112801413D01*
X145151491Y-112941761D01*
X145011143Y-113151805D01*
X144961860Y-113399570D01*
X144961860Y-115200430D01*
X145011143Y-115448195D01*
X145151491Y-115658239D01*
X145361535Y-115798587D01*
X145475001Y-115821157D01*
X145475000Y-118392748D01*
X145401843Y-118502235D01*
X145352560Y-118750000D01*
X145352560Y-121250000D01*
X145401843Y-121497765D01*
X145542191Y-121707809D01*
X145752235Y-121848157D01*
X146000000Y-121897440D01*
X150000000Y-121897440D01*
X150223782Y-121852927D01*
X150001471Y-122001471D01*
X149695359Y-122459600D01*
X149587867Y-123000000D01*
X149687323Y-123500000D01*
X149664448Y-123615000D01*
X138625000Y-123615000D01*
X138625000Y-120285750D01*
X139865000Y-120285750D01*
X139865000Y-121376310D01*
X139961673Y-121609699D01*
X140140302Y-121788327D01*
X140373691Y-121885000D01*
X142214250Y-121885000D01*
X142373000Y-121726250D01*
X142373000Y-120127000D01*
X142627000Y-120127000D01*
X142627000Y-121726250D01*
X142785750Y-121885000D01*
X144626309Y-121885000D01*
X144859698Y-121788327D01*
X145038327Y-121609699D01*
X145135000Y-121376310D01*
X145135000Y-120285750D01*
X144976250Y-120127000D01*
X142627000Y-120127000D01*
X142373000Y-120127000D01*
X140023750Y-120127000D01*
X139865000Y-120285750D01*
X138625000Y-120285750D01*
X138625000Y-118623690D01*
X139865000Y-118623690D01*
X139865000Y-119714250D01*
X140023750Y-119873000D01*
X142373000Y-119873000D01*
X142373000Y-118273750D01*
X142627000Y-118273750D01*
X142627000Y-119873000D01*
X144976250Y-119873000D01*
X145135000Y-119714250D01*
X145135000Y-118623690D01*
X145038327Y-118390301D01*
X144859698Y-118211673D01*
X144626309Y-118115000D01*
X142785750Y-118115000D01*
X142627000Y-118273750D01*
X142373000Y-118273750D01*
X142214250Y-118115000D01*
X140373691Y-118115000D01*
X140140302Y-118211673D01*
X139961673Y-118390301D01*
X139865000Y-118623690D01*
X138625000Y-118623690D01*
X138625000Y-114585750D01*
X139975580Y-114585750D01*
X139975580Y-115326740D01*
X140072253Y-115560129D01*
X140250882Y-115738757D01*
X140484271Y-115835430D01*
X142074890Y-115835430D01*
X142233640Y-115676680D01*
X142233640Y-114427000D01*
X142487640Y-114427000D01*
X142487640Y-115676680D01*
X142646390Y-115835430D01*
X144237009Y-115835430D01*
X144470398Y-115738757D01*
X144649027Y-115560129D01*
X144745700Y-115326740D01*
X144745700Y-114585750D01*
X144586950Y-114427000D01*
X142487640Y-114427000D01*
X142233640Y-114427000D01*
X140134330Y-114427000D01*
X139975580Y-114585750D01*
X138625000Y-114585750D01*
X138625000Y-113273260D01*
X139975580Y-113273260D01*
X139975580Y-114014250D01*
X140134330Y-114173000D01*
X142233640Y-114173000D01*
X142233640Y-112923320D01*
X142487640Y-112923320D01*
X142487640Y-114173000D01*
X144586950Y-114173000D01*
X144745700Y-114014250D01*
X144745700Y-113273260D01*
X144649027Y-113039871D01*
X144470398Y-112861243D01*
X144237009Y-112764570D01*
X142646390Y-112764570D01*
X142487640Y-112923320D01*
X142233640Y-112923320D01*
X142074890Y-112764570D01*
X140484271Y-112764570D01*
X140250882Y-112861243D01*
X140072253Y-113039871D01*
X139975580Y-113273260D01*
X138625000Y-113273260D01*
X138625000Y-112385000D01*
X150136407Y-112385000D01*
X150500000Y-112312677D01*
X150863593Y-112385000D01*
X152136407Y-112385000D01*
X152500000Y-112312677D01*
X153000000Y-112412133D01*
X153540399Y-112304641D01*
X153998528Y-111998529D01*
X154304641Y-111540400D01*
X154385000Y-111136407D01*
X154385000Y-109863593D01*
X154304641Y-109459600D01*
X153998529Y-109001471D01*
X153935000Y-108959022D01*
X153935000Y-108814017D01*
X153792655Y-108470365D01*
X153529635Y-108207345D01*
X153185983Y-108065000D01*
X153040978Y-108065000D01*
X152998529Y-108001471D01*
X152540400Y-107695359D01*
X152136407Y-107615000D01*
X150863593Y-107615000D01*
X150459600Y-107695359D01*
X150001471Y-108001471D01*
X149695359Y-108459600D01*
X149587867Y-109000000D01*
X149687323Y-109500000D01*
X149664448Y-109615000D01*
X138625000Y-109615000D01*
X138625000Y-105285750D01*
X139865000Y-105285750D01*
X139865000Y-106376310D01*
X139961673Y-106609699D01*
X140140302Y-106788327D01*
X140373691Y-106885000D01*
X142214250Y-106885000D01*
X142373000Y-106726250D01*
X142373000Y-105127000D01*
X142627000Y-105127000D01*
X142627000Y-106726250D01*
X142785750Y-106885000D01*
X144626309Y-106885000D01*
X144859698Y-106788327D01*
X145038327Y-106609699D01*
X145135000Y-106376310D01*
X145135000Y-105285750D01*
X144976250Y-105127000D01*
X142627000Y-105127000D01*
X142373000Y-105127000D01*
X140023750Y-105127000D01*
X139865000Y-105285750D01*
X138625000Y-105285750D01*
X138625000Y-103623690D01*
X139865000Y-103623690D01*
X139865000Y-104714250D01*
X140023750Y-104873000D01*
X142373000Y-104873000D01*
X142373000Y-103273750D01*
X142627000Y-103273750D01*
X142627000Y-104873000D01*
X144976250Y-104873000D01*
X145135000Y-104714250D01*
X145135000Y-103623690D01*
X145038327Y-103390301D01*
X144859698Y-103211673D01*
X144626309Y-103115000D01*
X142785750Y-103115000D01*
X142627000Y-103273750D01*
X142373000Y-103273750D01*
X142214250Y-103115000D01*
X140373691Y-103115000D01*
X140140302Y-103211673D01*
X139961673Y-103390301D01*
X139865000Y-103623690D01*
X138625000Y-103623690D01*
X138625000Y-99345750D01*
X139975580Y-99345750D01*
X139975580Y-100086740D01*
X140072253Y-100320129D01*
X140250882Y-100498757D01*
X140484271Y-100595430D01*
X142074890Y-100595430D01*
X142233640Y-100436680D01*
X142233640Y-99187000D01*
X142487640Y-99187000D01*
X142487640Y-100436680D01*
X142646390Y-100595430D01*
X144237009Y-100595430D01*
X144470398Y-100498757D01*
X144649027Y-100320129D01*
X144745700Y-100086740D01*
X144745700Y-99345750D01*
X144586950Y-99187000D01*
X142487640Y-99187000D01*
X142233640Y-99187000D01*
X140134330Y-99187000D01*
X139975580Y-99345750D01*
X138625000Y-99345750D01*
X138625000Y-98033260D01*
X139975580Y-98033260D01*
X139975580Y-98774250D01*
X140134330Y-98933000D01*
X142233640Y-98933000D01*
X142233640Y-97683320D01*
X142487640Y-97683320D01*
X142487640Y-98933000D01*
X144586950Y-98933000D01*
X144745700Y-98774250D01*
X144745700Y-98159570D01*
X144961860Y-98159570D01*
X144961860Y-99960430D01*
X145011143Y-100208195D01*
X145151491Y-100418239D01*
X145361535Y-100558587D01*
X145475001Y-100581157D01*
X145475000Y-103392748D01*
X145401843Y-103502235D01*
X145352560Y-103750000D01*
X145352560Y-106250000D01*
X145401843Y-106497765D01*
X145542191Y-106707809D01*
X145752235Y-106848157D01*
X146000000Y-106897440D01*
X150000000Y-106897440D01*
X150247765Y-106848157D01*
X150457809Y-106707809D01*
X150598157Y-106497765D01*
X150647440Y-106250000D01*
X150647440Y-103750000D01*
X150598157Y-103502235D01*
X150457809Y-103292191D01*
X150247765Y-103151843D01*
X150000000Y-103102560D01*
X148245000Y-103102560D01*
X148245000Y-102285750D01*
X151065000Y-102285750D01*
X151065000Y-103126309D01*
X151161673Y-103359698D01*
X151340301Y-103538327D01*
X151573690Y-103635000D01*
X152714250Y-103635000D01*
X152873000Y-103476250D01*
X152873000Y-102127000D01*
X153127000Y-102127000D01*
X153127000Y-103476250D01*
X153285750Y-103635000D01*
X154426310Y-103635000D01*
X154659699Y-103538327D01*
X154838327Y-103359698D01*
X154935000Y-103126309D01*
X154935000Y-102285750D01*
X154776250Y-102127000D01*
X153127000Y-102127000D01*
X152873000Y-102127000D01*
X151223750Y-102127000D01*
X151065000Y-102285750D01*
X148245000Y-102285750D01*
X148245000Y-100845000D01*
X151076884Y-100845000D01*
X151065000Y-100873691D01*
X151065000Y-101714250D01*
X151223750Y-101873000D01*
X152873000Y-101873000D01*
X152873000Y-101853000D01*
X153127000Y-101853000D01*
X153127000Y-101873000D01*
X154776250Y-101873000D01*
X154935000Y-101714250D01*
X154935000Y-100873691D01*
X154838327Y-100640302D01*
X154659699Y-100461673D01*
X154610670Y-100441365D01*
X154840136Y-100097945D01*
X154967031Y-99460000D01*
X154840136Y-98822055D01*
X154478769Y-98281231D01*
X153937945Y-97919864D01*
X153461031Y-97825000D01*
X152538969Y-97825000D01*
X152062055Y-97919864D01*
X151829878Y-98075000D01*
X149740038Y-98075000D01*
X149707577Y-97911805D01*
X149567229Y-97701761D01*
X149357185Y-97561413D01*
X149109420Y-97512130D01*
X145609300Y-97512130D01*
X145361535Y-97561413D01*
X145151491Y-97701761D01*
X145011143Y-97911805D01*
X144961860Y-98159570D01*
X144745700Y-98159570D01*
X144745700Y-98033260D01*
X144649027Y-97799871D01*
X144470398Y-97621243D01*
X144237009Y-97524570D01*
X142646390Y-97524570D01*
X142487640Y-97683320D01*
X142233640Y-97683320D01*
X142074890Y-97524570D01*
X140484271Y-97524570D01*
X140250882Y-97621243D01*
X140072253Y-97799871D01*
X139975580Y-98033260D01*
X138625000Y-98033260D01*
X138625000Y-96385000D01*
X150136407Y-96385000D01*
X150500000Y-96312677D01*
X150863593Y-96385000D01*
X152136407Y-96385000D01*
X152500000Y-96312677D01*
X153000000Y-96412133D01*
X153540399Y-96304641D01*
X153998528Y-95998529D01*
X154304641Y-95540400D01*
X154385000Y-95136407D01*
X154385000Y-93863593D01*
X154304641Y-93459600D01*
X153998529Y-93001471D01*
X153935000Y-92959022D01*
X153935000Y-92814017D01*
X153792655Y-92470365D01*
X153529635Y-92207345D01*
X153185983Y-92065000D01*
X153040978Y-92065000D01*
X152998529Y-92001471D01*
X152540400Y-91695359D01*
X152136407Y-91615000D01*
X150863593Y-91615000D01*
X150459600Y-91695359D01*
X150001471Y-92001471D01*
X149695359Y-92459600D01*
X149587867Y-93000000D01*
X149687323Y-93500000D01*
X149664448Y-93615000D01*
X138625000Y-93615000D01*
X138625000Y-89785750D01*
X139865000Y-89785750D01*
X139865000Y-90876310D01*
X139961673Y-91109699D01*
X140140302Y-91288327D01*
X140373691Y-91385000D01*
X142214250Y-91385000D01*
X142373000Y-91226250D01*
X142373000Y-89627000D01*
X142627000Y-89627000D01*
X142627000Y-91226250D01*
X142785750Y-91385000D01*
X144626309Y-91385000D01*
X144859698Y-91288327D01*
X145038327Y-91109699D01*
X145135000Y-90876310D01*
X145135000Y-89785750D01*
X144976250Y-89627000D01*
X142627000Y-89627000D01*
X142373000Y-89627000D01*
X140023750Y-89627000D01*
X139865000Y-89785750D01*
X138625000Y-89785750D01*
X138625000Y-88123690D01*
X139865000Y-88123690D01*
X139865000Y-89214250D01*
X140023750Y-89373000D01*
X142373000Y-89373000D01*
X142373000Y-87773750D01*
X142627000Y-87773750D01*
X142627000Y-89373000D01*
X144976250Y-89373000D01*
X145135000Y-89214250D01*
X145135000Y-88123690D01*
X145038327Y-87890301D01*
X144859698Y-87711673D01*
X144626309Y-87615000D01*
X142785750Y-87615000D01*
X142627000Y-87773750D01*
X142373000Y-87773750D01*
X142214250Y-87615000D01*
X140373691Y-87615000D01*
X140140302Y-87711673D01*
X139961673Y-87890301D01*
X139865000Y-88123690D01*
X138625000Y-88123690D01*
X138625000Y-84285750D01*
X140115580Y-84285750D01*
X140115580Y-85026740D01*
X140212253Y-85260129D01*
X140390882Y-85438757D01*
X140624271Y-85535430D01*
X142214890Y-85535430D01*
X142373640Y-85376680D01*
X142373640Y-84127000D01*
X142627640Y-84127000D01*
X142627640Y-85376680D01*
X142786390Y-85535430D01*
X144377009Y-85535430D01*
X144610398Y-85438757D01*
X144789027Y-85260129D01*
X144885700Y-85026740D01*
X144885700Y-84285750D01*
X144726950Y-84127000D01*
X142627640Y-84127000D01*
X142373640Y-84127000D01*
X140274330Y-84127000D01*
X140115580Y-84285750D01*
X138625000Y-84285750D01*
X138625000Y-82973260D01*
X140115580Y-82973260D01*
X140115580Y-83714250D01*
X140274330Y-83873000D01*
X142373640Y-83873000D01*
X142373640Y-82623320D01*
X142627640Y-82623320D01*
X142627640Y-83873000D01*
X144726950Y-83873000D01*
X144885700Y-83714250D01*
X144885700Y-83099570D01*
X145101860Y-83099570D01*
X145101860Y-84900430D01*
X145151143Y-85148195D01*
X145291491Y-85358239D01*
X145501535Y-85498587D01*
X145615001Y-85521157D01*
X145615000Y-87743541D01*
X145542191Y-87792191D01*
X145401843Y-88002235D01*
X145352560Y-88250000D01*
X145352560Y-90750000D01*
X145401843Y-90997765D01*
X145542191Y-91207809D01*
X145752235Y-91348157D01*
X146000000Y-91397440D01*
X150000000Y-91397440D01*
X150247765Y-91348157D01*
X150457809Y-91207809D01*
X150598157Y-90997765D01*
X150647440Y-90750000D01*
X150647440Y-88250000D01*
X150598157Y-88002235D01*
X150457809Y-87792191D01*
X150247765Y-87651843D01*
X150000000Y-87602560D01*
X148385000Y-87602560D01*
X148385000Y-87285750D01*
X151065000Y-87285750D01*
X151065000Y-88126309D01*
X151161673Y-88359698D01*
X151340301Y-88538327D01*
X151573690Y-88635000D01*
X152714250Y-88635000D01*
X152873000Y-88476250D01*
X152873000Y-87127000D01*
X153127000Y-87127000D01*
X153127000Y-88476250D01*
X153285750Y-88635000D01*
X154426310Y-88635000D01*
X154659699Y-88538327D01*
X154838327Y-88359698D01*
X154935000Y-88126309D01*
X154935000Y-87285750D01*
X154776250Y-87127000D01*
X153127000Y-87127000D01*
X152873000Y-87127000D01*
X151223750Y-87127000D01*
X151065000Y-87285750D01*
X148385000Y-87285750D01*
X148385000Y-85845000D01*
X151076884Y-85845000D01*
X151065000Y-85873691D01*
X151065000Y-86714250D01*
X151223750Y-86873000D01*
X152873000Y-86873000D01*
X152873000Y-86853000D01*
X153127000Y-86853000D01*
X153127000Y-86873000D01*
X154776250Y-86873000D01*
X154935000Y-86714250D01*
X154935000Y-85873691D01*
X154838327Y-85640302D01*
X154659699Y-85461673D01*
X154610670Y-85441365D01*
X154840136Y-85097945D01*
X154967031Y-84460000D01*
X154840136Y-83822055D01*
X154478769Y-83281231D01*
X153937945Y-82919864D01*
X153461031Y-82825000D01*
X152538969Y-82825000D01*
X152062055Y-82919864D01*
X151829878Y-83075000D01*
X149891973Y-83075000D01*
X149847577Y-82851805D01*
X149707229Y-82641761D01*
X149497185Y-82501413D01*
X149249420Y-82452130D01*
X145749300Y-82452130D01*
X145501535Y-82501413D01*
X145291491Y-82641761D01*
X145151143Y-82851805D01*
X145101860Y-83099570D01*
X144885700Y-83099570D01*
X144885700Y-82973260D01*
X144789027Y-82739871D01*
X144610398Y-82561243D01*
X144377009Y-82464570D01*
X142786390Y-82464570D01*
X142627640Y-82623320D01*
X142373640Y-82623320D01*
X142214890Y-82464570D01*
X140624271Y-82464570D01*
X140390882Y-82561243D01*
X140212253Y-82739871D01*
X140115580Y-82973260D01*
X138625000Y-82973260D01*
X138625000Y-82376406D01*
X138652133Y-82240000D01*
X138625000Y-82103593D01*
X138625000Y-82051407D01*
X138652133Y-81915000D01*
X138548699Y-81395000D01*
X148853593Y-81395000D01*
X148990000Y-81422133D01*
X149126407Y-81395000D01*
X149176681Y-81385000D01*
X150136407Y-81385000D01*
X150500000Y-81312677D01*
X150863593Y-81385000D01*
X152136407Y-81385000D01*
X152500000Y-81312677D01*
X153000000Y-81412133D01*
X153540399Y-81304641D01*
X153998528Y-80998529D01*
X154304641Y-80540400D01*
X154385000Y-80136407D01*
X154385000Y-78863593D01*
X154304641Y-78459600D01*
X153998529Y-78001471D01*
X153935000Y-77959022D01*
X153935000Y-77814017D01*
X153792655Y-77470365D01*
X153529635Y-77207345D01*
X153185983Y-77065000D01*
X153040978Y-77065000D01*
X152998529Y-77001471D01*
X152540400Y-76695359D01*
X152136407Y-76615000D01*
X150863593Y-76615000D01*
X150459600Y-76695359D01*
X150001471Y-77001471D01*
X149695359Y-77459600D01*
X149587867Y-78000000D01*
X149687323Y-78500000D01*
X149664448Y-78615000D01*
X149136405Y-78615000D01*
X148999999Y-78587867D01*
X148863593Y-78615000D01*
X148813319Y-78625000D01*
X135583686Y-78625000D01*
X134244436Y-77285750D01*
X136115580Y-77285750D01*
X136115580Y-78026740D01*
X136212253Y-78260129D01*
X136390882Y-78438757D01*
X136624271Y-78535430D01*
X138214890Y-78535430D01*
X138373640Y-78376680D01*
X138373640Y-77127000D01*
X138627640Y-77127000D01*
X138627640Y-78376680D01*
X138786390Y-78535430D01*
X140377009Y-78535430D01*
X140610398Y-78438757D01*
X140789027Y-78260129D01*
X140885700Y-78026740D01*
X140885700Y-77285750D01*
X140726950Y-77127000D01*
X138627640Y-77127000D01*
X138373640Y-77127000D01*
X136274330Y-77127000D01*
X136115580Y-77285750D01*
X134244436Y-77285750D01*
X132931946Y-75973260D01*
X136115580Y-75973260D01*
X136115580Y-76714250D01*
X136274330Y-76873000D01*
X138373640Y-76873000D01*
X138373640Y-75623320D01*
X138627640Y-75623320D01*
X138627640Y-76873000D01*
X140726950Y-76873000D01*
X140885700Y-76714250D01*
X140885700Y-76099570D01*
X141101860Y-76099570D01*
X141101860Y-77900430D01*
X141151143Y-78148195D01*
X141291491Y-78358239D01*
X141501535Y-78498587D01*
X141749300Y-78547870D01*
X145249420Y-78547870D01*
X145497185Y-78498587D01*
X145707229Y-78358239D01*
X145847577Y-78148195D01*
X145896860Y-77900430D01*
X145896860Y-76099570D01*
X145847577Y-75851805D01*
X145707229Y-75641761D01*
X145525000Y-75519999D01*
X145525000Y-74285750D01*
X149065000Y-74285750D01*
X149065000Y-75126309D01*
X149161673Y-75359698D01*
X149340301Y-75538327D01*
X149573690Y-75635000D01*
X150714250Y-75635000D01*
X150873000Y-75476250D01*
X150873000Y-74127000D01*
X151127000Y-74127000D01*
X151127000Y-75476250D01*
X151285750Y-75635000D01*
X152426310Y-75635000D01*
X152659699Y-75538327D01*
X152838327Y-75359698D01*
X152935000Y-75126309D01*
X152935000Y-74285750D01*
X152776250Y-74127000D01*
X151127000Y-74127000D01*
X150873000Y-74127000D01*
X149223750Y-74127000D01*
X149065000Y-74285750D01*
X145525000Y-74285750D01*
X145525000Y-74102440D01*
X146140000Y-74102440D01*
X146387765Y-74053157D01*
X146597809Y-73912809D01*
X146738157Y-73702765D01*
X146787440Y-73455000D01*
X146787440Y-73095000D01*
X149065000Y-73095000D01*
X149065000Y-73714250D01*
X149223750Y-73873000D01*
X150873000Y-73873000D01*
X150873000Y-73853000D01*
X151127000Y-73853000D01*
X151127000Y-73873000D01*
X152776250Y-73873000D01*
X152935000Y-73714250D01*
X152935000Y-72873691D01*
X152838327Y-72640302D01*
X152659699Y-72461673D01*
X152610670Y-72441365D01*
X152840136Y-72097945D01*
X152967031Y-71460000D01*
X152840136Y-70822055D01*
X152478769Y-70281231D01*
X151937945Y-69919864D01*
X151461031Y-69825000D01*
X145046029Y-69825000D01*
X144884999Y-69792969D01*
X144723969Y-69825000D01*
X144247055Y-69919864D01*
X143706231Y-70281231D01*
X143688639Y-70307560D01*
X142140000Y-70307560D01*
X141892235Y-70356843D01*
X141682191Y-70497191D01*
X141541843Y-70707235D01*
X141492560Y-70955000D01*
X141492560Y-73455000D01*
X141541843Y-73702765D01*
X141682191Y-73912809D01*
X141892235Y-74053157D01*
X142140000Y-74102440D01*
X142755000Y-74102440D01*
X142755001Y-75452130D01*
X141749300Y-75452130D01*
X141501535Y-75501413D01*
X141291491Y-75641761D01*
X141151143Y-75851805D01*
X141101860Y-76099570D01*
X140885700Y-76099570D01*
X140885700Y-75973260D01*
X140789027Y-75739871D01*
X140610398Y-75561243D01*
X140377009Y-75464570D01*
X138786390Y-75464570D01*
X138627640Y-75623320D01*
X138373640Y-75623320D01*
X138214890Y-75464570D01*
X136624271Y-75464570D01*
X136390882Y-75561243D01*
X136212253Y-75739871D01*
X136115580Y-75973260D01*
X132931946Y-75973260D01*
X129449436Y-72490750D01*
X136005000Y-72490750D01*
X136005000Y-73581310D01*
X136101673Y-73814699D01*
X136280302Y-73993327D01*
X136513691Y-74090000D01*
X138354250Y-74090000D01*
X138513000Y-73931250D01*
X138513000Y-72332000D01*
X138767000Y-72332000D01*
X138767000Y-73931250D01*
X138925750Y-74090000D01*
X140766309Y-74090000D01*
X140999698Y-73993327D01*
X141178327Y-73814699D01*
X141275000Y-73581310D01*
X141275000Y-72490750D01*
X141116250Y-72332000D01*
X138767000Y-72332000D01*
X138513000Y-72332000D01*
X136163750Y-72332000D01*
X136005000Y-72490750D01*
X129449436Y-72490750D01*
X128075800Y-71117114D01*
X127998529Y-71001471D01*
X127739944Y-70828690D01*
X136005000Y-70828690D01*
X136005000Y-71919250D01*
X136163750Y-72078000D01*
X138513000Y-72078000D01*
X138513000Y-70478750D01*
X138767000Y-70478750D01*
X138767000Y-72078000D01*
X141116250Y-72078000D01*
X141275000Y-71919250D01*
X141275000Y-70828690D01*
X141178327Y-70595301D01*
X140999698Y-70416673D01*
X140766309Y-70320000D01*
X138925750Y-70320000D01*
X138767000Y-70478750D01*
X138513000Y-70478750D01*
X138354250Y-70320000D01*
X136513691Y-70320000D01*
X136280302Y-70416673D01*
X136101673Y-70595301D01*
X136005000Y-70828690D01*
X127739944Y-70828690D01*
X127540400Y-70695359D01*
X127136407Y-70615000D01*
X127000000Y-70587867D01*
X126863593Y-70615000D01*
X113806459Y-70615000D01*
X113757809Y-70542191D01*
X113547765Y-70401843D01*
X113300000Y-70352560D01*
X110700000Y-70352560D01*
X110452235Y-70401843D01*
X110242191Y-70542191D01*
X110101843Y-70752235D01*
X110052560Y-71000000D01*
X107710000Y-71000000D01*
X107710000Y-66540000D01*
X110032969Y-66540000D01*
X110159864Y-67177945D01*
X110521231Y-67718769D01*
X111062055Y-68080136D01*
X111538969Y-68175000D01*
X112461031Y-68175000D01*
X112937945Y-68080136D01*
X113478769Y-67718769D01*
X113840136Y-67177945D01*
X113967031Y-66540000D01*
X113840136Y-65902055D01*
X113609511Y-65556900D01*
X113757809Y-65457809D01*
X113806459Y-65385000D01*
X115352560Y-65385000D01*
X115352560Y-67750000D01*
X115401843Y-67997765D01*
X115542191Y-68207809D01*
X115752235Y-68348157D01*
X116000000Y-68397440D01*
X120000000Y-68397440D01*
X120247765Y-68348157D01*
X120457809Y-68207809D01*
X120598157Y-67997765D01*
X120647440Y-67750000D01*
X120647440Y-66785750D01*
X120865000Y-66785750D01*
X120865000Y-67876310D01*
X120961673Y-68109699D01*
X121140302Y-68288327D01*
X121373691Y-68385000D01*
X123214250Y-68385000D01*
X123373000Y-68226250D01*
X123373000Y-66627000D01*
X123627000Y-66627000D01*
X123627000Y-68226250D01*
X123785750Y-68385000D01*
X125626309Y-68385000D01*
X125859698Y-68288327D01*
X126038327Y-68109699D01*
X126135000Y-67876310D01*
X126135000Y-66785750D01*
X125976250Y-66627000D01*
X123627000Y-66627000D01*
X123373000Y-66627000D01*
X121023750Y-66627000D01*
X120865000Y-66785750D01*
X120647440Y-66785750D01*
X120647440Y-65250000D01*
X120622316Y-65123690D01*
X120865000Y-65123690D01*
X120865000Y-66214250D01*
X121023750Y-66373000D01*
X123373000Y-66373000D01*
X123373000Y-64773750D01*
X123627000Y-64773750D01*
X123627000Y-66373000D01*
X125976250Y-66373000D01*
X126135000Y-66214250D01*
X126135000Y-66038969D01*
X128745000Y-66038969D01*
X128745000Y-66961030D01*
X128839864Y-67437944D01*
X129201231Y-67978769D01*
X129742055Y-68340136D01*
X130380000Y-68467031D01*
X131017944Y-68340136D01*
X131558769Y-67978769D01*
X131650000Y-67842232D01*
X131741231Y-67978769D01*
X132282055Y-68340136D01*
X132920000Y-68467031D01*
X133557944Y-68340136D01*
X134098769Y-67978769D01*
X134190000Y-67842232D01*
X134281231Y-67978769D01*
X134822055Y-68340136D01*
X135460000Y-68467031D01*
X136097944Y-68340136D01*
X136441365Y-68110670D01*
X136461673Y-68159699D01*
X136640302Y-68338327D01*
X136873691Y-68435000D01*
X137714250Y-68435000D01*
X137873000Y-68276250D01*
X137873000Y-66627000D01*
X138127000Y-66627000D01*
X138127000Y-68276250D01*
X138285750Y-68435000D01*
X139126309Y-68435000D01*
X139359698Y-68338327D01*
X139538327Y-68159699D01*
X139635000Y-67926310D01*
X139635000Y-66898121D01*
X150281484Y-66898121D01*
X150506154Y-67272168D01*
X151489388Y-67670880D01*
X152550357Y-67662975D01*
X153493846Y-67272168D01*
X153718516Y-66898121D01*
X152000000Y-65179605D01*
X150281484Y-66898121D01*
X139635000Y-66898121D01*
X139635000Y-66785750D01*
X139476250Y-66627000D01*
X138127000Y-66627000D01*
X137873000Y-66627000D01*
X137853000Y-66627000D01*
X137853000Y-66373000D01*
X137873000Y-66373000D01*
X137873000Y-64723750D01*
X138127000Y-64723750D01*
X138127000Y-66373000D01*
X139476250Y-66373000D01*
X139635000Y-66214250D01*
X139635000Y-65073690D01*
X139538327Y-64840301D01*
X139359698Y-64661673D01*
X139126309Y-64565000D01*
X138285750Y-64565000D01*
X138127000Y-64723750D01*
X137873000Y-64723750D01*
X137714250Y-64565000D01*
X136873691Y-64565000D01*
X136640302Y-64661673D01*
X136461673Y-64840301D01*
X136441365Y-64889330D01*
X136097945Y-64659864D01*
X135460000Y-64532969D01*
X134822056Y-64659864D01*
X134281231Y-65021231D01*
X134190000Y-65157768D01*
X134098769Y-65021231D01*
X133557945Y-64659864D01*
X132920000Y-64532969D01*
X132282056Y-64659864D01*
X131741231Y-65021231D01*
X131650000Y-65157768D01*
X131558769Y-65021231D01*
X131017945Y-64659864D01*
X130380000Y-64532969D01*
X129742056Y-64659864D01*
X129201231Y-65021231D01*
X128839864Y-65562055D01*
X128745000Y-66038969D01*
X126135000Y-66038969D01*
X126135000Y-65123690D01*
X126038327Y-64890301D01*
X125859698Y-64711673D01*
X125626309Y-64615000D01*
X123785750Y-64615000D01*
X123627000Y-64773750D01*
X123373000Y-64773750D01*
X123214250Y-64615000D01*
X121373691Y-64615000D01*
X121140302Y-64711673D01*
X120961673Y-64890301D01*
X120865000Y-65123690D01*
X120622316Y-65123690D01*
X120598157Y-65002235D01*
X120457809Y-64792191D01*
X120247765Y-64651843D01*
X120000000Y-64602560D01*
X119561246Y-64602560D01*
X119448074Y-64489388D01*
X149329120Y-64489388D01*
X149337025Y-65550357D01*
X149727832Y-66493846D01*
X150101879Y-66718516D01*
X151820395Y-65000000D01*
X152179605Y-65000000D01*
X153898121Y-66718516D01*
X154272168Y-66493846D01*
X154670880Y-65510612D01*
X154662975Y-64449643D01*
X154272168Y-63506154D01*
X153898121Y-63281484D01*
X152179605Y-65000000D01*
X151820395Y-65000000D01*
X150101879Y-63281484D01*
X149727832Y-63506154D01*
X149329120Y-64489388D01*
X119448074Y-64489388D01*
X118075799Y-63117114D01*
X118065620Y-63101879D01*
X150281484Y-63101879D01*
X152000000Y-64820395D01*
X153718516Y-63101879D01*
X153493846Y-62727832D01*
X152510612Y-62329120D01*
X151449643Y-62337025D01*
X150506154Y-62727832D01*
X150281484Y-63101879D01*
X118065620Y-63101879D01*
X117998529Y-63001471D01*
X117540400Y-62695359D01*
X117136407Y-62615000D01*
X117000000Y-62587867D01*
X116863593Y-62615000D01*
X113806459Y-62615000D01*
X113757809Y-62542191D01*
X113547765Y-62401843D01*
X113300000Y-62352560D01*
X110700000Y-62352560D01*
X110452235Y-62401843D01*
X110242191Y-62542191D01*
X110101843Y-62752235D01*
X110052560Y-63000000D01*
X110052560Y-65000000D01*
X110101843Y-65247765D01*
X110242191Y-65457809D01*
X110390489Y-65556900D01*
X110159864Y-65902055D01*
X110032969Y-66540000D01*
X107710000Y-66540000D01*
X107710000Y-60710000D01*
X156290000Y-60710000D01*
X156290001Y-159290000D01*
G04 #@! TD*
M02*
