G04 #@! TF.GenerationSoftware,KiCad,Pcbnew,7.0.7*
G04 #@! TF.CreationDate,2024-01-02T20:56:29+01:00*
G04 #@! TF.ProjectId,ventirad,76656e74-6972-4616-942e-6b696361645f,rev?*
G04 #@! TF.SameCoordinates,Original*
G04 #@! TF.FileFunction,Legend,Top*
G04 #@! TF.FilePolarity,Positive*
%FSLAX46Y46*%
G04 Gerber Fmt 4.6, Leading zero omitted, Abs format (unit mm)*
G04 Created by KiCad (PCBNEW 7.0.7) date 2024-01-02 20:56:29*
%MOMM*%
%LPD*%
G01*
G04 APERTURE LIST*
%ADD10C,0.150000*%
%ADD11C,0.200000*%
%ADD12C,0.300000*%
%ADD13C,4.064000*%
G04 #@! TA.AperFunction,Profile*
%ADD14C,0.150000*%
G04 #@! TD*
G04 APERTURE END LIST*
D10*
X115238095Y-155502438D02*
X115142857Y-155454819D01*
X115142857Y-155454819D02*
X115000000Y-155454819D01*
X115000000Y-155454819D02*
X114857143Y-155502438D01*
X114857143Y-155502438D02*
X114761905Y-155597676D01*
X114761905Y-155597676D02*
X114714286Y-155692914D01*
X114714286Y-155692914D02*
X114666667Y-155883390D01*
X114666667Y-155883390D02*
X114666667Y-156026247D01*
X114666667Y-156026247D02*
X114714286Y-156216723D01*
X114714286Y-156216723D02*
X114761905Y-156311961D01*
X114761905Y-156311961D02*
X114857143Y-156407200D01*
X114857143Y-156407200D02*
X115000000Y-156454819D01*
X115000000Y-156454819D02*
X115095238Y-156454819D01*
X115095238Y-156454819D02*
X115238095Y-156407200D01*
X115238095Y-156407200D02*
X115285714Y-156359580D01*
X115285714Y-156359580D02*
X115285714Y-156026247D01*
X115285714Y-156026247D02*
X115095238Y-156026247D01*
X115714286Y-156454819D02*
X115714286Y-155454819D01*
X115714286Y-155454819D02*
X116285714Y-156454819D01*
X116285714Y-156454819D02*
X116285714Y-155454819D01*
X116761905Y-156454819D02*
X116761905Y-155454819D01*
X116761905Y-155454819D02*
X117000000Y-155454819D01*
X117000000Y-155454819D02*
X117142857Y-155502438D01*
X117142857Y-155502438D02*
X117238095Y-155597676D01*
X117238095Y-155597676D02*
X117285714Y-155692914D01*
X117285714Y-155692914D02*
X117333333Y-155883390D01*
X117333333Y-155883390D02*
X117333333Y-156026247D01*
X117333333Y-156026247D02*
X117285714Y-156216723D01*
X117285714Y-156216723D02*
X117238095Y-156311961D01*
X117238095Y-156311961D02*
X117142857Y-156407200D01*
X117142857Y-156407200D02*
X117000000Y-156454819D01*
X117000000Y-156454819D02*
X116761905Y-156454819D01*
X120714286Y-149073866D02*
X121476191Y-149073866D01*
X121095238Y-149454819D02*
X121095238Y-148692914D01*
X122428571Y-148454819D02*
X121952381Y-148454819D01*
X121952381Y-148454819D02*
X121904762Y-148931009D01*
X121904762Y-148931009D02*
X121952381Y-148883390D01*
X121952381Y-148883390D02*
X122047619Y-148835771D01*
X122047619Y-148835771D02*
X122285714Y-148835771D01*
X122285714Y-148835771D02*
X122380952Y-148883390D01*
X122380952Y-148883390D02*
X122428571Y-148931009D01*
X122428571Y-148931009D02*
X122476190Y-149026247D01*
X122476190Y-149026247D02*
X122476190Y-149264342D01*
X122476190Y-149264342D02*
X122428571Y-149359580D01*
X122428571Y-149359580D02*
X122380952Y-149407200D01*
X122380952Y-149407200D02*
X122285714Y-149454819D01*
X122285714Y-149454819D02*
X122047619Y-149454819D01*
X122047619Y-149454819D02*
X121952381Y-149407200D01*
X121952381Y-149407200D02*
X121904762Y-149359580D01*
X122761905Y-148454819D02*
X123095238Y-149454819D01*
X123095238Y-149454819D02*
X123428571Y-148454819D01*
X121785714Y-155407200D02*
X121928571Y-155454819D01*
X121928571Y-155454819D02*
X122166666Y-155454819D01*
X122166666Y-155454819D02*
X122261904Y-155407200D01*
X122261904Y-155407200D02*
X122309523Y-155359580D01*
X122309523Y-155359580D02*
X122357142Y-155264342D01*
X122357142Y-155264342D02*
X122357142Y-155169104D01*
X122357142Y-155169104D02*
X122309523Y-155073866D01*
X122309523Y-155073866D02*
X122261904Y-155026247D01*
X122261904Y-155026247D02*
X122166666Y-154978628D01*
X122166666Y-154978628D02*
X121976190Y-154931009D01*
X121976190Y-154931009D02*
X121880952Y-154883390D01*
X121880952Y-154883390D02*
X121833333Y-154835771D01*
X121833333Y-154835771D02*
X121785714Y-154740533D01*
X121785714Y-154740533D02*
X121785714Y-154645295D01*
X121785714Y-154645295D02*
X121833333Y-154550057D01*
X121833333Y-154550057D02*
X121880952Y-154502438D01*
X121880952Y-154502438D02*
X121976190Y-154454819D01*
X121976190Y-154454819D02*
X122214285Y-154454819D01*
X122214285Y-154454819D02*
X122357142Y-154502438D01*
X122785714Y-155454819D02*
X122785714Y-154454819D01*
X122785714Y-154454819D02*
X123023809Y-154454819D01*
X123023809Y-154454819D02*
X123166666Y-154502438D01*
X123166666Y-154502438D02*
X123261904Y-154597676D01*
X123261904Y-154597676D02*
X123309523Y-154692914D01*
X123309523Y-154692914D02*
X123357142Y-154883390D01*
X123357142Y-154883390D02*
X123357142Y-155026247D01*
X123357142Y-155026247D02*
X123309523Y-155216723D01*
X123309523Y-155216723D02*
X123261904Y-155311961D01*
X123261904Y-155311961D02*
X123166666Y-155407200D01*
X123166666Y-155407200D02*
X123023809Y-155454819D01*
X123023809Y-155454819D02*
X122785714Y-155454819D01*
X123738095Y-155169104D02*
X124214285Y-155169104D01*
X123642857Y-155454819D02*
X123976190Y-154454819D01*
X123976190Y-154454819D02*
X124309523Y-155454819D01*
D11*
X128452219Y-146958334D02*
X127452219Y-146833334D01*
X127452219Y-146833334D02*
X127452219Y-146595238D01*
X127452219Y-146595238D02*
X127499838Y-146458334D01*
X127499838Y-146458334D02*
X127595076Y-146375000D01*
X127595076Y-146375000D02*
X127690314Y-146339286D01*
X127690314Y-146339286D02*
X127880790Y-146315477D01*
X127880790Y-146315477D02*
X128023647Y-146333334D01*
X128023647Y-146333334D02*
X128214123Y-146404762D01*
X128214123Y-146404762D02*
X128309361Y-146464286D01*
X128309361Y-146464286D02*
X128404600Y-146571429D01*
X128404600Y-146571429D02*
X128452219Y-146720238D01*
X128452219Y-146720238D02*
X128452219Y-146958334D01*
X128404600Y-145571429D02*
X128452219Y-145672619D01*
X128452219Y-145672619D02*
X128452219Y-145863096D01*
X128452219Y-145863096D02*
X128404600Y-145952381D01*
X128404600Y-145952381D02*
X128309361Y-145988096D01*
X128309361Y-145988096D02*
X127928409Y-145940477D01*
X127928409Y-145940477D02*
X127833171Y-145880953D01*
X127833171Y-145880953D02*
X127785552Y-145779762D01*
X127785552Y-145779762D02*
X127785552Y-145589286D01*
X127785552Y-145589286D02*
X127833171Y-145500000D01*
X127833171Y-145500000D02*
X127928409Y-145464286D01*
X127928409Y-145464286D02*
X128023647Y-145476191D01*
X128023647Y-145476191D02*
X128118885Y-145964286D01*
X128404600Y-145142857D02*
X128452219Y-145053572D01*
X128452219Y-145053572D02*
X128452219Y-144863095D01*
X128452219Y-144863095D02*
X128404600Y-144761905D01*
X128404600Y-144761905D02*
X128309361Y-144702381D01*
X128309361Y-144702381D02*
X128261742Y-144696429D01*
X128261742Y-144696429D02*
X128166504Y-144732143D01*
X128166504Y-144732143D02*
X128118885Y-144821429D01*
X128118885Y-144821429D02*
X128118885Y-144964286D01*
X128118885Y-144964286D02*
X128071266Y-145053572D01*
X128071266Y-145053572D02*
X127976028Y-145089286D01*
X127976028Y-145089286D02*
X127928409Y-145083334D01*
X127928409Y-145083334D02*
X127833171Y-145023810D01*
X127833171Y-145023810D02*
X127785552Y-144922619D01*
X127785552Y-144922619D02*
X127785552Y-144779762D01*
X127785552Y-144779762D02*
X127833171Y-144690476D01*
X128452219Y-144291667D02*
X127785552Y-144208333D01*
X127452219Y-144166667D02*
X127499838Y-144220238D01*
X127499838Y-144220238D02*
X127547457Y-144178571D01*
X127547457Y-144178571D02*
X127499838Y-144125000D01*
X127499838Y-144125000D02*
X127452219Y-144166667D01*
X127452219Y-144166667D02*
X127547457Y-144178571D01*
X127785552Y-143303572D02*
X128595076Y-143404762D01*
X128595076Y-143404762D02*
X128690314Y-143464286D01*
X128690314Y-143464286D02*
X128737933Y-143517858D01*
X128737933Y-143517858D02*
X128785552Y-143619048D01*
X128785552Y-143619048D02*
X128785552Y-143761905D01*
X128785552Y-143761905D02*
X128737933Y-143851191D01*
X128404600Y-143380953D02*
X128452219Y-143482143D01*
X128452219Y-143482143D02*
X128452219Y-143672620D01*
X128452219Y-143672620D02*
X128404600Y-143761905D01*
X128404600Y-143761905D02*
X128356980Y-143803572D01*
X128356980Y-143803572D02*
X128261742Y-143839286D01*
X128261742Y-143839286D02*
X127976028Y-143803572D01*
X127976028Y-143803572D02*
X127880790Y-143744048D01*
X127880790Y-143744048D02*
X127833171Y-143690477D01*
X127833171Y-143690477D02*
X127785552Y-143589286D01*
X127785552Y-143589286D02*
X127785552Y-143398810D01*
X127785552Y-143398810D02*
X127833171Y-143309524D01*
X127785552Y-142827381D02*
X128452219Y-142910715D01*
X127880790Y-142839286D02*
X127833171Y-142785715D01*
X127833171Y-142785715D02*
X127785552Y-142684524D01*
X127785552Y-142684524D02*
X127785552Y-142541667D01*
X127785552Y-142541667D02*
X127833171Y-142452381D01*
X127833171Y-142452381D02*
X127928409Y-142416667D01*
X127928409Y-142416667D02*
X128452219Y-142482143D01*
X128452219Y-141244048D02*
X127452219Y-141119048D01*
X127833171Y-141166667D02*
X127785552Y-141065476D01*
X127785552Y-141065476D02*
X127785552Y-140875000D01*
X127785552Y-140875000D02*
X127833171Y-140785714D01*
X127833171Y-140785714D02*
X127880790Y-140744048D01*
X127880790Y-140744048D02*
X127976028Y-140708333D01*
X127976028Y-140708333D02*
X128261742Y-140744048D01*
X128261742Y-140744048D02*
X128356980Y-140803571D01*
X128356980Y-140803571D02*
X128404600Y-140857143D01*
X128404600Y-140857143D02*
X128452219Y-140958333D01*
X128452219Y-140958333D02*
X128452219Y-141148810D01*
X128452219Y-141148810D02*
X128404600Y-141238095D01*
X127785552Y-140351190D02*
X128452219Y-140196429D01*
X127785552Y-139875000D02*
X128452219Y-140196429D01*
X128452219Y-140196429D02*
X128690314Y-140321429D01*
X128690314Y-140321429D02*
X128737933Y-140375000D01*
X128737933Y-140375000D02*
X128785552Y-140476190D01*
X127785552Y-138113094D02*
X127785552Y-137732142D01*
X128452219Y-138053571D02*
X127595076Y-137946428D01*
X127595076Y-137946428D02*
X127499838Y-137886904D01*
X127499838Y-137886904D02*
X127452219Y-137785714D01*
X127452219Y-137785714D02*
X127452219Y-137690475D01*
X127452219Y-136928570D02*
X127452219Y-137119046D01*
X127452219Y-137119046D02*
X127499838Y-137220237D01*
X127499838Y-137220237D02*
X127547457Y-137273808D01*
X127547457Y-137273808D02*
X127690314Y-137386904D01*
X127690314Y-137386904D02*
X127880790Y-137458332D01*
X127880790Y-137458332D02*
X128261742Y-137505951D01*
X128261742Y-137505951D02*
X128356980Y-137470237D01*
X128356980Y-137470237D02*
X128404600Y-137428570D01*
X128404600Y-137428570D02*
X128452219Y-137339285D01*
X128452219Y-137339285D02*
X128452219Y-137148808D01*
X128452219Y-137148808D02*
X128404600Y-137047618D01*
X128404600Y-137047618D02*
X128356980Y-136994046D01*
X128356980Y-136994046D02*
X128261742Y-136934523D01*
X128261742Y-136934523D02*
X128023647Y-136904761D01*
X128023647Y-136904761D02*
X127928409Y-136940475D01*
X127928409Y-136940475D02*
X127880790Y-136982142D01*
X127880790Y-136982142D02*
X127833171Y-137071427D01*
X127833171Y-137071427D02*
X127833171Y-137261904D01*
X127833171Y-137261904D02*
X127880790Y-137363094D01*
X127880790Y-137363094D02*
X127928409Y-137416665D01*
X127928409Y-137416665D02*
X128023647Y-137476189D01*
X128452219Y-136529761D02*
X127785552Y-136446427D01*
X127452219Y-136404761D02*
X127499838Y-136458332D01*
X127499838Y-136458332D02*
X127547457Y-136416665D01*
X127547457Y-136416665D02*
X127499838Y-136363094D01*
X127499838Y-136363094D02*
X127452219Y-136404761D01*
X127452219Y-136404761D02*
X127547457Y-136416665D01*
X127785552Y-136113094D02*
X127785552Y-135732142D01*
X127452219Y-135928571D02*
X128309361Y-136035714D01*
X128309361Y-136035714D02*
X128404600Y-135999999D01*
X128404600Y-135999999D02*
X128452219Y-135910714D01*
X128452219Y-135910714D02*
X128452219Y-135815475D01*
X127785552Y-134970237D02*
X128452219Y-135053570D01*
X127785552Y-135398808D02*
X128309361Y-135464285D01*
X128309361Y-135464285D02*
X128404600Y-135428570D01*
X128404600Y-135428570D02*
X128452219Y-135339285D01*
X128452219Y-135339285D02*
X128452219Y-135196427D01*
X128452219Y-135196427D02*
X128404600Y-135095237D01*
X128404600Y-135095237D02*
X128356980Y-135041665D01*
D12*
X127685114Y-84732142D02*
X127685114Y-84232142D01*
X128470828Y-84116071D02*
X128470828Y-84830356D01*
X128470828Y-84830356D02*
X126970828Y-84642856D01*
X126970828Y-84642856D02*
X126970828Y-83928571D01*
X128470828Y-83258928D02*
X128399400Y-83392856D01*
X128399400Y-83392856D02*
X128256542Y-83446428D01*
X128256542Y-83446428D02*
X126970828Y-83285713D01*
X128399400Y-82107142D02*
X128470828Y-82258928D01*
X128470828Y-82258928D02*
X128470828Y-82544642D01*
X128470828Y-82544642D02*
X128399400Y-82678571D01*
X128399400Y-82678571D02*
X128256542Y-82732142D01*
X128256542Y-82732142D02*
X127685114Y-82660714D01*
X127685114Y-82660714D02*
X127542257Y-82571428D01*
X127542257Y-82571428D02*
X127470828Y-82419642D01*
X127470828Y-82419642D02*
X127470828Y-82133928D01*
X127470828Y-82133928D02*
X127542257Y-81999999D01*
X127542257Y-81999999D02*
X127685114Y-81946428D01*
X127685114Y-81946428D02*
X127827971Y-81964285D01*
X127827971Y-81964285D02*
X127970828Y-82696428D01*
X128399400Y-80750000D02*
X128470828Y-80901785D01*
X128470828Y-80901785D02*
X128470828Y-81187500D01*
X128470828Y-81187500D02*
X128399400Y-81321428D01*
X128399400Y-81321428D02*
X128327971Y-81383928D01*
X128327971Y-81383928D02*
X128185114Y-81437500D01*
X128185114Y-81437500D02*
X127756542Y-81383928D01*
X127756542Y-81383928D02*
X127613685Y-81294642D01*
X127613685Y-81294642D02*
X127542257Y-81214285D01*
X127542257Y-81214285D02*
X127470828Y-81062500D01*
X127470828Y-81062500D02*
X127470828Y-80776785D01*
X127470828Y-80776785D02*
X127542257Y-80642857D01*
X127470828Y-80205357D02*
X127470828Y-79633928D01*
X126970828Y-79928571D02*
X128256542Y-80089286D01*
X128256542Y-80089286D02*
X128399400Y-80035714D01*
X128399400Y-80035714D02*
X128470828Y-79901786D01*
X128470828Y-79901786D02*
X128470828Y-79758928D01*
X128470828Y-79258928D02*
X127470828Y-79133928D01*
X127756542Y-79169643D02*
X127613685Y-79080357D01*
X127613685Y-79080357D02*
X127542257Y-79000000D01*
X127542257Y-79000000D02*
X127470828Y-78848214D01*
X127470828Y-78848214D02*
X127470828Y-78705357D01*
X128470828Y-78116072D02*
X128399400Y-78250000D01*
X128399400Y-78250000D02*
X128327971Y-78312500D01*
X128327971Y-78312500D02*
X128185114Y-78366072D01*
X128185114Y-78366072D02*
X127756542Y-78312500D01*
X127756542Y-78312500D02*
X127613685Y-78223214D01*
X127613685Y-78223214D02*
X127542257Y-78142857D01*
X127542257Y-78142857D02*
X127470828Y-77991072D01*
X127470828Y-77991072D02*
X127470828Y-77776786D01*
X127470828Y-77776786D02*
X127542257Y-77642857D01*
X127542257Y-77642857D02*
X127613685Y-77580357D01*
X127613685Y-77580357D02*
X127756542Y-77526786D01*
X127756542Y-77526786D02*
X128185114Y-77580357D01*
X128185114Y-77580357D02*
X128327971Y-77669643D01*
X128327971Y-77669643D02*
X128399400Y-77750000D01*
X128399400Y-77750000D02*
X128470828Y-77901786D01*
X128470828Y-77901786D02*
X128470828Y-78116072D01*
X128470828Y-76758929D02*
X128399400Y-76892857D01*
X128399400Y-76892857D02*
X128256542Y-76946429D01*
X128256542Y-76946429D02*
X126970828Y-76785714D01*
X128470828Y-75544643D02*
X127685114Y-75446429D01*
X127685114Y-75446429D02*
X127542257Y-75500000D01*
X127542257Y-75500000D02*
X127470828Y-75633929D01*
X127470828Y-75633929D02*
X127470828Y-75919643D01*
X127470828Y-75919643D02*
X127542257Y-76071429D01*
X128399400Y-75535715D02*
X128470828Y-75687500D01*
X128470828Y-75687500D02*
X128470828Y-76044643D01*
X128470828Y-76044643D02*
X128399400Y-76178572D01*
X128399400Y-76178572D02*
X128256542Y-76232143D01*
X128256542Y-76232143D02*
X128113685Y-76214286D01*
X128113685Y-76214286D02*
X127970828Y-76125000D01*
X127970828Y-76125000D02*
X127899400Y-75973215D01*
X127899400Y-75973215D02*
X127899400Y-75616072D01*
X127899400Y-75616072D02*
X127827971Y-75464286D01*
X128470828Y-74830357D02*
X126970828Y-74642857D01*
X127542257Y-74714286D02*
X127470828Y-74562500D01*
X127470828Y-74562500D02*
X127470828Y-74276786D01*
X127470828Y-74276786D02*
X127542257Y-74142857D01*
X127542257Y-74142857D02*
X127613685Y-74080357D01*
X127613685Y-74080357D02*
X127756542Y-74026786D01*
X127756542Y-74026786D02*
X128185114Y-74080357D01*
X128185114Y-74080357D02*
X128327971Y-74169643D01*
X128327971Y-74169643D02*
X128399400Y-74250000D01*
X128399400Y-74250000D02*
X128470828Y-74401786D01*
X128470828Y-74401786D02*
X128470828Y-74687500D01*
X128470828Y-74687500D02*
X128399400Y-74821429D01*
X130885828Y-88580356D02*
X129385828Y-88392856D01*
X129385828Y-88392856D02*
X129385828Y-87821428D01*
X129385828Y-87821428D02*
X129457257Y-87687499D01*
X129457257Y-87687499D02*
X129528685Y-87624999D01*
X129528685Y-87624999D02*
X129671542Y-87571428D01*
X129671542Y-87571428D02*
X129885828Y-87598213D01*
X129885828Y-87598213D02*
X130028685Y-87687499D01*
X130028685Y-87687499D02*
X130100114Y-87767856D01*
X130100114Y-87767856D02*
X130171542Y-87919642D01*
X130171542Y-87919642D02*
X130171542Y-88491071D01*
X129385828Y-86607142D02*
X129385828Y-86464285D01*
X129385828Y-86464285D02*
X129457257Y-86330356D01*
X129457257Y-86330356D02*
X129528685Y-86267856D01*
X129528685Y-86267856D02*
X129671542Y-86214285D01*
X129671542Y-86214285D02*
X129957257Y-86178571D01*
X129957257Y-86178571D02*
X130314400Y-86223213D01*
X130314400Y-86223213D02*
X130600114Y-86330356D01*
X130600114Y-86330356D02*
X130742971Y-86419642D01*
X130742971Y-86419642D02*
X130814400Y-86499999D01*
X130814400Y-86499999D02*
X130885828Y-86651785D01*
X130885828Y-86651785D02*
X130885828Y-86794642D01*
X130885828Y-86794642D02*
X130814400Y-86928571D01*
X130814400Y-86928571D02*
X130742971Y-86991071D01*
X130742971Y-86991071D02*
X130600114Y-87044642D01*
X130600114Y-87044642D02*
X130314400Y-87080356D01*
X130314400Y-87080356D02*
X129957257Y-87035713D01*
X129957257Y-87035713D02*
X129671542Y-86928571D01*
X129671542Y-86928571D02*
X129528685Y-86839285D01*
X129528685Y-86839285D02*
X129457257Y-86758928D01*
X129457257Y-86758928D02*
X129385828Y-86607142D01*
X129885828Y-85669642D02*
X130885828Y-85508928D01*
X130885828Y-85508928D02*
X130171542Y-85133928D01*
X130171542Y-85133928D02*
X130885828Y-84937500D01*
X130885828Y-84937500D02*
X129885828Y-84526785D01*
X130457257Y-84098213D02*
X130457257Y-83383928D01*
X130885828Y-84294642D02*
X129385828Y-83607142D01*
X129385828Y-83607142D02*
X130885828Y-83294642D01*
X130885828Y-82794642D02*
X129885828Y-82669642D01*
X130171542Y-82705357D02*
X130028685Y-82616071D01*
X130028685Y-82616071D02*
X129957257Y-82535714D01*
X129957257Y-82535714D02*
X129885828Y-82383928D01*
X129885828Y-82383928D02*
X129885828Y-82241071D01*
X130885828Y-81223214D02*
X129385828Y-81035714D01*
X130814400Y-81214286D02*
X130885828Y-81366071D01*
X130885828Y-81366071D02*
X130885828Y-81651786D01*
X130885828Y-81651786D02*
X130814400Y-81785714D01*
X130814400Y-81785714D02*
X130742971Y-81848214D01*
X130742971Y-81848214D02*
X130600114Y-81901786D01*
X130600114Y-81901786D02*
X130171542Y-81848214D01*
X130171542Y-81848214D02*
X130028685Y-81758928D01*
X130028685Y-81758928D02*
X129957257Y-81678571D01*
X129957257Y-81678571D02*
X129885828Y-81526786D01*
X129885828Y-81526786D02*
X129885828Y-81241071D01*
X129885828Y-81241071D02*
X129957257Y-81107143D01*
X129885828Y-79741071D02*
X130885828Y-79866071D01*
X129885828Y-80383928D02*
X130671542Y-80482143D01*
X130671542Y-80482143D02*
X130814400Y-80428571D01*
X130814400Y-80428571D02*
X130885828Y-80294643D01*
X130885828Y-80294643D02*
X130885828Y-80080357D01*
X130885828Y-80080357D02*
X130814400Y-79928571D01*
X130814400Y-79928571D02*
X130742971Y-79848214D01*
X130885828Y-79151785D02*
X129885828Y-79026785D01*
X129385828Y-78964285D02*
X129457257Y-79044642D01*
X129457257Y-79044642D02*
X129528685Y-78982142D01*
X129528685Y-78982142D02*
X129457257Y-78901785D01*
X129457257Y-78901785D02*
X129385828Y-78964285D01*
X129385828Y-78964285D02*
X129528685Y-78982142D01*
X129885828Y-78312499D02*
X130885828Y-78437499D01*
X130028685Y-78330356D02*
X129957257Y-78249999D01*
X129957257Y-78249999D02*
X129885828Y-78098214D01*
X129885828Y-78098214D02*
X129885828Y-77883928D01*
X129885828Y-77883928D02*
X129957257Y-77749999D01*
X129957257Y-77749999D02*
X130100114Y-77696428D01*
X130100114Y-77696428D02*
X130885828Y-77794642D01*
X130885828Y-76866071D02*
X130814400Y-76999999D01*
X130814400Y-76999999D02*
X130742971Y-77062499D01*
X130742971Y-77062499D02*
X130600114Y-77116071D01*
X130600114Y-77116071D02*
X130171542Y-77062499D01*
X130171542Y-77062499D02*
X130028685Y-76973213D01*
X130028685Y-76973213D02*
X129957257Y-76892856D01*
X129957257Y-76892856D02*
X129885828Y-76741071D01*
X129885828Y-76741071D02*
X129885828Y-76526785D01*
X129885828Y-76526785D02*
X129957257Y-76392856D01*
X129957257Y-76392856D02*
X130028685Y-76330356D01*
X130028685Y-76330356D02*
X130171542Y-76276785D01*
X130171542Y-76276785D02*
X130600114Y-76330356D01*
X130600114Y-76330356D02*
X130742971Y-76419642D01*
X130742971Y-76419642D02*
X130814400Y-76499999D01*
X130814400Y-76499999D02*
X130885828Y-76651785D01*
X130885828Y-76651785D02*
X130885828Y-76866071D01*
X129385828Y-74607142D02*
X130885828Y-74294642D01*
X130885828Y-74294642D02*
X129385828Y-73607142D01*
X129385828Y-73249999D02*
X129385828Y-72321428D01*
X129385828Y-72321428D02*
X129957257Y-72892857D01*
X129957257Y-72892857D02*
X129957257Y-72678571D01*
X129957257Y-72678571D02*
X130028685Y-72544642D01*
X130028685Y-72544642D02*
X130100114Y-72482142D01*
X130100114Y-72482142D02*
X130242971Y-72428571D01*
X130242971Y-72428571D02*
X130600114Y-72473214D01*
X130600114Y-72473214D02*
X130742971Y-72562499D01*
X130742971Y-72562499D02*
X130814400Y-72642857D01*
X130814400Y-72642857D02*
X130885828Y-72794642D01*
X130885828Y-72794642D02*
X130885828Y-73223214D01*
X130885828Y-73223214D02*
X130814400Y-73357142D01*
X130814400Y-73357142D02*
X130742971Y-73419642D01*
X130742971Y-71848214D02*
X130814400Y-71785714D01*
X130814400Y-71785714D02*
X130885828Y-71866071D01*
X130885828Y-71866071D02*
X130814400Y-71928571D01*
X130814400Y-71928571D02*
X130742971Y-71848214D01*
X130742971Y-71848214D02*
X130885828Y-71866071D01*
X129385828Y-70678571D02*
X129385828Y-70535714D01*
X129385828Y-70535714D02*
X129457257Y-70401785D01*
X129457257Y-70401785D02*
X129528685Y-70339285D01*
X129528685Y-70339285D02*
X129671542Y-70285714D01*
X129671542Y-70285714D02*
X129957257Y-70250000D01*
X129957257Y-70250000D02*
X130314400Y-70294642D01*
X130314400Y-70294642D02*
X130600114Y-70401785D01*
X130600114Y-70401785D02*
X130742971Y-70491071D01*
X130742971Y-70491071D02*
X130814400Y-70571428D01*
X130814400Y-70571428D02*
X130885828Y-70723214D01*
X130885828Y-70723214D02*
X130885828Y-70866071D01*
X130885828Y-70866071D02*
X130814400Y-71000000D01*
X130814400Y-71000000D02*
X130742971Y-71062500D01*
X130742971Y-71062500D02*
X130600114Y-71116071D01*
X130600114Y-71116071D02*
X130314400Y-71151785D01*
X130314400Y-71151785D02*
X129957257Y-71107142D01*
X129957257Y-71107142D02*
X129671542Y-71000000D01*
X129671542Y-71000000D02*
X129528685Y-70910714D01*
X129528685Y-70910714D02*
X129457257Y-70830357D01*
X129457257Y-70830357D02*
X129385828Y-70678571D01*
D10*
X116833333Y-74859580D02*
X116785714Y-74907200D01*
X116785714Y-74907200D02*
X116642857Y-74954819D01*
X116642857Y-74954819D02*
X116547619Y-74954819D01*
X116547619Y-74954819D02*
X116404762Y-74907200D01*
X116404762Y-74907200D02*
X116309524Y-74811961D01*
X116309524Y-74811961D02*
X116261905Y-74716723D01*
X116261905Y-74716723D02*
X116214286Y-74526247D01*
X116214286Y-74526247D02*
X116214286Y-74383390D01*
X116214286Y-74383390D02*
X116261905Y-74192914D01*
X116261905Y-74192914D02*
X116309524Y-74097676D01*
X116309524Y-74097676D02*
X116404762Y-74002438D01*
X116404762Y-74002438D02*
X116547619Y-73954819D01*
X116547619Y-73954819D02*
X116642857Y-73954819D01*
X116642857Y-73954819D02*
X116785714Y-74002438D01*
X116785714Y-74002438D02*
X116833333Y-74050057D01*
X117785714Y-74954819D02*
X117214286Y-74954819D01*
X117500000Y-74954819D02*
X117500000Y-73954819D01*
X117500000Y-73954819D02*
X117404762Y-74097676D01*
X117404762Y-74097676D02*
X117309524Y-74192914D01*
X117309524Y-74192914D02*
X117214286Y-74240533D01*
X116059580Y-84416666D02*
X116107200Y-84464285D01*
X116107200Y-84464285D02*
X116154819Y-84607142D01*
X116154819Y-84607142D02*
X116154819Y-84702380D01*
X116154819Y-84702380D02*
X116107200Y-84845237D01*
X116107200Y-84845237D02*
X116011961Y-84940475D01*
X116011961Y-84940475D02*
X115916723Y-84988094D01*
X115916723Y-84988094D02*
X115726247Y-85035713D01*
X115726247Y-85035713D02*
X115583390Y-85035713D01*
X115583390Y-85035713D02*
X115392914Y-84988094D01*
X115392914Y-84988094D02*
X115297676Y-84940475D01*
X115297676Y-84940475D02*
X115202438Y-84845237D01*
X115202438Y-84845237D02*
X115154819Y-84702380D01*
X115154819Y-84702380D02*
X115154819Y-84607142D01*
X115154819Y-84607142D02*
X115202438Y-84464285D01*
X115202438Y-84464285D02*
X115250057Y-84416666D01*
X115154819Y-84083332D02*
X115154819Y-83464285D01*
X115154819Y-83464285D02*
X115535771Y-83797618D01*
X115535771Y-83797618D02*
X115535771Y-83654761D01*
X115535771Y-83654761D02*
X115583390Y-83559523D01*
X115583390Y-83559523D02*
X115631009Y-83511904D01*
X115631009Y-83511904D02*
X115726247Y-83464285D01*
X115726247Y-83464285D02*
X115964342Y-83464285D01*
X115964342Y-83464285D02*
X116059580Y-83511904D01*
X116059580Y-83511904D02*
X116107200Y-83559523D01*
X116107200Y-83559523D02*
X116154819Y-83654761D01*
X116154819Y-83654761D02*
X116154819Y-83940475D01*
X116154819Y-83940475D02*
X116107200Y-84035713D01*
X116107200Y-84035713D02*
X116059580Y-84083332D01*
X112359580Y-150166666D02*
X112407200Y-150214285D01*
X112407200Y-150214285D02*
X112454819Y-150357142D01*
X112454819Y-150357142D02*
X112454819Y-150452380D01*
X112454819Y-150452380D02*
X112407200Y-150595237D01*
X112407200Y-150595237D02*
X112311961Y-150690475D01*
X112311961Y-150690475D02*
X112216723Y-150738094D01*
X112216723Y-150738094D02*
X112026247Y-150785713D01*
X112026247Y-150785713D02*
X111883390Y-150785713D01*
X111883390Y-150785713D02*
X111692914Y-150738094D01*
X111692914Y-150738094D02*
X111597676Y-150690475D01*
X111597676Y-150690475D02*
X111502438Y-150595237D01*
X111502438Y-150595237D02*
X111454819Y-150452380D01*
X111454819Y-150452380D02*
X111454819Y-150357142D01*
X111454819Y-150357142D02*
X111502438Y-150214285D01*
X111502438Y-150214285D02*
X111550057Y-150166666D01*
X111788152Y-149309523D02*
X112454819Y-149309523D01*
X111407200Y-149547618D02*
X112121485Y-149785713D01*
X112121485Y-149785713D02*
X112121485Y-149166666D01*
X136244057Y-151886238D02*
X136196438Y-151981476D01*
X136196438Y-151981476D02*
X136101200Y-152076714D01*
X136101200Y-152076714D02*
X135958342Y-152219571D01*
X135958342Y-152219571D02*
X135910723Y-152314809D01*
X135910723Y-152314809D02*
X135910723Y-152410047D01*
X136148819Y-152362428D02*
X136101200Y-152457666D01*
X136101200Y-152457666D02*
X136005961Y-152552904D01*
X136005961Y-152552904D02*
X135815485Y-152600523D01*
X135815485Y-152600523D02*
X135482152Y-152600523D01*
X135482152Y-152600523D02*
X135291676Y-152552904D01*
X135291676Y-152552904D02*
X135196438Y-152457666D01*
X135196438Y-152457666D02*
X135148819Y-152362428D01*
X135148819Y-152362428D02*
X135148819Y-152171952D01*
X135148819Y-152171952D02*
X135196438Y-152076714D01*
X135196438Y-152076714D02*
X135291676Y-151981476D01*
X135291676Y-151981476D02*
X135482152Y-151933857D01*
X135482152Y-151933857D02*
X135815485Y-151933857D01*
X135815485Y-151933857D02*
X136005961Y-151981476D01*
X136005961Y-151981476D02*
X136101200Y-152076714D01*
X136101200Y-152076714D02*
X136148819Y-152171952D01*
X136148819Y-152171952D02*
X136148819Y-152362428D01*
X136148819Y-150981476D02*
X136148819Y-151552904D01*
X136148819Y-151267190D02*
X135148819Y-151267190D01*
X135148819Y-151267190D02*
X135291676Y-151362428D01*
X135291676Y-151362428D02*
X135386914Y-151457666D01*
X135386914Y-151457666D02*
X135434533Y-151552904D01*
X142404761Y-148050057D02*
X142309523Y-148002438D01*
X142309523Y-148002438D02*
X142214285Y-147907200D01*
X142214285Y-147907200D02*
X142071428Y-147764342D01*
X142071428Y-147764342D02*
X141976190Y-147716723D01*
X141976190Y-147716723D02*
X141880952Y-147716723D01*
X141928571Y-147954819D02*
X141833333Y-147907200D01*
X141833333Y-147907200D02*
X141738095Y-147811961D01*
X141738095Y-147811961D02*
X141690476Y-147621485D01*
X141690476Y-147621485D02*
X141690476Y-147288152D01*
X141690476Y-147288152D02*
X141738095Y-147097676D01*
X141738095Y-147097676D02*
X141833333Y-147002438D01*
X141833333Y-147002438D02*
X141928571Y-146954819D01*
X141928571Y-146954819D02*
X142119047Y-146954819D01*
X142119047Y-146954819D02*
X142214285Y-147002438D01*
X142214285Y-147002438D02*
X142309523Y-147097676D01*
X142309523Y-147097676D02*
X142357142Y-147288152D01*
X142357142Y-147288152D02*
X142357142Y-147621485D01*
X142357142Y-147621485D02*
X142309523Y-147811961D01*
X142309523Y-147811961D02*
X142214285Y-147907200D01*
X142214285Y-147907200D02*
X142119047Y-147954819D01*
X142119047Y-147954819D02*
X141928571Y-147954819D01*
X142738095Y-147050057D02*
X142785714Y-147002438D01*
X142785714Y-147002438D02*
X142880952Y-146954819D01*
X142880952Y-146954819D02*
X143119047Y-146954819D01*
X143119047Y-146954819D02*
X143214285Y-147002438D01*
X143214285Y-147002438D02*
X143261904Y-147050057D01*
X143261904Y-147050057D02*
X143309523Y-147145295D01*
X143309523Y-147145295D02*
X143309523Y-147240533D01*
X143309523Y-147240533D02*
X143261904Y-147383390D01*
X143261904Y-147383390D02*
X142690476Y-147954819D01*
X142690476Y-147954819D02*
X143309523Y-147954819D01*
X144904761Y-141550057D02*
X144809523Y-141502438D01*
X144809523Y-141502438D02*
X144714285Y-141407200D01*
X144714285Y-141407200D02*
X144571428Y-141264342D01*
X144571428Y-141264342D02*
X144476190Y-141216723D01*
X144476190Y-141216723D02*
X144380952Y-141216723D01*
X144428571Y-141454819D02*
X144333333Y-141407200D01*
X144333333Y-141407200D02*
X144238095Y-141311961D01*
X144238095Y-141311961D02*
X144190476Y-141121485D01*
X144190476Y-141121485D02*
X144190476Y-140788152D01*
X144190476Y-140788152D02*
X144238095Y-140597676D01*
X144238095Y-140597676D02*
X144333333Y-140502438D01*
X144333333Y-140502438D02*
X144428571Y-140454819D01*
X144428571Y-140454819D02*
X144619047Y-140454819D01*
X144619047Y-140454819D02*
X144714285Y-140502438D01*
X144714285Y-140502438D02*
X144809523Y-140597676D01*
X144809523Y-140597676D02*
X144857142Y-140788152D01*
X144857142Y-140788152D02*
X144857142Y-141121485D01*
X144857142Y-141121485D02*
X144809523Y-141311961D01*
X144809523Y-141311961D02*
X144714285Y-141407200D01*
X144714285Y-141407200D02*
X144619047Y-141454819D01*
X144619047Y-141454819D02*
X144428571Y-141454819D01*
X145190476Y-140454819D02*
X145809523Y-140454819D01*
X145809523Y-140454819D02*
X145476190Y-140835771D01*
X145476190Y-140835771D02*
X145619047Y-140835771D01*
X145619047Y-140835771D02*
X145714285Y-140883390D01*
X145714285Y-140883390D02*
X145761904Y-140931009D01*
X145761904Y-140931009D02*
X145809523Y-141026247D01*
X145809523Y-141026247D02*
X145809523Y-141264342D01*
X145809523Y-141264342D02*
X145761904Y-141359580D01*
X145761904Y-141359580D02*
X145714285Y-141407200D01*
X145714285Y-141407200D02*
X145619047Y-141454819D01*
X145619047Y-141454819D02*
X145333333Y-141454819D01*
X145333333Y-141454819D02*
X145238095Y-141407200D01*
X145238095Y-141407200D02*
X145190476Y-141359580D01*
X142904761Y-132050057D02*
X142809523Y-132002438D01*
X142809523Y-132002438D02*
X142714285Y-131907200D01*
X142714285Y-131907200D02*
X142571428Y-131764342D01*
X142571428Y-131764342D02*
X142476190Y-131716723D01*
X142476190Y-131716723D02*
X142380952Y-131716723D01*
X142428571Y-131954819D02*
X142333333Y-131907200D01*
X142333333Y-131907200D02*
X142238095Y-131811961D01*
X142238095Y-131811961D02*
X142190476Y-131621485D01*
X142190476Y-131621485D02*
X142190476Y-131288152D01*
X142190476Y-131288152D02*
X142238095Y-131097676D01*
X142238095Y-131097676D02*
X142333333Y-131002438D01*
X142333333Y-131002438D02*
X142428571Y-130954819D01*
X142428571Y-130954819D02*
X142619047Y-130954819D01*
X142619047Y-130954819D02*
X142714285Y-131002438D01*
X142714285Y-131002438D02*
X142809523Y-131097676D01*
X142809523Y-131097676D02*
X142857142Y-131288152D01*
X142857142Y-131288152D02*
X142857142Y-131621485D01*
X142857142Y-131621485D02*
X142809523Y-131811961D01*
X142809523Y-131811961D02*
X142714285Y-131907200D01*
X142714285Y-131907200D02*
X142619047Y-131954819D01*
X142619047Y-131954819D02*
X142428571Y-131954819D01*
X143714285Y-131288152D02*
X143714285Y-131954819D01*
X143476190Y-130907200D02*
X143238095Y-131621485D01*
X143238095Y-131621485D02*
X143857142Y-131621485D01*
X142404761Y-127550057D02*
X142309523Y-127502438D01*
X142309523Y-127502438D02*
X142214285Y-127407200D01*
X142214285Y-127407200D02*
X142071428Y-127264342D01*
X142071428Y-127264342D02*
X141976190Y-127216723D01*
X141976190Y-127216723D02*
X141880952Y-127216723D01*
X141928571Y-127454819D02*
X141833333Y-127407200D01*
X141833333Y-127407200D02*
X141738095Y-127311961D01*
X141738095Y-127311961D02*
X141690476Y-127121485D01*
X141690476Y-127121485D02*
X141690476Y-126788152D01*
X141690476Y-126788152D02*
X141738095Y-126597676D01*
X141738095Y-126597676D02*
X141833333Y-126502438D01*
X141833333Y-126502438D02*
X141928571Y-126454819D01*
X141928571Y-126454819D02*
X142119047Y-126454819D01*
X142119047Y-126454819D02*
X142214285Y-126502438D01*
X142214285Y-126502438D02*
X142309523Y-126597676D01*
X142309523Y-126597676D02*
X142357142Y-126788152D01*
X142357142Y-126788152D02*
X142357142Y-127121485D01*
X142357142Y-127121485D02*
X142309523Y-127311961D01*
X142309523Y-127311961D02*
X142214285Y-127407200D01*
X142214285Y-127407200D02*
X142119047Y-127454819D01*
X142119047Y-127454819D02*
X141928571Y-127454819D01*
X143261904Y-126454819D02*
X142785714Y-126454819D01*
X142785714Y-126454819D02*
X142738095Y-126931009D01*
X142738095Y-126931009D02*
X142785714Y-126883390D01*
X142785714Y-126883390D02*
X142880952Y-126835771D01*
X142880952Y-126835771D02*
X143119047Y-126835771D01*
X143119047Y-126835771D02*
X143214285Y-126883390D01*
X143214285Y-126883390D02*
X143261904Y-126931009D01*
X143261904Y-126931009D02*
X143309523Y-127026247D01*
X143309523Y-127026247D02*
X143309523Y-127264342D01*
X143309523Y-127264342D02*
X143261904Y-127359580D01*
X143261904Y-127359580D02*
X143214285Y-127407200D01*
X143214285Y-127407200D02*
X143119047Y-127454819D01*
X143119047Y-127454819D02*
X142880952Y-127454819D01*
X142880952Y-127454819D02*
X142785714Y-127407200D01*
X142785714Y-127407200D02*
X142738095Y-127359580D01*
X142904761Y-116550057D02*
X142809523Y-116502438D01*
X142809523Y-116502438D02*
X142714285Y-116407200D01*
X142714285Y-116407200D02*
X142571428Y-116264342D01*
X142571428Y-116264342D02*
X142476190Y-116216723D01*
X142476190Y-116216723D02*
X142380952Y-116216723D01*
X142428571Y-116454819D02*
X142333333Y-116407200D01*
X142333333Y-116407200D02*
X142238095Y-116311961D01*
X142238095Y-116311961D02*
X142190476Y-116121485D01*
X142190476Y-116121485D02*
X142190476Y-115788152D01*
X142190476Y-115788152D02*
X142238095Y-115597676D01*
X142238095Y-115597676D02*
X142333333Y-115502438D01*
X142333333Y-115502438D02*
X142428571Y-115454819D01*
X142428571Y-115454819D02*
X142619047Y-115454819D01*
X142619047Y-115454819D02*
X142714285Y-115502438D01*
X142714285Y-115502438D02*
X142809523Y-115597676D01*
X142809523Y-115597676D02*
X142857142Y-115788152D01*
X142857142Y-115788152D02*
X142857142Y-116121485D01*
X142857142Y-116121485D02*
X142809523Y-116311961D01*
X142809523Y-116311961D02*
X142714285Y-116407200D01*
X142714285Y-116407200D02*
X142619047Y-116454819D01*
X142619047Y-116454819D02*
X142428571Y-116454819D01*
X143714285Y-115454819D02*
X143523809Y-115454819D01*
X143523809Y-115454819D02*
X143428571Y-115502438D01*
X143428571Y-115502438D02*
X143380952Y-115550057D01*
X143380952Y-115550057D02*
X143285714Y-115692914D01*
X143285714Y-115692914D02*
X143238095Y-115883390D01*
X143238095Y-115883390D02*
X143238095Y-116264342D01*
X143238095Y-116264342D02*
X143285714Y-116359580D01*
X143285714Y-116359580D02*
X143333333Y-116407200D01*
X143333333Y-116407200D02*
X143428571Y-116454819D01*
X143428571Y-116454819D02*
X143619047Y-116454819D01*
X143619047Y-116454819D02*
X143714285Y-116407200D01*
X143714285Y-116407200D02*
X143761904Y-116359580D01*
X143761904Y-116359580D02*
X143809523Y-116264342D01*
X143809523Y-116264342D02*
X143809523Y-116026247D01*
X143809523Y-116026247D02*
X143761904Y-115931009D01*
X143761904Y-115931009D02*
X143714285Y-115883390D01*
X143714285Y-115883390D02*
X143619047Y-115835771D01*
X143619047Y-115835771D02*
X143428571Y-115835771D01*
X143428571Y-115835771D02*
X143333333Y-115883390D01*
X143333333Y-115883390D02*
X143285714Y-115931009D01*
X143285714Y-115931009D02*
X143238095Y-116026247D01*
X143404761Y-112050057D02*
X143309523Y-112002438D01*
X143309523Y-112002438D02*
X143214285Y-111907200D01*
X143214285Y-111907200D02*
X143071428Y-111764342D01*
X143071428Y-111764342D02*
X142976190Y-111716723D01*
X142976190Y-111716723D02*
X142880952Y-111716723D01*
X142928571Y-111954819D02*
X142833333Y-111907200D01*
X142833333Y-111907200D02*
X142738095Y-111811961D01*
X142738095Y-111811961D02*
X142690476Y-111621485D01*
X142690476Y-111621485D02*
X142690476Y-111288152D01*
X142690476Y-111288152D02*
X142738095Y-111097676D01*
X142738095Y-111097676D02*
X142833333Y-111002438D01*
X142833333Y-111002438D02*
X142928571Y-110954819D01*
X142928571Y-110954819D02*
X143119047Y-110954819D01*
X143119047Y-110954819D02*
X143214285Y-111002438D01*
X143214285Y-111002438D02*
X143309523Y-111097676D01*
X143309523Y-111097676D02*
X143357142Y-111288152D01*
X143357142Y-111288152D02*
X143357142Y-111621485D01*
X143357142Y-111621485D02*
X143309523Y-111811961D01*
X143309523Y-111811961D02*
X143214285Y-111907200D01*
X143214285Y-111907200D02*
X143119047Y-111954819D01*
X143119047Y-111954819D02*
X142928571Y-111954819D01*
X143690476Y-110954819D02*
X144357142Y-110954819D01*
X144357142Y-110954819D02*
X143928571Y-111954819D01*
X142904761Y-102550057D02*
X142809523Y-102502438D01*
X142809523Y-102502438D02*
X142714285Y-102407200D01*
X142714285Y-102407200D02*
X142571428Y-102264342D01*
X142571428Y-102264342D02*
X142476190Y-102216723D01*
X142476190Y-102216723D02*
X142380952Y-102216723D01*
X142428571Y-102454819D02*
X142333333Y-102407200D01*
X142333333Y-102407200D02*
X142238095Y-102311961D01*
X142238095Y-102311961D02*
X142190476Y-102121485D01*
X142190476Y-102121485D02*
X142190476Y-101788152D01*
X142190476Y-101788152D02*
X142238095Y-101597676D01*
X142238095Y-101597676D02*
X142333333Y-101502438D01*
X142333333Y-101502438D02*
X142428571Y-101454819D01*
X142428571Y-101454819D02*
X142619047Y-101454819D01*
X142619047Y-101454819D02*
X142714285Y-101502438D01*
X142714285Y-101502438D02*
X142809523Y-101597676D01*
X142809523Y-101597676D02*
X142857142Y-101788152D01*
X142857142Y-101788152D02*
X142857142Y-102121485D01*
X142857142Y-102121485D02*
X142809523Y-102311961D01*
X142809523Y-102311961D02*
X142714285Y-102407200D01*
X142714285Y-102407200D02*
X142619047Y-102454819D01*
X142619047Y-102454819D02*
X142428571Y-102454819D01*
X143428571Y-101883390D02*
X143333333Y-101835771D01*
X143333333Y-101835771D02*
X143285714Y-101788152D01*
X143285714Y-101788152D02*
X143238095Y-101692914D01*
X143238095Y-101692914D02*
X143238095Y-101645295D01*
X143238095Y-101645295D02*
X143285714Y-101550057D01*
X143285714Y-101550057D02*
X143333333Y-101502438D01*
X143333333Y-101502438D02*
X143428571Y-101454819D01*
X143428571Y-101454819D02*
X143619047Y-101454819D01*
X143619047Y-101454819D02*
X143714285Y-101502438D01*
X143714285Y-101502438D02*
X143761904Y-101550057D01*
X143761904Y-101550057D02*
X143809523Y-101645295D01*
X143809523Y-101645295D02*
X143809523Y-101692914D01*
X143809523Y-101692914D02*
X143761904Y-101788152D01*
X143761904Y-101788152D02*
X143714285Y-101835771D01*
X143714285Y-101835771D02*
X143619047Y-101883390D01*
X143619047Y-101883390D02*
X143428571Y-101883390D01*
X143428571Y-101883390D02*
X143333333Y-101931009D01*
X143333333Y-101931009D02*
X143285714Y-101978628D01*
X143285714Y-101978628D02*
X143238095Y-102073866D01*
X143238095Y-102073866D02*
X143238095Y-102264342D01*
X143238095Y-102264342D02*
X143285714Y-102359580D01*
X143285714Y-102359580D02*
X143333333Y-102407200D01*
X143333333Y-102407200D02*
X143428571Y-102454819D01*
X143428571Y-102454819D02*
X143619047Y-102454819D01*
X143619047Y-102454819D02*
X143714285Y-102407200D01*
X143714285Y-102407200D02*
X143761904Y-102359580D01*
X143761904Y-102359580D02*
X143809523Y-102264342D01*
X143809523Y-102264342D02*
X143809523Y-102073866D01*
X143809523Y-102073866D02*
X143761904Y-101978628D01*
X143761904Y-101978628D02*
X143714285Y-101931009D01*
X143714285Y-101931009D02*
X143619047Y-101883390D01*
X143404761Y-97050057D02*
X143309523Y-97002438D01*
X143309523Y-97002438D02*
X143214285Y-96907200D01*
X143214285Y-96907200D02*
X143071428Y-96764342D01*
X143071428Y-96764342D02*
X142976190Y-96716723D01*
X142976190Y-96716723D02*
X142880952Y-96716723D01*
X142928571Y-96954819D02*
X142833333Y-96907200D01*
X142833333Y-96907200D02*
X142738095Y-96811961D01*
X142738095Y-96811961D02*
X142690476Y-96621485D01*
X142690476Y-96621485D02*
X142690476Y-96288152D01*
X142690476Y-96288152D02*
X142738095Y-96097676D01*
X142738095Y-96097676D02*
X142833333Y-96002438D01*
X142833333Y-96002438D02*
X142928571Y-95954819D01*
X142928571Y-95954819D02*
X143119047Y-95954819D01*
X143119047Y-95954819D02*
X143214285Y-96002438D01*
X143214285Y-96002438D02*
X143309523Y-96097676D01*
X143309523Y-96097676D02*
X143357142Y-96288152D01*
X143357142Y-96288152D02*
X143357142Y-96621485D01*
X143357142Y-96621485D02*
X143309523Y-96811961D01*
X143309523Y-96811961D02*
X143214285Y-96907200D01*
X143214285Y-96907200D02*
X143119047Y-96954819D01*
X143119047Y-96954819D02*
X142928571Y-96954819D01*
X143833333Y-96954819D02*
X144023809Y-96954819D01*
X144023809Y-96954819D02*
X144119047Y-96907200D01*
X144119047Y-96907200D02*
X144166666Y-96859580D01*
X144166666Y-96859580D02*
X144261904Y-96716723D01*
X144261904Y-96716723D02*
X144309523Y-96526247D01*
X144309523Y-96526247D02*
X144309523Y-96145295D01*
X144309523Y-96145295D02*
X144261904Y-96050057D01*
X144261904Y-96050057D02*
X144214285Y-96002438D01*
X144214285Y-96002438D02*
X144119047Y-95954819D01*
X144119047Y-95954819D02*
X143928571Y-95954819D01*
X143928571Y-95954819D02*
X143833333Y-96002438D01*
X143833333Y-96002438D02*
X143785714Y-96050057D01*
X143785714Y-96050057D02*
X143738095Y-96145295D01*
X143738095Y-96145295D02*
X143738095Y-96383390D01*
X143738095Y-96383390D02*
X143785714Y-96478628D01*
X143785714Y-96478628D02*
X143833333Y-96526247D01*
X143833333Y-96526247D02*
X143928571Y-96573866D01*
X143928571Y-96573866D02*
X144119047Y-96573866D01*
X144119047Y-96573866D02*
X144214285Y-96526247D01*
X144214285Y-96526247D02*
X144261904Y-96478628D01*
X144261904Y-96478628D02*
X144309523Y-96383390D01*
X141928571Y-87550057D02*
X141833333Y-87502438D01*
X141833333Y-87502438D02*
X141738095Y-87407200D01*
X141738095Y-87407200D02*
X141595238Y-87264342D01*
X141595238Y-87264342D02*
X141500000Y-87216723D01*
X141500000Y-87216723D02*
X141404762Y-87216723D01*
X141452381Y-87454819D02*
X141357143Y-87407200D01*
X141357143Y-87407200D02*
X141261905Y-87311961D01*
X141261905Y-87311961D02*
X141214286Y-87121485D01*
X141214286Y-87121485D02*
X141214286Y-86788152D01*
X141214286Y-86788152D02*
X141261905Y-86597676D01*
X141261905Y-86597676D02*
X141357143Y-86502438D01*
X141357143Y-86502438D02*
X141452381Y-86454819D01*
X141452381Y-86454819D02*
X141642857Y-86454819D01*
X141642857Y-86454819D02*
X141738095Y-86502438D01*
X141738095Y-86502438D02*
X141833333Y-86597676D01*
X141833333Y-86597676D02*
X141880952Y-86788152D01*
X141880952Y-86788152D02*
X141880952Y-87121485D01*
X141880952Y-87121485D02*
X141833333Y-87311961D01*
X141833333Y-87311961D02*
X141738095Y-87407200D01*
X141738095Y-87407200D02*
X141642857Y-87454819D01*
X141642857Y-87454819D02*
X141452381Y-87454819D01*
X142833333Y-87454819D02*
X142261905Y-87454819D01*
X142547619Y-87454819D02*
X142547619Y-86454819D01*
X142547619Y-86454819D02*
X142452381Y-86597676D01*
X142452381Y-86597676D02*
X142357143Y-86692914D01*
X142357143Y-86692914D02*
X142261905Y-86740533D01*
X143452381Y-86454819D02*
X143547619Y-86454819D01*
X143547619Y-86454819D02*
X143642857Y-86502438D01*
X143642857Y-86502438D02*
X143690476Y-86550057D01*
X143690476Y-86550057D02*
X143738095Y-86645295D01*
X143738095Y-86645295D02*
X143785714Y-86835771D01*
X143785714Y-86835771D02*
X143785714Y-87073866D01*
X143785714Y-87073866D02*
X143738095Y-87264342D01*
X143738095Y-87264342D02*
X143690476Y-87359580D01*
X143690476Y-87359580D02*
X143642857Y-87407200D01*
X143642857Y-87407200D02*
X143547619Y-87454819D01*
X143547619Y-87454819D02*
X143452381Y-87454819D01*
X143452381Y-87454819D02*
X143357143Y-87407200D01*
X143357143Y-87407200D02*
X143309524Y-87359580D01*
X143309524Y-87359580D02*
X143261905Y-87264342D01*
X143261905Y-87264342D02*
X143214286Y-87073866D01*
X143214286Y-87073866D02*
X143214286Y-86835771D01*
X143214286Y-86835771D02*
X143261905Y-86645295D01*
X143261905Y-86645295D02*
X143309524Y-86550057D01*
X143309524Y-86550057D02*
X143357143Y-86502438D01*
X143357143Y-86502438D02*
X143452381Y-86454819D01*
X136810057Y-85161428D02*
X136762438Y-85256666D01*
X136762438Y-85256666D02*
X136667200Y-85351904D01*
X136667200Y-85351904D02*
X136524342Y-85494761D01*
X136524342Y-85494761D02*
X136476723Y-85589999D01*
X136476723Y-85589999D02*
X136476723Y-85685237D01*
X136714819Y-85637618D02*
X136667200Y-85732856D01*
X136667200Y-85732856D02*
X136571961Y-85828094D01*
X136571961Y-85828094D02*
X136381485Y-85875713D01*
X136381485Y-85875713D02*
X136048152Y-85875713D01*
X136048152Y-85875713D02*
X135857676Y-85828094D01*
X135857676Y-85828094D02*
X135762438Y-85732856D01*
X135762438Y-85732856D02*
X135714819Y-85637618D01*
X135714819Y-85637618D02*
X135714819Y-85447142D01*
X135714819Y-85447142D02*
X135762438Y-85351904D01*
X135762438Y-85351904D02*
X135857676Y-85256666D01*
X135857676Y-85256666D02*
X136048152Y-85209047D01*
X136048152Y-85209047D02*
X136381485Y-85209047D01*
X136381485Y-85209047D02*
X136571961Y-85256666D01*
X136571961Y-85256666D02*
X136667200Y-85351904D01*
X136667200Y-85351904D02*
X136714819Y-85447142D01*
X136714819Y-85447142D02*
X136714819Y-85637618D01*
X136714819Y-84256666D02*
X136714819Y-84828094D01*
X136714819Y-84542380D02*
X135714819Y-84542380D01*
X135714819Y-84542380D02*
X135857676Y-84637618D01*
X135857676Y-84637618D02*
X135952914Y-84732856D01*
X135952914Y-84732856D02*
X136000533Y-84828094D01*
X136714819Y-83304285D02*
X136714819Y-83875713D01*
X136714819Y-83589999D02*
X135714819Y-83589999D01*
X135714819Y-83589999D02*
X135857676Y-83685237D01*
X135857676Y-83685237D02*
X135952914Y-83780475D01*
X135952914Y-83780475D02*
X136000533Y-83875713D01*
X133028571Y-77200057D02*
X132933333Y-77152438D01*
X132933333Y-77152438D02*
X132838095Y-77057200D01*
X132838095Y-77057200D02*
X132695238Y-76914342D01*
X132695238Y-76914342D02*
X132600000Y-76866723D01*
X132600000Y-76866723D02*
X132504762Y-76866723D01*
X132552381Y-77104819D02*
X132457143Y-77057200D01*
X132457143Y-77057200D02*
X132361905Y-76961961D01*
X132361905Y-76961961D02*
X132314286Y-76771485D01*
X132314286Y-76771485D02*
X132314286Y-76438152D01*
X132314286Y-76438152D02*
X132361905Y-76247676D01*
X132361905Y-76247676D02*
X132457143Y-76152438D01*
X132457143Y-76152438D02*
X132552381Y-76104819D01*
X132552381Y-76104819D02*
X132742857Y-76104819D01*
X132742857Y-76104819D02*
X132838095Y-76152438D01*
X132838095Y-76152438D02*
X132933333Y-76247676D01*
X132933333Y-76247676D02*
X132980952Y-76438152D01*
X132980952Y-76438152D02*
X132980952Y-76771485D01*
X132980952Y-76771485D02*
X132933333Y-76961961D01*
X132933333Y-76961961D02*
X132838095Y-77057200D01*
X132838095Y-77057200D02*
X132742857Y-77104819D01*
X132742857Y-77104819D02*
X132552381Y-77104819D01*
X133933333Y-77104819D02*
X133361905Y-77104819D01*
X133647619Y-77104819D02*
X133647619Y-76104819D01*
X133647619Y-76104819D02*
X133552381Y-76247676D01*
X133552381Y-76247676D02*
X133457143Y-76342914D01*
X133457143Y-76342914D02*
X133361905Y-76390533D01*
X134314286Y-76200057D02*
X134361905Y-76152438D01*
X134361905Y-76152438D02*
X134457143Y-76104819D01*
X134457143Y-76104819D02*
X134695238Y-76104819D01*
X134695238Y-76104819D02*
X134790476Y-76152438D01*
X134790476Y-76152438D02*
X134838095Y-76200057D01*
X134838095Y-76200057D02*
X134885714Y-76295295D01*
X134885714Y-76295295D02*
X134885714Y-76390533D01*
X134885714Y-76390533D02*
X134838095Y-76533390D01*
X134838095Y-76533390D02*
X134266667Y-77104819D01*
X134266667Y-77104819D02*
X134885714Y-77104819D01*
X117738095Y-89454819D02*
X117738095Y-90264342D01*
X117738095Y-90264342D02*
X117785714Y-90359580D01*
X117785714Y-90359580D02*
X117833333Y-90407200D01*
X117833333Y-90407200D02*
X117928571Y-90454819D01*
X117928571Y-90454819D02*
X118119047Y-90454819D01*
X118119047Y-90454819D02*
X118214285Y-90407200D01*
X118214285Y-90407200D02*
X118261904Y-90359580D01*
X118261904Y-90359580D02*
X118309523Y-90264342D01*
X118309523Y-90264342D02*
X118309523Y-89454819D01*
X119309523Y-90454819D02*
X118738095Y-90454819D01*
X119023809Y-90454819D02*
X119023809Y-89454819D01*
X119023809Y-89454819D02*
X118928571Y-89597676D01*
X118928571Y-89597676D02*
X118833333Y-89692914D01*
X118833333Y-89692914D02*
X118738095Y-89740533D01*
X121261905Y-81304819D02*
X121261905Y-80304819D01*
X121261905Y-80304819D02*
X121500000Y-80304819D01*
X121500000Y-80304819D02*
X121642857Y-80352438D01*
X121642857Y-80352438D02*
X121738095Y-80447676D01*
X121738095Y-80447676D02*
X121785714Y-80542914D01*
X121785714Y-80542914D02*
X121833333Y-80733390D01*
X121833333Y-80733390D02*
X121833333Y-80876247D01*
X121833333Y-80876247D02*
X121785714Y-81066723D01*
X121785714Y-81066723D02*
X121738095Y-81161961D01*
X121738095Y-81161961D02*
X121642857Y-81257200D01*
X121642857Y-81257200D02*
X121500000Y-81304819D01*
X121500000Y-81304819D02*
X121261905Y-81304819D01*
X122785714Y-81304819D02*
X122214286Y-81304819D01*
X122500000Y-81304819D02*
X122500000Y-80304819D01*
X122500000Y-80304819D02*
X122404762Y-80447676D01*
X122404762Y-80447676D02*
X122309524Y-80542914D01*
X122309524Y-80542914D02*
X122214286Y-80590533D01*
X124988095Y-75554819D02*
X124988095Y-74554819D01*
X125559523Y-75554819D02*
X125130952Y-74983390D01*
X125559523Y-74554819D02*
X124988095Y-75126247D01*
X118711905Y-75319104D02*
X119188095Y-75319104D01*
X118616667Y-75604819D02*
X118950000Y-74604819D01*
X118950000Y-74604819D02*
X119283333Y-75604819D01*
X138769819Y-135897857D02*
X138293628Y-136231190D01*
X138769819Y-136469285D02*
X137769819Y-136469285D01*
X137769819Y-136469285D02*
X137769819Y-136088333D01*
X137769819Y-136088333D02*
X137817438Y-135993095D01*
X137817438Y-135993095D02*
X137865057Y-135945476D01*
X137865057Y-135945476D02*
X137960295Y-135897857D01*
X137960295Y-135897857D02*
X138103152Y-135897857D01*
X138103152Y-135897857D02*
X138198390Y-135945476D01*
X138198390Y-135945476D02*
X138246009Y-135993095D01*
X138246009Y-135993095D02*
X138293628Y-136088333D01*
X138293628Y-136088333D02*
X138293628Y-136469285D01*
X138769819Y-134945476D02*
X138769819Y-135516904D01*
X138769819Y-135231190D02*
X137769819Y-135231190D01*
X137769819Y-135231190D02*
X137912676Y-135326428D01*
X137912676Y-135326428D02*
X138007914Y-135421666D01*
X138007914Y-135421666D02*
X138055533Y-135516904D01*
X138769819Y-133993095D02*
X138769819Y-134564523D01*
X138769819Y-134278809D02*
X137769819Y-134278809D01*
X137769819Y-134278809D02*
X137912676Y-134374047D01*
X137912676Y-134374047D02*
X138007914Y-134469285D01*
X138007914Y-134469285D02*
X138055533Y-134564523D01*
X139454819Y-139642857D02*
X138978628Y-139976190D01*
X139454819Y-140214285D02*
X138454819Y-140214285D01*
X138454819Y-140214285D02*
X138454819Y-139833333D01*
X138454819Y-139833333D02*
X138502438Y-139738095D01*
X138502438Y-139738095D02*
X138550057Y-139690476D01*
X138550057Y-139690476D02*
X138645295Y-139642857D01*
X138645295Y-139642857D02*
X138788152Y-139642857D01*
X138788152Y-139642857D02*
X138883390Y-139690476D01*
X138883390Y-139690476D02*
X138931009Y-139738095D01*
X138931009Y-139738095D02*
X138978628Y-139833333D01*
X138978628Y-139833333D02*
X138978628Y-140214285D01*
X139454819Y-138690476D02*
X139454819Y-139261904D01*
X139454819Y-138976190D02*
X138454819Y-138976190D01*
X138454819Y-138976190D02*
X138597676Y-139071428D01*
X138597676Y-139071428D02*
X138692914Y-139166666D01*
X138692914Y-139166666D02*
X138740533Y-139261904D01*
X138550057Y-138309523D02*
X138502438Y-138261904D01*
X138502438Y-138261904D02*
X138454819Y-138166666D01*
X138454819Y-138166666D02*
X138454819Y-137928571D01*
X138454819Y-137928571D02*
X138502438Y-137833333D01*
X138502438Y-137833333D02*
X138550057Y-137785714D01*
X138550057Y-137785714D02*
X138645295Y-137738095D01*
X138645295Y-137738095D02*
X138740533Y-137738095D01*
X138740533Y-137738095D02*
X138883390Y-137785714D01*
X138883390Y-137785714D02*
X139454819Y-138357142D01*
X139454819Y-138357142D02*
X139454819Y-137738095D01*
X146757142Y-139514819D02*
X146423809Y-139038628D01*
X146185714Y-139514819D02*
X146185714Y-138514819D01*
X146185714Y-138514819D02*
X146566666Y-138514819D01*
X146566666Y-138514819D02*
X146661904Y-138562438D01*
X146661904Y-138562438D02*
X146709523Y-138610057D01*
X146709523Y-138610057D02*
X146757142Y-138705295D01*
X146757142Y-138705295D02*
X146757142Y-138848152D01*
X146757142Y-138848152D02*
X146709523Y-138943390D01*
X146709523Y-138943390D02*
X146661904Y-138991009D01*
X146661904Y-138991009D02*
X146566666Y-139038628D01*
X146566666Y-139038628D02*
X146185714Y-139038628D01*
X147709523Y-139514819D02*
X147138095Y-139514819D01*
X147423809Y-139514819D02*
X147423809Y-138514819D01*
X147423809Y-138514819D02*
X147328571Y-138657676D01*
X147328571Y-138657676D02*
X147233333Y-138752914D01*
X147233333Y-138752914D02*
X147138095Y-138800533D01*
X148042857Y-138514819D02*
X148661904Y-138514819D01*
X148661904Y-138514819D02*
X148328571Y-138895771D01*
X148328571Y-138895771D02*
X148471428Y-138895771D01*
X148471428Y-138895771D02*
X148566666Y-138943390D01*
X148566666Y-138943390D02*
X148614285Y-138991009D01*
X148614285Y-138991009D02*
X148661904Y-139086247D01*
X148661904Y-139086247D02*
X148661904Y-139324342D01*
X148661904Y-139324342D02*
X148614285Y-139419580D01*
X148614285Y-139419580D02*
X148566666Y-139467200D01*
X148566666Y-139467200D02*
X148471428Y-139514819D01*
X148471428Y-139514819D02*
X148185714Y-139514819D01*
X148185714Y-139514819D02*
X148090476Y-139467200D01*
X148090476Y-139467200D02*
X148042857Y-139419580D01*
X137454819Y-129642857D02*
X136978628Y-129976190D01*
X137454819Y-130214285D02*
X136454819Y-130214285D01*
X136454819Y-130214285D02*
X136454819Y-129833333D01*
X136454819Y-129833333D02*
X136502438Y-129738095D01*
X136502438Y-129738095D02*
X136550057Y-129690476D01*
X136550057Y-129690476D02*
X136645295Y-129642857D01*
X136645295Y-129642857D02*
X136788152Y-129642857D01*
X136788152Y-129642857D02*
X136883390Y-129690476D01*
X136883390Y-129690476D02*
X136931009Y-129738095D01*
X136931009Y-129738095D02*
X136978628Y-129833333D01*
X136978628Y-129833333D02*
X136978628Y-130214285D01*
X137454819Y-128690476D02*
X137454819Y-129261904D01*
X137454819Y-128976190D02*
X136454819Y-128976190D01*
X136454819Y-128976190D02*
X136597676Y-129071428D01*
X136597676Y-129071428D02*
X136692914Y-129166666D01*
X136692914Y-129166666D02*
X136740533Y-129261904D01*
X136788152Y-127833333D02*
X137454819Y-127833333D01*
X136407200Y-128071428D02*
X137121485Y-128309523D01*
X137121485Y-128309523D02*
X137121485Y-127690476D01*
X140954819Y-128642857D02*
X140478628Y-128976190D01*
X140954819Y-129214285D02*
X139954819Y-129214285D01*
X139954819Y-129214285D02*
X139954819Y-128833333D01*
X139954819Y-128833333D02*
X140002438Y-128738095D01*
X140002438Y-128738095D02*
X140050057Y-128690476D01*
X140050057Y-128690476D02*
X140145295Y-128642857D01*
X140145295Y-128642857D02*
X140288152Y-128642857D01*
X140288152Y-128642857D02*
X140383390Y-128690476D01*
X140383390Y-128690476D02*
X140431009Y-128738095D01*
X140431009Y-128738095D02*
X140478628Y-128833333D01*
X140478628Y-128833333D02*
X140478628Y-129214285D01*
X140954819Y-127690476D02*
X140954819Y-128261904D01*
X140954819Y-127976190D02*
X139954819Y-127976190D01*
X139954819Y-127976190D02*
X140097676Y-128071428D01*
X140097676Y-128071428D02*
X140192914Y-128166666D01*
X140192914Y-128166666D02*
X140240533Y-128261904D01*
X139954819Y-126785714D02*
X139954819Y-127261904D01*
X139954819Y-127261904D02*
X140431009Y-127309523D01*
X140431009Y-127309523D02*
X140383390Y-127261904D01*
X140383390Y-127261904D02*
X140335771Y-127166666D01*
X140335771Y-127166666D02*
X140335771Y-126928571D01*
X140335771Y-126928571D02*
X140383390Y-126833333D01*
X140383390Y-126833333D02*
X140431009Y-126785714D01*
X140431009Y-126785714D02*
X140526247Y-126738095D01*
X140526247Y-126738095D02*
X140764342Y-126738095D01*
X140764342Y-126738095D02*
X140859580Y-126785714D01*
X140859580Y-126785714D02*
X140907200Y-126833333D01*
X140907200Y-126833333D02*
X140954819Y-126928571D01*
X140954819Y-126928571D02*
X140954819Y-127166666D01*
X140954819Y-127166666D02*
X140907200Y-127261904D01*
X140907200Y-127261904D02*
X140859580Y-127309523D01*
X146757142Y-124274819D02*
X146423809Y-123798628D01*
X146185714Y-124274819D02*
X146185714Y-123274819D01*
X146185714Y-123274819D02*
X146566666Y-123274819D01*
X146566666Y-123274819D02*
X146661904Y-123322438D01*
X146661904Y-123322438D02*
X146709523Y-123370057D01*
X146709523Y-123370057D02*
X146757142Y-123465295D01*
X146757142Y-123465295D02*
X146757142Y-123608152D01*
X146757142Y-123608152D02*
X146709523Y-123703390D01*
X146709523Y-123703390D02*
X146661904Y-123751009D01*
X146661904Y-123751009D02*
X146566666Y-123798628D01*
X146566666Y-123798628D02*
X146185714Y-123798628D01*
X147709523Y-124274819D02*
X147138095Y-124274819D01*
X147423809Y-124274819D02*
X147423809Y-123274819D01*
X147423809Y-123274819D02*
X147328571Y-123417676D01*
X147328571Y-123417676D02*
X147233333Y-123512914D01*
X147233333Y-123512914D02*
X147138095Y-123560533D01*
X148566666Y-123274819D02*
X148376190Y-123274819D01*
X148376190Y-123274819D02*
X148280952Y-123322438D01*
X148280952Y-123322438D02*
X148233333Y-123370057D01*
X148233333Y-123370057D02*
X148138095Y-123512914D01*
X148138095Y-123512914D02*
X148090476Y-123703390D01*
X148090476Y-123703390D02*
X148090476Y-124084342D01*
X148090476Y-124084342D02*
X148138095Y-124179580D01*
X148138095Y-124179580D02*
X148185714Y-124227200D01*
X148185714Y-124227200D02*
X148280952Y-124274819D01*
X148280952Y-124274819D02*
X148471428Y-124274819D01*
X148471428Y-124274819D02*
X148566666Y-124227200D01*
X148566666Y-124227200D02*
X148614285Y-124179580D01*
X148614285Y-124179580D02*
X148661904Y-124084342D01*
X148661904Y-124084342D02*
X148661904Y-123846247D01*
X148661904Y-123846247D02*
X148614285Y-123751009D01*
X148614285Y-123751009D02*
X148566666Y-123703390D01*
X148566666Y-123703390D02*
X148471428Y-123655771D01*
X148471428Y-123655771D02*
X148280952Y-123655771D01*
X148280952Y-123655771D02*
X148185714Y-123703390D01*
X148185714Y-123703390D02*
X148138095Y-123751009D01*
X148138095Y-123751009D02*
X148090476Y-123846247D01*
X137954819Y-115642857D02*
X137478628Y-115976190D01*
X137954819Y-116214285D02*
X136954819Y-116214285D01*
X136954819Y-116214285D02*
X136954819Y-115833333D01*
X136954819Y-115833333D02*
X137002438Y-115738095D01*
X137002438Y-115738095D02*
X137050057Y-115690476D01*
X137050057Y-115690476D02*
X137145295Y-115642857D01*
X137145295Y-115642857D02*
X137288152Y-115642857D01*
X137288152Y-115642857D02*
X137383390Y-115690476D01*
X137383390Y-115690476D02*
X137431009Y-115738095D01*
X137431009Y-115738095D02*
X137478628Y-115833333D01*
X137478628Y-115833333D02*
X137478628Y-116214285D01*
X137954819Y-114690476D02*
X137954819Y-115261904D01*
X137954819Y-114976190D02*
X136954819Y-114976190D01*
X136954819Y-114976190D02*
X137097676Y-115071428D01*
X137097676Y-115071428D02*
X137192914Y-115166666D01*
X137192914Y-115166666D02*
X137240533Y-115261904D01*
X136954819Y-114357142D02*
X136954819Y-113690476D01*
X136954819Y-113690476D02*
X137954819Y-114119047D01*
X138954819Y-109642857D02*
X138478628Y-109976190D01*
X138954819Y-110214285D02*
X137954819Y-110214285D01*
X137954819Y-110214285D02*
X137954819Y-109833333D01*
X137954819Y-109833333D02*
X138002438Y-109738095D01*
X138002438Y-109738095D02*
X138050057Y-109690476D01*
X138050057Y-109690476D02*
X138145295Y-109642857D01*
X138145295Y-109642857D02*
X138288152Y-109642857D01*
X138288152Y-109642857D02*
X138383390Y-109690476D01*
X138383390Y-109690476D02*
X138431009Y-109738095D01*
X138431009Y-109738095D02*
X138478628Y-109833333D01*
X138478628Y-109833333D02*
X138478628Y-110214285D01*
X138954819Y-108690476D02*
X138954819Y-109261904D01*
X138954819Y-108976190D02*
X137954819Y-108976190D01*
X137954819Y-108976190D02*
X138097676Y-109071428D01*
X138097676Y-109071428D02*
X138192914Y-109166666D01*
X138192914Y-109166666D02*
X138240533Y-109261904D01*
X138383390Y-108119047D02*
X138335771Y-108214285D01*
X138335771Y-108214285D02*
X138288152Y-108261904D01*
X138288152Y-108261904D02*
X138192914Y-108309523D01*
X138192914Y-108309523D02*
X138145295Y-108309523D01*
X138145295Y-108309523D02*
X138050057Y-108261904D01*
X138050057Y-108261904D02*
X138002438Y-108214285D01*
X138002438Y-108214285D02*
X137954819Y-108119047D01*
X137954819Y-108119047D02*
X137954819Y-107928571D01*
X137954819Y-107928571D02*
X138002438Y-107833333D01*
X138002438Y-107833333D02*
X138050057Y-107785714D01*
X138050057Y-107785714D02*
X138145295Y-107738095D01*
X138145295Y-107738095D02*
X138192914Y-107738095D01*
X138192914Y-107738095D02*
X138288152Y-107785714D01*
X138288152Y-107785714D02*
X138335771Y-107833333D01*
X138335771Y-107833333D02*
X138383390Y-107928571D01*
X138383390Y-107928571D02*
X138383390Y-108119047D01*
X138383390Y-108119047D02*
X138431009Y-108214285D01*
X138431009Y-108214285D02*
X138478628Y-108261904D01*
X138478628Y-108261904D02*
X138573866Y-108309523D01*
X138573866Y-108309523D02*
X138764342Y-108309523D01*
X138764342Y-108309523D02*
X138859580Y-108261904D01*
X138859580Y-108261904D02*
X138907200Y-108214285D01*
X138907200Y-108214285D02*
X138954819Y-108119047D01*
X138954819Y-108119047D02*
X138954819Y-107928571D01*
X138954819Y-107928571D02*
X138907200Y-107833333D01*
X138907200Y-107833333D02*
X138859580Y-107785714D01*
X138859580Y-107785714D02*
X138764342Y-107738095D01*
X138764342Y-107738095D02*
X138573866Y-107738095D01*
X138573866Y-107738095D02*
X138478628Y-107785714D01*
X138478628Y-107785714D02*
X138431009Y-107833333D01*
X138431009Y-107833333D02*
X138383390Y-107928571D01*
X146757142Y-109034819D02*
X146423809Y-108558628D01*
X146185714Y-109034819D02*
X146185714Y-108034819D01*
X146185714Y-108034819D02*
X146566666Y-108034819D01*
X146566666Y-108034819D02*
X146661904Y-108082438D01*
X146661904Y-108082438D02*
X146709523Y-108130057D01*
X146709523Y-108130057D02*
X146757142Y-108225295D01*
X146757142Y-108225295D02*
X146757142Y-108368152D01*
X146757142Y-108368152D02*
X146709523Y-108463390D01*
X146709523Y-108463390D02*
X146661904Y-108511009D01*
X146661904Y-108511009D02*
X146566666Y-108558628D01*
X146566666Y-108558628D02*
X146185714Y-108558628D01*
X147709523Y-109034819D02*
X147138095Y-109034819D01*
X147423809Y-109034819D02*
X147423809Y-108034819D01*
X147423809Y-108034819D02*
X147328571Y-108177676D01*
X147328571Y-108177676D02*
X147233333Y-108272914D01*
X147233333Y-108272914D02*
X147138095Y-108320533D01*
X148185714Y-109034819D02*
X148376190Y-109034819D01*
X148376190Y-109034819D02*
X148471428Y-108987200D01*
X148471428Y-108987200D02*
X148519047Y-108939580D01*
X148519047Y-108939580D02*
X148614285Y-108796723D01*
X148614285Y-108796723D02*
X148661904Y-108606247D01*
X148661904Y-108606247D02*
X148661904Y-108225295D01*
X148661904Y-108225295D02*
X148614285Y-108130057D01*
X148614285Y-108130057D02*
X148566666Y-108082438D01*
X148566666Y-108082438D02*
X148471428Y-108034819D01*
X148471428Y-108034819D02*
X148280952Y-108034819D01*
X148280952Y-108034819D02*
X148185714Y-108082438D01*
X148185714Y-108082438D02*
X148138095Y-108130057D01*
X148138095Y-108130057D02*
X148090476Y-108225295D01*
X148090476Y-108225295D02*
X148090476Y-108463390D01*
X148090476Y-108463390D02*
X148138095Y-108558628D01*
X148138095Y-108558628D02*
X148185714Y-108606247D01*
X148185714Y-108606247D02*
X148280952Y-108653866D01*
X148280952Y-108653866D02*
X148471428Y-108653866D01*
X148471428Y-108653866D02*
X148566666Y-108606247D01*
X148566666Y-108606247D02*
X148614285Y-108558628D01*
X148614285Y-108558628D02*
X148661904Y-108463390D01*
X138454819Y-99142857D02*
X137978628Y-99476190D01*
X138454819Y-99714285D02*
X137454819Y-99714285D01*
X137454819Y-99714285D02*
X137454819Y-99333333D01*
X137454819Y-99333333D02*
X137502438Y-99238095D01*
X137502438Y-99238095D02*
X137550057Y-99190476D01*
X137550057Y-99190476D02*
X137645295Y-99142857D01*
X137645295Y-99142857D02*
X137788152Y-99142857D01*
X137788152Y-99142857D02*
X137883390Y-99190476D01*
X137883390Y-99190476D02*
X137931009Y-99238095D01*
X137931009Y-99238095D02*
X137978628Y-99333333D01*
X137978628Y-99333333D02*
X137978628Y-99714285D01*
X137550057Y-98761904D02*
X137502438Y-98714285D01*
X137502438Y-98714285D02*
X137454819Y-98619047D01*
X137454819Y-98619047D02*
X137454819Y-98380952D01*
X137454819Y-98380952D02*
X137502438Y-98285714D01*
X137502438Y-98285714D02*
X137550057Y-98238095D01*
X137550057Y-98238095D02*
X137645295Y-98190476D01*
X137645295Y-98190476D02*
X137740533Y-98190476D01*
X137740533Y-98190476D02*
X137883390Y-98238095D01*
X137883390Y-98238095D02*
X138454819Y-98809523D01*
X138454819Y-98809523D02*
X138454819Y-98190476D01*
X137454819Y-97571428D02*
X137454819Y-97476190D01*
X137454819Y-97476190D02*
X137502438Y-97380952D01*
X137502438Y-97380952D02*
X137550057Y-97333333D01*
X137550057Y-97333333D02*
X137645295Y-97285714D01*
X137645295Y-97285714D02*
X137835771Y-97238095D01*
X137835771Y-97238095D02*
X138073866Y-97238095D01*
X138073866Y-97238095D02*
X138264342Y-97285714D01*
X138264342Y-97285714D02*
X138359580Y-97333333D01*
X138359580Y-97333333D02*
X138407200Y-97380952D01*
X138407200Y-97380952D02*
X138454819Y-97476190D01*
X138454819Y-97476190D02*
X138454819Y-97571428D01*
X138454819Y-97571428D02*
X138407200Y-97666666D01*
X138407200Y-97666666D02*
X138359580Y-97714285D01*
X138359580Y-97714285D02*
X138264342Y-97761904D01*
X138264342Y-97761904D02*
X138073866Y-97809523D01*
X138073866Y-97809523D02*
X137835771Y-97809523D01*
X137835771Y-97809523D02*
X137645295Y-97761904D01*
X137645295Y-97761904D02*
X137550057Y-97714285D01*
X137550057Y-97714285D02*
X137502438Y-97666666D01*
X137502438Y-97666666D02*
X137454819Y-97571428D01*
X140454819Y-98142857D02*
X139978628Y-98476190D01*
X140454819Y-98714285D02*
X139454819Y-98714285D01*
X139454819Y-98714285D02*
X139454819Y-98333333D01*
X139454819Y-98333333D02*
X139502438Y-98238095D01*
X139502438Y-98238095D02*
X139550057Y-98190476D01*
X139550057Y-98190476D02*
X139645295Y-98142857D01*
X139645295Y-98142857D02*
X139788152Y-98142857D01*
X139788152Y-98142857D02*
X139883390Y-98190476D01*
X139883390Y-98190476D02*
X139931009Y-98238095D01*
X139931009Y-98238095D02*
X139978628Y-98333333D01*
X139978628Y-98333333D02*
X139978628Y-98714285D01*
X139550057Y-97761904D02*
X139502438Y-97714285D01*
X139502438Y-97714285D02*
X139454819Y-97619047D01*
X139454819Y-97619047D02*
X139454819Y-97380952D01*
X139454819Y-97380952D02*
X139502438Y-97285714D01*
X139502438Y-97285714D02*
X139550057Y-97238095D01*
X139550057Y-97238095D02*
X139645295Y-97190476D01*
X139645295Y-97190476D02*
X139740533Y-97190476D01*
X139740533Y-97190476D02*
X139883390Y-97238095D01*
X139883390Y-97238095D02*
X140454819Y-97809523D01*
X140454819Y-97809523D02*
X140454819Y-97190476D01*
X140454819Y-96238095D02*
X140454819Y-96809523D01*
X140454819Y-96523809D02*
X139454819Y-96523809D01*
X139454819Y-96523809D02*
X139597676Y-96619047D01*
X139597676Y-96619047D02*
X139692914Y-96714285D01*
X139692914Y-96714285D02*
X139740533Y-96809523D01*
X146757142Y-93794819D02*
X146423809Y-93318628D01*
X146185714Y-93794819D02*
X146185714Y-92794819D01*
X146185714Y-92794819D02*
X146566666Y-92794819D01*
X146566666Y-92794819D02*
X146661904Y-92842438D01*
X146661904Y-92842438D02*
X146709523Y-92890057D01*
X146709523Y-92890057D02*
X146757142Y-92985295D01*
X146757142Y-92985295D02*
X146757142Y-93128152D01*
X146757142Y-93128152D02*
X146709523Y-93223390D01*
X146709523Y-93223390D02*
X146661904Y-93271009D01*
X146661904Y-93271009D02*
X146566666Y-93318628D01*
X146566666Y-93318628D02*
X146185714Y-93318628D01*
X147138095Y-92890057D02*
X147185714Y-92842438D01*
X147185714Y-92842438D02*
X147280952Y-92794819D01*
X147280952Y-92794819D02*
X147519047Y-92794819D01*
X147519047Y-92794819D02*
X147614285Y-92842438D01*
X147614285Y-92842438D02*
X147661904Y-92890057D01*
X147661904Y-92890057D02*
X147709523Y-92985295D01*
X147709523Y-92985295D02*
X147709523Y-93080533D01*
X147709523Y-93080533D02*
X147661904Y-93223390D01*
X147661904Y-93223390D02*
X147090476Y-93794819D01*
X147090476Y-93794819D02*
X147709523Y-93794819D01*
X148090476Y-92890057D02*
X148138095Y-92842438D01*
X148138095Y-92842438D02*
X148233333Y-92794819D01*
X148233333Y-92794819D02*
X148471428Y-92794819D01*
X148471428Y-92794819D02*
X148566666Y-92842438D01*
X148566666Y-92842438D02*
X148614285Y-92890057D01*
X148614285Y-92890057D02*
X148661904Y-92985295D01*
X148661904Y-92985295D02*
X148661904Y-93080533D01*
X148661904Y-93080533D02*
X148614285Y-93223390D01*
X148614285Y-93223390D02*
X148042857Y-93794819D01*
X148042857Y-93794819D02*
X148661904Y-93794819D01*
X135357142Y-90454819D02*
X135023809Y-89978628D01*
X134785714Y-90454819D02*
X134785714Y-89454819D01*
X134785714Y-89454819D02*
X135166666Y-89454819D01*
X135166666Y-89454819D02*
X135261904Y-89502438D01*
X135261904Y-89502438D02*
X135309523Y-89550057D01*
X135309523Y-89550057D02*
X135357142Y-89645295D01*
X135357142Y-89645295D02*
X135357142Y-89788152D01*
X135357142Y-89788152D02*
X135309523Y-89883390D01*
X135309523Y-89883390D02*
X135261904Y-89931009D01*
X135261904Y-89931009D02*
X135166666Y-89978628D01*
X135166666Y-89978628D02*
X134785714Y-89978628D01*
X135738095Y-89550057D02*
X135785714Y-89502438D01*
X135785714Y-89502438D02*
X135880952Y-89454819D01*
X135880952Y-89454819D02*
X136119047Y-89454819D01*
X136119047Y-89454819D02*
X136214285Y-89502438D01*
X136214285Y-89502438D02*
X136261904Y-89550057D01*
X136261904Y-89550057D02*
X136309523Y-89645295D01*
X136309523Y-89645295D02*
X136309523Y-89740533D01*
X136309523Y-89740533D02*
X136261904Y-89883390D01*
X136261904Y-89883390D02*
X135690476Y-90454819D01*
X135690476Y-90454819D02*
X136309523Y-90454819D01*
X136642857Y-89454819D02*
X137261904Y-89454819D01*
X137261904Y-89454819D02*
X136928571Y-89835771D01*
X136928571Y-89835771D02*
X137071428Y-89835771D01*
X137071428Y-89835771D02*
X137166666Y-89883390D01*
X137166666Y-89883390D02*
X137214285Y-89931009D01*
X137214285Y-89931009D02*
X137261904Y-90026247D01*
X137261904Y-90026247D02*
X137261904Y-90264342D01*
X137261904Y-90264342D02*
X137214285Y-90359580D01*
X137214285Y-90359580D02*
X137166666Y-90407200D01*
X137166666Y-90407200D02*
X137071428Y-90454819D01*
X137071428Y-90454819D02*
X136785714Y-90454819D01*
X136785714Y-90454819D02*
X136690476Y-90407200D01*
X136690476Y-90407200D02*
X136642857Y-90359580D01*
X140617142Y-88869819D02*
X140283809Y-88393628D01*
X140045714Y-88869819D02*
X140045714Y-87869819D01*
X140045714Y-87869819D02*
X140426666Y-87869819D01*
X140426666Y-87869819D02*
X140521904Y-87917438D01*
X140521904Y-87917438D02*
X140569523Y-87965057D01*
X140569523Y-87965057D02*
X140617142Y-88060295D01*
X140617142Y-88060295D02*
X140617142Y-88203152D01*
X140617142Y-88203152D02*
X140569523Y-88298390D01*
X140569523Y-88298390D02*
X140521904Y-88346009D01*
X140521904Y-88346009D02*
X140426666Y-88393628D01*
X140426666Y-88393628D02*
X140045714Y-88393628D01*
X140998095Y-87965057D02*
X141045714Y-87917438D01*
X141045714Y-87917438D02*
X141140952Y-87869819D01*
X141140952Y-87869819D02*
X141379047Y-87869819D01*
X141379047Y-87869819D02*
X141474285Y-87917438D01*
X141474285Y-87917438D02*
X141521904Y-87965057D01*
X141521904Y-87965057D02*
X141569523Y-88060295D01*
X141569523Y-88060295D02*
X141569523Y-88155533D01*
X141569523Y-88155533D02*
X141521904Y-88298390D01*
X141521904Y-88298390D02*
X140950476Y-88869819D01*
X140950476Y-88869819D02*
X141569523Y-88869819D01*
X142426666Y-88203152D02*
X142426666Y-88869819D01*
X142188571Y-87822200D02*
X141950476Y-88536485D01*
X141950476Y-88536485D02*
X142569523Y-88536485D01*
X138357142Y-84354819D02*
X138023809Y-83878628D01*
X137785714Y-84354819D02*
X137785714Y-83354819D01*
X137785714Y-83354819D02*
X138166666Y-83354819D01*
X138166666Y-83354819D02*
X138261904Y-83402438D01*
X138261904Y-83402438D02*
X138309523Y-83450057D01*
X138309523Y-83450057D02*
X138357142Y-83545295D01*
X138357142Y-83545295D02*
X138357142Y-83688152D01*
X138357142Y-83688152D02*
X138309523Y-83783390D01*
X138309523Y-83783390D02*
X138261904Y-83831009D01*
X138261904Y-83831009D02*
X138166666Y-83878628D01*
X138166666Y-83878628D02*
X137785714Y-83878628D01*
X138738095Y-83450057D02*
X138785714Y-83402438D01*
X138785714Y-83402438D02*
X138880952Y-83354819D01*
X138880952Y-83354819D02*
X139119047Y-83354819D01*
X139119047Y-83354819D02*
X139214285Y-83402438D01*
X139214285Y-83402438D02*
X139261904Y-83450057D01*
X139261904Y-83450057D02*
X139309523Y-83545295D01*
X139309523Y-83545295D02*
X139309523Y-83640533D01*
X139309523Y-83640533D02*
X139261904Y-83783390D01*
X139261904Y-83783390D02*
X138690476Y-84354819D01*
X138690476Y-84354819D02*
X139309523Y-84354819D01*
X140214285Y-83354819D02*
X139738095Y-83354819D01*
X139738095Y-83354819D02*
X139690476Y-83831009D01*
X139690476Y-83831009D02*
X139738095Y-83783390D01*
X139738095Y-83783390D02*
X139833333Y-83735771D01*
X139833333Y-83735771D02*
X140071428Y-83735771D01*
X140071428Y-83735771D02*
X140166666Y-83783390D01*
X140166666Y-83783390D02*
X140214285Y-83831009D01*
X140214285Y-83831009D02*
X140261904Y-83926247D01*
X140261904Y-83926247D02*
X140261904Y-84164342D01*
X140261904Y-84164342D02*
X140214285Y-84259580D01*
X140214285Y-84259580D02*
X140166666Y-84307200D01*
X140166666Y-84307200D02*
X140071428Y-84354819D01*
X140071428Y-84354819D02*
X139833333Y-84354819D01*
X139833333Y-84354819D02*
X139738095Y-84307200D01*
X139738095Y-84307200D02*
X139690476Y-84259580D01*
X117454819Y-147642857D02*
X116978628Y-147976190D01*
X117454819Y-148214285D02*
X116454819Y-148214285D01*
X116454819Y-148214285D02*
X116454819Y-147833333D01*
X116454819Y-147833333D02*
X116502438Y-147738095D01*
X116502438Y-147738095D02*
X116550057Y-147690476D01*
X116550057Y-147690476D02*
X116645295Y-147642857D01*
X116645295Y-147642857D02*
X116788152Y-147642857D01*
X116788152Y-147642857D02*
X116883390Y-147690476D01*
X116883390Y-147690476D02*
X116931009Y-147738095D01*
X116931009Y-147738095D02*
X116978628Y-147833333D01*
X116978628Y-147833333D02*
X116978628Y-148214285D01*
X116454819Y-147309523D02*
X116454819Y-146690476D01*
X116454819Y-146690476D02*
X116835771Y-147023809D01*
X116835771Y-147023809D02*
X116835771Y-146880952D01*
X116835771Y-146880952D02*
X116883390Y-146785714D01*
X116883390Y-146785714D02*
X116931009Y-146738095D01*
X116931009Y-146738095D02*
X117026247Y-146690476D01*
X117026247Y-146690476D02*
X117264342Y-146690476D01*
X117264342Y-146690476D02*
X117359580Y-146738095D01*
X117359580Y-146738095D02*
X117407200Y-146785714D01*
X117407200Y-146785714D02*
X117454819Y-146880952D01*
X117454819Y-146880952D02*
X117454819Y-147166666D01*
X117454819Y-147166666D02*
X117407200Y-147261904D01*
X117407200Y-147261904D02*
X117359580Y-147309523D01*
X117454819Y-145738095D02*
X117454819Y-146309523D01*
X117454819Y-146023809D02*
X116454819Y-146023809D01*
X116454819Y-146023809D02*
X116597676Y-146119047D01*
X116597676Y-146119047D02*
X116692914Y-146214285D01*
X116692914Y-146214285D02*
X116740533Y-146309523D01*
X122833333Y-145454819D02*
X122500000Y-144978628D01*
X122261905Y-145454819D02*
X122261905Y-144454819D01*
X122261905Y-144454819D02*
X122642857Y-144454819D01*
X122642857Y-144454819D02*
X122738095Y-144502438D01*
X122738095Y-144502438D02*
X122785714Y-144550057D01*
X122785714Y-144550057D02*
X122833333Y-144645295D01*
X122833333Y-144645295D02*
X122833333Y-144788152D01*
X122833333Y-144788152D02*
X122785714Y-144883390D01*
X122785714Y-144883390D02*
X122738095Y-144931009D01*
X122738095Y-144931009D02*
X122642857Y-144978628D01*
X122642857Y-144978628D02*
X122261905Y-144978628D01*
X123785714Y-145454819D02*
X123214286Y-145454819D01*
X123500000Y-145454819D02*
X123500000Y-144454819D01*
X123500000Y-144454819D02*
X123404762Y-144597676D01*
X123404762Y-144597676D02*
X123309524Y-144692914D01*
X123309524Y-144692914D02*
X123214286Y-144740533D01*
X133833333Y-144454819D02*
X133500000Y-143978628D01*
X133261905Y-144454819D02*
X133261905Y-143454819D01*
X133261905Y-143454819D02*
X133642857Y-143454819D01*
X133642857Y-143454819D02*
X133738095Y-143502438D01*
X133738095Y-143502438D02*
X133785714Y-143550057D01*
X133785714Y-143550057D02*
X133833333Y-143645295D01*
X133833333Y-143645295D02*
X133833333Y-143788152D01*
X133833333Y-143788152D02*
X133785714Y-143883390D01*
X133785714Y-143883390D02*
X133738095Y-143931009D01*
X133738095Y-143931009D02*
X133642857Y-143978628D01*
X133642857Y-143978628D02*
X133261905Y-143978628D01*
X134404762Y-143883390D02*
X134309524Y-143835771D01*
X134309524Y-143835771D02*
X134261905Y-143788152D01*
X134261905Y-143788152D02*
X134214286Y-143692914D01*
X134214286Y-143692914D02*
X134214286Y-143645295D01*
X134214286Y-143645295D02*
X134261905Y-143550057D01*
X134261905Y-143550057D02*
X134309524Y-143502438D01*
X134309524Y-143502438D02*
X134404762Y-143454819D01*
X134404762Y-143454819D02*
X134595238Y-143454819D01*
X134595238Y-143454819D02*
X134690476Y-143502438D01*
X134690476Y-143502438D02*
X134738095Y-143550057D01*
X134738095Y-143550057D02*
X134785714Y-143645295D01*
X134785714Y-143645295D02*
X134785714Y-143692914D01*
X134785714Y-143692914D02*
X134738095Y-143788152D01*
X134738095Y-143788152D02*
X134690476Y-143835771D01*
X134690476Y-143835771D02*
X134595238Y-143883390D01*
X134595238Y-143883390D02*
X134404762Y-143883390D01*
X134404762Y-143883390D02*
X134309524Y-143931009D01*
X134309524Y-143931009D02*
X134261905Y-143978628D01*
X134261905Y-143978628D02*
X134214286Y-144073866D01*
X134214286Y-144073866D02*
X134214286Y-144264342D01*
X134214286Y-144264342D02*
X134261905Y-144359580D01*
X134261905Y-144359580D02*
X134309524Y-144407200D01*
X134309524Y-144407200D02*
X134404762Y-144454819D01*
X134404762Y-144454819D02*
X134595238Y-144454819D01*
X134595238Y-144454819D02*
X134690476Y-144407200D01*
X134690476Y-144407200D02*
X134738095Y-144359580D01*
X134738095Y-144359580D02*
X134785714Y-144264342D01*
X134785714Y-144264342D02*
X134785714Y-144073866D01*
X134785714Y-144073866D02*
X134738095Y-143978628D01*
X134738095Y-143978628D02*
X134690476Y-143931009D01*
X134690476Y-143931009D02*
X134595238Y-143883390D01*
X133833333Y-147454819D02*
X133500000Y-146978628D01*
X133261905Y-147454819D02*
X133261905Y-146454819D01*
X133261905Y-146454819D02*
X133642857Y-146454819D01*
X133642857Y-146454819D02*
X133738095Y-146502438D01*
X133738095Y-146502438D02*
X133785714Y-146550057D01*
X133785714Y-146550057D02*
X133833333Y-146645295D01*
X133833333Y-146645295D02*
X133833333Y-146788152D01*
X133833333Y-146788152D02*
X133785714Y-146883390D01*
X133785714Y-146883390D02*
X133738095Y-146931009D01*
X133738095Y-146931009D02*
X133642857Y-146978628D01*
X133642857Y-146978628D02*
X133261905Y-146978628D01*
X134309524Y-147454819D02*
X134500000Y-147454819D01*
X134500000Y-147454819D02*
X134595238Y-147407200D01*
X134595238Y-147407200D02*
X134642857Y-147359580D01*
X134642857Y-147359580D02*
X134738095Y-147216723D01*
X134738095Y-147216723D02*
X134785714Y-147026247D01*
X134785714Y-147026247D02*
X134785714Y-146645295D01*
X134785714Y-146645295D02*
X134738095Y-146550057D01*
X134738095Y-146550057D02*
X134690476Y-146502438D01*
X134690476Y-146502438D02*
X134595238Y-146454819D01*
X134595238Y-146454819D02*
X134404762Y-146454819D01*
X134404762Y-146454819D02*
X134309524Y-146502438D01*
X134309524Y-146502438D02*
X134261905Y-146550057D01*
X134261905Y-146550057D02*
X134214286Y-146645295D01*
X134214286Y-146645295D02*
X134214286Y-146883390D01*
X134214286Y-146883390D02*
X134261905Y-146978628D01*
X134261905Y-146978628D02*
X134309524Y-147026247D01*
X134309524Y-147026247D02*
X134404762Y-147073866D01*
X134404762Y-147073866D02*
X134595238Y-147073866D01*
X134595238Y-147073866D02*
X134690476Y-147026247D01*
X134690476Y-147026247D02*
X134738095Y-146978628D01*
X134738095Y-146978628D02*
X134785714Y-146883390D01*
X146357142Y-155454819D02*
X146023809Y-154978628D01*
X145785714Y-155454819D02*
X145785714Y-154454819D01*
X145785714Y-154454819D02*
X146166666Y-154454819D01*
X146166666Y-154454819D02*
X146261904Y-154502438D01*
X146261904Y-154502438D02*
X146309523Y-154550057D01*
X146309523Y-154550057D02*
X146357142Y-154645295D01*
X146357142Y-154645295D02*
X146357142Y-154788152D01*
X146357142Y-154788152D02*
X146309523Y-154883390D01*
X146309523Y-154883390D02*
X146261904Y-154931009D01*
X146261904Y-154931009D02*
X146166666Y-154978628D01*
X146166666Y-154978628D02*
X145785714Y-154978628D01*
X147309523Y-155454819D02*
X146738095Y-155454819D01*
X147023809Y-155454819D02*
X147023809Y-154454819D01*
X147023809Y-154454819D02*
X146928571Y-154597676D01*
X146928571Y-154597676D02*
X146833333Y-154692914D01*
X146833333Y-154692914D02*
X146738095Y-154740533D01*
X147928571Y-154454819D02*
X148023809Y-154454819D01*
X148023809Y-154454819D02*
X148119047Y-154502438D01*
X148119047Y-154502438D02*
X148166666Y-154550057D01*
X148166666Y-154550057D02*
X148214285Y-154645295D01*
X148214285Y-154645295D02*
X148261904Y-154835771D01*
X148261904Y-154835771D02*
X148261904Y-155073866D01*
X148261904Y-155073866D02*
X148214285Y-155264342D01*
X148214285Y-155264342D02*
X148166666Y-155359580D01*
X148166666Y-155359580D02*
X148119047Y-155407200D01*
X148119047Y-155407200D02*
X148023809Y-155454819D01*
X148023809Y-155454819D02*
X147928571Y-155454819D01*
X147928571Y-155454819D02*
X147833333Y-155407200D01*
X147833333Y-155407200D02*
X147785714Y-155359580D01*
X147785714Y-155359580D02*
X147738095Y-155264342D01*
X147738095Y-155264342D02*
X147690476Y-155073866D01*
X147690476Y-155073866D02*
X147690476Y-154835771D01*
X147690476Y-154835771D02*
X147738095Y-154645295D01*
X147738095Y-154645295D02*
X147785714Y-154550057D01*
X147785714Y-154550057D02*
X147833333Y-154502438D01*
X147833333Y-154502438D02*
X147928571Y-154454819D01*
X126428571Y-132550057D02*
X126333333Y-132502438D01*
X126333333Y-132502438D02*
X126238095Y-132407200D01*
X126238095Y-132407200D02*
X126095238Y-132264342D01*
X126095238Y-132264342D02*
X126000000Y-132216723D01*
X126000000Y-132216723D02*
X125904762Y-132216723D01*
X125952381Y-132454819D02*
X125857143Y-132407200D01*
X125857143Y-132407200D02*
X125761905Y-132311961D01*
X125761905Y-132311961D02*
X125714286Y-132121485D01*
X125714286Y-132121485D02*
X125714286Y-131788152D01*
X125714286Y-131788152D02*
X125761905Y-131597676D01*
X125761905Y-131597676D02*
X125857143Y-131502438D01*
X125857143Y-131502438D02*
X125952381Y-131454819D01*
X125952381Y-131454819D02*
X126142857Y-131454819D01*
X126142857Y-131454819D02*
X126238095Y-131502438D01*
X126238095Y-131502438D02*
X126333333Y-131597676D01*
X126333333Y-131597676D02*
X126380952Y-131788152D01*
X126380952Y-131788152D02*
X126380952Y-132121485D01*
X126380952Y-132121485D02*
X126333333Y-132311961D01*
X126333333Y-132311961D02*
X126238095Y-132407200D01*
X126238095Y-132407200D02*
X126142857Y-132454819D01*
X126142857Y-132454819D02*
X125952381Y-132454819D01*
X127333333Y-132454819D02*
X126761905Y-132454819D01*
X127047619Y-132454819D02*
X127047619Y-131454819D01*
X127047619Y-131454819D02*
X126952381Y-131597676D01*
X126952381Y-131597676D02*
X126857143Y-131692914D01*
X126857143Y-131692914D02*
X126761905Y-131740533D01*
X127666667Y-131454819D02*
X128285714Y-131454819D01*
X128285714Y-131454819D02*
X127952381Y-131835771D01*
X127952381Y-131835771D02*
X128095238Y-131835771D01*
X128095238Y-131835771D02*
X128190476Y-131883390D01*
X128190476Y-131883390D02*
X128238095Y-131931009D01*
X128238095Y-131931009D02*
X128285714Y-132026247D01*
X128285714Y-132026247D02*
X128285714Y-132264342D01*
X128285714Y-132264342D02*
X128238095Y-132359580D01*
X128238095Y-132359580D02*
X128190476Y-132407200D01*
X128190476Y-132407200D02*
X128095238Y-132454819D01*
X128095238Y-132454819D02*
X127809524Y-132454819D01*
X127809524Y-132454819D02*
X127714286Y-132407200D01*
X127714286Y-132407200D02*
X127666667Y-132359580D01*
X126428571Y-126050057D02*
X126333333Y-126002438D01*
X126333333Y-126002438D02*
X126238095Y-125907200D01*
X126238095Y-125907200D02*
X126095238Y-125764342D01*
X126095238Y-125764342D02*
X126000000Y-125716723D01*
X126000000Y-125716723D02*
X125904762Y-125716723D01*
X125952381Y-125954819D02*
X125857143Y-125907200D01*
X125857143Y-125907200D02*
X125761905Y-125811961D01*
X125761905Y-125811961D02*
X125714286Y-125621485D01*
X125714286Y-125621485D02*
X125714286Y-125288152D01*
X125714286Y-125288152D02*
X125761905Y-125097676D01*
X125761905Y-125097676D02*
X125857143Y-125002438D01*
X125857143Y-125002438D02*
X125952381Y-124954819D01*
X125952381Y-124954819D02*
X126142857Y-124954819D01*
X126142857Y-124954819D02*
X126238095Y-125002438D01*
X126238095Y-125002438D02*
X126333333Y-125097676D01*
X126333333Y-125097676D02*
X126380952Y-125288152D01*
X126380952Y-125288152D02*
X126380952Y-125621485D01*
X126380952Y-125621485D02*
X126333333Y-125811961D01*
X126333333Y-125811961D02*
X126238095Y-125907200D01*
X126238095Y-125907200D02*
X126142857Y-125954819D01*
X126142857Y-125954819D02*
X125952381Y-125954819D01*
X127333333Y-125954819D02*
X126761905Y-125954819D01*
X127047619Y-125954819D02*
X127047619Y-124954819D01*
X127047619Y-124954819D02*
X126952381Y-125097676D01*
X126952381Y-125097676D02*
X126857143Y-125192914D01*
X126857143Y-125192914D02*
X126761905Y-125240533D01*
X128190476Y-125288152D02*
X128190476Y-125954819D01*
X127952381Y-124907200D02*
X127714286Y-125621485D01*
X127714286Y-125621485D02*
X128333333Y-125621485D01*
X126428571Y-120050057D02*
X126333333Y-120002438D01*
X126333333Y-120002438D02*
X126238095Y-119907200D01*
X126238095Y-119907200D02*
X126095238Y-119764342D01*
X126095238Y-119764342D02*
X126000000Y-119716723D01*
X126000000Y-119716723D02*
X125904762Y-119716723D01*
X125952381Y-119954819D02*
X125857143Y-119907200D01*
X125857143Y-119907200D02*
X125761905Y-119811961D01*
X125761905Y-119811961D02*
X125714286Y-119621485D01*
X125714286Y-119621485D02*
X125714286Y-119288152D01*
X125714286Y-119288152D02*
X125761905Y-119097676D01*
X125761905Y-119097676D02*
X125857143Y-119002438D01*
X125857143Y-119002438D02*
X125952381Y-118954819D01*
X125952381Y-118954819D02*
X126142857Y-118954819D01*
X126142857Y-118954819D02*
X126238095Y-119002438D01*
X126238095Y-119002438D02*
X126333333Y-119097676D01*
X126333333Y-119097676D02*
X126380952Y-119288152D01*
X126380952Y-119288152D02*
X126380952Y-119621485D01*
X126380952Y-119621485D02*
X126333333Y-119811961D01*
X126333333Y-119811961D02*
X126238095Y-119907200D01*
X126238095Y-119907200D02*
X126142857Y-119954819D01*
X126142857Y-119954819D02*
X125952381Y-119954819D01*
X127333333Y-119954819D02*
X126761905Y-119954819D01*
X127047619Y-119954819D02*
X127047619Y-118954819D01*
X127047619Y-118954819D02*
X126952381Y-119097676D01*
X126952381Y-119097676D02*
X126857143Y-119192914D01*
X126857143Y-119192914D02*
X126761905Y-119240533D01*
X128238095Y-118954819D02*
X127761905Y-118954819D01*
X127761905Y-118954819D02*
X127714286Y-119431009D01*
X127714286Y-119431009D02*
X127761905Y-119383390D01*
X127761905Y-119383390D02*
X127857143Y-119335771D01*
X127857143Y-119335771D02*
X128095238Y-119335771D01*
X128095238Y-119335771D02*
X128190476Y-119383390D01*
X128190476Y-119383390D02*
X128238095Y-119431009D01*
X128238095Y-119431009D02*
X128285714Y-119526247D01*
X128285714Y-119526247D02*
X128285714Y-119764342D01*
X128285714Y-119764342D02*
X128238095Y-119859580D01*
X128238095Y-119859580D02*
X128190476Y-119907200D01*
X128190476Y-119907200D02*
X128095238Y-119954819D01*
X128095238Y-119954819D02*
X127857143Y-119954819D01*
X127857143Y-119954819D02*
X127761905Y-119907200D01*
X127761905Y-119907200D02*
X127714286Y-119859580D01*
X125928571Y-112550057D02*
X125833333Y-112502438D01*
X125833333Y-112502438D02*
X125738095Y-112407200D01*
X125738095Y-112407200D02*
X125595238Y-112264342D01*
X125595238Y-112264342D02*
X125500000Y-112216723D01*
X125500000Y-112216723D02*
X125404762Y-112216723D01*
X125452381Y-112454819D02*
X125357143Y-112407200D01*
X125357143Y-112407200D02*
X125261905Y-112311961D01*
X125261905Y-112311961D02*
X125214286Y-112121485D01*
X125214286Y-112121485D02*
X125214286Y-111788152D01*
X125214286Y-111788152D02*
X125261905Y-111597676D01*
X125261905Y-111597676D02*
X125357143Y-111502438D01*
X125357143Y-111502438D02*
X125452381Y-111454819D01*
X125452381Y-111454819D02*
X125642857Y-111454819D01*
X125642857Y-111454819D02*
X125738095Y-111502438D01*
X125738095Y-111502438D02*
X125833333Y-111597676D01*
X125833333Y-111597676D02*
X125880952Y-111788152D01*
X125880952Y-111788152D02*
X125880952Y-112121485D01*
X125880952Y-112121485D02*
X125833333Y-112311961D01*
X125833333Y-112311961D02*
X125738095Y-112407200D01*
X125738095Y-112407200D02*
X125642857Y-112454819D01*
X125642857Y-112454819D02*
X125452381Y-112454819D01*
X126833333Y-112454819D02*
X126261905Y-112454819D01*
X126547619Y-112454819D02*
X126547619Y-111454819D01*
X126547619Y-111454819D02*
X126452381Y-111597676D01*
X126452381Y-111597676D02*
X126357143Y-111692914D01*
X126357143Y-111692914D02*
X126261905Y-111740533D01*
X127690476Y-111454819D02*
X127500000Y-111454819D01*
X127500000Y-111454819D02*
X127404762Y-111502438D01*
X127404762Y-111502438D02*
X127357143Y-111550057D01*
X127357143Y-111550057D02*
X127261905Y-111692914D01*
X127261905Y-111692914D02*
X127214286Y-111883390D01*
X127214286Y-111883390D02*
X127214286Y-112264342D01*
X127214286Y-112264342D02*
X127261905Y-112359580D01*
X127261905Y-112359580D02*
X127309524Y-112407200D01*
X127309524Y-112407200D02*
X127404762Y-112454819D01*
X127404762Y-112454819D02*
X127595238Y-112454819D01*
X127595238Y-112454819D02*
X127690476Y-112407200D01*
X127690476Y-112407200D02*
X127738095Y-112359580D01*
X127738095Y-112359580D02*
X127785714Y-112264342D01*
X127785714Y-112264342D02*
X127785714Y-112026247D01*
X127785714Y-112026247D02*
X127738095Y-111931009D01*
X127738095Y-111931009D02*
X127690476Y-111883390D01*
X127690476Y-111883390D02*
X127595238Y-111835771D01*
X127595238Y-111835771D02*
X127404762Y-111835771D01*
X127404762Y-111835771D02*
X127309524Y-111883390D01*
X127309524Y-111883390D02*
X127261905Y-111931009D01*
X127261905Y-111931009D02*
X127214286Y-112026247D01*
X125928571Y-105550057D02*
X125833333Y-105502438D01*
X125833333Y-105502438D02*
X125738095Y-105407200D01*
X125738095Y-105407200D02*
X125595238Y-105264342D01*
X125595238Y-105264342D02*
X125500000Y-105216723D01*
X125500000Y-105216723D02*
X125404762Y-105216723D01*
X125452381Y-105454819D02*
X125357143Y-105407200D01*
X125357143Y-105407200D02*
X125261905Y-105311961D01*
X125261905Y-105311961D02*
X125214286Y-105121485D01*
X125214286Y-105121485D02*
X125214286Y-104788152D01*
X125214286Y-104788152D02*
X125261905Y-104597676D01*
X125261905Y-104597676D02*
X125357143Y-104502438D01*
X125357143Y-104502438D02*
X125452381Y-104454819D01*
X125452381Y-104454819D02*
X125642857Y-104454819D01*
X125642857Y-104454819D02*
X125738095Y-104502438D01*
X125738095Y-104502438D02*
X125833333Y-104597676D01*
X125833333Y-104597676D02*
X125880952Y-104788152D01*
X125880952Y-104788152D02*
X125880952Y-105121485D01*
X125880952Y-105121485D02*
X125833333Y-105311961D01*
X125833333Y-105311961D02*
X125738095Y-105407200D01*
X125738095Y-105407200D02*
X125642857Y-105454819D01*
X125642857Y-105454819D02*
X125452381Y-105454819D01*
X126833333Y-105454819D02*
X126261905Y-105454819D01*
X126547619Y-105454819D02*
X126547619Y-104454819D01*
X126547619Y-104454819D02*
X126452381Y-104597676D01*
X126452381Y-104597676D02*
X126357143Y-104692914D01*
X126357143Y-104692914D02*
X126261905Y-104740533D01*
X127166667Y-104454819D02*
X127833333Y-104454819D01*
X127833333Y-104454819D02*
X127404762Y-105454819D01*
X128050057Y-95571428D02*
X128002438Y-95666666D01*
X128002438Y-95666666D02*
X127907200Y-95761904D01*
X127907200Y-95761904D02*
X127764342Y-95904761D01*
X127764342Y-95904761D02*
X127716723Y-95999999D01*
X127716723Y-95999999D02*
X127716723Y-96095237D01*
X127954819Y-96047618D02*
X127907200Y-96142856D01*
X127907200Y-96142856D02*
X127811961Y-96238094D01*
X127811961Y-96238094D02*
X127621485Y-96285713D01*
X127621485Y-96285713D02*
X127288152Y-96285713D01*
X127288152Y-96285713D02*
X127097676Y-96238094D01*
X127097676Y-96238094D02*
X127002438Y-96142856D01*
X127002438Y-96142856D02*
X126954819Y-96047618D01*
X126954819Y-96047618D02*
X126954819Y-95857142D01*
X126954819Y-95857142D02*
X127002438Y-95761904D01*
X127002438Y-95761904D02*
X127097676Y-95666666D01*
X127097676Y-95666666D02*
X127288152Y-95619047D01*
X127288152Y-95619047D02*
X127621485Y-95619047D01*
X127621485Y-95619047D02*
X127811961Y-95666666D01*
X127811961Y-95666666D02*
X127907200Y-95761904D01*
X127907200Y-95761904D02*
X127954819Y-95857142D01*
X127954819Y-95857142D02*
X127954819Y-96047618D01*
X127954819Y-94666666D02*
X127954819Y-95238094D01*
X127954819Y-94952380D02*
X126954819Y-94952380D01*
X126954819Y-94952380D02*
X127097676Y-95047618D01*
X127097676Y-95047618D02*
X127192914Y-95142856D01*
X127192914Y-95142856D02*
X127240533Y-95238094D01*
X127383390Y-94095237D02*
X127335771Y-94190475D01*
X127335771Y-94190475D02*
X127288152Y-94238094D01*
X127288152Y-94238094D02*
X127192914Y-94285713D01*
X127192914Y-94285713D02*
X127145295Y-94285713D01*
X127145295Y-94285713D02*
X127050057Y-94238094D01*
X127050057Y-94238094D02*
X127002438Y-94190475D01*
X127002438Y-94190475D02*
X126954819Y-94095237D01*
X126954819Y-94095237D02*
X126954819Y-93904761D01*
X126954819Y-93904761D02*
X127002438Y-93809523D01*
X127002438Y-93809523D02*
X127050057Y-93761904D01*
X127050057Y-93761904D02*
X127145295Y-93714285D01*
X127145295Y-93714285D02*
X127192914Y-93714285D01*
X127192914Y-93714285D02*
X127288152Y-93761904D01*
X127288152Y-93761904D02*
X127335771Y-93809523D01*
X127335771Y-93809523D02*
X127383390Y-93904761D01*
X127383390Y-93904761D02*
X127383390Y-94095237D01*
X127383390Y-94095237D02*
X127431009Y-94190475D01*
X127431009Y-94190475D02*
X127478628Y-94238094D01*
X127478628Y-94238094D02*
X127573866Y-94285713D01*
X127573866Y-94285713D02*
X127764342Y-94285713D01*
X127764342Y-94285713D02*
X127859580Y-94238094D01*
X127859580Y-94238094D02*
X127907200Y-94190475D01*
X127907200Y-94190475D02*
X127954819Y-94095237D01*
X127954819Y-94095237D02*
X127954819Y-93904761D01*
X127954819Y-93904761D02*
X127907200Y-93809523D01*
X127907200Y-93809523D02*
X127859580Y-93761904D01*
X127859580Y-93761904D02*
X127764342Y-93714285D01*
X127764342Y-93714285D02*
X127573866Y-93714285D01*
X127573866Y-93714285D02*
X127478628Y-93761904D01*
X127478628Y-93761904D02*
X127431009Y-93809523D01*
X127431009Y-93809523D02*
X127383390Y-93904761D01*
X129954819Y-133666666D02*
X129478628Y-133999999D01*
X129954819Y-134238094D02*
X128954819Y-134238094D01*
X128954819Y-134238094D02*
X128954819Y-133857142D01*
X128954819Y-133857142D02*
X129002438Y-133761904D01*
X129002438Y-133761904D02*
X129050057Y-133714285D01*
X129050057Y-133714285D02*
X129145295Y-133666666D01*
X129145295Y-133666666D02*
X129288152Y-133666666D01*
X129288152Y-133666666D02*
X129383390Y-133714285D01*
X129383390Y-133714285D02*
X129431009Y-133761904D01*
X129431009Y-133761904D02*
X129478628Y-133857142D01*
X129478628Y-133857142D02*
X129478628Y-134238094D01*
X129050057Y-133285713D02*
X129002438Y-133238094D01*
X129002438Y-133238094D02*
X128954819Y-133142856D01*
X128954819Y-133142856D02*
X128954819Y-132904761D01*
X128954819Y-132904761D02*
X129002438Y-132809523D01*
X129002438Y-132809523D02*
X129050057Y-132761904D01*
X129050057Y-132761904D02*
X129145295Y-132714285D01*
X129145295Y-132714285D02*
X129240533Y-132714285D01*
X129240533Y-132714285D02*
X129383390Y-132761904D01*
X129383390Y-132761904D02*
X129954819Y-133333332D01*
X129954819Y-133333332D02*
X129954819Y-132714285D01*
X129954819Y-126666666D02*
X129478628Y-126999999D01*
X129954819Y-127238094D02*
X128954819Y-127238094D01*
X128954819Y-127238094D02*
X128954819Y-126857142D01*
X128954819Y-126857142D02*
X129002438Y-126761904D01*
X129002438Y-126761904D02*
X129050057Y-126714285D01*
X129050057Y-126714285D02*
X129145295Y-126666666D01*
X129145295Y-126666666D02*
X129288152Y-126666666D01*
X129288152Y-126666666D02*
X129383390Y-126714285D01*
X129383390Y-126714285D02*
X129431009Y-126761904D01*
X129431009Y-126761904D02*
X129478628Y-126857142D01*
X129478628Y-126857142D02*
X129478628Y-127238094D01*
X128954819Y-126333332D02*
X128954819Y-125714285D01*
X128954819Y-125714285D02*
X129335771Y-126047618D01*
X129335771Y-126047618D02*
X129335771Y-125904761D01*
X129335771Y-125904761D02*
X129383390Y-125809523D01*
X129383390Y-125809523D02*
X129431009Y-125761904D01*
X129431009Y-125761904D02*
X129526247Y-125714285D01*
X129526247Y-125714285D02*
X129764342Y-125714285D01*
X129764342Y-125714285D02*
X129859580Y-125761904D01*
X129859580Y-125761904D02*
X129907200Y-125809523D01*
X129907200Y-125809523D02*
X129954819Y-125904761D01*
X129954819Y-125904761D02*
X129954819Y-126190475D01*
X129954819Y-126190475D02*
X129907200Y-126285713D01*
X129907200Y-126285713D02*
X129859580Y-126333332D01*
X129333333Y-115454819D02*
X129000000Y-114978628D01*
X128761905Y-115454819D02*
X128761905Y-114454819D01*
X128761905Y-114454819D02*
X129142857Y-114454819D01*
X129142857Y-114454819D02*
X129238095Y-114502438D01*
X129238095Y-114502438D02*
X129285714Y-114550057D01*
X129285714Y-114550057D02*
X129333333Y-114645295D01*
X129333333Y-114645295D02*
X129333333Y-114788152D01*
X129333333Y-114788152D02*
X129285714Y-114883390D01*
X129285714Y-114883390D02*
X129238095Y-114931009D01*
X129238095Y-114931009D02*
X129142857Y-114978628D01*
X129142857Y-114978628D02*
X128761905Y-114978628D01*
X130190476Y-114788152D02*
X130190476Y-115454819D01*
X129952381Y-114407200D02*
X129714286Y-115121485D01*
X129714286Y-115121485D02*
X130333333Y-115121485D01*
X129954819Y-112666666D02*
X129478628Y-112999999D01*
X129954819Y-113238094D02*
X128954819Y-113238094D01*
X128954819Y-113238094D02*
X128954819Y-112857142D01*
X128954819Y-112857142D02*
X129002438Y-112761904D01*
X129002438Y-112761904D02*
X129050057Y-112714285D01*
X129050057Y-112714285D02*
X129145295Y-112666666D01*
X129145295Y-112666666D02*
X129288152Y-112666666D01*
X129288152Y-112666666D02*
X129383390Y-112714285D01*
X129383390Y-112714285D02*
X129431009Y-112761904D01*
X129431009Y-112761904D02*
X129478628Y-112857142D01*
X129478628Y-112857142D02*
X129478628Y-113238094D01*
X128954819Y-111761904D02*
X128954819Y-112238094D01*
X128954819Y-112238094D02*
X129431009Y-112285713D01*
X129431009Y-112285713D02*
X129383390Y-112238094D01*
X129383390Y-112238094D02*
X129335771Y-112142856D01*
X129335771Y-112142856D02*
X129335771Y-111904761D01*
X129335771Y-111904761D02*
X129383390Y-111809523D01*
X129383390Y-111809523D02*
X129431009Y-111761904D01*
X129431009Y-111761904D02*
X129526247Y-111714285D01*
X129526247Y-111714285D02*
X129764342Y-111714285D01*
X129764342Y-111714285D02*
X129859580Y-111761904D01*
X129859580Y-111761904D02*
X129907200Y-111809523D01*
X129907200Y-111809523D02*
X129954819Y-111904761D01*
X129954819Y-111904761D02*
X129954819Y-112142856D01*
X129954819Y-112142856D02*
X129907200Y-112238094D01*
X129907200Y-112238094D02*
X129859580Y-112285713D01*
X129454819Y-106166666D02*
X128978628Y-106499999D01*
X129454819Y-106738094D02*
X128454819Y-106738094D01*
X128454819Y-106738094D02*
X128454819Y-106357142D01*
X128454819Y-106357142D02*
X128502438Y-106261904D01*
X128502438Y-106261904D02*
X128550057Y-106214285D01*
X128550057Y-106214285D02*
X128645295Y-106166666D01*
X128645295Y-106166666D02*
X128788152Y-106166666D01*
X128788152Y-106166666D02*
X128883390Y-106214285D01*
X128883390Y-106214285D02*
X128931009Y-106261904D01*
X128931009Y-106261904D02*
X128978628Y-106357142D01*
X128978628Y-106357142D02*
X128978628Y-106738094D01*
X128454819Y-105309523D02*
X128454819Y-105499999D01*
X128454819Y-105499999D02*
X128502438Y-105595237D01*
X128502438Y-105595237D02*
X128550057Y-105642856D01*
X128550057Y-105642856D02*
X128692914Y-105738094D01*
X128692914Y-105738094D02*
X128883390Y-105785713D01*
X128883390Y-105785713D02*
X129264342Y-105785713D01*
X129264342Y-105785713D02*
X129359580Y-105738094D01*
X129359580Y-105738094D02*
X129407200Y-105690475D01*
X129407200Y-105690475D02*
X129454819Y-105595237D01*
X129454819Y-105595237D02*
X129454819Y-105404761D01*
X129454819Y-105404761D02*
X129407200Y-105309523D01*
X129407200Y-105309523D02*
X129359580Y-105261904D01*
X129359580Y-105261904D02*
X129264342Y-105214285D01*
X129264342Y-105214285D02*
X129026247Y-105214285D01*
X129026247Y-105214285D02*
X128931009Y-105261904D01*
X128931009Y-105261904D02*
X128883390Y-105309523D01*
X128883390Y-105309523D02*
X128835771Y-105404761D01*
X128835771Y-105404761D02*
X128835771Y-105595237D01*
X128835771Y-105595237D02*
X128883390Y-105690475D01*
X128883390Y-105690475D02*
X128931009Y-105738094D01*
X128931009Y-105738094D02*
X129026247Y-105785713D01*
X130333333Y-92954819D02*
X130000000Y-92478628D01*
X129761905Y-92954819D02*
X129761905Y-91954819D01*
X129761905Y-91954819D02*
X130142857Y-91954819D01*
X130142857Y-91954819D02*
X130238095Y-92002438D01*
X130238095Y-92002438D02*
X130285714Y-92050057D01*
X130285714Y-92050057D02*
X130333333Y-92145295D01*
X130333333Y-92145295D02*
X130333333Y-92288152D01*
X130333333Y-92288152D02*
X130285714Y-92383390D01*
X130285714Y-92383390D02*
X130238095Y-92431009D01*
X130238095Y-92431009D02*
X130142857Y-92478628D01*
X130142857Y-92478628D02*
X129761905Y-92478628D01*
X130666667Y-91954819D02*
X131333333Y-91954819D01*
X131333333Y-91954819D02*
X130904762Y-92954819D01*
X130857142Y-133454819D02*
X130523809Y-132978628D01*
X130285714Y-133454819D02*
X130285714Y-132454819D01*
X130285714Y-132454819D02*
X130666666Y-132454819D01*
X130666666Y-132454819D02*
X130761904Y-132502438D01*
X130761904Y-132502438D02*
X130809523Y-132550057D01*
X130809523Y-132550057D02*
X130857142Y-132645295D01*
X130857142Y-132645295D02*
X130857142Y-132788152D01*
X130857142Y-132788152D02*
X130809523Y-132883390D01*
X130809523Y-132883390D02*
X130761904Y-132931009D01*
X130761904Y-132931009D02*
X130666666Y-132978628D01*
X130666666Y-132978628D02*
X130285714Y-132978628D01*
X131238095Y-132550057D02*
X131285714Y-132502438D01*
X131285714Y-132502438D02*
X131380952Y-132454819D01*
X131380952Y-132454819D02*
X131619047Y-132454819D01*
X131619047Y-132454819D02*
X131714285Y-132502438D01*
X131714285Y-132502438D02*
X131761904Y-132550057D01*
X131761904Y-132550057D02*
X131809523Y-132645295D01*
X131809523Y-132645295D02*
X131809523Y-132740533D01*
X131809523Y-132740533D02*
X131761904Y-132883390D01*
X131761904Y-132883390D02*
X131190476Y-133454819D01*
X131190476Y-133454819D02*
X131809523Y-133454819D01*
X132666666Y-132454819D02*
X132476190Y-132454819D01*
X132476190Y-132454819D02*
X132380952Y-132502438D01*
X132380952Y-132502438D02*
X132333333Y-132550057D01*
X132333333Y-132550057D02*
X132238095Y-132692914D01*
X132238095Y-132692914D02*
X132190476Y-132883390D01*
X132190476Y-132883390D02*
X132190476Y-133264342D01*
X132190476Y-133264342D02*
X132238095Y-133359580D01*
X132238095Y-133359580D02*
X132285714Y-133407200D01*
X132285714Y-133407200D02*
X132380952Y-133454819D01*
X132380952Y-133454819D02*
X132571428Y-133454819D01*
X132571428Y-133454819D02*
X132666666Y-133407200D01*
X132666666Y-133407200D02*
X132714285Y-133359580D01*
X132714285Y-133359580D02*
X132761904Y-133264342D01*
X132761904Y-133264342D02*
X132761904Y-133026247D01*
X132761904Y-133026247D02*
X132714285Y-132931009D01*
X132714285Y-132931009D02*
X132666666Y-132883390D01*
X132666666Y-132883390D02*
X132571428Y-132835771D01*
X132571428Y-132835771D02*
X132380952Y-132835771D01*
X132380952Y-132835771D02*
X132285714Y-132883390D01*
X132285714Y-132883390D02*
X132238095Y-132931009D01*
X132238095Y-132931009D02*
X132190476Y-133026247D01*
X130857142Y-126954819D02*
X130523809Y-126478628D01*
X130285714Y-126954819D02*
X130285714Y-125954819D01*
X130285714Y-125954819D02*
X130666666Y-125954819D01*
X130666666Y-125954819D02*
X130761904Y-126002438D01*
X130761904Y-126002438D02*
X130809523Y-126050057D01*
X130809523Y-126050057D02*
X130857142Y-126145295D01*
X130857142Y-126145295D02*
X130857142Y-126288152D01*
X130857142Y-126288152D02*
X130809523Y-126383390D01*
X130809523Y-126383390D02*
X130761904Y-126431009D01*
X130761904Y-126431009D02*
X130666666Y-126478628D01*
X130666666Y-126478628D02*
X130285714Y-126478628D01*
X131238095Y-126050057D02*
X131285714Y-126002438D01*
X131285714Y-126002438D02*
X131380952Y-125954819D01*
X131380952Y-125954819D02*
X131619047Y-125954819D01*
X131619047Y-125954819D02*
X131714285Y-126002438D01*
X131714285Y-126002438D02*
X131761904Y-126050057D01*
X131761904Y-126050057D02*
X131809523Y-126145295D01*
X131809523Y-126145295D02*
X131809523Y-126240533D01*
X131809523Y-126240533D02*
X131761904Y-126383390D01*
X131761904Y-126383390D02*
X131190476Y-126954819D01*
X131190476Y-126954819D02*
X131809523Y-126954819D01*
X132142857Y-125954819D02*
X132809523Y-125954819D01*
X132809523Y-125954819D02*
X132380952Y-126954819D01*
X130857142Y-120454819D02*
X130523809Y-119978628D01*
X130285714Y-120454819D02*
X130285714Y-119454819D01*
X130285714Y-119454819D02*
X130666666Y-119454819D01*
X130666666Y-119454819D02*
X130761904Y-119502438D01*
X130761904Y-119502438D02*
X130809523Y-119550057D01*
X130809523Y-119550057D02*
X130857142Y-119645295D01*
X130857142Y-119645295D02*
X130857142Y-119788152D01*
X130857142Y-119788152D02*
X130809523Y-119883390D01*
X130809523Y-119883390D02*
X130761904Y-119931009D01*
X130761904Y-119931009D02*
X130666666Y-119978628D01*
X130666666Y-119978628D02*
X130285714Y-119978628D01*
X131238095Y-119550057D02*
X131285714Y-119502438D01*
X131285714Y-119502438D02*
X131380952Y-119454819D01*
X131380952Y-119454819D02*
X131619047Y-119454819D01*
X131619047Y-119454819D02*
X131714285Y-119502438D01*
X131714285Y-119502438D02*
X131761904Y-119550057D01*
X131761904Y-119550057D02*
X131809523Y-119645295D01*
X131809523Y-119645295D02*
X131809523Y-119740533D01*
X131809523Y-119740533D02*
X131761904Y-119883390D01*
X131761904Y-119883390D02*
X131190476Y-120454819D01*
X131190476Y-120454819D02*
X131809523Y-120454819D01*
X132380952Y-119883390D02*
X132285714Y-119835771D01*
X132285714Y-119835771D02*
X132238095Y-119788152D01*
X132238095Y-119788152D02*
X132190476Y-119692914D01*
X132190476Y-119692914D02*
X132190476Y-119645295D01*
X132190476Y-119645295D02*
X132238095Y-119550057D01*
X132238095Y-119550057D02*
X132285714Y-119502438D01*
X132285714Y-119502438D02*
X132380952Y-119454819D01*
X132380952Y-119454819D02*
X132571428Y-119454819D01*
X132571428Y-119454819D02*
X132666666Y-119502438D01*
X132666666Y-119502438D02*
X132714285Y-119550057D01*
X132714285Y-119550057D02*
X132761904Y-119645295D01*
X132761904Y-119645295D02*
X132761904Y-119692914D01*
X132761904Y-119692914D02*
X132714285Y-119788152D01*
X132714285Y-119788152D02*
X132666666Y-119835771D01*
X132666666Y-119835771D02*
X132571428Y-119883390D01*
X132571428Y-119883390D02*
X132380952Y-119883390D01*
X132380952Y-119883390D02*
X132285714Y-119931009D01*
X132285714Y-119931009D02*
X132238095Y-119978628D01*
X132238095Y-119978628D02*
X132190476Y-120073866D01*
X132190476Y-120073866D02*
X132190476Y-120264342D01*
X132190476Y-120264342D02*
X132238095Y-120359580D01*
X132238095Y-120359580D02*
X132285714Y-120407200D01*
X132285714Y-120407200D02*
X132380952Y-120454819D01*
X132380952Y-120454819D02*
X132571428Y-120454819D01*
X132571428Y-120454819D02*
X132666666Y-120407200D01*
X132666666Y-120407200D02*
X132714285Y-120359580D01*
X132714285Y-120359580D02*
X132761904Y-120264342D01*
X132761904Y-120264342D02*
X132761904Y-120073866D01*
X132761904Y-120073866D02*
X132714285Y-119978628D01*
X132714285Y-119978628D02*
X132666666Y-119931009D01*
X132666666Y-119931009D02*
X132571428Y-119883390D01*
X131954819Y-113642857D02*
X131478628Y-113976190D01*
X131954819Y-114214285D02*
X130954819Y-114214285D01*
X130954819Y-114214285D02*
X130954819Y-113833333D01*
X130954819Y-113833333D02*
X131002438Y-113738095D01*
X131002438Y-113738095D02*
X131050057Y-113690476D01*
X131050057Y-113690476D02*
X131145295Y-113642857D01*
X131145295Y-113642857D02*
X131288152Y-113642857D01*
X131288152Y-113642857D02*
X131383390Y-113690476D01*
X131383390Y-113690476D02*
X131431009Y-113738095D01*
X131431009Y-113738095D02*
X131478628Y-113833333D01*
X131478628Y-113833333D02*
X131478628Y-114214285D01*
X131050057Y-113261904D02*
X131002438Y-113214285D01*
X131002438Y-113214285D02*
X130954819Y-113119047D01*
X130954819Y-113119047D02*
X130954819Y-112880952D01*
X130954819Y-112880952D02*
X131002438Y-112785714D01*
X131002438Y-112785714D02*
X131050057Y-112738095D01*
X131050057Y-112738095D02*
X131145295Y-112690476D01*
X131145295Y-112690476D02*
X131240533Y-112690476D01*
X131240533Y-112690476D02*
X131383390Y-112738095D01*
X131383390Y-112738095D02*
X131954819Y-113309523D01*
X131954819Y-113309523D02*
X131954819Y-112690476D01*
X131954819Y-112214285D02*
X131954819Y-112023809D01*
X131954819Y-112023809D02*
X131907200Y-111928571D01*
X131907200Y-111928571D02*
X131859580Y-111880952D01*
X131859580Y-111880952D02*
X131716723Y-111785714D01*
X131716723Y-111785714D02*
X131526247Y-111738095D01*
X131526247Y-111738095D02*
X131145295Y-111738095D01*
X131145295Y-111738095D02*
X131050057Y-111785714D01*
X131050057Y-111785714D02*
X131002438Y-111833333D01*
X131002438Y-111833333D02*
X130954819Y-111928571D01*
X130954819Y-111928571D02*
X130954819Y-112119047D01*
X130954819Y-112119047D02*
X131002438Y-112214285D01*
X131002438Y-112214285D02*
X131050057Y-112261904D01*
X131050057Y-112261904D02*
X131145295Y-112309523D01*
X131145295Y-112309523D02*
X131383390Y-112309523D01*
X131383390Y-112309523D02*
X131478628Y-112261904D01*
X131478628Y-112261904D02*
X131526247Y-112214285D01*
X131526247Y-112214285D02*
X131573866Y-112119047D01*
X131573866Y-112119047D02*
X131573866Y-111928571D01*
X131573866Y-111928571D02*
X131526247Y-111833333D01*
X131526247Y-111833333D02*
X131478628Y-111785714D01*
X131478628Y-111785714D02*
X131383390Y-111738095D01*
X131954819Y-100142857D02*
X131478628Y-100476190D01*
X131954819Y-100714285D02*
X130954819Y-100714285D01*
X130954819Y-100714285D02*
X130954819Y-100333333D01*
X130954819Y-100333333D02*
X131002438Y-100238095D01*
X131002438Y-100238095D02*
X131050057Y-100190476D01*
X131050057Y-100190476D02*
X131145295Y-100142857D01*
X131145295Y-100142857D02*
X131288152Y-100142857D01*
X131288152Y-100142857D02*
X131383390Y-100190476D01*
X131383390Y-100190476D02*
X131431009Y-100238095D01*
X131431009Y-100238095D02*
X131478628Y-100333333D01*
X131478628Y-100333333D02*
X131478628Y-100714285D01*
X130954819Y-99809523D02*
X130954819Y-99190476D01*
X130954819Y-99190476D02*
X131335771Y-99523809D01*
X131335771Y-99523809D02*
X131335771Y-99380952D01*
X131335771Y-99380952D02*
X131383390Y-99285714D01*
X131383390Y-99285714D02*
X131431009Y-99238095D01*
X131431009Y-99238095D02*
X131526247Y-99190476D01*
X131526247Y-99190476D02*
X131764342Y-99190476D01*
X131764342Y-99190476D02*
X131859580Y-99238095D01*
X131859580Y-99238095D02*
X131907200Y-99285714D01*
X131907200Y-99285714D02*
X131954819Y-99380952D01*
X131954819Y-99380952D02*
X131954819Y-99666666D01*
X131954819Y-99666666D02*
X131907200Y-99761904D01*
X131907200Y-99761904D02*
X131859580Y-99809523D01*
X130954819Y-98571428D02*
X130954819Y-98476190D01*
X130954819Y-98476190D02*
X131002438Y-98380952D01*
X131002438Y-98380952D02*
X131050057Y-98333333D01*
X131050057Y-98333333D02*
X131145295Y-98285714D01*
X131145295Y-98285714D02*
X131335771Y-98238095D01*
X131335771Y-98238095D02*
X131573866Y-98238095D01*
X131573866Y-98238095D02*
X131764342Y-98285714D01*
X131764342Y-98285714D02*
X131859580Y-98333333D01*
X131859580Y-98333333D02*
X131907200Y-98380952D01*
X131907200Y-98380952D02*
X131954819Y-98476190D01*
X131954819Y-98476190D02*
X131954819Y-98571428D01*
X131954819Y-98571428D02*
X131907200Y-98666666D01*
X131907200Y-98666666D02*
X131859580Y-98714285D01*
X131859580Y-98714285D02*
X131764342Y-98761904D01*
X131764342Y-98761904D02*
X131573866Y-98809523D01*
X131573866Y-98809523D02*
X131335771Y-98809523D01*
X131335771Y-98809523D02*
X131145295Y-98761904D01*
X131145295Y-98761904D02*
X131050057Y-98714285D01*
X131050057Y-98714285D02*
X131002438Y-98666666D01*
X131002438Y-98666666D02*
X130954819Y-98571428D01*
X136554819Y-97142857D02*
X136078628Y-97476190D01*
X136554819Y-97714285D02*
X135554819Y-97714285D01*
X135554819Y-97714285D02*
X135554819Y-97333333D01*
X135554819Y-97333333D02*
X135602438Y-97238095D01*
X135602438Y-97238095D02*
X135650057Y-97190476D01*
X135650057Y-97190476D02*
X135745295Y-97142857D01*
X135745295Y-97142857D02*
X135888152Y-97142857D01*
X135888152Y-97142857D02*
X135983390Y-97190476D01*
X135983390Y-97190476D02*
X136031009Y-97238095D01*
X136031009Y-97238095D02*
X136078628Y-97333333D01*
X136078628Y-97333333D02*
X136078628Y-97714285D01*
X135554819Y-96809523D02*
X135554819Y-96190476D01*
X135554819Y-96190476D02*
X135935771Y-96523809D01*
X135935771Y-96523809D02*
X135935771Y-96380952D01*
X135935771Y-96380952D02*
X135983390Y-96285714D01*
X135983390Y-96285714D02*
X136031009Y-96238095D01*
X136031009Y-96238095D02*
X136126247Y-96190476D01*
X136126247Y-96190476D02*
X136364342Y-96190476D01*
X136364342Y-96190476D02*
X136459580Y-96238095D01*
X136459580Y-96238095D02*
X136507200Y-96285714D01*
X136507200Y-96285714D02*
X136554819Y-96380952D01*
X136554819Y-96380952D02*
X136554819Y-96666666D01*
X136554819Y-96666666D02*
X136507200Y-96761904D01*
X136507200Y-96761904D02*
X136459580Y-96809523D01*
X135650057Y-95809523D02*
X135602438Y-95761904D01*
X135602438Y-95761904D02*
X135554819Y-95666666D01*
X135554819Y-95666666D02*
X135554819Y-95428571D01*
X135554819Y-95428571D02*
X135602438Y-95333333D01*
X135602438Y-95333333D02*
X135650057Y-95285714D01*
X135650057Y-95285714D02*
X135745295Y-95238095D01*
X135745295Y-95238095D02*
X135840533Y-95238095D01*
X135840533Y-95238095D02*
X135983390Y-95285714D01*
X135983390Y-95285714D02*
X136554819Y-95857142D01*
X136554819Y-95857142D02*
X136554819Y-95238095D01*
X123357142Y-134954819D02*
X123023809Y-134478628D01*
X122785714Y-134954819D02*
X122785714Y-133954819D01*
X122785714Y-133954819D02*
X123166666Y-133954819D01*
X123166666Y-133954819D02*
X123261904Y-134002438D01*
X123261904Y-134002438D02*
X123309523Y-134050057D01*
X123309523Y-134050057D02*
X123357142Y-134145295D01*
X123357142Y-134145295D02*
X123357142Y-134288152D01*
X123357142Y-134288152D02*
X123309523Y-134383390D01*
X123309523Y-134383390D02*
X123261904Y-134431009D01*
X123261904Y-134431009D02*
X123166666Y-134478628D01*
X123166666Y-134478628D02*
X122785714Y-134478628D01*
X123690476Y-133954819D02*
X124309523Y-133954819D01*
X124309523Y-133954819D02*
X123976190Y-134335771D01*
X123976190Y-134335771D02*
X124119047Y-134335771D01*
X124119047Y-134335771D02*
X124214285Y-134383390D01*
X124214285Y-134383390D02*
X124261904Y-134431009D01*
X124261904Y-134431009D02*
X124309523Y-134526247D01*
X124309523Y-134526247D02*
X124309523Y-134764342D01*
X124309523Y-134764342D02*
X124261904Y-134859580D01*
X124261904Y-134859580D02*
X124214285Y-134907200D01*
X124214285Y-134907200D02*
X124119047Y-134954819D01*
X124119047Y-134954819D02*
X123833333Y-134954819D01*
X123833333Y-134954819D02*
X123738095Y-134907200D01*
X123738095Y-134907200D02*
X123690476Y-134859580D01*
X124642857Y-133954819D02*
X125261904Y-133954819D01*
X125261904Y-133954819D02*
X124928571Y-134335771D01*
X124928571Y-134335771D02*
X125071428Y-134335771D01*
X125071428Y-134335771D02*
X125166666Y-134383390D01*
X125166666Y-134383390D02*
X125214285Y-134431009D01*
X125214285Y-134431009D02*
X125261904Y-134526247D01*
X125261904Y-134526247D02*
X125261904Y-134764342D01*
X125261904Y-134764342D02*
X125214285Y-134859580D01*
X125214285Y-134859580D02*
X125166666Y-134907200D01*
X125166666Y-134907200D02*
X125071428Y-134954819D01*
X125071428Y-134954819D02*
X124785714Y-134954819D01*
X124785714Y-134954819D02*
X124690476Y-134907200D01*
X124690476Y-134907200D02*
X124642857Y-134859580D01*
X123857142Y-128454819D02*
X123523809Y-127978628D01*
X123285714Y-128454819D02*
X123285714Y-127454819D01*
X123285714Y-127454819D02*
X123666666Y-127454819D01*
X123666666Y-127454819D02*
X123761904Y-127502438D01*
X123761904Y-127502438D02*
X123809523Y-127550057D01*
X123809523Y-127550057D02*
X123857142Y-127645295D01*
X123857142Y-127645295D02*
X123857142Y-127788152D01*
X123857142Y-127788152D02*
X123809523Y-127883390D01*
X123809523Y-127883390D02*
X123761904Y-127931009D01*
X123761904Y-127931009D02*
X123666666Y-127978628D01*
X123666666Y-127978628D02*
X123285714Y-127978628D01*
X124190476Y-127454819D02*
X124809523Y-127454819D01*
X124809523Y-127454819D02*
X124476190Y-127835771D01*
X124476190Y-127835771D02*
X124619047Y-127835771D01*
X124619047Y-127835771D02*
X124714285Y-127883390D01*
X124714285Y-127883390D02*
X124761904Y-127931009D01*
X124761904Y-127931009D02*
X124809523Y-128026247D01*
X124809523Y-128026247D02*
X124809523Y-128264342D01*
X124809523Y-128264342D02*
X124761904Y-128359580D01*
X124761904Y-128359580D02*
X124714285Y-128407200D01*
X124714285Y-128407200D02*
X124619047Y-128454819D01*
X124619047Y-128454819D02*
X124333333Y-128454819D01*
X124333333Y-128454819D02*
X124238095Y-128407200D01*
X124238095Y-128407200D02*
X124190476Y-128359580D01*
X125666666Y-127788152D02*
X125666666Y-128454819D01*
X125428571Y-127407200D02*
X125190476Y-128121485D01*
X125190476Y-128121485D02*
X125809523Y-128121485D01*
X123357142Y-122454819D02*
X123023809Y-121978628D01*
X122785714Y-122454819D02*
X122785714Y-121454819D01*
X122785714Y-121454819D02*
X123166666Y-121454819D01*
X123166666Y-121454819D02*
X123261904Y-121502438D01*
X123261904Y-121502438D02*
X123309523Y-121550057D01*
X123309523Y-121550057D02*
X123357142Y-121645295D01*
X123357142Y-121645295D02*
X123357142Y-121788152D01*
X123357142Y-121788152D02*
X123309523Y-121883390D01*
X123309523Y-121883390D02*
X123261904Y-121931009D01*
X123261904Y-121931009D02*
X123166666Y-121978628D01*
X123166666Y-121978628D02*
X122785714Y-121978628D01*
X123690476Y-121454819D02*
X124309523Y-121454819D01*
X124309523Y-121454819D02*
X123976190Y-121835771D01*
X123976190Y-121835771D02*
X124119047Y-121835771D01*
X124119047Y-121835771D02*
X124214285Y-121883390D01*
X124214285Y-121883390D02*
X124261904Y-121931009D01*
X124261904Y-121931009D02*
X124309523Y-122026247D01*
X124309523Y-122026247D02*
X124309523Y-122264342D01*
X124309523Y-122264342D02*
X124261904Y-122359580D01*
X124261904Y-122359580D02*
X124214285Y-122407200D01*
X124214285Y-122407200D02*
X124119047Y-122454819D01*
X124119047Y-122454819D02*
X123833333Y-122454819D01*
X123833333Y-122454819D02*
X123738095Y-122407200D01*
X123738095Y-122407200D02*
X123690476Y-122359580D01*
X125214285Y-121454819D02*
X124738095Y-121454819D01*
X124738095Y-121454819D02*
X124690476Y-121931009D01*
X124690476Y-121931009D02*
X124738095Y-121883390D01*
X124738095Y-121883390D02*
X124833333Y-121835771D01*
X124833333Y-121835771D02*
X125071428Y-121835771D01*
X125071428Y-121835771D02*
X125166666Y-121883390D01*
X125166666Y-121883390D02*
X125214285Y-121931009D01*
X125214285Y-121931009D02*
X125261904Y-122026247D01*
X125261904Y-122026247D02*
X125261904Y-122264342D01*
X125261904Y-122264342D02*
X125214285Y-122359580D01*
X125214285Y-122359580D02*
X125166666Y-122407200D01*
X125166666Y-122407200D02*
X125071428Y-122454819D01*
X125071428Y-122454819D02*
X124833333Y-122454819D01*
X124833333Y-122454819D02*
X124738095Y-122407200D01*
X124738095Y-122407200D02*
X124690476Y-122359580D01*
X120357142Y-109454819D02*
X120023809Y-108978628D01*
X119785714Y-109454819D02*
X119785714Y-108454819D01*
X119785714Y-108454819D02*
X120166666Y-108454819D01*
X120166666Y-108454819D02*
X120261904Y-108502438D01*
X120261904Y-108502438D02*
X120309523Y-108550057D01*
X120309523Y-108550057D02*
X120357142Y-108645295D01*
X120357142Y-108645295D02*
X120357142Y-108788152D01*
X120357142Y-108788152D02*
X120309523Y-108883390D01*
X120309523Y-108883390D02*
X120261904Y-108931009D01*
X120261904Y-108931009D02*
X120166666Y-108978628D01*
X120166666Y-108978628D02*
X119785714Y-108978628D01*
X120690476Y-108454819D02*
X121309523Y-108454819D01*
X121309523Y-108454819D02*
X120976190Y-108835771D01*
X120976190Y-108835771D02*
X121119047Y-108835771D01*
X121119047Y-108835771D02*
X121214285Y-108883390D01*
X121214285Y-108883390D02*
X121261904Y-108931009D01*
X121261904Y-108931009D02*
X121309523Y-109026247D01*
X121309523Y-109026247D02*
X121309523Y-109264342D01*
X121309523Y-109264342D02*
X121261904Y-109359580D01*
X121261904Y-109359580D02*
X121214285Y-109407200D01*
X121214285Y-109407200D02*
X121119047Y-109454819D01*
X121119047Y-109454819D02*
X120833333Y-109454819D01*
X120833333Y-109454819D02*
X120738095Y-109407200D01*
X120738095Y-109407200D02*
X120690476Y-109359580D01*
X122166666Y-108454819D02*
X121976190Y-108454819D01*
X121976190Y-108454819D02*
X121880952Y-108502438D01*
X121880952Y-108502438D02*
X121833333Y-108550057D01*
X121833333Y-108550057D02*
X121738095Y-108692914D01*
X121738095Y-108692914D02*
X121690476Y-108883390D01*
X121690476Y-108883390D02*
X121690476Y-109264342D01*
X121690476Y-109264342D02*
X121738095Y-109359580D01*
X121738095Y-109359580D02*
X121785714Y-109407200D01*
X121785714Y-109407200D02*
X121880952Y-109454819D01*
X121880952Y-109454819D02*
X122071428Y-109454819D01*
X122071428Y-109454819D02*
X122166666Y-109407200D01*
X122166666Y-109407200D02*
X122214285Y-109359580D01*
X122214285Y-109359580D02*
X122261904Y-109264342D01*
X122261904Y-109264342D02*
X122261904Y-109026247D01*
X122261904Y-109026247D02*
X122214285Y-108931009D01*
X122214285Y-108931009D02*
X122166666Y-108883390D01*
X122166666Y-108883390D02*
X122071428Y-108835771D01*
X122071428Y-108835771D02*
X121880952Y-108835771D01*
X121880952Y-108835771D02*
X121785714Y-108883390D01*
X121785714Y-108883390D02*
X121738095Y-108931009D01*
X121738095Y-108931009D02*
X121690476Y-109026247D01*
X121857142Y-101954819D02*
X121523809Y-101478628D01*
X121285714Y-101954819D02*
X121285714Y-100954819D01*
X121285714Y-100954819D02*
X121666666Y-100954819D01*
X121666666Y-100954819D02*
X121761904Y-101002438D01*
X121761904Y-101002438D02*
X121809523Y-101050057D01*
X121809523Y-101050057D02*
X121857142Y-101145295D01*
X121857142Y-101145295D02*
X121857142Y-101288152D01*
X121857142Y-101288152D02*
X121809523Y-101383390D01*
X121809523Y-101383390D02*
X121761904Y-101431009D01*
X121761904Y-101431009D02*
X121666666Y-101478628D01*
X121666666Y-101478628D02*
X121285714Y-101478628D01*
X122190476Y-100954819D02*
X122809523Y-100954819D01*
X122809523Y-100954819D02*
X122476190Y-101335771D01*
X122476190Y-101335771D02*
X122619047Y-101335771D01*
X122619047Y-101335771D02*
X122714285Y-101383390D01*
X122714285Y-101383390D02*
X122761904Y-101431009D01*
X122761904Y-101431009D02*
X122809523Y-101526247D01*
X122809523Y-101526247D02*
X122809523Y-101764342D01*
X122809523Y-101764342D02*
X122761904Y-101859580D01*
X122761904Y-101859580D02*
X122714285Y-101907200D01*
X122714285Y-101907200D02*
X122619047Y-101954819D01*
X122619047Y-101954819D02*
X122333333Y-101954819D01*
X122333333Y-101954819D02*
X122238095Y-101907200D01*
X122238095Y-101907200D02*
X122190476Y-101859580D01*
X123142857Y-100954819D02*
X123809523Y-100954819D01*
X123809523Y-100954819D02*
X123380952Y-101954819D01*
X118357142Y-98454819D02*
X118023809Y-97978628D01*
X117785714Y-98454819D02*
X117785714Y-97454819D01*
X117785714Y-97454819D02*
X118166666Y-97454819D01*
X118166666Y-97454819D02*
X118261904Y-97502438D01*
X118261904Y-97502438D02*
X118309523Y-97550057D01*
X118309523Y-97550057D02*
X118357142Y-97645295D01*
X118357142Y-97645295D02*
X118357142Y-97788152D01*
X118357142Y-97788152D02*
X118309523Y-97883390D01*
X118309523Y-97883390D02*
X118261904Y-97931009D01*
X118261904Y-97931009D02*
X118166666Y-97978628D01*
X118166666Y-97978628D02*
X117785714Y-97978628D01*
X118690476Y-97454819D02*
X119309523Y-97454819D01*
X119309523Y-97454819D02*
X118976190Y-97835771D01*
X118976190Y-97835771D02*
X119119047Y-97835771D01*
X119119047Y-97835771D02*
X119214285Y-97883390D01*
X119214285Y-97883390D02*
X119261904Y-97931009D01*
X119261904Y-97931009D02*
X119309523Y-98026247D01*
X119309523Y-98026247D02*
X119309523Y-98264342D01*
X119309523Y-98264342D02*
X119261904Y-98359580D01*
X119261904Y-98359580D02*
X119214285Y-98407200D01*
X119214285Y-98407200D02*
X119119047Y-98454819D01*
X119119047Y-98454819D02*
X118833333Y-98454819D01*
X118833333Y-98454819D02*
X118738095Y-98407200D01*
X118738095Y-98407200D02*
X118690476Y-98359580D01*
X119880952Y-97883390D02*
X119785714Y-97835771D01*
X119785714Y-97835771D02*
X119738095Y-97788152D01*
X119738095Y-97788152D02*
X119690476Y-97692914D01*
X119690476Y-97692914D02*
X119690476Y-97645295D01*
X119690476Y-97645295D02*
X119738095Y-97550057D01*
X119738095Y-97550057D02*
X119785714Y-97502438D01*
X119785714Y-97502438D02*
X119880952Y-97454819D01*
X119880952Y-97454819D02*
X120071428Y-97454819D01*
X120071428Y-97454819D02*
X120166666Y-97502438D01*
X120166666Y-97502438D02*
X120214285Y-97550057D01*
X120214285Y-97550057D02*
X120261904Y-97645295D01*
X120261904Y-97645295D02*
X120261904Y-97692914D01*
X120261904Y-97692914D02*
X120214285Y-97788152D01*
X120214285Y-97788152D02*
X120166666Y-97835771D01*
X120166666Y-97835771D02*
X120071428Y-97883390D01*
X120071428Y-97883390D02*
X119880952Y-97883390D01*
X119880952Y-97883390D02*
X119785714Y-97931009D01*
X119785714Y-97931009D02*
X119738095Y-97978628D01*
X119738095Y-97978628D02*
X119690476Y-98073866D01*
X119690476Y-98073866D02*
X119690476Y-98264342D01*
X119690476Y-98264342D02*
X119738095Y-98359580D01*
X119738095Y-98359580D02*
X119785714Y-98407200D01*
X119785714Y-98407200D02*
X119880952Y-98454819D01*
X119880952Y-98454819D02*
X120071428Y-98454819D01*
X120071428Y-98454819D02*
X120166666Y-98407200D01*
X120166666Y-98407200D02*
X120214285Y-98359580D01*
X120214285Y-98359580D02*
X120261904Y-98264342D01*
X120261904Y-98264342D02*
X120261904Y-98073866D01*
X120261904Y-98073866D02*
X120214285Y-97978628D01*
X120214285Y-97978628D02*
X120166666Y-97931009D01*
X120166666Y-97931009D02*
X120071428Y-97883390D01*
X147357142Y-77359580D02*
X147309523Y-77407200D01*
X147309523Y-77407200D02*
X147166666Y-77454819D01*
X147166666Y-77454819D02*
X147071428Y-77454819D01*
X147071428Y-77454819D02*
X146928571Y-77407200D01*
X146928571Y-77407200D02*
X146833333Y-77311961D01*
X146833333Y-77311961D02*
X146785714Y-77216723D01*
X146785714Y-77216723D02*
X146738095Y-77026247D01*
X146738095Y-77026247D02*
X146738095Y-76883390D01*
X146738095Y-76883390D02*
X146785714Y-76692914D01*
X146785714Y-76692914D02*
X146833333Y-76597676D01*
X146833333Y-76597676D02*
X146928571Y-76502438D01*
X146928571Y-76502438D02*
X147071428Y-76454819D01*
X147071428Y-76454819D02*
X147166666Y-76454819D01*
X147166666Y-76454819D02*
X147309523Y-76502438D01*
X147309523Y-76502438D02*
X147357142Y-76550057D01*
X148309523Y-77454819D02*
X147738095Y-77454819D01*
X148023809Y-77454819D02*
X148023809Y-76454819D01*
X148023809Y-76454819D02*
X147928571Y-76597676D01*
X147928571Y-76597676D02*
X147833333Y-76692914D01*
X147833333Y-76692914D02*
X147738095Y-76740533D01*
X149261904Y-77454819D02*
X148690476Y-77454819D01*
X148976190Y-77454819D02*
X148976190Y-76454819D01*
X148976190Y-76454819D02*
X148880952Y-76597676D01*
X148880952Y-76597676D02*
X148785714Y-76692914D01*
X148785714Y-76692914D02*
X148690476Y-76740533D01*
X151857142Y-142859580D02*
X151809523Y-142907200D01*
X151809523Y-142907200D02*
X151666666Y-142954819D01*
X151666666Y-142954819D02*
X151571428Y-142954819D01*
X151571428Y-142954819D02*
X151428571Y-142907200D01*
X151428571Y-142907200D02*
X151333333Y-142811961D01*
X151333333Y-142811961D02*
X151285714Y-142716723D01*
X151285714Y-142716723D02*
X151238095Y-142526247D01*
X151238095Y-142526247D02*
X151238095Y-142383390D01*
X151238095Y-142383390D02*
X151285714Y-142192914D01*
X151285714Y-142192914D02*
X151333333Y-142097676D01*
X151333333Y-142097676D02*
X151428571Y-142002438D01*
X151428571Y-142002438D02*
X151571428Y-141954819D01*
X151571428Y-141954819D02*
X151666666Y-141954819D01*
X151666666Y-141954819D02*
X151809523Y-142002438D01*
X151809523Y-142002438D02*
X151857142Y-142050057D01*
X152809523Y-142954819D02*
X152238095Y-142954819D01*
X152523809Y-142954819D02*
X152523809Y-141954819D01*
X152523809Y-141954819D02*
X152428571Y-142097676D01*
X152428571Y-142097676D02*
X152333333Y-142192914D01*
X152333333Y-142192914D02*
X152238095Y-142240533D01*
X153190476Y-142050057D02*
X153238095Y-142002438D01*
X153238095Y-142002438D02*
X153333333Y-141954819D01*
X153333333Y-141954819D02*
X153571428Y-141954819D01*
X153571428Y-141954819D02*
X153666666Y-142002438D01*
X153666666Y-142002438D02*
X153714285Y-142050057D01*
X153714285Y-142050057D02*
X153761904Y-142145295D01*
X153761904Y-142145295D02*
X153761904Y-142240533D01*
X153761904Y-142240533D02*
X153714285Y-142383390D01*
X153714285Y-142383390D02*
X153142857Y-142954819D01*
X153142857Y-142954819D02*
X153761904Y-142954819D01*
X151857142Y-126859580D02*
X151809523Y-126907200D01*
X151809523Y-126907200D02*
X151666666Y-126954819D01*
X151666666Y-126954819D02*
X151571428Y-126954819D01*
X151571428Y-126954819D02*
X151428571Y-126907200D01*
X151428571Y-126907200D02*
X151333333Y-126811961D01*
X151333333Y-126811961D02*
X151285714Y-126716723D01*
X151285714Y-126716723D02*
X151238095Y-126526247D01*
X151238095Y-126526247D02*
X151238095Y-126383390D01*
X151238095Y-126383390D02*
X151285714Y-126192914D01*
X151285714Y-126192914D02*
X151333333Y-126097676D01*
X151333333Y-126097676D02*
X151428571Y-126002438D01*
X151428571Y-126002438D02*
X151571428Y-125954819D01*
X151571428Y-125954819D02*
X151666666Y-125954819D01*
X151666666Y-125954819D02*
X151809523Y-126002438D01*
X151809523Y-126002438D02*
X151857142Y-126050057D01*
X152809523Y-126954819D02*
X152238095Y-126954819D01*
X152523809Y-126954819D02*
X152523809Y-125954819D01*
X152523809Y-125954819D02*
X152428571Y-126097676D01*
X152428571Y-126097676D02*
X152333333Y-126192914D01*
X152333333Y-126192914D02*
X152238095Y-126240533D01*
X153142857Y-125954819D02*
X153761904Y-125954819D01*
X153761904Y-125954819D02*
X153428571Y-126335771D01*
X153428571Y-126335771D02*
X153571428Y-126335771D01*
X153571428Y-126335771D02*
X153666666Y-126383390D01*
X153666666Y-126383390D02*
X153714285Y-126431009D01*
X153714285Y-126431009D02*
X153761904Y-126526247D01*
X153761904Y-126526247D02*
X153761904Y-126764342D01*
X153761904Y-126764342D02*
X153714285Y-126859580D01*
X153714285Y-126859580D02*
X153666666Y-126907200D01*
X153666666Y-126907200D02*
X153571428Y-126954819D01*
X153571428Y-126954819D02*
X153285714Y-126954819D01*
X153285714Y-126954819D02*
X153190476Y-126907200D01*
X153190476Y-126907200D02*
X153142857Y-126859580D01*
X152357142Y-96859580D02*
X152309523Y-96907200D01*
X152309523Y-96907200D02*
X152166666Y-96954819D01*
X152166666Y-96954819D02*
X152071428Y-96954819D01*
X152071428Y-96954819D02*
X151928571Y-96907200D01*
X151928571Y-96907200D02*
X151833333Y-96811961D01*
X151833333Y-96811961D02*
X151785714Y-96716723D01*
X151785714Y-96716723D02*
X151738095Y-96526247D01*
X151738095Y-96526247D02*
X151738095Y-96383390D01*
X151738095Y-96383390D02*
X151785714Y-96192914D01*
X151785714Y-96192914D02*
X151833333Y-96097676D01*
X151833333Y-96097676D02*
X151928571Y-96002438D01*
X151928571Y-96002438D02*
X152071428Y-95954819D01*
X152071428Y-95954819D02*
X152166666Y-95954819D01*
X152166666Y-95954819D02*
X152309523Y-96002438D01*
X152309523Y-96002438D02*
X152357142Y-96050057D01*
X153309523Y-96954819D02*
X152738095Y-96954819D01*
X153023809Y-96954819D02*
X153023809Y-95954819D01*
X153023809Y-95954819D02*
X152928571Y-96097676D01*
X152928571Y-96097676D02*
X152833333Y-96192914D01*
X152833333Y-96192914D02*
X152738095Y-96240533D01*
X154166666Y-96288152D02*
X154166666Y-96954819D01*
X153928571Y-95907200D02*
X153690476Y-96621485D01*
X153690476Y-96621485D02*
X154309523Y-96621485D01*
X152357142Y-112859580D02*
X152309523Y-112907200D01*
X152309523Y-112907200D02*
X152166666Y-112954819D01*
X152166666Y-112954819D02*
X152071428Y-112954819D01*
X152071428Y-112954819D02*
X151928571Y-112907200D01*
X151928571Y-112907200D02*
X151833333Y-112811961D01*
X151833333Y-112811961D02*
X151785714Y-112716723D01*
X151785714Y-112716723D02*
X151738095Y-112526247D01*
X151738095Y-112526247D02*
X151738095Y-112383390D01*
X151738095Y-112383390D02*
X151785714Y-112192914D01*
X151785714Y-112192914D02*
X151833333Y-112097676D01*
X151833333Y-112097676D02*
X151928571Y-112002438D01*
X151928571Y-112002438D02*
X152071428Y-111954819D01*
X152071428Y-111954819D02*
X152166666Y-111954819D01*
X152166666Y-111954819D02*
X152309523Y-112002438D01*
X152309523Y-112002438D02*
X152357142Y-112050057D01*
X153309523Y-112954819D02*
X152738095Y-112954819D01*
X153023809Y-112954819D02*
X153023809Y-111954819D01*
X153023809Y-111954819D02*
X152928571Y-112097676D01*
X152928571Y-112097676D02*
X152833333Y-112192914D01*
X152833333Y-112192914D02*
X152738095Y-112240533D01*
X154214285Y-111954819D02*
X153738095Y-111954819D01*
X153738095Y-111954819D02*
X153690476Y-112431009D01*
X153690476Y-112431009D02*
X153738095Y-112383390D01*
X153738095Y-112383390D02*
X153833333Y-112335771D01*
X153833333Y-112335771D02*
X154071428Y-112335771D01*
X154071428Y-112335771D02*
X154166666Y-112383390D01*
X154166666Y-112383390D02*
X154214285Y-112431009D01*
X154214285Y-112431009D02*
X154261904Y-112526247D01*
X154261904Y-112526247D02*
X154261904Y-112764342D01*
X154261904Y-112764342D02*
X154214285Y-112859580D01*
X154214285Y-112859580D02*
X154166666Y-112907200D01*
X154166666Y-112907200D02*
X154071428Y-112954819D01*
X154071428Y-112954819D02*
X153833333Y-112954819D01*
X153833333Y-112954819D02*
X153738095Y-112907200D01*
X153738095Y-112907200D02*
X153690476Y-112859580D01*
X148357142Y-156359580D02*
X148309523Y-156407200D01*
X148309523Y-156407200D02*
X148166666Y-156454819D01*
X148166666Y-156454819D02*
X148071428Y-156454819D01*
X148071428Y-156454819D02*
X147928571Y-156407200D01*
X147928571Y-156407200D02*
X147833333Y-156311961D01*
X147833333Y-156311961D02*
X147785714Y-156216723D01*
X147785714Y-156216723D02*
X147738095Y-156026247D01*
X147738095Y-156026247D02*
X147738095Y-155883390D01*
X147738095Y-155883390D02*
X147785714Y-155692914D01*
X147785714Y-155692914D02*
X147833333Y-155597676D01*
X147833333Y-155597676D02*
X147928571Y-155502438D01*
X147928571Y-155502438D02*
X148071428Y-155454819D01*
X148071428Y-155454819D02*
X148166666Y-155454819D01*
X148166666Y-155454819D02*
X148309523Y-155502438D01*
X148309523Y-155502438D02*
X148357142Y-155550057D01*
X149309523Y-156454819D02*
X148738095Y-156454819D01*
X149023809Y-156454819D02*
X149023809Y-155454819D01*
X149023809Y-155454819D02*
X148928571Y-155597676D01*
X148928571Y-155597676D02*
X148833333Y-155692914D01*
X148833333Y-155692914D02*
X148738095Y-155740533D01*
X150166666Y-155454819D02*
X149976190Y-155454819D01*
X149976190Y-155454819D02*
X149880952Y-155502438D01*
X149880952Y-155502438D02*
X149833333Y-155550057D01*
X149833333Y-155550057D02*
X149738095Y-155692914D01*
X149738095Y-155692914D02*
X149690476Y-155883390D01*
X149690476Y-155883390D02*
X149690476Y-156264342D01*
X149690476Y-156264342D02*
X149738095Y-156359580D01*
X149738095Y-156359580D02*
X149785714Y-156407200D01*
X149785714Y-156407200D02*
X149880952Y-156454819D01*
X149880952Y-156454819D02*
X150071428Y-156454819D01*
X150071428Y-156454819D02*
X150166666Y-156407200D01*
X150166666Y-156407200D02*
X150214285Y-156359580D01*
X150214285Y-156359580D02*
X150261904Y-156264342D01*
X150261904Y-156264342D02*
X150261904Y-156026247D01*
X150261904Y-156026247D02*
X150214285Y-155931009D01*
X150214285Y-155931009D02*
X150166666Y-155883390D01*
X150166666Y-155883390D02*
X150071428Y-155835771D01*
X150071428Y-155835771D02*
X149880952Y-155835771D01*
X149880952Y-155835771D02*
X149785714Y-155883390D01*
X149785714Y-155883390D02*
X149738095Y-155931009D01*
X149738095Y-155931009D02*
X149690476Y-156026247D01*
X121000000Y-75025000D02*
X123000000Y-75025000D01*
X123000000Y-72975000D02*
X121000000Y-72975000D01*
X116975000Y-83250000D02*
X116975000Y-85250000D01*
X119025000Y-85250000D02*
X119025000Y-83250000D01*
X112850000Y-147000000D02*
X112850000Y-146000000D01*
X111150000Y-146000000D02*
X111150000Y-147000000D01*
X139499820Y-151949200D02*
X139499820Y-152650240D01*
X139499820Y-152650240D02*
X139250900Y-152650240D01*
X136700840Y-152650240D02*
X136500180Y-152650240D01*
X136500180Y-152650240D02*
X136500180Y-151949200D01*
X148670000Y-151130000D02*
X148670000Y-154305000D01*
X148670000Y-154305000D02*
X150448000Y-154305000D01*
X150448000Y-154305000D02*
X150448000Y-151130000D01*
X144098000Y-151130000D02*
X144098000Y-154305000D01*
X144098000Y-154305000D02*
X145876000Y-154305000D01*
X145876000Y-154305000D02*
X145876000Y-151130000D01*
X150702000Y-145034000D02*
X150702000Y-151130000D01*
X150702000Y-151130000D02*
X143844000Y-151130000D01*
X143844000Y-151130000D02*
X143844000Y-143256000D01*
X143844000Y-143129000D02*
X150702000Y-143129000D01*
X150702000Y-143256000D02*
X150702000Y-145034000D01*
X143539200Y-138200180D02*
X144240240Y-138200180D01*
X144240240Y-138200180D02*
X144240240Y-138449100D01*
X144240240Y-140999160D02*
X144240240Y-141199820D01*
X144240240Y-141199820D02*
X143539200Y-141199820D01*
X148797000Y-135636000D02*
X148797000Y-138811000D01*
X148797000Y-138811000D02*
X150575000Y-138811000D01*
X150575000Y-138811000D02*
X150575000Y-135636000D01*
X144225000Y-135636000D02*
X144225000Y-138811000D01*
X144225000Y-138811000D02*
X146003000Y-138811000D01*
X146003000Y-138811000D02*
X146003000Y-135636000D01*
X150829000Y-129540000D02*
X150829000Y-135636000D01*
X150829000Y-135636000D02*
X143971000Y-135636000D01*
X143971000Y-135636000D02*
X143971000Y-127762000D01*
X143971000Y-127635000D02*
X150829000Y-127635000D01*
X150829000Y-127762000D02*
X150829000Y-129540000D01*
X143539200Y-122960180D02*
X144240240Y-122960180D01*
X144240240Y-122960180D02*
X144240240Y-123209100D01*
X144240240Y-125759160D02*
X144240240Y-125959820D01*
X144240240Y-125959820D02*
X143539200Y-125959820D01*
X148797000Y-120396000D02*
X148797000Y-123571000D01*
X148797000Y-123571000D02*
X150575000Y-123571000D01*
X150575000Y-123571000D02*
X150575000Y-120396000D01*
X144225000Y-120396000D02*
X144225000Y-123571000D01*
X144225000Y-123571000D02*
X146003000Y-123571000D01*
X146003000Y-123571000D02*
X146003000Y-120396000D01*
X150829000Y-114300000D02*
X150829000Y-120396000D01*
X150829000Y-120396000D02*
X143971000Y-120396000D01*
X143971000Y-120396000D02*
X143971000Y-112522000D01*
X143971000Y-112395000D02*
X150829000Y-112395000D01*
X150829000Y-112522000D02*
X150829000Y-114300000D01*
X143539200Y-107720180D02*
X144240240Y-107720180D01*
X144240240Y-107720180D02*
X144240240Y-107969100D01*
X144240240Y-110519160D02*
X144240240Y-110719820D01*
X144240240Y-110719820D02*
X143539200Y-110719820D01*
X148797000Y-105156000D02*
X148797000Y-108331000D01*
X148797000Y-108331000D02*
X150575000Y-108331000D01*
X150575000Y-108331000D02*
X150575000Y-105156000D01*
X144225000Y-105156000D02*
X144225000Y-108331000D01*
X144225000Y-108331000D02*
X146003000Y-108331000D01*
X146003000Y-108331000D02*
X146003000Y-105156000D01*
X150829000Y-99060000D02*
X150829000Y-105156000D01*
X150829000Y-105156000D02*
X143971000Y-105156000D01*
X143971000Y-105156000D02*
X143971000Y-97282000D01*
X143971000Y-97155000D02*
X150829000Y-97155000D01*
X150829000Y-97282000D02*
X150829000Y-99060000D01*
X143539200Y-92480180D02*
X144240240Y-92480180D01*
X144240240Y-92480180D02*
X144240240Y-92729100D01*
X144240240Y-95279160D02*
X144240240Y-95479820D01*
X144240240Y-95479820D02*
X143539200Y-95479820D01*
X148797000Y-89916000D02*
X148797000Y-93091000D01*
X148797000Y-93091000D02*
X150575000Y-93091000D01*
X150575000Y-93091000D02*
X150575000Y-89916000D01*
X144225000Y-89916000D02*
X144225000Y-93091000D01*
X144225000Y-93091000D02*
X146003000Y-93091000D01*
X146003000Y-93091000D02*
X146003000Y-89916000D01*
X150829000Y-83820000D02*
X150829000Y-89916000D01*
X150829000Y-89916000D02*
X143971000Y-89916000D01*
X143971000Y-89916000D02*
X143971000Y-82042000D01*
X143971000Y-81915000D02*
X150829000Y-81915000D01*
X150829000Y-82042000D02*
X150829000Y-83820000D01*
X132500180Y-84050800D02*
X132500180Y-83349760D01*
X132500180Y-83349760D02*
X132749100Y-83349760D01*
X135299160Y-83349760D02*
X135499820Y-83349760D01*
X135499820Y-83349760D02*
X135499820Y-84050800D01*
X140397000Y-79826000D02*
X140397000Y-83001000D01*
X140397000Y-83001000D02*
X142175000Y-83001000D01*
X142175000Y-83001000D02*
X142175000Y-79826000D01*
X135825000Y-79826000D02*
X135825000Y-83001000D01*
X135825000Y-83001000D02*
X137603000Y-83001000D01*
X137603000Y-83001000D02*
X137603000Y-79826000D01*
X142429000Y-73730000D02*
X142429000Y-79826000D01*
X142429000Y-79826000D02*
X135571000Y-79826000D01*
X135571000Y-79826000D02*
X135571000Y-71952000D01*
X135571000Y-71825000D02*
X142429000Y-71825000D01*
X142429000Y-71952000D02*
X142429000Y-73730000D01*
X121603000Y-87274000D02*
X121603000Y-84099000D01*
X121603000Y-84099000D02*
X119825000Y-84099000D01*
X119825000Y-84099000D02*
X119825000Y-87274000D01*
X126175000Y-87274000D02*
X126175000Y-84099000D01*
X126175000Y-84099000D02*
X124397000Y-84099000D01*
X124397000Y-84099000D02*
X124397000Y-87274000D01*
X119571000Y-93370000D02*
X119571000Y-87274000D01*
X119571000Y-87274000D02*
X126429000Y-87274000D01*
X126429000Y-87274000D02*
X126429000Y-95148000D01*
X126429000Y-95275000D02*
X119571000Y-95275000D01*
X119571000Y-95148000D02*
X119571000Y-93370000D01*
X122250000Y-78000000D02*
X121700000Y-78450000D01*
X121700000Y-78450000D02*
X121700000Y-77550000D01*
X121700000Y-77550000D02*
X122250000Y-78000000D01*
X122250000Y-78550000D02*
X122250000Y-77450000D01*
X123799140Y-76249940D02*
X123799140Y-76600460D01*
X123799140Y-79750060D02*
X123799140Y-79399540D01*
X119749560Y-76249940D02*
X119749560Y-76600460D01*
X124250440Y-76249940D02*
X124250440Y-76600460D01*
X124250440Y-79750060D02*
X124250440Y-79399540D01*
X119749560Y-79750060D02*
X119749560Y-79399540D01*
X124250440Y-76249940D02*
X119749560Y-76249940D01*
X124250440Y-79750060D02*
X119749560Y-79750060D01*
X141290000Y-134655000D02*
X141290000Y-135855000D01*
X139540000Y-135855000D02*
X139540000Y-134655000D01*
X139740000Y-140200000D02*
X139740000Y-139200000D01*
X141090000Y-139200000D02*
X141090000Y-140200000D01*
X146900000Y-136485000D02*
X147900000Y-136485000D01*
X147900000Y-137835000D02*
X146900000Y-137835000D01*
X136365000Y-125695000D02*
X136365000Y-124495000D01*
X138115000Y-124495000D02*
X138115000Y-125695000D01*
X139740000Y-124960000D02*
X139740000Y-123960000D01*
X141090000Y-123960000D02*
X141090000Y-124960000D01*
X146900000Y-121245000D02*
X147900000Y-121245000D01*
X147900000Y-122595000D02*
X146900000Y-122595000D01*
X138270000Y-115535000D02*
X138270000Y-114335000D01*
X140020000Y-114335000D02*
X140020000Y-115535000D01*
X139740000Y-109720000D02*
X139740000Y-108720000D01*
X141090000Y-108720000D02*
X141090000Y-109720000D01*
X146900000Y-106005000D02*
X147900000Y-106005000D01*
X147900000Y-107355000D02*
X146900000Y-107355000D01*
X137000000Y-95215000D02*
X137000000Y-94015000D01*
X138750000Y-94015000D02*
X138750000Y-95215000D01*
X139740000Y-94480000D02*
X139740000Y-93480000D01*
X141090000Y-93480000D02*
X141090000Y-94480000D01*
X146900000Y-90765000D02*
X147900000Y-90765000D01*
X147900000Y-92115000D02*
X146900000Y-92115000D01*
X132125000Y-90600000D02*
X132125000Y-89400000D01*
X133875000Y-89400000D02*
X133875000Y-90600000D01*
X137500000Y-88675000D02*
X136500000Y-88675000D01*
X136500000Y-87325000D02*
X137500000Y-87325000D01*
X138500000Y-81325000D02*
X139500000Y-81325000D01*
X139500000Y-82675000D02*
X138500000Y-82675000D01*
X115375000Y-145900000D02*
X115375000Y-147100000D01*
X113625000Y-147100000D02*
X113625000Y-145900000D01*
X117900000Y-144125000D02*
X119100000Y-144125000D01*
X119100000Y-145875000D02*
X117900000Y-145875000D01*
X137400000Y-143125000D02*
X138600000Y-143125000D01*
X138600000Y-144875000D02*
X137400000Y-144875000D01*
X137500000Y-146325000D02*
X138500000Y-146325000D01*
X138500000Y-147675000D02*
X137500000Y-147675000D01*
X146773000Y-152233000D02*
X147773000Y-152233000D01*
X147773000Y-153583000D02*
X146773000Y-153583000D01*
X125800800Y-131249820D02*
X125099760Y-131249820D01*
X125099760Y-131249820D02*
X125099760Y-131000900D01*
X125099760Y-128450840D02*
X125099760Y-128250180D01*
X125099760Y-128250180D02*
X125800800Y-128250180D01*
X125800800Y-124999820D02*
X125099760Y-124999820D01*
X125099760Y-124999820D02*
X125099760Y-124750900D01*
X125099760Y-122200840D02*
X125099760Y-122000180D01*
X125099760Y-122000180D02*
X125800800Y-122000180D01*
X125800800Y-118999820D02*
X125099760Y-118999820D01*
X125099760Y-118999820D02*
X125099760Y-118750900D01*
X125099760Y-116200840D02*
X125099760Y-116000180D01*
X125099760Y-116000180D02*
X125800800Y-116000180D01*
X125800800Y-110999820D02*
X125099760Y-110999820D01*
X125099760Y-110999820D02*
X125099760Y-110750900D01*
X125099760Y-108200840D02*
X125099760Y-108000180D01*
X125099760Y-108000180D02*
X125800800Y-108000180D01*
X125800800Y-104499820D02*
X125099760Y-104499820D01*
X125099760Y-104499820D02*
X125099760Y-104250900D01*
X125099760Y-101700840D02*
X125099760Y-101500180D01*
X125099760Y-101500180D02*
X125800800Y-101500180D01*
X128050800Y-99499820D02*
X127349760Y-99499820D01*
X127349760Y-99499820D02*
X127349760Y-99250900D01*
X127349760Y-96700840D02*
X127349760Y-96500180D01*
X127349760Y-96500180D02*
X128050800Y-96500180D01*
X130175000Y-129250000D02*
X130175000Y-130250000D01*
X128825000Y-130250000D02*
X128825000Y-129250000D01*
X129925000Y-123000000D02*
X129925000Y-124000000D01*
X128575000Y-124000000D02*
X128575000Y-123000000D01*
X129925000Y-117250000D02*
X129925000Y-118250000D01*
X128575000Y-118250000D02*
X128575000Y-117250000D01*
X129925000Y-109000000D02*
X129925000Y-110000000D01*
X128575000Y-110000000D02*
X128575000Y-109000000D01*
X129925000Y-102500000D02*
X129925000Y-103500000D01*
X128575000Y-103500000D02*
X128575000Y-102500000D01*
X130000000Y-94325000D02*
X131000000Y-94325000D01*
X131000000Y-95675000D02*
X130000000Y-95675000D01*
X132375000Y-129400000D02*
X132375000Y-130600000D01*
X130625000Y-130600000D02*
X130625000Y-129400000D01*
X132375000Y-122900000D02*
X132375000Y-124100000D01*
X130625000Y-124100000D02*
X130625000Y-122900000D01*
X132375000Y-116400000D02*
X132375000Y-117600000D01*
X130625000Y-117600000D02*
X130625000Y-116400000D01*
X132125000Y-108650000D02*
X132125000Y-109850000D01*
X130375000Y-109850000D02*
X130375000Y-108650000D01*
X132375000Y-102650000D02*
X132375000Y-103850000D01*
X130625000Y-103850000D02*
X130625000Y-102650000D01*
X133125000Y-97100000D02*
X133125000Y-95900000D01*
X134875000Y-95900000D02*
X134875000Y-97100000D01*
X124250000Y-133425000D02*
X123250000Y-133425000D01*
X123250000Y-132075000D02*
X124250000Y-132075000D01*
X124250000Y-127175000D02*
X123250000Y-127175000D01*
X123250000Y-125825000D02*
X124250000Y-125825000D01*
X124250000Y-120925000D02*
X123250000Y-120925000D01*
X123250000Y-119575000D02*
X124250000Y-119575000D01*
X123500000Y-108175000D02*
X122500000Y-108175000D01*
X122500000Y-106825000D02*
X123500000Y-106825000D01*
X123500000Y-100675000D02*
X122500000Y-100675000D01*
X122500000Y-99325000D02*
X123500000Y-99325000D01*
X123500000Y-98675000D02*
X122500000Y-98675000D01*
X122500000Y-97325000D02*
X123500000Y-97325000D01*
X154286000Y-65000000D02*
G75*
G03*
X154286000Y-65000000I-2286000J0D01*
G01*
X114286000Y-155000000D02*
G75*
G03*
X114286000Y-155000000I-2286000J0D01*
G01*
X145025000Y-77000000D02*
X145025000Y-75000000D01*
X142975000Y-75000000D02*
X142975000Y-77000000D01*
X154025000Y-138000000D02*
X154025000Y-136000000D01*
X151975000Y-136000000D02*
X151975000Y-138000000D01*
X154025000Y-123000000D02*
X154025000Y-121000000D01*
X151975000Y-121000000D02*
X151975000Y-123000000D01*
X154025000Y-93000000D02*
X154025000Y-91000000D01*
X151975000Y-91000000D02*
X151975000Y-93000000D01*
X154025000Y-108000000D02*
X154025000Y-106000000D01*
X151975000Y-106000000D02*
X151975000Y-108000000D01*
X150975000Y-153000000D02*
X150975000Y-155000000D01*
X153025000Y-155000000D02*
X153025000Y-153000000D01*
D13*
X152000000Y-65000000D03*
X112000000Y-155000000D03*
D14*
X107000000Y-60000000D02*
X157000000Y-60000000D01*
X107000000Y-160000000D02*
X107000000Y-60000000D01*
X157000000Y-160000000D02*
X107000000Y-160000000D01*
X157000000Y-60000000D02*
X157000000Y-160000000D01*
M02*
